<?xml version="1.0" encoding="utf-8"?>
<svg xmlns="http://www.w3.org/2000/svg" xmlns:xlink="http://www.w3.org/1999/xlink" width="600" height="400" viewBox="0 0 2400 1600">
<defs>
  <clipPath id="clip060">
    <rect x="0" y="0" width="2400" height="1600"/>
  </clipPath>
</defs>
<path clip-path="url(#clip060)" d="M0 1600 L2400 1600 L2400 0 L0 0  Z" fill="#ffffff" fill-rule="evenodd" fill-opacity="1"/>
<defs>
  <clipPath id="clip061">
    <rect x="480" y="0" width="1681" height="1600"/>
  </clipPath>
</defs>
<path clip-path="url(#clip060)" d="M232.389 1423.18 L2352.76 1423.18 L2352.76 123.472 L232.389 123.472  Z" fill="#ffffff" fill-rule="evenodd" fill-opacity="1"/>
<defs>
  <clipPath id="clip062">
    <rect x="232" y="123" width="2121" height="1301"/>
  </clipPath>
</defs>
<polyline clip-path="url(#clip062)" style="stroke:#000000; stroke-linecap:round; stroke-linejoin:round; stroke-width:2; stroke-opacity:0.1; fill:none" points="288.391,1423.18 288.391,123.472 "/>
<polyline clip-path="url(#clip062)" style="stroke:#000000; stroke-linecap:round; stroke-linejoin:round; stroke-width:2; stroke-opacity:0.1; fill:none" points="689.262,1423.18 689.262,123.472 "/>
<polyline clip-path="url(#clip062)" style="stroke:#000000; stroke-linecap:round; stroke-linejoin:round; stroke-width:2; stroke-opacity:0.1; fill:none" points="1090.13,1423.18 1090.13,123.472 "/>
<polyline clip-path="url(#clip062)" style="stroke:#000000; stroke-linecap:round; stroke-linejoin:round; stroke-width:2; stroke-opacity:0.1; fill:none" points="1491,1423.18 1491,123.472 "/>
<polyline clip-path="url(#clip062)" style="stroke:#000000; stroke-linecap:round; stroke-linejoin:round; stroke-width:2; stroke-opacity:0.1; fill:none" points="1891.87,1423.18 1891.87,123.472 "/>
<polyline clip-path="url(#clip062)" style="stroke:#000000; stroke-linecap:round; stroke-linejoin:round; stroke-width:2; stroke-opacity:0.1; fill:none" points="2292.75,1423.18 2292.75,123.472 "/>
<polyline clip-path="url(#clip062)" style="stroke:#000000; stroke-linecap:round; stroke-linejoin:round; stroke-width:2; stroke-opacity:0.1; fill:none" points="232.389,1199.81 2352.76,1199.81 "/>
<polyline clip-path="url(#clip062)" style="stroke:#000000; stroke-linecap:round; stroke-linejoin:round; stroke-width:2; stroke-opacity:0.1; fill:none" points="232.389,933.257 2352.76,933.257 "/>
<polyline clip-path="url(#clip062)" style="stroke:#000000; stroke-linecap:round; stroke-linejoin:round; stroke-width:2; stroke-opacity:0.1; fill:none" points="232.389,666.705 2352.76,666.705 "/>
<polyline clip-path="url(#clip062)" style="stroke:#000000; stroke-linecap:round; stroke-linejoin:round; stroke-width:2; stroke-opacity:0.1; fill:none" points="232.389,400.153 2352.76,400.153 "/>
<polyline clip-path="url(#clip062)" style="stroke:#000000; stroke-linecap:round; stroke-linejoin:round; stroke-width:2; stroke-opacity:0.1; fill:none" points="232.389,133.601 2352.76,133.601 "/>
<polyline clip-path="url(#clip060)" style="stroke:#000000; stroke-linecap:round; stroke-linejoin:round; stroke-width:4; stroke-opacity:1; fill:none" points="232.389,1423.18 2352.76,1423.18 "/>
<polyline clip-path="url(#clip060)" style="stroke:#000000; stroke-linecap:round; stroke-linejoin:round; stroke-width:4; stroke-opacity:1; fill:none" points="288.391,1423.18 288.391,1404.28 "/>
<polyline clip-path="url(#clip060)" style="stroke:#000000; stroke-linecap:round; stroke-linejoin:round; stroke-width:4; stroke-opacity:1; fill:none" points="689.262,1423.18 689.262,1404.28 "/>
<polyline clip-path="url(#clip060)" style="stroke:#000000; stroke-linecap:round; stroke-linejoin:round; stroke-width:4; stroke-opacity:1; fill:none" points="1090.13,1423.18 1090.13,1404.28 "/>
<polyline clip-path="url(#clip060)" style="stroke:#000000; stroke-linecap:round; stroke-linejoin:round; stroke-width:4; stroke-opacity:1; fill:none" points="1491,1423.18 1491,1404.28 "/>
<polyline clip-path="url(#clip060)" style="stroke:#000000; stroke-linecap:round; stroke-linejoin:round; stroke-width:4; stroke-opacity:1; fill:none" points="1891.87,1423.18 1891.87,1404.28 "/>
<polyline clip-path="url(#clip060)" style="stroke:#000000; stroke-linecap:round; stroke-linejoin:round; stroke-width:4; stroke-opacity:1; fill:none" points="2292.75,1423.18 2292.75,1404.28 "/>
<path clip-path="url(#clip060)" d="M288.391 1454.1 Q284.78 1454.1 282.951 1457.66 Q281.146 1461.2 281.146 1468.33 Q281.146 1475.44 282.951 1479.01 Q284.78 1482.55 288.391 1482.55 Q292.025 1482.55 293.831 1479.01 Q295.659 1475.44 295.659 1468.33 Q295.659 1461.2 293.831 1457.66 Q292.025 1454.1 288.391 1454.1 M288.391 1450.39 Q294.201 1450.39 297.257 1455 Q300.335 1459.58 300.335 1468.33 Q300.335 1477.06 297.257 1481.67 Q294.201 1486.25 288.391 1486.25 Q282.581 1486.25 279.502 1481.67 Q276.447 1477.06 276.447 1468.33 Q276.447 1459.58 279.502 1455 Q282.581 1450.39 288.391 1450.39 Z" fill="#000000" fill-rule="nonzero" fill-opacity="1" /><path clip-path="url(#clip060)" d="M648.869 1481.64 L656.507 1481.64 L656.507 1455.28 L648.197 1456.95 L648.197 1452.69 L656.461 1451.02 L661.137 1451.02 L661.137 1481.64 L668.776 1481.64 L668.776 1485.58 L648.869 1485.58 L648.869 1481.64 Z" fill="#000000" fill-rule="nonzero" fill-opacity="1" /><path clip-path="url(#clip060)" d="M688.22 1454.1 Q684.609 1454.1 682.78 1457.66 Q680.975 1461.2 680.975 1468.33 Q680.975 1475.44 682.78 1479.01 Q684.609 1482.55 688.22 1482.55 Q691.854 1482.55 693.66 1479.01 Q695.489 1475.44 695.489 1468.33 Q695.489 1461.2 693.66 1457.66 Q691.854 1454.1 688.22 1454.1 M688.22 1450.39 Q694.03 1450.39 697.086 1455 Q700.165 1459.58 700.165 1468.33 Q700.165 1477.06 697.086 1481.67 Q694.03 1486.25 688.22 1486.25 Q682.41 1486.25 679.331 1481.67 Q676.276 1477.06 676.276 1468.33 Q676.276 1459.58 679.331 1455 Q682.41 1450.39 688.22 1450.39 Z" fill="#000000" fill-rule="nonzero" fill-opacity="1" /><path clip-path="url(#clip060)" d="M718.382 1454.1 Q714.771 1454.1 712.942 1457.66 Q711.137 1461.2 711.137 1468.33 Q711.137 1475.44 712.942 1479.01 Q714.771 1482.55 718.382 1482.55 Q722.016 1482.55 723.822 1479.01 Q725.651 1475.44 725.651 1468.33 Q725.651 1461.2 723.822 1457.66 Q722.016 1454.1 718.382 1454.1 M718.382 1450.39 Q724.192 1450.39 727.248 1455 Q730.327 1459.58 730.327 1468.33 Q730.327 1477.06 727.248 1481.67 Q724.192 1486.25 718.382 1486.25 Q712.572 1486.25 709.493 1481.67 Q706.438 1477.06 706.438 1468.33 Q706.438 1459.58 709.493 1455 Q712.572 1450.39 718.382 1450.39 Z" fill="#000000" fill-rule="nonzero" fill-opacity="1" /><path clip-path="url(#clip060)" d="M1053.83 1481.64 L1070.14 1481.64 L1070.14 1485.58 L1048.2 1485.58 L1048.2 1481.64 Q1050.86 1478.89 1055.45 1474.26 Q1060.05 1469.61 1061.23 1468.27 Q1063.48 1465.74 1064.36 1464.01 Q1065.26 1462.25 1065.26 1460.56 Q1065.26 1457.8 1063.32 1456.07 Q1061.39 1454.33 1058.29 1454.33 Q1056.09 1454.33 1053.64 1455.09 Q1051.21 1455.86 1048.43 1457.41 L1048.43 1452.69 Q1051.26 1451.55 1053.71 1450.97 Q1056.16 1450.39 1058.2 1450.39 Q1063.57 1450.39 1066.76 1453.08 Q1069.96 1455.77 1069.96 1460.26 Q1069.96 1462.39 1069.15 1464.31 Q1068.36 1466.2 1066.26 1468.8 Q1065.68 1469.47 1062.58 1472.69 Q1059.47 1475.88 1053.83 1481.64 Z" fill="#000000" fill-rule="nonzero" fill-opacity="1" /><path clip-path="url(#clip060)" d="M1089.96 1454.1 Q1086.35 1454.1 1084.52 1457.66 Q1082.71 1461.2 1082.71 1468.33 Q1082.71 1475.44 1084.52 1479.01 Q1086.35 1482.55 1089.96 1482.55 Q1093.59 1482.55 1095.4 1479.01 Q1097.23 1475.44 1097.23 1468.33 Q1097.23 1461.2 1095.4 1457.66 Q1093.59 1454.1 1089.96 1454.1 M1089.96 1450.39 Q1095.77 1450.39 1098.82 1455 Q1101.9 1459.58 1101.9 1468.33 Q1101.9 1477.06 1098.82 1481.67 Q1095.77 1486.25 1089.96 1486.25 Q1084.15 1486.25 1081.07 1481.67 Q1078.01 1477.06 1078.01 1468.33 Q1078.01 1459.58 1081.07 1455 Q1084.15 1450.39 1089.96 1450.39 Z" fill="#000000" fill-rule="nonzero" fill-opacity="1" /><path clip-path="url(#clip060)" d="M1120.12 1454.1 Q1116.51 1454.1 1114.68 1457.66 Q1112.88 1461.2 1112.88 1468.33 Q1112.88 1475.44 1114.68 1479.01 Q1116.51 1482.55 1120.12 1482.55 Q1123.76 1482.55 1125.56 1479.01 Q1127.39 1475.44 1127.39 1468.33 Q1127.39 1461.2 1125.56 1457.66 Q1123.76 1454.1 1120.12 1454.1 M1120.12 1450.39 Q1125.93 1450.39 1128.99 1455 Q1132.07 1459.58 1132.07 1468.33 Q1132.07 1477.06 1128.99 1481.67 Q1125.93 1486.25 1120.12 1486.25 Q1114.31 1486.25 1111.23 1481.67 Q1108.18 1477.06 1108.18 1468.33 Q1108.18 1459.58 1111.23 1455 Q1114.31 1450.39 1120.12 1450.39 Z" fill="#000000" fill-rule="nonzero" fill-opacity="1" /><path clip-path="url(#clip060)" d="M1464.77 1466.95 Q1468.12 1467.66 1470 1469.93 Q1471.9 1472.2 1471.9 1475.53 Q1471.9 1480.65 1468.38 1483.45 Q1464.86 1486.25 1458.38 1486.25 Q1456.2 1486.25 1453.89 1485.81 Q1451.59 1485.39 1449.14 1484.54 L1449.14 1480.02 Q1451.08 1481.16 1453.4 1481.74 Q1455.71 1482.32 1458.24 1482.32 Q1462.64 1482.32 1464.93 1480.58 Q1467.24 1478.84 1467.24 1475.53 Q1467.24 1472.48 1465.09 1470.77 Q1462.96 1469.03 1459.14 1469.03 L1455.11 1469.03 L1455.11 1465.19 L1459.33 1465.19 Q1462.77 1465.19 1464.6 1463.82 Q1466.43 1462.43 1466.43 1459.84 Q1466.43 1457.18 1464.53 1455.77 Q1462.66 1454.33 1459.14 1454.33 Q1457.22 1454.33 1455.02 1454.75 Q1452.82 1455.16 1450.18 1456.04 L1450.18 1451.88 Q1452.84 1451.14 1455.16 1450.77 Q1457.5 1450.39 1459.56 1450.39 Q1464.88 1450.39 1467.98 1452.83 Q1471.08 1455.23 1471.08 1459.35 Q1471.08 1462.22 1469.44 1464.21 Q1467.8 1466.18 1464.77 1466.95 Z" fill="#000000" fill-rule="nonzero" fill-opacity="1" /><path clip-path="url(#clip060)" d="M1490.76 1454.1 Q1487.15 1454.1 1485.32 1457.66 Q1483.52 1461.2 1483.52 1468.33 Q1483.52 1475.44 1485.32 1479.01 Q1487.15 1482.55 1490.76 1482.55 Q1494.39 1482.55 1496.2 1479.01 Q1498.03 1475.44 1498.03 1468.33 Q1498.03 1461.2 1496.2 1457.66 Q1494.39 1454.1 1490.76 1454.1 M1490.76 1450.39 Q1496.57 1450.39 1499.63 1455 Q1502.71 1459.58 1502.71 1468.33 Q1502.71 1477.06 1499.63 1481.67 Q1496.57 1486.25 1490.76 1486.25 Q1484.95 1486.25 1481.87 1481.67 Q1478.82 1477.06 1478.82 1468.33 Q1478.82 1459.58 1481.87 1455 Q1484.95 1450.39 1490.76 1450.39 Z" fill="#000000" fill-rule="nonzero" fill-opacity="1" /><path clip-path="url(#clip060)" d="M1520.92 1454.1 Q1517.31 1454.1 1515.48 1457.66 Q1513.68 1461.2 1513.68 1468.33 Q1513.68 1475.44 1515.48 1479.01 Q1517.31 1482.55 1520.92 1482.55 Q1524.56 1482.55 1526.36 1479.01 Q1528.19 1475.44 1528.19 1468.33 Q1528.19 1461.2 1526.36 1457.66 Q1524.56 1454.1 1520.92 1454.1 M1520.92 1450.39 Q1526.73 1450.39 1529.79 1455 Q1532.87 1459.58 1532.87 1468.33 Q1532.87 1477.06 1529.79 1481.67 Q1526.73 1486.25 1520.92 1486.25 Q1515.11 1486.25 1512.03 1481.67 Q1508.98 1477.06 1508.98 1468.33 Q1508.98 1459.58 1512.03 1455 Q1515.11 1450.39 1520.92 1450.39 Z" fill="#000000" fill-rule="nonzero" fill-opacity="1" /><path clip-path="url(#clip060)" d="M1864.97 1455.09 L1853.16 1473.54 L1864.97 1473.54 L1864.97 1455.09 M1863.74 1451.02 L1869.62 1451.02 L1869.62 1473.54 L1874.55 1473.54 L1874.55 1477.43 L1869.62 1477.43 L1869.62 1485.58 L1864.97 1485.58 L1864.97 1477.43 L1849.36 1477.43 L1849.36 1472.92 L1863.74 1451.02 Z" fill="#000000" fill-rule="nonzero" fill-opacity="1" /><path clip-path="url(#clip060)" d="M1892.28 1454.1 Q1888.67 1454.1 1886.84 1457.66 Q1885.03 1461.2 1885.03 1468.33 Q1885.03 1475.44 1886.84 1479.01 Q1888.67 1482.55 1892.28 1482.55 Q1895.91 1482.55 1897.72 1479.01 Q1899.55 1475.44 1899.55 1468.33 Q1899.55 1461.2 1897.72 1457.66 Q1895.91 1454.1 1892.28 1454.1 M1892.28 1450.39 Q1898.09 1450.39 1901.15 1455 Q1904.22 1459.58 1904.22 1468.33 Q1904.22 1477.06 1901.15 1481.67 Q1898.09 1486.25 1892.28 1486.25 Q1886.47 1486.25 1883.39 1481.67 Q1880.34 1477.06 1880.34 1468.33 Q1880.34 1459.58 1883.39 1455 Q1886.47 1450.39 1892.28 1450.39 Z" fill="#000000" fill-rule="nonzero" fill-opacity="1" /><path clip-path="url(#clip060)" d="M1922.44 1454.1 Q1918.83 1454.1 1917 1457.66 Q1915.2 1461.2 1915.2 1468.33 Q1915.2 1475.44 1917 1479.01 Q1918.83 1482.55 1922.44 1482.55 Q1926.08 1482.55 1927.88 1479.01 Q1929.71 1475.44 1929.71 1468.33 Q1929.71 1461.2 1927.88 1457.66 Q1926.08 1454.1 1922.44 1454.1 M1922.44 1450.39 Q1928.25 1450.39 1931.31 1455 Q1934.39 1459.58 1934.39 1468.33 Q1934.39 1477.06 1931.31 1481.67 Q1928.25 1486.25 1922.44 1486.25 Q1916.63 1486.25 1913.55 1481.67 Q1910.5 1477.06 1910.5 1468.33 Q1910.5 1459.58 1913.55 1455 Q1916.63 1450.39 1922.44 1450.39 Z" fill="#000000" fill-rule="nonzero" fill-opacity="1" /><path clip-path="url(#clip060)" d="M2252.36 1451.02 L2270.72 1451.02 L2270.72 1454.96 L2256.65 1454.96 L2256.65 1463.43 Q2257.66 1463.08 2258.68 1462.92 Q2259.7 1462.73 2260.72 1462.73 Q2266.51 1462.73 2269.89 1465.9 Q2273.27 1469.08 2273.27 1474.49 Q2273.27 1480.07 2269.79 1483.17 Q2266.32 1486.25 2260 1486.25 Q2257.83 1486.25 2255.56 1485.88 Q2253.31 1485.51 2250.91 1484.77 L2250.91 1480.07 Q2252.99 1481.2 2255.21 1481.76 Q2257.43 1482.32 2259.91 1482.32 Q2263.91 1482.32 2266.25 1480.21 Q2268.59 1478.1 2268.59 1474.49 Q2268.59 1470.88 2266.25 1468.77 Q2263.91 1466.67 2259.91 1466.67 Q2258.04 1466.67 2256.16 1467.08 Q2254.31 1467.5 2252.36 1468.38 L2252.36 1451.02 Z" fill="#000000" fill-rule="nonzero" fill-opacity="1" /><path clip-path="url(#clip060)" d="M2292.48 1454.1 Q2288.87 1454.1 2287.04 1457.66 Q2285.23 1461.2 2285.23 1468.33 Q2285.23 1475.44 2287.04 1479.01 Q2288.87 1482.55 2292.48 1482.55 Q2296.11 1482.55 2297.92 1479.01 Q2299.75 1475.44 2299.75 1468.33 Q2299.75 1461.2 2297.92 1457.66 Q2296.11 1454.1 2292.48 1454.1 M2292.48 1450.39 Q2298.29 1450.39 2301.35 1455 Q2304.42 1459.58 2304.42 1468.33 Q2304.42 1477.06 2301.35 1481.67 Q2298.29 1486.25 2292.48 1486.25 Q2286.67 1486.25 2283.59 1481.67 Q2280.53 1477.06 2280.53 1468.33 Q2280.53 1459.58 2283.59 1455 Q2286.67 1450.39 2292.48 1450.39 Z" fill="#000000" fill-rule="nonzero" fill-opacity="1" /><path clip-path="url(#clip060)" d="M2322.64 1454.1 Q2319.03 1454.1 2317.2 1457.66 Q2315.4 1461.2 2315.4 1468.33 Q2315.4 1475.44 2317.2 1479.01 Q2319.03 1482.55 2322.64 1482.55 Q2326.28 1482.55 2328.08 1479.01 Q2329.91 1475.44 2329.91 1468.33 Q2329.91 1461.2 2328.08 1457.66 Q2326.28 1454.1 2322.64 1454.1 M2322.64 1450.39 Q2328.45 1450.39 2331.51 1455 Q2334.59 1459.58 2334.59 1468.33 Q2334.59 1477.06 2331.51 1481.67 Q2328.45 1486.25 2322.64 1486.25 Q2316.83 1486.25 2313.75 1481.67 Q2310.7 1477.06 2310.7 1468.33 Q2310.7 1459.58 2313.75 1455 Q2316.83 1450.39 2322.64 1450.39 Z" fill="#000000" fill-rule="nonzero" fill-opacity="1" /><path clip-path="url(#clip060)" d="M1252.88 1522.08 L1252.88 1528.35 Q1249.22 1526.6 1245.98 1525.74 Q1242.73 1524.88 1239.71 1524.88 Q1234.45 1524.88 1231.59 1526.92 Q1228.76 1528.96 1228.76 1532.71 Q1228.76 1535.87 1230.63 1537.49 Q1232.54 1539.08 1237.83 1540.07 L1241.71 1540.86 Q1248.9 1542.23 1252.31 1545.7 Q1255.75 1549.14 1255.75 1554.93 Q1255.75 1561.84 1251.1 1565.4 Q1246.48 1568.97 1237.54 1568.97 Q1234.17 1568.97 1230.35 1568.2 Q1226.56 1567.44 1222.49 1565.94 L1222.49 1559.32 Q1226.4 1561.52 1230.16 1562.63 Q1233.91 1563.75 1237.54 1563.75 Q1243.05 1563.75 1246.04 1561.58 Q1249.03 1559.42 1249.03 1555.41 Q1249.03 1551.91 1246.87 1549.93 Q1244.73 1547.96 1239.83 1546.97 L1235.92 1546.21 Q1228.72 1544.78 1225.51 1541.72 Q1222.3 1538.67 1222.3 1533.22 Q1222.3 1526.92 1226.72 1523.29 Q1231.18 1519.66 1238.97 1519.66 Q1242.32 1519.66 1245.78 1520.27 Q1249.25 1520.87 1252.88 1522.08 Z" fill="#000000" fill-rule="nonzero" fill-opacity="1" /><path clip-path="url(#clip060)" d="M1271.31 1522.27 L1271.31 1532.4 L1283.37 1532.4 L1283.37 1536.95 L1271.31 1536.95 L1271.31 1556.3 Q1271.31 1560.66 1272.49 1561.9 Q1273.7 1563.14 1277.36 1563.14 L1283.37 1563.14 L1283.37 1568.04 L1277.36 1568.04 Q1270.58 1568.04 1268 1565.53 Q1265.42 1562.98 1265.42 1556.3 L1265.42 1536.95 L1261.13 1536.95 L1261.13 1532.4 L1265.42 1532.4 L1265.42 1522.27 L1271.31 1522.27 Z" fill="#000000" fill-rule="nonzero" fill-opacity="1" /><path clip-path="url(#clip060)" d="M1321.57 1548.76 L1321.57 1551.62 L1294.64 1551.62 Q1295.02 1557.67 1298.27 1560.85 Q1301.55 1564 1307.37 1564 Q1310.75 1564 1313.9 1563.17 Q1317.08 1562.35 1320.2 1560.69 L1320.2 1566.23 Q1317.05 1567.57 1313.74 1568.27 Q1310.43 1568.97 1307.02 1568.97 Q1298.49 1568.97 1293.5 1564 Q1288.53 1559.04 1288.53 1550.57 Q1288.53 1541.82 1293.24 1536.69 Q1297.98 1531.54 1306 1531.54 Q1313.2 1531.54 1317.37 1536.18 Q1321.57 1540.8 1321.57 1548.76 M1315.71 1547.04 Q1315.65 1542.23 1313.01 1539.37 Q1310.4 1536.5 1306.07 1536.5 Q1301.17 1536.5 1298.21 1539.27 Q1295.28 1542.04 1294.83 1547.07 L1315.71 1547.04 Z" fill="#000000" fill-rule="nonzero" fill-opacity="1" /><path clip-path="url(#clip060)" d="M1336.85 1562.7 L1336.85 1581.6 L1330.96 1581.6 L1330.96 1532.4 L1336.85 1532.4 L1336.85 1537.81 Q1338.69 1534.62 1341.49 1533.1 Q1344.33 1531.54 1348.24 1531.54 Q1354.73 1531.54 1358.78 1536.69 Q1362.85 1541.85 1362.85 1550.25 Q1362.85 1558.65 1358.78 1563.81 Q1354.73 1568.97 1348.24 1568.97 Q1344.33 1568.97 1341.49 1567.44 Q1338.69 1565.88 1336.85 1562.7 M1356.77 1550.25 Q1356.77 1543.79 1354.1 1540.13 Q1351.46 1536.44 1346.81 1536.44 Q1342.16 1536.44 1339.49 1540.13 Q1336.85 1543.79 1336.85 1550.25 Q1336.85 1556.71 1339.49 1560.4 Q1342.16 1564.07 1346.81 1564.07 Q1351.46 1564.07 1354.1 1560.4 Q1356.77 1556.71 1356.77 1550.25 Z" fill="#000000" fill-rule="nonzero" fill-opacity="1" /><polyline clip-path="url(#clip060)" style="stroke:#000000; stroke-linecap:round; stroke-linejoin:round; stroke-width:4; stroke-opacity:1; fill:none" points="232.389,1423.18 232.389,123.472 "/>
<polyline clip-path="url(#clip060)" style="stroke:#000000; stroke-linecap:round; stroke-linejoin:round; stroke-width:4; stroke-opacity:1; fill:none" points="232.389,1199.81 251.287,1199.81 "/>
<polyline clip-path="url(#clip060)" style="stroke:#000000; stroke-linecap:round; stroke-linejoin:round; stroke-width:4; stroke-opacity:1; fill:none" points="232.389,933.257 251.287,933.257 "/>
<polyline clip-path="url(#clip060)" style="stroke:#000000; stroke-linecap:round; stroke-linejoin:round; stroke-width:4; stroke-opacity:1; fill:none" points="232.389,666.705 251.287,666.705 "/>
<polyline clip-path="url(#clip060)" style="stroke:#000000; stroke-linecap:round; stroke-linejoin:round; stroke-width:4; stroke-opacity:1; fill:none" points="232.389,400.153 251.287,400.153 "/>
<polyline clip-path="url(#clip060)" style="stroke:#000000; stroke-linecap:round; stroke-linejoin:round; stroke-width:4; stroke-opacity:1; fill:none" points="232.389,133.601 251.287,133.601 "/>
<path clip-path="url(#clip060)" d="M148.311 1213.15 L164.63 1213.15 L164.63 1217.09 L142.686 1217.09 L142.686 1213.15 Q145.348 1210.4 149.931 1205.77 Q154.538 1201.12 155.718 1199.77 Q157.964 1197.25 158.843 1195.52 Q159.746 1193.76 159.746 1192.07 Q159.746 1189.31 157.802 1187.58 Q155.88 1185.84 152.778 1185.84 Q150.579 1185.84 148.126 1186.6 Q145.695 1187.37 142.917 1188.92 L142.917 1184.2 Q145.741 1183.06 148.195 1182.48 Q150.649 1181.9 152.686 1181.9 Q158.056 1181.9 161.251 1184.59 Q164.445 1187.27 164.445 1191.77 Q164.445 1193.89 163.635 1195.82 Q162.848 1197.71 160.741 1200.31 Q160.163 1200.98 157.061 1204.2 Q153.959 1207.39 148.311 1213.15 Z" fill="#000000" fill-rule="nonzero" fill-opacity="1" /><path clip-path="url(#clip060)" d="M184.445 1185.61 Q180.834 1185.61 179.005 1189.17 Q177.2 1192.71 177.2 1199.84 Q177.2 1206.95 179.005 1210.52 Q180.834 1214.06 184.445 1214.06 Q188.079 1214.06 189.885 1210.52 Q191.713 1206.95 191.713 1199.84 Q191.713 1192.71 189.885 1189.17 Q188.079 1185.61 184.445 1185.61 M184.445 1181.9 Q190.255 1181.9 193.311 1186.51 Q196.389 1191.09 196.389 1199.84 Q196.389 1208.57 193.311 1213.18 Q190.255 1217.76 184.445 1217.76 Q178.635 1217.76 175.556 1213.18 Q172.501 1208.57 172.501 1199.84 Q172.501 1191.09 175.556 1186.51 Q178.635 1181.9 184.445 1181.9 Z" fill="#000000" fill-rule="nonzero" fill-opacity="1" /><path clip-path="url(#clip060)" d="M157.13 920.051 L145.325 938.5 L157.13 938.5 L157.13 920.051 M155.903 915.977 L161.783 915.977 L161.783 938.5 L166.714 938.5 L166.714 942.389 L161.783 942.389 L161.783 950.537 L157.13 950.537 L157.13 942.389 L141.529 942.389 L141.529 937.875 L155.903 915.977 Z" fill="#000000" fill-rule="nonzero" fill-opacity="1" /><path clip-path="url(#clip060)" d="M184.445 919.056 Q180.834 919.056 179.005 922.621 Q177.2 926.162 177.2 933.292 Q177.2 940.398 179.005 943.963 Q180.834 947.505 184.445 947.505 Q188.079 947.505 189.885 943.963 Q191.713 940.398 191.713 933.292 Q191.713 926.162 189.885 922.621 Q188.079 919.056 184.445 919.056 M184.445 915.352 Q190.255 915.352 193.311 919.959 Q196.389 924.542 196.389 933.292 Q196.389 942.019 193.311 946.625 Q190.255 951.208 184.445 951.208 Q178.635 951.208 175.556 946.625 Q172.501 942.019 172.501 933.292 Q172.501 924.542 175.556 919.959 Q178.635 915.352 184.445 915.352 Z" fill="#000000" fill-rule="nonzero" fill-opacity="1" /><path clip-path="url(#clip060)" d="M154.862 664.842 Q151.714 664.842 149.862 666.995 Q148.033 669.147 148.033 672.897 Q148.033 676.624 149.862 678.8 Q151.714 680.953 154.862 680.953 Q158.01 680.953 159.839 678.8 Q161.69 676.624 161.69 672.897 Q161.69 669.147 159.839 666.995 Q158.01 664.842 154.862 664.842 M164.144 650.189 L164.144 654.448 Q162.385 653.615 160.579 653.175 Q158.797 652.735 157.038 652.735 Q152.408 652.735 149.954 655.86 Q147.524 658.985 147.177 665.305 Q148.542 663.291 150.603 662.226 Q152.663 661.138 155.14 661.138 Q160.348 661.138 163.357 664.309 Q166.39 667.457 166.39 672.897 Q166.39 678.221 163.241 681.439 Q160.093 684.656 154.862 684.656 Q148.866 684.656 145.695 680.073 Q142.524 675.467 142.524 666.74 Q142.524 658.545 146.413 653.684 Q150.302 648.8 156.853 648.8 Q158.612 648.8 160.394 649.147 Q162.2 649.495 164.144 650.189 Z" fill="#000000" fill-rule="nonzero" fill-opacity="1" /><path clip-path="url(#clip060)" d="M184.445 652.504 Q180.834 652.504 179.005 656.069 Q177.2 659.61 177.2 666.74 Q177.2 673.846 179.005 677.411 Q180.834 680.953 184.445 680.953 Q188.079 680.953 189.885 677.411 Q191.713 673.846 191.713 666.74 Q191.713 659.61 189.885 656.069 Q188.079 652.504 184.445 652.504 M184.445 648.8 Q190.255 648.8 193.311 653.407 Q196.389 657.99 196.389 666.74 Q196.389 675.467 193.311 680.073 Q190.255 684.656 184.445 684.656 Q178.635 684.656 175.556 680.073 Q172.501 675.467 172.501 666.74 Q172.501 657.99 175.556 653.407 Q178.635 648.8 184.445 648.8 Z" fill="#000000" fill-rule="nonzero" fill-opacity="1" /><path clip-path="url(#clip060)" d="M154.283 401.021 Q150.95 401.021 149.028 402.804 Q147.13 404.586 147.13 407.711 Q147.13 410.836 149.028 412.618 Q150.95 414.401 154.283 414.401 Q157.616 414.401 159.538 412.618 Q161.459 410.813 161.459 407.711 Q161.459 404.586 159.538 402.804 Q157.64 401.021 154.283 401.021 M149.607 399.03 Q146.598 398.29 144.908 396.23 Q143.241 394.169 143.241 391.206 Q143.241 387.063 146.181 384.656 Q149.144 382.248 154.283 382.248 Q159.445 382.248 162.385 384.656 Q165.325 387.063 165.325 391.206 Q165.325 394.169 163.635 396.23 Q161.968 398.29 158.982 399.03 Q162.362 399.817 164.237 402.109 Q166.135 404.401 166.135 407.711 Q166.135 412.734 163.056 415.419 Q160.001 418.104 154.283 418.104 Q148.566 418.104 145.487 415.419 Q142.431 412.734 142.431 407.711 Q142.431 404.401 144.329 402.109 Q146.228 399.817 149.607 399.03 M147.894 391.646 Q147.894 394.331 149.561 395.836 Q151.251 397.341 154.283 397.341 Q157.292 397.341 158.982 395.836 Q160.695 394.331 160.695 391.646 Q160.695 388.961 158.982 387.456 Q157.292 385.952 154.283 385.952 Q151.251 385.952 149.561 387.456 Q147.894 388.961 147.894 391.646 Z" fill="#000000" fill-rule="nonzero" fill-opacity="1" /><path clip-path="url(#clip060)" d="M184.445 385.952 Q180.834 385.952 179.005 389.517 Q177.2 393.058 177.2 400.188 Q177.2 407.294 179.005 410.859 Q180.834 414.401 184.445 414.401 Q188.079 414.401 189.885 410.859 Q191.713 407.294 191.713 400.188 Q191.713 393.058 189.885 389.517 Q188.079 385.952 184.445 385.952 M184.445 382.248 Q190.255 382.248 193.311 386.855 Q196.389 391.438 196.389 400.188 Q196.389 408.915 193.311 413.521 Q190.255 418.104 184.445 418.104 Q178.635 418.104 175.556 413.521 Q172.501 408.915 172.501 400.188 Q172.501 391.438 175.556 386.855 Q178.635 382.248 184.445 382.248 Z" fill="#000000" fill-rule="nonzero" fill-opacity="1" /><path clip-path="url(#clip060)" d="M114.931 146.946 L122.57 146.946 L122.57 120.58 L114.26 122.247 L114.26 117.988 L122.524 116.321 L127.2 116.321 L127.2 146.946 L134.839 146.946 L134.839 150.881 L114.931 150.881 L114.931 146.946 Z" fill="#000000" fill-rule="nonzero" fill-opacity="1" /><path clip-path="url(#clip060)" d="M154.283 119.4 Q150.672 119.4 148.843 122.965 Q147.038 126.506 147.038 133.636 Q147.038 140.742 148.843 144.307 Q150.672 147.849 154.283 147.849 Q157.917 147.849 159.723 144.307 Q161.552 140.742 161.552 133.636 Q161.552 126.506 159.723 122.965 Q157.917 119.4 154.283 119.4 M154.283 115.696 Q160.093 115.696 163.149 120.303 Q166.227 124.886 166.227 133.636 Q166.227 142.363 163.149 146.969 Q160.093 151.552 154.283 151.552 Q148.473 151.552 145.394 146.969 Q142.339 142.363 142.339 133.636 Q142.339 124.886 145.394 120.303 Q148.473 115.696 154.283 115.696 Z" fill="#000000" fill-rule="nonzero" fill-opacity="1" /><path clip-path="url(#clip060)" d="M184.445 119.4 Q180.834 119.4 179.005 122.965 Q177.2 126.506 177.2 133.636 Q177.2 140.742 179.005 144.307 Q180.834 147.849 184.445 147.849 Q188.079 147.849 189.885 144.307 Q191.713 140.742 191.713 133.636 Q191.713 126.506 189.885 122.965 Q188.079 119.4 184.445 119.4 M184.445 115.696 Q190.255 115.696 193.311 120.303 Q196.389 124.886 196.389 133.636 Q196.389 142.363 193.311 146.969 Q190.255 151.552 184.445 151.552 Q178.635 151.552 175.556 146.969 Q172.501 142.363 172.501 133.636 Q172.501 124.886 175.556 120.303 Q178.635 115.696 184.445 115.696 Z" fill="#000000" fill-rule="nonzero" fill-opacity="1" /><path clip-path="url(#clip060)" d="M16.4842 1039.08 L16.4842 1029.5 L48.8219 1017.37 L16.4842 1005.18 L16.4842 995.601 L64.0042 995.601 L64.0042 1001.87 L22.277 1001.87 L54.8694 1014.12 L54.8694 1020.59 L22.277 1032.84 L64.0042 1032.84 L64.0042 1039.08 L16.4842 1039.08 Z" fill="#000000" fill-rule="nonzero" fill-opacity="1" /><path clip-path="url(#clip060)" d="M46.0847 966.891 Q46.0847 973.989 47.7079 976.726 Q49.3312 979.463 53.2461 979.463 Q56.3653 979.463 58.2114 977.426 Q60.0256 975.358 60.0256 971.825 Q60.0256 966.955 56.5881 964.027 Q53.1188 961.067 47.3897 961.067 L46.0847 961.067 L46.0847 966.891 M43.6657 955.21 L64.0042 955.21 L64.0042 961.067 L58.5933 961.067 Q61.8398 963.072 63.3994 966.064 Q64.9272 969.056 64.9272 973.384 Q64.9272 978.859 61.8716 982.105 Q58.7843 985.32 53.6281 985.32 Q47.6125 985.32 44.5569 981.31 Q41.5014 977.267 41.5014 969.278 L41.5014 961.067 L40.9285 961.067 Q36.8862 961.067 34.6901 963.74 Q32.4621 966.382 32.4621 971.188 Q32.4621 974.244 33.1941 977.14 Q33.9262 980.036 35.3903 982.71 L29.9795 982.71 Q28.7381 979.495 28.1334 976.472 Q27.4968 973.448 27.4968 970.583 Q27.4968 962.849 31.5072 959.03 Q35.5176 955.21 43.6657 955.21 Z" fill="#000000" fill-rule="nonzero" fill-opacity="1" /><path clip-path="url(#clip060)" d="M28.3562 913.515 L45.7028 926.405 L64.0042 912.846 L64.0042 919.753 L49.9996 930.129 L64.0042 940.505 L64.0042 947.412 L45.3526 933.567 L28.3562 946.234 L28.3562 939.328 L41.0558 929.875 L28.3562 920.422 L28.3562 913.515 Z" fill="#000000" fill-rule="nonzero" fill-opacity="1" /><path clip-path="url(#clip060)" d="M20.1444 848.012 L26.9239 848.012 Q23.9002 851.258 22.4043 854.95 Q20.9083 858.611 20.9083 862.748 Q20.9083 870.896 25.9054 875.225 Q30.8707 879.554 40.2919 879.554 Q49.6813 879.554 54.6784 875.225 Q59.6436 870.896 59.6436 862.748 Q59.6436 858.611 58.1477 854.95 Q56.6518 851.258 53.6281 848.012 L60.3439 848.012 Q62.6355 851.385 63.7814 855.173 Q64.9272 858.929 64.9272 863.13 Q64.9272 873.92 58.3387 880.127 Q51.7183 886.333 40.2919 886.333 Q28.8336 886.333 22.2451 880.127 Q15.6248 873.92 15.6248 863.13 Q15.6248 858.865 16.7706 855.109 Q17.8846 851.322 20.1444 848.012 Z" fill="#000000" fill-rule="nonzero" fill-opacity="1" /><path clip-path="url(#clip060)" d="M14.479 838.336 L14.479 832.479 L64.0042 832.479 L64.0042 838.336 L14.479 838.336 Z" fill="#000000" fill-rule="nonzero" fill-opacity="1" /><path clip-path="url(#clip060)" d="M49.9359 820.83 L28.3562 820.83 L28.3562 814.974 L49.7131 814.974 Q54.7739 814.974 57.3202 813 Q59.8346 811.027 59.8346 807.08 Q59.8346 802.338 56.8109 799.6 Q53.7872 796.831 48.5673 796.831 L28.3562 796.831 L28.3562 790.975 L64.0042 790.975 L64.0042 796.831 L58.5296 796.831 Q61.7762 798.964 63.3676 801.797 Q64.9272 804.598 64.9272 808.321 Q64.9272 814.464 61.1078 817.647 Q57.2883 820.83 49.9359 820.83 M27.4968 806.093 L27.4968 806.093 Z" fill="#000000" fill-rule="nonzero" fill-opacity="1" /><path clip-path="url(#clip060)" d="M29.4065 756.186 L34.9447 756.186 Q33.6716 758.669 33.035 761.343 Q32.3984 764.016 32.3984 766.881 Q32.3984 771.241 33.7352 773.437 Q35.072 775.602 37.7456 775.602 Q39.7826 775.602 40.9603 774.042 Q42.1061 772.483 43.1565 767.772 L43.6021 765.767 Q44.9389 759.528 47.3897 756.918 Q49.8086 754.277 54.1691 754.277 Q59.1344 754.277 62.0308 758.223 Q64.9272 762.138 64.9272 769.013 Q64.9272 771.878 64.3543 774.997 Q63.8132 778.084 62.6992 781.522 L56.6518 781.522 Q58.3387 778.275 59.198 775.124 Q60.0256 771.973 60.0256 768.886 Q60.0256 764.748 58.6251 762.52 Q57.1929 760.292 54.6147 760.292 Q52.2276 760.292 50.9545 761.915 Q49.6813 763.507 48.5037 768.95 L48.0262 770.987 Q46.8804 776.429 44.5251 778.848 Q42.138 781.267 38.0002 781.267 Q32.9713 781.267 30.2341 777.702 Q27.4968 774.138 27.4968 767.581 Q27.4968 764.334 27.9743 761.47 Q28.4517 758.605 29.4065 756.186 Z" fill="#000000" fill-rule="nonzero" fill-opacity="1" /><path clip-path="url(#clip060)" d="M18.2347 739.158 L28.3562 739.158 L28.3562 727.095 L32.9077 727.095 L32.9077 739.158 L52.2594 739.158 Q56.6199 739.158 57.8613 737.98 Q59.1026 736.771 59.1026 733.111 L59.1026 727.095 L64.0042 727.095 L64.0042 733.111 Q64.0042 739.89 61.4897 742.468 Q58.9434 745.046 52.2594 745.046 L32.9077 745.046 L32.9077 749.343 L28.3562 749.343 L28.3562 745.046 L18.2347 745.046 L18.2347 739.158 Z" fill="#000000" fill-rule="nonzero" fill-opacity="1" /><path clip-path="url(#clip060)" d="M44.7161 688.901 L47.5806 688.901 L47.5806 715.828 Q53.6281 715.446 56.8109 712.199 Q59.9619 708.921 59.9619 703.096 Q59.9619 699.723 59.1344 696.571 Q58.3069 693.389 56.6518 690.269 L62.1899 690.269 Q63.5267 693.42 64.227 696.731 Q64.9272 700.041 64.9272 703.446 Q64.9272 711.976 59.9619 716.974 Q54.9967 721.939 46.5303 721.939 Q37.7774 721.939 32.6531 717.228 Q27.4968 712.486 27.4968 704.465 Q27.4968 697.272 32.1438 693.102 Q36.7589 688.901 44.7161 688.901 M42.9973 694.757 Q38.1912 694.821 35.3266 697.463 Q32.4621 700.073 32.4621 704.401 Q32.4621 709.303 35.2312 712.263 Q38.0002 715.191 43.0292 715.637 L42.9973 694.757 Z" fill="#000000" fill-rule="nonzero" fill-opacity="1" /><path clip-path="url(#clip060)" d="M33.8307 658.632 Q33.2578 659.619 33.0032 660.796 Q32.7167 661.942 32.7167 663.342 Q32.7167 668.308 35.9632 670.981 Q39.1779 673.623 45.2253 673.623 L64.0042 673.623 L64.0042 679.511 L28.3562 679.511 L28.3562 673.623 L33.8944 673.623 Q30.6479 671.777 29.0883 668.817 Q27.4968 665.857 27.4968 661.624 Q27.4968 661.019 27.5923 660.287 Q27.656 659.555 27.8151 658.664 L33.8307 658.632 Z" fill="#000000" fill-rule="nonzero" fill-opacity="1" /><path clip-path="url(#clip060)" d="M18.0438 603.027 L24.314 603.027 Q22.5634 606.688 21.704 609.934 Q20.8447 613.181 20.8447 616.204 Q20.8447 621.456 22.8817 624.321 Q24.9187 627.153 28.6745 627.153 Q31.8255 627.153 33.4488 625.276 Q35.0402 623.366 36.0269 618.082 L36.8226 614.199 Q38.1912 607.006 41.6605 603.6 Q45.098 600.163 50.8908 600.163 Q57.7976 600.163 61.3624 604.81 Q64.9272 609.425 64.9272 618.369 Q64.9272 621.743 64.1633 625.562 Q63.3994 629.35 61.9035 633.424 L55.2831 633.424 Q57.4793 629.509 58.5933 625.753 Q59.7073 621.997 59.7073 618.369 Q59.7073 612.862 57.543 609.871 Q55.3786 606.879 51.3682 606.879 Q47.8671 606.879 45.8937 609.043 Q43.9204 611.176 42.9337 616.077 L42.1698 619.992 Q40.7375 627.185 37.682 630.4 Q34.6264 633.615 29.1837 633.615 Q22.8817 633.615 19.2532 629.19 Q15.6248 624.734 15.6248 616.936 Q15.6248 613.594 16.2295 610.125 Q16.8343 606.656 18.0438 603.027 Z" fill="#000000" fill-rule="nonzero" fill-opacity="1" /><path clip-path="url(#clip060)" d="M28.3562 590.391 L28.3562 584.535 L64.0042 584.535 L64.0042 590.391 L28.3562 590.391 M14.479 590.391 L14.479 584.535 L21.895 584.535 L21.895 590.391 L14.479 590.391 Z" fill="#000000" fill-rule="nonzero" fill-opacity="1" /><path clip-path="url(#clip060)" d="M28.3562 574.827 L28.3562 547.009 L33.7034 547.009 L59.3254 569.035 L59.3254 547.009 L64.0042 547.009 L64.0042 575.623 L58.657 575.623 L33.035 553.598 L33.035 574.827 L28.3562 574.827 Z" fill="#000000" fill-rule="nonzero" fill-opacity="1" /><path clip-path="url(#clip060)" d="M44.7161 507.574 L47.5806 507.574 L47.5806 534.501 Q53.6281 534.119 56.8109 530.872 Q59.9619 527.594 59.9619 521.769 Q59.9619 518.395 59.1344 515.244 Q58.3069 512.061 56.6518 508.942 L62.1899 508.942 Q63.5267 512.093 64.227 515.403 Q64.9272 518.714 64.9272 522.119 Q64.9272 530.649 59.9619 535.646 Q54.9967 540.612 46.5303 540.612 Q37.7774 540.612 32.6531 535.901 Q27.4968 531.159 27.4968 523.138 Q27.4968 515.945 32.1438 511.775 Q36.7589 507.574 44.7161 507.574 M42.9973 513.43 Q38.1912 513.494 35.3266 516.136 Q32.4621 518.745 32.4621 523.074 Q32.4621 527.976 35.2312 530.936 Q38.0002 533.864 43.0292 534.31 L42.9973 513.43 Z" fill="#000000" fill-rule="nonzero" fill-opacity="1" /><path clip-path="url(#clip060)" d="M840.087 16.7545 L840.087 25.383 Q835.955 21.5346 831.256 19.6307 Q826.597 17.7268 821.331 17.7268 Q810.961 17.7268 805.451 24.0867 Q799.942 30.4061 799.942 42.3968 Q799.942 54.3469 805.451 60.7069 Q810.961 67.0263 821.331 67.0263 Q826.597 67.0263 831.256 65.1223 Q835.955 63.2184 840.087 59.3701 L840.087 67.9175 Q835.793 70.8341 830.972 72.2924 Q826.192 73.7508 820.845 73.7508 Q807.112 73.7508 799.213 65.3654 Q791.314 56.9395 791.314 42.3968 Q791.314 27.8135 799.213 19.4281 Q807.112 11.0023 820.845 11.0023 Q826.273 11.0023 831.053 12.4606 Q835.874 13.8784 840.087 16.7545 Z" fill="#000000" fill-rule="nonzero" fill-opacity="1" /><path clip-path="url(#clip060)" d="M852.401 9.54393 L859.855 9.54393 L859.855 72.576 L852.401 72.576 L852.401 9.54393 Z" fill="#000000" fill-rule="nonzero" fill-opacity="1" /><path clip-path="url(#clip060)" d="M874.681 54.671 L874.681 27.2059 L882.135 27.2059 L882.135 54.3874 Q882.135 60.8284 884.647 64.0691 Q887.158 67.2693 892.181 67.2693 Q898.217 67.2693 901.701 63.421 Q905.225 59.5726 905.225 52.9291 L905.225 27.2059 L912.679 27.2059 L912.679 72.576 L905.225 72.576 L905.225 65.6084 Q902.511 69.7404 898.906 71.7658 Q895.341 73.7508 890.601 73.7508 Q882.783 73.7508 878.732 68.8897 Q874.681 64.0286 874.681 54.671 M893.437 26.1121 L893.437 26.1121 Z" fill="#000000" fill-rule="nonzero" fill-opacity="1" /><path clip-path="url(#clip060)" d="M956.955 28.5427 L956.955 35.5912 Q953.796 33.9709 950.393 33.1607 Q946.99 32.3505 943.344 32.3505 Q937.794 32.3505 934.999 34.0519 Q932.245 35.7533 932.245 39.156 Q932.245 41.7486 934.23 43.2475 Q936.215 44.7058 942.21 46.0426 L944.762 46.6097 Q952.702 48.3111 956.024 51.4303 Q959.386 54.509 959.386 60.0587 Q959.386 66.3781 954.363 70.0644 Q949.38 73.7508 940.63 73.7508 Q936.984 73.7508 933.014 73.0216 Q929.085 72.3329 924.71 70.9151 L924.71 63.2184 Q928.842 65.3654 932.852 66.4591 Q936.863 67.5124 940.792 67.5124 Q946.058 67.5124 948.894 65.73 Q951.73 63.9071 951.73 60.6258 Q951.73 57.5877 949.664 55.9673 Q947.638 54.3469 940.711 52.8481 L938.119 52.2405 Q931.191 50.7821 928.113 47.7845 Q925.034 44.7463 925.034 39.4801 Q925.034 33.0797 929.571 29.5959 Q934.108 26.1121 942.453 26.1121 Q946.585 26.1121 950.231 26.7198 Q953.877 27.3274 956.955 28.5427 Z" fill="#000000" fill-rule="nonzero" fill-opacity="1" /><path clip-path="url(#clip060)" d="M978.628 14.324 L978.628 27.2059 L993.98 27.2059 L993.98 32.9987 L978.628 32.9987 L978.628 57.6282 Q978.628 63.1779 980.126 64.7578 Q981.666 66.3376 986.324 66.3376 L993.98 66.3376 L993.98 72.576 L986.324 72.576 Q977.696 72.576 974.415 69.3758 Q971.133 66.1351 971.133 57.6282 L971.133 32.9987 L965.665 32.9987 L965.665 27.2059 L971.133 27.2059 L971.133 14.324 L978.628 14.324 Z" fill="#000000" fill-rule="nonzero" fill-opacity="1" /><path clip-path="url(#clip060)" d="M1042.59 48.0275 L1042.59 51.6733 L1008.32 51.6733 Q1008.81 59.3701 1012.94 63.421 Q1017.11 67.4314 1024.52 67.4314 Q1028.82 67.4314 1032.83 66.3781 Q1036.88 65.3249 1040.85 63.2184 L1040.85 70.267 Q1036.84 71.9684 1032.63 72.8596 Q1028.41 73.7508 1024.08 73.7508 Q1013.22 73.7508 1006.86 67.4314 Q1000.54 61.1119 1000.54 50.3365 Q1000.54 39.1965 1006.54 32.6746 Q1012.57 26.1121 1022.78 26.1121 Q1031.94 26.1121 1037.24 32.0264 Q1042.59 37.9003 1042.59 48.0275 M1035.14 45.84 Q1035.06 39.7232 1031.69 36.0774 Q1028.37 32.4315 1022.86 32.4315 Q1016.63 32.4315 1012.86 35.9558 Q1009.13 39.4801 1008.56 45.8805 L1035.14 45.84 Z" fill="#000000" fill-rule="nonzero" fill-opacity="1" /><path clip-path="url(#clip060)" d="M1081.12 34.1734 Q1079.86 33.4443 1078.36 33.1202 Q1076.9 32.7556 1075.12 32.7556 Q1068.8 32.7556 1065.4 36.8875 Q1062.04 40.9789 1062.04 48.6757 L1062.04 72.576 L1054.54 72.576 L1054.54 27.2059 L1062.04 27.2059 L1062.04 34.2544 Q1064.39 30.1225 1068.15 28.1376 Q1071.92 26.1121 1077.31 26.1121 Q1078.08 26.1121 1079.01 26.2337 Q1079.94 26.3147 1081.07 26.5172 L1081.12 34.1734 Z" fill="#000000" fill-rule="nonzero" fill-opacity="1" /><path clip-path="url(#clip060)" d="M1151.88 14.0809 L1151.88 22.0612 Q1147.23 19.8332 1143.09 18.7395 Q1138.96 17.6457 1135.11 17.6457 Q1128.43 17.6457 1124.78 20.2383 Q1121.18 22.8309 1121.18 27.611 Q1121.18 31.6214 1123.57 33.6873 Q1126 35.7128 1132.72 36.9686 L1137.67 37.9813 Q1146.82 39.7232 1151.16 44.1387 Q1155.53 48.5136 1155.53 55.8863 Q1155.53 64.6767 1149.62 69.2137 Q1143.74 73.7508 1132.36 73.7508 Q1128.07 73.7508 1123.2 72.7785 Q1118.38 71.8063 1113.2 69.9024 L1113.2 61.4765 Q1118.18 64.2716 1122.96 65.6895 Q1127.74 67.1073 1132.36 67.1073 Q1139.37 67.1073 1143.18 64.3527 Q1146.98 61.598 1146.98 56.4939 Q1146.98 52.0379 1144.23 49.5264 Q1141.51 47.0148 1135.28 45.759 L1130.29 44.7868 Q1121.14 42.9639 1117.05 39.075 Q1112.96 35.1862 1112.96 28.2591 Q1112.96 20.2383 1118.59 15.6203 Q1124.26 11.0023 1134.18 11.0023 Q1138.44 11.0023 1142.85 11.7719 Q1147.27 12.5416 1151.88 14.0809 Z" fill="#000000" fill-rule="nonzero" fill-opacity="1" /><path clip-path="url(#clip060)" d="M1167.97 27.2059 L1175.42 27.2059 L1175.42 72.576 L1167.97 72.576 L1167.97 27.2059 M1167.97 9.54393 L1175.42 9.54393 L1175.42 18.9825 L1167.97 18.9825 L1167.97 9.54393 Z" fill="#000000" fill-rule="nonzero" fill-opacity="1" /><path clip-path="url(#clip060)" d="M1187.78 27.2059 L1223.18 27.2059 L1223.18 34.0114 L1195.15 66.6212 L1223.18 66.6212 L1223.18 72.576 L1186.76 72.576 L1186.76 65.7705 L1214.8 33.1607 L1187.78 33.1607 L1187.78 27.2059 Z" fill="#000000" fill-rule="nonzero" fill-opacity="1" /><path clip-path="url(#clip060)" d="M1273.37 48.0275 L1273.37 51.6733 L1239.1 51.6733 Q1239.59 59.3701 1243.72 63.421 Q1247.89 67.4314 1255.3 67.4314 Q1259.6 67.4314 1263.61 66.3781 Q1267.66 65.3249 1271.63 63.2184 L1271.63 70.267 Q1267.62 71.9684 1263.41 72.8596 Q1259.19 73.7508 1254.86 73.7508 Q1244 73.7508 1237.64 67.4314 Q1231.32 61.1119 1231.32 50.3365 Q1231.32 39.1965 1237.32 32.6746 Q1243.35 26.1121 1253.56 26.1121 Q1262.72 26.1121 1268.02 32.0264 Q1273.37 37.9003 1273.37 48.0275 M1265.92 45.84 Q1265.84 39.7232 1262.47 36.0774 Q1259.15 32.4315 1253.64 32.4315 Q1247.41 32.4315 1243.64 35.9558 Q1239.91 39.4801 1239.34 45.8805 L1265.92 45.84 Z" fill="#000000" fill-rule="nonzero" fill-opacity="1" /><path clip-path="url(#clip060)" d="M1357.59 16.7545 L1357.59 25.383 Q1353.46 21.5346 1348.76 19.6307 Q1344.1 17.7268 1338.83 17.7268 Q1328.46 17.7268 1322.95 24.0867 Q1317.45 30.4061 1317.45 42.3968 Q1317.45 54.3469 1322.95 60.7069 Q1328.46 67.0263 1338.83 67.0263 Q1344.1 67.0263 1348.76 65.1223 Q1353.46 63.2184 1357.59 59.3701 L1357.59 67.9175 Q1353.3 70.8341 1348.48 72.2924 Q1343.7 73.7508 1338.35 73.7508 Q1324.62 73.7508 1316.72 65.3654 Q1308.82 56.9395 1308.82 42.3968 Q1308.82 27.8135 1316.72 19.4281 Q1324.62 11.0023 1338.35 11.0023 Q1343.78 11.0023 1348.56 12.4606 Q1353.38 13.8784 1357.59 16.7545 Z" fill="#000000" fill-rule="nonzero" fill-opacity="1" /><path clip-path="url(#clip060)" d="M1387.49 32.4315 Q1381.49 32.4315 1378.01 37.1306 Q1374.52 41.7891 1374.52 49.9314 Q1374.52 58.0738 1377.97 62.7728 Q1381.45 67.4314 1387.49 67.4314 Q1393.44 67.4314 1396.92 62.7323 Q1400.41 58.0333 1400.41 49.9314 Q1400.41 41.8701 1396.92 37.1711 Q1393.44 32.4315 1387.49 32.4315 M1387.49 26.1121 Q1397.21 26.1121 1402.76 32.4315 Q1408.31 38.7509 1408.31 49.9314 Q1408.31 61.0714 1402.76 67.4314 Q1397.21 73.7508 1387.49 73.7508 Q1377.72 73.7508 1372.17 67.4314 Q1366.66 61.0714 1366.66 49.9314 Q1366.66 38.7509 1372.17 32.4315 Q1377.72 26.1121 1387.49 26.1121 Z" fill="#000000" fill-rule="nonzero" fill-opacity="1" /><path clip-path="url(#clip060)" d="M1455.99 35.9153 Q1458.78 30.8922 1462.67 28.5022 Q1466.56 26.1121 1471.83 26.1121 Q1478.91 26.1121 1482.76 31.0947 Q1486.61 36.0368 1486.61 45.1919 L1486.61 72.576 L1479.12 72.576 L1479.12 45.4349 Q1479.12 38.913 1476.81 35.7533 Q1474.5 32.5936 1469.76 32.5936 Q1463.97 32.5936 1460.6 36.4419 Q1457.24 40.2903 1457.24 46.9338 L1457.24 72.576 L1449.75 72.576 L1449.75 45.4349 Q1449.75 38.8725 1447.44 35.7533 Q1445.13 32.5936 1440.31 32.5936 Q1434.6 32.5936 1431.24 36.4824 Q1427.87 40.3308 1427.87 46.9338 L1427.87 72.576 L1420.38 72.576 L1420.38 27.2059 L1427.87 27.2059 L1427.87 34.2544 Q1430.42 30.082 1433.99 28.0971 Q1437.55 26.1121 1442.46 26.1121 Q1447.4 26.1121 1450.84 28.6237 Q1454.33 31.1352 1455.99 35.9153 Z" fill="#000000" fill-rule="nonzero" fill-opacity="1" /><path clip-path="url(#clip060)" d="M1508.69 65.7705 L1508.69 89.8329 L1501.19 89.8329 L1501.19 27.2059 L1508.69 27.2059 L1508.69 34.0924 Q1511.04 30.0415 1514.6 28.0971 Q1518.21 26.1121 1523.19 26.1121 Q1531.45 26.1121 1536.6 32.6746 Q1541.78 39.2371 1541.78 49.9314 Q1541.78 60.6258 1536.6 67.1883 Q1531.45 73.7508 1523.19 73.7508 Q1518.21 73.7508 1514.6 71.8063 Q1511.04 69.8214 1508.69 65.7705 M1534.05 49.9314 Q1534.05 41.7081 1530.64 37.0496 Q1527.28 32.3505 1521.37 32.3505 Q1515.45 32.3505 1512.05 37.0496 Q1508.69 41.7081 1508.69 49.9314 Q1508.69 58.1548 1512.05 62.8538 Q1515.45 67.5124 1521.37 67.5124 Q1527.28 67.5124 1530.64 62.8538 Q1534.05 58.1548 1534.05 49.9314 Z" fill="#000000" fill-rule="nonzero" fill-opacity="1" /><path clip-path="url(#clip060)" d="M1574.76 49.7694 Q1565.73 49.7694 1562.24 51.8354 Q1558.76 53.9013 1558.76 58.8839 Q1558.76 62.8538 1561.35 65.2034 Q1563.98 67.5124 1568.48 67.5124 Q1574.68 67.5124 1578.4 63.1374 Q1582.17 58.7219 1582.17 51.4303 L1582.17 49.7694 L1574.76 49.7694 M1589.63 46.6907 L1589.63 72.576 L1582.17 72.576 L1582.17 65.6895 Q1579.62 69.8214 1575.81 71.8063 Q1572 73.7508 1566.49 73.7508 Q1559.53 73.7508 1555.4 69.8619 Q1551.3 65.9325 1551.3 59.3701 Q1551.3 51.7138 1556.41 47.825 Q1561.55 43.9361 1571.72 43.9361 L1582.17 43.9361 L1582.17 43.2069 Q1582.17 38.0623 1578.77 35.2672 Q1575.41 32.4315 1569.29 32.4315 Q1565.4 32.4315 1561.71 33.3632 Q1558.03 34.295 1554.63 36.1584 L1554.63 29.2718 Q1558.72 27.692 1562.57 26.9223 Q1566.41 26.1121 1570.06 26.1121 Q1579.9 26.1121 1584.76 31.2163 Q1589.63 36.3204 1589.63 46.6907 Z" fill="#000000" fill-rule="nonzero" fill-opacity="1" /><path clip-path="url(#clip060)" d="M1631.27 34.1734 Q1630.01 33.4443 1628.51 33.1202 Q1627.06 32.7556 1625.27 32.7556 Q1618.95 32.7556 1615.55 36.8875 Q1612.19 40.9789 1612.19 48.6757 L1612.19 72.576 L1604.69 72.576 L1604.69 27.2059 L1612.19 27.2059 L1612.19 34.2544 Q1614.54 30.1225 1618.31 28.1376 Q1622.07 26.1121 1627.46 26.1121 Q1628.23 26.1121 1629.16 26.2337 Q1630.09 26.3147 1631.23 26.5172 L1631.27 34.1734 Z" fill="#000000" fill-rule="nonzero" fill-opacity="1" /><path clip-path="url(#clip060)" d="M1639.09 27.2059 L1646.54 27.2059 L1646.54 72.576 L1639.09 72.576 L1639.09 27.2059 M1639.09 9.54393 L1646.54 9.54393 L1646.54 18.9825 L1639.09 18.9825 L1639.09 9.54393 Z" fill="#000000" fill-rule="nonzero" fill-opacity="1" /><path clip-path="url(#clip060)" d="M1691.06 28.5427 L1691.06 35.5912 Q1687.9 33.9709 1684.5 33.1607 Q1681.09 32.3505 1677.45 32.3505 Q1671.9 32.3505 1669.1 34.0519 Q1666.35 35.7533 1666.35 39.156 Q1666.35 41.7486 1668.33 43.2475 Q1670.32 44.7058 1676.31 46.0426 L1678.87 46.6097 Q1686.81 48.3111 1690.13 51.4303 Q1693.49 54.509 1693.49 60.0587 Q1693.49 66.3781 1688.47 70.0644 Q1683.48 73.7508 1674.73 73.7508 Q1671.09 73.7508 1667.12 73.0216 Q1663.19 72.3329 1658.81 70.9151 L1658.81 63.2184 Q1662.95 65.3654 1666.96 66.4591 Q1670.97 67.5124 1674.9 67.5124 Q1680.16 67.5124 1683 65.73 Q1685.83 63.9071 1685.83 60.6258 Q1685.83 57.5877 1683.77 55.9673 Q1681.74 54.3469 1674.82 52.8481 L1672.22 52.2405 Q1665.3 50.7821 1662.22 47.7845 Q1659.14 44.7463 1659.14 39.4801 Q1659.14 33.0797 1663.68 29.5959 Q1668.21 26.1121 1676.56 26.1121 Q1680.69 26.1121 1684.34 26.7198 Q1687.98 27.3274 1691.06 28.5427 Z" fill="#000000" fill-rule="nonzero" fill-opacity="1" /><path clip-path="url(#clip060)" d="M1722.94 32.4315 Q1716.95 32.4315 1713.46 37.1306 Q1709.98 41.7891 1709.98 49.9314 Q1709.98 58.0738 1713.42 62.7728 Q1716.9 67.4314 1722.94 67.4314 Q1728.9 67.4314 1732.38 62.7323 Q1735.86 58.0333 1735.86 49.9314 Q1735.86 41.8701 1732.38 37.1711 Q1728.9 32.4315 1722.94 32.4315 M1722.94 26.1121 Q1732.66 26.1121 1738.21 32.4315 Q1743.76 38.7509 1743.76 49.9314 Q1743.76 61.0714 1738.21 67.4314 Q1732.66 73.7508 1722.94 73.7508 Q1713.18 73.7508 1707.63 67.4314 Q1702.12 61.0714 1702.12 49.9314 Q1702.12 38.7509 1707.63 32.4315 Q1713.18 26.1121 1722.94 26.1121 Z" fill="#000000" fill-rule="nonzero" fill-opacity="1" /><path clip-path="url(#clip060)" d="M1793.83 45.1919 L1793.83 72.576 L1786.38 72.576 L1786.38 45.4349 Q1786.38 38.994 1783.87 35.7938 Q1781.35 32.5936 1776.33 32.5936 Q1770.3 32.5936 1766.81 36.4419 Q1763.33 40.2903 1763.33 46.9338 L1763.33 72.576 L1755.83 72.576 L1755.83 27.2059 L1763.33 27.2059 L1763.33 34.2544 Q1766 30.163 1769.61 28.1376 Q1773.25 26.1121 1777.99 26.1121 Q1785.81 26.1121 1789.82 30.9732 Q1793.83 35.7938 1793.83 45.1919 Z" fill="#000000" fill-rule="nonzero" fill-opacity="1" /><polyline clip-path="url(#clip062)" style="stroke:#009af9; stroke-linecap:round; stroke-linejoin:round; stroke-width:8; stroke-opacity:1; fill:none" points="292.4,1239.79 296.408,1186.48 300.417,1186.48 304.426,1186.48 308.435,1079.86 312.443,1079.86 316.452,1079.86 320.461,1066.53 324.469,1066.53 328.478,1066.53 332.487,1066.53 336.496,1066.53 340.504,1039.88 344.513,1039.88 348.522,986.568 352.53,986.568 356.539,986.568 360.548,986.568 364.556,973.24 368.565,973.24 372.574,986.568 376.583,1013.22 380.591,1013.22 384.6,1106.52 388.609,1266.45 392.617,1266.45 396.626,1186.48 400.635,1186.48 404.644,1186.48 408.652,1253.12 412.661,1253.12 416.67,1253.12 420.678,1199.81 424.687,1253.12 428.696,1213.14 432.705,1213.14 436.713,1213.14 440.722,1106.52 444.731,1106.52 448.739,1106.52 452.748,1106.52 456.757,1239.79 460.766,1253.12 464.774,1253.12 468.783,1253.12 472.792,1279.77 476.8,1279.77 480.809,1266.45 484.818,1266.45 488.826,1266.45 492.835,1266.45 496.844,1106.52 500.853,933.257 504.861,919.93 508.87,959.912 512.879,1199.81 516.887,1119.84 520.896,1133.17 524.905,1133.17 528.914,1133.17 532.922,1133.17 536.931,1133.17 540.94,1133.17 544.948,1133.17 548.957,1133.17 552.966,1133.17 556.975,946.585 560.983,946.585 564.992,946.585 569.001,799.981 573.009,759.998 577.018,759.998 581.027,759.998 585.035,693.36 589.044,693.36 593.053,693.36 597.062,693.36 601.07,693.36 605.079,680.033 609.088,653.378 613.096,640.05 617.105,626.722 621.114,626.722 625.123,626.722 629.131,626.722 633.14,533.429 637.149,533.429 641.157,879.947 645.166,879.947 649.175,853.292 653.184,826.636 657.192,466.791 661.201,466.791 665.21,813.309 669.218,813.309 673.227,813.309 677.236,813.309 681.244,799.981 685.253,799.981 689.262,799.981 693.271,799.981 697.279,786.654 701.288,786.654 705.297,786.654 709.305,773.326 713.314,466.791 717.323,493.446 721.332,493.446 725.34,493.446 729.349,493.446 733.358,493.446 737.366,493.446 741.375,493.446 745.384,493.446 749.393,466.791 753.401,453.464 757.41,453.464 761.419,413.481 765.427,839.964 769.436,839.964 773.445,839.964 777.454,826.636 781.462,826.636 785.471,826.636 789.48,826.636 793.488,826.636 797.497,826.636 801.506,813.309 805.514,813.309 809.523,813.309 813.532,799.981 817.541,799.981 821.549,799.981 825.558,799.981 829.567,293.532 833.575,293.532 837.584,293.532 841.593,293.532 845.602,293.532 849.61,293.532 853.619,293.532 857.628,280.205 861.636,280.205 865.645,280.205 869.654,280.205 873.663,280.205 877.671,280.205 881.68,280.205 885.689,280.205 889.697,280.205 893.706,266.877 897.715,266.877 901.723,253.55 905.732,253.55 909.741,253.55 913.75,253.55 917.758,253.55 921.767,240.222 925.776,240.222 929.784,240.222 933.793,226.894 937.802,226.894 941.811,226.894 945.819,226.894 949.828,226.894 953.837,226.894 957.845,226.894 961.854,226.894 965.863,226.894 969.872,226.894 973.88,226.894 977.889,226.894 981.898,240.222 985.906,240.222 989.915,253.55 993.924,253.55 997.933,266.877 1001.94,240.222 1005.95,226.894 1009.96,226.894 1013.97,226.894 1017.98,226.894 1021.98,213.567 1025.99,226.894 1030,226.894 1034.01,226.894 1038.02,226.894 1042.03,240.222 1046.04,240.222 1050.05,240.222 1054.05,306.86 1058.06,306.86 1062.07,293.532 1066.08,293.532 1070.09,293.532 1074.1,293.532 1078.11,293.532 1082.12,293.532 1086.12,293.532 1090.13,293.532 1094.14,293.532 1098.15,293.532 1102.16,293.532 1106.17,293.532 1110.18,293.532 1114.19,293.532 1118.19,293.532 1122.2,293.532 1126.21,293.532 1130.22,293.532 1134.23,293.532 1138.24,293.532 1142.25,280.205 1146.25,280.205 1150.26,280.205 1154.27,306.86 1158.28,293.532 1162.29,293.532 1166.3,293.532 1170.31,293.532 1174.32,293.532 1178.32,293.532 1182.33,293.532 1186.34,266.877 1190.35,266.877 1194.36,266.877 1198.37,266.877 1202.38,266.877 1206.39,266.877 1210.39,266.877 1214.4,266.877 1218.41,280.205 1222.42,280.205 1226.43,280.205 1230.44,280.205 1234.45,280.205 1238.46,280.205 1242.46,280.205 1246.47,280.205 1250.48,280.205 1254.49,266.877 1258.5,266.877 1262.51,266.877 1266.52,266.877 1270.52,266.877 1274.53,266.877 1278.54,266.877 1282.55,253.55 1286.56,253.55 1290.57,253.55 1294.58,253.55 1298.59,253.55 1302.59,253.55 1306.6,253.55 1310.61,253.55 1314.62,253.55 1318.63,253.55 1322.64,253.55 1326.65,253.55 1330.66,253.55 1334.66,266.877 1338.67,266.877 1342.68,266.877 1346.69,266.877 1350.7,266.877 1354.71,266.877 1358.72,266.877 1362.73,266.877 1366.73,266.877 1370.74,266.877 1374.75,266.877 1378.76,266.877 1382.77,266.877 1386.78,266.877 1390.79,266.877 1394.79,266.877 1398.8,253.55 1402.81,253.55 1406.82,240.222 1410.83,240.222 1414.84,240.222 1418.85,253.55 1422.86,253.55 1426.86,253.55 1430.87,253.55 1434.88,240.222 1438.89,240.222 1442.9,240.222 1446.91,240.222 1450.92,240.222 1454.93,240.222 1458.93,253.55 1462.94,253.55 1466.95,253.55 1470.96,253.55 1474.97,253.55 1478.98,240.222 1482.99,240.222 1487,240.222 1491,240.222 1495.01,240.222 1499.02,213.567 1503.03,186.912 1507.04,186.912 1511.05,186.912 1515.06,186.912 1519.06,186.912 1523.07,186.912 1527.08,186.912 1531.09,186.912 1535.1,186.912 1539.11,200.239 1543.12,200.239 1547.13,186.912 1551.13,186.912 1555.14,186.912 1559.15,186.912 1563.16,186.912 1567.17,186.912 1571.18,186.912 1575.19,186.912 1579.2,186.912 1583.2,186.912 1587.21,186.912 1591.22,186.912 1595.23,186.912 1599.24,186.912 1603.25,186.912 1607.26,186.912 1611.26,186.912 1615.27,186.912 1619.28,186.912 1623.29,186.912 1627.3,186.912 1631.31,186.912 1635.32,186.912 1639.33,186.912 1643.33,186.912 1647.34,186.912 1651.35,186.912 1655.36,186.912 1659.37,186.912 1663.38,186.912 1667.39,186.912 1671.4,173.584 1675.4,173.584 1679.41,160.256 1683.42,160.256 1687.43,160.256 1691.44,160.256 1695.45,160.256 1699.46,160.256 1703.47,160.256 1707.47,160.256 1711.48,160.256 1715.49,160.256 1719.5,160.256 1723.51,160.256 1727.52,160.256 1731.53,160.256 1735.53,160.256 1739.54,160.256 1743.55,160.256 1747.56,160.256 1751.57,160.256 1755.58,160.256 1759.59,160.256 1763.6,160.256 1767.6,160.256 1771.61,160.256 1775.62,160.256 1779.63,160.256 1783.64,160.256 1787.65,160.256 1791.66,160.256 1795.67,160.256 1799.67,160.256 1803.68,160.256 1807.69,173.584 1811.7,173.584 1815.71,173.584 1819.72,186.912 1823.73,186.912 1827.74,186.912 1831.74,186.912 1835.75,186.912 1839.76,186.912 1843.77,186.912 1847.78,186.912 1851.79,186.912 1855.8,186.912 1859.8,186.912 1863.81,186.912 1867.82,186.912 1871.83,186.912 1875.84,186.912 1879.85,186.912 1883.86,173.584 1887.87,173.584 1891.87,173.584 1895.88,173.584 1899.89,173.584 1903.9,173.584 1907.91,160.256 1911.92,160.256 1915.93,160.256 1919.94,160.256 1923.94,160.256 1927.95,160.256 1931.96,160.256 1935.97,160.256 1939.98,160.256 1943.99,160.256 1948,160.256 1952.01,160.256 1956.01,160.256 1960.02,160.256 1964.03,160.256 1968.04,160.256 1972.05,160.256 1976.06,160.256 1980.07,160.256 1984.07,160.256 1988.08,160.256 1992.09,160.256 1996.1,160.256 2000.11,160.256 2004.12,160.256 2008.13,160.256 2012.14,160.256 2016.14,160.256 2020.15,160.256 2024.16,160.256 2028.17,160.256 2032.18,160.256 2036.19,160.256 2040.2,160.256 2044.21,160.256 2048.21,160.256 2052.22,160.256 2056.23,160.256 2060.24,160.256 2064.25,160.256 2068.26,160.256 2072.27,160.256 2076.28,160.256 2080.28,160.256 2084.29,160.256 2088.3,160.256 2092.31,160.256 2096.32,160.256 2100.33,160.256 2104.34,160.256 2108.34,160.256 2112.35,160.256 2116.36,160.256 2120.37,160.256 2124.38,160.256 2128.39,160.256 2132.4,160.256 2136.41,160.256 2140.41,160.256 2144.42,160.256 2148.43,160.256 2152.44,160.256 2156.45,160.256 2160.46,160.256 2164.47,160.256 2168.48,160.256 2172.48,160.256 2176.49,160.256 2180.5,160.256 2184.51,160.256 2188.52,160.256 2192.53,160.256 2196.54,160.256 2200.55,160.256 2204.55,160.256 2208.56,160.256 2212.57,160.256 2216.58,160.256 2220.59,160.256 2224.6,160.256 2228.61,160.256 2232.61,160.256 2236.62,160.256 2240.63,160.256 2244.64,160.256 2248.65,160.256 2252.66,160.256 2256.67,160.256 2260.68,160.256 2264.68,160.256 2268.69,160.256 2272.7,160.256 2276.71,160.256 2280.72,160.256 2284.73,160.256 2288.74,160.256 2292.75,160.256 "/>
<polyline clip-path="url(#clip062)" style="stroke:#e26f46; stroke-linecap:round; stroke-linejoin:round; stroke-width:8; stroke-opacity:1; fill:none" points="292.4,1239.79 296.408,1186.48 300.417,1186.48 304.426,1186.48 308.435,1186.48 312.443,1079.86 316.452,1066.53 320.461,1066.53 324.469,1066.53 328.478,1066.53 332.487,1066.53 336.496,1066.53 340.504,1066.53 344.513,1066.53 348.522,1039.88 352.53,1039.88 356.539,1039.88 360.548,986.568 364.556,986.568 368.565,999.895 372.574,1146.5 376.583,1159.83 380.591,1146.5 384.6,1146.5 388.609,1146.5 392.617,1146.5 396.626,1146.5 400.635,1146.5 404.644,1199.81 408.652,1106.52 412.661,1093.19 416.67,1186.48 420.678,1253.12 424.687,1253.12 428.696,1239.79 432.705,1239.79 436.713,1239.79 440.722,1239.79 444.731,1239.79 448.739,1239.79 452.748,1239.79 456.757,1239.79 460.766,1239.79 464.774,1239.79 468.783,1239.79 472.792,1239.79 476.8,1239.79 480.809,1239.79 484.818,1239.79 488.826,1239.79 492.835,1239.79 496.844,1266.45 500.853,1266.45 504.861,1266.45 508.87,1266.45 512.879,1266.45 516.887,1306.43 520.896,1359.74 524.905,1359.74 528.914,1386.4 532.922,1373.07 536.931,1373.07 540.94,1373.07 544.948,1373.07 548.957,1373.07 552.966,1333.09 556.975,1333.09 560.983,1333.09 564.992,1333.09 569.001,1333.09 573.009,1333.09 577.018,1333.09 581.027,1333.09 585.035,1333.09 589.044,1333.09 593.053,1293.1 597.062,1293.1 601.07,1293.1 605.079,1253.12 609.088,1253.12 613.096,1253.12 617.105,1239.79 621.114,1239.79 625.123,1239.79 629.131,1226.46 633.14,1226.46 637.149,1253.12 641.157,1253.12 645.166,1253.12 649.175,1253.12 653.184,1253.12 657.192,1253.12 661.201,1253.12 665.21,1253.12 669.218,1253.12 673.227,1253.12 677.236,1239.79 681.244,1239.79 685.253,1239.79 689.262,1239.79 693.271,1239.79 697.279,1239.79 701.288,1226.46 705.297,1226.46 709.305,1226.46 713.314,1226.46 717.323,1226.46 721.332,1226.46 725.34,1239.79 729.349,1239.79 733.358,1239.79 737.366,1013.22 741.375,1013.22 745.384,1013.22 749.393,1013.22 753.401,1013.22 757.41,1013.22 761.419,986.568 765.427,986.568 769.436,986.568 773.445,986.568 777.454,986.568 781.462,973.24 785.471,973.24 789.48,973.24 793.488,973.24 797.497,973.24 801.506,973.24 805.514,973.24 809.523,973.24 813.532,973.24 817.541,973.24 821.549,973.24 825.558,893.274 829.567,919.93 833.575,919.93 837.584,919.93 841.593,1053.21 845.602,1053.21 849.61,1026.55 853.619,1039.88 857.628,1039.88 861.636,1039.88 865.645,1039.88 869.654,1039.88 873.663,1039.88 877.671,1039.88 881.68,1106.52 885.689,1106.52 889.697,1106.52 893.706,1093.19 897.715,1093.19 901.723,1093.19 905.732,866.619 909.741,866.619 913.75,866.619 917.758,866.619 921.767,866.619 925.776,893.274 929.784,866.619 933.793,866.619 937.802,853.292 941.811,853.292 945.819,853.292 949.828,853.292 953.837,853.292 957.845,853.292 961.854,853.292 965.863,853.292 969.872,853.292 973.88,853.292 977.889,906.602 981.898,906.602 985.906,906.602 989.915,946.585 993.924,959.912 997.933,959.912 1001.94,959.912 1005.95,959.912 1009.96,959.912 1013.97,959.912 1017.98,959.912 1021.98,959.912 1025.99,919.93 1030,919.93 1034.01,919.93 1038.02,919.93 1042.03,919.93 1046.04,919.93 1050.05,919.93 1054.05,919.93 1058.06,919.93 1062.07,919.93 1066.08,946.585 1070.09,946.585 1074.1,946.585 1078.11,946.585 1082.12,933.257 1086.12,933.257 1090.13,933.257 1094.14,933.257 1098.15,919.93 1102.16,933.257 1106.17,933.257 1110.18,933.257 1114.19,933.257 1118.19,933.257 1122.2,919.93 1126.21,933.257 1130.22,919.93 1134.23,906.602 1138.24,906.602 1142.25,879.947 1146.25,879.947 1150.26,879.947 1154.27,866.619 1158.28,853.292 1162.29,853.292 1166.3,853.292 1170.31,839.964 1174.32,893.274 1178.32,919.93 1182.33,919.93 1186.34,919.93 1190.35,919.93 1194.36,919.93 1198.37,919.93 1202.38,919.93 1206.39,919.93 1210.39,919.93 1214.4,919.93 1218.41,959.912 1222.42,959.912 1226.43,959.912 1230.44,1013.22 1234.45,1013.22 1238.46,1013.22 1242.46,1053.21 1246.47,1053.21 1250.48,1053.21 1254.49,1253.12 1258.5,1253.12 1262.51,1226.46 1266.52,1239.79 1270.52,1266.45 1274.53,1266.45 1278.54,1266.45 1282.55,1266.45 1286.56,1266.45 1290.57,1293.1 1294.58,1293.1 1298.59,1293.1 1302.59,1293.1 1306.6,1279.77 1310.61,1266.45 1314.62,1266.45 1318.63,1266.45 1322.64,1266.45 1326.65,1266.45 1330.66,1266.45 1334.66,1266.45 1338.67,1266.45 1342.68,1266.45 1346.69,1266.45 1350.7,1213.14 1354.71,1253.12 1358.72,1253.12 1362.73,1266.45 1366.73,1266.45 1370.74,1266.45 1374.75,1266.45 1378.76,1266.45 1382.77,1266.45 1386.78,1159.83 1390.79,1159.83 1394.79,1159.83 1398.8,1159.83 1402.81,1213.14 1406.82,1213.14 1410.83,1213.14 1414.84,1213.14 1418.85,1213.14 1422.86,1213.14 1426.86,1213.14 1430.87,1213.14 1434.88,1213.14 1438.89,1213.14 1442.9,1213.14 1446.91,1213.14 1450.92,1146.5 1454.93,1146.5 1458.93,1093.19 1462.94,1093.19 1466.95,1093.19 1470.96,1039.88 1474.97,1013.22 1478.98,1013.22 1482.99,1013.22 1487,1013.22 1491,1013.22 1495.01,1013.22 1499.02,1013.22 1503.03,1013.22 1507.04,999.895 1511.05,1039.88 1515.06,1039.88 1519.06,1039.88 1523.07,1053.21 1527.08,1039.88 1531.09,999.895 1535.1,999.895 1539.11,999.895 1543.12,986.568 1547.13,986.568 1551.13,986.568 1555.14,986.568 1559.15,986.568 1563.16,973.24 1567.17,973.24 1571.18,973.24 1575.19,973.24 1579.2,973.24 1583.2,973.24 1587.21,973.24 1591.22,973.24 1595.23,973.24 1599.24,973.24 1603.25,973.24 1607.26,973.24 1611.26,973.24 1615.27,973.24 1619.28,973.24 1623.29,973.24 1627.3,973.24 1631.31,973.24 1635.32,973.24 1639.33,973.24 1643.33,973.24 1647.34,973.24 1651.35,973.24 1655.36,973.24 1659.37,973.24 1663.38,973.24 1667.39,973.24 1671.4,973.24 1675.4,973.24 1679.41,973.24 1683.42,973.24 1687.43,973.24 1691.44,973.24 1695.45,973.24 1699.46,959.912 1703.47,959.912 1707.47,933.257 1711.48,933.257 1715.49,933.257 1719.5,933.257 1723.51,933.257 1727.52,933.257 1731.53,933.257 1735.53,933.257 1739.54,933.257 1743.55,933.257 1747.56,946.585 1751.57,946.585 1755.58,959.912 1759.59,959.912 1763.6,959.912 1767.6,959.912 1771.61,999.895 1775.62,999.895 1779.63,999.895 1783.64,999.895 1787.65,999.895 1791.66,999.895 1795.67,999.895 1799.67,999.895 1803.68,999.895 1807.69,999.895 1811.7,999.895 1815.71,999.895 1819.72,999.895 1823.73,999.895 1827.74,999.895 1831.74,999.895 1835.75,1146.5 1839.76,1146.5 1843.77,1146.5 1847.78,1146.5 1851.79,1146.5 1855.8,1146.5 1859.8,1146.5 1863.81,1146.5 1867.82,1146.5 1871.83,1146.5 1875.84,1146.5 1879.85,1146.5 1883.86,1146.5 1887.87,1146.5 1891.87,1146.5 1895.88,1146.5 1899.89,1146.5 1903.9,1146.5 1907.91,1146.5 1911.92,1146.5 1915.93,1146.5 1919.94,1146.5 1923.94,1159.83 1927.95,1159.83 1931.96,1159.83 1935.97,1159.83 1939.98,1159.83 1943.99,1159.83 1948,1146.5 1952.01,1146.5 1956.01,1146.5 1960.02,1146.5 1964.03,1146.5 1968.04,1146.5 1972.05,1146.5 1976.06,1146.5 1980.07,1146.5 1984.07,1146.5 1988.08,1133.17 1992.09,1146.5 1996.1,1146.5 2000.11,1146.5 2004.12,1146.5 2008.13,1146.5 2012.14,1159.83 2016.14,1159.83 2020.15,1159.83 2024.16,1159.83 2028.17,1159.83 2032.18,1159.83 2036.19,1159.83 2040.2,1159.83 2044.21,1159.83 2048.21,1146.5 2052.22,1146.5 2056.23,1146.5 2060.24,1146.5 2064.25,1146.5 2068.26,1146.5 2072.27,1146.5 2076.28,1146.5 2080.28,1199.81 2084.29,1199.81 2088.3,1213.14 2092.31,1213.14 2096.32,1199.81 2100.33,1199.81 2104.34,1199.81 2108.34,1199.81 2112.35,1199.81 2116.36,1199.81 2120.37,1199.81 2124.38,1199.81 2128.39,1199.81 2132.4,1199.81 2136.41,1239.79 2140.41,1239.79 2144.42,1253.12 2148.43,1253.12 2152.44,1253.12 2156.45,1253.12 2160.46,1293.1 2164.47,1293.1 2168.48,1293.1 2172.48,1293.1 2176.49,1293.1 2180.5,1293.1 2184.51,1293.1 2188.52,1293.1 2192.53,1293.1 2196.54,1293.1 2200.55,1293.1 2204.55,1293.1 2208.56,1293.1 2212.57,1293.1 2216.58,1293.1 2220.59,1293.1 2224.6,1279.77 2228.61,1279.77 2232.61,1279.77 2236.62,1279.77 2240.63,1279.77 2244.64,1279.77 2248.65,1279.77 2252.66,1279.77 2256.67,1279.77 2260.68,1279.77 2264.68,1279.77 2268.69,1306.43 2272.7,1306.43 2276.71,1306.43 2280.72,1306.43 2284.73,1306.43 2288.74,1306.43 2292.75,1306.43 "/>
<path clip-path="url(#clip060)" d="M303.068 322.316 L773.529 322.316 L773.529 166.796 L303.068 166.796  Z" fill="#ffffff" fill-rule="evenodd" fill-opacity="1"/>
<polyline clip-path="url(#clip060)" style="stroke:#000000; stroke-linecap:round; stroke-linejoin:round; stroke-width:4; stroke-opacity:1; fill:none" points="303.068,322.316 773.529,322.316 773.529,166.796 303.068,166.796 303.068,322.316 "/>
<polyline clip-path="url(#clip060)" style="stroke:#009af9; stroke-linecap:round; stroke-linejoin:round; stroke-width:8; stroke-opacity:1; fill:none" points="326.628,218.636 467.986,218.636 "/>
<path clip-path="url(#clip060)" d="M491.545 201.356 L498.513 201.356 L507.332 224.874 L516.198 201.356 L523.165 201.356 L523.165 235.916 L518.605 235.916 L518.605 205.569 L509.693 229.272 L504.994 229.272 L496.082 205.569 L496.082 235.916 L491.545 235.916 L491.545 201.356 Z" fill="#000000" fill-rule="nonzero" fill-opacity="1" /><path clip-path="url(#clip060)" d="M554.438 221.888 L554.438 223.971 L534.855 223.971 Q535.133 228.369 537.494 230.684 Q539.878 232.976 544.114 232.976 Q546.568 232.976 548.86 232.374 Q551.175 231.772 553.443 230.569 L553.443 234.596 Q551.151 235.568 548.744 236.078 Q546.337 236.587 543.86 236.587 Q537.656 236.587 534.022 232.976 Q530.411 229.365 530.411 223.207 Q530.411 216.842 533.837 213.115 Q537.286 209.365 543.119 209.365 Q548.351 209.365 551.383 212.745 Q554.438 216.101 554.438 221.888 M550.179 220.638 Q550.133 217.143 548.212 215.059 Q546.313 212.976 543.165 212.976 Q539.601 212.976 537.448 214.99 Q535.318 217.004 534.994 220.661 L550.179 220.638 Z" fill="#000000" fill-rule="nonzero" fill-opacity="1" /><path clip-path="url(#clip060)" d="M565.642 202.629 L565.642 209.99 L574.415 209.99 L574.415 213.3 L565.642 213.3 L565.642 227.374 Q565.642 230.545 566.499 231.448 Q567.378 232.351 570.04 232.351 L574.415 232.351 L574.415 235.916 L570.04 235.916 Q565.11 235.916 563.235 234.087 Q561.36 232.235 561.36 227.374 L561.36 213.3 L558.235 213.3 L558.235 209.99 L561.36 209.99 L561.36 202.629 L565.642 202.629 Z" fill="#000000" fill-rule="nonzero" fill-opacity="1" /><path clip-path="url(#clip060)" d="M595.04 213.971 Q594.322 213.555 593.466 213.37 Q592.633 213.161 591.614 213.161 Q588.003 213.161 586.059 215.522 Q584.137 217.86 584.137 222.258 L584.137 235.916 L579.855 235.916 L579.855 209.99 L584.137 209.99 L584.137 214.018 Q585.48 211.657 587.633 210.522 Q589.785 209.365 592.864 209.365 Q593.304 209.365 593.836 209.434 Q594.369 209.481 595.017 209.596 L595.04 213.971 Z" fill="#000000" fill-rule="nonzero" fill-opacity="1" /><path clip-path="url(#clip060)" d="M599.508 209.99 L603.767 209.99 L603.767 235.916 L599.508 235.916 L599.508 209.99 M599.508 199.897 L603.767 199.897 L603.767 205.291 L599.508 205.291 L599.508 199.897 Z" fill="#000000" fill-rule="nonzero" fill-opacity="1" /><path clip-path="url(#clip060)" d="M631.336 210.985 L631.336 214.967 Q629.531 213.971 627.702 213.485 Q625.896 212.976 624.045 212.976 Q619.901 212.976 617.609 215.615 Q615.318 218.231 615.318 222.976 Q615.318 227.721 617.609 230.36 Q619.901 232.976 624.045 232.976 Q625.896 232.976 627.702 232.49 Q629.531 231.981 631.336 230.985 L631.336 234.92 Q629.554 235.754 627.632 236.17 Q625.734 236.587 623.582 236.587 Q617.725 236.587 614.276 232.906 Q610.827 229.226 610.827 222.976 Q610.827 216.633 614.299 212.999 Q617.795 209.365 623.859 209.365 Q625.827 209.365 627.702 209.782 Q629.577 210.175 631.336 210.985 Z" fill="#000000" fill-rule="nonzero" fill-opacity="1" /><polyline clip-path="url(#clip060)" style="stroke:#e26f46; stroke-linecap:round; stroke-linejoin:round; stroke-width:8; stroke-opacity:1; fill:none" points="326.628,270.476 467.986,270.476 "/>
<path clip-path="url(#clip060)" d="M491.545 253.196 L520.781 253.196 L520.781 257.131 L508.513 257.131 L508.513 287.756 L503.814 287.756 L503.814 257.131 L491.545 257.131 L491.545 253.196 Z" fill="#000000" fill-rule="nonzero" fill-opacity="1" /><path clip-path="url(#clip060)" d="M527.101 264.816 Q523.675 264.816 521.684 267.501 Q519.693 270.163 519.693 274.816 Q519.693 279.469 521.661 282.154 Q523.652 284.816 527.101 284.816 Q530.503 284.816 532.494 282.131 Q534.485 279.446 534.485 274.816 Q534.485 270.21 532.494 267.524 Q530.503 264.816 527.101 264.816 M527.101 261.205 Q532.656 261.205 535.827 264.816 Q538.999 268.427 538.999 274.816 Q538.999 281.182 535.827 284.816 Q532.656 288.427 527.101 288.427 Q521.522 288.427 518.351 284.816 Q515.203 281.182 515.203 274.816 Q515.203 268.427 518.351 264.816 Q521.522 261.205 527.101 261.205 Z" fill="#000000" fill-rule="nonzero" fill-opacity="1" /><path clip-path="url(#clip060)" d="M550.179 283.867 L550.179 297.617 L545.897 297.617 L545.897 261.83 L550.179 261.83 L550.179 265.765 Q551.522 263.45 553.559 262.339 Q555.619 261.205 558.466 261.205 Q563.188 261.205 566.128 264.955 Q569.091 268.705 569.091 274.816 Q569.091 280.927 566.128 284.677 Q563.188 288.427 558.466 288.427 Q555.619 288.427 553.559 287.316 Q551.522 286.182 550.179 283.867 M564.67 274.816 Q564.67 270.117 562.725 267.455 Q560.804 264.77 557.425 264.77 Q554.045 264.77 552.1 267.455 Q550.179 270.117 550.179 274.816 Q550.179 279.515 552.1 282.2 Q554.045 284.862 557.425 284.862 Q560.804 284.862 562.725 282.2 Q564.67 279.515 564.67 274.816 Z" fill="#000000" fill-rule="nonzero" fill-opacity="1" /><path clip-path="url(#clip060)" d="M586.198 264.816 Q582.772 264.816 580.781 267.501 Q578.79 270.163 578.79 274.816 Q578.79 279.469 580.758 282.154 Q582.748 284.816 586.198 284.816 Q589.6 284.816 591.591 282.131 Q593.582 279.446 593.582 274.816 Q593.582 270.21 591.591 267.524 Q589.6 264.816 586.198 264.816 M586.198 261.205 Q591.753 261.205 594.924 264.816 Q598.096 268.427 598.096 274.816 Q598.096 281.182 594.924 284.816 Q591.753 288.427 586.198 288.427 Q580.619 288.427 577.448 284.816 Q574.299 281.182 574.299 274.816 Q574.299 268.427 577.448 264.816 Q580.619 261.205 586.198 261.205 Z" fill="#000000" fill-rule="nonzero" fill-opacity="1" /><path clip-path="url(#clip060)" d="M605.156 251.737 L609.415 251.737 L609.415 287.756 L605.156 287.756 L605.156 251.737 Z" fill="#000000" fill-rule="nonzero" fill-opacity="1" /><path clip-path="url(#clip060)" d="M628.373 264.816 Q624.947 264.816 622.957 267.501 Q620.966 270.163 620.966 274.816 Q620.966 279.469 622.933 282.154 Q624.924 284.816 628.373 284.816 Q631.776 284.816 633.767 282.131 Q635.757 279.446 635.757 274.816 Q635.757 270.21 633.767 267.524 Q631.776 264.816 628.373 264.816 M628.373 261.205 Q633.929 261.205 637.1 264.816 Q640.271 268.427 640.271 274.816 Q640.271 281.182 637.1 284.816 Q633.929 288.427 628.373 288.427 Q622.795 288.427 619.623 284.816 Q616.475 281.182 616.475 274.816 Q616.475 268.427 619.623 264.816 Q622.795 261.205 628.373 261.205 Z" fill="#000000" fill-rule="nonzero" fill-opacity="1" /><path clip-path="url(#clip060)" d="M664.392 274.492 Q664.392 269.862 662.47 267.316 Q660.572 264.77 657.123 264.77 Q653.697 264.77 651.776 267.316 Q649.878 269.862 649.878 274.492 Q649.878 279.098 651.776 281.645 Q653.697 284.191 657.123 284.191 Q660.572 284.191 662.47 281.645 Q664.392 279.098 664.392 274.492 M668.651 284.538 Q668.651 291.158 665.711 294.376 Q662.771 297.617 656.706 297.617 Q654.461 297.617 652.47 297.27 Q650.48 296.945 648.605 296.251 L648.605 292.108 Q650.48 293.126 652.308 293.612 Q654.137 294.098 656.035 294.098 Q660.225 294.098 662.308 291.899 Q664.392 289.723 664.392 285.302 L664.392 283.196 Q663.072 285.487 661.012 286.621 Q658.952 287.756 656.081 287.756 Q651.313 287.756 648.396 284.121 Q645.48 280.487 645.48 274.492 Q645.48 268.473 648.396 264.839 Q651.313 261.205 656.081 261.205 Q658.952 261.205 661.012 262.339 Q663.072 263.473 664.392 265.765 L664.392 261.83 L668.651 261.83 L668.651 284.538 Z" fill="#000000" fill-rule="nonzero" fill-opacity="1" /><path clip-path="url(#clip060)" d="M677.424 261.83 L681.683 261.83 L681.683 287.756 L677.424 287.756 L677.424 261.83 M677.424 251.737 L681.683 251.737 L681.683 257.131 L677.424 257.131 L677.424 251.737 Z" fill="#000000" fill-rule="nonzero" fill-opacity="1" /><path clip-path="url(#clip060)" d="M709.252 262.825 L709.252 266.807 Q707.447 265.811 705.618 265.325 Q703.813 264.816 701.961 264.816 Q697.817 264.816 695.526 267.455 Q693.234 270.071 693.234 274.816 Q693.234 279.561 695.526 282.2 Q697.817 284.816 701.961 284.816 Q703.813 284.816 705.618 284.33 Q707.447 283.821 709.252 282.825 L709.252 286.76 Q707.47 287.594 705.549 288.01 Q703.651 288.427 701.498 288.427 Q695.641 288.427 692.192 284.746 Q688.743 281.066 688.743 274.816 Q688.743 268.473 692.215 264.839 Q695.711 261.205 701.776 261.205 Q703.743 261.205 705.618 261.622 Q707.493 262.015 709.252 262.825 Z" fill="#000000" fill-rule="nonzero" fill-opacity="1" /><path clip-path="url(#clip060)" d="M728.442 274.723 Q723.28 274.723 721.289 275.904 Q719.299 277.084 719.299 279.932 Q719.299 282.2 720.78 283.543 Q722.285 284.862 724.854 284.862 Q728.396 284.862 730.525 282.362 Q732.678 279.839 732.678 275.672 L732.678 274.723 L728.442 274.723 M736.937 272.964 L736.937 287.756 L732.678 287.756 L732.678 283.821 Q731.22 286.182 729.044 287.316 Q726.868 288.427 723.72 288.427 Q719.738 288.427 717.377 286.205 Q715.039 283.959 715.039 280.209 Q715.039 275.834 717.956 273.612 Q720.896 271.39 726.706 271.39 L732.678 271.39 L732.678 270.973 Q732.678 268.034 730.734 266.436 Q728.813 264.816 725.317 264.816 Q723.095 264.816 720.988 265.348 Q718.882 265.881 716.938 266.946 L716.938 263.01 Q719.276 262.108 721.475 261.668 Q723.674 261.205 725.757 261.205 Q731.382 261.205 734.16 264.122 Q736.937 267.038 736.937 272.964 Z" fill="#000000" fill-rule="nonzero" fill-opacity="1" /><path clip-path="url(#clip060)" d="M745.711 251.737 L749.97 251.737 L749.97 287.756 L745.711 287.756 L745.711 251.737 Z" fill="#000000" fill-rule="nonzero" fill-opacity="1" /></svg>
