<?xml version="1.0" encoding="utf-8"?>
<svg xmlns="http://www.w3.org/2000/svg" xmlns:xlink="http://www.w3.org/1999/xlink" width="600" height="400" viewBox="0 0 2400 1600">
<defs>
  <clipPath id="clip590">
    <rect x="0" y="0" width="2400" height="1600"/>
  </clipPath>
</defs>
<path clip-path="url(#clip590)" d="M0 1600 L2400 1600 L2400 0 L0 0  Z" fill="#ffffff" fill-rule="evenodd" fill-opacity="1"/>
<defs>
  <clipPath id="clip591">
    <rect x="480" y="0" width="1681" height="1600"/>
  </clipPath>
</defs>
<path clip-path="url(#clip590)" d="M232.389 1423.18 L2352.76 1423.18 L2352.76 123.472 L232.389 123.472  Z" fill="#ffffff" fill-rule="evenodd" fill-opacity="1"/>
<defs>
  <clipPath id="clip592">
    <rect x="232" y="123" width="2121" height="1301"/>
  </clipPath>
</defs>
<polyline clip-path="url(#clip592)" style="stroke:#000000; stroke-linecap:round; stroke-linejoin:round; stroke-width:2; stroke-opacity:0.1; fill:none" points="288.391,1423.18 288.391,123.472 "/>
<polyline clip-path="url(#clip592)" style="stroke:#000000; stroke-linecap:round; stroke-linejoin:round; stroke-width:2; stroke-opacity:0.1; fill:none" points="689.262,1423.18 689.262,123.472 "/>
<polyline clip-path="url(#clip592)" style="stroke:#000000; stroke-linecap:round; stroke-linejoin:round; stroke-width:2; stroke-opacity:0.1; fill:none" points="1090.13,1423.18 1090.13,123.472 "/>
<polyline clip-path="url(#clip592)" style="stroke:#000000; stroke-linecap:round; stroke-linejoin:round; stroke-width:2; stroke-opacity:0.1; fill:none" points="1491,1423.18 1491,123.472 "/>
<polyline clip-path="url(#clip592)" style="stroke:#000000; stroke-linecap:round; stroke-linejoin:round; stroke-width:2; stroke-opacity:0.1; fill:none" points="1891.87,1423.18 1891.87,123.472 "/>
<polyline clip-path="url(#clip592)" style="stroke:#000000; stroke-linecap:round; stroke-linejoin:round; stroke-width:2; stroke-opacity:0.1; fill:none" points="2292.75,1423.18 2292.75,123.472 "/>
<polyline clip-path="url(#clip592)" style="stroke:#000000; stroke-linecap:round; stroke-linejoin:round; stroke-width:2; stroke-opacity:0.1; fill:none" points="232.389,1262.4 2352.76,1262.4 "/>
<polyline clip-path="url(#clip592)" style="stroke:#000000; stroke-linecap:round; stroke-linejoin:round; stroke-width:2; stroke-opacity:0.1; fill:none" points="232.389,986.867 2352.76,986.867 "/>
<polyline clip-path="url(#clip592)" style="stroke:#000000; stroke-linecap:round; stroke-linejoin:round; stroke-width:2; stroke-opacity:0.1; fill:none" points="232.389,711.33 2352.76,711.33 "/>
<polyline clip-path="url(#clip592)" style="stroke:#000000; stroke-linecap:round; stroke-linejoin:round; stroke-width:2; stroke-opacity:0.1; fill:none" points="232.389,435.793 2352.76,435.793 "/>
<polyline clip-path="url(#clip592)" style="stroke:#000000; stroke-linecap:round; stroke-linejoin:round; stroke-width:2; stroke-opacity:0.1; fill:none" points="232.389,160.256 2352.76,160.256 "/>
<polyline clip-path="url(#clip590)" style="stroke:#000000; stroke-linecap:round; stroke-linejoin:round; stroke-width:4; stroke-opacity:1; fill:none" points="232.389,1423.18 2352.76,1423.18 "/>
<polyline clip-path="url(#clip590)" style="stroke:#000000; stroke-linecap:round; stroke-linejoin:round; stroke-width:4; stroke-opacity:1; fill:none" points="288.391,1423.18 288.391,1404.28 "/>
<polyline clip-path="url(#clip590)" style="stroke:#000000; stroke-linecap:round; stroke-linejoin:round; stroke-width:4; stroke-opacity:1; fill:none" points="689.262,1423.18 689.262,1404.28 "/>
<polyline clip-path="url(#clip590)" style="stroke:#000000; stroke-linecap:round; stroke-linejoin:round; stroke-width:4; stroke-opacity:1; fill:none" points="1090.13,1423.18 1090.13,1404.28 "/>
<polyline clip-path="url(#clip590)" style="stroke:#000000; stroke-linecap:round; stroke-linejoin:round; stroke-width:4; stroke-opacity:1; fill:none" points="1491,1423.18 1491,1404.28 "/>
<polyline clip-path="url(#clip590)" style="stroke:#000000; stroke-linecap:round; stroke-linejoin:round; stroke-width:4; stroke-opacity:1; fill:none" points="1891.87,1423.18 1891.87,1404.28 "/>
<polyline clip-path="url(#clip590)" style="stroke:#000000; stroke-linecap:round; stroke-linejoin:round; stroke-width:4; stroke-opacity:1; fill:none" points="2292.75,1423.18 2292.75,1404.28 "/>
<path clip-path="url(#clip590)" d="M288.391 1454.1 Q284.78 1454.1 282.951 1457.66 Q281.146 1461.2 281.146 1468.33 Q281.146 1475.44 282.951 1479.01 Q284.78 1482.55 288.391 1482.55 Q292.025 1482.55 293.831 1479.01 Q295.659 1475.44 295.659 1468.33 Q295.659 1461.2 293.831 1457.66 Q292.025 1454.1 288.391 1454.1 M288.391 1450.39 Q294.201 1450.39 297.257 1455 Q300.335 1459.58 300.335 1468.33 Q300.335 1477.06 297.257 1481.67 Q294.201 1486.25 288.391 1486.25 Q282.581 1486.25 279.502 1481.67 Q276.447 1477.06 276.447 1468.33 Q276.447 1459.58 279.502 1455 Q282.581 1450.39 288.391 1450.39 Z" fill="#000000" fill-rule="nonzero" fill-opacity="1" /><path clip-path="url(#clip590)" d="M648.869 1481.64 L656.507 1481.64 L656.507 1455.28 L648.197 1456.95 L648.197 1452.69 L656.461 1451.02 L661.137 1451.02 L661.137 1481.64 L668.776 1481.64 L668.776 1485.58 L648.869 1485.58 L648.869 1481.64 Z" fill="#000000" fill-rule="nonzero" fill-opacity="1" /><path clip-path="url(#clip590)" d="M688.22 1454.1 Q684.609 1454.1 682.78 1457.66 Q680.975 1461.2 680.975 1468.33 Q680.975 1475.44 682.78 1479.01 Q684.609 1482.55 688.22 1482.55 Q691.854 1482.55 693.66 1479.01 Q695.489 1475.44 695.489 1468.33 Q695.489 1461.2 693.66 1457.66 Q691.854 1454.1 688.22 1454.1 M688.22 1450.39 Q694.03 1450.39 697.086 1455 Q700.165 1459.58 700.165 1468.33 Q700.165 1477.06 697.086 1481.67 Q694.03 1486.25 688.22 1486.25 Q682.41 1486.25 679.331 1481.67 Q676.276 1477.06 676.276 1468.33 Q676.276 1459.58 679.331 1455 Q682.41 1450.39 688.22 1450.39 Z" fill="#000000" fill-rule="nonzero" fill-opacity="1" /><path clip-path="url(#clip590)" d="M718.382 1454.1 Q714.771 1454.1 712.942 1457.66 Q711.137 1461.2 711.137 1468.33 Q711.137 1475.44 712.942 1479.01 Q714.771 1482.55 718.382 1482.55 Q722.016 1482.55 723.822 1479.01 Q725.651 1475.44 725.651 1468.33 Q725.651 1461.2 723.822 1457.66 Q722.016 1454.1 718.382 1454.1 M718.382 1450.39 Q724.192 1450.39 727.248 1455 Q730.327 1459.58 730.327 1468.33 Q730.327 1477.06 727.248 1481.67 Q724.192 1486.25 718.382 1486.25 Q712.572 1486.25 709.493 1481.67 Q706.438 1477.06 706.438 1468.33 Q706.438 1459.58 709.493 1455 Q712.572 1450.39 718.382 1450.39 Z" fill="#000000" fill-rule="nonzero" fill-opacity="1" /><path clip-path="url(#clip590)" d="M1053.83 1481.64 L1070.14 1481.64 L1070.14 1485.58 L1048.2 1485.58 L1048.2 1481.64 Q1050.86 1478.89 1055.45 1474.26 Q1060.05 1469.61 1061.23 1468.27 Q1063.48 1465.74 1064.36 1464.01 Q1065.26 1462.25 1065.26 1460.56 Q1065.26 1457.8 1063.32 1456.07 Q1061.39 1454.33 1058.29 1454.33 Q1056.09 1454.33 1053.64 1455.09 Q1051.21 1455.86 1048.43 1457.41 L1048.43 1452.69 Q1051.26 1451.55 1053.71 1450.97 Q1056.16 1450.39 1058.2 1450.39 Q1063.57 1450.39 1066.76 1453.08 Q1069.96 1455.77 1069.96 1460.26 Q1069.96 1462.39 1069.15 1464.31 Q1068.36 1466.2 1066.26 1468.8 Q1065.68 1469.47 1062.58 1472.69 Q1059.47 1475.88 1053.83 1481.64 Z" fill="#000000" fill-rule="nonzero" fill-opacity="1" /><path clip-path="url(#clip590)" d="M1089.96 1454.1 Q1086.35 1454.1 1084.52 1457.66 Q1082.71 1461.2 1082.71 1468.33 Q1082.71 1475.44 1084.52 1479.01 Q1086.35 1482.55 1089.96 1482.55 Q1093.59 1482.55 1095.4 1479.01 Q1097.23 1475.44 1097.23 1468.33 Q1097.23 1461.2 1095.4 1457.66 Q1093.59 1454.1 1089.96 1454.1 M1089.96 1450.39 Q1095.77 1450.39 1098.82 1455 Q1101.9 1459.58 1101.9 1468.33 Q1101.9 1477.06 1098.82 1481.67 Q1095.77 1486.25 1089.96 1486.25 Q1084.15 1486.25 1081.07 1481.67 Q1078.01 1477.06 1078.01 1468.33 Q1078.01 1459.58 1081.07 1455 Q1084.15 1450.39 1089.96 1450.39 Z" fill="#000000" fill-rule="nonzero" fill-opacity="1" /><path clip-path="url(#clip590)" d="M1120.12 1454.1 Q1116.51 1454.1 1114.68 1457.66 Q1112.88 1461.2 1112.88 1468.33 Q1112.88 1475.44 1114.68 1479.01 Q1116.51 1482.55 1120.12 1482.55 Q1123.76 1482.55 1125.56 1479.01 Q1127.39 1475.44 1127.39 1468.33 Q1127.39 1461.2 1125.56 1457.66 Q1123.76 1454.1 1120.12 1454.1 M1120.12 1450.39 Q1125.93 1450.39 1128.99 1455 Q1132.07 1459.58 1132.07 1468.33 Q1132.07 1477.06 1128.99 1481.67 Q1125.93 1486.25 1120.12 1486.25 Q1114.31 1486.25 1111.23 1481.67 Q1108.18 1477.06 1108.18 1468.33 Q1108.18 1459.58 1111.23 1455 Q1114.31 1450.39 1120.12 1450.39 Z" fill="#000000" fill-rule="nonzero" fill-opacity="1" /><path clip-path="url(#clip590)" d="M1464.77 1466.95 Q1468.12 1467.66 1470 1469.93 Q1471.9 1472.2 1471.9 1475.53 Q1471.9 1480.65 1468.38 1483.45 Q1464.86 1486.25 1458.38 1486.25 Q1456.2 1486.25 1453.89 1485.81 Q1451.59 1485.39 1449.14 1484.54 L1449.14 1480.02 Q1451.08 1481.16 1453.4 1481.74 Q1455.71 1482.32 1458.24 1482.32 Q1462.64 1482.32 1464.93 1480.58 Q1467.24 1478.84 1467.24 1475.53 Q1467.24 1472.48 1465.09 1470.77 Q1462.96 1469.03 1459.14 1469.03 L1455.11 1469.03 L1455.11 1465.19 L1459.33 1465.19 Q1462.77 1465.19 1464.6 1463.82 Q1466.43 1462.43 1466.43 1459.84 Q1466.43 1457.18 1464.53 1455.77 Q1462.66 1454.33 1459.14 1454.33 Q1457.22 1454.33 1455.02 1454.75 Q1452.82 1455.16 1450.18 1456.04 L1450.18 1451.88 Q1452.84 1451.14 1455.16 1450.77 Q1457.5 1450.39 1459.56 1450.39 Q1464.88 1450.39 1467.98 1452.83 Q1471.08 1455.23 1471.08 1459.35 Q1471.08 1462.22 1469.44 1464.21 Q1467.8 1466.18 1464.77 1466.95 Z" fill="#000000" fill-rule="nonzero" fill-opacity="1" /><path clip-path="url(#clip590)" d="M1490.76 1454.1 Q1487.15 1454.1 1485.32 1457.66 Q1483.52 1461.2 1483.52 1468.33 Q1483.52 1475.44 1485.32 1479.01 Q1487.15 1482.55 1490.76 1482.55 Q1494.39 1482.55 1496.2 1479.01 Q1498.03 1475.44 1498.03 1468.33 Q1498.03 1461.2 1496.2 1457.66 Q1494.39 1454.1 1490.76 1454.1 M1490.76 1450.39 Q1496.57 1450.39 1499.63 1455 Q1502.71 1459.58 1502.71 1468.33 Q1502.71 1477.06 1499.63 1481.67 Q1496.57 1486.25 1490.76 1486.25 Q1484.95 1486.25 1481.87 1481.67 Q1478.82 1477.06 1478.82 1468.33 Q1478.82 1459.58 1481.87 1455 Q1484.95 1450.39 1490.76 1450.39 Z" fill="#000000" fill-rule="nonzero" fill-opacity="1" /><path clip-path="url(#clip590)" d="M1520.92 1454.1 Q1517.31 1454.1 1515.48 1457.66 Q1513.68 1461.2 1513.68 1468.33 Q1513.68 1475.44 1515.48 1479.01 Q1517.31 1482.55 1520.92 1482.55 Q1524.56 1482.55 1526.36 1479.01 Q1528.19 1475.44 1528.19 1468.33 Q1528.19 1461.2 1526.36 1457.66 Q1524.56 1454.1 1520.92 1454.1 M1520.92 1450.39 Q1526.73 1450.39 1529.79 1455 Q1532.87 1459.58 1532.87 1468.33 Q1532.87 1477.06 1529.79 1481.67 Q1526.73 1486.25 1520.92 1486.25 Q1515.11 1486.25 1512.03 1481.67 Q1508.98 1477.06 1508.98 1468.33 Q1508.98 1459.58 1512.03 1455 Q1515.11 1450.39 1520.92 1450.39 Z" fill="#000000" fill-rule="nonzero" fill-opacity="1" /><path clip-path="url(#clip590)" d="M1864.97 1455.09 L1853.16 1473.54 L1864.97 1473.54 L1864.97 1455.09 M1863.74 1451.02 L1869.62 1451.02 L1869.62 1473.54 L1874.55 1473.54 L1874.55 1477.43 L1869.62 1477.43 L1869.62 1485.58 L1864.97 1485.58 L1864.97 1477.43 L1849.36 1477.43 L1849.36 1472.92 L1863.74 1451.02 Z" fill="#000000" fill-rule="nonzero" fill-opacity="1" /><path clip-path="url(#clip590)" d="M1892.28 1454.1 Q1888.67 1454.1 1886.84 1457.66 Q1885.03 1461.2 1885.03 1468.33 Q1885.03 1475.44 1886.84 1479.01 Q1888.67 1482.55 1892.28 1482.55 Q1895.91 1482.55 1897.72 1479.01 Q1899.55 1475.44 1899.55 1468.33 Q1899.55 1461.2 1897.72 1457.66 Q1895.91 1454.1 1892.28 1454.1 M1892.28 1450.39 Q1898.09 1450.39 1901.15 1455 Q1904.22 1459.58 1904.22 1468.33 Q1904.22 1477.06 1901.15 1481.67 Q1898.09 1486.25 1892.28 1486.25 Q1886.47 1486.25 1883.39 1481.67 Q1880.34 1477.06 1880.34 1468.33 Q1880.34 1459.58 1883.39 1455 Q1886.47 1450.39 1892.28 1450.39 Z" fill="#000000" fill-rule="nonzero" fill-opacity="1" /><path clip-path="url(#clip590)" d="M1922.44 1454.1 Q1918.83 1454.1 1917 1457.66 Q1915.2 1461.2 1915.2 1468.33 Q1915.2 1475.44 1917 1479.01 Q1918.83 1482.55 1922.44 1482.55 Q1926.08 1482.55 1927.88 1479.01 Q1929.71 1475.44 1929.71 1468.33 Q1929.71 1461.2 1927.88 1457.66 Q1926.08 1454.1 1922.44 1454.1 M1922.44 1450.39 Q1928.25 1450.39 1931.31 1455 Q1934.39 1459.58 1934.39 1468.33 Q1934.39 1477.06 1931.31 1481.67 Q1928.25 1486.25 1922.44 1486.25 Q1916.63 1486.25 1913.55 1481.67 Q1910.5 1477.06 1910.5 1468.33 Q1910.5 1459.58 1913.55 1455 Q1916.63 1450.39 1922.44 1450.39 Z" fill="#000000" fill-rule="nonzero" fill-opacity="1" /><path clip-path="url(#clip590)" d="M2252.36 1451.02 L2270.72 1451.02 L2270.72 1454.96 L2256.65 1454.96 L2256.65 1463.43 Q2257.66 1463.08 2258.68 1462.92 Q2259.7 1462.73 2260.72 1462.73 Q2266.51 1462.73 2269.89 1465.9 Q2273.27 1469.08 2273.27 1474.49 Q2273.27 1480.07 2269.79 1483.17 Q2266.32 1486.25 2260 1486.25 Q2257.83 1486.25 2255.56 1485.88 Q2253.31 1485.51 2250.91 1484.77 L2250.91 1480.07 Q2252.99 1481.2 2255.21 1481.76 Q2257.43 1482.32 2259.91 1482.32 Q2263.91 1482.32 2266.25 1480.21 Q2268.59 1478.1 2268.59 1474.49 Q2268.59 1470.88 2266.25 1468.77 Q2263.91 1466.67 2259.91 1466.67 Q2258.04 1466.67 2256.16 1467.08 Q2254.31 1467.5 2252.36 1468.38 L2252.36 1451.02 Z" fill="#000000" fill-rule="nonzero" fill-opacity="1" /><path clip-path="url(#clip590)" d="M2292.48 1454.1 Q2288.87 1454.1 2287.04 1457.66 Q2285.23 1461.2 2285.23 1468.33 Q2285.23 1475.44 2287.04 1479.01 Q2288.87 1482.55 2292.48 1482.55 Q2296.11 1482.55 2297.92 1479.01 Q2299.75 1475.44 2299.75 1468.33 Q2299.75 1461.2 2297.92 1457.66 Q2296.11 1454.1 2292.48 1454.1 M2292.48 1450.39 Q2298.29 1450.39 2301.35 1455 Q2304.42 1459.58 2304.42 1468.33 Q2304.42 1477.06 2301.35 1481.67 Q2298.29 1486.25 2292.48 1486.25 Q2286.67 1486.25 2283.59 1481.67 Q2280.53 1477.06 2280.53 1468.33 Q2280.53 1459.58 2283.59 1455 Q2286.67 1450.39 2292.48 1450.39 Z" fill="#000000" fill-rule="nonzero" fill-opacity="1" /><path clip-path="url(#clip590)" d="M2322.64 1454.1 Q2319.03 1454.1 2317.2 1457.66 Q2315.4 1461.2 2315.4 1468.33 Q2315.4 1475.44 2317.2 1479.01 Q2319.03 1482.55 2322.64 1482.55 Q2326.28 1482.55 2328.08 1479.01 Q2329.91 1475.44 2329.91 1468.33 Q2329.91 1461.2 2328.08 1457.66 Q2326.28 1454.1 2322.64 1454.1 M2322.64 1450.39 Q2328.45 1450.39 2331.51 1455 Q2334.59 1459.58 2334.59 1468.33 Q2334.59 1477.06 2331.51 1481.67 Q2328.45 1486.25 2322.64 1486.25 Q2316.83 1486.25 2313.75 1481.67 Q2310.7 1477.06 2310.7 1468.33 Q2310.7 1459.58 2313.75 1455 Q2316.83 1450.39 2322.64 1450.39 Z" fill="#000000" fill-rule="nonzero" fill-opacity="1" /><path clip-path="url(#clip590)" d="M1252.88 1522.08 L1252.88 1528.35 Q1249.22 1526.6 1245.98 1525.74 Q1242.73 1524.88 1239.71 1524.88 Q1234.45 1524.88 1231.59 1526.92 Q1228.76 1528.96 1228.76 1532.71 Q1228.76 1535.87 1230.63 1537.49 Q1232.54 1539.08 1237.83 1540.07 L1241.71 1540.86 Q1248.9 1542.23 1252.31 1545.7 Q1255.75 1549.14 1255.75 1554.93 Q1255.75 1561.84 1251.1 1565.4 Q1246.48 1568.97 1237.54 1568.97 Q1234.17 1568.97 1230.35 1568.2 Q1226.56 1567.44 1222.49 1565.94 L1222.49 1559.32 Q1226.4 1561.52 1230.16 1562.63 Q1233.91 1563.75 1237.54 1563.75 Q1243.05 1563.75 1246.04 1561.58 Q1249.03 1559.42 1249.03 1555.41 Q1249.03 1551.91 1246.87 1549.93 Q1244.73 1547.96 1239.83 1546.97 L1235.92 1546.21 Q1228.72 1544.78 1225.51 1541.72 Q1222.3 1538.67 1222.3 1533.22 Q1222.3 1526.92 1226.72 1523.29 Q1231.18 1519.66 1238.97 1519.66 Q1242.32 1519.66 1245.78 1520.27 Q1249.25 1520.87 1252.88 1522.08 Z" fill="#000000" fill-rule="nonzero" fill-opacity="1" /><path clip-path="url(#clip590)" d="M1271.31 1522.27 L1271.31 1532.4 L1283.37 1532.4 L1283.37 1536.95 L1271.31 1536.95 L1271.31 1556.3 Q1271.31 1560.66 1272.49 1561.9 Q1273.7 1563.14 1277.36 1563.14 L1283.37 1563.14 L1283.37 1568.04 L1277.36 1568.04 Q1270.58 1568.04 1268 1565.53 Q1265.42 1562.98 1265.42 1556.3 L1265.42 1536.95 L1261.13 1536.95 L1261.13 1532.4 L1265.42 1532.4 L1265.42 1522.27 L1271.31 1522.27 Z" fill="#000000" fill-rule="nonzero" fill-opacity="1" /><path clip-path="url(#clip590)" d="M1321.57 1548.76 L1321.57 1551.62 L1294.64 1551.62 Q1295.02 1557.67 1298.27 1560.85 Q1301.55 1564 1307.37 1564 Q1310.75 1564 1313.9 1563.17 Q1317.08 1562.35 1320.2 1560.69 L1320.2 1566.23 Q1317.05 1567.57 1313.74 1568.27 Q1310.43 1568.97 1307.02 1568.97 Q1298.49 1568.97 1293.5 1564 Q1288.53 1559.04 1288.53 1550.57 Q1288.53 1541.82 1293.24 1536.69 Q1297.98 1531.54 1306 1531.54 Q1313.2 1531.54 1317.37 1536.18 Q1321.57 1540.8 1321.57 1548.76 M1315.71 1547.04 Q1315.65 1542.23 1313.01 1539.37 Q1310.4 1536.5 1306.07 1536.5 Q1301.17 1536.5 1298.21 1539.27 Q1295.28 1542.04 1294.83 1547.07 L1315.71 1547.04 Z" fill="#000000" fill-rule="nonzero" fill-opacity="1" /><path clip-path="url(#clip590)" d="M1336.85 1562.7 L1336.85 1581.6 L1330.96 1581.6 L1330.96 1532.4 L1336.85 1532.4 L1336.85 1537.81 Q1338.69 1534.62 1341.49 1533.1 Q1344.33 1531.54 1348.24 1531.54 Q1354.73 1531.54 1358.78 1536.69 Q1362.85 1541.85 1362.85 1550.25 Q1362.85 1558.65 1358.78 1563.81 Q1354.73 1568.97 1348.24 1568.97 Q1344.33 1568.97 1341.49 1567.44 Q1338.69 1565.88 1336.85 1562.7 M1356.77 1550.25 Q1356.77 1543.79 1354.1 1540.13 Q1351.46 1536.44 1346.81 1536.44 Q1342.16 1536.44 1339.49 1540.13 Q1336.85 1543.79 1336.85 1550.25 Q1336.85 1556.71 1339.49 1560.4 Q1342.16 1564.07 1346.81 1564.07 Q1351.46 1564.07 1354.1 1560.4 Q1356.77 1556.71 1356.77 1550.25 Z" fill="#000000" fill-rule="nonzero" fill-opacity="1" /><polyline clip-path="url(#clip590)" style="stroke:#000000; stroke-linecap:round; stroke-linejoin:round; stroke-width:4; stroke-opacity:1; fill:none" points="232.389,1423.18 232.389,123.472 "/>
<polyline clip-path="url(#clip590)" style="stroke:#000000; stroke-linecap:round; stroke-linejoin:round; stroke-width:4; stroke-opacity:1; fill:none" points="232.389,1262.4 251.287,1262.4 "/>
<polyline clip-path="url(#clip590)" style="stroke:#000000; stroke-linecap:round; stroke-linejoin:round; stroke-width:4; stroke-opacity:1; fill:none" points="232.389,986.867 251.287,986.867 "/>
<polyline clip-path="url(#clip590)" style="stroke:#000000; stroke-linecap:round; stroke-linejoin:round; stroke-width:4; stroke-opacity:1; fill:none" points="232.389,711.33 251.287,711.33 "/>
<polyline clip-path="url(#clip590)" style="stroke:#000000; stroke-linecap:round; stroke-linejoin:round; stroke-width:4; stroke-opacity:1; fill:none" points="232.389,435.793 251.287,435.793 "/>
<polyline clip-path="url(#clip590)" style="stroke:#000000; stroke-linecap:round; stroke-linejoin:round; stroke-width:4; stroke-opacity:1; fill:none" points="232.389,160.256 251.287,160.256 "/>
<path clip-path="url(#clip590)" d="M148.311 1275.75 L164.63 1275.75 L164.63 1279.68 L142.686 1279.68 L142.686 1275.75 Q145.348 1272.99 149.931 1268.36 Q154.538 1263.71 155.718 1262.37 Q157.964 1259.85 158.843 1258.11 Q159.746 1256.35 159.746 1254.66 Q159.746 1251.91 157.802 1250.17 Q155.88 1248.43 152.778 1248.43 Q150.579 1248.43 148.126 1249.2 Q145.695 1249.96 142.917 1251.51 L142.917 1246.79 Q145.741 1245.66 148.195 1245.08 Q150.649 1244.5 152.686 1244.5 Q158.056 1244.5 161.251 1247.18 Q164.445 1249.87 164.445 1254.36 Q164.445 1256.49 163.635 1258.41 Q162.848 1260.31 160.741 1262.9 Q160.163 1263.57 157.061 1266.79 Q153.959 1269.99 148.311 1275.75 Z" fill="#000000" fill-rule="nonzero" fill-opacity="1" /><path clip-path="url(#clip590)" d="M184.445 1248.2 Q180.834 1248.2 179.005 1251.77 Q177.2 1255.31 177.2 1262.44 Q177.2 1269.55 179.005 1273.11 Q180.834 1276.65 184.445 1276.65 Q188.079 1276.65 189.885 1273.11 Q191.713 1269.55 191.713 1262.44 Q191.713 1255.31 189.885 1251.77 Q188.079 1248.2 184.445 1248.2 M184.445 1244.5 Q190.255 1244.5 193.311 1249.11 Q196.389 1253.69 196.389 1262.44 Q196.389 1271.17 193.311 1275.77 Q190.255 1280.36 184.445 1280.36 Q178.635 1280.36 175.556 1275.77 Q172.501 1271.17 172.501 1262.44 Q172.501 1253.69 175.556 1249.11 Q178.635 1244.5 184.445 1244.5 Z" fill="#000000" fill-rule="nonzero" fill-opacity="1" /><path clip-path="url(#clip590)" d="M157.13 973.661 L145.325 992.11 L157.13 992.11 L157.13 973.661 M155.903 969.587 L161.783 969.587 L161.783 992.11 L166.714 992.11 L166.714 995.999 L161.783 995.999 L161.783 1004.15 L157.13 1004.15 L157.13 995.999 L141.529 995.999 L141.529 991.485 L155.903 969.587 Z" fill="#000000" fill-rule="nonzero" fill-opacity="1" /><path clip-path="url(#clip590)" d="M184.445 972.666 Q180.834 972.666 179.005 976.231 Q177.2 979.772 177.2 986.902 Q177.2 994.008 179.005 997.573 Q180.834 1001.11 184.445 1001.11 Q188.079 1001.11 189.885 997.573 Q191.713 994.008 191.713 986.902 Q191.713 979.772 189.885 976.231 Q188.079 972.666 184.445 972.666 M184.445 968.962 Q190.255 968.962 193.311 973.569 Q196.389 978.152 196.389 986.902 Q196.389 995.629 193.311 1000.24 Q190.255 1004.82 184.445 1004.82 Q178.635 1004.82 175.556 1000.24 Q172.501 995.629 172.501 986.902 Q172.501 978.152 175.556 973.569 Q178.635 968.962 184.445 968.962 Z" fill="#000000" fill-rule="nonzero" fill-opacity="1" /><path clip-path="url(#clip590)" d="M154.862 709.467 Q151.714 709.467 149.862 711.62 Q148.033 713.772 148.033 717.522 Q148.033 721.249 149.862 723.425 Q151.714 725.578 154.862 725.578 Q158.01 725.578 159.839 723.425 Q161.69 721.249 161.69 717.522 Q161.69 713.772 159.839 711.62 Q158.01 709.467 154.862 709.467 M164.144 694.814 L164.144 699.073 Q162.385 698.24 160.579 697.8 Q158.797 697.36 157.038 697.36 Q152.408 697.36 149.954 700.485 Q147.524 703.61 147.177 709.93 Q148.542 707.916 150.603 706.851 Q152.663 705.763 155.14 705.763 Q160.348 705.763 163.357 708.934 Q166.39 712.082 166.39 717.522 Q166.39 722.846 163.241 726.064 Q160.093 729.281 154.862 729.281 Q148.866 729.281 145.695 724.698 Q142.524 720.092 142.524 711.365 Q142.524 703.17 146.413 698.309 Q150.302 693.425 156.853 693.425 Q158.612 693.425 160.394 693.772 Q162.2 694.12 164.144 694.814 Z" fill="#000000" fill-rule="nonzero" fill-opacity="1" /><path clip-path="url(#clip590)" d="M184.445 697.129 Q180.834 697.129 179.005 700.694 Q177.2 704.235 177.2 711.365 Q177.2 718.471 179.005 722.036 Q180.834 725.578 184.445 725.578 Q188.079 725.578 189.885 722.036 Q191.713 718.471 191.713 711.365 Q191.713 704.235 189.885 700.694 Q188.079 697.129 184.445 697.129 M184.445 693.425 Q190.255 693.425 193.311 698.032 Q196.389 702.615 196.389 711.365 Q196.389 720.092 193.311 724.698 Q190.255 729.281 184.445 729.281 Q178.635 729.281 175.556 724.698 Q172.501 720.092 172.501 711.365 Q172.501 702.615 175.556 698.032 Q178.635 693.425 184.445 693.425 Z" fill="#000000" fill-rule="nonzero" fill-opacity="1" /><path clip-path="url(#clip590)" d="M154.283 436.661 Q150.95 436.661 149.028 438.444 Q147.13 440.226 147.13 443.351 Q147.13 446.476 149.028 448.258 Q150.95 450.041 154.283 450.041 Q157.616 450.041 159.538 448.258 Q161.459 446.453 161.459 443.351 Q161.459 440.226 159.538 438.444 Q157.64 436.661 154.283 436.661 M149.607 434.671 Q146.598 433.93 144.908 431.87 Q143.241 429.809 143.241 426.847 Q143.241 422.703 146.181 420.296 Q149.144 417.888 154.283 417.888 Q159.445 417.888 162.385 420.296 Q165.325 422.703 165.325 426.847 Q165.325 429.809 163.635 431.87 Q161.968 433.93 158.982 434.671 Q162.362 435.458 164.237 437.749 Q166.135 440.041 166.135 443.351 Q166.135 448.374 163.056 451.059 Q160.001 453.745 154.283 453.745 Q148.566 453.745 145.487 451.059 Q142.431 448.374 142.431 443.351 Q142.431 440.041 144.329 437.749 Q146.228 435.458 149.607 434.671 M147.894 427.286 Q147.894 429.972 149.561 431.476 Q151.251 432.981 154.283 432.981 Q157.292 432.981 158.982 431.476 Q160.695 429.972 160.695 427.286 Q160.695 424.601 158.982 423.097 Q157.292 421.592 154.283 421.592 Q151.251 421.592 149.561 423.097 Q147.894 424.601 147.894 427.286 Z" fill="#000000" fill-rule="nonzero" fill-opacity="1" /><path clip-path="url(#clip590)" d="M184.445 421.592 Q180.834 421.592 179.005 425.157 Q177.2 428.698 177.2 435.828 Q177.2 442.934 179.005 446.499 Q180.834 450.041 184.445 450.041 Q188.079 450.041 189.885 446.499 Q191.713 442.934 191.713 435.828 Q191.713 428.698 189.885 425.157 Q188.079 421.592 184.445 421.592 M184.445 417.888 Q190.255 417.888 193.311 422.495 Q196.389 427.078 196.389 435.828 Q196.389 444.555 193.311 449.161 Q190.255 453.745 184.445 453.745 Q178.635 453.745 175.556 449.161 Q172.501 444.555 172.501 435.828 Q172.501 427.078 175.556 422.495 Q178.635 417.888 184.445 417.888 Z" fill="#000000" fill-rule="nonzero" fill-opacity="1" /><path clip-path="url(#clip590)" d="M114.931 173.601 L122.57 173.601 L122.57 147.236 L114.26 148.902 L114.26 144.643 L122.524 142.976 L127.2 142.976 L127.2 173.601 L134.839 173.601 L134.839 177.536 L114.931 177.536 L114.931 173.601 Z" fill="#000000" fill-rule="nonzero" fill-opacity="1" /><path clip-path="url(#clip590)" d="M154.283 146.055 Q150.672 146.055 148.843 149.62 Q147.038 153.161 147.038 160.291 Q147.038 167.397 148.843 170.962 Q150.672 174.504 154.283 174.504 Q157.917 174.504 159.723 170.962 Q161.552 167.397 161.552 160.291 Q161.552 153.161 159.723 149.62 Q157.917 146.055 154.283 146.055 M154.283 142.351 Q160.093 142.351 163.149 146.958 Q166.227 151.541 166.227 160.291 Q166.227 169.018 163.149 173.624 Q160.093 178.208 154.283 178.208 Q148.473 178.208 145.394 173.624 Q142.339 169.018 142.339 160.291 Q142.339 151.541 145.394 146.958 Q148.473 142.351 154.283 142.351 Z" fill="#000000" fill-rule="nonzero" fill-opacity="1" /><path clip-path="url(#clip590)" d="M184.445 146.055 Q180.834 146.055 179.005 149.62 Q177.2 153.161 177.2 160.291 Q177.2 167.397 179.005 170.962 Q180.834 174.504 184.445 174.504 Q188.079 174.504 189.885 170.962 Q191.713 167.397 191.713 160.291 Q191.713 153.161 189.885 149.62 Q188.079 146.055 184.445 146.055 M184.445 142.351 Q190.255 142.351 193.311 146.958 Q196.389 151.541 196.389 160.291 Q196.389 169.018 193.311 173.624 Q190.255 178.208 184.445 178.208 Q178.635 178.208 175.556 173.624 Q172.501 169.018 172.501 160.291 Q172.501 151.541 175.556 146.958 Q178.635 142.351 184.445 142.351 Z" fill="#000000" fill-rule="nonzero" fill-opacity="1" /><path clip-path="url(#clip590)" d="M16.4842 1039.08 L16.4842 1029.5 L48.8219 1017.37 L16.4842 1005.18 L16.4842 995.601 L64.0042 995.601 L64.0042 1001.87 L22.277 1001.87 L54.8694 1014.12 L54.8694 1020.59 L22.277 1032.84 L64.0042 1032.84 L64.0042 1039.08 L16.4842 1039.08 Z" fill="#000000" fill-rule="nonzero" fill-opacity="1" /><path clip-path="url(#clip590)" d="M46.0847 966.891 Q46.0847 973.989 47.7079 976.726 Q49.3312 979.463 53.2461 979.463 Q56.3653 979.463 58.2114 977.426 Q60.0256 975.358 60.0256 971.825 Q60.0256 966.955 56.5881 964.027 Q53.1188 961.067 47.3897 961.067 L46.0847 961.067 L46.0847 966.891 M43.6657 955.21 L64.0042 955.21 L64.0042 961.067 L58.5933 961.067 Q61.8398 963.072 63.3994 966.064 Q64.9272 969.056 64.9272 973.384 Q64.9272 978.859 61.8716 982.105 Q58.7843 985.32 53.6281 985.32 Q47.6125 985.32 44.5569 981.31 Q41.5014 977.267 41.5014 969.278 L41.5014 961.067 L40.9285 961.067 Q36.8862 961.067 34.6901 963.74 Q32.4621 966.382 32.4621 971.188 Q32.4621 974.244 33.1941 977.14 Q33.9262 980.036 35.3903 982.71 L29.9795 982.71 Q28.7381 979.495 28.1334 976.472 Q27.4968 973.448 27.4968 970.583 Q27.4968 962.849 31.5072 959.03 Q35.5176 955.21 43.6657 955.21 Z" fill="#000000" fill-rule="nonzero" fill-opacity="1" /><path clip-path="url(#clip590)" d="M28.3562 913.515 L45.7028 926.405 L64.0042 912.846 L64.0042 919.753 L49.9996 930.129 L64.0042 940.505 L64.0042 947.412 L45.3526 933.567 L28.3562 946.234 L28.3562 939.328 L41.0558 929.875 L28.3562 920.422 L28.3562 913.515 Z" fill="#000000" fill-rule="nonzero" fill-opacity="1" /><path clip-path="url(#clip590)" d="M20.1444 848.012 L26.9239 848.012 Q23.9002 851.258 22.4043 854.95 Q20.9083 858.611 20.9083 862.748 Q20.9083 870.896 25.9054 875.225 Q30.8707 879.554 40.2919 879.554 Q49.6813 879.554 54.6784 875.225 Q59.6436 870.896 59.6436 862.748 Q59.6436 858.611 58.1477 854.95 Q56.6518 851.258 53.6281 848.012 L60.3439 848.012 Q62.6355 851.385 63.7814 855.173 Q64.9272 858.929 64.9272 863.13 Q64.9272 873.92 58.3387 880.127 Q51.7183 886.333 40.2919 886.333 Q28.8336 886.333 22.2451 880.127 Q15.6248 873.92 15.6248 863.13 Q15.6248 858.865 16.7706 855.109 Q17.8846 851.322 20.1444 848.012 Z" fill="#000000" fill-rule="nonzero" fill-opacity="1" /><path clip-path="url(#clip590)" d="M14.479 838.336 L14.479 832.479 L64.0042 832.479 L64.0042 838.336 L14.479 838.336 Z" fill="#000000" fill-rule="nonzero" fill-opacity="1" /><path clip-path="url(#clip590)" d="M49.9359 820.83 L28.3562 820.83 L28.3562 814.974 L49.7131 814.974 Q54.7739 814.974 57.3202 813 Q59.8346 811.027 59.8346 807.08 Q59.8346 802.338 56.8109 799.6 Q53.7872 796.831 48.5673 796.831 L28.3562 796.831 L28.3562 790.975 L64.0042 790.975 L64.0042 796.831 L58.5296 796.831 Q61.7762 798.964 63.3676 801.797 Q64.9272 804.598 64.9272 808.321 Q64.9272 814.464 61.1078 817.647 Q57.2883 820.83 49.9359 820.83 M27.4968 806.093 L27.4968 806.093 Z" fill="#000000" fill-rule="nonzero" fill-opacity="1" /><path clip-path="url(#clip590)" d="M29.4065 756.186 L34.9447 756.186 Q33.6716 758.669 33.035 761.343 Q32.3984 764.016 32.3984 766.881 Q32.3984 771.241 33.7352 773.437 Q35.072 775.602 37.7456 775.602 Q39.7826 775.602 40.9603 774.042 Q42.1061 772.483 43.1565 767.772 L43.6021 765.767 Q44.9389 759.528 47.3897 756.918 Q49.8086 754.277 54.1691 754.277 Q59.1344 754.277 62.0308 758.223 Q64.9272 762.138 64.9272 769.013 Q64.9272 771.878 64.3543 774.997 Q63.8132 778.084 62.6992 781.522 L56.6518 781.522 Q58.3387 778.275 59.198 775.124 Q60.0256 771.973 60.0256 768.886 Q60.0256 764.748 58.6251 762.52 Q57.1929 760.292 54.6147 760.292 Q52.2276 760.292 50.9545 761.915 Q49.6813 763.507 48.5037 768.95 L48.0262 770.987 Q46.8804 776.429 44.5251 778.848 Q42.138 781.267 38.0002 781.267 Q32.9713 781.267 30.2341 777.702 Q27.4968 774.138 27.4968 767.581 Q27.4968 764.334 27.9743 761.47 Q28.4517 758.605 29.4065 756.186 Z" fill="#000000" fill-rule="nonzero" fill-opacity="1" /><path clip-path="url(#clip590)" d="M18.2347 739.158 L28.3562 739.158 L28.3562 727.095 L32.9077 727.095 L32.9077 739.158 L52.2594 739.158 Q56.6199 739.158 57.8613 737.98 Q59.1026 736.771 59.1026 733.111 L59.1026 727.095 L64.0042 727.095 L64.0042 733.111 Q64.0042 739.89 61.4897 742.468 Q58.9434 745.046 52.2594 745.046 L32.9077 745.046 L32.9077 749.343 L28.3562 749.343 L28.3562 745.046 L18.2347 745.046 L18.2347 739.158 Z" fill="#000000" fill-rule="nonzero" fill-opacity="1" /><path clip-path="url(#clip590)" d="M44.7161 688.901 L47.5806 688.901 L47.5806 715.828 Q53.6281 715.446 56.8109 712.199 Q59.9619 708.921 59.9619 703.096 Q59.9619 699.723 59.1344 696.571 Q58.3069 693.389 56.6518 690.269 L62.1899 690.269 Q63.5267 693.42 64.227 696.731 Q64.9272 700.041 64.9272 703.446 Q64.9272 711.976 59.9619 716.974 Q54.9967 721.939 46.5303 721.939 Q37.7774 721.939 32.6531 717.228 Q27.4968 712.486 27.4968 704.465 Q27.4968 697.272 32.1438 693.102 Q36.7589 688.901 44.7161 688.901 M42.9973 694.757 Q38.1912 694.821 35.3266 697.463 Q32.4621 700.073 32.4621 704.401 Q32.4621 709.303 35.2312 712.263 Q38.0002 715.191 43.0292 715.637 L42.9973 694.757 Z" fill="#000000" fill-rule="nonzero" fill-opacity="1" /><path clip-path="url(#clip590)" d="M33.8307 658.632 Q33.2578 659.619 33.0032 660.796 Q32.7167 661.942 32.7167 663.342 Q32.7167 668.308 35.9632 670.981 Q39.1779 673.623 45.2253 673.623 L64.0042 673.623 L64.0042 679.511 L28.3562 679.511 L28.3562 673.623 L33.8944 673.623 Q30.6479 671.777 29.0883 668.817 Q27.4968 665.857 27.4968 661.624 Q27.4968 661.019 27.5923 660.287 Q27.656 659.555 27.8151 658.664 L33.8307 658.632 Z" fill="#000000" fill-rule="nonzero" fill-opacity="1" /><path clip-path="url(#clip590)" d="M18.0438 603.027 L24.314 603.027 Q22.5634 606.688 21.704 609.934 Q20.8447 613.181 20.8447 616.204 Q20.8447 621.456 22.8817 624.321 Q24.9187 627.153 28.6745 627.153 Q31.8255 627.153 33.4488 625.276 Q35.0402 623.366 36.0269 618.082 L36.8226 614.199 Q38.1912 607.006 41.6605 603.6 Q45.098 600.163 50.8908 600.163 Q57.7976 600.163 61.3624 604.81 Q64.9272 609.425 64.9272 618.369 Q64.9272 621.743 64.1633 625.562 Q63.3994 629.35 61.9035 633.424 L55.2831 633.424 Q57.4793 629.509 58.5933 625.753 Q59.7073 621.997 59.7073 618.369 Q59.7073 612.862 57.543 609.871 Q55.3786 606.879 51.3682 606.879 Q47.8671 606.879 45.8937 609.043 Q43.9204 611.176 42.9337 616.077 L42.1698 619.992 Q40.7375 627.185 37.682 630.4 Q34.6264 633.615 29.1837 633.615 Q22.8817 633.615 19.2532 629.19 Q15.6248 624.734 15.6248 616.936 Q15.6248 613.594 16.2295 610.125 Q16.8343 606.656 18.0438 603.027 Z" fill="#000000" fill-rule="nonzero" fill-opacity="1" /><path clip-path="url(#clip590)" d="M28.3562 590.391 L28.3562 584.535 L64.0042 584.535 L64.0042 590.391 L28.3562 590.391 M14.479 590.391 L14.479 584.535 L21.895 584.535 L21.895 590.391 L14.479 590.391 Z" fill="#000000" fill-rule="nonzero" fill-opacity="1" /><path clip-path="url(#clip590)" d="M28.3562 574.827 L28.3562 547.009 L33.7034 547.009 L59.3254 569.035 L59.3254 547.009 L64.0042 547.009 L64.0042 575.623 L58.657 575.623 L33.035 553.598 L33.035 574.827 L28.3562 574.827 Z" fill="#000000" fill-rule="nonzero" fill-opacity="1" /><path clip-path="url(#clip590)" d="M44.7161 507.574 L47.5806 507.574 L47.5806 534.501 Q53.6281 534.119 56.8109 530.872 Q59.9619 527.594 59.9619 521.769 Q59.9619 518.395 59.1344 515.244 Q58.3069 512.061 56.6518 508.942 L62.1899 508.942 Q63.5267 512.093 64.227 515.403 Q64.9272 518.714 64.9272 522.119 Q64.9272 530.649 59.9619 535.646 Q54.9967 540.612 46.5303 540.612 Q37.7774 540.612 32.6531 535.901 Q27.4968 531.159 27.4968 523.138 Q27.4968 515.945 32.1438 511.775 Q36.7589 507.574 44.7161 507.574 M42.9973 513.43 Q38.1912 513.494 35.3266 516.136 Q32.4621 518.745 32.4621 523.074 Q32.4621 527.976 35.2312 530.936 Q38.0002 533.864 43.0292 534.31 L42.9973 513.43 Z" fill="#000000" fill-rule="nonzero" fill-opacity="1" /><path clip-path="url(#clip590)" d="M575.482 12.096 L587.675 12.096 L603.109 53.2532 L618.624 12.096 L630.817 12.096 L630.817 72.576 L622.837 72.576 L622.837 19.4686 L607.241 60.9499 L599.017 60.9499 L583.421 19.4686 L583.421 72.576 L575.482 72.576 L575.482 12.096 Z" fill="#000000" fill-rule="nonzero" fill-opacity="1" /><path clip-path="url(#clip590)" d="M667.356 49.7694 Q658.323 49.7694 654.839 51.8354 Q651.355 53.9013 651.355 58.8839 Q651.355 62.8538 653.948 65.2034 Q656.581 67.5124 661.077 67.5124 Q667.275 67.5124 671.002 63.1374 Q674.769 58.7219 674.769 51.4303 L674.769 49.7694 L667.356 49.7694 M682.223 46.6907 L682.223 72.576 L674.769 72.576 L674.769 65.6895 Q672.217 69.8214 668.409 71.8063 Q664.601 73.7508 659.092 73.7508 Q652.125 73.7508 647.993 69.8619 Q643.901 65.9325 643.901 59.3701 Q643.901 51.7138 649.005 47.825 Q654.15 43.9361 664.318 43.9361 L674.769 43.9361 L674.769 43.2069 Q674.769 38.0623 671.366 35.2672 Q668.004 32.4315 661.887 32.4315 Q657.998 32.4315 654.312 33.3632 Q650.626 34.295 647.223 36.1584 L647.223 29.2718 Q651.314 27.692 655.163 26.9223 Q659.011 26.1121 662.657 26.1121 Q672.501 26.1121 677.362 31.2163 Q682.223 36.3204 682.223 46.6907 Z" fill="#000000" fill-rule="nonzero" fill-opacity="1" /><path clip-path="url(#clip590)" d="M735.29 27.2059 L718.884 49.2833 L736.14 72.576 L727.35 72.576 L714.144 54.752 L700.938 72.576 L692.148 72.576 L709.769 48.8377 L693.646 27.2059 L702.437 27.2059 L714.468 43.369 L726.499 27.2059 L735.29 27.2059 Z" fill="#000000" fill-rule="nonzero" fill-opacity="1" /><path clip-path="url(#clip590)" d="M746.673 27.2059 L754.126 27.2059 L754.126 72.576 L746.673 72.576 L746.673 27.2059 M746.673 9.54393 L754.126 9.54393 L754.126 18.9825 L746.673 18.9825 L746.673 9.54393 Z" fill="#000000" fill-rule="nonzero" fill-opacity="1" /><path clip-path="url(#clip590)" d="M805.046 35.9153 Q807.841 30.8922 811.73 28.5022 Q815.619 26.1121 820.885 26.1121 Q827.974 26.1121 831.823 31.0947 Q835.671 36.0368 835.671 45.1919 L835.671 72.576 L828.177 72.576 L828.177 45.4349 Q828.177 38.913 825.868 35.7533 Q823.559 32.5936 818.819 32.5936 Q813.027 32.5936 809.664 36.4419 Q806.302 40.2903 806.302 46.9338 L806.302 72.576 L798.808 72.576 L798.808 45.4349 Q798.808 38.8725 796.499 35.7533 Q794.19 32.5936 789.369 32.5936 Q783.658 32.5936 780.295 36.4824 Q776.933 40.3308 776.933 46.9338 L776.933 72.576 L769.439 72.576 L769.439 27.2059 L776.933 27.2059 L776.933 34.2544 Q779.485 30.082 783.05 28.0971 Q786.615 26.1121 791.516 26.1121 Q796.458 26.1121 799.902 28.6237 Q803.385 31.1352 805.046 35.9153 Z" fill="#000000" fill-rule="nonzero" fill-opacity="1" /><path clip-path="url(#clip590)" d="M849.768 54.671 L849.768 27.2059 L857.222 27.2059 L857.222 54.3874 Q857.222 60.8284 859.734 64.0691 Q862.245 67.2693 867.268 67.2693 Q873.304 67.2693 876.788 63.421 Q880.312 59.5726 880.312 52.9291 L880.312 27.2059 L887.766 27.2059 L887.766 72.576 L880.312 72.576 L880.312 65.6084 Q877.598 69.7404 873.993 71.7658 Q870.428 73.7508 865.688 73.7508 Q857.87 73.7508 853.819 68.8897 Q849.768 64.0286 849.768 54.671 M868.524 26.1121 L868.524 26.1121 Z" fill="#000000" fill-rule="nonzero" fill-opacity="1" /><path clip-path="url(#clip590)" d="M938.443 35.9153 Q941.238 30.8922 945.127 28.5022 Q949.015 26.1121 954.282 26.1121 Q961.371 26.1121 965.219 31.0947 Q969.067 36.0368 969.067 45.1919 L969.067 72.576 L961.573 72.576 L961.573 45.4349 Q961.573 38.913 959.264 35.7533 Q956.955 32.5936 952.216 32.5936 Q946.423 32.5936 943.061 36.4419 Q939.698 40.2903 939.698 46.9338 L939.698 72.576 L932.204 72.576 L932.204 45.4349 Q932.204 38.8725 929.895 35.7533 Q927.586 32.5936 922.766 32.5936 Q917.054 32.5936 913.692 36.4824 Q910.329 40.3308 910.329 46.9338 L910.329 72.576 L902.835 72.576 L902.835 27.2059 L910.329 27.2059 L910.329 34.2544 Q912.881 30.082 916.446 28.0971 Q920.011 26.1121 924.913 26.1121 Q929.855 26.1121 933.298 28.6237 Q936.782 31.1352 938.443 35.9153 Z" fill="#000000" fill-rule="nonzero" fill-opacity="1" /><path clip-path="url(#clip590)" d="M1055.92 16.7545 L1055.92 25.383 Q1051.79 21.5346 1047.09 19.6307 Q1042.43 17.7268 1037.16 17.7268 Q1026.79 17.7268 1021.28 24.0867 Q1015.77 30.4061 1015.77 42.3968 Q1015.77 54.3469 1021.28 60.7069 Q1026.79 67.0263 1037.16 67.0263 Q1042.43 67.0263 1047.09 65.1223 Q1051.79 63.2184 1055.92 59.3701 L1055.92 67.9175 Q1051.62 70.8341 1046.8 72.2924 Q1042.02 73.7508 1036.68 73.7508 Q1022.94 73.7508 1015.05 65.3654 Q1007.15 56.9395 1007.15 42.3968 Q1007.15 27.8135 1015.05 19.4281 Q1022.94 11.0023 1036.68 11.0023 Q1042.11 11.0023 1046.89 12.4606 Q1051.71 13.8784 1055.92 16.7545 Z" fill="#000000" fill-rule="nonzero" fill-opacity="1" /><path clip-path="url(#clip590)" d="M1068.23 9.54393 L1075.69 9.54393 L1075.69 72.576 L1068.23 72.576 L1068.23 9.54393 Z" fill="#000000" fill-rule="nonzero" fill-opacity="1" /><path clip-path="url(#clip590)" d="M1090.51 54.671 L1090.51 27.2059 L1097.97 27.2059 L1097.97 54.3874 Q1097.97 60.8284 1100.48 64.0691 Q1102.99 67.2693 1108.01 67.2693 Q1114.05 67.2693 1117.53 63.421 Q1121.06 59.5726 1121.06 52.9291 L1121.06 27.2059 L1128.51 27.2059 L1128.51 72.576 L1121.06 72.576 L1121.06 65.6084 Q1118.34 69.7404 1114.74 71.7658 Q1111.17 73.7508 1106.43 73.7508 Q1098.62 73.7508 1094.56 68.8897 Q1090.51 64.0286 1090.51 54.671 M1109.27 26.1121 L1109.27 26.1121 Z" fill="#000000" fill-rule="nonzero" fill-opacity="1" /><path clip-path="url(#clip590)" d="M1172.79 28.5427 L1172.79 35.5912 Q1169.63 33.9709 1166.22 33.1607 Q1162.82 32.3505 1159.18 32.3505 Q1153.63 32.3505 1150.83 34.0519 Q1148.08 35.7533 1148.08 39.156 Q1148.08 41.7486 1150.06 43.2475 Q1152.05 44.7058 1158.04 46.0426 L1160.59 46.6097 Q1168.53 48.3111 1171.86 51.4303 Q1175.22 54.509 1175.22 60.0587 Q1175.22 66.3781 1170.19 70.0644 Q1165.21 73.7508 1156.46 73.7508 Q1152.82 73.7508 1148.85 73.0216 Q1144.92 72.3329 1140.54 70.9151 L1140.54 63.2184 Q1144.67 65.3654 1148.68 66.4591 Q1152.69 67.5124 1156.62 67.5124 Q1161.89 67.5124 1164.73 65.73 Q1167.56 63.9071 1167.56 60.6258 Q1167.56 57.5877 1165.5 55.9673 Q1163.47 54.3469 1156.54 52.8481 L1153.95 52.2405 Q1147.02 50.7821 1143.94 47.7845 Q1140.87 44.7463 1140.87 39.4801 Q1140.87 33.0797 1145.4 29.5959 Q1149.94 26.1121 1158.29 26.1121 Q1162.42 26.1121 1166.06 26.7198 Q1169.71 27.3274 1172.79 28.5427 Z" fill="#000000" fill-rule="nonzero" fill-opacity="1" /><path clip-path="url(#clip590)" d="M1194.46 14.324 L1194.46 27.2059 L1209.81 27.2059 L1209.81 32.9987 L1194.46 32.9987 L1194.46 57.6282 Q1194.46 63.1779 1195.96 64.7578 Q1197.5 66.3376 1202.16 66.3376 L1209.81 66.3376 L1209.81 72.576 L1202.16 72.576 Q1193.53 72.576 1190.25 69.3758 Q1186.97 66.1351 1186.97 57.6282 L1186.97 32.9987 L1181.5 32.9987 L1181.5 27.2059 L1186.97 27.2059 L1186.97 14.324 L1194.46 14.324 Z" fill="#000000" fill-rule="nonzero" fill-opacity="1" /><path clip-path="url(#clip590)" d="M1258.42 48.0275 L1258.42 51.6733 L1224.15 51.6733 Q1224.64 59.3701 1228.77 63.421 Q1232.94 67.4314 1240.36 67.4314 Q1244.65 67.4314 1248.66 66.3781 Q1252.71 65.3249 1256.68 63.2184 L1256.68 70.267 Q1252.67 71.9684 1248.46 72.8596 Q1244.25 73.7508 1239.91 73.7508 Q1229.05 73.7508 1222.69 67.4314 Q1216.38 61.1119 1216.38 50.3365 Q1216.38 39.1965 1222.37 32.6746 Q1228.41 26.1121 1238.61 26.1121 Q1247.77 26.1121 1253.08 32.0264 Q1258.42 37.9003 1258.42 48.0275 M1250.97 45.84 Q1250.89 39.7232 1247.53 36.0774 Q1244.2 32.4315 1238.7 32.4315 Q1232.46 32.4315 1228.69 35.9558 Q1224.96 39.4801 1224.4 45.8805 L1250.97 45.84 Z" fill="#000000" fill-rule="nonzero" fill-opacity="1" /><path clip-path="url(#clip590)" d="M1296.95 34.1734 Q1295.69 33.4443 1294.19 33.1202 Q1292.73 32.7556 1290.95 32.7556 Q1284.63 32.7556 1281.23 36.8875 Q1277.87 40.9789 1277.87 48.6757 L1277.87 72.576 L1270.37 72.576 L1270.37 27.2059 L1277.87 27.2059 L1277.87 34.2544 Q1280.22 30.1225 1283.98 28.1376 Q1287.75 26.1121 1293.14 26.1121 Q1293.91 26.1121 1294.84 26.2337 Q1295.77 26.3147 1296.91 26.5172 L1296.95 34.1734 Z" fill="#000000" fill-rule="nonzero" fill-opacity="1" /><path clip-path="url(#clip590)" d="M1367.72 14.0809 L1367.72 22.0612 Q1363.06 19.8332 1358.93 18.7395 Q1354.79 17.6457 1350.95 17.6457 Q1344.26 17.6457 1340.62 20.2383 Q1337.01 22.8309 1337.01 27.611 Q1337.01 31.6214 1339.4 33.6873 Q1341.83 35.7128 1348.56 36.9686 L1353.5 37.9813 Q1362.65 39.7232 1366.99 44.1387 Q1371.36 48.5136 1371.36 55.8863 Q1371.36 64.6767 1365.45 69.2137 Q1359.57 73.7508 1348.19 73.7508 Q1343.9 73.7508 1339.04 72.7785 Q1334.22 71.8063 1329.03 69.9024 L1329.03 61.4765 Q1334.01 64.2716 1338.79 65.6895 Q1343.57 67.1073 1348.19 67.1073 Q1355.2 67.1073 1359.01 64.3527 Q1362.82 61.598 1362.82 56.4939 Q1362.82 52.0379 1360.06 49.5264 Q1357.35 47.0148 1351.11 45.759 L1346.13 44.7868 Q1336.97 42.9639 1332.88 39.075 Q1328.79 35.1862 1328.79 28.2591 Q1328.79 20.2383 1334.42 15.6203 Q1340.09 11.0023 1350.01 11.0023 Q1354.27 11.0023 1358.68 11.7719 Q1363.1 12.5416 1367.72 14.0809 Z" fill="#000000" fill-rule="nonzero" fill-opacity="1" /><path clip-path="url(#clip590)" d="M1383.8 27.2059 L1391.25 27.2059 L1391.25 72.576 L1383.8 72.576 L1383.8 27.2059 M1383.8 9.54393 L1391.25 9.54393 L1391.25 18.9825 L1383.8 18.9825 L1383.8 9.54393 Z" fill="#000000" fill-rule="nonzero" fill-opacity="1" /><path clip-path="url(#clip590)" d="M1403.61 27.2059 L1439.01 27.2059 L1439.01 34.0114 L1410.98 66.6212 L1439.01 66.6212 L1439.01 72.576 L1402.6 72.576 L1402.6 65.7705 L1430.63 33.1607 L1403.61 33.1607 L1403.61 27.2059 Z" fill="#000000" fill-rule="nonzero" fill-opacity="1" /><path clip-path="url(#clip590)" d="M1489.2 48.0275 L1489.2 51.6733 L1454.93 51.6733 Q1455.42 59.3701 1459.55 63.421 Q1463.72 67.4314 1471.14 67.4314 Q1475.43 67.4314 1479.44 66.3781 Q1483.49 65.3249 1487.46 63.2184 L1487.46 70.267 Q1483.45 71.9684 1479.24 72.8596 Q1475.03 73.7508 1470.69 73.7508 Q1459.83 73.7508 1453.47 67.4314 Q1447.16 61.1119 1447.16 50.3365 Q1447.16 39.1965 1453.15 32.6746 Q1459.19 26.1121 1469.39 26.1121 Q1478.55 26.1121 1483.86 32.0264 Q1489.2 37.9003 1489.2 48.0275 M1481.75 45.84 Q1481.67 39.7232 1478.31 36.0774 Q1474.98 32.4315 1469.48 32.4315 Q1463.24 32.4315 1459.47 35.9558 Q1455.74 39.4801 1455.18 45.8805 L1481.75 45.84 Z" fill="#000000" fill-rule="nonzero" fill-opacity="1" /><path clip-path="url(#clip590)" d="M1573.42 16.7545 L1573.42 25.383 Q1569.29 21.5346 1564.59 19.6307 Q1559.93 17.7268 1554.67 17.7268 Q1544.3 17.7268 1538.79 24.0867 Q1533.28 30.4061 1533.28 42.3968 Q1533.28 54.3469 1538.79 60.7069 Q1544.3 67.0263 1554.67 67.0263 Q1559.93 67.0263 1564.59 65.1223 Q1569.29 63.2184 1573.42 59.3701 L1573.42 67.9175 Q1569.13 70.8341 1564.31 72.2924 Q1559.53 73.7508 1554.18 73.7508 Q1540.45 73.7508 1532.55 65.3654 Q1524.65 56.9395 1524.65 42.3968 Q1524.65 27.8135 1532.55 19.4281 Q1540.45 11.0023 1554.18 11.0023 Q1559.61 11.0023 1564.39 12.4606 Q1569.21 13.8784 1573.42 16.7545 Z" fill="#000000" fill-rule="nonzero" fill-opacity="1" /><path clip-path="url(#clip590)" d="M1603.32 32.4315 Q1597.32 32.4315 1593.84 37.1306 Q1590.35 41.7891 1590.35 49.9314 Q1590.35 58.0738 1593.8 62.7728 Q1597.28 67.4314 1603.32 67.4314 Q1609.27 67.4314 1612.76 62.7323 Q1616.24 58.0333 1616.24 49.9314 Q1616.24 41.8701 1612.76 37.1711 Q1609.27 32.4315 1603.32 32.4315 M1603.32 26.1121 Q1613.04 26.1121 1618.59 32.4315 Q1624.14 38.7509 1624.14 49.9314 Q1624.14 61.0714 1618.59 67.4314 Q1613.04 73.7508 1603.32 73.7508 Q1593.55 73.7508 1588.01 67.4314 Q1582.5 61.0714 1582.5 49.9314 Q1582.5 38.7509 1588.01 32.4315 Q1593.55 26.1121 1603.32 26.1121 Z" fill="#000000" fill-rule="nonzero" fill-opacity="1" /><path clip-path="url(#clip590)" d="M1671.82 35.9153 Q1674.61 30.8922 1678.5 28.5022 Q1682.39 26.1121 1687.66 26.1121 Q1694.75 26.1121 1698.59 31.0947 Q1702.44 36.0368 1702.44 45.1919 L1702.44 72.576 L1694.95 72.576 L1694.95 45.4349 Q1694.95 38.913 1692.64 35.7533 Q1690.33 32.5936 1685.59 32.5936 Q1679.8 32.5936 1676.44 36.4419 Q1673.07 40.2903 1673.07 46.9338 L1673.07 72.576 L1665.58 72.576 L1665.58 45.4349 Q1665.58 38.8725 1663.27 35.7533 Q1660.96 32.5936 1656.14 32.5936 Q1650.43 32.5936 1647.07 36.4824 Q1643.71 40.3308 1643.71 46.9338 L1643.71 72.576 L1636.21 72.576 L1636.21 27.2059 L1643.71 27.2059 L1643.71 34.2544 Q1646.26 30.082 1649.82 28.0971 Q1653.39 26.1121 1658.29 26.1121 Q1663.23 26.1121 1666.67 28.6237 Q1670.16 31.1352 1671.82 35.9153 Z" fill="#000000" fill-rule="nonzero" fill-opacity="1" /><path clip-path="url(#clip590)" d="M1724.52 65.7705 L1724.52 89.8329 L1717.03 89.8329 L1717.03 27.2059 L1724.52 27.2059 L1724.52 34.0924 Q1726.87 30.0415 1730.43 28.0971 Q1734.04 26.1121 1739.02 26.1121 Q1747.29 26.1121 1752.43 32.6746 Q1757.62 39.2371 1757.62 49.9314 Q1757.62 60.6258 1752.43 67.1883 Q1747.29 73.7508 1739.02 73.7508 Q1734.04 73.7508 1730.43 71.8063 Q1726.87 69.8214 1724.52 65.7705 M1749.88 49.9314 Q1749.88 41.7081 1746.48 37.0496 Q1743.11 32.3505 1737.2 32.3505 Q1731.29 32.3505 1727.88 37.0496 Q1724.52 41.7081 1724.52 49.9314 Q1724.52 58.1548 1727.88 62.8538 Q1731.29 67.5124 1737.2 67.5124 Q1743.11 67.5124 1746.48 62.8538 Q1749.88 58.1548 1749.88 49.9314 Z" fill="#000000" fill-rule="nonzero" fill-opacity="1" /><path clip-path="url(#clip590)" d="M1790.59 49.7694 Q1781.56 49.7694 1778.07 51.8354 Q1774.59 53.9013 1774.59 58.8839 Q1774.59 62.8538 1777.18 65.2034 Q1779.82 67.5124 1784.31 67.5124 Q1790.51 67.5124 1794.24 63.1374 Q1798 58.7219 1798 51.4303 L1798 49.7694 L1790.59 49.7694 M1805.46 46.6907 L1805.46 72.576 L1798 72.576 L1798 65.6895 Q1795.45 69.8214 1791.64 71.8063 Q1787.84 73.7508 1782.33 73.7508 Q1775.36 73.7508 1771.23 69.8619 Q1767.14 65.9325 1767.14 59.3701 Q1767.14 51.7138 1772.24 47.825 Q1777.38 43.9361 1787.55 43.9361 L1798 43.9361 L1798 43.2069 Q1798 38.0623 1794.6 35.2672 Q1791.24 32.4315 1785.12 32.4315 Q1781.23 32.4315 1777.55 33.3632 Q1773.86 34.295 1770.46 36.1584 L1770.46 29.2718 Q1774.55 27.692 1778.4 26.9223 Q1782.25 26.1121 1785.89 26.1121 Q1795.74 26.1121 1800.6 31.2163 Q1805.46 36.3204 1805.46 46.6907 Z" fill="#000000" fill-rule="nonzero" fill-opacity="1" /><path clip-path="url(#clip590)" d="M1847.1 34.1734 Q1845.85 33.4443 1844.35 33.1202 Q1842.89 32.7556 1841.11 32.7556 Q1834.79 32.7556 1831.38 36.8875 Q1828.02 40.9789 1828.02 48.6757 L1828.02 72.576 L1820.53 72.576 L1820.53 27.2059 L1828.02 27.2059 L1828.02 34.2544 Q1830.37 30.1225 1834.14 28.1376 Q1837.91 26.1121 1843.29 26.1121 Q1844.06 26.1121 1844.99 26.2337 Q1845.93 26.3147 1847.06 26.5172 L1847.1 34.1734 Z" fill="#000000" fill-rule="nonzero" fill-opacity="1" /><path clip-path="url(#clip590)" d="M1854.92 27.2059 L1862.37 27.2059 L1862.37 72.576 L1854.92 72.576 L1854.92 27.2059 M1854.92 9.54393 L1862.37 9.54393 L1862.37 18.9825 L1854.92 18.9825 L1854.92 9.54393 Z" fill="#000000" fill-rule="nonzero" fill-opacity="1" /><path clip-path="url(#clip590)" d="M1906.89 28.5427 L1906.89 35.5912 Q1903.73 33.9709 1900.33 33.1607 Q1896.93 32.3505 1893.28 32.3505 Q1887.73 32.3505 1884.94 34.0519 Q1882.18 35.7533 1882.18 39.156 Q1882.18 41.7486 1884.17 43.2475 Q1886.15 44.7058 1892.15 46.0426 L1894.7 46.6097 Q1902.64 48.3111 1905.96 51.4303 Q1909.32 54.509 1909.32 60.0587 Q1909.32 66.3781 1904.3 70.0644 Q1899.32 73.7508 1890.57 73.7508 Q1886.92 73.7508 1882.95 73.0216 Q1879.02 72.3329 1874.65 70.9151 L1874.65 63.2184 Q1878.78 65.3654 1882.79 66.4591 Q1886.8 67.5124 1890.73 67.5124 Q1896 67.5124 1898.83 65.73 Q1901.67 63.9071 1901.67 60.6258 Q1901.67 57.5877 1899.6 55.9673 Q1897.58 54.3469 1890.65 52.8481 L1888.06 52.2405 Q1881.13 50.7821 1878.05 47.7845 Q1874.97 44.7463 1874.97 39.4801 Q1874.97 33.0797 1879.51 29.5959 Q1884.05 26.1121 1892.39 26.1121 Q1896.52 26.1121 1900.17 26.7198 Q1903.81 27.3274 1906.89 28.5427 Z" fill="#000000" fill-rule="nonzero" fill-opacity="1" /><path clip-path="url(#clip590)" d="M1938.77 32.4315 Q1932.78 32.4315 1929.29 37.1306 Q1925.81 41.7891 1925.81 49.9314 Q1925.81 58.0738 1929.25 62.7728 Q1932.74 67.4314 1938.77 67.4314 Q1944.73 67.4314 1948.21 62.7323 Q1951.7 58.0333 1951.7 49.9314 Q1951.7 41.8701 1948.21 37.1711 Q1944.73 32.4315 1938.77 32.4315 M1938.77 26.1121 Q1948.5 26.1121 1954.04 32.4315 Q1959.59 38.7509 1959.59 49.9314 Q1959.59 61.0714 1954.04 67.4314 Q1948.5 73.7508 1938.77 73.7508 Q1929.01 73.7508 1923.46 67.4314 Q1917.95 61.0714 1917.95 49.9314 Q1917.95 38.7509 1923.46 32.4315 Q1929.01 26.1121 1938.77 26.1121 Z" fill="#000000" fill-rule="nonzero" fill-opacity="1" /><path clip-path="url(#clip590)" d="M2009.66 45.1919 L2009.66 72.576 L2002.21 72.576 L2002.21 45.4349 Q2002.21 38.994 1999.7 35.7938 Q1997.19 32.5936 1992.16 32.5936 Q1986.13 32.5936 1982.64 36.4419 Q1979.16 40.2903 1979.16 46.9338 L1979.16 72.576 L1971.67 72.576 L1971.67 27.2059 L1979.16 27.2059 L1979.16 34.2544 Q1981.83 30.163 1985.44 28.1376 Q1989.09 26.1121 1993.82 26.1121 Q2001.64 26.1121 2005.65 30.9732 Q2009.66 35.7938 2009.66 45.1919 Z" fill="#000000" fill-rule="nonzero" fill-opacity="1" /><polyline clip-path="url(#clip592)" style="stroke:#009af9; stroke-linecap:round; stroke-linejoin:round; stroke-width:8; stroke-opacity:1; fill:none" points="292.4,1303.73 296.408,1248.63 300.417,1248.63 304.426,1248.63 308.435,1138.41 312.443,1138.41 316.452,1138.41 320.461,1124.64 324.469,1124.64 328.478,1124.64 332.487,1124.64 336.496,1124.64 340.504,1097.08 344.513,1097.08 348.522,1041.97 352.53,1041.97 356.539,1041.97 360.548,1041.97 364.556,1028.2 368.565,1028.2 372.574,1041.97 376.583,1069.53 380.591,1069.53 384.6,1069.53 388.609,1331.29 392.617,1331.29 396.626,1248.63 400.635,1248.63 404.644,1248.63 408.652,1317.51 412.661,1317.51 416.67,1303.73 420.678,1317.51 424.687,1317.51 428.696,1248.63 432.705,1248.63 436.713,1138.41 440.722,1069.53 444.731,1069.53 448.739,1069.53 452.748,1069.53 456.757,1221.07 460.766,1221.07 464.774,1221.07 468.783,1221.07 472.792,1221.07 476.8,1221.07 480.809,1234.85 484.818,1234.85 488.826,1234.85 492.835,1110.86 496.844,1110.86 500.853,1097.08 504.861,1124.64 508.87,1069.53 512.879,1083.31 516.887,1041.97 520.896,1083.31 524.905,1083.31 528.914,1083.31 532.922,1083.31 536.931,1083.31 540.94,1083.31 544.948,1083.31 548.957,1041.97 552.966,1041.97 556.975,793.991 560.983,793.991 564.992,793.991 569.001,793.991 573.009,435.793 577.018,408.24 581.027,408.24 585.035,422.016 589.044,422.016 593.053,931.76 597.062,931.76 601.07,931.76 605.079,917.983 609.088,917.983 613.096,917.983 617.105,917.983 621.114,862.875 625.123,862.875 629.131,862.875 633.14,862.875 637.149,849.099 641.157,835.322 645.166,890.429 649.175,890.429 653.184,890.429 657.192,904.206 661.201,904.206 665.21,904.206 669.218,904.206 673.227,904.206 677.236,904.206 681.244,904.206 685.253,904.206 689.262,904.206 693.271,284.248 697.279,284.248 701.288,298.025 705.297,890.429 709.305,890.429 713.314,890.429 717.323,890.429 721.332,284.248 725.34,284.248 729.349,284.248 733.358,242.917 737.366,876.652 741.375,876.652 745.384,890.429 749.393,876.652 753.401,862.875 757.41,849.099 761.419,849.099 765.427,849.099 769.436,849.099 773.445,849.099 777.454,849.099 781.462,849.099 785.471,849.099 789.48,849.099 793.488,849.099 797.497,849.099 801.506,849.099 805.514,849.099 809.523,201.587 813.532,201.587 817.541,201.587 821.549,215.364 825.558,201.587 829.567,215.364 833.575,215.364 837.584,201.587 841.593,201.587 845.602,201.587 849.61,201.587 853.619,201.587 857.628,215.364 861.636,201.587 865.645,201.587 869.654,201.587 873.663,201.587 877.671,201.587 881.68,215.364 885.689,215.364 889.697,215.364 893.706,215.364 897.715,215.364 901.723,215.364 905.732,215.364 909.741,215.364 913.75,215.364 917.758,215.364 921.767,215.364 925.776,201.587 929.784,201.587 933.793,201.587 937.802,201.587 941.811,201.587 945.819,201.587 949.828,201.587 953.837,201.587 957.845,215.364 961.854,215.364 965.863,215.364 969.872,215.364 973.88,215.364 977.889,215.364 981.898,215.364 985.906,215.364 989.915,242.917 993.924,242.917 997.933,242.917 1001.94,242.917 1005.95,242.917 1009.96,242.917 1013.97,242.917 1017.98,242.917 1021.98,242.917 1025.99,242.917 1030,242.917 1034.01,242.917 1038.02,242.917 1042.03,242.917 1046.04,242.917 1050.05,242.917 1054.05,242.917 1058.06,242.917 1062.07,242.917 1066.08,242.917 1070.09,242.917 1074.1,229.141 1078.11,229.141 1082.12,229.141 1086.12,229.141 1090.13,229.141 1094.14,229.141 1098.15,229.141 1102.16,229.141 1106.17,242.917 1110.18,242.917 1114.19,242.917 1118.19,242.917 1122.2,242.917 1126.21,242.917 1130.22,242.917 1134.23,229.141 1138.24,229.141 1142.25,229.141 1146.25,229.141 1150.26,229.141 1154.27,229.141 1158.28,229.141 1162.29,229.141 1166.3,229.141 1170.31,229.141 1174.32,229.141 1178.32,229.141 1182.33,229.141 1186.34,229.141 1190.35,229.141 1194.36,229.141 1198.37,229.141 1202.38,229.141 1206.39,229.141 1210.39,229.141 1214.4,229.141 1218.41,229.141 1222.42,229.141 1226.43,229.141 1230.44,242.917 1234.45,242.917 1238.46,242.917 1242.46,242.917 1246.47,242.917 1250.48,242.917 1254.49,242.917 1258.5,242.917 1262.51,242.917 1266.52,242.917 1270.52,242.917 1274.53,242.917 1278.54,242.917 1282.55,242.917 1286.56,242.917 1290.57,242.917 1294.58,242.917 1298.59,242.917 1302.59,242.917 1306.6,242.917 1310.61,242.917 1314.62,242.917 1318.63,242.917 1322.64,242.917 1326.65,242.917 1330.66,242.917 1334.66,242.917 1338.67,242.917 1342.68,242.917 1346.69,242.917 1350.7,242.917 1354.71,242.917 1358.72,242.917 1362.73,242.917 1366.73,242.917 1370.74,242.917 1374.75,242.917 1378.76,242.917 1382.77,242.917 1386.78,242.917 1390.79,242.917 1394.79,242.917 1398.8,242.917 1402.81,242.917 1406.82,242.917 1410.83,242.917 1414.84,242.917 1418.85,242.917 1422.86,242.917 1426.86,242.917 1430.87,242.917 1434.88,242.917 1438.89,242.917 1442.9,242.917 1446.91,242.917 1450.92,242.917 1454.93,242.917 1458.93,229.141 1462.94,229.141 1466.95,229.141 1470.96,229.141 1474.97,229.141 1478.98,229.141 1482.99,229.141 1487,215.364 1491,215.364 1495.01,215.364 1499.02,215.364 1503.03,215.364 1507.04,215.364 1511.05,215.364 1515.06,215.364 1519.06,215.364 1523.07,215.364 1527.08,215.364 1531.09,215.364 1535.1,215.364 1539.11,215.364 1543.12,215.364 1547.13,215.364 1551.13,215.364 1555.14,215.364 1559.15,215.364 1563.16,215.364 1567.17,215.364 1571.18,215.364 1575.19,215.364 1579.2,215.364 1583.2,215.364 1587.21,215.364 1591.22,215.364 1595.23,215.364 1599.24,215.364 1603.25,215.364 1607.26,215.364 1611.26,215.364 1615.27,215.364 1619.28,215.364 1623.29,201.587 1627.3,201.587 1631.31,201.587 1635.32,201.587 1639.33,201.587 1643.33,201.587 1647.34,201.587 1651.35,201.587 1655.36,201.587 1659.37,201.587 1663.38,201.587 1667.39,201.587 1671.4,201.587 1675.4,201.587 1679.41,201.587 1683.42,201.587 1687.43,201.587 1691.44,201.587 1695.45,201.587 1699.46,201.587 1703.47,201.587 1707.47,201.587 1711.48,201.587 1715.49,201.587 1719.5,201.587 1723.51,201.587 1727.52,201.587 1731.53,201.587 1735.53,201.587 1739.54,187.81 1743.55,187.81 1747.56,187.81 1751.57,187.81 1755.58,187.81 1759.59,187.81 1763.6,187.81 1767.6,187.81 1771.61,187.81 1775.62,187.81 1779.63,187.81 1783.64,187.81 1787.65,187.81 1791.66,187.81 1795.67,187.81 1799.67,187.81 1803.68,187.81 1807.69,187.81 1811.7,187.81 1815.71,187.81 1819.72,187.81 1823.73,187.81 1827.74,187.81 1831.74,187.81 1835.75,187.81 1839.76,187.81 1843.77,187.81 1847.78,187.81 1851.79,187.81 1855.8,187.81 1859.8,187.81 1863.81,187.81 1867.82,187.81 1871.83,187.81 1875.84,187.81 1879.85,187.81 1883.86,187.81 1887.87,187.81 1891.87,187.81 1895.88,187.81 1899.89,187.81 1903.9,187.81 1907.91,187.81 1911.92,187.81 1915.93,187.81 1919.94,187.81 1923.94,201.587 1927.95,201.587 1931.96,201.587 1935.97,187.81 1939.98,187.81 1943.99,187.81 1948,187.81 1952.01,187.81 1956.01,187.81 1960.02,187.81 1964.03,187.81 1968.04,187.81 1972.05,187.81 1976.06,187.81 1980.07,187.81 1984.07,187.81 1988.08,187.81 1992.09,174.033 1996.1,174.033 2000.11,174.033 2004.12,174.033 2008.13,174.033 2012.14,174.033 2016.14,174.033 2020.15,174.033 2024.16,174.033 2028.17,174.033 2032.18,174.033 2036.19,174.033 2040.2,174.033 2044.21,174.033 2048.21,174.033 2052.22,174.033 2056.23,174.033 2060.24,174.033 2064.25,174.033 2068.26,174.033 2072.27,174.033 2076.28,174.033 2080.28,174.033 2084.29,160.256 2088.3,160.256 2092.31,160.256 2096.32,160.256 2100.33,160.256 2104.34,160.256 2108.34,160.256 2112.35,160.256 2116.36,160.256 2120.37,160.256 2124.38,160.256 2128.39,160.256 2132.4,160.256 2136.41,160.256 2140.41,160.256 2144.42,160.256 2148.43,160.256 2152.44,160.256 2156.45,160.256 2160.46,160.256 2164.47,160.256 2168.48,160.256 2172.48,160.256 2176.49,160.256 2180.5,160.256 2184.51,160.256 2188.52,160.256 2192.53,160.256 2196.54,160.256 2200.55,160.256 2204.55,160.256 2208.56,160.256 2212.57,160.256 2216.58,160.256 2220.59,160.256 2224.6,160.256 2228.61,160.256 2232.61,160.256 2236.62,160.256 2240.63,160.256 2244.64,160.256 2248.65,160.256 2252.66,160.256 2256.67,160.256 2260.68,160.256 2264.68,160.256 2268.69,160.256 2272.7,160.256 2276.71,160.256 2280.72,160.256 2284.73,160.256 2288.74,160.256 2292.75,160.256 "/>
<polyline clip-path="url(#clip592)" style="stroke:#e26f46; stroke-linecap:round; stroke-linejoin:round; stroke-width:8; stroke-opacity:1; fill:none" points="292.4,1303.73 296.408,1248.63 300.417,1248.63 304.426,1248.63 308.435,1248.63 312.443,1138.41 316.452,1124.64 320.461,1124.64 324.469,1124.64 328.478,1124.64 332.487,1124.64 336.496,1124.64 340.504,1124.64 344.513,1124.64 348.522,1097.08 352.53,1097.08 356.539,1097.08 360.548,1041.97 364.556,1041.97 368.565,1055.75 372.574,1207.3 376.583,1207.3 380.591,1207.3 384.6,1207.3 388.609,1207.3 392.617,1207.3 396.626,1207.3 400.635,1207.3 404.644,1262.4 408.652,1262.4 412.661,1152.19 416.67,1317.51 420.678,1317.51 424.687,1207.3 428.696,1207.3 432.705,1207.3 436.713,1207.3 440.722,1207.3 444.731,1207.3 448.739,1207.3 452.748,1207.3 456.757,1207.3 460.766,1207.3 464.774,1207.3 468.783,1207.3 472.792,1207.3 476.8,1207.3 480.809,1207.3 484.818,1207.3 488.826,1207.3 492.835,1207.3 496.844,1207.3 500.853,1207.3 504.861,1193.52 508.87,1138.41 512.879,1289.96 516.887,1303.73 520.896,1303.73 524.905,1345.07 528.914,1345.07 532.922,1345.07 536.931,1386.4 540.94,1386.4 544.948,1386.4 548.957,1386.4 552.966,1248.63 556.975,1207.3 560.983,1193.52 564.992,1193.52 569.001,1193.52 573.009,1193.52 577.018,1193.52 581.027,1193.52 585.035,1193.52 589.044,1083.31 593.053,1083.31 597.062,1097.08 601.07,1069.53 605.079,1069.53 609.088,1069.53 613.096,1069.53 617.105,1069.53 621.114,1055.75 625.123,1110.86 629.131,1138.41 633.14,1138.41 637.149,1138.41 641.157,1138.41 645.166,1138.41 649.175,1138.41 653.184,1138.41 657.192,1152.19 661.201,1152.19 665.21,1152.19 669.218,1152.19 673.227,1152.19 677.236,1152.19 681.244,1152.19 685.253,1097.08 689.262,1097.08 693.271,1097.08 697.279,1097.08 701.288,1097.08 705.297,917.983 709.305,917.983 713.314,876.652 717.323,876.652 721.332,876.652 725.34,876.652 729.349,876.652 733.358,780.214 737.366,780.214 741.375,780.214 745.384,780.214 749.393,780.214 753.401,780.214 757.41,780.214 761.419,780.214 765.427,849.099 769.436,849.099 773.445,849.099 777.454,849.099 781.462,849.099 785.471,849.099 789.48,835.322 793.488,835.322 797.497,821.545 801.506,821.545 805.514,821.545 809.523,807.768 813.532,807.768 817.541,807.768 821.549,504.677 825.558,504.677 829.567,504.677 833.575,504.677 837.584,504.677 841.593,504.677 845.602,504.677 849.61,573.562 853.619,573.562 857.628,931.76 861.636,931.76 865.645,931.76 869.654,931.76 873.663,917.983 877.671,904.206 881.68,904.206 885.689,904.206 889.697,711.33 893.706,711.33 897.715,959.313 901.723,959.313 905.732,683.776 909.741,683.776 913.75,766.438 917.758,766.438 921.767,656.223 925.776,656.223 929.784,573.562 933.793,490.901 937.802,532.231 941.811,532.231 945.819,532.231 949.828,587.339 953.837,614.892 957.845,614.892 961.854,546.008 965.863,366.909 969.872,353.132 973.88,380.686 977.889,380.686 981.898,380.686 985.906,380.686 989.915,380.686 993.924,614.892 997.933,380.686 1001.94,380.686 1005.95,380.686 1009.96,394.463 1013.97,394.463 1017.98,394.463 1021.98,449.57 1025.99,449.57 1030,449.57 1034.01,463.347 1038.02,449.57 1042.03,449.57 1046.04,449.57 1050.05,477.124 1054.05,477.124 1058.06,477.124 1062.07,477.124 1066.08,587.339 1070.09,587.339 1074.1,559.785 1078.11,559.785 1082.12,559.785 1086.12,559.785 1090.13,559.785 1094.14,601.115 1098.15,601.115 1102.16,601.115 1106.17,642.446 1110.18,642.446 1114.19,642.446 1118.19,656.223 1122.2,656.223 1126.21,559.785 1130.22,559.785 1134.23,959.313 1138.24,959.313 1142.25,973.09 1146.25,973.09 1150.26,973.09 1154.27,986.867 1158.28,1014.42 1162.29,1014.42 1166.3,1014.42 1170.31,1014.42 1174.32,1014.42 1178.32,1028.2 1182.33,1028.2 1186.34,1014.42 1190.35,1014.42 1194.36,1014.42 1198.37,1014.42 1202.38,1014.42 1206.39,1014.42 1210.39,1014.42 1214.4,1014.42 1218.41,1014.42 1222.42,1014.42 1226.43,1014.42 1230.44,1014.42 1234.45,1028.2 1238.46,1028.2 1242.46,1028.2 1246.47,1028.2 1250.48,1028.2 1254.49,1028.2 1258.5,821.545 1262.51,904.206 1266.52,890.429 1270.52,890.429 1274.53,890.429 1278.54,890.429 1282.55,890.429 1286.56,849.099 1290.57,849.099 1294.58,917.983 1298.59,917.983 1302.59,917.983 1306.6,917.983 1310.61,917.983 1314.62,917.983 1318.63,917.983 1322.64,917.983 1326.65,931.76 1330.66,931.76 1334.66,931.76 1338.67,917.983 1342.68,917.983 1346.69,917.983 1350.7,917.983 1354.71,917.983 1358.72,917.983 1362.73,1193.52 1366.73,1193.52 1370.74,1193.52 1374.75,1193.52 1378.76,1193.52 1382.77,1193.52 1386.78,1193.52 1390.79,1193.52 1394.79,1193.52 1398.8,1193.52 1402.81,1193.52 1406.82,1193.52 1410.83,1193.52 1414.84,1193.52 1418.85,1193.52 1422.86,1193.52 1426.86,1221.07 1430.87,1221.07 1434.88,1221.07 1438.89,1221.07 1442.9,1221.07 1446.91,1207.3 1450.92,1207.3 1454.93,1207.3 1458.93,1207.3 1462.94,1207.3 1466.95,1207.3 1470.96,1179.74 1474.97,1179.74 1478.98,1179.74 1482.99,1179.74 1487,1179.74 1491,1276.18 1495.01,1248.63 1499.02,1248.63 1503.03,1248.63 1507.04,1248.63 1511.05,1248.63 1515.06,1248.63 1519.06,1248.63 1523.07,1248.63 1527.08,1248.63 1531.09,1248.63 1535.1,1248.63 1539.11,1248.63 1543.12,1248.63 1547.13,1248.63 1551.13,1248.63 1555.14,1248.63 1559.15,1248.63 1563.16,1248.63 1567.17,1248.63 1571.18,1248.63 1575.19,1248.63 1579.2,1248.63 1583.2,1248.63 1587.21,1248.63 1591.22,1248.63 1595.23,1248.63 1599.24,1248.63 1603.25,1248.63 1607.26,1276.18 1611.26,1276.18 1615.27,1276.18 1619.28,1248.63 1623.29,1221.07 1627.3,1221.07 1631.31,1221.07 1635.32,1221.07 1639.33,1221.07 1643.33,1221.07 1647.34,1221.07 1651.35,1221.07 1655.36,1221.07 1659.37,1234.85 1663.38,1234.85 1667.39,1234.85 1671.4,1234.85 1675.4,1234.85 1679.41,1234.85 1683.42,1234.85 1687.43,1234.85 1691.44,1234.85 1695.45,1234.85 1699.46,1234.85 1703.47,1234.85 1707.47,1234.85 1711.48,1234.85 1715.49,1234.85 1719.5,1234.85 1723.51,1234.85 1727.52,1234.85 1731.53,1234.85 1735.53,1234.85 1739.54,1234.85 1743.55,1234.85 1747.56,1234.85 1751.57,1234.85 1755.58,1234.85 1759.59,1234.85 1763.6,1234.85 1767.6,1234.85 1771.61,1234.85 1775.62,1234.85 1779.63,1234.85 1783.64,1234.85 1787.65,1234.85 1791.66,1234.85 1795.67,1234.85 1799.67,1234.85 1803.68,1234.85 1807.69,1234.85 1811.7,1234.85 1815.71,1234.85 1819.72,1234.85 1823.73,1234.85 1827.74,1234.85 1831.74,1234.85 1835.75,1234.85 1839.76,1234.85 1843.77,1234.85 1847.78,1234.85 1851.79,1234.85 1855.8,1234.85 1859.8,1234.85 1863.81,1234.85 1867.82,1234.85 1871.83,1234.85 1875.84,1234.85 1879.85,1234.85 1883.86,1234.85 1887.87,1234.85 1891.87,1234.85 1895.88,1234.85 1899.89,1234.85 1903.9,1248.63 1907.91,1248.63 1911.92,1248.63 1915.93,1248.63 1919.94,1248.63 1923.94,1248.63 1927.95,1248.63 1931.96,1248.63 1935.97,1207.3 1939.98,1207.3 1943.99,1207.3 1948,1207.3 1952.01,1207.3 1956.01,1028.2 1960.02,1028.2 1964.03,1028.2 1968.04,1028.2 1972.05,1028.2 1976.06,1028.2 1980.07,1028.2 1984.07,1028.2 1988.08,1028.2 1992.09,1028.2 1996.1,1028.2 2000.11,1028.2 2004.12,1028.2 2008.13,1028.2 2012.14,1028.2 2016.14,697.553 2020.15,697.553 2024.16,697.553 2028.17,697.553 2032.18,766.438 2036.19,766.438 2040.2,931.76 2044.21,1069.53 2048.21,1055.75 2052.22,1179.74 2056.23,1179.74 2060.24,1179.74 2064.25,1110.86 2068.26,1110.86 2072.27,1110.86 2076.28,1110.86 2080.28,1110.86 2084.29,1110.86 2088.3,1110.86 2092.31,1110.86 2096.32,986.867 2100.33,986.867 2104.34,986.867 2108.34,986.867 2112.35,986.867 2116.36,1000.64 2120.37,1014.42 2124.38,1014.42 2128.39,890.429 2132.4,890.429 2136.41,890.429 2140.41,890.429 2144.42,890.429 2148.43,890.429 2152.44,890.429 2156.45,890.429 2160.46,890.429 2164.47,890.429 2168.48,890.429 2172.48,890.429 2176.49,890.429 2180.5,890.429 2184.51,890.429 2188.52,890.429 2192.53,890.429 2196.54,890.429 2200.55,890.429 2204.55,890.429 2208.56,890.429 2212.57,890.429 2216.58,890.429 2220.59,1041.97 2224.6,1041.97 2228.61,1041.97 2232.61,1041.97 2236.62,1041.97 2240.63,1041.97 2244.64,1041.97 2248.65,1083.31 2252.66,1083.31 2256.67,1083.31 2260.68,1083.31 2264.68,1083.31 2268.69,1083.31 2272.7,1083.31 2276.71,1083.31 2280.72,1083.31 2284.73,1083.31 2288.74,1083.31 2292.75,1083.31 "/>
<path clip-path="url(#clip590)" d="M303.068 322.316 L773.529 322.316 L773.529 166.796 L303.068 166.796  Z" fill="#ffffff" fill-rule="evenodd" fill-opacity="1"/>
<polyline clip-path="url(#clip590)" style="stroke:#000000; stroke-linecap:round; stroke-linejoin:round; stroke-width:4; stroke-opacity:1; fill:none" points="303.068,322.316 773.529,322.316 773.529,166.796 303.068,166.796 303.068,322.316 "/>
<polyline clip-path="url(#clip590)" style="stroke:#009af9; stroke-linecap:round; stroke-linejoin:round; stroke-width:8; stroke-opacity:1; fill:none" points="326.628,218.636 467.986,218.636 "/>
<path clip-path="url(#clip590)" d="M491.545 201.356 L498.513 201.356 L507.332 224.874 L516.198 201.356 L523.165 201.356 L523.165 235.916 L518.605 235.916 L518.605 205.569 L509.693 229.272 L504.994 229.272 L496.082 205.569 L496.082 235.916 L491.545 235.916 L491.545 201.356 Z" fill="#000000" fill-rule="nonzero" fill-opacity="1" /><path clip-path="url(#clip590)" d="M554.438 221.888 L554.438 223.971 L534.855 223.971 Q535.133 228.369 537.494 230.684 Q539.878 232.976 544.114 232.976 Q546.568 232.976 548.86 232.374 Q551.175 231.772 553.443 230.569 L553.443 234.596 Q551.151 235.568 548.744 236.078 Q546.337 236.587 543.86 236.587 Q537.656 236.587 534.022 232.976 Q530.411 229.365 530.411 223.207 Q530.411 216.842 533.837 213.115 Q537.286 209.365 543.119 209.365 Q548.351 209.365 551.383 212.745 Q554.438 216.101 554.438 221.888 M550.179 220.638 Q550.133 217.143 548.212 215.059 Q546.313 212.976 543.165 212.976 Q539.601 212.976 537.448 214.99 Q535.318 217.004 534.994 220.661 L550.179 220.638 Z" fill="#000000" fill-rule="nonzero" fill-opacity="1" /><path clip-path="url(#clip590)" d="M565.642 202.629 L565.642 209.99 L574.415 209.99 L574.415 213.3 L565.642 213.3 L565.642 227.374 Q565.642 230.545 566.499 231.448 Q567.378 232.351 570.04 232.351 L574.415 232.351 L574.415 235.916 L570.04 235.916 Q565.11 235.916 563.235 234.087 Q561.36 232.235 561.36 227.374 L561.36 213.3 L558.235 213.3 L558.235 209.99 L561.36 209.99 L561.36 202.629 L565.642 202.629 Z" fill="#000000" fill-rule="nonzero" fill-opacity="1" /><path clip-path="url(#clip590)" d="M595.04 213.971 Q594.322 213.555 593.466 213.37 Q592.633 213.161 591.614 213.161 Q588.003 213.161 586.059 215.522 Q584.137 217.86 584.137 222.258 L584.137 235.916 L579.855 235.916 L579.855 209.99 L584.137 209.99 L584.137 214.018 Q585.48 211.657 587.633 210.522 Q589.785 209.365 592.864 209.365 Q593.304 209.365 593.836 209.434 Q594.369 209.481 595.017 209.596 L595.04 213.971 Z" fill="#000000" fill-rule="nonzero" fill-opacity="1" /><path clip-path="url(#clip590)" d="M599.508 209.99 L603.767 209.99 L603.767 235.916 L599.508 235.916 L599.508 209.99 M599.508 199.897 L603.767 199.897 L603.767 205.291 L599.508 205.291 L599.508 199.897 Z" fill="#000000" fill-rule="nonzero" fill-opacity="1" /><path clip-path="url(#clip590)" d="M631.336 210.985 L631.336 214.967 Q629.531 213.971 627.702 213.485 Q625.896 212.976 624.045 212.976 Q619.901 212.976 617.609 215.615 Q615.318 218.231 615.318 222.976 Q615.318 227.721 617.609 230.36 Q619.901 232.976 624.045 232.976 Q625.896 232.976 627.702 232.49 Q629.531 231.981 631.336 230.985 L631.336 234.92 Q629.554 235.754 627.632 236.17 Q625.734 236.587 623.582 236.587 Q617.725 236.587 614.276 232.906 Q610.827 229.226 610.827 222.976 Q610.827 216.633 614.299 212.999 Q617.795 209.365 623.859 209.365 Q625.827 209.365 627.702 209.782 Q629.577 210.175 631.336 210.985 Z" fill="#000000" fill-rule="nonzero" fill-opacity="1" /><polyline clip-path="url(#clip590)" style="stroke:#e26f46; stroke-linecap:round; stroke-linejoin:round; stroke-width:8; stroke-opacity:1; fill:none" points="326.628,270.476 467.986,270.476 "/>
<path clip-path="url(#clip590)" d="M491.545 253.196 L520.781 253.196 L520.781 257.131 L508.513 257.131 L508.513 287.756 L503.814 287.756 L503.814 257.131 L491.545 257.131 L491.545 253.196 Z" fill="#000000" fill-rule="nonzero" fill-opacity="1" /><path clip-path="url(#clip590)" d="M527.101 264.816 Q523.675 264.816 521.684 267.501 Q519.693 270.163 519.693 274.816 Q519.693 279.469 521.661 282.154 Q523.652 284.816 527.101 284.816 Q530.503 284.816 532.494 282.131 Q534.485 279.446 534.485 274.816 Q534.485 270.21 532.494 267.524 Q530.503 264.816 527.101 264.816 M527.101 261.205 Q532.656 261.205 535.827 264.816 Q538.999 268.427 538.999 274.816 Q538.999 281.182 535.827 284.816 Q532.656 288.427 527.101 288.427 Q521.522 288.427 518.351 284.816 Q515.203 281.182 515.203 274.816 Q515.203 268.427 518.351 264.816 Q521.522 261.205 527.101 261.205 Z" fill="#000000" fill-rule="nonzero" fill-opacity="1" /><path clip-path="url(#clip590)" d="M550.179 283.867 L550.179 297.617 L545.897 297.617 L545.897 261.83 L550.179 261.83 L550.179 265.765 Q551.522 263.45 553.559 262.339 Q555.619 261.205 558.466 261.205 Q563.188 261.205 566.128 264.955 Q569.091 268.705 569.091 274.816 Q569.091 280.927 566.128 284.677 Q563.188 288.427 558.466 288.427 Q555.619 288.427 553.559 287.316 Q551.522 286.182 550.179 283.867 M564.67 274.816 Q564.67 270.117 562.725 267.455 Q560.804 264.77 557.425 264.77 Q554.045 264.77 552.1 267.455 Q550.179 270.117 550.179 274.816 Q550.179 279.515 552.1 282.2 Q554.045 284.862 557.425 284.862 Q560.804 284.862 562.725 282.2 Q564.67 279.515 564.67 274.816 Z" fill="#000000" fill-rule="nonzero" fill-opacity="1" /><path clip-path="url(#clip590)" d="M586.198 264.816 Q582.772 264.816 580.781 267.501 Q578.79 270.163 578.79 274.816 Q578.79 279.469 580.758 282.154 Q582.748 284.816 586.198 284.816 Q589.6 284.816 591.591 282.131 Q593.582 279.446 593.582 274.816 Q593.582 270.21 591.591 267.524 Q589.6 264.816 586.198 264.816 M586.198 261.205 Q591.753 261.205 594.924 264.816 Q598.096 268.427 598.096 274.816 Q598.096 281.182 594.924 284.816 Q591.753 288.427 586.198 288.427 Q580.619 288.427 577.448 284.816 Q574.299 281.182 574.299 274.816 Q574.299 268.427 577.448 264.816 Q580.619 261.205 586.198 261.205 Z" fill="#000000" fill-rule="nonzero" fill-opacity="1" /><path clip-path="url(#clip590)" d="M605.156 251.737 L609.415 251.737 L609.415 287.756 L605.156 287.756 L605.156 251.737 Z" fill="#000000" fill-rule="nonzero" fill-opacity="1" /><path clip-path="url(#clip590)" d="M628.373 264.816 Q624.947 264.816 622.957 267.501 Q620.966 270.163 620.966 274.816 Q620.966 279.469 622.933 282.154 Q624.924 284.816 628.373 284.816 Q631.776 284.816 633.767 282.131 Q635.757 279.446 635.757 274.816 Q635.757 270.21 633.767 267.524 Q631.776 264.816 628.373 264.816 M628.373 261.205 Q633.929 261.205 637.1 264.816 Q640.271 268.427 640.271 274.816 Q640.271 281.182 637.1 284.816 Q633.929 288.427 628.373 288.427 Q622.795 288.427 619.623 284.816 Q616.475 281.182 616.475 274.816 Q616.475 268.427 619.623 264.816 Q622.795 261.205 628.373 261.205 Z" fill="#000000" fill-rule="nonzero" fill-opacity="1" /><path clip-path="url(#clip590)" d="M664.392 274.492 Q664.392 269.862 662.47 267.316 Q660.572 264.77 657.123 264.77 Q653.697 264.77 651.776 267.316 Q649.878 269.862 649.878 274.492 Q649.878 279.098 651.776 281.645 Q653.697 284.191 657.123 284.191 Q660.572 284.191 662.47 281.645 Q664.392 279.098 664.392 274.492 M668.651 284.538 Q668.651 291.158 665.711 294.376 Q662.771 297.617 656.706 297.617 Q654.461 297.617 652.47 297.27 Q650.48 296.945 648.605 296.251 L648.605 292.108 Q650.48 293.126 652.308 293.612 Q654.137 294.098 656.035 294.098 Q660.225 294.098 662.308 291.899 Q664.392 289.723 664.392 285.302 L664.392 283.196 Q663.072 285.487 661.012 286.621 Q658.952 287.756 656.081 287.756 Q651.313 287.756 648.396 284.121 Q645.48 280.487 645.48 274.492 Q645.48 268.473 648.396 264.839 Q651.313 261.205 656.081 261.205 Q658.952 261.205 661.012 262.339 Q663.072 263.473 664.392 265.765 L664.392 261.83 L668.651 261.83 L668.651 284.538 Z" fill="#000000" fill-rule="nonzero" fill-opacity="1" /><path clip-path="url(#clip590)" d="M677.424 261.83 L681.683 261.83 L681.683 287.756 L677.424 287.756 L677.424 261.83 M677.424 251.737 L681.683 251.737 L681.683 257.131 L677.424 257.131 L677.424 251.737 Z" fill="#000000" fill-rule="nonzero" fill-opacity="1" /><path clip-path="url(#clip590)" d="M709.252 262.825 L709.252 266.807 Q707.447 265.811 705.618 265.325 Q703.813 264.816 701.961 264.816 Q697.817 264.816 695.526 267.455 Q693.234 270.071 693.234 274.816 Q693.234 279.561 695.526 282.2 Q697.817 284.816 701.961 284.816 Q703.813 284.816 705.618 284.33 Q707.447 283.821 709.252 282.825 L709.252 286.76 Q707.47 287.594 705.549 288.01 Q703.651 288.427 701.498 288.427 Q695.641 288.427 692.192 284.746 Q688.743 281.066 688.743 274.816 Q688.743 268.473 692.215 264.839 Q695.711 261.205 701.776 261.205 Q703.743 261.205 705.618 261.622 Q707.493 262.015 709.252 262.825 Z" fill="#000000" fill-rule="nonzero" fill-opacity="1" /><path clip-path="url(#clip590)" d="M728.442 274.723 Q723.28 274.723 721.289 275.904 Q719.299 277.084 719.299 279.932 Q719.299 282.2 720.78 283.543 Q722.285 284.862 724.854 284.862 Q728.396 284.862 730.525 282.362 Q732.678 279.839 732.678 275.672 L732.678 274.723 L728.442 274.723 M736.937 272.964 L736.937 287.756 L732.678 287.756 L732.678 283.821 Q731.22 286.182 729.044 287.316 Q726.868 288.427 723.72 288.427 Q719.738 288.427 717.377 286.205 Q715.039 283.959 715.039 280.209 Q715.039 275.834 717.956 273.612 Q720.896 271.39 726.706 271.39 L732.678 271.39 L732.678 270.973 Q732.678 268.034 730.734 266.436 Q728.813 264.816 725.317 264.816 Q723.095 264.816 720.988 265.348 Q718.882 265.881 716.938 266.946 L716.938 263.01 Q719.276 262.108 721.475 261.668 Q723.674 261.205 725.757 261.205 Q731.382 261.205 734.16 264.122 Q736.937 267.038 736.937 272.964 Z" fill="#000000" fill-rule="nonzero" fill-opacity="1" /><path clip-path="url(#clip590)" d="M745.711 251.737 L749.97 251.737 L749.97 287.756 L745.711 287.756 L745.711 251.737 Z" fill="#000000" fill-rule="nonzero" fill-opacity="1" /></svg>
