<?xml version="1.0" encoding="utf-8"?>
<svg xmlns="http://www.w3.org/2000/svg" xmlns:xlink="http://www.w3.org/1999/xlink" width="600" height="400" viewBox="0 0 2400 1600">
<defs>
  <clipPath id="clip220">
    <rect x="0" y="0" width="2400" height="1600"/>
  </clipPath>
</defs>
<path clip-path="url(#clip220)" d="M0 1600 L2400 1600 L2400 0 L0 0  Z" fill="#ffffff" fill-rule="evenodd" fill-opacity="1"/>
<defs>
  <clipPath id="clip221">
    <rect x="480" y="0" width="1681" height="1600"/>
  </clipPath>
</defs>
<path clip-path="url(#clip220)" d="M232.389 1423.18 L2352.76 1423.18 L2352.76 123.472 L232.389 123.472  Z" fill="#ffffff" fill-rule="evenodd" fill-opacity="1"/>
<defs>
  <clipPath id="clip222">
    <rect x="232" y="123" width="2121" height="1301"/>
  </clipPath>
</defs>
<polyline clip-path="url(#clip222)" style="stroke:#000000; stroke-linecap:round; stroke-linejoin:round; stroke-width:2; stroke-opacity:0.1; fill:none" points="288.391,1423.18 288.391,123.472 "/>
<polyline clip-path="url(#clip222)" style="stroke:#000000; stroke-linecap:round; stroke-linejoin:round; stroke-width:2; stroke-opacity:0.1; fill:none" points="689.262,1423.18 689.262,123.472 "/>
<polyline clip-path="url(#clip222)" style="stroke:#000000; stroke-linecap:round; stroke-linejoin:round; stroke-width:2; stroke-opacity:0.1; fill:none" points="1090.13,1423.18 1090.13,123.472 "/>
<polyline clip-path="url(#clip222)" style="stroke:#000000; stroke-linecap:round; stroke-linejoin:round; stroke-width:2; stroke-opacity:0.1; fill:none" points="1491,1423.18 1491,123.472 "/>
<polyline clip-path="url(#clip222)" style="stroke:#000000; stroke-linecap:round; stroke-linejoin:round; stroke-width:2; stroke-opacity:0.1; fill:none" points="1891.87,1423.18 1891.87,123.472 "/>
<polyline clip-path="url(#clip222)" style="stroke:#000000; stroke-linecap:round; stroke-linejoin:round; stroke-width:2; stroke-opacity:0.1; fill:none" points="2292.75,1423.18 2292.75,123.472 "/>
<polyline clip-path="url(#clip222)" style="stroke:#000000; stroke-linecap:round; stroke-linejoin:round; stroke-width:2; stroke-opacity:0.1; fill:none" points="232.389,1299.84 2352.76,1299.84 "/>
<polyline clip-path="url(#clip222)" style="stroke:#000000; stroke-linecap:round; stroke-linejoin:round; stroke-width:2; stroke-opacity:0.1; fill:none" points="232.389,1011.34 2352.76,1011.34 "/>
<polyline clip-path="url(#clip222)" style="stroke:#000000; stroke-linecap:round; stroke-linejoin:round; stroke-width:2; stroke-opacity:0.1; fill:none" points="232.389,722.838 2352.76,722.838 "/>
<polyline clip-path="url(#clip222)" style="stroke:#000000; stroke-linecap:round; stroke-linejoin:round; stroke-width:2; stroke-opacity:0.1; fill:none" points="232.389,434.335 2352.76,434.335 "/>
<polyline clip-path="url(#clip222)" style="stroke:#000000; stroke-linecap:round; stroke-linejoin:round; stroke-width:2; stroke-opacity:0.1; fill:none" points="232.389,145.831 2352.76,145.831 "/>
<polyline clip-path="url(#clip220)" style="stroke:#000000; stroke-linecap:round; stroke-linejoin:round; stroke-width:4; stroke-opacity:1; fill:none" points="232.389,1423.18 2352.76,1423.18 "/>
<polyline clip-path="url(#clip220)" style="stroke:#000000; stroke-linecap:round; stroke-linejoin:round; stroke-width:4; stroke-opacity:1; fill:none" points="288.391,1423.18 288.391,1404.28 "/>
<polyline clip-path="url(#clip220)" style="stroke:#000000; stroke-linecap:round; stroke-linejoin:round; stroke-width:4; stroke-opacity:1; fill:none" points="689.262,1423.18 689.262,1404.28 "/>
<polyline clip-path="url(#clip220)" style="stroke:#000000; stroke-linecap:round; stroke-linejoin:round; stroke-width:4; stroke-opacity:1; fill:none" points="1090.13,1423.18 1090.13,1404.28 "/>
<polyline clip-path="url(#clip220)" style="stroke:#000000; stroke-linecap:round; stroke-linejoin:round; stroke-width:4; stroke-opacity:1; fill:none" points="1491,1423.18 1491,1404.28 "/>
<polyline clip-path="url(#clip220)" style="stroke:#000000; stroke-linecap:round; stroke-linejoin:round; stroke-width:4; stroke-opacity:1; fill:none" points="1891.87,1423.18 1891.87,1404.28 "/>
<polyline clip-path="url(#clip220)" style="stroke:#000000; stroke-linecap:round; stroke-linejoin:round; stroke-width:4; stroke-opacity:1; fill:none" points="2292.75,1423.18 2292.75,1404.28 "/>
<path clip-path="url(#clip220)" d="M288.391 1454.1 Q284.78 1454.1 282.951 1457.66 Q281.146 1461.2 281.146 1468.33 Q281.146 1475.44 282.951 1479.01 Q284.78 1482.55 288.391 1482.55 Q292.025 1482.55 293.831 1479.01 Q295.659 1475.44 295.659 1468.33 Q295.659 1461.2 293.831 1457.66 Q292.025 1454.1 288.391 1454.1 M288.391 1450.39 Q294.201 1450.39 297.257 1455 Q300.335 1459.58 300.335 1468.33 Q300.335 1477.06 297.257 1481.67 Q294.201 1486.25 288.391 1486.25 Q282.581 1486.25 279.502 1481.67 Q276.447 1477.06 276.447 1468.33 Q276.447 1459.58 279.502 1455 Q282.581 1450.39 288.391 1450.39 Z" fill="#000000" fill-rule="nonzero" fill-opacity="1" /><path clip-path="url(#clip220)" d="M648.869 1481.64 L656.507 1481.64 L656.507 1455.28 L648.197 1456.95 L648.197 1452.69 L656.461 1451.02 L661.137 1451.02 L661.137 1481.64 L668.776 1481.64 L668.776 1485.58 L648.869 1485.58 L648.869 1481.64 Z" fill="#000000" fill-rule="nonzero" fill-opacity="1" /><path clip-path="url(#clip220)" d="M688.22 1454.1 Q684.609 1454.1 682.78 1457.66 Q680.975 1461.2 680.975 1468.33 Q680.975 1475.44 682.78 1479.01 Q684.609 1482.55 688.22 1482.55 Q691.854 1482.55 693.66 1479.01 Q695.489 1475.44 695.489 1468.33 Q695.489 1461.2 693.66 1457.66 Q691.854 1454.1 688.22 1454.1 M688.22 1450.39 Q694.03 1450.39 697.086 1455 Q700.165 1459.58 700.165 1468.33 Q700.165 1477.06 697.086 1481.67 Q694.03 1486.25 688.22 1486.25 Q682.41 1486.25 679.331 1481.67 Q676.276 1477.06 676.276 1468.33 Q676.276 1459.58 679.331 1455 Q682.41 1450.39 688.22 1450.39 Z" fill="#000000" fill-rule="nonzero" fill-opacity="1" /><path clip-path="url(#clip220)" d="M718.382 1454.1 Q714.771 1454.1 712.942 1457.66 Q711.137 1461.2 711.137 1468.33 Q711.137 1475.44 712.942 1479.01 Q714.771 1482.55 718.382 1482.55 Q722.016 1482.55 723.822 1479.01 Q725.651 1475.44 725.651 1468.33 Q725.651 1461.2 723.822 1457.66 Q722.016 1454.1 718.382 1454.1 M718.382 1450.39 Q724.192 1450.39 727.248 1455 Q730.327 1459.58 730.327 1468.33 Q730.327 1477.06 727.248 1481.67 Q724.192 1486.25 718.382 1486.25 Q712.572 1486.25 709.493 1481.67 Q706.438 1477.06 706.438 1468.33 Q706.438 1459.58 709.493 1455 Q712.572 1450.39 718.382 1450.39 Z" fill="#000000" fill-rule="nonzero" fill-opacity="1" /><path clip-path="url(#clip220)" d="M1053.83 1481.64 L1070.14 1481.64 L1070.14 1485.58 L1048.2 1485.58 L1048.2 1481.64 Q1050.86 1478.89 1055.45 1474.26 Q1060.05 1469.61 1061.23 1468.27 Q1063.48 1465.74 1064.36 1464.01 Q1065.26 1462.25 1065.26 1460.56 Q1065.26 1457.8 1063.32 1456.07 Q1061.39 1454.33 1058.29 1454.33 Q1056.09 1454.33 1053.64 1455.09 Q1051.21 1455.86 1048.43 1457.41 L1048.43 1452.69 Q1051.26 1451.55 1053.71 1450.97 Q1056.16 1450.39 1058.2 1450.39 Q1063.57 1450.39 1066.76 1453.08 Q1069.96 1455.77 1069.96 1460.26 Q1069.96 1462.39 1069.15 1464.31 Q1068.36 1466.2 1066.26 1468.8 Q1065.68 1469.47 1062.58 1472.69 Q1059.47 1475.88 1053.83 1481.64 Z" fill="#000000" fill-rule="nonzero" fill-opacity="1" /><path clip-path="url(#clip220)" d="M1089.96 1454.1 Q1086.35 1454.1 1084.52 1457.66 Q1082.71 1461.2 1082.71 1468.33 Q1082.71 1475.44 1084.52 1479.01 Q1086.35 1482.55 1089.96 1482.55 Q1093.59 1482.55 1095.4 1479.01 Q1097.23 1475.44 1097.23 1468.33 Q1097.23 1461.2 1095.4 1457.66 Q1093.59 1454.1 1089.96 1454.1 M1089.96 1450.39 Q1095.77 1450.39 1098.82 1455 Q1101.9 1459.58 1101.9 1468.33 Q1101.9 1477.06 1098.82 1481.67 Q1095.77 1486.25 1089.96 1486.25 Q1084.15 1486.25 1081.07 1481.67 Q1078.01 1477.06 1078.01 1468.33 Q1078.01 1459.58 1081.07 1455 Q1084.15 1450.39 1089.96 1450.39 Z" fill="#000000" fill-rule="nonzero" fill-opacity="1" /><path clip-path="url(#clip220)" d="M1120.12 1454.1 Q1116.51 1454.1 1114.68 1457.66 Q1112.88 1461.2 1112.88 1468.33 Q1112.88 1475.44 1114.68 1479.01 Q1116.51 1482.55 1120.12 1482.55 Q1123.76 1482.55 1125.56 1479.01 Q1127.39 1475.44 1127.39 1468.33 Q1127.39 1461.2 1125.56 1457.66 Q1123.76 1454.1 1120.12 1454.1 M1120.12 1450.39 Q1125.93 1450.39 1128.99 1455 Q1132.07 1459.58 1132.07 1468.33 Q1132.07 1477.06 1128.99 1481.67 Q1125.93 1486.25 1120.12 1486.25 Q1114.31 1486.25 1111.23 1481.67 Q1108.18 1477.06 1108.18 1468.33 Q1108.18 1459.58 1111.23 1455 Q1114.31 1450.39 1120.12 1450.39 Z" fill="#000000" fill-rule="nonzero" fill-opacity="1" /><path clip-path="url(#clip220)" d="M1464.77 1466.95 Q1468.12 1467.66 1470 1469.93 Q1471.9 1472.2 1471.9 1475.53 Q1471.9 1480.65 1468.38 1483.45 Q1464.86 1486.25 1458.38 1486.25 Q1456.2 1486.25 1453.89 1485.81 Q1451.59 1485.39 1449.14 1484.54 L1449.14 1480.02 Q1451.08 1481.16 1453.4 1481.74 Q1455.71 1482.32 1458.24 1482.32 Q1462.64 1482.32 1464.93 1480.58 Q1467.24 1478.84 1467.24 1475.53 Q1467.24 1472.48 1465.09 1470.77 Q1462.96 1469.03 1459.14 1469.03 L1455.11 1469.03 L1455.11 1465.19 L1459.33 1465.19 Q1462.77 1465.19 1464.6 1463.82 Q1466.43 1462.43 1466.43 1459.84 Q1466.43 1457.18 1464.53 1455.77 Q1462.66 1454.33 1459.14 1454.33 Q1457.22 1454.33 1455.02 1454.75 Q1452.82 1455.16 1450.18 1456.04 L1450.18 1451.88 Q1452.84 1451.14 1455.16 1450.77 Q1457.5 1450.39 1459.56 1450.39 Q1464.88 1450.39 1467.98 1452.83 Q1471.08 1455.23 1471.08 1459.35 Q1471.08 1462.22 1469.44 1464.21 Q1467.8 1466.18 1464.77 1466.95 Z" fill="#000000" fill-rule="nonzero" fill-opacity="1" /><path clip-path="url(#clip220)" d="M1490.76 1454.1 Q1487.15 1454.1 1485.32 1457.66 Q1483.52 1461.2 1483.52 1468.33 Q1483.52 1475.44 1485.32 1479.01 Q1487.15 1482.55 1490.76 1482.55 Q1494.39 1482.55 1496.2 1479.01 Q1498.03 1475.44 1498.03 1468.33 Q1498.03 1461.2 1496.2 1457.66 Q1494.39 1454.1 1490.76 1454.1 M1490.76 1450.39 Q1496.57 1450.39 1499.63 1455 Q1502.71 1459.58 1502.71 1468.33 Q1502.71 1477.06 1499.63 1481.67 Q1496.57 1486.25 1490.76 1486.25 Q1484.95 1486.25 1481.87 1481.67 Q1478.82 1477.06 1478.82 1468.33 Q1478.82 1459.58 1481.87 1455 Q1484.95 1450.39 1490.76 1450.39 Z" fill="#000000" fill-rule="nonzero" fill-opacity="1" /><path clip-path="url(#clip220)" d="M1520.92 1454.1 Q1517.31 1454.1 1515.48 1457.66 Q1513.68 1461.2 1513.68 1468.33 Q1513.68 1475.44 1515.48 1479.01 Q1517.31 1482.55 1520.92 1482.55 Q1524.56 1482.55 1526.36 1479.01 Q1528.19 1475.44 1528.19 1468.33 Q1528.19 1461.2 1526.36 1457.66 Q1524.56 1454.1 1520.92 1454.1 M1520.92 1450.39 Q1526.73 1450.39 1529.79 1455 Q1532.87 1459.58 1532.87 1468.33 Q1532.87 1477.06 1529.79 1481.67 Q1526.73 1486.25 1520.92 1486.25 Q1515.11 1486.25 1512.03 1481.67 Q1508.98 1477.06 1508.98 1468.33 Q1508.98 1459.58 1512.03 1455 Q1515.11 1450.39 1520.92 1450.39 Z" fill="#000000" fill-rule="nonzero" fill-opacity="1" /><path clip-path="url(#clip220)" d="M1864.97 1455.09 L1853.16 1473.54 L1864.97 1473.54 L1864.97 1455.09 M1863.74 1451.02 L1869.62 1451.02 L1869.62 1473.54 L1874.55 1473.54 L1874.55 1477.43 L1869.62 1477.43 L1869.62 1485.58 L1864.97 1485.58 L1864.97 1477.43 L1849.36 1477.43 L1849.36 1472.92 L1863.74 1451.02 Z" fill="#000000" fill-rule="nonzero" fill-opacity="1" /><path clip-path="url(#clip220)" d="M1892.28 1454.1 Q1888.67 1454.1 1886.84 1457.66 Q1885.03 1461.2 1885.03 1468.33 Q1885.03 1475.44 1886.84 1479.01 Q1888.67 1482.55 1892.28 1482.55 Q1895.91 1482.55 1897.72 1479.01 Q1899.55 1475.44 1899.55 1468.33 Q1899.55 1461.2 1897.72 1457.66 Q1895.91 1454.1 1892.28 1454.1 M1892.28 1450.39 Q1898.09 1450.39 1901.15 1455 Q1904.22 1459.58 1904.22 1468.33 Q1904.22 1477.06 1901.15 1481.67 Q1898.09 1486.25 1892.28 1486.25 Q1886.47 1486.25 1883.39 1481.67 Q1880.34 1477.06 1880.34 1468.33 Q1880.34 1459.58 1883.39 1455 Q1886.47 1450.39 1892.28 1450.39 Z" fill="#000000" fill-rule="nonzero" fill-opacity="1" /><path clip-path="url(#clip220)" d="M1922.44 1454.1 Q1918.83 1454.1 1917 1457.66 Q1915.2 1461.2 1915.2 1468.33 Q1915.2 1475.44 1917 1479.01 Q1918.83 1482.55 1922.44 1482.55 Q1926.08 1482.55 1927.88 1479.01 Q1929.71 1475.44 1929.71 1468.33 Q1929.71 1461.2 1927.88 1457.66 Q1926.08 1454.1 1922.44 1454.1 M1922.44 1450.39 Q1928.25 1450.39 1931.31 1455 Q1934.39 1459.58 1934.39 1468.33 Q1934.39 1477.06 1931.31 1481.67 Q1928.25 1486.25 1922.44 1486.25 Q1916.63 1486.25 1913.55 1481.67 Q1910.5 1477.06 1910.5 1468.33 Q1910.5 1459.58 1913.55 1455 Q1916.63 1450.39 1922.44 1450.39 Z" fill="#000000" fill-rule="nonzero" fill-opacity="1" /><path clip-path="url(#clip220)" d="M2252.36 1451.02 L2270.72 1451.02 L2270.72 1454.96 L2256.65 1454.96 L2256.65 1463.43 Q2257.66 1463.08 2258.68 1462.92 Q2259.7 1462.73 2260.72 1462.73 Q2266.51 1462.73 2269.89 1465.9 Q2273.27 1469.08 2273.27 1474.49 Q2273.27 1480.07 2269.79 1483.17 Q2266.32 1486.25 2260 1486.25 Q2257.83 1486.25 2255.56 1485.88 Q2253.31 1485.51 2250.91 1484.77 L2250.91 1480.07 Q2252.99 1481.2 2255.21 1481.76 Q2257.43 1482.32 2259.91 1482.32 Q2263.91 1482.32 2266.25 1480.21 Q2268.59 1478.1 2268.59 1474.49 Q2268.59 1470.88 2266.25 1468.77 Q2263.91 1466.67 2259.91 1466.67 Q2258.04 1466.67 2256.16 1467.08 Q2254.31 1467.5 2252.36 1468.38 L2252.36 1451.02 Z" fill="#000000" fill-rule="nonzero" fill-opacity="1" /><path clip-path="url(#clip220)" d="M2292.48 1454.1 Q2288.87 1454.1 2287.04 1457.66 Q2285.23 1461.2 2285.23 1468.33 Q2285.23 1475.44 2287.04 1479.01 Q2288.87 1482.55 2292.48 1482.55 Q2296.11 1482.55 2297.92 1479.01 Q2299.75 1475.44 2299.75 1468.33 Q2299.75 1461.2 2297.92 1457.66 Q2296.11 1454.1 2292.48 1454.1 M2292.48 1450.39 Q2298.29 1450.39 2301.35 1455 Q2304.42 1459.58 2304.42 1468.33 Q2304.42 1477.06 2301.35 1481.67 Q2298.29 1486.25 2292.48 1486.25 Q2286.67 1486.25 2283.59 1481.67 Q2280.53 1477.06 2280.53 1468.33 Q2280.53 1459.58 2283.59 1455 Q2286.67 1450.39 2292.48 1450.39 Z" fill="#000000" fill-rule="nonzero" fill-opacity="1" /><path clip-path="url(#clip220)" d="M2322.64 1454.1 Q2319.03 1454.1 2317.2 1457.66 Q2315.4 1461.2 2315.4 1468.33 Q2315.4 1475.44 2317.2 1479.01 Q2319.03 1482.55 2322.64 1482.55 Q2326.28 1482.55 2328.08 1479.01 Q2329.91 1475.44 2329.91 1468.33 Q2329.91 1461.2 2328.08 1457.66 Q2326.28 1454.1 2322.64 1454.1 M2322.64 1450.39 Q2328.45 1450.39 2331.51 1455 Q2334.59 1459.58 2334.59 1468.33 Q2334.59 1477.06 2331.51 1481.67 Q2328.45 1486.25 2322.64 1486.25 Q2316.83 1486.25 2313.75 1481.67 Q2310.7 1477.06 2310.7 1468.33 Q2310.7 1459.58 2313.75 1455 Q2316.83 1450.39 2322.64 1450.39 Z" fill="#000000" fill-rule="nonzero" fill-opacity="1" /><path clip-path="url(#clip220)" d="M1252.88 1522.08 L1252.88 1528.35 Q1249.22 1526.6 1245.98 1525.74 Q1242.73 1524.88 1239.71 1524.88 Q1234.45 1524.88 1231.59 1526.92 Q1228.76 1528.96 1228.76 1532.71 Q1228.76 1535.87 1230.63 1537.49 Q1232.54 1539.08 1237.83 1540.07 L1241.71 1540.86 Q1248.9 1542.23 1252.31 1545.7 Q1255.75 1549.14 1255.75 1554.93 Q1255.75 1561.84 1251.1 1565.4 Q1246.48 1568.97 1237.54 1568.97 Q1234.17 1568.97 1230.35 1568.2 Q1226.56 1567.44 1222.49 1565.94 L1222.49 1559.32 Q1226.4 1561.52 1230.16 1562.63 Q1233.91 1563.75 1237.54 1563.75 Q1243.05 1563.75 1246.04 1561.58 Q1249.03 1559.42 1249.03 1555.41 Q1249.03 1551.91 1246.87 1549.93 Q1244.73 1547.96 1239.83 1546.97 L1235.92 1546.21 Q1228.72 1544.78 1225.51 1541.72 Q1222.3 1538.67 1222.3 1533.22 Q1222.3 1526.92 1226.72 1523.29 Q1231.18 1519.66 1238.97 1519.66 Q1242.32 1519.66 1245.78 1520.27 Q1249.25 1520.87 1252.88 1522.08 Z" fill="#000000" fill-rule="nonzero" fill-opacity="1" /><path clip-path="url(#clip220)" d="M1271.31 1522.27 L1271.31 1532.4 L1283.37 1532.4 L1283.37 1536.95 L1271.31 1536.95 L1271.31 1556.3 Q1271.31 1560.66 1272.49 1561.9 Q1273.7 1563.14 1277.36 1563.14 L1283.37 1563.14 L1283.37 1568.04 L1277.36 1568.04 Q1270.58 1568.04 1268 1565.53 Q1265.42 1562.98 1265.42 1556.3 L1265.42 1536.95 L1261.13 1536.95 L1261.13 1532.4 L1265.42 1532.4 L1265.42 1522.27 L1271.31 1522.27 Z" fill="#000000" fill-rule="nonzero" fill-opacity="1" /><path clip-path="url(#clip220)" d="M1321.57 1548.76 L1321.57 1551.62 L1294.64 1551.62 Q1295.02 1557.67 1298.27 1560.85 Q1301.55 1564 1307.37 1564 Q1310.75 1564 1313.9 1563.17 Q1317.08 1562.35 1320.2 1560.69 L1320.2 1566.23 Q1317.05 1567.57 1313.74 1568.27 Q1310.43 1568.97 1307.02 1568.97 Q1298.49 1568.97 1293.5 1564 Q1288.53 1559.04 1288.53 1550.57 Q1288.53 1541.82 1293.24 1536.69 Q1297.98 1531.54 1306 1531.54 Q1313.2 1531.54 1317.37 1536.18 Q1321.57 1540.8 1321.57 1548.76 M1315.71 1547.04 Q1315.65 1542.23 1313.01 1539.37 Q1310.4 1536.5 1306.07 1536.5 Q1301.17 1536.5 1298.21 1539.27 Q1295.28 1542.04 1294.83 1547.07 L1315.71 1547.04 Z" fill="#000000" fill-rule="nonzero" fill-opacity="1" /><path clip-path="url(#clip220)" d="M1336.85 1562.7 L1336.85 1581.6 L1330.96 1581.6 L1330.96 1532.4 L1336.85 1532.4 L1336.85 1537.81 Q1338.69 1534.62 1341.49 1533.1 Q1344.33 1531.54 1348.24 1531.54 Q1354.73 1531.54 1358.78 1536.69 Q1362.85 1541.85 1362.85 1550.25 Q1362.85 1558.65 1358.78 1563.81 Q1354.73 1568.97 1348.24 1568.97 Q1344.33 1568.97 1341.49 1567.44 Q1338.69 1565.88 1336.85 1562.7 M1356.77 1550.25 Q1356.77 1543.79 1354.1 1540.13 Q1351.46 1536.44 1346.81 1536.44 Q1342.16 1536.44 1339.49 1540.13 Q1336.85 1543.79 1336.85 1550.25 Q1336.85 1556.71 1339.49 1560.4 Q1342.16 1564.07 1346.81 1564.07 Q1351.46 1564.07 1354.1 1560.4 Q1356.77 1556.71 1356.77 1550.25 Z" fill="#000000" fill-rule="nonzero" fill-opacity="1" /><polyline clip-path="url(#clip220)" style="stroke:#000000; stroke-linecap:round; stroke-linejoin:round; stroke-width:4; stroke-opacity:1; fill:none" points="232.389,1423.18 232.389,123.472 "/>
<polyline clip-path="url(#clip220)" style="stroke:#000000; stroke-linecap:round; stroke-linejoin:round; stroke-width:4; stroke-opacity:1; fill:none" points="232.389,1299.84 251.287,1299.84 "/>
<polyline clip-path="url(#clip220)" style="stroke:#000000; stroke-linecap:round; stroke-linejoin:round; stroke-width:4; stroke-opacity:1; fill:none" points="232.389,1011.34 251.287,1011.34 "/>
<polyline clip-path="url(#clip220)" style="stroke:#000000; stroke-linecap:round; stroke-linejoin:round; stroke-width:4; stroke-opacity:1; fill:none" points="232.389,722.838 251.287,722.838 "/>
<polyline clip-path="url(#clip220)" style="stroke:#000000; stroke-linecap:round; stroke-linejoin:round; stroke-width:4; stroke-opacity:1; fill:none" points="232.389,434.335 251.287,434.335 "/>
<polyline clip-path="url(#clip220)" style="stroke:#000000; stroke-linecap:round; stroke-linejoin:round; stroke-width:4; stroke-opacity:1; fill:none" points="232.389,145.831 251.287,145.831 "/>
<path clip-path="url(#clip220)" d="M148.311 1313.19 L164.63 1313.19 L164.63 1317.12 L142.686 1317.12 L142.686 1313.19 Q145.348 1310.43 149.931 1305.81 Q154.538 1301.15 155.718 1299.81 Q157.964 1297.29 158.843 1295.55 Q159.746 1293.79 159.746 1292.1 Q159.746 1289.35 157.802 1287.61 Q155.88 1285.87 152.778 1285.87 Q150.579 1285.87 148.126 1286.64 Q145.695 1287.4 142.917 1288.95 L142.917 1284.23 Q145.741 1283.1 148.195 1282.52 Q150.649 1281.94 152.686 1281.94 Q158.056 1281.94 161.251 1284.62 Q164.445 1287.31 164.445 1291.8 Q164.445 1293.93 163.635 1295.85 Q162.848 1297.75 160.741 1300.34 Q160.163 1301.01 157.061 1304.23 Q153.959 1307.43 148.311 1313.19 Z" fill="#000000" fill-rule="nonzero" fill-opacity="1" /><path clip-path="url(#clip220)" d="M184.445 1285.64 Q180.834 1285.64 179.005 1289.21 Q177.2 1292.75 177.2 1299.88 Q177.2 1306.99 179.005 1310.55 Q180.834 1314.09 184.445 1314.09 Q188.079 1314.09 189.885 1310.55 Q191.713 1306.99 191.713 1299.88 Q191.713 1292.75 189.885 1289.21 Q188.079 1285.64 184.445 1285.64 M184.445 1281.94 Q190.255 1281.94 193.311 1286.55 Q196.389 1291.13 196.389 1299.88 Q196.389 1308.61 193.311 1313.21 Q190.255 1317.8 184.445 1317.8 Q178.635 1317.8 175.556 1313.21 Q172.501 1308.61 172.501 1299.88 Q172.501 1291.13 175.556 1286.55 Q178.635 1281.94 184.445 1281.94 Z" fill="#000000" fill-rule="nonzero" fill-opacity="1" /><path clip-path="url(#clip220)" d="M157.13 998.135 L145.325 1016.58 L157.13 1016.58 L157.13 998.135 M155.903 994.061 L161.783 994.061 L161.783 1016.58 L166.714 1016.58 L166.714 1020.47 L161.783 1020.47 L161.783 1028.62 L157.13 1028.62 L157.13 1020.47 L141.529 1020.47 L141.529 1015.96 L155.903 994.061 Z" fill="#000000" fill-rule="nonzero" fill-opacity="1" /><path clip-path="url(#clip220)" d="M184.445 997.14 Q180.834 997.14 179.005 1000.7 Q177.2 1004.25 177.2 1011.38 Q177.2 1018.48 179.005 1022.05 Q180.834 1025.59 184.445 1025.59 Q188.079 1025.59 189.885 1022.05 Q191.713 1018.48 191.713 1011.38 Q191.713 1004.25 189.885 1000.7 Q188.079 997.14 184.445 997.14 M184.445 993.436 Q190.255 993.436 193.311 998.043 Q196.389 1002.63 196.389 1011.38 Q196.389 1020.1 193.311 1024.71 Q190.255 1029.29 184.445 1029.29 Q178.635 1029.29 175.556 1024.71 Q172.501 1020.1 172.501 1011.38 Q172.501 1002.63 175.556 998.043 Q178.635 993.436 184.445 993.436 Z" fill="#000000" fill-rule="nonzero" fill-opacity="1" /><path clip-path="url(#clip220)" d="M154.862 720.974 Q151.714 720.974 149.862 723.127 Q148.033 725.28 148.033 729.03 Q148.033 732.757 149.862 734.933 Q151.714 737.086 154.862 737.086 Q158.01 737.086 159.839 734.933 Q161.69 732.757 161.69 729.03 Q161.69 725.28 159.839 723.127 Q158.01 720.974 154.862 720.974 M164.144 706.322 L164.144 710.581 Q162.385 709.748 160.579 709.308 Q158.797 708.868 157.038 708.868 Q152.408 708.868 149.954 711.993 Q147.524 715.118 147.177 721.437 Q148.542 719.424 150.603 718.359 Q152.663 717.271 155.14 717.271 Q160.348 717.271 163.357 720.442 Q166.39 723.59 166.39 729.03 Q166.39 734.354 163.241 737.572 Q160.093 740.789 154.862 740.789 Q148.866 740.789 145.695 736.206 Q142.524 731.599 142.524 722.873 Q142.524 714.678 146.413 709.817 Q150.302 704.933 156.853 704.933 Q158.612 704.933 160.394 705.28 Q162.2 705.627 164.144 706.322 Z" fill="#000000" fill-rule="nonzero" fill-opacity="1" /><path clip-path="url(#clip220)" d="M184.445 708.637 Q180.834 708.637 179.005 712.201 Q177.2 715.743 177.2 722.873 Q177.2 729.979 179.005 733.544 Q180.834 737.086 184.445 737.086 Q188.079 737.086 189.885 733.544 Q191.713 729.979 191.713 722.873 Q191.713 715.743 189.885 712.201 Q188.079 708.637 184.445 708.637 M184.445 704.933 Q190.255 704.933 193.311 709.539 Q196.389 714.123 196.389 722.873 Q196.389 731.599 193.311 736.206 Q190.255 740.789 184.445 740.789 Q178.635 740.789 175.556 736.206 Q172.501 731.599 172.501 722.873 Q172.501 714.123 175.556 709.539 Q178.635 704.933 184.445 704.933 Z" fill="#000000" fill-rule="nonzero" fill-opacity="1" /><path clip-path="url(#clip220)" d="M154.283 435.203 Q150.95 435.203 149.028 436.985 Q147.13 438.767 147.13 441.892 Q147.13 445.017 149.028 446.8 Q150.95 448.582 154.283 448.582 Q157.616 448.582 159.538 446.8 Q161.459 444.994 161.459 441.892 Q161.459 438.767 159.538 436.985 Q157.64 435.203 154.283 435.203 M149.607 433.212 Q146.598 432.471 144.908 430.411 Q143.241 428.351 143.241 425.388 Q143.241 421.244 146.181 418.837 Q149.144 416.43 154.283 416.43 Q159.445 416.43 162.385 418.837 Q165.325 421.244 165.325 425.388 Q165.325 428.351 163.635 430.411 Q161.968 432.471 158.982 433.212 Q162.362 433.999 164.237 436.291 Q166.135 438.582 166.135 441.892 Q166.135 446.915 163.056 449.601 Q160.001 452.286 154.283 452.286 Q148.566 452.286 145.487 449.601 Q142.431 446.915 142.431 441.892 Q142.431 438.582 144.329 436.291 Q146.228 433.999 149.607 433.212 M147.894 425.828 Q147.894 428.513 149.561 430.017 Q151.251 431.522 154.283 431.522 Q157.292 431.522 158.982 430.017 Q160.695 428.513 160.695 425.828 Q160.695 423.142 158.982 421.638 Q157.292 420.133 154.283 420.133 Q151.251 420.133 149.561 421.638 Q147.894 423.142 147.894 425.828 Z" fill="#000000" fill-rule="nonzero" fill-opacity="1" /><path clip-path="url(#clip220)" d="M184.445 420.133 Q180.834 420.133 179.005 423.698 Q177.2 427.24 177.2 434.369 Q177.2 441.476 179.005 445.04 Q180.834 448.582 184.445 448.582 Q188.079 448.582 189.885 445.04 Q191.713 441.476 191.713 434.369 Q191.713 427.24 189.885 423.698 Q188.079 420.133 184.445 420.133 M184.445 416.43 Q190.255 416.43 193.311 421.036 Q196.389 425.619 196.389 434.369 Q196.389 443.096 193.311 447.702 Q190.255 452.286 184.445 452.286 Q178.635 452.286 175.556 447.702 Q172.501 443.096 172.501 434.369 Q172.501 425.619 175.556 421.036 Q178.635 416.43 184.445 416.43 Z" fill="#000000" fill-rule="nonzero" fill-opacity="1" /><path clip-path="url(#clip220)" d="M114.931 159.176 L122.57 159.176 L122.57 132.81 L114.26 134.477 L114.26 130.218 L122.524 128.551 L127.2 128.551 L127.2 159.176 L134.839 159.176 L134.839 163.111 L114.931 163.111 L114.931 159.176 Z" fill="#000000" fill-rule="nonzero" fill-opacity="1" /><path clip-path="url(#clip220)" d="M154.283 131.63 Q150.672 131.63 148.843 135.195 Q147.038 138.736 147.038 145.866 Q147.038 152.972 148.843 156.537 Q150.672 160.079 154.283 160.079 Q157.917 160.079 159.723 156.537 Q161.552 152.972 161.552 145.866 Q161.552 138.736 159.723 135.195 Q157.917 131.63 154.283 131.63 M154.283 127.926 Q160.093 127.926 163.149 132.533 Q166.227 137.116 166.227 145.866 Q166.227 154.593 163.149 159.199 Q160.093 163.782 154.283 163.782 Q148.473 163.782 145.394 159.199 Q142.339 154.593 142.339 145.866 Q142.339 137.116 145.394 132.533 Q148.473 127.926 154.283 127.926 Z" fill="#000000" fill-rule="nonzero" fill-opacity="1" /><path clip-path="url(#clip220)" d="M184.445 131.63 Q180.834 131.63 179.005 135.195 Q177.2 138.736 177.2 145.866 Q177.2 152.972 179.005 156.537 Q180.834 160.079 184.445 160.079 Q188.079 160.079 189.885 156.537 Q191.713 152.972 191.713 145.866 Q191.713 138.736 189.885 135.195 Q188.079 131.63 184.445 131.63 M184.445 127.926 Q190.255 127.926 193.311 132.533 Q196.389 137.116 196.389 145.866 Q196.389 154.593 193.311 159.199 Q190.255 163.782 184.445 163.782 Q178.635 163.782 175.556 159.199 Q172.501 154.593 172.501 145.866 Q172.501 137.116 175.556 132.533 Q178.635 127.926 184.445 127.926 Z" fill="#000000" fill-rule="nonzero" fill-opacity="1" /><path clip-path="url(#clip220)" d="M16.4842 1039.08 L16.4842 1029.5 L48.8219 1017.37 L16.4842 1005.18 L16.4842 995.601 L64.0042 995.601 L64.0042 1001.87 L22.277 1001.87 L54.8694 1014.12 L54.8694 1020.59 L22.277 1032.84 L64.0042 1032.84 L64.0042 1039.08 L16.4842 1039.08 Z" fill="#000000" fill-rule="nonzero" fill-opacity="1" /><path clip-path="url(#clip220)" d="M46.0847 966.891 Q46.0847 973.989 47.7079 976.726 Q49.3312 979.463 53.2461 979.463 Q56.3653 979.463 58.2114 977.426 Q60.0256 975.358 60.0256 971.825 Q60.0256 966.955 56.5881 964.027 Q53.1188 961.067 47.3897 961.067 L46.0847 961.067 L46.0847 966.891 M43.6657 955.21 L64.0042 955.21 L64.0042 961.067 L58.5933 961.067 Q61.8398 963.072 63.3994 966.064 Q64.9272 969.056 64.9272 973.384 Q64.9272 978.859 61.8716 982.105 Q58.7843 985.32 53.6281 985.32 Q47.6125 985.32 44.5569 981.31 Q41.5014 977.267 41.5014 969.278 L41.5014 961.067 L40.9285 961.067 Q36.8862 961.067 34.6901 963.74 Q32.4621 966.382 32.4621 971.188 Q32.4621 974.244 33.1941 977.14 Q33.9262 980.036 35.3903 982.71 L29.9795 982.71 Q28.7381 979.495 28.1334 976.472 Q27.4968 973.448 27.4968 970.583 Q27.4968 962.849 31.5072 959.03 Q35.5176 955.21 43.6657 955.21 Z" fill="#000000" fill-rule="nonzero" fill-opacity="1" /><path clip-path="url(#clip220)" d="M28.3562 913.515 L45.7028 926.405 L64.0042 912.846 L64.0042 919.753 L49.9996 930.129 L64.0042 940.505 L64.0042 947.412 L45.3526 933.567 L28.3562 946.234 L28.3562 939.328 L41.0558 929.875 L28.3562 920.422 L28.3562 913.515 Z" fill="#000000" fill-rule="nonzero" fill-opacity="1" /><path clip-path="url(#clip220)" d="M20.1444 848.012 L26.9239 848.012 Q23.9002 851.258 22.4043 854.95 Q20.9083 858.611 20.9083 862.748 Q20.9083 870.896 25.9054 875.225 Q30.8707 879.554 40.2919 879.554 Q49.6813 879.554 54.6784 875.225 Q59.6436 870.896 59.6436 862.748 Q59.6436 858.611 58.1477 854.95 Q56.6518 851.258 53.6281 848.012 L60.3439 848.012 Q62.6355 851.385 63.7814 855.173 Q64.9272 858.929 64.9272 863.13 Q64.9272 873.92 58.3387 880.127 Q51.7183 886.333 40.2919 886.333 Q28.8336 886.333 22.2451 880.127 Q15.6248 873.92 15.6248 863.13 Q15.6248 858.865 16.7706 855.109 Q17.8846 851.322 20.1444 848.012 Z" fill="#000000" fill-rule="nonzero" fill-opacity="1" /><path clip-path="url(#clip220)" d="M14.479 838.336 L14.479 832.479 L64.0042 832.479 L64.0042 838.336 L14.479 838.336 Z" fill="#000000" fill-rule="nonzero" fill-opacity="1" /><path clip-path="url(#clip220)" d="M49.9359 820.83 L28.3562 820.83 L28.3562 814.974 L49.7131 814.974 Q54.7739 814.974 57.3202 813 Q59.8346 811.027 59.8346 807.08 Q59.8346 802.338 56.8109 799.6 Q53.7872 796.831 48.5673 796.831 L28.3562 796.831 L28.3562 790.975 L64.0042 790.975 L64.0042 796.831 L58.5296 796.831 Q61.7762 798.964 63.3676 801.797 Q64.9272 804.598 64.9272 808.321 Q64.9272 814.464 61.1078 817.647 Q57.2883 820.83 49.9359 820.83 M27.4968 806.093 L27.4968 806.093 Z" fill="#000000" fill-rule="nonzero" fill-opacity="1" /><path clip-path="url(#clip220)" d="M29.4065 756.186 L34.9447 756.186 Q33.6716 758.669 33.035 761.343 Q32.3984 764.016 32.3984 766.881 Q32.3984 771.241 33.7352 773.437 Q35.072 775.602 37.7456 775.602 Q39.7826 775.602 40.9603 774.042 Q42.1061 772.483 43.1565 767.772 L43.6021 765.767 Q44.9389 759.528 47.3897 756.918 Q49.8086 754.277 54.1691 754.277 Q59.1344 754.277 62.0308 758.223 Q64.9272 762.138 64.9272 769.013 Q64.9272 771.878 64.3543 774.997 Q63.8132 778.084 62.6992 781.522 L56.6518 781.522 Q58.3387 778.275 59.198 775.124 Q60.0256 771.973 60.0256 768.886 Q60.0256 764.748 58.6251 762.52 Q57.1929 760.292 54.6147 760.292 Q52.2276 760.292 50.9545 761.915 Q49.6813 763.507 48.5037 768.95 L48.0262 770.987 Q46.8804 776.429 44.5251 778.848 Q42.138 781.267 38.0002 781.267 Q32.9713 781.267 30.2341 777.702 Q27.4968 774.138 27.4968 767.581 Q27.4968 764.334 27.9743 761.47 Q28.4517 758.605 29.4065 756.186 Z" fill="#000000" fill-rule="nonzero" fill-opacity="1" /><path clip-path="url(#clip220)" d="M18.2347 739.158 L28.3562 739.158 L28.3562 727.095 L32.9077 727.095 L32.9077 739.158 L52.2594 739.158 Q56.6199 739.158 57.8613 737.98 Q59.1026 736.771 59.1026 733.111 L59.1026 727.095 L64.0042 727.095 L64.0042 733.111 Q64.0042 739.89 61.4897 742.468 Q58.9434 745.046 52.2594 745.046 L32.9077 745.046 L32.9077 749.343 L28.3562 749.343 L28.3562 745.046 L18.2347 745.046 L18.2347 739.158 Z" fill="#000000" fill-rule="nonzero" fill-opacity="1" /><path clip-path="url(#clip220)" d="M44.7161 688.901 L47.5806 688.901 L47.5806 715.828 Q53.6281 715.446 56.8109 712.199 Q59.9619 708.921 59.9619 703.096 Q59.9619 699.723 59.1344 696.571 Q58.3069 693.389 56.6518 690.269 L62.1899 690.269 Q63.5267 693.42 64.227 696.731 Q64.9272 700.041 64.9272 703.446 Q64.9272 711.976 59.9619 716.974 Q54.9967 721.939 46.5303 721.939 Q37.7774 721.939 32.6531 717.228 Q27.4968 712.486 27.4968 704.465 Q27.4968 697.272 32.1438 693.102 Q36.7589 688.901 44.7161 688.901 M42.9973 694.757 Q38.1912 694.821 35.3266 697.463 Q32.4621 700.073 32.4621 704.401 Q32.4621 709.303 35.2312 712.263 Q38.0002 715.191 43.0292 715.637 L42.9973 694.757 Z" fill="#000000" fill-rule="nonzero" fill-opacity="1" /><path clip-path="url(#clip220)" d="M33.8307 658.632 Q33.2578 659.619 33.0032 660.796 Q32.7167 661.942 32.7167 663.342 Q32.7167 668.308 35.9632 670.981 Q39.1779 673.623 45.2253 673.623 L64.0042 673.623 L64.0042 679.511 L28.3562 679.511 L28.3562 673.623 L33.8944 673.623 Q30.6479 671.777 29.0883 668.817 Q27.4968 665.857 27.4968 661.624 Q27.4968 661.019 27.5923 660.287 Q27.656 659.555 27.8151 658.664 L33.8307 658.632 Z" fill="#000000" fill-rule="nonzero" fill-opacity="1" /><path clip-path="url(#clip220)" d="M18.0438 603.027 L24.314 603.027 Q22.5634 606.688 21.704 609.934 Q20.8447 613.181 20.8447 616.204 Q20.8447 621.456 22.8817 624.321 Q24.9187 627.153 28.6745 627.153 Q31.8255 627.153 33.4488 625.276 Q35.0402 623.366 36.0269 618.082 L36.8226 614.199 Q38.1912 607.006 41.6605 603.6 Q45.098 600.163 50.8908 600.163 Q57.7976 600.163 61.3624 604.81 Q64.9272 609.425 64.9272 618.369 Q64.9272 621.743 64.1633 625.562 Q63.3994 629.35 61.9035 633.424 L55.2831 633.424 Q57.4793 629.509 58.5933 625.753 Q59.7073 621.997 59.7073 618.369 Q59.7073 612.862 57.543 609.871 Q55.3786 606.879 51.3682 606.879 Q47.8671 606.879 45.8937 609.043 Q43.9204 611.176 42.9337 616.077 L42.1698 619.992 Q40.7375 627.185 37.682 630.4 Q34.6264 633.615 29.1837 633.615 Q22.8817 633.615 19.2532 629.19 Q15.6248 624.734 15.6248 616.936 Q15.6248 613.594 16.2295 610.125 Q16.8343 606.656 18.0438 603.027 Z" fill="#000000" fill-rule="nonzero" fill-opacity="1" /><path clip-path="url(#clip220)" d="M28.3562 590.391 L28.3562 584.535 L64.0042 584.535 L64.0042 590.391 L28.3562 590.391 M14.479 590.391 L14.479 584.535 L21.895 584.535 L21.895 590.391 L14.479 590.391 Z" fill="#000000" fill-rule="nonzero" fill-opacity="1" /><path clip-path="url(#clip220)" d="M28.3562 574.827 L28.3562 547.009 L33.7034 547.009 L59.3254 569.035 L59.3254 547.009 L64.0042 547.009 L64.0042 575.623 L58.657 575.623 L33.035 553.598 L33.035 574.827 L28.3562 574.827 Z" fill="#000000" fill-rule="nonzero" fill-opacity="1" /><path clip-path="url(#clip220)" d="M44.7161 507.574 L47.5806 507.574 L47.5806 534.501 Q53.6281 534.119 56.8109 530.872 Q59.9619 527.594 59.9619 521.769 Q59.9619 518.395 59.1344 515.244 Q58.3069 512.061 56.6518 508.942 L62.1899 508.942 Q63.5267 512.093 64.227 515.403 Q64.9272 518.714 64.9272 522.119 Q64.9272 530.649 59.9619 535.646 Q54.9967 540.612 46.5303 540.612 Q37.7774 540.612 32.6531 535.901 Q27.4968 531.159 27.4968 523.138 Q27.4968 515.945 32.1438 511.775 Q36.7589 507.574 44.7161 507.574 M42.9973 513.43 Q38.1912 513.494 35.3266 516.136 Q32.4621 518.745 32.4621 523.074 Q32.4621 527.976 35.2312 530.936 Q38.0002 533.864 43.0292 534.31 L42.9973 513.43 Z" fill="#000000" fill-rule="nonzero" fill-opacity="1" /><path clip-path="url(#clip220)" d="M840.087 16.7545 L840.087 25.383 Q835.955 21.5346 831.256 19.6307 Q826.597 17.7268 821.331 17.7268 Q810.961 17.7268 805.451 24.0867 Q799.942 30.4061 799.942 42.3968 Q799.942 54.3469 805.451 60.7069 Q810.961 67.0263 821.331 67.0263 Q826.597 67.0263 831.256 65.1223 Q835.955 63.2184 840.087 59.3701 L840.087 67.9175 Q835.793 70.8341 830.972 72.2924 Q826.192 73.7508 820.845 73.7508 Q807.112 73.7508 799.213 65.3654 Q791.314 56.9395 791.314 42.3968 Q791.314 27.8135 799.213 19.4281 Q807.112 11.0023 820.845 11.0023 Q826.273 11.0023 831.053 12.4606 Q835.874 13.8784 840.087 16.7545 Z" fill="#000000" fill-rule="nonzero" fill-opacity="1" /><path clip-path="url(#clip220)" d="M852.401 9.54393 L859.855 9.54393 L859.855 72.576 L852.401 72.576 L852.401 9.54393 Z" fill="#000000" fill-rule="nonzero" fill-opacity="1" /><path clip-path="url(#clip220)" d="M874.681 54.671 L874.681 27.2059 L882.135 27.2059 L882.135 54.3874 Q882.135 60.8284 884.647 64.0691 Q887.158 67.2693 892.181 67.2693 Q898.217 67.2693 901.701 63.421 Q905.225 59.5726 905.225 52.9291 L905.225 27.2059 L912.679 27.2059 L912.679 72.576 L905.225 72.576 L905.225 65.6084 Q902.511 69.7404 898.906 71.7658 Q895.341 73.7508 890.601 73.7508 Q882.783 73.7508 878.732 68.8897 Q874.681 64.0286 874.681 54.671 M893.437 26.1121 L893.437 26.1121 Z" fill="#000000" fill-rule="nonzero" fill-opacity="1" /><path clip-path="url(#clip220)" d="M956.955 28.5427 L956.955 35.5912 Q953.796 33.9709 950.393 33.1607 Q946.99 32.3505 943.344 32.3505 Q937.794 32.3505 934.999 34.0519 Q932.245 35.7533 932.245 39.156 Q932.245 41.7486 934.23 43.2475 Q936.215 44.7058 942.21 46.0426 L944.762 46.6097 Q952.702 48.3111 956.024 51.4303 Q959.386 54.509 959.386 60.0587 Q959.386 66.3781 954.363 70.0644 Q949.38 73.7508 940.63 73.7508 Q936.984 73.7508 933.014 73.0216 Q929.085 72.3329 924.71 70.9151 L924.71 63.2184 Q928.842 65.3654 932.852 66.4591 Q936.863 67.5124 940.792 67.5124 Q946.058 67.5124 948.894 65.73 Q951.73 63.9071 951.73 60.6258 Q951.73 57.5877 949.664 55.9673 Q947.638 54.3469 940.711 52.8481 L938.119 52.2405 Q931.191 50.7821 928.113 47.7845 Q925.034 44.7463 925.034 39.4801 Q925.034 33.0797 929.571 29.5959 Q934.108 26.1121 942.453 26.1121 Q946.585 26.1121 950.231 26.7198 Q953.877 27.3274 956.955 28.5427 Z" fill="#000000" fill-rule="nonzero" fill-opacity="1" /><path clip-path="url(#clip220)" d="M978.628 14.324 L978.628 27.2059 L993.98 27.2059 L993.98 32.9987 L978.628 32.9987 L978.628 57.6282 Q978.628 63.1779 980.126 64.7578 Q981.666 66.3376 986.324 66.3376 L993.98 66.3376 L993.98 72.576 L986.324 72.576 Q977.696 72.576 974.415 69.3758 Q971.133 66.1351 971.133 57.6282 L971.133 32.9987 L965.665 32.9987 L965.665 27.2059 L971.133 27.2059 L971.133 14.324 L978.628 14.324 Z" fill="#000000" fill-rule="nonzero" fill-opacity="1" /><path clip-path="url(#clip220)" d="M1042.59 48.0275 L1042.59 51.6733 L1008.32 51.6733 Q1008.81 59.3701 1012.94 63.421 Q1017.11 67.4314 1024.52 67.4314 Q1028.82 67.4314 1032.83 66.3781 Q1036.88 65.3249 1040.85 63.2184 L1040.85 70.267 Q1036.84 71.9684 1032.63 72.8596 Q1028.41 73.7508 1024.08 73.7508 Q1013.22 73.7508 1006.86 67.4314 Q1000.54 61.1119 1000.54 50.3365 Q1000.54 39.1965 1006.54 32.6746 Q1012.57 26.1121 1022.78 26.1121 Q1031.94 26.1121 1037.24 32.0264 Q1042.59 37.9003 1042.59 48.0275 M1035.14 45.84 Q1035.06 39.7232 1031.69 36.0774 Q1028.37 32.4315 1022.86 32.4315 Q1016.63 32.4315 1012.86 35.9558 Q1009.13 39.4801 1008.56 45.8805 L1035.14 45.84 Z" fill="#000000" fill-rule="nonzero" fill-opacity="1" /><path clip-path="url(#clip220)" d="M1081.12 34.1734 Q1079.86 33.4443 1078.36 33.1202 Q1076.9 32.7556 1075.12 32.7556 Q1068.8 32.7556 1065.4 36.8875 Q1062.04 40.9789 1062.04 48.6757 L1062.04 72.576 L1054.54 72.576 L1054.54 27.2059 L1062.04 27.2059 L1062.04 34.2544 Q1064.39 30.1225 1068.15 28.1376 Q1071.92 26.1121 1077.31 26.1121 Q1078.08 26.1121 1079.01 26.2337 Q1079.94 26.3147 1081.07 26.5172 L1081.12 34.1734 Z" fill="#000000" fill-rule="nonzero" fill-opacity="1" /><path clip-path="url(#clip220)" d="M1151.88 14.0809 L1151.88 22.0612 Q1147.23 19.8332 1143.09 18.7395 Q1138.96 17.6457 1135.11 17.6457 Q1128.43 17.6457 1124.78 20.2383 Q1121.18 22.8309 1121.18 27.611 Q1121.18 31.6214 1123.57 33.6873 Q1126 35.7128 1132.72 36.9686 L1137.67 37.9813 Q1146.82 39.7232 1151.16 44.1387 Q1155.53 48.5136 1155.53 55.8863 Q1155.53 64.6767 1149.62 69.2137 Q1143.74 73.7508 1132.36 73.7508 Q1128.07 73.7508 1123.2 72.7785 Q1118.38 71.8063 1113.2 69.9024 L1113.2 61.4765 Q1118.18 64.2716 1122.96 65.6895 Q1127.74 67.1073 1132.36 67.1073 Q1139.37 67.1073 1143.18 64.3527 Q1146.98 61.598 1146.98 56.4939 Q1146.98 52.0379 1144.23 49.5264 Q1141.51 47.0148 1135.28 45.759 L1130.29 44.7868 Q1121.14 42.9639 1117.05 39.075 Q1112.96 35.1862 1112.96 28.2591 Q1112.96 20.2383 1118.59 15.6203 Q1124.26 11.0023 1134.18 11.0023 Q1138.44 11.0023 1142.85 11.7719 Q1147.27 12.5416 1151.88 14.0809 Z" fill="#000000" fill-rule="nonzero" fill-opacity="1" /><path clip-path="url(#clip220)" d="M1167.97 27.2059 L1175.42 27.2059 L1175.42 72.576 L1167.97 72.576 L1167.97 27.2059 M1167.97 9.54393 L1175.42 9.54393 L1175.42 18.9825 L1167.97 18.9825 L1167.97 9.54393 Z" fill="#000000" fill-rule="nonzero" fill-opacity="1" /><path clip-path="url(#clip220)" d="M1187.78 27.2059 L1223.18 27.2059 L1223.18 34.0114 L1195.15 66.6212 L1223.18 66.6212 L1223.18 72.576 L1186.76 72.576 L1186.76 65.7705 L1214.8 33.1607 L1187.78 33.1607 L1187.78 27.2059 Z" fill="#000000" fill-rule="nonzero" fill-opacity="1" /><path clip-path="url(#clip220)" d="M1273.37 48.0275 L1273.37 51.6733 L1239.1 51.6733 Q1239.59 59.3701 1243.72 63.421 Q1247.89 67.4314 1255.3 67.4314 Q1259.6 67.4314 1263.61 66.3781 Q1267.66 65.3249 1271.63 63.2184 L1271.63 70.267 Q1267.62 71.9684 1263.41 72.8596 Q1259.19 73.7508 1254.86 73.7508 Q1244 73.7508 1237.64 67.4314 Q1231.32 61.1119 1231.32 50.3365 Q1231.32 39.1965 1237.32 32.6746 Q1243.35 26.1121 1253.56 26.1121 Q1262.72 26.1121 1268.02 32.0264 Q1273.37 37.9003 1273.37 48.0275 M1265.92 45.84 Q1265.84 39.7232 1262.47 36.0774 Q1259.15 32.4315 1253.64 32.4315 Q1247.41 32.4315 1243.64 35.9558 Q1239.91 39.4801 1239.34 45.8805 L1265.92 45.84 Z" fill="#000000" fill-rule="nonzero" fill-opacity="1" /><path clip-path="url(#clip220)" d="M1357.59 16.7545 L1357.59 25.383 Q1353.46 21.5346 1348.76 19.6307 Q1344.1 17.7268 1338.83 17.7268 Q1328.46 17.7268 1322.95 24.0867 Q1317.45 30.4061 1317.45 42.3968 Q1317.45 54.3469 1322.95 60.7069 Q1328.46 67.0263 1338.83 67.0263 Q1344.1 67.0263 1348.76 65.1223 Q1353.46 63.2184 1357.59 59.3701 L1357.59 67.9175 Q1353.3 70.8341 1348.48 72.2924 Q1343.7 73.7508 1338.35 73.7508 Q1324.62 73.7508 1316.72 65.3654 Q1308.82 56.9395 1308.82 42.3968 Q1308.82 27.8135 1316.72 19.4281 Q1324.62 11.0023 1338.35 11.0023 Q1343.78 11.0023 1348.56 12.4606 Q1353.38 13.8784 1357.59 16.7545 Z" fill="#000000" fill-rule="nonzero" fill-opacity="1" /><path clip-path="url(#clip220)" d="M1387.49 32.4315 Q1381.49 32.4315 1378.01 37.1306 Q1374.52 41.7891 1374.52 49.9314 Q1374.52 58.0738 1377.97 62.7728 Q1381.45 67.4314 1387.49 67.4314 Q1393.44 67.4314 1396.92 62.7323 Q1400.41 58.0333 1400.41 49.9314 Q1400.41 41.8701 1396.92 37.1711 Q1393.44 32.4315 1387.49 32.4315 M1387.49 26.1121 Q1397.21 26.1121 1402.76 32.4315 Q1408.31 38.7509 1408.31 49.9314 Q1408.31 61.0714 1402.76 67.4314 Q1397.21 73.7508 1387.49 73.7508 Q1377.72 73.7508 1372.17 67.4314 Q1366.66 61.0714 1366.66 49.9314 Q1366.66 38.7509 1372.17 32.4315 Q1377.72 26.1121 1387.49 26.1121 Z" fill="#000000" fill-rule="nonzero" fill-opacity="1" /><path clip-path="url(#clip220)" d="M1455.99 35.9153 Q1458.78 30.8922 1462.67 28.5022 Q1466.56 26.1121 1471.83 26.1121 Q1478.91 26.1121 1482.76 31.0947 Q1486.61 36.0368 1486.61 45.1919 L1486.61 72.576 L1479.12 72.576 L1479.12 45.4349 Q1479.12 38.913 1476.81 35.7533 Q1474.5 32.5936 1469.76 32.5936 Q1463.97 32.5936 1460.6 36.4419 Q1457.24 40.2903 1457.24 46.9338 L1457.24 72.576 L1449.75 72.576 L1449.75 45.4349 Q1449.75 38.8725 1447.44 35.7533 Q1445.13 32.5936 1440.31 32.5936 Q1434.6 32.5936 1431.24 36.4824 Q1427.87 40.3308 1427.87 46.9338 L1427.87 72.576 L1420.38 72.576 L1420.38 27.2059 L1427.87 27.2059 L1427.87 34.2544 Q1430.42 30.082 1433.99 28.0971 Q1437.55 26.1121 1442.46 26.1121 Q1447.4 26.1121 1450.84 28.6237 Q1454.33 31.1352 1455.99 35.9153 Z" fill="#000000" fill-rule="nonzero" fill-opacity="1" /><path clip-path="url(#clip220)" d="M1508.69 65.7705 L1508.69 89.8329 L1501.19 89.8329 L1501.19 27.2059 L1508.69 27.2059 L1508.69 34.0924 Q1511.04 30.0415 1514.6 28.0971 Q1518.21 26.1121 1523.19 26.1121 Q1531.45 26.1121 1536.6 32.6746 Q1541.78 39.2371 1541.78 49.9314 Q1541.78 60.6258 1536.6 67.1883 Q1531.45 73.7508 1523.19 73.7508 Q1518.21 73.7508 1514.6 71.8063 Q1511.04 69.8214 1508.69 65.7705 M1534.05 49.9314 Q1534.05 41.7081 1530.64 37.0496 Q1527.28 32.3505 1521.37 32.3505 Q1515.45 32.3505 1512.05 37.0496 Q1508.69 41.7081 1508.69 49.9314 Q1508.69 58.1548 1512.05 62.8538 Q1515.45 67.5124 1521.37 67.5124 Q1527.28 67.5124 1530.64 62.8538 Q1534.05 58.1548 1534.05 49.9314 Z" fill="#000000" fill-rule="nonzero" fill-opacity="1" /><path clip-path="url(#clip220)" d="M1574.76 49.7694 Q1565.73 49.7694 1562.24 51.8354 Q1558.76 53.9013 1558.76 58.8839 Q1558.76 62.8538 1561.35 65.2034 Q1563.98 67.5124 1568.48 67.5124 Q1574.68 67.5124 1578.4 63.1374 Q1582.17 58.7219 1582.17 51.4303 L1582.17 49.7694 L1574.76 49.7694 M1589.63 46.6907 L1589.63 72.576 L1582.17 72.576 L1582.17 65.6895 Q1579.62 69.8214 1575.81 71.8063 Q1572 73.7508 1566.49 73.7508 Q1559.53 73.7508 1555.4 69.8619 Q1551.3 65.9325 1551.3 59.3701 Q1551.3 51.7138 1556.41 47.825 Q1561.55 43.9361 1571.72 43.9361 L1582.17 43.9361 L1582.17 43.2069 Q1582.17 38.0623 1578.77 35.2672 Q1575.41 32.4315 1569.29 32.4315 Q1565.4 32.4315 1561.71 33.3632 Q1558.03 34.295 1554.63 36.1584 L1554.63 29.2718 Q1558.72 27.692 1562.57 26.9223 Q1566.41 26.1121 1570.06 26.1121 Q1579.9 26.1121 1584.76 31.2163 Q1589.63 36.3204 1589.63 46.6907 Z" fill="#000000" fill-rule="nonzero" fill-opacity="1" /><path clip-path="url(#clip220)" d="M1631.27 34.1734 Q1630.01 33.4443 1628.51 33.1202 Q1627.06 32.7556 1625.27 32.7556 Q1618.95 32.7556 1615.55 36.8875 Q1612.19 40.9789 1612.19 48.6757 L1612.19 72.576 L1604.69 72.576 L1604.69 27.2059 L1612.19 27.2059 L1612.19 34.2544 Q1614.54 30.1225 1618.31 28.1376 Q1622.07 26.1121 1627.46 26.1121 Q1628.23 26.1121 1629.16 26.2337 Q1630.09 26.3147 1631.23 26.5172 L1631.27 34.1734 Z" fill="#000000" fill-rule="nonzero" fill-opacity="1" /><path clip-path="url(#clip220)" d="M1639.09 27.2059 L1646.54 27.2059 L1646.54 72.576 L1639.09 72.576 L1639.09 27.2059 M1639.09 9.54393 L1646.54 9.54393 L1646.54 18.9825 L1639.09 18.9825 L1639.09 9.54393 Z" fill="#000000" fill-rule="nonzero" fill-opacity="1" /><path clip-path="url(#clip220)" d="M1691.06 28.5427 L1691.06 35.5912 Q1687.9 33.9709 1684.5 33.1607 Q1681.09 32.3505 1677.45 32.3505 Q1671.9 32.3505 1669.1 34.0519 Q1666.35 35.7533 1666.35 39.156 Q1666.35 41.7486 1668.33 43.2475 Q1670.32 44.7058 1676.31 46.0426 L1678.87 46.6097 Q1686.81 48.3111 1690.13 51.4303 Q1693.49 54.509 1693.49 60.0587 Q1693.49 66.3781 1688.47 70.0644 Q1683.48 73.7508 1674.73 73.7508 Q1671.09 73.7508 1667.12 73.0216 Q1663.19 72.3329 1658.81 70.9151 L1658.81 63.2184 Q1662.95 65.3654 1666.96 66.4591 Q1670.97 67.5124 1674.9 67.5124 Q1680.16 67.5124 1683 65.73 Q1685.83 63.9071 1685.83 60.6258 Q1685.83 57.5877 1683.77 55.9673 Q1681.74 54.3469 1674.82 52.8481 L1672.22 52.2405 Q1665.3 50.7821 1662.22 47.7845 Q1659.14 44.7463 1659.14 39.4801 Q1659.14 33.0797 1663.68 29.5959 Q1668.21 26.1121 1676.56 26.1121 Q1680.69 26.1121 1684.34 26.7198 Q1687.98 27.3274 1691.06 28.5427 Z" fill="#000000" fill-rule="nonzero" fill-opacity="1" /><path clip-path="url(#clip220)" d="M1722.94 32.4315 Q1716.95 32.4315 1713.46 37.1306 Q1709.98 41.7891 1709.98 49.9314 Q1709.98 58.0738 1713.42 62.7728 Q1716.9 67.4314 1722.94 67.4314 Q1728.9 67.4314 1732.38 62.7323 Q1735.86 58.0333 1735.86 49.9314 Q1735.86 41.8701 1732.38 37.1711 Q1728.9 32.4315 1722.94 32.4315 M1722.94 26.1121 Q1732.66 26.1121 1738.21 32.4315 Q1743.76 38.7509 1743.76 49.9314 Q1743.76 61.0714 1738.21 67.4314 Q1732.66 73.7508 1722.94 73.7508 Q1713.18 73.7508 1707.63 67.4314 Q1702.12 61.0714 1702.12 49.9314 Q1702.12 38.7509 1707.63 32.4315 Q1713.18 26.1121 1722.94 26.1121 Z" fill="#000000" fill-rule="nonzero" fill-opacity="1" /><path clip-path="url(#clip220)" d="M1793.83 45.1919 L1793.83 72.576 L1786.38 72.576 L1786.38 45.4349 Q1786.38 38.994 1783.87 35.7938 Q1781.35 32.5936 1776.33 32.5936 Q1770.3 32.5936 1766.81 36.4419 Q1763.33 40.2903 1763.33 46.9338 L1763.33 72.576 L1755.83 72.576 L1755.83 27.2059 L1763.33 27.2059 L1763.33 34.2544 Q1766 30.163 1769.61 28.1376 Q1773.25 26.1121 1777.99 26.1121 Q1785.81 26.1121 1789.82 30.9732 Q1793.83 35.7938 1793.83 45.1919 Z" fill="#000000" fill-rule="nonzero" fill-opacity="1" /><polyline clip-path="url(#clip222)" style="stroke:#009af9; stroke-linecap:round; stroke-linejoin:round; stroke-width:8; stroke-opacity:1; fill:none" points="292.4,1285.42 296.408,1285.42 300.417,1285.42 304.426,1285.42 308.435,1170.02 312.443,1170.02 316.452,1213.29 320.461,1198.87 324.469,1198.87 328.478,1198.87 332.487,1198.87 336.496,1198.87 340.504,1170.02 344.513,1170.02 348.522,1112.32 352.53,1112.32 356.539,1112.32 360.548,1112.32 364.556,1097.89 368.565,1097.89 372.574,1112.32 376.583,1112.32 380.591,1112.32 384.6,1112.32 388.609,1371.97 392.617,1371.97 396.626,1371.97 400.635,1371.97 404.644,1357.55 408.652,1357.55 412.661,1357.55 416.67,1357.55 420.678,1141.17 424.687,1141.17 428.696,1126.74 432.705,1155.59 436.713,1155.59 440.722,1155.59 444.731,1343.12 448.739,1371.97 452.748,1371.97 456.757,1227.72 460.766,1256.57 464.774,1256.57 468.783,1227.72 472.792,1227.72 476.8,1141.17 480.809,1141.17 484.818,1097.89 488.826,1184.44 492.835,1184.44 496.844,1184.44 500.853,1184.44 504.861,1155.59 508.87,1155.59 512.879,1184.44 516.887,1371.97 520.896,1371.97 524.905,1386.4 528.914,1386.4 532.922,1386.4 536.931,1343.12 540.94,1184.44 544.948,1184.44 548.957,1184.44 552.966,1184.44 556.975,1155.59 560.983,1155.59 564.992,910.365 569.001,881.515 573.009,881.515 577.018,881.515 581.027,838.239 585.035,838.239 589.044,838.239 593.053,838.239 597.062,838.239 601.07,722.838 605.079,722.838 609.088,679.562 613.096,679.562 617.105,679.562 621.114,693.988 625.123,708.413 629.131,708.413 633.14,492.035 637.149,492.035 641.157,506.46 645.166,506.46 649.175,549.736 653.184,535.311 657.192,535.311 661.201,535.311 665.21,520.886 669.218,520.886 673.227,520.886 677.236,520.886 681.244,506.46 685.253,506.46 689.262,506.46 693.271,477.61 697.279,535.311 701.288,520.886 705.297,520.886 709.305,520.886 713.314,520.886 717.323,520.886 721.332,520.886 725.34,520.886 729.349,520.886 733.358,520.886 737.366,520.886 741.375,520.886 745.384,492.035 749.393,492.035 753.401,492.035 757.41,492.035 761.419,492.035 765.427,506.46 769.436,492.035 773.445,492.035 777.454,492.035 781.462,492.035 785.471,492.035 789.48,492.035 793.488,492.035 797.497,492.035 801.506,492.035 805.514,492.035 809.523,492.035 813.532,492.035 817.541,492.035 821.549,492.035 825.558,492.035 829.567,463.185 833.575,434.335 837.584,434.335 841.593,434.335 845.602,434.335 849.61,419.909 853.619,419.909 857.628,419.909 861.636,419.909 865.645,419.909 869.654,419.909 873.663,318.933 877.671,318.933 881.68,318.933 885.689,318.933 889.697,318.933 893.706,318.933 897.715,318.933 901.723,318.933 905.732,318.933 909.741,318.933 913.75,318.933 917.758,318.933 921.767,318.933 925.776,318.933 929.784,318.933 933.793,304.508 937.802,304.508 941.811,304.508 945.819,304.508 949.828,304.508 953.837,304.508 957.845,304.508 961.854,304.508 965.863,304.508 969.872,275.658 973.88,275.658 977.889,275.658 981.898,275.658 985.906,275.658 989.915,275.658 993.924,290.083 997.933,290.083 1001.94,290.083 1005.95,290.083 1009.96,290.083 1013.97,275.658 1017.98,275.658 1021.98,275.658 1025.99,275.658 1030,290.083 1034.01,290.083 1038.02,290.083 1042.03,290.083 1046.04,261.232 1050.05,246.807 1054.05,246.807 1058.06,261.232 1062.07,261.232 1066.08,246.807 1070.09,246.807 1074.1,246.807 1078.11,246.807 1082.12,246.807 1086.12,246.807 1090.13,246.807 1094.14,246.807 1098.15,232.382 1102.16,232.382 1106.17,246.807 1110.18,246.807 1114.19,232.382 1118.19,232.382 1122.2,232.382 1126.21,232.382 1130.22,232.382 1134.23,232.382 1138.24,232.382 1142.25,232.382 1146.25,232.382 1150.26,232.382 1154.27,232.382 1158.28,232.382 1162.29,232.382 1166.3,232.382 1170.31,232.382 1174.32,232.382 1178.32,232.382 1182.33,232.382 1186.34,232.382 1190.35,232.382 1194.36,232.382 1198.37,232.382 1202.38,232.382 1206.39,232.382 1210.39,232.382 1214.4,232.382 1218.41,232.382 1222.42,232.382 1226.43,232.382 1230.44,232.382 1234.45,232.382 1238.46,232.382 1242.46,232.382 1246.47,232.382 1250.48,232.382 1254.49,232.382 1258.5,217.957 1262.51,217.957 1266.52,203.532 1270.52,203.532 1274.53,203.532 1278.54,203.532 1282.55,203.532 1286.56,189.107 1290.57,189.107 1294.58,189.107 1298.59,189.107 1302.59,189.107 1306.6,189.107 1310.61,189.107 1314.62,189.107 1318.63,189.107 1322.64,189.107 1326.65,189.107 1330.66,174.681 1334.66,174.681 1338.67,189.107 1342.68,189.107 1346.69,189.107 1350.7,189.107 1354.71,203.532 1358.72,203.532 1362.73,203.532 1366.73,203.532 1370.74,189.107 1374.75,189.107 1378.76,189.107 1382.77,189.107 1386.78,189.107 1390.79,189.107 1394.79,189.107 1398.8,189.107 1402.81,189.107 1406.82,189.107 1410.83,189.107 1414.84,189.107 1418.85,189.107 1422.86,189.107 1426.86,189.107 1430.87,189.107 1434.88,189.107 1438.89,189.107 1442.9,189.107 1446.91,189.107 1450.92,189.107 1454.93,189.107 1458.93,174.681 1462.94,174.681 1466.95,174.681 1470.96,174.681 1474.97,174.681 1478.98,174.681 1482.99,174.681 1487,174.681 1491,174.681 1495.01,174.681 1499.02,174.681 1503.03,174.681 1507.04,174.681 1511.05,174.681 1515.06,174.681 1519.06,174.681 1523.07,174.681 1527.08,174.681 1531.09,174.681 1535.1,174.681 1539.11,174.681 1543.12,174.681 1547.13,174.681 1551.13,174.681 1555.14,174.681 1559.15,174.681 1563.16,174.681 1567.17,174.681 1571.18,174.681 1575.19,174.681 1579.2,174.681 1583.2,174.681 1587.21,160.256 1591.22,160.256 1595.23,160.256 1599.24,160.256 1603.25,160.256 1607.26,160.256 1611.26,160.256 1615.27,160.256 1619.28,160.256 1623.29,160.256 1627.3,160.256 1631.31,160.256 1635.32,160.256 1639.33,160.256 1643.33,160.256 1647.34,160.256 1651.35,160.256 1655.36,160.256 1659.37,160.256 1663.38,160.256 1667.39,160.256 1671.4,160.256 1675.4,160.256 1679.41,160.256 1683.42,160.256 1687.43,160.256 1691.44,160.256 1695.45,160.256 1699.46,160.256 1703.47,160.256 1707.47,160.256 1711.48,160.256 1715.49,160.256 1719.5,174.681 1723.51,174.681 1727.52,174.681 1731.53,174.681 1735.53,174.681 1739.54,174.681 1743.55,174.681 1747.56,174.681 1751.57,189.107 1755.58,189.107 1759.59,189.107 1763.6,189.107 1767.6,189.107 1771.61,189.107 1775.62,174.681 1779.63,174.681 1783.64,174.681 1787.65,174.681 1791.66,174.681 1795.67,174.681 1799.67,174.681 1803.68,174.681 1807.69,174.681 1811.7,174.681 1815.71,174.681 1819.72,174.681 1823.73,174.681 1827.74,174.681 1831.74,174.681 1835.75,174.681 1839.76,174.681 1843.77,174.681 1847.78,174.681 1851.79,174.681 1855.8,174.681 1859.8,174.681 1863.81,174.681 1867.82,174.681 1871.83,189.107 1875.84,189.107 1879.85,189.107 1883.86,189.107 1887.87,189.107 1891.87,189.107 1895.88,189.107 1899.89,189.107 1903.9,189.107 1907.91,189.107 1911.92,189.107 1915.93,189.107 1919.94,189.107 1923.94,189.107 1927.95,189.107 1931.96,189.107 1935.97,189.107 1939.98,189.107 1943.99,189.107 1948,189.107 1952.01,203.532 1956.01,203.532 1960.02,217.957 1964.03,217.957 1968.04,232.382 1972.05,232.382 1976.06,232.382 1980.07,232.382 1984.07,232.382 1988.08,232.382 1992.09,232.382 1996.1,232.382 2000.11,232.382 2004.12,232.382 2008.13,246.807 2012.14,246.807 2016.14,246.807 2020.15,246.807 2024.16,232.382 2028.17,232.382 2032.18,217.957 2036.19,217.957 2040.2,217.957 2044.21,217.957 2048.21,261.232 2052.22,261.232 2056.23,261.232 2060.24,261.232 2064.25,261.232 2068.26,261.232 2072.27,261.232 2076.28,261.232 2080.28,261.232 2084.29,261.232 2088.3,261.232 2092.31,261.232 2096.32,261.232 2100.33,261.232 2104.34,261.232 2108.34,261.232 2112.35,261.232 2116.36,261.232 2120.37,275.658 2124.38,275.658 2128.39,275.658 2132.4,275.658 2136.41,275.658 2140.41,275.658 2144.42,275.658 2148.43,275.658 2152.44,275.658 2156.45,275.658 2160.46,275.658 2164.47,275.658 2168.48,275.658 2172.48,290.083 2176.49,290.083 2180.5,290.083 2184.51,290.083 2188.52,304.508 2192.53,304.508 2196.54,304.508 2200.55,304.508 2204.55,290.083 2208.56,290.083 2212.57,290.083 2216.58,290.083 2220.59,290.083 2224.6,290.083 2228.61,290.083 2232.61,290.083 2236.62,290.083 2240.63,290.083 2244.64,290.083 2248.65,290.083 2252.66,290.083 2256.67,290.083 2260.68,290.083 2264.68,290.083 2268.69,290.083 2272.7,290.083 2276.71,275.658 2280.72,275.658 2284.73,275.658 2288.74,275.658 2292.75,275.658 "/>
<polyline clip-path="url(#clip222)" style="stroke:#e26f46; stroke-linecap:round; stroke-linejoin:round; stroke-width:8; stroke-opacity:1; fill:none" points="292.4,1285.42 296.408,1285.42 300.417,1285.42 304.426,1285.42 308.435,1285.42 312.443,1170.02 316.452,1198.87 320.461,1198.87 324.469,1198.87 328.478,1198.87 332.487,1198.87 336.496,1198.87 340.504,1198.87 344.513,1198.87 348.522,1170.02 352.53,1170.02 356.539,1170.02 360.548,1112.32 364.556,1112.32 368.565,1112.32 372.574,1097.89 376.583,1112.32 380.591,1097.89 384.6,1097.89 388.609,1097.89 392.617,1097.89 396.626,1083.47 400.635,1083.47 404.644,1083.47 408.652,1083.47 412.661,1083.47 416.67,1083.47 420.678,1155.59 424.687,1126.74 428.696,1126.74 432.705,1184.44 436.713,1184.44 440.722,1227.72 444.731,1227.72 448.739,1227.72 452.748,1227.72 456.757,1227.72 460.766,1299.84 464.774,1299.84 468.783,1299.84 472.792,1299.84 476.8,1357.55 480.809,1242.14 484.818,1213.29 488.826,1213.29 492.835,1198.87 496.844,1213.29 500.853,1213.29 504.861,1343.12 508.87,1343.12 512.879,1343.12 516.887,1314.27 520.896,1314.27 524.905,1314.27 528.914,1314.27 532.922,1299.84 536.931,1314.27 540.94,1314.27 544.948,1314.27 548.957,1242.14 552.966,1285.42 556.975,1285.42 560.983,1285.42 564.992,1285.42 569.001,1285.42 573.009,1285.42 577.018,1213.29 581.027,1213.29 585.035,1213.29 589.044,1213.29 593.053,1343.12 597.062,1343.12 601.07,1343.12 605.079,1343.12 609.088,1343.12 613.096,1343.12 617.105,1343.12 621.114,1343.12 625.123,1343.12 629.131,1343.12 633.14,1343.12 637.149,1256.57 641.157,1256.57 645.166,1256.57 649.175,1184.44 653.184,1184.44 657.192,1184.44 661.201,1184.44 665.21,1198.87 669.218,1198.87 673.227,1198.87 677.236,1054.62 681.244,1040.19 685.253,1040.19 689.262,1025.77 693.271,1025.77 697.279,1025.77 701.288,1025.77 705.297,1025.77 709.305,1025.77 713.314,1025.77 717.323,1025.77 721.332,1025.77 725.34,996.916 729.349,996.916 733.358,982.491 737.366,924.79 741.375,924.79 745.384,924.79 749.393,924.79 753.401,924.79 757.41,924.79 761.419,924.79 765.427,924.79 769.436,924.79 773.445,881.515 777.454,881.515 781.462,881.515 785.471,881.515 789.48,867.09 793.488,867.09 797.497,852.664 801.506,780.539 805.514,766.113 809.523,766.113 813.532,766.113 817.541,766.113 821.549,766.113 825.558,766.113 829.567,766.113 833.575,766.113 837.584,751.688 841.593,751.688 845.602,751.688 849.61,751.688 853.619,751.688 857.628,751.688 861.636,751.688 865.645,751.688 869.654,751.688 873.663,737.263 877.671,737.263 881.68,722.838 885.689,665.137 889.697,679.562 893.706,679.562 897.715,679.562 901.723,679.562 905.732,578.586 909.741,578.586 913.75,578.586 917.758,593.011 921.767,434.335 925.776,463.185 929.784,477.61 933.793,477.61 937.802,477.61 941.811,463.185 945.819,506.46 949.828,506.46 953.837,463.185 957.845,463.185 961.854,492.035 965.863,564.161 969.872,564.161 973.88,535.311 977.889,549.736 981.898,549.736 985.906,549.736 989.915,535.311 993.924,535.311 997.933,535.311 1001.94,578.586 1005.95,549.736 1009.96,564.161 1013.97,549.736 1017.98,549.736 1021.98,535.311 1025.99,492.035 1030,448.76 1034.01,448.76 1038.02,448.76 1042.03,448.76 1046.04,520.886 1050.05,520.886 1054.05,578.586 1058.06,578.586 1062.07,578.586 1066.08,665.137 1070.09,665.137 1074.1,665.137 1078.11,665.137 1082.12,665.137 1086.12,737.263 1090.13,809.389 1094.14,809.389 1098.15,809.389 1102.16,823.814 1106.17,823.814 1110.18,838.239 1114.19,838.239 1118.19,838.239 1122.2,838.239 1126.21,838.239 1130.22,852.664 1134.23,852.664 1138.24,852.664 1142.25,852.664 1146.25,852.664 1150.26,852.664 1154.27,852.664 1158.28,867.09 1162.29,867.09 1166.3,881.515 1170.31,895.94 1174.32,895.94 1178.32,895.94 1182.33,895.94 1186.34,895.94 1190.35,852.664 1194.36,852.664 1198.37,852.664 1202.38,852.664 1206.39,852.664 1210.39,780.539 1214.4,780.539 1218.41,780.539 1222.42,780.539 1226.43,780.539 1230.44,780.539 1234.45,780.539 1238.46,780.539 1242.46,838.239 1246.47,823.814 1250.48,823.814 1254.49,809.389 1258.5,867.09 1262.51,1097.89 1266.52,1025.77 1270.52,1025.77 1274.53,1025.77 1278.54,1011.34 1282.55,996.916 1286.56,996.916 1290.57,982.491 1294.58,1213.29 1298.59,1213.29 1302.59,1213.29 1306.6,1213.29 1310.61,1213.29 1314.62,1155.59 1318.63,1155.59 1322.64,1155.59 1326.65,1155.59 1330.66,1155.59 1334.66,1155.59 1338.67,1155.59 1342.68,1170.02 1346.69,1170.02 1350.7,1184.44 1354.71,1170.02 1358.72,1155.59 1362.73,1155.59 1366.73,1170.02 1370.74,1170.02 1374.75,1170.02 1378.76,1170.02 1382.77,1141.17 1386.78,1126.74 1390.79,1126.74 1394.79,1126.74 1398.8,1025.77 1402.81,852.664 1406.82,852.664 1410.83,838.239 1414.84,751.688 1418.85,794.964 1422.86,794.964 1426.86,794.964 1430.87,794.964 1434.88,794.964 1438.89,751.688 1442.9,708.413 1446.91,722.838 1450.92,722.838 1454.93,693.988 1458.93,722.838 1462.94,722.838 1466.95,722.838 1470.96,693.988 1474.97,722.838 1478.98,722.838 1482.99,722.838 1487,722.838 1491,722.838 1495.01,665.137 1499.02,693.988 1503.03,693.988 1507.04,693.988 1511.05,693.988 1515.06,621.862 1519.06,535.311 1523.07,535.311 1527.08,823.814 1531.09,794.964 1535.1,953.641 1539.11,953.641 1543.12,1040.19 1547.13,1040.19 1551.13,1040.19 1555.14,1040.19 1559.15,1040.19 1563.16,1040.19 1567.17,1040.19 1571.18,1040.19 1575.19,1025.77 1579.2,1025.77 1583.2,1025.77 1587.21,1025.77 1591.22,968.066 1595.23,968.066 1599.24,968.066 1603.25,968.066 1607.26,968.066 1611.26,766.113 1615.27,766.113 1619.28,766.113 1623.29,722.838 1627.3,722.838 1631.31,722.838 1635.32,722.838 1639.33,722.838 1643.33,722.838 1647.34,722.838 1651.35,708.413 1655.36,751.688 1659.37,751.688 1663.38,751.688 1667.39,737.263 1671.4,737.263 1675.4,665.137 1679.41,665.137 1683.42,607.437 1687.43,607.437 1691.44,607.437 1695.45,607.437 1699.46,650.712 1703.47,578.586 1707.47,578.586 1711.48,578.586 1715.49,578.586 1719.5,564.161 1723.51,564.161 1727.52,564.161 1731.53,549.736 1735.53,549.736 1739.54,549.736 1743.55,549.736 1747.56,549.736 1751.57,549.736 1755.58,549.736 1759.59,636.287 1763.6,621.862 1767.6,607.437 1771.61,607.437 1775.62,578.586 1779.63,578.586 1783.64,549.736 1787.65,535.311 1791.66,535.311 1795.67,520.886 1799.67,982.491 1803.68,982.491 1807.69,982.491 1811.7,982.491 1815.71,982.491 1819.72,982.491 1823.73,982.491 1827.74,982.491 1831.74,982.491 1835.75,982.491 1839.76,1126.74 1843.77,1126.74 1847.78,1126.74 1851.79,1126.74 1855.8,1126.74 1859.8,1126.74 1863.81,1126.74 1867.82,867.09 1871.83,867.09 1875.84,867.09 1879.85,578.586 1883.86,578.586 1887.87,593.011 1891.87,593.011 1895.88,593.011 1899.89,578.586 1903.9,578.586 1907.91,578.586 1911.92,578.586 1915.93,593.011 1919.94,593.011 1923.94,593.011 1927.95,593.011 1931.96,448.76 1935.97,578.586 1939.98,578.586 1943.99,578.586 1948,578.586 1952.01,823.814 1956.01,823.814 1960.02,852.664 1964.03,823.814 1968.04,823.814 1972.05,823.814 1976.06,794.964 1980.07,809.389 1984.07,794.964 1988.08,794.964 1992.09,794.964 1996.1,794.964 2000.11,780.539 2004.12,780.539 2008.13,780.539 2012.14,780.539 2016.14,780.539 2020.15,780.539 2024.16,794.964 2028.17,794.964 2032.18,1025.77 2036.19,1025.77 2040.2,1025.77 2044.21,1025.77 2048.21,1299.84 2052.22,1126.74 2056.23,1126.74 2060.24,1126.74 2064.25,996.916 2068.26,996.916 2072.27,996.916 2076.28,996.916 2080.28,881.515 2084.29,419.909 2088.3,419.909 2092.31,448.76 2096.32,448.76 2100.33,665.137 2104.34,679.562 2108.34,665.137 2112.35,665.137 2116.36,650.712 2120.37,679.562 2124.38,693.988 2128.39,693.988 2132.4,693.988 2136.41,1040.19 2140.41,1040.19 2144.42,794.964 2148.43,794.964 2152.44,794.964 2156.45,794.964 2160.46,780.539 2164.47,780.539 2168.48,419.909 2172.48,419.909 2176.49,419.909 2180.5,419.909 2184.51,419.909 2188.52,391.059 2192.53,391.059 2196.54,391.059 2200.55,362.209 2204.55,376.634 2208.56,376.634 2212.57,391.059 2216.58,362.209 2220.59,333.358 2224.6,333.358 2228.61,347.784 2232.61,347.784 2236.62,347.784 2240.63,347.784 2244.64,347.784 2248.65,347.784 2252.66,347.784 2256.67,333.358 2260.68,333.358 2264.68,333.358 2268.69,333.358 2272.7,333.358 2276.71,318.933 2280.72,318.933 2284.73,347.784 2288.74,333.358 2292.75,347.784 "/>
<path clip-path="url(#clip220)" d="M303.068 322.316 L773.529 322.316 L773.529 166.796 L303.068 166.796  Z" fill="#ffffff" fill-rule="evenodd" fill-opacity="1"/>
<polyline clip-path="url(#clip220)" style="stroke:#000000; stroke-linecap:round; stroke-linejoin:round; stroke-width:4; stroke-opacity:1; fill:none" points="303.068,322.316 773.529,322.316 773.529,166.796 303.068,166.796 303.068,322.316 "/>
<polyline clip-path="url(#clip220)" style="stroke:#009af9; stroke-linecap:round; stroke-linejoin:round; stroke-width:8; stroke-opacity:1; fill:none" points="326.628,218.636 467.986,218.636 "/>
<path clip-path="url(#clip220)" d="M491.545 201.356 L498.513 201.356 L507.332 224.874 L516.198 201.356 L523.165 201.356 L523.165 235.916 L518.605 235.916 L518.605 205.569 L509.693 229.272 L504.994 229.272 L496.082 205.569 L496.082 235.916 L491.545 235.916 L491.545 201.356 Z" fill="#000000" fill-rule="nonzero" fill-opacity="1" /><path clip-path="url(#clip220)" d="M554.438 221.888 L554.438 223.971 L534.855 223.971 Q535.133 228.369 537.494 230.684 Q539.878 232.976 544.114 232.976 Q546.568 232.976 548.86 232.374 Q551.175 231.772 553.443 230.569 L553.443 234.596 Q551.151 235.568 548.744 236.078 Q546.337 236.587 543.86 236.587 Q537.656 236.587 534.022 232.976 Q530.411 229.365 530.411 223.207 Q530.411 216.842 533.837 213.115 Q537.286 209.365 543.119 209.365 Q548.351 209.365 551.383 212.745 Q554.438 216.101 554.438 221.888 M550.179 220.638 Q550.133 217.143 548.212 215.059 Q546.313 212.976 543.165 212.976 Q539.601 212.976 537.448 214.99 Q535.318 217.004 534.994 220.661 L550.179 220.638 Z" fill="#000000" fill-rule="nonzero" fill-opacity="1" /><path clip-path="url(#clip220)" d="M565.642 202.629 L565.642 209.99 L574.415 209.99 L574.415 213.3 L565.642 213.3 L565.642 227.374 Q565.642 230.545 566.499 231.448 Q567.378 232.351 570.04 232.351 L574.415 232.351 L574.415 235.916 L570.04 235.916 Q565.11 235.916 563.235 234.087 Q561.36 232.235 561.36 227.374 L561.36 213.3 L558.235 213.3 L558.235 209.99 L561.36 209.99 L561.36 202.629 L565.642 202.629 Z" fill="#000000" fill-rule="nonzero" fill-opacity="1" /><path clip-path="url(#clip220)" d="M595.04 213.971 Q594.322 213.555 593.466 213.37 Q592.633 213.161 591.614 213.161 Q588.003 213.161 586.059 215.522 Q584.137 217.86 584.137 222.258 L584.137 235.916 L579.855 235.916 L579.855 209.99 L584.137 209.99 L584.137 214.018 Q585.48 211.657 587.633 210.522 Q589.785 209.365 592.864 209.365 Q593.304 209.365 593.836 209.434 Q594.369 209.481 595.017 209.596 L595.04 213.971 Z" fill="#000000" fill-rule="nonzero" fill-opacity="1" /><path clip-path="url(#clip220)" d="M599.508 209.99 L603.767 209.99 L603.767 235.916 L599.508 235.916 L599.508 209.99 M599.508 199.897 L603.767 199.897 L603.767 205.291 L599.508 205.291 L599.508 199.897 Z" fill="#000000" fill-rule="nonzero" fill-opacity="1" /><path clip-path="url(#clip220)" d="M631.336 210.985 L631.336 214.967 Q629.531 213.971 627.702 213.485 Q625.896 212.976 624.045 212.976 Q619.901 212.976 617.609 215.615 Q615.318 218.231 615.318 222.976 Q615.318 227.721 617.609 230.36 Q619.901 232.976 624.045 232.976 Q625.896 232.976 627.702 232.49 Q629.531 231.981 631.336 230.985 L631.336 234.92 Q629.554 235.754 627.632 236.17 Q625.734 236.587 623.582 236.587 Q617.725 236.587 614.276 232.906 Q610.827 229.226 610.827 222.976 Q610.827 216.633 614.299 212.999 Q617.795 209.365 623.859 209.365 Q625.827 209.365 627.702 209.782 Q629.577 210.175 631.336 210.985 Z" fill="#000000" fill-rule="nonzero" fill-opacity="1" /><polyline clip-path="url(#clip220)" style="stroke:#e26f46; stroke-linecap:round; stroke-linejoin:round; stroke-width:8; stroke-opacity:1; fill:none" points="326.628,270.476 467.986,270.476 "/>
<path clip-path="url(#clip220)" d="M491.545 253.196 L520.781 253.196 L520.781 257.131 L508.513 257.131 L508.513 287.756 L503.814 287.756 L503.814 257.131 L491.545 257.131 L491.545 253.196 Z" fill="#000000" fill-rule="nonzero" fill-opacity="1" /><path clip-path="url(#clip220)" d="M527.101 264.816 Q523.675 264.816 521.684 267.501 Q519.693 270.163 519.693 274.816 Q519.693 279.469 521.661 282.154 Q523.652 284.816 527.101 284.816 Q530.503 284.816 532.494 282.131 Q534.485 279.446 534.485 274.816 Q534.485 270.21 532.494 267.524 Q530.503 264.816 527.101 264.816 M527.101 261.205 Q532.656 261.205 535.827 264.816 Q538.999 268.427 538.999 274.816 Q538.999 281.182 535.827 284.816 Q532.656 288.427 527.101 288.427 Q521.522 288.427 518.351 284.816 Q515.203 281.182 515.203 274.816 Q515.203 268.427 518.351 264.816 Q521.522 261.205 527.101 261.205 Z" fill="#000000" fill-rule="nonzero" fill-opacity="1" /><path clip-path="url(#clip220)" d="M550.179 283.867 L550.179 297.617 L545.897 297.617 L545.897 261.83 L550.179 261.83 L550.179 265.765 Q551.522 263.45 553.559 262.339 Q555.619 261.205 558.466 261.205 Q563.188 261.205 566.128 264.955 Q569.091 268.705 569.091 274.816 Q569.091 280.927 566.128 284.677 Q563.188 288.427 558.466 288.427 Q555.619 288.427 553.559 287.316 Q551.522 286.182 550.179 283.867 M564.67 274.816 Q564.67 270.117 562.725 267.455 Q560.804 264.77 557.425 264.77 Q554.045 264.77 552.1 267.455 Q550.179 270.117 550.179 274.816 Q550.179 279.515 552.1 282.2 Q554.045 284.862 557.425 284.862 Q560.804 284.862 562.725 282.2 Q564.67 279.515 564.67 274.816 Z" fill="#000000" fill-rule="nonzero" fill-opacity="1" /><path clip-path="url(#clip220)" d="M586.198 264.816 Q582.772 264.816 580.781 267.501 Q578.79 270.163 578.79 274.816 Q578.79 279.469 580.758 282.154 Q582.748 284.816 586.198 284.816 Q589.6 284.816 591.591 282.131 Q593.582 279.446 593.582 274.816 Q593.582 270.21 591.591 267.524 Q589.6 264.816 586.198 264.816 M586.198 261.205 Q591.753 261.205 594.924 264.816 Q598.096 268.427 598.096 274.816 Q598.096 281.182 594.924 284.816 Q591.753 288.427 586.198 288.427 Q580.619 288.427 577.448 284.816 Q574.299 281.182 574.299 274.816 Q574.299 268.427 577.448 264.816 Q580.619 261.205 586.198 261.205 Z" fill="#000000" fill-rule="nonzero" fill-opacity="1" /><path clip-path="url(#clip220)" d="M605.156 251.737 L609.415 251.737 L609.415 287.756 L605.156 287.756 L605.156 251.737 Z" fill="#000000" fill-rule="nonzero" fill-opacity="1" /><path clip-path="url(#clip220)" d="M628.373 264.816 Q624.947 264.816 622.957 267.501 Q620.966 270.163 620.966 274.816 Q620.966 279.469 622.933 282.154 Q624.924 284.816 628.373 284.816 Q631.776 284.816 633.767 282.131 Q635.757 279.446 635.757 274.816 Q635.757 270.21 633.767 267.524 Q631.776 264.816 628.373 264.816 M628.373 261.205 Q633.929 261.205 637.1 264.816 Q640.271 268.427 640.271 274.816 Q640.271 281.182 637.1 284.816 Q633.929 288.427 628.373 288.427 Q622.795 288.427 619.623 284.816 Q616.475 281.182 616.475 274.816 Q616.475 268.427 619.623 264.816 Q622.795 261.205 628.373 261.205 Z" fill="#000000" fill-rule="nonzero" fill-opacity="1" /><path clip-path="url(#clip220)" d="M664.392 274.492 Q664.392 269.862 662.47 267.316 Q660.572 264.77 657.123 264.77 Q653.697 264.77 651.776 267.316 Q649.878 269.862 649.878 274.492 Q649.878 279.098 651.776 281.645 Q653.697 284.191 657.123 284.191 Q660.572 284.191 662.47 281.645 Q664.392 279.098 664.392 274.492 M668.651 284.538 Q668.651 291.158 665.711 294.376 Q662.771 297.617 656.706 297.617 Q654.461 297.617 652.47 297.27 Q650.48 296.945 648.605 296.251 L648.605 292.108 Q650.48 293.126 652.308 293.612 Q654.137 294.098 656.035 294.098 Q660.225 294.098 662.308 291.899 Q664.392 289.723 664.392 285.302 L664.392 283.196 Q663.072 285.487 661.012 286.621 Q658.952 287.756 656.081 287.756 Q651.313 287.756 648.396 284.121 Q645.48 280.487 645.48 274.492 Q645.48 268.473 648.396 264.839 Q651.313 261.205 656.081 261.205 Q658.952 261.205 661.012 262.339 Q663.072 263.473 664.392 265.765 L664.392 261.83 L668.651 261.83 L668.651 284.538 Z" fill="#000000" fill-rule="nonzero" fill-opacity="1" /><path clip-path="url(#clip220)" d="M677.424 261.83 L681.683 261.83 L681.683 287.756 L677.424 287.756 L677.424 261.83 M677.424 251.737 L681.683 251.737 L681.683 257.131 L677.424 257.131 L677.424 251.737 Z" fill="#000000" fill-rule="nonzero" fill-opacity="1" /><path clip-path="url(#clip220)" d="M709.252 262.825 L709.252 266.807 Q707.447 265.811 705.618 265.325 Q703.813 264.816 701.961 264.816 Q697.817 264.816 695.526 267.455 Q693.234 270.071 693.234 274.816 Q693.234 279.561 695.526 282.2 Q697.817 284.816 701.961 284.816 Q703.813 284.816 705.618 284.33 Q707.447 283.821 709.252 282.825 L709.252 286.76 Q707.47 287.594 705.549 288.01 Q703.651 288.427 701.498 288.427 Q695.641 288.427 692.192 284.746 Q688.743 281.066 688.743 274.816 Q688.743 268.473 692.215 264.839 Q695.711 261.205 701.776 261.205 Q703.743 261.205 705.618 261.622 Q707.493 262.015 709.252 262.825 Z" fill="#000000" fill-rule="nonzero" fill-opacity="1" /><path clip-path="url(#clip220)" d="M728.442 274.723 Q723.28 274.723 721.289 275.904 Q719.299 277.084 719.299 279.932 Q719.299 282.2 720.78 283.543 Q722.285 284.862 724.854 284.862 Q728.396 284.862 730.525 282.362 Q732.678 279.839 732.678 275.672 L732.678 274.723 L728.442 274.723 M736.937 272.964 L736.937 287.756 L732.678 287.756 L732.678 283.821 Q731.22 286.182 729.044 287.316 Q726.868 288.427 723.72 288.427 Q719.738 288.427 717.377 286.205 Q715.039 283.959 715.039 280.209 Q715.039 275.834 717.956 273.612 Q720.896 271.39 726.706 271.39 L732.678 271.39 L732.678 270.973 Q732.678 268.034 730.734 266.436 Q728.813 264.816 725.317 264.816 Q723.095 264.816 720.988 265.348 Q718.882 265.881 716.938 266.946 L716.938 263.01 Q719.276 262.108 721.475 261.668 Q723.674 261.205 725.757 261.205 Q731.382 261.205 734.16 264.122 Q736.937 267.038 736.937 272.964 Z" fill="#000000" fill-rule="nonzero" fill-opacity="1" /><path clip-path="url(#clip220)" d="M745.711 251.737 L749.97 251.737 L749.97 287.756 L745.711 287.756 L745.711 251.737 Z" fill="#000000" fill-rule="nonzero" fill-opacity="1" /></svg>
