<?xml version="1.0" encoding="utf-8"?>
<svg xmlns="http://www.w3.org/2000/svg" xmlns:xlink="http://www.w3.org/1999/xlink" width="600" height="400" viewBox="0 0 2400 1600">
<defs>
  <clipPath id="clip020">
    <rect x="0" y="0" width="2400" height="1600"/>
  </clipPath>
</defs>
<path clip-path="url(#clip020)" d="M0 1600 L2400 1600 L2400 0 L0 0  Z" fill="#ffffff" fill-rule="evenodd" fill-opacity="1"/>
<defs>
  <clipPath id="clip021">
    <rect x="480" y="0" width="1681" height="1600"/>
  </clipPath>
</defs>
<path clip-path="url(#clip020)" d="M219.056 1423.18 L2352.76 1423.18 L2352.76 123.472 L219.056 123.472  Z" fill="#ffffff" fill-rule="evenodd" fill-opacity="1"/>
<defs>
  <clipPath id="clip022">
    <rect x="219" y="123" width="2135" height="1301"/>
  </clipPath>
</defs>
<polyline clip-path="url(#clip022)" style="stroke:#000000; stroke-linecap:round; stroke-linejoin:round; stroke-width:2; stroke-opacity:0.1; fill:none" points="275.41,1423.18 275.41,123.472 "/>
<polyline clip-path="url(#clip022)" style="stroke:#000000; stroke-linecap:round; stroke-linejoin:round; stroke-width:2; stroke-opacity:0.1; fill:none" points="678.802,1423.18 678.802,123.472 "/>
<polyline clip-path="url(#clip022)" style="stroke:#000000; stroke-linecap:round; stroke-linejoin:round; stroke-width:2; stroke-opacity:0.1; fill:none" points="1082.19,1423.18 1082.19,123.472 "/>
<polyline clip-path="url(#clip022)" style="stroke:#000000; stroke-linecap:round; stroke-linejoin:round; stroke-width:2; stroke-opacity:0.1; fill:none" points="1485.58,1423.18 1485.58,123.472 "/>
<polyline clip-path="url(#clip022)" style="stroke:#000000; stroke-linecap:round; stroke-linejoin:round; stroke-width:2; stroke-opacity:0.1; fill:none" points="1888.98,1423.18 1888.98,123.472 "/>
<polyline clip-path="url(#clip022)" style="stroke:#000000; stroke-linecap:round; stroke-linejoin:round; stroke-width:2; stroke-opacity:0.1; fill:none" points="2292.37,1423.18 2292.37,123.472 "/>
<polyline clip-path="url(#clip022)" style="stroke:#000000; stroke-linecap:round; stroke-linejoin:round; stroke-width:2; stroke-opacity:0.1; fill:none" points="219.056,1189.63 2352.76,1189.63 "/>
<polyline clip-path="url(#clip022)" style="stroke:#000000; stroke-linecap:round; stroke-linejoin:round; stroke-width:2; stroke-opacity:0.1; fill:none" points="219.056,917.224 2352.76,917.224 "/>
<polyline clip-path="url(#clip022)" style="stroke:#000000; stroke-linecap:round; stroke-linejoin:round; stroke-width:2; stroke-opacity:0.1; fill:none" points="219.056,644.822 2352.76,644.822 "/>
<polyline clip-path="url(#clip022)" style="stroke:#000000; stroke-linecap:round; stroke-linejoin:round; stroke-width:2; stroke-opacity:0.1; fill:none" points="219.056,372.419 2352.76,372.419 "/>
<polyline clip-path="url(#clip020)" style="stroke:#000000; stroke-linecap:round; stroke-linejoin:round; stroke-width:4; stroke-opacity:1; fill:none" points="219.056,1423.18 2352.76,1423.18 "/>
<polyline clip-path="url(#clip020)" style="stroke:#000000; stroke-linecap:round; stroke-linejoin:round; stroke-width:4; stroke-opacity:1; fill:none" points="275.41,1423.18 275.41,1404.28 "/>
<polyline clip-path="url(#clip020)" style="stroke:#000000; stroke-linecap:round; stroke-linejoin:round; stroke-width:4; stroke-opacity:1; fill:none" points="678.802,1423.18 678.802,1404.28 "/>
<polyline clip-path="url(#clip020)" style="stroke:#000000; stroke-linecap:round; stroke-linejoin:round; stroke-width:4; stroke-opacity:1; fill:none" points="1082.19,1423.18 1082.19,1404.28 "/>
<polyline clip-path="url(#clip020)" style="stroke:#000000; stroke-linecap:round; stroke-linejoin:round; stroke-width:4; stroke-opacity:1; fill:none" points="1485.58,1423.18 1485.58,1404.28 "/>
<polyline clip-path="url(#clip020)" style="stroke:#000000; stroke-linecap:round; stroke-linejoin:round; stroke-width:4; stroke-opacity:1; fill:none" points="1888.98,1423.18 1888.98,1404.28 "/>
<polyline clip-path="url(#clip020)" style="stroke:#000000; stroke-linecap:round; stroke-linejoin:round; stroke-width:4; stroke-opacity:1; fill:none" points="2292.37,1423.18 2292.37,1404.28 "/>
<path clip-path="url(#clip020)" d="M275.41 1454.1 Q271.799 1454.1 269.97 1457.66 Q268.165 1461.2 268.165 1468.33 Q268.165 1475.44 269.97 1479.01 Q271.799 1482.55 275.41 1482.55 Q279.044 1482.55 280.85 1479.01 Q282.678 1475.44 282.678 1468.33 Q282.678 1461.2 280.85 1457.66 Q279.044 1454.1 275.41 1454.1 M275.41 1450.39 Q281.22 1450.39 284.276 1455 Q287.354 1459.58 287.354 1468.33 Q287.354 1477.06 284.276 1481.67 Q281.22 1486.25 275.41 1486.25 Q269.6 1486.25 266.521 1481.67 Q263.466 1477.06 263.466 1468.33 Q263.466 1459.58 266.521 1455 Q269.6 1450.39 275.41 1450.39 Z" fill="#000000" fill-rule="nonzero" fill-opacity="1" /><path clip-path="url(#clip020)" d="M638.408 1481.64 L646.047 1481.64 L646.047 1455.28 L637.737 1456.95 L637.737 1452.69 L646.001 1451.02 L650.677 1451.02 L650.677 1481.64 L658.316 1481.64 L658.316 1485.58 L638.408 1485.58 L638.408 1481.64 Z" fill="#000000" fill-rule="nonzero" fill-opacity="1" /><path clip-path="url(#clip020)" d="M677.76 1454.1 Q674.149 1454.1 672.32 1457.66 Q670.515 1461.2 670.515 1468.33 Q670.515 1475.44 672.32 1479.01 Q674.149 1482.55 677.76 1482.55 Q681.394 1482.55 683.2 1479.01 Q685.028 1475.44 685.028 1468.33 Q685.028 1461.2 683.2 1457.66 Q681.394 1454.1 677.76 1454.1 M677.76 1450.39 Q683.57 1450.39 686.626 1455 Q689.704 1459.58 689.704 1468.33 Q689.704 1477.06 686.626 1481.67 Q683.57 1486.25 677.76 1486.25 Q671.95 1486.25 668.871 1481.67 Q665.816 1477.06 665.816 1468.33 Q665.816 1459.58 668.871 1455 Q671.95 1450.39 677.76 1450.39 Z" fill="#000000" fill-rule="nonzero" fill-opacity="1" /><path clip-path="url(#clip020)" d="M707.922 1454.1 Q704.311 1454.1 702.482 1457.66 Q700.676 1461.2 700.676 1468.33 Q700.676 1475.44 702.482 1479.01 Q704.311 1482.55 707.922 1482.55 Q711.556 1482.55 713.362 1479.01 Q715.19 1475.44 715.19 1468.33 Q715.19 1461.2 713.362 1457.66 Q711.556 1454.1 707.922 1454.1 M707.922 1450.39 Q713.732 1450.39 716.787 1455 Q719.866 1459.58 719.866 1468.33 Q719.866 1477.06 716.787 1481.67 Q713.732 1486.25 707.922 1486.25 Q702.112 1486.25 699.033 1481.67 Q695.977 1477.06 695.977 1468.33 Q695.977 1459.58 699.033 1455 Q702.112 1450.39 707.922 1450.39 Z" fill="#000000" fill-rule="nonzero" fill-opacity="1" /><path clip-path="url(#clip020)" d="M1045.89 1481.64 L1062.2 1481.64 L1062.2 1485.58 L1040.26 1485.58 L1040.26 1481.64 Q1042.92 1478.89 1047.51 1474.26 Q1052.11 1469.61 1053.29 1468.27 Q1055.54 1465.74 1056.42 1464.01 Q1057.32 1462.25 1057.32 1460.56 Q1057.32 1457.8 1055.38 1456.07 Q1053.45 1454.33 1050.35 1454.33 Q1048.15 1454.33 1045.7 1455.09 Q1043.27 1455.86 1040.49 1457.41 L1040.49 1452.69 Q1043.32 1451.55 1045.77 1450.97 Q1048.22 1450.39 1050.26 1450.39 Q1055.63 1450.39 1058.83 1453.08 Q1062.02 1455.77 1062.02 1460.26 Q1062.02 1462.39 1061.21 1464.31 Q1060.42 1466.2 1058.32 1468.8 Q1057.74 1469.47 1054.64 1472.69 Q1051.53 1475.88 1045.89 1481.64 Z" fill="#000000" fill-rule="nonzero" fill-opacity="1" /><path clip-path="url(#clip020)" d="M1082.02 1454.1 Q1078.41 1454.1 1076.58 1457.66 Q1074.77 1461.2 1074.77 1468.33 Q1074.77 1475.44 1076.58 1479.01 Q1078.41 1482.55 1082.02 1482.55 Q1085.65 1482.55 1087.46 1479.01 Q1089.29 1475.44 1089.29 1468.33 Q1089.29 1461.2 1087.46 1457.66 Q1085.65 1454.1 1082.02 1454.1 M1082.02 1450.39 Q1087.83 1450.39 1090.89 1455 Q1093.96 1459.58 1093.96 1468.33 Q1093.96 1477.06 1090.89 1481.67 Q1087.83 1486.25 1082.02 1486.25 Q1076.21 1486.25 1073.13 1481.67 Q1070.08 1477.06 1070.08 1468.33 Q1070.08 1459.58 1073.13 1455 Q1076.21 1450.39 1082.02 1450.39 Z" fill="#000000" fill-rule="nonzero" fill-opacity="1" /><path clip-path="url(#clip020)" d="M1112.18 1454.1 Q1108.57 1454.1 1106.74 1457.66 Q1104.94 1461.2 1104.94 1468.33 Q1104.94 1475.44 1106.74 1479.01 Q1108.57 1482.55 1112.18 1482.55 Q1115.82 1482.55 1117.62 1479.01 Q1119.45 1475.44 1119.45 1468.33 Q1119.45 1461.2 1117.62 1457.66 Q1115.82 1454.1 1112.18 1454.1 M1112.18 1450.39 Q1117.99 1450.39 1121.05 1455 Q1124.13 1459.58 1124.13 1468.33 Q1124.13 1477.06 1121.05 1481.67 Q1117.99 1486.25 1112.18 1486.25 Q1106.37 1486.25 1103.29 1481.67 Q1100.24 1477.06 1100.24 1468.33 Q1100.24 1459.58 1103.29 1455 Q1106.37 1450.39 1112.18 1450.39 Z" fill="#000000" fill-rule="nonzero" fill-opacity="1" /><path clip-path="url(#clip020)" d="M1459.35 1466.95 Q1462.7 1467.66 1464.58 1469.93 Q1466.48 1472.2 1466.48 1475.53 Q1466.48 1480.65 1462.96 1483.45 Q1459.44 1486.25 1452.96 1486.25 Q1450.78 1486.25 1448.47 1485.81 Q1446.18 1485.39 1443.72 1484.54 L1443.72 1480.02 Q1445.67 1481.16 1447.98 1481.74 Q1450.3 1482.32 1452.82 1482.32 Q1457.22 1482.32 1459.51 1480.58 Q1461.82 1478.84 1461.82 1475.53 Q1461.82 1472.48 1459.67 1470.77 Q1457.54 1469.03 1453.72 1469.03 L1449.69 1469.03 L1449.69 1465.19 L1453.91 1465.19 Q1457.36 1465.19 1459.18 1463.82 Q1461.01 1462.43 1461.01 1459.84 Q1461.01 1457.18 1459.12 1455.77 Q1457.24 1454.33 1453.72 1454.33 Q1451.8 1454.33 1449.6 1454.75 Q1447.4 1455.16 1444.76 1456.04 L1444.76 1451.88 Q1447.43 1451.14 1449.74 1450.77 Q1452.08 1450.39 1454.14 1450.39 Q1459.46 1450.39 1462.56 1452.83 Q1465.67 1455.23 1465.67 1459.35 Q1465.67 1462.22 1464.02 1464.21 Q1462.38 1466.18 1459.35 1466.95 Z" fill="#000000" fill-rule="nonzero" fill-opacity="1" /><path clip-path="url(#clip020)" d="M1485.34 1454.1 Q1481.73 1454.1 1479.9 1457.66 Q1478.1 1461.2 1478.1 1468.33 Q1478.1 1475.44 1479.9 1479.01 Q1481.73 1482.55 1485.34 1482.55 Q1488.98 1482.55 1490.78 1479.01 Q1492.61 1475.44 1492.61 1468.33 Q1492.61 1461.2 1490.78 1457.66 Q1488.98 1454.1 1485.34 1454.1 M1485.34 1450.39 Q1491.15 1450.39 1494.21 1455 Q1497.29 1459.58 1497.29 1468.33 Q1497.29 1477.06 1494.21 1481.67 Q1491.15 1486.25 1485.34 1486.25 Q1479.53 1486.25 1476.45 1481.67 Q1473.4 1477.06 1473.4 1468.33 Q1473.4 1459.58 1476.45 1455 Q1479.53 1450.39 1485.34 1450.39 Z" fill="#000000" fill-rule="nonzero" fill-opacity="1" /><path clip-path="url(#clip020)" d="M1515.5 1454.1 Q1511.89 1454.1 1510.06 1457.66 Q1508.26 1461.2 1508.26 1468.33 Q1508.26 1475.44 1510.06 1479.01 Q1511.89 1482.55 1515.5 1482.55 Q1519.14 1482.55 1520.94 1479.01 Q1522.77 1475.44 1522.77 1468.33 Q1522.77 1461.2 1520.94 1457.66 Q1519.14 1454.1 1515.5 1454.1 M1515.5 1450.39 Q1521.31 1450.39 1524.37 1455 Q1527.45 1459.58 1527.45 1468.33 Q1527.45 1477.06 1524.37 1481.67 Q1521.31 1486.25 1515.5 1486.25 Q1509.69 1486.25 1506.61 1481.67 Q1503.56 1477.06 1503.56 1468.33 Q1503.56 1459.58 1506.61 1455 Q1509.69 1450.39 1515.5 1450.39 Z" fill="#000000" fill-rule="nonzero" fill-opacity="1" /><path clip-path="url(#clip020)" d="M1862.07 1455.09 L1850.26 1473.54 L1862.07 1473.54 L1862.07 1455.09 M1860.84 1451.02 L1866.72 1451.02 L1866.72 1473.54 L1871.65 1473.54 L1871.65 1477.43 L1866.72 1477.43 L1866.72 1485.58 L1862.07 1485.58 L1862.07 1477.43 L1846.47 1477.43 L1846.47 1472.92 L1860.84 1451.02 Z" fill="#000000" fill-rule="nonzero" fill-opacity="1" /><path clip-path="url(#clip020)" d="M1889.38 1454.1 Q1885.77 1454.1 1883.94 1457.66 Q1882.14 1461.2 1882.14 1468.33 Q1882.14 1475.44 1883.94 1479.01 Q1885.77 1482.55 1889.38 1482.55 Q1893.02 1482.55 1894.82 1479.01 Q1896.65 1475.44 1896.65 1468.33 Q1896.65 1461.2 1894.82 1457.66 Q1893.02 1454.1 1889.38 1454.1 M1889.38 1450.39 Q1895.19 1450.39 1898.25 1455 Q1901.33 1459.58 1901.33 1468.33 Q1901.33 1477.06 1898.25 1481.67 Q1895.19 1486.25 1889.38 1486.25 Q1883.57 1486.25 1880.49 1481.67 Q1877.44 1477.06 1877.44 1468.33 Q1877.44 1459.58 1880.49 1455 Q1883.57 1450.39 1889.38 1450.39 Z" fill="#000000" fill-rule="nonzero" fill-opacity="1" /><path clip-path="url(#clip020)" d="M1919.54 1454.1 Q1915.93 1454.1 1914.1 1457.66 Q1912.3 1461.2 1912.3 1468.33 Q1912.3 1475.44 1914.1 1479.01 Q1915.93 1482.55 1919.54 1482.55 Q1923.18 1482.55 1924.98 1479.01 Q1926.81 1475.44 1926.81 1468.33 Q1926.81 1461.2 1924.98 1457.66 Q1923.18 1454.1 1919.54 1454.1 M1919.54 1450.39 Q1925.35 1450.39 1928.41 1455 Q1931.49 1459.58 1931.49 1468.33 Q1931.49 1477.06 1928.41 1481.67 Q1925.35 1486.25 1919.54 1486.25 Q1913.73 1486.25 1910.65 1481.67 Q1907.6 1477.06 1907.6 1468.33 Q1907.6 1459.58 1910.65 1455 Q1913.73 1450.39 1919.54 1450.39 Z" fill="#000000" fill-rule="nonzero" fill-opacity="1" /><path clip-path="url(#clip020)" d="M2251.99 1451.02 L2270.34 1451.02 L2270.34 1454.96 L2256.27 1454.96 L2256.27 1463.43 Q2257.29 1463.08 2258.31 1462.92 Q2259.32 1462.73 2260.34 1462.73 Q2266.13 1462.73 2269.51 1465.9 Q2272.89 1469.08 2272.89 1474.49 Q2272.89 1480.07 2269.42 1483.17 Q2265.94 1486.25 2259.63 1486.25 Q2257.45 1486.25 2255.18 1485.88 Q2252.94 1485.51 2250.53 1484.77 L2250.53 1480.07 Q2252.61 1481.2 2254.83 1481.76 Q2257.06 1482.32 2259.53 1482.32 Q2263.54 1482.32 2265.88 1480.21 Q2268.21 1478.1 2268.21 1474.49 Q2268.21 1470.88 2265.88 1468.77 Q2263.54 1466.67 2259.53 1466.67 Q2257.66 1466.67 2255.78 1467.08 Q2253.93 1467.5 2251.99 1468.38 L2251.99 1451.02 Z" fill="#000000" fill-rule="nonzero" fill-opacity="1" /><path clip-path="url(#clip020)" d="M2292.1 1454.1 Q2288.49 1454.1 2286.66 1457.66 Q2284.86 1461.2 2284.86 1468.33 Q2284.86 1475.44 2286.66 1479.01 Q2288.49 1482.55 2292.1 1482.55 Q2295.74 1482.55 2297.54 1479.01 Q2299.37 1475.44 2299.37 1468.33 Q2299.37 1461.2 2297.54 1457.66 Q2295.74 1454.1 2292.1 1454.1 M2292.1 1450.39 Q2297.91 1450.39 2300.97 1455 Q2304.05 1459.58 2304.05 1468.33 Q2304.05 1477.06 2300.97 1481.67 Q2297.91 1486.25 2292.1 1486.25 Q2286.29 1486.25 2283.21 1481.67 Q2280.16 1477.06 2280.16 1468.33 Q2280.16 1459.58 2283.21 1455 Q2286.29 1450.39 2292.1 1450.39 Z" fill="#000000" fill-rule="nonzero" fill-opacity="1" /><path clip-path="url(#clip020)" d="M2322.26 1454.1 Q2318.65 1454.1 2316.82 1457.66 Q2315.02 1461.2 2315.02 1468.33 Q2315.02 1475.44 2316.82 1479.01 Q2318.65 1482.55 2322.26 1482.55 Q2325.9 1482.55 2327.7 1479.01 Q2329.53 1475.44 2329.53 1468.33 Q2329.53 1461.2 2327.7 1457.66 Q2325.9 1454.1 2322.26 1454.1 M2322.26 1450.39 Q2328.07 1450.39 2331.13 1455 Q2334.21 1459.58 2334.21 1468.33 Q2334.21 1477.06 2331.13 1481.67 Q2328.07 1486.25 2322.26 1486.25 Q2316.45 1486.25 2313.38 1481.67 Q2310.32 1477.06 2310.32 1468.33 Q2310.32 1459.58 2313.38 1455 Q2316.45 1450.39 2322.26 1450.39 Z" fill="#000000" fill-rule="nonzero" fill-opacity="1" /><path clip-path="url(#clip020)" d="M1246.22 1522.08 L1246.22 1528.35 Q1242.56 1526.6 1239.31 1525.74 Q1236.06 1524.88 1233.04 1524.88 Q1227.79 1524.88 1224.92 1526.92 Q1222.09 1528.96 1222.09 1532.71 Q1222.09 1535.87 1223.97 1537.49 Q1225.88 1539.08 1231.16 1540.07 L1235.04 1540.86 Q1242.24 1542.23 1245.64 1545.7 Q1249.08 1549.14 1249.08 1554.93 Q1249.08 1561.84 1244.43 1565.4 Q1239.82 1568.97 1230.87 1568.97 Q1227.5 1568.97 1223.68 1568.2 Q1219.89 1567.44 1215.82 1565.94 L1215.82 1559.32 Q1219.73 1561.52 1223.49 1562.63 Q1227.25 1563.75 1230.87 1563.75 Q1236.38 1563.75 1239.37 1561.58 Q1242.36 1559.42 1242.36 1555.41 Q1242.36 1551.91 1240.2 1549.93 Q1238.07 1547.96 1233.17 1546.97 L1229.25 1546.21 Q1222.06 1544.78 1218.84 1541.72 Q1215.63 1538.67 1215.63 1533.22 Q1215.63 1526.92 1220.05 1523.29 Q1224.51 1519.66 1232.31 1519.66 Q1235.65 1519.66 1239.12 1520.27 Q1242.59 1520.87 1246.22 1522.08 Z" fill="#000000" fill-rule="nonzero" fill-opacity="1" /><path clip-path="url(#clip020)" d="M1264.64 1522.27 L1264.64 1532.4 L1276.71 1532.4 L1276.71 1536.95 L1264.64 1536.95 L1264.64 1556.3 Q1264.64 1560.66 1265.82 1561.9 Q1267.03 1563.14 1270.69 1563.14 L1276.71 1563.14 L1276.71 1568.04 L1270.69 1568.04 Q1263.91 1568.04 1261.33 1565.53 Q1258.76 1562.98 1258.76 1556.3 L1258.76 1536.95 L1254.46 1536.95 L1254.46 1532.4 L1258.76 1532.4 L1258.76 1522.27 L1264.64 1522.27 Z" fill="#000000" fill-rule="nonzero" fill-opacity="1" /><path clip-path="url(#clip020)" d="M1314.9 1548.76 L1314.9 1551.62 L1287.97 1551.62 Q1288.36 1557.67 1291.6 1560.85 Q1294.88 1564 1300.71 1564 Q1304.08 1564 1307.23 1563.17 Q1310.41 1562.35 1313.53 1560.69 L1313.53 1566.23 Q1310.38 1567.57 1307.07 1568.27 Q1303.76 1568.97 1300.36 1568.97 Q1291.83 1568.97 1286.83 1564 Q1281.86 1559.04 1281.86 1550.57 Q1281.86 1541.82 1286.57 1536.69 Q1291.32 1531.54 1299.34 1531.54 Q1306.53 1531.54 1310.7 1536.18 Q1314.9 1540.8 1314.9 1548.76 M1309.05 1547.04 Q1308.98 1542.23 1306.34 1539.37 Q1303.73 1536.5 1299.4 1536.5 Q1294.5 1536.5 1291.54 1539.27 Q1288.61 1542.04 1288.17 1547.07 L1309.05 1547.04 Z" fill="#000000" fill-rule="nonzero" fill-opacity="1" /><path clip-path="url(#clip020)" d="M1330.18 1562.7 L1330.18 1581.6 L1324.29 1581.6 L1324.29 1532.4 L1330.18 1532.4 L1330.18 1537.81 Q1332.03 1534.62 1334.83 1533.1 Q1337.66 1531.54 1341.57 1531.54 Q1348.07 1531.54 1352.11 1536.69 Q1356.18 1541.85 1356.18 1550.25 Q1356.18 1558.65 1352.11 1563.81 Q1348.07 1568.97 1341.57 1568.97 Q1337.66 1568.97 1334.83 1567.44 Q1332.03 1565.88 1330.18 1562.7 M1350.1 1550.25 Q1350.1 1543.79 1347.43 1540.13 Q1344.79 1536.44 1340.14 1536.44 Q1335.49 1536.44 1332.82 1540.13 Q1330.18 1543.79 1330.18 1550.25 Q1330.18 1556.71 1332.82 1560.4 Q1335.49 1564.07 1340.14 1564.07 Q1344.79 1564.07 1347.43 1560.4 Q1350.1 1556.71 1350.1 1550.25 Z" fill="#000000" fill-rule="nonzero" fill-opacity="1" /><polyline clip-path="url(#clip020)" style="stroke:#000000; stroke-linecap:round; stroke-linejoin:round; stroke-width:4; stroke-opacity:1; fill:none" points="219.056,1423.18 219.056,123.472 "/>
<polyline clip-path="url(#clip020)" style="stroke:#000000; stroke-linecap:round; stroke-linejoin:round; stroke-width:4; stroke-opacity:1; fill:none" points="219.056,1189.63 237.954,1189.63 "/>
<polyline clip-path="url(#clip020)" style="stroke:#000000; stroke-linecap:round; stroke-linejoin:round; stroke-width:4; stroke-opacity:1; fill:none" points="219.056,917.224 237.954,917.224 "/>
<polyline clip-path="url(#clip020)" style="stroke:#000000; stroke-linecap:round; stroke-linejoin:round; stroke-width:4; stroke-opacity:1; fill:none" points="219.056,644.822 237.954,644.822 "/>
<polyline clip-path="url(#clip020)" style="stroke:#000000; stroke-linecap:round; stroke-linejoin:round; stroke-width:4; stroke-opacity:1; fill:none" points="219.056,372.419 237.954,372.419 "/>
<path clip-path="url(#clip020)" d="M120.811 1202.97 L137.13 1202.97 L137.13 1206.91 L115.186 1206.91 L115.186 1202.97 Q117.848 1200.22 122.431 1195.59 Q127.038 1190.93 128.218 1189.59 Q130.464 1187.07 131.343 1185.33 Q132.246 1183.57 132.246 1181.88 Q132.246 1179.13 130.302 1177.39 Q128.38 1175.66 125.279 1175.66 Q123.08 1175.66 120.626 1176.42 Q118.195 1177.18 115.418 1178.73 L115.418 1174.01 Q118.242 1172.88 120.695 1172.3 Q123.149 1171.72 125.186 1171.72 Q130.556 1171.72 133.751 1174.41 Q136.945 1177.09 136.945 1181.58 Q136.945 1183.71 136.135 1185.63 Q135.348 1187.53 133.242 1190.12 Q132.663 1190.79 129.561 1194.01 Q126.459 1197.21 120.811 1202.97 Z" fill="#000000" fill-rule="nonzero" fill-opacity="1" /><path clip-path="url(#clip020)" d="M146.945 1201.03 L151.829 1201.03 L151.829 1206.91 L146.945 1206.91 L146.945 1201.03 Z" fill="#000000" fill-rule="nonzero" fill-opacity="1" /><path clip-path="url(#clip020)" d="M160.834 1172.35 L183.056 1172.35 L183.056 1174.34 L170.51 1206.91 L165.626 1206.91 L177.431 1176.28 L160.834 1176.28 L160.834 1172.35 Z" fill="#000000" fill-rule="nonzero" fill-opacity="1" /><path clip-path="url(#clip020)" d="M130.047 915.87 Q133.404 916.587 135.279 918.856 Q137.177 921.124 137.177 924.458 Q137.177 929.573 133.658 932.374 Q130.14 935.175 123.658 935.175 Q121.482 935.175 119.168 934.735 Q116.876 934.319 114.422 933.462 L114.422 928.948 Q116.367 930.083 118.681 930.661 Q120.996 931.24 123.519 931.24 Q127.917 931.24 130.209 929.504 Q132.524 927.768 132.524 924.458 Q132.524 921.402 130.371 919.689 Q128.242 917.953 124.422 917.953 L120.394 917.953 L120.394 914.11 L124.607 914.11 Q128.056 914.11 129.885 912.745 Q131.714 911.356 131.714 908.763 Q131.714 906.101 129.816 904.689 Q127.941 903.254 124.422 903.254 Q122.501 903.254 120.302 903.671 Q118.103 904.087 115.464 904.967 L115.464 900.8 Q118.126 900.06 120.441 899.689 Q122.779 899.319 124.839 899.319 Q130.163 899.319 133.265 901.749 Q136.367 904.157 136.367 908.277 Q136.367 911.147 134.723 913.138 Q133.08 915.106 130.047 915.87 Z" fill="#000000" fill-rule="nonzero" fill-opacity="1" /><path clip-path="url(#clip020)" d="M146.042 928.624 L150.927 928.624 L150.927 934.504 L146.042 934.504 L146.042 928.624 Z" fill="#000000" fill-rule="nonzero" fill-opacity="1" /><path clip-path="url(#clip020)" d="M171.112 903.022 Q167.501 903.022 165.672 906.587 Q163.866 910.129 163.866 917.259 Q163.866 924.365 165.672 927.93 Q167.501 931.471 171.112 931.471 Q174.746 931.471 176.551 927.93 Q178.38 924.365 178.38 917.259 Q178.38 910.129 176.551 906.587 Q174.746 903.022 171.112 903.022 M171.112 899.319 Q176.922 899.319 179.977 903.925 Q183.056 908.509 183.056 917.259 Q183.056 925.985 179.977 930.592 Q176.922 935.175 171.112 935.175 Q165.302 935.175 162.223 930.592 Q159.167 925.985 159.167 917.259 Q159.167 908.509 162.223 903.925 Q165.302 899.319 171.112 899.319 Z" fill="#000000" fill-rule="nonzero" fill-opacity="1" /><path clip-path="url(#clip020)" d="M130.695 643.467 Q134.052 644.185 135.927 646.454 Q137.825 648.722 137.825 652.055 Q137.825 657.171 134.306 659.972 Q130.788 662.773 124.306 662.773 Q122.13 662.773 119.816 662.333 Q117.524 661.916 115.07 661.06 L115.07 656.546 Q117.015 657.68 119.33 658.259 Q121.644 658.838 124.168 658.838 Q128.566 658.838 130.857 657.102 Q133.172 655.366 133.172 652.055 Q133.172 649 131.019 647.287 Q128.89 645.551 125.07 645.551 L121.043 645.551 L121.043 641.708 L125.255 641.708 Q128.705 641.708 130.533 640.342 Q132.362 638.954 132.362 636.361 Q132.362 633.699 130.464 632.287 Q128.589 630.852 125.07 630.852 Q123.149 630.852 120.95 631.268 Q118.751 631.685 116.112 632.565 L116.112 628.398 Q118.774 627.657 121.089 627.287 Q123.427 626.917 125.487 626.917 Q130.811 626.917 133.913 629.347 Q137.015 631.755 137.015 635.875 Q137.015 638.745 135.371 640.736 Q133.728 642.704 130.695 643.467 Z" fill="#000000" fill-rule="nonzero" fill-opacity="1" /><path clip-path="url(#clip020)" d="M146.691 656.222 L151.575 656.222 L151.575 662.102 L146.691 662.102 L146.691 656.222 Z" fill="#000000" fill-rule="nonzero" fill-opacity="1" /><path clip-path="url(#clip020)" d="M175.926 643.467 Q179.283 644.185 181.158 646.454 Q183.056 648.722 183.056 652.055 Q183.056 657.171 179.538 659.972 Q176.019 662.773 169.538 662.773 Q167.362 662.773 165.047 662.333 Q162.755 661.916 160.302 661.06 L160.302 656.546 Q162.246 657.68 164.561 658.259 Q166.876 658.838 169.399 658.838 Q173.797 658.838 176.089 657.102 Q178.403 655.366 178.403 652.055 Q178.403 649 176.251 647.287 Q174.121 645.551 170.302 645.551 L166.274 645.551 L166.274 641.708 L170.487 641.708 Q173.936 641.708 175.764 640.342 Q177.593 638.954 177.593 636.361 Q177.593 633.699 175.695 632.287 Q173.82 630.852 170.302 630.852 Q168.38 630.852 166.181 631.268 Q163.982 631.685 161.343 632.565 L161.343 628.398 Q164.005 627.657 166.32 627.287 Q168.658 626.917 170.718 626.917 Q176.042 626.917 179.144 629.347 Q182.246 631.755 182.246 635.875 Q182.246 638.745 180.602 640.736 Q178.959 642.704 175.926 643.467 Z" fill="#000000" fill-rule="nonzero" fill-opacity="1" /><path clip-path="url(#clip020)" d="M129.885 371.065 Q133.242 371.783 135.117 374.051 Q137.015 376.32 137.015 379.653 Q137.015 384.769 133.496 387.57 Q129.978 390.371 123.496 390.371 Q121.32 390.371 119.006 389.931 Q116.714 389.514 114.26 388.658 L114.26 384.144 Q116.205 385.278 118.519 385.857 Q120.834 386.436 123.357 386.436 Q127.755 386.436 130.047 384.699 Q132.362 382.963 132.362 379.653 Q132.362 376.598 130.209 374.885 Q128.08 373.149 124.26 373.149 L120.232 373.149 L120.232 369.306 L124.445 369.306 Q127.894 369.306 129.723 367.94 Q131.552 366.551 131.552 363.959 Q131.552 361.297 129.654 359.885 Q127.779 358.45 124.26 358.45 Q122.339 358.45 120.14 358.866 Q117.941 359.283 115.302 360.163 L115.302 355.996 Q117.964 355.255 120.279 354.885 Q122.617 354.514 124.677 354.514 Q130.001 354.514 133.103 356.945 Q136.204 359.352 136.204 363.473 Q136.204 366.343 134.561 368.334 Q132.917 370.301 129.885 371.065 Z" fill="#000000" fill-rule="nonzero" fill-opacity="1" /><path clip-path="url(#clip020)" d="M145.88 383.82 L150.765 383.82 L150.765 389.699 L145.88 389.699 L145.88 383.82 Z" fill="#000000" fill-rule="nonzero" fill-opacity="1" /><path clip-path="url(#clip020)" d="M171.528 370.556 Q168.38 370.556 166.528 372.709 Q164.7 374.862 164.7 378.612 Q164.7 382.338 166.528 384.514 Q168.38 386.667 171.528 386.667 Q174.677 386.667 176.505 384.514 Q178.357 382.338 178.357 378.612 Q178.357 374.862 176.505 372.709 Q174.677 370.556 171.528 370.556 M180.811 355.903 L180.811 360.163 Q179.051 359.329 177.246 358.889 Q175.464 358.45 173.704 358.45 Q169.075 358.45 166.621 361.575 Q164.19 364.7 163.843 371.019 Q165.209 369.005 167.269 367.94 Q169.329 366.852 171.806 366.852 Q177.014 366.852 180.024 370.024 Q183.056 373.172 183.056 378.612 Q183.056 383.936 179.908 387.153 Q176.76 390.371 171.528 390.371 Q165.533 390.371 162.362 385.787 Q159.19 381.181 159.19 372.454 Q159.19 364.26 163.079 359.399 Q166.968 354.514 173.519 354.514 Q175.278 354.514 177.061 354.862 Q178.866 355.209 180.811 355.903 Z" fill="#000000" fill-rule="nonzero" fill-opacity="1" /><path clip-path="url(#clip020)" d="M16.4842 1069.19 L16.4842 1059.61 L48.8219 1047.48 L16.4842 1035.29 L16.4842 1025.71 L64.0042 1025.71 L64.0042 1031.98 L22.277 1031.98 L54.8694 1044.23 L54.8694 1050.7 L22.277 1062.95 L64.0042 1062.95 L64.0042 1069.19 L16.4842 1069.19 Z" fill="#000000" fill-rule="nonzero" fill-opacity="1" /><path clip-path="url(#clip020)" d="M44.7161 982.71 L47.5806 982.71 L47.5806 1009.64 Q53.6281 1009.25 56.8109 1006.01 Q59.9619 1002.73 59.9619 996.906 Q59.9619 993.532 59.1344 990.381 Q58.3069 987.198 56.6518 984.079 L62.1899 984.079 Q63.5267 987.23 64.227 990.54 Q64.9272 993.85 64.9272 997.256 Q64.9272 1005.79 59.9619 1010.78 Q54.9967 1015.75 46.5303 1015.75 Q37.7774 1015.75 32.6531 1011.04 Q27.4968 1006.29 27.4968 998.274 Q27.4968 991.081 32.1438 986.911 Q36.7589 982.71 44.7161 982.71 M42.9973 988.566 Q38.1912 988.63 35.3266 991.272 Q32.4621 993.882 32.4621 998.21 Q32.4621 1003.11 35.2312 1006.07 Q38.0002 1009 43.0292 1009.45 L42.9973 988.566 Z" fill="#000000" fill-rule="nonzero" fill-opacity="1" /><path clip-path="url(#clip020)" d="M46.0847 956.897 Q46.0847 963.995 47.7079 966.732 Q49.3312 969.469 53.2461 969.469 Q56.3653 969.469 58.2114 967.432 Q60.0256 965.363 60.0256 961.83 Q60.0256 956.961 56.5881 954.032 Q53.1188 951.072 47.3897 951.072 L46.0847 951.072 L46.0847 956.897 M43.6657 945.216 L64.0042 945.216 L64.0042 951.072 L58.5933 951.072 Q61.8398 953.078 63.3994 956.07 Q64.9272 959.061 64.9272 963.39 Q64.9272 968.865 61.8716 972.111 Q58.7843 975.326 53.6281 975.326 Q47.6125 975.326 44.5569 971.315 Q41.5014 967.273 41.5014 959.284 L41.5014 951.072 L40.9285 951.072 Q36.8862 951.072 34.6901 953.746 Q32.4621 956.388 32.4621 961.194 Q32.4621 964.249 33.1941 967.146 Q33.9262 970.042 35.3903 972.716 L29.9795 972.716 Q28.7381 969.501 28.1334 966.477 Q27.4968 963.454 27.4968 960.589 Q27.4968 952.855 31.5072 949.035 Q35.5176 945.216 43.6657 945.216 Z" fill="#000000" fill-rule="nonzero" fill-opacity="1" /><path clip-path="url(#clip020)" d="M42.4881 903.521 L64.0042 903.521 L64.0042 909.377 L42.679 909.377 Q37.6183 909.377 35.1038 911.35 Q32.5894 913.324 32.5894 917.271 Q32.5894 922.013 35.6131 924.75 Q38.6368 927.487 43.8567 927.487 L64.0042 927.487 L64.0042 933.376 L28.3562 933.376 L28.3562 927.487 L33.8944 927.487 Q30.6797 925.387 29.0883 922.554 Q27.4968 919.689 27.4968 915.966 Q27.4968 909.823 31.3163 906.672 Q35.1038 903.521 42.4881 903.521 Z" fill="#000000" fill-rule="nonzero" fill-opacity="1" /><path clip-path="url(#clip020)" d="M16.4842 870.865 L16.4842 862.207 L56.238 841.137 L16.4842 841.137 L16.4842 834.898 L64.0042 834.898 L64.0042 843.556 L24.2503 864.626 L64.0042 864.626 L64.0042 870.865 L16.4842 870.865 Z" fill="#000000" fill-rule="nonzero" fill-opacity="1" /><path clip-path="url(#clip020)" d="M16.4842 822.103 L16.4842 813.446 L56.238 792.375 L16.4842 792.375 L16.4842 786.137 L64.0042 786.137 L64.0042 794.794 L24.2503 815.865 L64.0042 815.865 L64.0042 822.103 L16.4842 822.103 Z" fill="#000000" fill-rule="nonzero" fill-opacity="1" /><path clip-path="url(#clip020)" d="M21.7677 746.192 L58.7206 746.192 L58.7206 738.426 Q58.7206 728.591 54.2646 724.04 Q49.8086 719.456 40.1964 719.456 Q30.6479 719.456 26.2237 724.04 Q21.7677 728.591 21.7677 738.426 L21.7677 746.192 M16.4842 752.622 L16.4842 739.413 Q16.4842 725.599 22.2451 719.138 Q27.9743 712.677 40.1964 712.677 Q52.4822 712.677 58.2432 719.17 Q64.0042 725.663 64.0042 739.413 L64.0042 752.622 L16.4842 752.622 Z" fill="#000000" fill-rule="nonzero" fill-opacity="1" /><path clip-path="url(#clip020)" d="M28.3562 702.683 L28.3562 696.826 L64.0042 696.826 L64.0042 702.683 L28.3562 702.683 M14.479 702.683 L14.479 696.826 L21.895 696.826 L21.895 702.683 L14.479 702.683 Z" fill="#000000" fill-rule="nonzero" fill-opacity="1" /><path clip-path="url(#clip020)" d="M29.4065 661.847 L34.9447 661.847 Q33.6716 664.329 33.035 667.003 Q32.3984 669.676 32.3984 672.541 Q32.3984 676.901 33.7352 679.098 Q35.072 681.262 37.7456 681.262 Q39.7826 681.262 40.9603 679.702 Q42.1061 678.143 43.1565 673.432 L43.6021 671.427 Q44.9389 665.189 47.3897 662.579 Q49.8086 659.937 54.1691 659.937 Q59.1344 659.937 62.0308 663.884 Q64.9272 667.798 64.9272 674.673 Q64.9272 677.538 64.3543 680.657 Q63.8132 683.745 62.6992 687.182 L56.6518 687.182 Q58.3387 683.936 59.198 680.785 Q60.0256 677.633 60.0256 674.546 Q60.0256 670.408 58.6251 668.18 Q57.1929 665.952 54.6147 665.952 Q52.2276 665.952 50.9545 667.576 Q49.6813 669.167 48.5037 674.61 L48.0262 676.647 Q46.8804 682.089 44.5251 684.508 Q42.138 686.927 38.0002 686.927 Q32.9713 686.927 30.2341 683.363 Q27.4968 679.798 27.4968 673.241 Q27.4968 669.995 27.9743 667.13 Q28.4517 664.266 29.4065 661.847 Z" fill="#000000" fill-rule="nonzero" fill-opacity="1" /><path clip-path="url(#clip020)" d="M18.2347 644.818 L28.3562 644.818 L28.3562 632.755 L32.9077 632.755 L32.9077 644.818 L52.2594 644.818 Q56.6199 644.818 57.8613 643.641 Q59.1026 642.431 59.1026 638.771 L59.1026 632.755 L64.0042 632.755 L64.0042 638.771 Q64.0042 645.55 61.4897 648.128 Q58.9434 650.707 52.2594 650.707 L32.9077 650.707 L32.9077 655.003 L28.3562 655.003 L28.3562 650.707 L18.2347 650.707 L18.2347 644.818 Z" fill="#000000" fill-rule="nonzero" fill-opacity="1" /><path clip-path="url(#clip020)" d="M46.0847 608.852 Q46.0847 615.95 47.7079 618.687 Q49.3312 621.424 53.2461 621.424 Q56.3653 621.424 58.2114 619.387 Q60.0256 617.318 60.0256 613.785 Q60.0256 608.916 56.5881 605.987 Q53.1188 603.027 47.3897 603.027 L46.0847 603.027 L46.0847 608.852 M43.6657 597.171 L64.0042 597.171 L64.0042 603.027 L58.5933 603.027 Q61.8398 605.033 63.3994 608.024 Q64.9272 611.016 64.9272 615.345 Q64.9272 620.82 61.8716 624.066 Q58.7843 627.281 53.6281 627.281 Q47.6125 627.281 44.5569 623.27 Q41.5014 619.228 41.5014 611.239 L41.5014 603.027 L40.9285 603.027 Q36.8862 603.027 34.6901 605.701 Q32.4621 608.343 32.4621 613.149 Q32.4621 616.204 33.1941 619.101 Q33.9262 621.997 35.3903 624.671 L29.9795 624.671 Q28.7381 621.456 28.1334 618.432 Q27.4968 615.409 27.4968 612.544 Q27.4968 604.81 31.5072 600.99 Q35.5176 597.171 43.6657 597.171 Z" fill="#000000" fill-rule="nonzero" fill-opacity="1" /><path clip-path="url(#clip020)" d="M42.4881 555.476 L64.0042 555.476 L64.0042 561.332 L42.679 561.332 Q37.6183 561.332 35.1038 563.305 Q32.5894 565.279 32.5894 569.226 Q32.5894 573.968 35.6131 576.705 Q38.6368 579.442 43.8567 579.442 L64.0042 579.442 L64.0042 585.331 L28.3562 585.331 L28.3562 579.442 L33.8944 579.442 Q30.6797 577.342 29.0883 574.509 Q27.4968 571.644 27.4968 567.921 Q27.4968 561.778 31.3163 558.627 Q35.1038 555.476 42.4881 555.476 Z" fill="#000000" fill-rule="nonzero" fill-opacity="1" /><path clip-path="url(#clip020)" d="M29.7248 518.141 L35.1993 518.141 Q33.8307 520.623 33.1623 523.138 Q32.4621 525.62 32.4621 528.167 Q32.4621 533.864 36.0905 537.015 Q39.6872 540.166 46.212 540.166 Q52.7369 540.166 56.3653 537.015 Q59.9619 533.864 59.9619 528.167 Q59.9619 525.62 59.2935 523.138 Q58.5933 520.623 57.2247 518.141 L62.6355 518.141 Q63.7814 520.592 64.3543 523.233 Q64.9272 525.843 64.9272 528.803 Q64.9272 536.856 59.8664 541.598 Q54.8057 546.341 46.212 546.341 Q37.491 546.341 32.4939 541.567 Q27.4968 536.76 27.4968 528.421 Q27.4968 525.716 28.0697 523.138 Q28.6108 520.56 29.7248 518.141 Z" fill="#000000" fill-rule="nonzero" fill-opacity="1" /><path clip-path="url(#clip020)" d="M44.7161 477.464 L47.5806 477.464 L47.5806 504.391 Q53.6281 504.009 56.8109 500.762 Q59.9619 497.484 59.9619 491.659 Q59.9619 488.286 59.1344 485.135 Q58.3069 481.952 56.6518 478.832 L62.1899 478.832 Q63.5267 481.984 64.227 485.294 Q64.9272 488.604 64.9272 492.009 Q64.9272 500.54 59.9619 505.537 Q54.9967 510.502 46.5303 510.502 Q37.7774 510.502 32.6531 505.791 Q27.4968 501.049 27.4968 493.028 Q27.4968 485.835 32.1438 481.665 Q36.7589 477.464 44.7161 477.464 M42.9973 483.32 Q38.1912 483.384 35.3266 486.026 Q32.4621 488.636 32.4621 492.964 Q32.4621 497.866 35.2312 500.826 Q38.0002 503.754 43.0292 504.2 L42.9973 483.32 Z" fill="#000000" fill-rule="nonzero" fill-opacity="1" /><path clip-path="url(#clip020)" d="M649.124 12.096 L661.317 12.096 L676.751 53.2532 L692.266 12.096 L704.459 12.096 L704.459 72.576 L696.479 72.576 L696.479 19.4686 L680.883 60.9499 L672.66 60.9499 L657.064 19.4686 L657.064 72.576 L649.124 72.576 L649.124 12.096 Z" fill="#000000" fill-rule="nonzero" fill-opacity="1" /><path clip-path="url(#clip020)" d="M759.187 48.0275 L759.187 51.6733 L724.917 51.6733 Q725.403 59.3701 729.535 63.421 Q733.707 67.4314 741.12 67.4314 Q745.414 67.4314 749.424 66.3781 Q753.475 65.3249 757.445 63.2184 L757.445 70.267 Q753.435 71.9684 749.222 72.8596 Q745.009 73.7508 740.675 73.7508 Q729.818 73.7508 723.458 67.4314 Q717.139 61.1119 717.139 50.3365 Q717.139 39.1965 723.134 32.6746 Q729.17 26.1121 739.378 26.1121 Q748.533 26.1121 753.84 32.0264 Q759.187 37.9003 759.187 48.0275 M751.734 45.84 Q751.652 39.7232 748.29 36.0774 Q744.969 32.4315 739.459 32.4315 Q733.221 32.4315 729.454 35.9558 Q725.727 39.4801 725.16 45.8805 L751.734 45.84 Z" fill="#000000" fill-rule="nonzero" fill-opacity="1" /><path clip-path="url(#clip020)" d="M792.04 49.7694 Q783.006 49.7694 779.523 51.8354 Q776.039 53.9013 776.039 58.8839 Q776.039 62.8538 778.632 65.2034 Q781.265 67.5124 785.761 67.5124 Q791.959 67.5124 795.686 63.1374 Q799.453 58.7219 799.453 51.4303 L799.453 49.7694 L792.04 49.7694 M806.907 46.6907 L806.907 72.576 L799.453 72.576 L799.453 65.6895 Q796.901 69.8214 793.093 71.8063 Q789.285 73.7508 783.776 73.7508 Q776.809 73.7508 772.677 69.8619 Q768.585 65.9325 768.585 59.3701 Q768.585 51.7138 773.689 47.825 Q778.834 43.9361 789.002 43.9361 L799.453 43.9361 L799.453 43.2069 Q799.453 38.0623 796.05 35.2672 Q792.688 32.4315 786.571 32.4315 Q782.682 32.4315 778.996 33.3632 Q775.31 34.295 771.907 36.1584 L771.907 29.2718 Q775.998 27.692 779.847 26.9223 Q783.695 26.1121 787.341 26.1121 Q797.185 26.1121 802.046 31.2163 Q806.907 36.3204 806.907 46.6907 Z" fill="#000000" fill-rule="nonzero" fill-opacity="1" /><path clip-path="url(#clip020)" d="M859.974 45.1919 L859.974 72.576 L852.52 72.576 L852.52 45.4349 Q852.52 38.994 850.008 35.7938 Q847.497 32.5936 842.474 32.5936 Q836.438 32.5936 832.954 36.4419 Q829.47 40.2903 829.47 46.9338 L829.47 72.576 L821.976 72.576 L821.976 27.2059 L829.47 27.2059 L829.47 34.2544 Q832.144 30.163 835.749 28.1376 Q839.395 26.1121 844.135 26.1121 Q851.953 26.1121 855.963 30.9732 Q859.974 35.7938 859.974 45.1919 Z" fill="#000000" fill-rule="nonzero" fill-opacity="1" /><path clip-path="url(#clip020)" d="M901.536 12.096 L912.554 12.096 L939.371 62.6918 L939.371 12.096 L947.311 12.096 L947.311 72.576 L936.293 72.576 L909.476 21.9802 L909.476 72.576 L901.536 72.576 L901.536 12.096 Z" fill="#000000" fill-rule="nonzero" fill-opacity="1" /><path clip-path="url(#clip020)" d="M963.596 12.096 L974.614 12.096 L1001.43 62.6918 L1001.43 12.096 L1009.37 12.096 L1009.37 72.576 L998.353 72.576 L971.536 21.9802 L971.536 72.576 L963.596 72.576 L963.596 12.096 Z" fill="#000000" fill-rule="nonzero" fill-opacity="1" /><path clip-path="url(#clip020)" d="M1060.21 18.8205 L1060.21 65.8515 L1070.09 65.8515 Q1082.61 65.8515 1088.4 60.1802 Q1094.24 54.509 1094.24 42.2752 Q1094.24 30.1225 1088.4 24.4918 Q1082.61 18.8205 1070.09 18.8205 L1060.21 18.8205 M1052.03 12.096 L1068.84 12.096 Q1086.42 12.096 1094.64 19.4281 Q1102.87 26.7198 1102.87 42.2752 Q1102.87 57.9117 1094.6 65.2439 Q1086.34 72.576 1068.84 72.576 L1052.03 72.576 L1052.03 12.096 Z" fill="#000000" fill-rule="nonzero" fill-opacity="1" /><path clip-path="url(#clip020)" d="M1115.59 27.2059 L1123.04 27.2059 L1123.04 72.576 L1115.59 72.576 L1115.59 27.2059 M1115.59 9.54393 L1123.04 9.54393 L1123.04 18.9825 L1115.59 18.9825 L1115.59 9.54393 Z" fill="#000000" fill-rule="nonzero" fill-opacity="1" /><path clip-path="url(#clip020)" d="M1167.56 28.5427 L1167.56 35.5912 Q1164.4 33.9709 1161 33.1607 Q1157.59 32.3505 1153.95 32.3505 Q1148.4 32.3505 1145.6 34.0519 Q1142.85 35.7533 1142.85 39.156 Q1142.85 41.7486 1144.83 43.2475 Q1146.82 44.7058 1152.81 46.0426 L1155.37 46.6097 Q1163.31 48.3111 1166.63 51.4303 Q1169.99 54.509 1169.99 60.0587 Q1169.99 66.3781 1164.97 70.0644 Q1159.98 73.7508 1151.23 73.7508 Q1147.59 73.7508 1143.62 73.0216 Q1139.69 72.3329 1135.31 70.9151 L1135.31 63.2184 Q1139.45 65.3654 1143.46 66.4591 Q1147.47 67.5124 1151.4 67.5124 Q1156.66 67.5124 1159.5 65.73 Q1162.33 63.9071 1162.33 60.6258 Q1162.33 57.5877 1160.27 55.9673 Q1158.24 54.3469 1151.31 52.8481 L1148.72 52.2405 Q1141.8 50.7821 1138.72 47.7845 Q1135.64 44.7463 1135.64 39.4801 Q1135.64 33.0797 1140.17 29.5959 Q1144.71 26.1121 1153.06 26.1121 Q1157.19 26.1121 1160.83 26.7198 Q1164.48 27.3274 1167.56 28.5427 Z" fill="#000000" fill-rule="nonzero" fill-opacity="1" /><path clip-path="url(#clip020)" d="M1189.23 14.324 L1189.23 27.2059 L1204.58 27.2059 L1204.58 32.9987 L1189.23 32.9987 L1189.23 57.6282 Q1189.23 63.1779 1190.73 64.7578 Q1192.27 66.3376 1196.93 66.3376 L1204.58 66.3376 L1204.58 72.576 L1196.93 72.576 Q1188.3 72.576 1185.02 69.3758 Q1181.74 66.1351 1181.74 57.6282 L1181.74 32.9987 L1176.27 32.9987 L1176.27 27.2059 L1181.74 27.2059 L1181.74 14.324 L1189.23 14.324 Z" fill="#000000" fill-rule="nonzero" fill-opacity="1" /><path clip-path="url(#clip020)" d="M1235.01 49.7694 Q1225.97 49.7694 1222.49 51.8354 Q1219.01 53.9013 1219.01 58.8839 Q1219.01 62.8538 1221.6 65.2034 Q1224.23 67.5124 1228.73 67.5124 Q1234.93 67.5124 1238.65 63.1374 Q1242.42 58.7219 1242.42 51.4303 L1242.42 49.7694 L1235.01 49.7694 M1249.87 46.6907 L1249.87 72.576 L1242.42 72.576 L1242.42 65.6895 Q1239.87 69.8214 1236.06 71.8063 Q1232.25 73.7508 1226.74 73.7508 Q1219.77 73.7508 1215.64 69.8619 Q1211.55 65.9325 1211.55 59.3701 Q1211.55 51.7138 1216.66 47.825 Q1221.8 43.9361 1231.97 43.9361 L1242.42 43.9361 L1242.42 43.2069 Q1242.42 38.0623 1239.02 35.2672 Q1235.65 32.4315 1229.54 32.4315 Q1225.65 32.4315 1221.96 33.3632 Q1218.28 34.295 1214.87 36.1584 L1214.87 29.2718 Q1218.96 27.692 1222.81 26.9223 Q1226.66 26.1121 1230.31 26.1121 Q1240.15 26.1121 1245.01 31.2163 Q1249.87 36.3204 1249.87 46.6907 Z" fill="#000000" fill-rule="nonzero" fill-opacity="1" /><path clip-path="url(#clip020)" d="M1302.94 45.1919 L1302.94 72.576 L1295.49 72.576 L1295.49 45.4349 Q1295.49 38.994 1292.97 35.7938 Q1290.46 32.5936 1285.44 32.5936 Q1279.4 32.5936 1275.92 36.4419 Q1272.44 40.2903 1272.44 46.9338 L1272.44 72.576 L1264.94 72.576 L1264.94 27.2059 L1272.44 27.2059 L1272.44 34.2544 Q1275.11 30.163 1278.72 28.1376 Q1282.36 26.1121 1287.1 26.1121 Q1294.92 26.1121 1298.93 30.9732 Q1302.94 35.7938 1302.94 45.1919 Z" fill="#000000" fill-rule="nonzero" fill-opacity="1" /><path clip-path="url(#clip020)" d="M1350.46 28.9478 L1350.46 35.9153 Q1347.3 34.1734 1344.1 33.3227 Q1340.94 32.4315 1337.7 32.4315 Q1330.45 32.4315 1326.44 37.0496 Q1322.42 41.6271 1322.42 49.9314 Q1322.42 58.2358 1326.44 62.8538 Q1330.45 67.4314 1337.7 67.4314 Q1340.94 67.4314 1344.1 66.5807 Q1347.3 65.6895 1350.46 63.9476 L1350.46 70.8341 Q1347.34 72.2924 1343.98 73.0216 Q1340.65 73.7508 1336.89 73.7508 Q1326.64 73.7508 1320.6 67.3098 Q1314.57 60.8689 1314.57 49.9314 Q1314.57 38.832 1320.64 32.472 Q1326.76 26.1121 1337.37 26.1121 Q1340.82 26.1121 1344.1 26.8413 Q1347.38 27.5299 1350.46 28.9478 Z" fill="#000000" fill-rule="nonzero" fill-opacity="1" /><path clip-path="url(#clip020)" d="M1402.23 48.0275 L1402.23 51.6733 L1367.96 51.6733 Q1368.44 59.3701 1372.58 63.421 Q1376.75 67.4314 1384.16 67.4314 Q1388.45 67.4314 1392.47 66.3781 Q1396.52 65.3249 1400.49 63.2184 L1400.49 70.267 Q1396.48 71.9684 1392.26 72.8596 Q1388.05 73.7508 1383.72 73.7508 Q1372.86 73.7508 1366.5 67.4314 Q1360.18 61.1119 1360.18 50.3365 Q1360.18 39.1965 1366.17 32.6746 Q1372.21 26.1121 1382.42 26.1121 Q1391.57 26.1121 1396.88 32.0264 Q1402.23 37.9003 1402.23 48.0275 M1394.77 45.84 Q1394.69 39.7232 1391.33 36.0774 Q1388.01 32.4315 1382.5 32.4315 Q1376.26 32.4315 1372.49 35.9558 Q1368.77 39.4801 1368.2 45.8805 L1394.77 45.84 Z" fill="#000000" fill-rule="nonzero" fill-opacity="1" /><path clip-path="url(#clip020)" d="M1486.45 16.7545 L1486.45 25.383 Q1482.31 21.5346 1477.62 19.6307 Q1472.96 17.7268 1467.69 17.7268 Q1457.32 17.7268 1451.81 24.0867 Q1446.3 30.4061 1446.3 42.3968 Q1446.3 54.3469 1451.81 60.7069 Q1457.32 67.0263 1467.69 67.0263 Q1472.96 67.0263 1477.62 65.1223 Q1482.31 63.2184 1486.45 59.3701 L1486.45 67.9175 Q1482.15 70.8341 1477.33 72.2924 Q1472.55 73.7508 1467.2 73.7508 Q1453.47 73.7508 1445.57 65.3654 Q1437.67 56.9395 1437.67 42.3968 Q1437.67 27.8135 1445.57 19.4281 Q1453.47 11.0023 1467.2 11.0023 Q1472.63 11.0023 1477.41 12.4606 Q1482.23 13.8784 1486.45 16.7545 Z" fill="#000000" fill-rule="nonzero" fill-opacity="1" /><path clip-path="url(#clip020)" d="M1516.34 32.4315 Q1510.35 32.4315 1506.86 37.1306 Q1503.38 41.7891 1503.38 49.9314 Q1503.38 58.0738 1506.82 62.7728 Q1510.31 67.4314 1516.34 67.4314 Q1522.3 67.4314 1525.78 62.7323 Q1529.26 58.0333 1529.26 49.9314 Q1529.26 41.8701 1525.78 37.1711 Q1522.3 32.4315 1516.34 32.4315 M1516.34 26.1121 Q1526.06 26.1121 1531.61 32.4315 Q1537.16 38.7509 1537.16 49.9314 Q1537.16 61.0714 1531.61 67.4314 Q1526.06 73.7508 1516.34 73.7508 Q1506.58 73.7508 1501.03 67.4314 Q1495.52 61.0714 1495.52 49.9314 Q1495.52 38.7509 1501.03 32.4315 Q1506.58 26.1121 1516.34 26.1121 Z" fill="#000000" fill-rule="nonzero" fill-opacity="1" /><path clip-path="url(#clip020)" d="M1584.84 35.9153 Q1587.64 30.8922 1591.53 28.5022 Q1595.42 26.1121 1600.68 26.1121 Q1607.77 26.1121 1611.62 31.0947 Q1615.47 36.0368 1615.47 45.1919 L1615.47 72.576 L1607.97 72.576 L1607.97 45.4349 Q1607.97 38.913 1605.66 35.7533 Q1603.36 32.5936 1598.62 32.5936 Q1592.82 32.5936 1589.46 36.4419 Q1586.1 40.2903 1586.1 46.9338 L1586.1 72.576 L1578.6 72.576 L1578.6 45.4349 Q1578.6 38.8725 1576.3 35.7533 Q1573.99 32.5936 1569.17 32.5936 Q1563.45 32.5936 1560.09 36.4824 Q1556.73 40.3308 1556.73 46.9338 L1556.73 72.576 L1549.24 72.576 L1549.24 27.2059 L1556.73 27.2059 L1556.73 34.2544 Q1559.28 30.082 1562.85 28.0971 Q1566.41 26.1121 1571.31 26.1121 Q1576.25 26.1121 1579.7 28.6237 Q1583.18 31.1352 1584.84 35.9153 Z" fill="#000000" fill-rule="nonzero" fill-opacity="1" /><path clip-path="url(#clip020)" d="M1637.54 65.7705 L1637.54 89.8329 L1630.05 89.8329 L1630.05 27.2059 L1637.54 27.2059 L1637.54 34.0924 Q1639.89 30.0415 1643.46 28.0971 Q1647.06 26.1121 1652.05 26.1121 Q1660.31 26.1121 1665.46 32.6746 Q1670.64 39.2371 1670.64 49.9314 Q1670.64 60.6258 1665.46 67.1883 Q1660.31 73.7508 1652.05 73.7508 Q1647.06 73.7508 1643.46 71.8063 Q1639.89 69.8214 1637.54 65.7705 M1662.9 49.9314 Q1662.9 41.7081 1659.5 37.0496 Q1656.14 32.3505 1650.22 32.3505 Q1644.31 32.3505 1640.91 37.0496 Q1637.54 41.7081 1637.54 49.9314 Q1637.54 58.1548 1640.91 62.8538 Q1644.31 67.5124 1650.22 67.5124 Q1656.14 67.5124 1659.5 62.8538 Q1662.9 58.1548 1662.9 49.9314 Z" fill="#000000" fill-rule="nonzero" fill-opacity="1" /><path clip-path="url(#clip020)" d="M1703.61 49.7694 Q1694.58 49.7694 1691.1 51.8354 Q1687.61 53.9013 1687.61 58.8839 Q1687.61 62.8538 1690.21 65.2034 Q1692.84 67.5124 1697.34 67.5124 Q1703.53 67.5124 1707.26 63.1374 Q1711.03 58.7219 1711.03 51.4303 L1711.03 49.7694 L1703.61 49.7694 M1718.48 46.6907 L1718.48 72.576 L1711.03 72.576 L1711.03 65.6895 Q1708.48 69.8214 1704.67 71.8063 Q1700.86 73.7508 1695.35 73.7508 Q1688.38 73.7508 1684.25 69.8619 Q1680.16 65.9325 1680.16 59.3701 Q1680.16 51.7138 1685.26 47.825 Q1690.41 43.9361 1700.58 43.9361 L1711.03 43.9361 L1711.03 43.2069 Q1711.03 38.0623 1707.63 35.2672 Q1704.26 32.4315 1698.15 32.4315 Q1694.26 32.4315 1690.57 33.3632 Q1686.88 34.295 1683.48 36.1584 L1683.48 29.2718 Q1687.57 27.692 1691.42 26.9223 Q1695.27 26.1121 1698.92 26.1121 Q1708.76 26.1121 1713.62 31.2163 Q1718.48 36.3204 1718.48 46.6907 Z" fill="#000000" fill-rule="nonzero" fill-opacity="1" /><path clip-path="url(#clip020)" d="M1760.13 34.1734 Q1758.87 33.4443 1757.37 33.1202 Q1755.91 32.7556 1754.13 32.7556 Q1747.81 32.7556 1744.41 36.8875 Q1741.05 40.9789 1741.05 48.6757 L1741.05 72.576 L1733.55 72.576 L1733.55 27.2059 L1741.05 27.2059 L1741.05 34.2544 Q1743.39 30.1225 1747.16 28.1376 Q1750.93 26.1121 1756.32 26.1121 Q1757.09 26.1121 1758.02 26.2337 Q1758.95 26.3147 1760.08 26.5172 L1760.13 34.1734 Z" fill="#000000" fill-rule="nonzero" fill-opacity="1" /><path clip-path="url(#clip020)" d="M1767.94 27.2059 L1775.4 27.2059 L1775.4 72.576 L1767.94 72.576 L1767.94 27.2059 M1767.94 9.54393 L1775.4 9.54393 L1775.4 18.9825 L1767.94 18.9825 L1767.94 9.54393 Z" fill="#000000" fill-rule="nonzero" fill-opacity="1" /><path clip-path="url(#clip020)" d="M1819.92 28.5427 L1819.92 35.5912 Q1816.76 33.9709 1813.35 33.1607 Q1809.95 32.3505 1806.31 32.3505 Q1800.76 32.3505 1797.96 34.0519 Q1795.21 35.7533 1795.21 39.156 Q1795.21 41.7486 1797.19 43.2475 Q1799.18 44.7058 1805.17 46.0426 L1807.72 46.6097 Q1815.66 48.3111 1818.98 51.4303 Q1822.35 54.509 1822.35 60.0587 Q1822.35 66.3781 1817.32 70.0644 Q1812.34 73.7508 1803.59 73.7508 Q1799.95 73.7508 1795.98 73.0216 Q1792.05 72.3329 1787.67 70.9151 L1787.67 63.2184 Q1791.8 65.3654 1795.81 66.4591 Q1799.82 67.5124 1803.75 67.5124 Q1809.02 67.5124 1811.86 65.73 Q1814.69 63.9071 1814.69 60.6258 Q1814.69 57.5877 1812.62 55.9673 Q1810.6 54.3469 1803.67 52.8481 L1801.08 52.2405 Q1794.15 50.7821 1791.07 47.7845 Q1788 44.7463 1788 39.4801 Q1788 33.0797 1792.53 29.5959 Q1797.07 26.1121 1805.41 26.1121 Q1809.55 26.1121 1813.19 26.7198 Q1816.84 27.3274 1819.92 28.5427 Z" fill="#000000" fill-rule="nonzero" fill-opacity="1" /><path clip-path="url(#clip020)" d="M1851.8 32.4315 Q1845.8 32.4315 1842.32 37.1306 Q1838.83 41.7891 1838.83 49.9314 Q1838.83 58.0738 1842.28 62.7728 Q1845.76 67.4314 1851.8 67.4314 Q1857.75 67.4314 1861.24 62.7323 Q1864.72 58.0333 1864.72 49.9314 Q1864.72 41.8701 1861.24 37.1711 Q1857.75 32.4315 1851.8 32.4315 M1851.8 26.1121 Q1861.52 26.1121 1867.07 32.4315 Q1872.62 38.7509 1872.62 49.9314 Q1872.62 61.0714 1867.07 67.4314 Q1861.52 73.7508 1851.8 73.7508 Q1842.03 73.7508 1836.48 67.4314 Q1830.98 61.0714 1830.98 49.9314 Q1830.98 38.7509 1836.48 32.4315 Q1842.03 26.1121 1851.8 26.1121 Z" fill="#000000" fill-rule="nonzero" fill-opacity="1" /><path clip-path="url(#clip020)" d="M1922.69 45.1919 L1922.69 72.576 L1915.23 72.576 L1915.23 45.4349 Q1915.23 38.994 1912.72 35.7938 Q1910.21 32.5936 1905.19 32.5936 Q1899.15 32.5936 1895.67 36.4419 Q1892.18 40.2903 1892.18 46.9338 L1892.18 72.576 L1884.69 72.576 L1884.69 27.2059 L1892.18 27.2059 L1892.18 34.2544 Q1894.86 30.163 1898.46 28.1376 Q1902.11 26.1121 1906.85 26.1121 Q1914.67 26.1121 1918.68 30.9732 Q1922.69 35.7938 1922.69 45.1919 Z" fill="#000000" fill-rule="nonzero" fill-opacity="1" /><polyline clip-path="url(#clip022)" style="stroke:#0000ff; stroke-linecap:round; stroke-linejoin:round; stroke-width:8; stroke-opacity:1; fill:none" points="279.444,1385.67 283.478,1365.73 287.512,1338.97 291.546,1305.48 295.579,1265.27 299.613,1220.65 303.647,1171.43 307.681,1122.77 311.715,1073.93 315.749,1025.54 319.783,978.064 323.817,933.344 327.851,892.041 331.885,851.431 335.919,811.048 339.953,775.408 343.986,749.212 348.02,725.117 352.054,702.654 356.088,681.13 360.122,664.236 364.156,651.093 368.19,640.149 372.224,629.544 376.258,617.38 380.292,610.702 384.326,606.8 388.36,603.92 392.393,602.378 396.427,599.214 400.461,594.484 404.495,589.329 408.529,584.47 412.563,579.66 416.597,573.494 420.631,566.54 424.665,557.709 428.699,547.758 432.733,536.71 436.767,525.432 440.8,514.878 444.834,503.605 448.868,491.755 452.902,479.1 456.936,465.312 460.97,451.424 465.004,439.329 469.038,427.955 473.072,418.32 477.106,408.794 481.14,399.785 485.174,392.532 489.207,386.253 493.241,379.775 497.275,374.557 501.309,371.497 505.343,369.37 509.377,367.491 513.411,365.048 517.445,362.654 521.479,360.99 525.513,359.99 529.547,360.406 533.581,361.58 537.614,363.813 541.648,366.272 545.682,369.081 549.716,370.967 553.75,373.884 557.784,378.057 561.818,381.374 565.852,384.853 569.886,388.285 573.92,391.779 577.954,396.664 581.988,401.526 586.021,408.202 590.055,415.169 594.089,423.344 598.123,433.069 602.157,443.273 606.191,453.588 610.225,464.397 614.259,474.953 618.293,484.98 622.327,494.623 626.361,504.369 630.395,514.571 634.428,525.394 638.462,536.388 642.496,547.223 646.53,557.339 650.564,567.544 654.598,578.009 658.632,588.21 662.666,598.43 666.7,608.034 670.734,616.91 674.768,625.043 678.802,632.848 682.835,640.761 686.869,648.063 690.903,655.928 694.937,663.737 698.971,671.676 703.005,680.003 707.039,689.081 711.073,697.85 715.107,706.731 719.141,715.726 723.175,724.46 727.209,734.102 731.242,744.454 735.276,755.09 739.31,765.665 743.344,776.407 747.378,786.618 751.412,796.606 755.446,806.069 759.48,815.753 763.514,825.445 767.548,834.401 771.582,843.004 775.616,851.404 779.649,859.541 783.683,867.233 787.717,874.414 791.751,881.318 795.785,887.863 799.819,893.52 803.853,898.391 807.887,903.005 811.921,908.644 815.955,914.738 819.989,919.95 824.023,924.584 828.056,928.953 832.09,933.594 836.124,937.513 840.158,940.447 844.192,942.627 848.226,945.116 852.26,947.047 856.294,948.575 860.328,949.572 864.362,950.127 868.396,950.298 872.43,950.431 876.463,950.476 880.497,950.161 884.531,949.933 888.565,950.094 892.599,950.275 896.633,950.239 900.667,950.156 904.701,949.805 908.735,949.472 912.769,949.101 916.803,949.131 920.837,949 924.87,948.336 928.904,947.283 932.938,946.291 936.972,944.885 941.006,943.264 945.04,941.585 949.074,939.764 953.108,938.657 957.142,937.892 961.176,937.066 965.21,936.338 969.244,935.875 973.277,935.708 977.311,935.304 981.345,935.043 985.379,934.561 989.413,934.148 993.447,934.284 997.481,934.321 1001.51,934.188 1005.55,933.867 1009.58,933.648 1013.62,933.271 1017.65,932.962 1021.68,932.883 1025.72,933.653 1029.75,934.484 1033.79,934.964 1037.82,935.475 1041.85,936.006 1045.89,936.741 1049.92,937.873 1053.96,938.772 1057.99,939.898 1062.02,941.255 1066.06,942.55 1070.09,943.789 1074.13,945.308 1078.16,947.342 1082.19,949.466 1086.23,951.529 1090.26,953.521 1094.29,955.773 1098.33,957.87 1102.36,959.828 1106.4,961.499 1110.43,963.139 1114.46,964.857 1118.5,966.332 1122.53,967.675 1126.57,969.039 1130.6,970.254 1134.63,971.275 1138.67,972.601 1142.7,973.66 1146.74,974.564 1150.77,975.354 1154.8,975.8 1158.84,975.861 1162.87,975.362 1166.91,974.387 1170.94,973.004 1174.97,971.316 1179.01,969.312 1183.04,967.315 1187.08,965.518 1191.11,963.488 1195.14,961.255 1199.18,959.059 1203.21,957.06 1207.24,954.91 1211.28,952.519 1215.31,950.15 1219.35,948.68 1223.38,947.436 1227.41,945.979 1231.45,944.456 1235.48,943.53 1239.52,944.314 1243.55,945.173 1247.58,945.644 1251.62,946.077 1255.65,947.108 1259.69,948.425 1263.72,949.591 1267.75,950.511 1271.79,951.245 1275.82,951.869 1279.86,952.074 1283.89,951.935 1287.92,951.691 1291.96,951.347 1295.99,951.478 1300.02,951.829 1304.06,952.123 1308.09,952.402 1312.13,952.593 1316.16,952.944 1320.19,953.922 1324.23,955.391 1328.26,956.906 1332.3,959.658 1336.33,962.942 1340.36,966.106 1344.4,968.986 1348.43,971.607 1352.47,974.055 1356.5,976.518 1360.53,978.987 1364.57,981.562 1368.6,984.116 1372.64,986.96 1376.67,990.183 1380.7,994.13 1384.74,998.467 1388.77,1002.59 1392.8,1006.59 1396.84,1010.9 1400.87,1015.08 1404.91,1019.49 1408.94,1023.87 1412.97,1028.75 1417.01,1033.9 1421.04,1039.39 1425.08,1044.77 1429.11,1050 1433.14,1055.01 1437.18,1059.83 1441.21,1064.51 1445.25,1068.96 1449.28,1073 1453.31,1077.08 1457.35,1081.15 1461.38,1084.94 1465.42,1088.82 1469.45,1092.62 1473.48,1096.27 1477.52,1100.01 1481.55,1103.91 1485.58,1107.55 1489.62,1111.07 1493.65,1114.5 1497.69,1117.55 1501.72,1120.31 1505.75,1123.12 1509.79,1125.99 1513.82,1128.53 1517.86,1130.91 1521.89,1132.95 1525.92,1135.47 1529.96,1138.9 1533.99,1142.17 1538.03,1145.39 1542.06,1148.48 1546.09,1151.85 1550.13,1155.2 1554.16,1158.64 1558.2,1162.56 1562.23,1166.76 1566.26,1171 1570.3,1175.65 1574.33,1180.39 1578.36,1185.55 1582.4,1190.91 1586.43,1196.25 1590.47,1201.31 1594.5,1206.11 1598.53,1210.73 1602.57,1215.21 1606.6,1219.42 1610.64,1223.32 1614.67,1227.12 1618.7,1231.49 1622.74,1235.63 1626.77,1239.6 1630.81,1243.28 1634.84,1246.62 1638.87,1249.66 1642.91,1252.4 1646.94,1254.98 1650.98,1257.48 1655.01,1260.24 1659.04,1263.07 1663.08,1266.02 1667.11,1268.84 1671.15,1271.6 1675.18,1274.14 1679.21,1276.35 1683.25,1278.47 1687.28,1280.64 1691.31,1282.74 1695.35,1284.74 1699.38,1286.65 1703.42,1288.42 1707.45,1290.37 1711.48,1292.07 1715.52,1293.7 1719.55,1295.29 1723.59,1296.9 1727.62,1298.45 1731.65,1299.81 1735.69,1300.78 1739.72,1301.48 1743.76,1302.11 1747.79,1302.52 1751.82,1303.07 1755.86,1303.69 1759.89,1304.19 1763.93,1304.72 1767.96,1305.23 1771.99,1305.46 1776.03,1305.38 1780.06,1305.05 1784.09,1304.42 1788.13,1303.58 1792.16,1302.58 1796.2,1301.41 1800.23,1300.3 1804.26,1299.12 1808.3,1297.73 1812.33,1296.19 1816.37,1294.68 1820.4,1293.22 1824.43,1291.77 1828.47,1290.48 1832.5,1289.27 1836.54,1288.07 1840.57,1287.06 1844.6,1286.18 1848.64,1285.37 1852.67,1284.51 1856.71,1283.74 1860.74,1283.07 1864.77,1282.48 1868.81,1281.92 1872.84,1281.34 1876.87,1280.61 1880.91,1279.74 1884.94,1278.72 1888.98,1277.69 1893.01,1276.88 1897.04,1275.99 1901.08,1275.06 1905.11,1274.03 1909.15,1272.98 1913.18,1271.85 1917.21,1270.72 1921.25,1269.72 1925.28,1268.81 1929.32,1268.02 1933.35,1267.19 1937.38,1266.28 1941.42,1265.35 1945.45,1264.59 1949.49,1263.95 1953.52,1263.4 1957.55,1262.79 1961.59,1262.12 1965.62,1261.44 1969.65,1260.72 1973.69,1260.19 1977.72,1259.53 1981.76,1258.8 1985.79,1258.02 1989.82,1257.25 1993.86,1256.39 1997.89,1255.5 2001.93,1254.6 2005.96,1253.81 2009.99,1253.1 2014.03,1252.56 2018.06,1252 2022.1,1251.65 2026.13,1251.2 2030.16,1250.82 2034.2,1250.48 2038.23,1250.02 2042.27,1249.46 2046.3,1248.94 2050.33,1248.43 2054.37,1247.94 2058.4,1247.56 2062.43,1247.1 2066.47,1246.72 2070.5,1246.38 2074.54,1246.03 2078.57,1245.61 2082.6,1245.22 2086.64,1244.95 2090.67,1244.69 2094.71,1244.36 2098.74,1244.16 2102.77,1243.91 2106.81,1243.57 2110.84,1243.2 2114.88,1242.74 2118.91,1242.19 2122.94,1241.5 2126.98,1240.92 2131.01,1240.27 2135.05,1239.69 2139.08,1239.18 2143.11,1238.81 2147.15,1238.45 2151.18,1238 2155.22,1237.63 2159.25,1237.21 2163.28,1236.89 2167.32,1236.72 2171.35,1236.65 2175.38,1236.6 2179.42,1236.62 2183.45,1236.7 2187.49,1236.68 2191.52,1236.37 2195.55,1235.92 2199.59,1235.43 2203.62,1235.07 2207.66,1234.89 2211.69,1234.8 2215.72,1234.84 2219.76,1234.92 2223.79,1235.01 2227.83,1234.97 2231.86,1235.04 2235.89,1235.15 2239.93,1235.4 2243.96,1235.69 2248,1235.99 2252.03,1236.29 2256.06,1236.62 2260.1,1236.86 2264.13,1237.15 2268.16,1237.38 2272.2,1237.78 2276.23,1238.23 2280.27,1238.73 2284.3,1239.14 2288.33,1239.27 2292.37,1239.35 "/>
<polyline clip-path="url(#clip022)" style="stroke:#ff0000; stroke-linecap:round; stroke-linejoin:round; stroke-width:8; stroke-opacity:1; fill:none" points="279.444,1386.4 283.478,1367.61 287.512,1342.4 291.546,1311.23 295.579,1274.03 299.613,1232.53 303.647,1187.9 307.681,1142.21 311.715,1098.2 315.749,1053.72 319.783,1010.38 323.817,968.264 327.851,931.533 331.885,895.897 335.919,864.524 339.953,835.304 343.986,810.055 348.02,785.585 352.054,764.933 356.088,743.921 360.122,722.176 364.156,703.371 368.19,688.155 372.224,672.594 376.258,657.574 380.292,642.267 384.326,627.153 388.36,615.135 392.393,606.146 396.427,597.176 400.461,587.062 404.495,576.915 408.529,565.861 412.563,554.465 416.597,542.784 420.631,532.417 424.665,526.967 428.699,520.388 432.733,511.949 436.767,502.678 440.8,492.654 444.834,482.579 448.868,472.771 452.902,465.402 456.936,460.301 460.97,454.963 465.004,449.857 469.038,445.215 473.072,439.41 477.106,432.484 481.14,424.741 485.174,417.195 489.207,408.997 493.241,402.732 497.275,398.212 501.309,394.861 505.343,392.096 509.377,389.671 513.411,388.523 517.445,388.183 521.479,387.575 525.513,385.905 529.547,385.17 533.581,385.477 537.614,385.787 541.648,386.344 545.682,386.954 549.716,387.576 553.75,388.361 557.784,388.39 561.818,387.267 565.852,385.625 569.886,384.405 573.92,382.797 577.954,380.628 581.988,379.295 586.021,378.888 590.055,378.356 594.089,377.734 598.123,377.788 602.157,377.017 606.191,375.484 610.225,373.864 614.259,371.735 618.293,370.079 622.327,369.048 626.361,369.572 630.395,370.564 634.428,370.915 638.462,371.048 642.496,372.314 646.53,373.303 650.564,374.307 654.598,375.934 658.632,379.629 662.666,383.817 666.7,388.18 670.734,393.646 674.768,399.226 678.802,404.52 682.835,409.529 686.869,414.765 690.903,420.417 694.937,425.474 698.971,429.603 703.005,432.843 707.039,435.352 711.073,437.555 715.107,439.439 719.141,441.165 723.175,443.501 727.209,445.78 731.242,448.083 735.276,449.946 739.31,451.935 743.344,453.752 747.378,455.706 751.412,457.878 755.446,459.933 759.48,461.108 763.514,461.595 767.548,462.707 771.582,463.235 775.616,462.799 779.649,461.883 783.683,460.091 787.717,457.545 791.751,454.433 795.785,451.154 799.819,447.395 803.853,443.055 807.887,438.298 811.921,433.317 815.955,428.904 819.989,424.02 824.023,419.152 828.056,415.829 832.09,412.531 836.124,408.921 840.158,405.939 844.192,404.136 848.226,402.572 852.26,401.453 856.294,400.481 860.328,399.54 864.362,398.624 868.396,398.399 872.43,398.057 876.463,397.581 880.497,397.04 884.531,396.772 888.565,396.551 892.599,396.561 896.633,396.297 900.667,395.768 904.701,395.323 908.735,395.555 912.769,396.194 916.803,396.723 920.837,397.822 924.87,399.44 928.904,401.055 932.938,402.685 936.972,405.516 941.006,407.862 945.04,409.524 949.074,410.651 953.108,411.437 957.142,412.223 961.176,412.537 965.21,412.164 969.244,411.173 973.277,409.496 977.311,407.507 981.345,405.303 985.379,403.084 989.413,400.849 993.447,398.026 997.481,395.472 1001.51,392.651 1005.55,389.327 1009.58,385.827 1013.62,382.225 1017.65,377.844 1021.68,372.809 1025.72,367.474 1029.75,362.075 1033.79,356.891 1037.82,351.479 1041.85,346.724 1045.89,341.337 1049.92,335.606 1053.96,329.872 1057.99,324.191 1062.02,318.983 1066.06,313.955 1070.09,309.433 1074.13,304.589 1078.16,299.595 1082.19,294.881 1086.23,290.736 1090.26,286.728 1094.29,283.173 1098.33,280.477 1102.36,277.889 1106.4,276.035 1110.43,274.534 1114.46,273.307 1118.5,272.534 1122.53,271.869 1126.57,271.365 1130.6,270.561 1134.63,270.645 1138.67,271.129 1142.7,272.14 1146.74,273.897 1150.77,276.132 1154.8,278.171 1158.84,279.951 1162.87,281.523 1166.91,282.889 1170.94,284.205 1174.97,285.832 1179.01,287.824 1183.04,290.224 1187.08,292.44 1191.11,294.288 1195.14,295.962 1199.18,297.791 1203.21,300.058 1207.24,302.408 1211.28,304.63 1215.31,306.195 1219.35,307.126 1223.38,307.293 1227.41,307.403 1231.45,307.013 1235.48,306.207 1239.52,304.968 1243.55,303.46 1247.58,302.31 1251.62,300.79 1255.65,298.801 1259.69,296.477 1263.72,293.828 1267.75,290.583 1271.79,286.922 1275.82,283.962 1279.86,281.688 1283.89,279.556 1287.92,277.215 1291.96,274.511 1295.99,272.055 1300.02,269.34 1304.06,266.66 1308.09,264.088 1312.13,262.161 1316.16,260.613 1320.19,258.935 1324.23,258.048 1328.26,258.257 1332.3,258.51 1336.33,258.702 1340.36,258.577 1344.4,258.189 1348.43,257.993 1352.47,257.819 1356.5,257.827 1360.53,257.999 1364.57,258.594 1368.6,259.415 1372.64,259.767 1376.67,259.819 1380.7,259.7 1384.74,259.067 1388.77,258.373 1392.8,257.471 1396.84,256.826 1400.87,256.018 1404.91,254.744 1408.94,252.844 1412.97,250.981 1417.01,248.653 1421.04,246.325 1425.08,244.071 1429.11,241.355 1433.14,238.502 1437.18,236.884 1441.21,234.976 1445.25,233.129 1449.28,231.027 1453.31,228.458 1457.35,225.537 1461.38,222.483 1465.42,219.753 1469.45,217.059 1473.48,214.659 1477.52,212.169 1481.55,209.401 1485.58,206.497 1489.62,203.387 1493.65,200.058 1497.69,197.696 1501.72,196.309 1505.75,194.909 1509.79,194.024 1513.82,194.639 1517.86,195.55 1521.89,196.488 1525.92,197.541 1529.96,198.356 1533.99,198.917 1538.03,199.246 1542.06,199.578 1546.09,199.636 1550.13,199.585 1554.16,199.157 1558.2,198.451 1562.23,198.206 1566.26,197.973 1570.3,198.396 1574.33,198.669 1578.36,198.656 1582.4,198.497 1586.43,198.098 1590.47,197.607 1594.5,197.26 1598.53,196.759 1602.57,196.351 1606.6,195.813 1610.64,195.066 1614.67,194.12 1618.7,192.722 1622.74,191.316 1626.77,190.261 1630.81,189.02 1634.84,187.544 1638.87,185.898 1642.91,183.997 1646.94,181.861 1650.98,179.444 1655.01,176.982 1659.04,174.688 1663.08,172.494 1667.11,171.289 1671.15,170.638 1675.18,170.007 1679.21,169.425 1683.25,168.828 1687.28,168.495 1691.31,168.588 1695.35,168.798 1699.38,169.293 1703.42,170.033 1707.45,171.201 1711.48,172.59 1715.52,174.032 1719.55,175.448 1723.59,176.766 1727.62,177.943 1731.65,179.078 1735.69,180.102 1739.72,180.967 1743.76,181.76 1747.79,182.613 1751.82,183.372 1755.86,184.119 1759.89,184.973 1763.93,185.638 1767.96,186.219 1771.99,186.724 1776.03,187.13 1780.06,187.513 1784.09,188.122 1788.13,188.774 1792.16,189.61 1796.2,190.341 1800.23,190.993 1804.26,191.607 1808.3,191.917 1812.33,192.008 1816.37,191.741 1820.4,191.262 1824.43,190.777 1828.47,190.108 1832.5,189.563 1836.54,189.195 1840.57,188.731 1844.6,188.18 1848.64,187.518 1852.67,186.701 1856.71,185.834 1860.74,184.983 1864.77,184.177 1868.81,183.416 1872.84,182.701 1876.87,182.059 1880.91,181.459 1884.94,181.23 1888.98,181.108 1893.01,181.242 1897.04,181.363 1901.08,181.434 1905.11,181.495 1909.15,181.582 1913.18,181.612 1917.21,181.539 1921.25,181.481 1925.28,181.724 1929.32,182.074 1933.35,182.324 1937.38,182.436 1941.42,182.443 1945.45,182.396 1949.49,182.303 1953.52,182.046 1957.55,181.621 1961.59,181.101 1965.62,180.674 1969.65,180.488 1973.69,180.355 1977.72,180.199 1981.76,180.09 1985.79,179.998 1989.82,179.963 1993.86,179.906 1997.89,179.961 2001.93,180.11 2005.96,180.6 2009.99,181.058 2014.03,181.604 2018.06,182.082 2022.1,182.377 2026.13,182.53 2030.16,182.86 2034.2,183.156 2038.23,183.417 2042.27,183.677 2046.3,183.991 2050.33,184.391 2054.37,184.687 2058.4,184.987 2062.43,185.312 2066.47,185.601 2070.5,185.762 2074.54,185.998 2078.57,186.362 2082.6,186.645 2086.64,186.786 2090.67,186.68 2094.71,186.261 2098.74,185.692 2102.77,185.127 2106.81,184.589 2110.84,184.33 2114.88,184.169 2118.91,184.124 2122.94,184.013 2126.98,183.8 2131.01,183.515 2135.05,183.158 2139.08,182.788 2143.11,182.389 2147.15,182.125 2151.18,181.883 2155.22,181.724 2159.25,181.512 2163.28,181.451 2167.32,181.194 2171.35,180.807 2175.38,180.314 2179.42,179.853 2183.45,179.405 2187.49,179.008 2191.52,178.467 2195.55,177.868 2199.59,177.165 2203.62,176.348 2207.66,175.354 2211.69,174.307 2215.72,173.391 2219.76,172.593 2223.79,171.837 2227.83,171.069 2231.86,170.304 2235.89,169.644 2239.93,168.883 2243.96,168.187 2248,167.716 2252.03,167.085 2256.06,166.295 2260.1,165.594 2264.13,164.875 2268.16,164.038 2272.2,163.265 2276.23,162.561 2280.27,162.006 2284.3,161.484 2288.33,160.928 2292.37,160.256 "/>
<path clip-path="url(#clip020)" d="M290.179 1379.86 L761.974 1379.86 L761.974 1224.34 L290.179 1224.34  Z" fill="#ffffff" fill-rule="evenodd" fill-opacity="1"/>
<polyline clip-path="url(#clip020)" style="stroke:#000000; stroke-linecap:round; stroke-linejoin:round; stroke-width:4; stroke-opacity:1; fill:none" points="290.179,1379.86 761.974,1379.86 761.974,1224.34 290.179,1224.34 290.179,1379.86 "/>
<polyline clip-path="url(#clip020)" style="stroke:#0000ff; stroke-linecap:round; stroke-linejoin:round; stroke-width:8; stroke-opacity:1; fill:none" points="313.887,1276.18 456.134,1276.18 "/>
<path clip-path="url(#clip020)" d="M479.842 1258.9 L486.809 1258.9 L495.629 1282.41 L504.494 1258.9 L511.462 1258.9 L511.462 1293.46 L506.902 1293.46 L506.902 1263.11 L497.99 1286.81 L493.291 1286.81 L484.379 1263.11 L484.379 1293.46 L479.842 1293.46 L479.842 1258.9 Z" fill="#000000" fill-rule="nonzero" fill-opacity="1" /><path clip-path="url(#clip020)" d="M542.735 1279.43 L542.735 1281.51 L523.152 1281.51 Q523.429 1285.91 525.79 1288.22 Q528.175 1290.52 532.411 1290.52 Q534.864 1290.52 537.156 1289.91 Q539.471 1289.31 541.739 1288.11 L541.739 1292.14 Q539.448 1293.11 537.04 1293.62 Q534.633 1294.13 532.156 1294.13 Q525.952 1294.13 522.318 1290.52 Q518.707 1286.91 518.707 1280.75 Q518.707 1274.38 522.133 1270.66 Q525.582 1266.91 531.415 1266.91 Q536.647 1266.91 539.679 1270.29 Q542.735 1273.64 542.735 1279.43 M538.476 1278.18 Q538.429 1274.68 536.508 1272.6 Q534.61 1270.52 531.462 1270.52 Q527.897 1270.52 525.744 1272.53 Q523.615 1274.54 523.29 1278.2 L538.476 1278.18 Z" fill="#000000" fill-rule="nonzero" fill-opacity="1" /><path clip-path="url(#clip020)" d="M553.938 1260.17 L553.938 1267.53 L562.712 1267.53 L562.712 1270.84 L553.938 1270.84 L553.938 1284.91 Q553.938 1288.09 554.795 1288.99 Q555.675 1289.89 558.337 1289.89 L562.712 1289.89 L562.712 1293.46 L558.337 1293.46 Q553.406 1293.46 551.531 1291.63 Q549.656 1289.78 549.656 1284.91 L549.656 1270.84 L546.531 1270.84 L546.531 1267.53 L549.656 1267.53 L549.656 1260.17 L553.938 1260.17 Z" fill="#000000" fill-rule="nonzero" fill-opacity="1" /><path clip-path="url(#clip020)" d="M583.336 1271.51 Q582.619 1271.1 581.762 1270.91 Q580.929 1270.7 579.911 1270.7 Q576.299 1270.7 574.355 1273.06 Q572.434 1275.4 572.434 1279.8 L572.434 1293.46 L568.151 1293.46 L568.151 1267.53 L572.434 1267.53 L572.434 1271.56 Q573.776 1269.2 575.929 1268.06 Q578.082 1266.91 581.161 1266.91 Q581.6 1266.91 582.133 1266.97 Q582.665 1267.02 583.313 1267.14 L583.336 1271.51 Z" fill="#000000" fill-rule="nonzero" fill-opacity="1" /><path clip-path="url(#clip020)" d="M587.804 1267.53 L592.063 1267.53 L592.063 1293.46 L587.804 1293.46 L587.804 1267.53 M587.804 1257.44 L592.063 1257.44 L592.063 1262.83 L587.804 1262.83 L587.804 1257.44 Z" fill="#000000" fill-rule="nonzero" fill-opacity="1" /><path clip-path="url(#clip020)" d="M619.633 1268.53 L619.633 1272.51 Q617.827 1271.51 615.998 1271.03 Q614.193 1270.52 612.341 1270.52 Q608.197 1270.52 605.906 1273.16 Q603.614 1275.77 603.614 1280.52 Q603.614 1285.26 605.906 1287.9 Q608.197 1290.52 612.341 1290.52 Q614.193 1290.52 615.998 1290.03 Q617.827 1289.52 619.633 1288.53 L619.633 1292.46 Q617.85 1293.29 615.929 1293.71 Q614.031 1294.13 611.878 1294.13 Q606.021 1294.13 602.572 1290.45 Q599.123 1286.77 599.123 1280.52 Q599.123 1274.17 602.596 1270.54 Q606.091 1266.91 612.156 1266.91 Q614.123 1266.91 615.998 1267.32 Q617.873 1267.72 619.633 1268.53 Z" fill="#000000" fill-rule="nonzero" fill-opacity="1" /><polyline clip-path="url(#clip020)" style="stroke:#ff0000; stroke-linecap:round; stroke-linejoin:round; stroke-width:8; stroke-opacity:1; fill:none" points="313.887,1328.02 456.134,1328.02 "/>
<path clip-path="url(#clip020)" d="M479.842 1310.74 L509.078 1310.74 L509.078 1314.67 L496.809 1314.67 L496.809 1345.3 L492.11 1345.3 L492.11 1314.67 L479.842 1314.67 L479.842 1310.74 Z" fill="#000000" fill-rule="nonzero" fill-opacity="1" /><path clip-path="url(#clip020)" d="M515.397 1322.36 Q511.971 1322.36 509.98 1325.04 Q507.99 1327.7 507.99 1332.36 Q507.99 1337.01 509.957 1339.69 Q511.948 1342.36 515.397 1342.36 Q518.8 1342.36 520.79 1339.67 Q522.781 1336.99 522.781 1332.36 Q522.781 1327.75 520.79 1325.06 Q518.8 1322.36 515.397 1322.36 M515.397 1318.75 Q520.953 1318.75 524.124 1322.36 Q527.295 1325.97 527.295 1332.36 Q527.295 1338.72 524.124 1342.36 Q520.953 1345.97 515.397 1345.97 Q509.818 1345.97 506.647 1342.36 Q503.499 1338.72 503.499 1332.36 Q503.499 1325.97 506.647 1322.36 Q509.818 1318.75 515.397 1318.75 Z" fill="#000000" fill-rule="nonzero" fill-opacity="1" /><path clip-path="url(#clip020)" d="M538.476 1341.41 L538.476 1355.16 L534.193 1355.16 L534.193 1319.37 L538.476 1319.37 L538.476 1323.31 Q539.818 1320.99 541.855 1319.88 Q543.915 1318.75 546.763 1318.75 Q551.485 1318.75 554.425 1322.5 Q557.387 1326.25 557.387 1332.36 Q557.387 1338.47 554.425 1342.22 Q551.485 1345.97 546.763 1345.97 Q543.915 1345.97 541.855 1344.86 Q539.818 1343.72 538.476 1341.41 M552.966 1332.36 Q552.966 1327.66 551.022 1325 Q549.101 1322.31 545.721 1322.31 Q542.341 1322.31 540.397 1325 Q538.476 1327.66 538.476 1332.36 Q538.476 1337.06 540.397 1339.74 Q542.341 1342.4 545.721 1342.4 Q549.101 1342.4 551.022 1339.74 Q552.966 1337.06 552.966 1332.36 Z" fill="#000000" fill-rule="nonzero" fill-opacity="1" /><path clip-path="url(#clip020)" d="M574.494 1322.36 Q571.068 1322.36 569.077 1325.04 Q567.087 1327.7 567.087 1332.36 Q567.087 1337.01 569.054 1339.69 Q571.045 1342.36 574.494 1342.36 Q577.897 1342.36 579.887 1339.67 Q581.878 1336.99 581.878 1332.36 Q581.878 1327.75 579.887 1325.06 Q577.897 1322.36 574.494 1322.36 M574.494 1318.75 Q580.049 1318.75 583.221 1322.36 Q586.392 1325.97 586.392 1332.36 Q586.392 1338.72 583.221 1342.36 Q580.049 1345.97 574.494 1345.97 Q568.915 1345.97 565.744 1342.36 Q562.596 1338.72 562.596 1332.36 Q562.596 1325.97 565.744 1322.36 Q568.915 1318.75 574.494 1318.75 Z" fill="#000000" fill-rule="nonzero" fill-opacity="1" /><path clip-path="url(#clip020)" d="M593.452 1309.28 L597.711 1309.28 L597.711 1345.3 L593.452 1345.3 L593.452 1309.28 Z" fill="#000000" fill-rule="nonzero" fill-opacity="1" /><path clip-path="url(#clip020)" d="M616.67 1322.36 Q613.244 1322.36 611.253 1325.04 Q609.262 1327.7 609.262 1332.36 Q609.262 1337.01 611.23 1339.69 Q613.221 1342.36 616.67 1342.36 Q620.072 1342.36 622.063 1339.67 Q624.054 1336.99 624.054 1332.36 Q624.054 1327.75 622.063 1325.06 Q620.072 1322.36 616.67 1322.36 M616.67 1318.75 Q622.225 1318.75 625.396 1322.36 Q628.568 1325.97 628.568 1332.36 Q628.568 1338.72 625.396 1342.36 Q622.225 1345.97 616.67 1345.97 Q611.091 1345.97 607.92 1342.36 Q604.772 1338.72 604.772 1332.36 Q604.772 1325.97 607.92 1322.36 Q611.091 1318.75 616.67 1318.75 Z" fill="#000000" fill-rule="nonzero" fill-opacity="1" /><path clip-path="url(#clip020)" d="M652.688 1332.03 Q652.688 1327.4 650.767 1324.86 Q648.868 1322.31 645.419 1322.31 Q641.994 1322.31 640.072 1324.86 Q638.174 1327.4 638.174 1332.03 Q638.174 1336.64 640.072 1339.19 Q641.994 1341.73 645.419 1341.73 Q648.868 1341.73 650.767 1339.19 Q652.688 1336.64 652.688 1332.03 M656.947 1342.08 Q656.947 1348.7 654.007 1351.92 Q651.068 1355.16 645.003 1355.16 Q642.757 1355.16 640.767 1354.81 Q638.776 1354.49 636.901 1353.79 L636.901 1349.65 Q638.776 1350.67 640.605 1351.15 Q642.433 1351.64 644.331 1351.64 Q648.521 1351.64 650.605 1349.44 Q652.688 1347.26 652.688 1342.84 L652.688 1340.74 Q651.368 1343.03 649.308 1344.16 Q647.248 1345.3 644.378 1345.3 Q639.609 1345.3 636.693 1341.66 Q633.776 1338.03 633.776 1332.03 Q633.776 1326.01 636.693 1322.38 Q639.609 1318.75 644.378 1318.75 Q647.248 1318.75 649.308 1319.88 Q651.368 1321.01 652.688 1323.31 L652.688 1319.37 L656.947 1319.37 L656.947 1342.08 Z" fill="#000000" fill-rule="nonzero" fill-opacity="1" /><path clip-path="url(#clip020)" d="M665.72 1319.37 L669.979 1319.37 L669.979 1345.3 L665.72 1345.3 L665.72 1319.37 M665.72 1309.28 L669.979 1309.28 L669.979 1314.67 L665.72 1314.67 L665.72 1309.28 Z" fill="#000000" fill-rule="nonzero" fill-opacity="1" /><path clip-path="url(#clip020)" d="M697.549 1320.37 L697.549 1324.35 Q695.743 1323.35 693.915 1322.87 Q692.109 1322.36 690.257 1322.36 Q686.114 1322.36 683.822 1325 Q681.53 1327.61 681.53 1332.36 Q681.53 1337.1 683.822 1339.74 Q686.114 1342.36 690.257 1342.36 Q692.109 1342.36 693.915 1341.87 Q695.743 1341.36 697.549 1340.37 L697.549 1344.3 Q695.766 1345.13 693.845 1345.55 Q691.947 1345.97 689.794 1345.97 Q683.938 1345.97 680.489 1342.29 Q677.04 1338.61 677.04 1332.36 Q677.04 1326.01 680.512 1322.38 Q684.007 1318.75 690.072 1318.75 Q692.04 1318.75 693.915 1319.16 Q695.79 1319.56 697.549 1320.37 Z" fill="#000000" fill-rule="nonzero" fill-opacity="1" /><path clip-path="url(#clip020)" d="M716.738 1332.26 Q711.576 1332.26 709.586 1333.44 Q707.595 1334.63 707.595 1337.47 Q707.595 1339.74 709.077 1341.08 Q710.581 1342.4 713.151 1342.4 Q716.692 1342.4 718.822 1339.9 Q720.975 1337.38 720.975 1333.21 L720.975 1332.26 L716.738 1332.26 M725.234 1330.5 L725.234 1345.3 L720.975 1345.3 L720.975 1341.36 Q719.516 1343.72 717.34 1344.86 Q715.164 1345.97 712.016 1345.97 Q708.035 1345.97 705.674 1343.75 Q703.336 1341.5 703.336 1337.75 Q703.336 1333.38 706.252 1331.15 Q709.192 1328.93 715.002 1328.93 L720.975 1328.93 L720.975 1328.51 Q720.975 1325.57 719.03 1323.98 Q717.109 1322.36 713.614 1322.36 Q711.391 1322.36 709.285 1322.89 Q707.178 1323.42 705.234 1324.49 L705.234 1320.55 Q707.572 1319.65 709.771 1319.21 Q711.97 1318.75 714.053 1318.75 Q719.678 1318.75 722.456 1321.66 Q725.234 1324.58 725.234 1330.5 Z" fill="#000000" fill-rule="nonzero" fill-opacity="1" /><path clip-path="url(#clip020)" d="M734.007 1309.28 L738.266 1309.28 L738.266 1345.3 L734.007 1345.3 L734.007 1309.28 Z" fill="#000000" fill-rule="nonzero" fill-opacity="1" /></svg>
