<?xml version="1.0" encoding="utf-8"?>
<svg xmlns="http://www.w3.org/2000/svg" xmlns:xlink="http://www.w3.org/1999/xlink" width="600" height="400" viewBox="0 0 2400 1600">
<defs>
  <clipPath id="clip180">
    <rect x="0" y="0" width="2400" height="1600"/>
  </clipPath>
</defs>
<path clip-path="url(#clip180)" d="M0 1600 L2400 1600 L2400 0 L0 0  Z" fill="#ffffff" fill-rule="evenodd" fill-opacity="1"/>
<defs>
  <clipPath id="clip181">
    <rect x="480" y="0" width="1681" height="1600"/>
  </clipPath>
</defs>
<path clip-path="url(#clip180)" d="M219.519 1423.18 L2352.76 1423.18 L2352.76 123.472 L219.519 123.472  Z" fill="#ffffff" fill-rule="evenodd" fill-opacity="1"/>
<defs>
  <clipPath id="clip182">
    <rect x="219" y="123" width="2134" height="1301"/>
  </clipPath>
</defs>
<polyline clip-path="url(#clip182)" style="stroke:#000000; stroke-linecap:round; stroke-linejoin:round; stroke-width:2; stroke-opacity:0.1; fill:none" points="275.861,1423.18 275.861,123.472 "/>
<polyline clip-path="url(#clip182)" style="stroke:#000000; stroke-linecap:round; stroke-linejoin:round; stroke-width:2; stroke-opacity:0.1; fill:none" points="679.165,1423.18 679.165,123.472 "/>
<polyline clip-path="url(#clip182)" style="stroke:#000000; stroke-linecap:round; stroke-linejoin:round; stroke-width:2; stroke-opacity:0.1; fill:none" points="1082.47,1423.18 1082.47,123.472 "/>
<polyline clip-path="url(#clip182)" style="stroke:#000000; stroke-linecap:round; stroke-linejoin:round; stroke-width:2; stroke-opacity:0.1; fill:none" points="1485.77,1423.18 1485.77,123.472 "/>
<polyline clip-path="url(#clip182)" style="stroke:#000000; stroke-linecap:round; stroke-linejoin:round; stroke-width:2; stroke-opacity:0.1; fill:none" points="1889.08,1423.18 1889.08,123.472 "/>
<polyline clip-path="url(#clip182)" style="stroke:#000000; stroke-linecap:round; stroke-linejoin:round; stroke-width:2; stroke-opacity:0.1; fill:none" points="2292.38,1423.18 2292.38,123.472 "/>
<polyline clip-path="url(#clip182)" style="stroke:#000000; stroke-linecap:round; stroke-linejoin:round; stroke-width:2; stroke-opacity:0.1; fill:none" points="219.519,1266.67 2352.76,1266.67 "/>
<polyline clip-path="url(#clip182)" style="stroke:#000000; stroke-linecap:round; stroke-linejoin:round; stroke-width:2; stroke-opacity:0.1; fill:none" points="219.519,1060.64 2352.76,1060.64 "/>
<polyline clip-path="url(#clip182)" style="stroke:#000000; stroke-linecap:round; stroke-linejoin:round; stroke-width:2; stroke-opacity:0.1; fill:none" points="219.519,854.615 2352.76,854.615 "/>
<polyline clip-path="url(#clip182)" style="stroke:#000000; stroke-linecap:round; stroke-linejoin:round; stroke-width:2; stroke-opacity:0.1; fill:none" points="219.519,648.588 2352.76,648.588 "/>
<polyline clip-path="url(#clip182)" style="stroke:#000000; stroke-linecap:round; stroke-linejoin:round; stroke-width:2; stroke-opacity:0.1; fill:none" points="219.519,442.561 2352.76,442.561 "/>
<polyline clip-path="url(#clip182)" style="stroke:#000000; stroke-linecap:round; stroke-linejoin:round; stroke-width:2; stroke-opacity:0.1; fill:none" points="219.519,236.533 2352.76,236.533 "/>
<polyline clip-path="url(#clip180)" style="stroke:#000000; stroke-linecap:round; stroke-linejoin:round; stroke-width:4; stroke-opacity:1; fill:none" points="219.519,1423.18 2352.76,1423.18 "/>
<polyline clip-path="url(#clip180)" style="stroke:#000000; stroke-linecap:round; stroke-linejoin:round; stroke-width:4; stroke-opacity:1; fill:none" points="275.861,1423.18 275.861,1404.28 "/>
<polyline clip-path="url(#clip180)" style="stroke:#000000; stroke-linecap:round; stroke-linejoin:round; stroke-width:4; stroke-opacity:1; fill:none" points="679.165,1423.18 679.165,1404.28 "/>
<polyline clip-path="url(#clip180)" style="stroke:#000000; stroke-linecap:round; stroke-linejoin:round; stroke-width:4; stroke-opacity:1; fill:none" points="1082.47,1423.18 1082.47,1404.28 "/>
<polyline clip-path="url(#clip180)" style="stroke:#000000; stroke-linecap:round; stroke-linejoin:round; stroke-width:4; stroke-opacity:1; fill:none" points="1485.77,1423.18 1485.77,1404.28 "/>
<polyline clip-path="url(#clip180)" style="stroke:#000000; stroke-linecap:round; stroke-linejoin:round; stroke-width:4; stroke-opacity:1; fill:none" points="1889.08,1423.18 1889.08,1404.28 "/>
<polyline clip-path="url(#clip180)" style="stroke:#000000; stroke-linecap:round; stroke-linejoin:round; stroke-width:4; stroke-opacity:1; fill:none" points="2292.38,1423.18 2292.38,1404.28 "/>
<path clip-path="url(#clip180)" d="M275.861 1454.1 Q272.25 1454.1 270.421 1457.66 Q268.615 1461.2 268.615 1468.33 Q268.615 1475.44 270.421 1479.01 Q272.25 1482.55 275.861 1482.55 Q279.495 1482.55 281.3 1479.01 Q283.129 1475.44 283.129 1468.33 Q283.129 1461.2 281.3 1457.66 Q279.495 1454.1 275.861 1454.1 M275.861 1450.39 Q281.671 1450.39 284.726 1455 Q287.805 1459.58 287.805 1468.33 Q287.805 1477.06 284.726 1481.67 Q281.671 1486.25 275.861 1486.25 Q270.05 1486.25 266.972 1481.67 Q263.916 1477.06 263.916 1468.33 Q263.916 1459.58 266.972 1455 Q270.05 1450.39 275.861 1450.39 Z" fill="#000000" fill-rule="nonzero" fill-opacity="1" /><path clip-path="url(#clip180)" d="M638.771 1481.64 L646.41 1481.64 L646.41 1455.28 L638.1 1456.95 L638.1 1452.69 L646.364 1451.02 L651.04 1451.02 L651.04 1481.64 L658.679 1481.64 L658.679 1485.58 L638.771 1485.58 L638.771 1481.64 Z" fill="#000000" fill-rule="nonzero" fill-opacity="1" /><path clip-path="url(#clip180)" d="M678.123 1454.1 Q674.512 1454.1 672.683 1457.66 Q670.878 1461.2 670.878 1468.33 Q670.878 1475.44 672.683 1479.01 Q674.512 1482.55 678.123 1482.55 Q681.757 1482.55 683.563 1479.01 Q685.392 1475.44 685.392 1468.33 Q685.392 1461.2 683.563 1457.66 Q681.757 1454.1 678.123 1454.1 M678.123 1450.39 Q683.933 1450.39 686.989 1455 Q690.067 1459.58 690.067 1468.33 Q690.067 1477.06 686.989 1481.67 Q683.933 1486.25 678.123 1486.25 Q672.313 1486.25 669.234 1481.67 Q666.179 1477.06 666.179 1468.33 Q666.179 1459.58 669.234 1455 Q672.313 1450.39 678.123 1450.39 Z" fill="#000000" fill-rule="nonzero" fill-opacity="1" /><path clip-path="url(#clip180)" d="M708.285 1454.1 Q704.674 1454.1 702.845 1457.66 Q701.04 1461.2 701.04 1468.33 Q701.04 1475.44 702.845 1479.01 Q704.674 1482.55 708.285 1482.55 Q711.919 1482.55 713.725 1479.01 Q715.553 1475.44 715.553 1468.33 Q715.553 1461.2 713.725 1457.66 Q711.919 1454.1 708.285 1454.1 M708.285 1450.39 Q714.095 1450.39 717.151 1455 Q720.229 1459.58 720.229 1468.33 Q720.229 1477.06 717.151 1481.67 Q714.095 1486.25 708.285 1486.25 Q702.475 1486.25 699.396 1481.67 Q696.341 1477.06 696.341 1468.33 Q696.341 1459.58 699.396 1455 Q702.475 1450.39 708.285 1450.39 Z" fill="#000000" fill-rule="nonzero" fill-opacity="1" /><path clip-path="url(#clip180)" d="M1046.16 1481.64 L1062.48 1481.64 L1062.48 1485.58 L1040.54 1485.58 L1040.54 1481.64 Q1043.2 1478.89 1047.78 1474.26 Q1052.39 1469.61 1053.57 1468.27 Q1055.81 1465.74 1056.69 1464.01 Q1057.6 1462.25 1057.6 1460.56 Q1057.6 1457.8 1055.65 1456.07 Q1053.73 1454.33 1050.63 1454.33 Q1048.43 1454.33 1045.98 1455.09 Q1043.55 1455.86 1040.77 1457.41 L1040.77 1452.69 Q1043.59 1451.55 1046.05 1450.97 Q1048.5 1450.39 1050.54 1450.39 Q1055.91 1450.39 1059.1 1453.08 Q1062.3 1455.77 1062.3 1460.26 Q1062.3 1462.39 1061.49 1464.31 Q1060.7 1466.2 1058.59 1468.8 Q1058.01 1469.47 1054.91 1472.69 Q1051.81 1475.88 1046.16 1481.64 Z" fill="#000000" fill-rule="nonzero" fill-opacity="1" /><path clip-path="url(#clip180)" d="M1082.3 1454.1 Q1078.68 1454.1 1076.86 1457.66 Q1075.05 1461.2 1075.05 1468.33 Q1075.05 1475.44 1076.86 1479.01 Q1078.68 1482.55 1082.3 1482.55 Q1085.93 1482.55 1087.74 1479.01 Q1089.56 1475.44 1089.56 1468.33 Q1089.56 1461.2 1087.74 1457.66 Q1085.93 1454.1 1082.3 1454.1 M1082.3 1450.39 Q1088.11 1450.39 1091.16 1455 Q1094.24 1459.58 1094.24 1468.33 Q1094.24 1477.06 1091.16 1481.67 Q1088.11 1486.25 1082.3 1486.25 Q1076.49 1486.25 1073.41 1481.67 Q1070.35 1477.06 1070.35 1468.33 Q1070.35 1459.58 1073.41 1455 Q1076.49 1450.39 1082.3 1450.39 Z" fill="#000000" fill-rule="nonzero" fill-opacity="1" /><path clip-path="url(#clip180)" d="M1112.46 1454.1 Q1108.85 1454.1 1107.02 1457.66 Q1105.21 1461.2 1105.21 1468.33 Q1105.21 1475.44 1107.02 1479.01 Q1108.85 1482.55 1112.46 1482.55 Q1116.09 1482.55 1117.9 1479.01 Q1119.73 1475.44 1119.73 1468.33 Q1119.73 1461.2 1117.9 1457.66 Q1116.09 1454.1 1112.46 1454.1 M1112.46 1450.39 Q1118.27 1450.39 1121.32 1455 Q1124.4 1459.58 1124.4 1468.33 Q1124.4 1477.06 1121.32 1481.67 Q1118.27 1486.25 1112.46 1486.25 Q1106.65 1486.25 1103.57 1481.67 Q1100.51 1477.06 1100.51 1468.33 Q1100.51 1459.58 1103.57 1455 Q1106.65 1450.39 1112.46 1450.39 Z" fill="#000000" fill-rule="nonzero" fill-opacity="1" /><path clip-path="url(#clip180)" d="M1459.53 1466.95 Q1462.89 1467.66 1464.77 1469.93 Q1466.66 1472.2 1466.66 1475.53 Q1466.66 1480.65 1463.15 1483.45 Q1459.63 1486.25 1453.15 1486.25 Q1450.97 1486.25 1448.66 1485.81 Q1446.36 1485.39 1443.91 1484.54 L1443.91 1480.02 Q1445.85 1481.16 1448.17 1481.74 Q1450.48 1482.32 1453.01 1482.32 Q1457.41 1482.32 1459.7 1480.58 Q1462.01 1478.84 1462.01 1475.53 Q1462.01 1472.48 1459.86 1470.77 Q1457.73 1469.03 1453.91 1469.03 L1449.88 1469.03 L1449.88 1465.19 L1454.09 1465.19 Q1457.54 1465.19 1459.37 1463.82 Q1461.2 1462.43 1461.2 1459.84 Q1461.2 1457.18 1459.3 1455.77 Q1457.43 1454.33 1453.91 1454.33 Q1451.99 1454.33 1449.79 1454.75 Q1447.59 1455.16 1444.95 1456.04 L1444.95 1451.88 Q1447.61 1451.14 1449.93 1450.77 Q1452.27 1450.39 1454.33 1450.39 Q1459.65 1450.39 1462.75 1452.83 Q1465.85 1455.23 1465.85 1459.35 Q1465.85 1462.22 1464.21 1464.21 Q1462.57 1466.18 1459.53 1466.95 Z" fill="#000000" fill-rule="nonzero" fill-opacity="1" /><path clip-path="url(#clip180)" d="M1485.53 1454.1 Q1481.92 1454.1 1480.09 1457.66 Q1478.28 1461.2 1478.28 1468.33 Q1478.28 1475.44 1480.09 1479.01 Q1481.92 1482.55 1485.53 1482.55 Q1489.16 1482.55 1490.97 1479.01 Q1492.8 1475.44 1492.8 1468.33 Q1492.8 1461.2 1490.97 1457.66 Q1489.16 1454.1 1485.53 1454.1 M1485.53 1450.39 Q1491.34 1450.39 1494.4 1455 Q1497.47 1459.58 1497.47 1468.33 Q1497.47 1477.06 1494.4 1481.67 Q1491.34 1486.25 1485.53 1486.25 Q1479.72 1486.25 1476.64 1481.67 Q1473.59 1477.06 1473.59 1468.33 Q1473.59 1459.58 1476.64 1455 Q1479.72 1450.39 1485.53 1450.39 Z" fill="#000000" fill-rule="nonzero" fill-opacity="1" /><path clip-path="url(#clip180)" d="M1515.69 1454.1 Q1512.08 1454.1 1510.25 1457.66 Q1508.45 1461.2 1508.45 1468.33 Q1508.45 1475.44 1510.25 1479.01 Q1512.08 1482.55 1515.69 1482.55 Q1519.33 1482.55 1521.13 1479.01 Q1522.96 1475.44 1522.96 1468.33 Q1522.96 1461.2 1521.13 1457.66 Q1519.33 1454.1 1515.69 1454.1 M1515.69 1450.39 Q1521.5 1450.39 1524.56 1455 Q1527.64 1459.58 1527.64 1468.33 Q1527.64 1477.06 1524.56 1481.67 Q1521.5 1486.25 1515.69 1486.25 Q1509.88 1486.25 1506.8 1481.67 Q1503.75 1477.06 1503.75 1468.33 Q1503.75 1459.58 1506.8 1455 Q1509.88 1450.39 1515.69 1450.39 Z" fill="#000000" fill-rule="nonzero" fill-opacity="1" /><path clip-path="url(#clip180)" d="M1862.17 1455.09 L1850.36 1473.54 L1862.17 1473.54 L1862.17 1455.09 M1860.94 1451.02 L1866.82 1451.02 L1866.82 1473.54 L1871.75 1473.54 L1871.75 1477.43 L1866.82 1477.43 L1866.82 1485.58 L1862.17 1485.58 L1862.17 1477.43 L1846.57 1477.43 L1846.57 1472.92 L1860.94 1451.02 Z" fill="#000000" fill-rule="nonzero" fill-opacity="1" /><path clip-path="url(#clip180)" d="M1889.48 1454.1 Q1885.87 1454.1 1884.04 1457.66 Q1882.24 1461.2 1882.24 1468.33 Q1882.24 1475.44 1884.04 1479.01 Q1885.87 1482.55 1889.48 1482.55 Q1893.12 1482.55 1894.92 1479.01 Q1896.75 1475.44 1896.75 1468.33 Q1896.75 1461.2 1894.92 1457.66 Q1893.12 1454.1 1889.48 1454.1 M1889.48 1450.39 Q1895.29 1450.39 1898.35 1455 Q1901.43 1459.58 1901.43 1468.33 Q1901.43 1477.06 1898.35 1481.67 Q1895.29 1486.25 1889.48 1486.25 Q1883.67 1486.25 1880.59 1481.67 Q1877.54 1477.06 1877.54 1468.33 Q1877.54 1459.58 1880.59 1455 Q1883.67 1450.39 1889.48 1450.39 Z" fill="#000000" fill-rule="nonzero" fill-opacity="1" /><path clip-path="url(#clip180)" d="M1919.64 1454.1 Q1916.03 1454.1 1914.2 1457.66 Q1912.4 1461.2 1912.4 1468.33 Q1912.4 1475.44 1914.2 1479.01 Q1916.03 1482.55 1919.64 1482.55 Q1923.28 1482.55 1925.08 1479.01 Q1926.91 1475.44 1926.91 1468.33 Q1926.91 1461.2 1925.08 1457.66 Q1923.28 1454.1 1919.64 1454.1 M1919.64 1450.39 Q1925.45 1450.39 1928.51 1455 Q1931.59 1459.58 1931.59 1468.33 Q1931.59 1477.06 1928.51 1481.67 Q1925.45 1486.25 1919.64 1486.25 Q1913.83 1486.25 1910.76 1481.67 Q1907.7 1477.06 1907.7 1468.33 Q1907.7 1459.58 1910.76 1455 Q1913.83 1450.39 1919.64 1450.39 Z" fill="#000000" fill-rule="nonzero" fill-opacity="1" /><path clip-path="url(#clip180)" d="M2252 1451.02 L2270.36 1451.02 L2270.36 1454.96 L2256.28 1454.96 L2256.28 1463.43 Q2257.3 1463.08 2258.32 1462.92 Q2259.34 1462.73 2260.36 1462.73 Q2266.14 1462.73 2269.52 1465.9 Q2272.9 1469.08 2272.9 1474.49 Q2272.9 1480.07 2269.43 1483.17 Q2265.96 1486.25 2259.64 1486.25 Q2257.46 1486.25 2255.19 1485.88 Q2252.95 1485.51 2250.54 1484.77 L2250.54 1480.07 Q2252.62 1481.2 2254.85 1481.76 Q2257.07 1482.32 2259.55 1482.32 Q2263.55 1482.32 2265.89 1480.21 Q2268.23 1478.1 2268.23 1474.49 Q2268.23 1470.88 2265.89 1468.77 Q2263.55 1466.67 2259.55 1466.67 Q2257.67 1466.67 2255.8 1467.08 Q2253.94 1467.5 2252 1468.38 L2252 1451.02 Z" fill="#000000" fill-rule="nonzero" fill-opacity="1" /><path clip-path="url(#clip180)" d="M2292.12 1454.1 Q2288.5 1454.1 2286.68 1457.66 Q2284.87 1461.2 2284.87 1468.33 Q2284.87 1475.44 2286.68 1479.01 Q2288.5 1482.55 2292.12 1482.55 Q2295.75 1482.55 2297.55 1479.01 Q2299.38 1475.44 2299.38 1468.33 Q2299.38 1461.2 2297.55 1457.66 Q2295.75 1454.1 2292.12 1454.1 M2292.12 1450.39 Q2297.93 1450.39 2300.98 1455 Q2304.06 1459.58 2304.06 1468.33 Q2304.06 1477.06 2300.98 1481.67 Q2297.93 1486.25 2292.12 1486.25 Q2286.3 1486.25 2283.23 1481.67 Q2280.17 1477.06 2280.17 1468.33 Q2280.17 1459.58 2283.23 1455 Q2286.3 1450.39 2292.12 1450.39 Z" fill="#000000" fill-rule="nonzero" fill-opacity="1" /><path clip-path="url(#clip180)" d="M2322.28 1454.1 Q2318.67 1454.1 2316.84 1457.66 Q2315.03 1461.2 2315.03 1468.33 Q2315.03 1475.44 2316.84 1479.01 Q2318.67 1482.55 2322.28 1482.55 Q2325.91 1482.55 2327.72 1479.01 Q2329.55 1475.44 2329.55 1468.33 Q2329.55 1461.2 2327.72 1457.66 Q2325.91 1454.1 2322.28 1454.1 M2322.28 1450.39 Q2328.09 1450.39 2331.14 1455 Q2334.22 1459.58 2334.22 1468.33 Q2334.22 1477.06 2331.14 1481.67 Q2328.09 1486.25 2322.28 1486.25 Q2316.47 1486.25 2313.39 1481.67 Q2310.33 1477.06 2310.33 1468.33 Q2310.33 1459.58 2313.39 1455 Q2316.47 1450.39 2322.28 1450.39 Z" fill="#000000" fill-rule="nonzero" fill-opacity="1" /><path clip-path="url(#clip180)" d="M1246.45 1522.08 L1246.45 1528.35 Q1242.79 1526.6 1239.54 1525.74 Q1236.29 1524.88 1233.27 1524.88 Q1228.02 1524.88 1225.15 1526.92 Q1222.32 1528.96 1222.32 1532.71 Q1222.32 1535.87 1224.2 1537.49 Q1226.11 1539.08 1231.39 1540.07 L1235.28 1540.86 Q1242.47 1542.23 1245.87 1545.7 Q1249.31 1549.14 1249.31 1554.93 Q1249.31 1561.84 1244.66 1565.4 Q1240.05 1568.97 1231.11 1568.97 Q1227.73 1568.97 1223.91 1568.2 Q1220.13 1567.44 1216.05 1565.94 L1216.05 1559.32 Q1219.97 1561.52 1223.72 1562.63 Q1227.48 1563.75 1231.11 1563.75 Q1236.61 1563.75 1239.6 1561.58 Q1242.6 1559.42 1242.6 1555.41 Q1242.6 1551.91 1240.43 1549.93 Q1238.3 1547.96 1233.4 1546.97 L1229.48 1546.21 Q1222.29 1544.78 1219.07 1541.72 Q1215.86 1538.67 1215.86 1533.22 Q1215.86 1526.92 1220.28 1523.29 Q1224.74 1519.66 1232.54 1519.66 Q1235.88 1519.66 1239.35 1520.27 Q1242.82 1520.87 1246.45 1522.08 Z" fill="#000000" fill-rule="nonzero" fill-opacity="1" /><path clip-path="url(#clip180)" d="M1264.88 1522.27 L1264.88 1532.4 L1276.94 1532.4 L1276.94 1536.95 L1264.88 1536.95 L1264.88 1556.3 Q1264.88 1560.66 1266.05 1561.9 Q1267.26 1563.14 1270.92 1563.14 L1276.94 1563.14 L1276.94 1568.04 L1270.92 1568.04 Q1264.14 1568.04 1261.57 1565.53 Q1258.99 1562.98 1258.99 1556.3 L1258.99 1536.95 L1254.69 1536.95 L1254.69 1532.4 L1258.99 1532.4 L1258.99 1522.27 L1264.88 1522.27 Z" fill="#000000" fill-rule="nonzero" fill-opacity="1" /><path clip-path="url(#clip180)" d="M1315.13 1548.76 L1315.13 1551.62 L1288.21 1551.62 Q1288.59 1557.67 1291.83 1560.85 Q1295.11 1564 1300.94 1564 Q1304.31 1564 1307.46 1563.17 Q1310.65 1562.35 1313.76 1560.69 L1313.76 1566.23 Q1310.61 1567.57 1307.3 1568.27 Q1303.99 1568.97 1300.59 1568.97 Q1292.06 1568.97 1287.06 1564 Q1282.1 1559.04 1282.1 1550.57 Q1282.1 1541.82 1286.81 1536.69 Q1291.55 1531.54 1299.57 1531.54 Q1306.76 1531.54 1310.93 1536.18 Q1315.13 1540.8 1315.13 1548.76 M1309.28 1547.04 Q1309.21 1542.23 1306.57 1539.37 Q1303.96 1536.5 1299.63 1536.5 Q1294.73 1536.5 1291.77 1539.27 Q1288.84 1542.04 1288.4 1547.07 L1309.28 1547.04 Z" fill="#000000" fill-rule="nonzero" fill-opacity="1" /><path clip-path="url(#clip180)" d="M1330.41 1562.7 L1330.41 1581.6 L1324.52 1581.6 L1324.52 1532.4 L1330.41 1532.4 L1330.41 1537.81 Q1332.26 1534.62 1335.06 1533.1 Q1337.89 1531.54 1341.81 1531.54 Q1348.3 1531.54 1352.34 1536.69 Q1356.41 1541.85 1356.41 1550.25 Q1356.41 1558.65 1352.34 1563.81 Q1348.3 1568.97 1341.81 1568.97 Q1337.89 1568.97 1335.06 1567.44 Q1332.26 1565.88 1330.41 1562.7 M1350.34 1550.25 Q1350.34 1543.79 1347.66 1540.13 Q1345.02 1536.44 1340.37 1536.44 Q1335.73 1536.44 1333.05 1540.13 Q1330.41 1543.79 1330.41 1550.25 Q1330.41 1556.71 1333.05 1560.4 Q1335.73 1564.07 1340.37 1564.07 Q1345.02 1564.07 1347.66 1560.4 Q1350.34 1556.71 1350.34 1550.25 Z" fill="#000000" fill-rule="nonzero" fill-opacity="1" /><polyline clip-path="url(#clip180)" style="stroke:#000000; stroke-linecap:round; stroke-linejoin:round; stroke-width:4; stroke-opacity:1; fill:none" points="219.519,1423.18 219.519,123.472 "/>
<polyline clip-path="url(#clip180)" style="stroke:#000000; stroke-linecap:round; stroke-linejoin:round; stroke-width:4; stroke-opacity:1; fill:none" points="219.519,1266.67 238.417,1266.67 "/>
<polyline clip-path="url(#clip180)" style="stroke:#000000; stroke-linecap:round; stroke-linejoin:round; stroke-width:4; stroke-opacity:1; fill:none" points="219.519,1060.64 238.417,1060.64 "/>
<polyline clip-path="url(#clip180)" style="stroke:#000000; stroke-linecap:round; stroke-linejoin:round; stroke-width:4; stroke-opacity:1; fill:none" points="219.519,854.615 238.417,854.615 "/>
<polyline clip-path="url(#clip180)" style="stroke:#000000; stroke-linecap:round; stroke-linejoin:round; stroke-width:4; stroke-opacity:1; fill:none" points="219.519,648.588 238.417,648.588 "/>
<polyline clip-path="url(#clip180)" style="stroke:#000000; stroke-linecap:round; stroke-linejoin:round; stroke-width:4; stroke-opacity:1; fill:none" points="219.519,442.561 238.417,442.561 "/>
<polyline clip-path="url(#clip180)" style="stroke:#000000; stroke-linecap:round; stroke-linejoin:round; stroke-width:4; stroke-opacity:1; fill:none" points="219.519,236.533 238.417,236.533 "/>
<path clip-path="url(#clip180)" d="M119.885 1280.01 L136.204 1280.01 L136.204 1283.95 L114.26 1283.95 L114.26 1280.01 Q116.922 1277.26 121.505 1272.63 Q126.112 1267.98 127.292 1266.64 Q129.538 1264.11 130.417 1262.38 Q131.32 1260.62 131.32 1258.93 Q131.32 1256.17 129.376 1254.44 Q127.455 1252.7 124.353 1252.7 Q122.154 1252.7 119.7 1253.46 Q117.269 1254.23 114.492 1255.78 L114.492 1251.06 Q117.316 1249.92 119.769 1249.34 Q122.223 1248.76 124.26 1248.76 Q129.63 1248.76 132.825 1251.45 Q136.019 1254.14 136.019 1258.63 Q136.019 1260.76 135.209 1262.68 Q134.422 1264.57 132.316 1267.17 Q131.737 1267.84 128.635 1271.06 Q125.533 1274.25 119.885 1280.01 Z" fill="#000000" fill-rule="nonzero" fill-opacity="1" /><path clip-path="url(#clip180)" d="M146.019 1278.07 L150.903 1278.07 L150.903 1283.95 L146.019 1283.95 L146.019 1278.07 Z" fill="#000000" fill-rule="nonzero" fill-opacity="1" /><path clip-path="url(#clip180)" d="M173.936 1253.46 L162.13 1271.91 L173.936 1271.91 L173.936 1253.46 M172.709 1249.39 L178.589 1249.39 L178.589 1271.91 L183.519 1271.91 L183.519 1275.8 L178.589 1275.8 L178.589 1283.95 L173.936 1283.95 L173.936 1275.8 L158.334 1275.8 L158.334 1271.29 L172.709 1249.39 Z" fill="#000000" fill-rule="nonzero" fill-opacity="1" /><path clip-path="url(#clip180)" d="M120.209 1073.99 L136.529 1073.99 L136.529 1077.92 L114.584 1077.92 L114.584 1073.99 Q117.246 1071.23 121.83 1066.6 Q126.436 1061.95 127.617 1060.61 Q129.862 1058.08 130.742 1056.35 Q131.644 1054.59 131.644 1052.9 Q131.644 1050.14 129.7 1048.41 Q127.779 1046.67 124.677 1046.67 Q122.478 1046.67 120.024 1047.44 Q117.593 1048.2 114.816 1049.75 L114.816 1045.03 Q117.64 1043.89 120.093 1043.32 Q122.547 1042.74 124.584 1042.74 Q129.955 1042.74 133.149 1045.42 Q136.343 1048.11 136.343 1052.6 Q136.343 1054.73 135.533 1056.65 Q134.746 1058.55 132.64 1061.14 Q132.061 1061.81 128.959 1065.03 Q125.857 1068.22 120.209 1073.99 Z" fill="#000000" fill-rule="nonzero" fill-opacity="1" /><path clip-path="url(#clip180)" d="M146.343 1072.04 L151.228 1072.04 L151.228 1077.92 L146.343 1077.92 L146.343 1072.04 Z" fill="#000000" fill-rule="nonzero" fill-opacity="1" /><path clip-path="url(#clip180)" d="M171.991 1058.78 Q168.843 1058.78 166.991 1060.93 Q165.163 1063.08 165.163 1066.83 Q165.163 1070.56 166.991 1072.74 Q168.843 1074.89 171.991 1074.89 Q175.139 1074.89 176.968 1072.74 Q178.82 1070.56 178.82 1066.83 Q178.82 1063.08 176.968 1060.93 Q175.139 1058.78 171.991 1058.78 M181.274 1044.13 L181.274 1048.39 Q179.514 1047.55 177.709 1047.11 Q175.926 1046.67 174.167 1046.67 Q169.538 1046.67 167.084 1049.8 Q164.653 1052.92 164.306 1059.24 Q165.672 1057.23 167.732 1056.16 Q169.792 1055.08 172.269 1055.08 Q177.477 1055.08 180.487 1058.25 Q183.519 1061.39 183.519 1066.83 Q183.519 1072.16 180.371 1075.38 Q177.223 1078.59 171.991 1078.59 Q165.996 1078.59 162.825 1074.01 Q159.653 1069.4 159.653 1060.68 Q159.653 1052.48 163.542 1047.62 Q167.431 1042.74 173.982 1042.74 Q175.741 1042.74 177.524 1043.08 Q179.329 1043.43 181.274 1044.13 Z" fill="#000000" fill-rule="nonzero" fill-opacity="1" /><path clip-path="url(#clip180)" d="M120.464 867.96 L136.783 867.96 L136.783 871.895 L114.839 871.895 L114.839 867.96 Q117.501 865.205 122.084 860.576 Q126.691 855.923 127.871 854.581 Q130.117 852.057 130.996 850.321 Q131.899 848.562 131.899 846.872 Q131.899 844.118 129.955 842.382 Q128.033 840.645 124.931 840.645 Q122.732 840.645 120.279 841.409 Q117.848 842.173 115.07 843.724 L115.07 839.002 Q117.894 837.868 120.348 837.289 Q122.802 836.71 124.839 836.71 Q130.209 836.71 133.404 839.395 Q136.598 842.081 136.598 846.571 Q136.598 848.701 135.788 850.622 Q135.001 852.52 132.894 855.113 Q132.316 855.784 129.214 859.002 Q126.112 862.196 120.464 867.96 Z" fill="#000000" fill-rule="nonzero" fill-opacity="1" /><path clip-path="url(#clip180)" d="M146.598 866.016 L151.482 866.016 L151.482 871.895 L146.598 871.895 L146.598 866.016 Z" fill="#000000" fill-rule="nonzero" fill-opacity="1" /><path clip-path="url(#clip180)" d="M171.667 855.483 Q168.334 855.483 166.413 857.266 Q164.515 859.048 164.515 862.173 Q164.515 865.298 166.413 867.08 Q168.334 868.863 171.667 868.863 Q175.001 868.863 176.922 867.08 Q178.843 865.275 178.843 862.173 Q178.843 859.048 176.922 857.266 Q175.024 855.483 171.667 855.483 M166.991 853.493 Q163.982 852.752 162.292 850.692 Q160.626 848.631 160.626 845.669 Q160.626 841.525 163.565 839.118 Q166.528 836.71 171.667 836.71 Q176.829 836.71 179.769 839.118 Q182.709 841.525 182.709 845.669 Q182.709 848.631 181.019 850.692 Q179.352 852.752 176.366 853.493 Q179.746 854.28 181.621 856.571 Q183.519 858.863 183.519 862.173 Q183.519 867.196 180.44 869.881 Q177.385 872.567 171.667 872.567 Q165.95 872.567 162.871 869.881 Q159.815 867.196 159.815 862.173 Q159.815 858.863 161.714 856.571 Q163.612 854.28 166.991 853.493 M165.278 846.108 Q165.278 848.794 166.945 850.298 Q168.635 851.803 171.667 851.803 Q174.677 851.803 176.366 850.298 Q178.079 848.794 178.079 846.108 Q178.079 843.423 176.366 841.919 Q174.677 840.414 171.667 840.414 Q168.635 840.414 166.945 841.919 Q165.278 843.423 165.278 846.108 Z" fill="#000000" fill-rule="nonzero" fill-opacity="1" /><path clip-path="url(#clip180)" d="M130.51 647.234 Q133.867 647.951 135.742 650.22 Q137.64 652.488 137.64 655.822 Q137.64 660.937 134.121 663.738 Q130.603 666.539 124.121 666.539 Q121.945 666.539 119.63 666.099 Q117.339 665.683 114.885 664.826 L114.885 660.312 Q116.83 661.447 119.144 662.025 Q121.459 662.604 123.982 662.604 Q128.38 662.604 130.672 660.868 Q132.987 659.132 132.987 655.822 Q132.987 652.766 130.834 651.053 Q128.705 649.317 124.885 649.317 L120.857 649.317 L120.857 645.475 L125.07 645.475 Q128.519 645.475 130.348 644.109 Q132.177 642.72 132.177 640.127 Q132.177 637.465 130.279 636.053 Q128.404 634.618 124.885 634.618 Q122.964 634.618 120.765 635.035 Q118.566 635.451 115.927 636.331 L115.927 632.164 Q118.589 631.424 120.904 631.053 Q123.242 630.683 125.302 630.683 Q130.626 630.683 133.728 633.113 Q136.829 635.521 136.829 639.641 Q136.829 642.512 135.186 644.502 Q133.542 646.47 130.51 647.234 Z" fill="#000000" fill-rule="nonzero" fill-opacity="1" /><path clip-path="url(#clip180)" d="M146.505 659.988 L151.39 659.988 L151.39 665.868 L146.505 665.868 L146.505 659.988 Z" fill="#000000" fill-rule="nonzero" fill-opacity="1" /><path clip-path="url(#clip180)" d="M171.575 634.387 Q167.964 634.387 166.135 637.951 Q164.329 641.493 164.329 648.623 Q164.329 655.729 166.135 659.294 Q167.964 662.836 171.575 662.836 Q175.209 662.836 177.014 659.294 Q178.843 655.729 178.843 648.623 Q178.843 641.493 177.014 637.951 Q175.209 634.387 171.575 634.387 M171.575 630.683 Q177.385 630.683 180.44 635.289 Q183.519 639.873 183.519 648.623 Q183.519 657.349 180.44 661.956 Q177.385 666.539 171.575 666.539 Q165.765 666.539 162.686 661.956 Q159.63 657.349 159.63 648.623 Q159.63 639.873 162.686 635.289 Q165.765 630.683 171.575 630.683 Z" fill="#000000" fill-rule="nonzero" fill-opacity="1" /><path clip-path="url(#clip180)" d="M132.107 441.206 Q135.464 441.924 137.339 444.193 Q139.237 446.461 139.237 449.794 Q139.237 454.91 135.718 457.711 Q132.2 460.512 125.718 460.512 Q123.543 460.512 121.228 460.072 Q118.936 459.655 116.482 458.799 L116.482 454.285 Q118.427 455.419 120.742 455.998 Q123.056 456.577 125.58 456.577 Q129.978 456.577 132.269 454.841 Q134.584 453.105 134.584 449.794 Q134.584 446.739 132.431 445.026 Q130.302 443.29 126.482 443.29 L122.455 443.29 L122.455 439.447 L126.667 439.447 Q130.117 439.447 131.945 438.081 Q133.774 436.693 133.774 434.1 Q133.774 431.438 131.876 430.026 Q130.001 428.591 126.482 428.591 Q124.561 428.591 122.362 429.007 Q120.163 429.424 117.524 430.304 L117.524 426.137 Q120.186 425.396 122.501 425.026 Q124.839 424.656 126.899 424.656 Q132.223 424.656 135.325 427.086 Q138.427 429.494 138.427 433.614 Q138.427 436.484 136.783 438.475 Q135.14 440.443 132.107 441.206 Z" fill="#000000" fill-rule="nonzero" fill-opacity="1" /><path clip-path="url(#clip180)" d="M148.103 453.961 L152.987 453.961 L152.987 459.841 L148.103 459.841 L148.103 453.961 Z" fill="#000000" fill-rule="nonzero" fill-opacity="1" /><path clip-path="url(#clip180)" d="M167.2 455.905 L183.519 455.905 L183.519 459.841 L161.575 459.841 L161.575 455.905 Q164.237 453.151 168.82 448.521 Q173.427 443.868 174.607 442.526 Q176.852 440.003 177.732 438.267 Q178.635 436.507 178.635 434.818 Q178.635 432.063 176.69 430.327 Q174.769 428.591 171.667 428.591 Q169.468 428.591 167.015 429.355 Q164.584 430.119 161.806 431.669 L161.806 426.947 Q164.63 425.813 167.084 425.234 Q169.538 424.656 171.575 424.656 Q176.945 424.656 180.139 427.341 Q183.334 430.026 183.334 434.517 Q183.334 436.646 182.524 438.568 Q181.737 440.466 179.63 443.058 Q179.051 443.73 175.95 446.947 Q172.848 450.142 167.2 455.905 Z" fill="#000000" fill-rule="nonzero" fill-opacity="1" /><path clip-path="url(#clip180)" d="M130.024 235.179 Q133.38 235.897 135.255 238.165 Q137.154 240.434 137.154 243.767 Q137.154 248.883 133.635 251.684 Q130.117 254.485 123.635 254.485 Q121.459 254.485 119.144 254.045 Q116.853 253.628 114.399 252.772 L114.399 248.258 Q116.343 249.392 118.658 249.971 Q120.973 250.549 123.496 250.549 Q127.894 250.549 130.186 248.813 Q132.501 247.077 132.501 243.767 Q132.501 240.712 130.348 238.999 Q128.218 237.262 124.399 237.262 L120.371 237.262 L120.371 233.42 L124.584 233.42 Q128.033 233.42 129.862 232.054 Q131.691 230.665 131.691 228.073 Q131.691 225.411 129.792 223.999 Q127.917 222.563 124.399 222.563 Q122.478 222.563 120.279 222.98 Q118.08 223.397 115.441 224.276 L115.441 220.11 Q118.103 219.369 120.418 218.999 Q122.755 218.628 124.816 218.628 Q130.14 218.628 133.242 221.059 Q136.343 223.466 136.343 227.587 Q136.343 230.457 134.7 232.448 Q133.056 234.415 130.024 235.179 Z" fill="#000000" fill-rule="nonzero" fill-opacity="1" /><path clip-path="url(#clip180)" d="M146.019 247.934 L150.903 247.934 L150.903 253.813 L146.019 253.813 L146.019 247.934 Z" fill="#000000" fill-rule="nonzero" fill-opacity="1" /><path clip-path="url(#clip180)" d="M173.936 223.327 L162.13 241.776 L173.936 241.776 L173.936 223.327 M172.709 219.253 L178.589 219.253 L178.589 241.776 L183.519 241.776 L183.519 245.665 L178.589 245.665 L178.589 253.813 L173.936 253.813 L173.936 245.665 L158.334 245.665 L158.334 241.151 L172.709 219.253 Z" fill="#000000" fill-rule="nonzero" fill-opacity="1" /><path clip-path="url(#clip180)" d="M16.4842 1069.19 L16.4842 1059.61 L48.8219 1047.48 L16.4842 1035.29 L16.4842 1025.71 L64.0042 1025.71 L64.0042 1031.98 L22.277 1031.98 L54.8694 1044.23 L54.8694 1050.7 L22.277 1062.95 L64.0042 1062.95 L64.0042 1069.19 L16.4842 1069.19 Z" fill="#000000" fill-rule="nonzero" fill-opacity="1" /><path clip-path="url(#clip180)" d="M44.7161 982.71 L47.5806 982.71 L47.5806 1009.64 Q53.6281 1009.25 56.8109 1006.01 Q59.9619 1002.73 59.9619 996.906 Q59.9619 993.532 59.1344 990.381 Q58.3069 987.198 56.6518 984.079 L62.1899 984.079 Q63.5267 987.23 64.227 990.54 Q64.9272 993.85 64.9272 997.256 Q64.9272 1005.79 59.9619 1010.78 Q54.9967 1015.75 46.5303 1015.75 Q37.7774 1015.75 32.6531 1011.04 Q27.4968 1006.29 27.4968 998.274 Q27.4968 991.081 32.1438 986.911 Q36.7589 982.71 44.7161 982.71 M42.9973 988.566 Q38.1912 988.63 35.3266 991.272 Q32.4621 993.882 32.4621 998.21 Q32.4621 1003.11 35.2312 1006.07 Q38.0002 1009 43.0292 1009.45 L42.9973 988.566 Z" fill="#000000" fill-rule="nonzero" fill-opacity="1" /><path clip-path="url(#clip180)" d="M46.0847 956.897 Q46.0847 963.995 47.7079 966.732 Q49.3312 969.469 53.2461 969.469 Q56.3653 969.469 58.2114 967.432 Q60.0256 965.363 60.0256 961.83 Q60.0256 956.961 56.5881 954.032 Q53.1188 951.072 47.3897 951.072 L46.0847 951.072 L46.0847 956.897 M43.6657 945.216 L64.0042 945.216 L64.0042 951.072 L58.5933 951.072 Q61.8398 953.078 63.3994 956.07 Q64.9272 959.061 64.9272 963.39 Q64.9272 968.865 61.8716 972.111 Q58.7843 975.326 53.6281 975.326 Q47.6125 975.326 44.5569 971.315 Q41.5014 967.273 41.5014 959.284 L41.5014 951.072 L40.9285 951.072 Q36.8862 951.072 34.6901 953.746 Q32.4621 956.388 32.4621 961.194 Q32.4621 964.249 33.1941 967.146 Q33.9262 970.042 35.3903 972.716 L29.9795 972.716 Q28.7381 969.501 28.1334 966.477 Q27.4968 963.454 27.4968 960.589 Q27.4968 952.855 31.5072 949.035 Q35.5176 945.216 43.6657 945.216 Z" fill="#000000" fill-rule="nonzero" fill-opacity="1" /><path clip-path="url(#clip180)" d="M42.4881 903.521 L64.0042 903.521 L64.0042 909.377 L42.679 909.377 Q37.6183 909.377 35.1038 911.35 Q32.5894 913.324 32.5894 917.271 Q32.5894 922.013 35.6131 924.75 Q38.6368 927.487 43.8567 927.487 L64.0042 927.487 L64.0042 933.376 L28.3562 933.376 L28.3562 927.487 L33.8944 927.487 Q30.6797 925.387 29.0883 922.554 Q27.4968 919.689 27.4968 915.966 Q27.4968 909.823 31.3163 906.672 Q35.1038 903.521 42.4881 903.521 Z" fill="#000000" fill-rule="nonzero" fill-opacity="1" /><path clip-path="url(#clip180)" d="M16.4842 870.865 L16.4842 862.207 L56.238 841.137 L16.4842 841.137 L16.4842 834.898 L64.0042 834.898 L64.0042 843.556 L24.2503 864.626 L64.0042 864.626 L64.0042 870.865 L16.4842 870.865 Z" fill="#000000" fill-rule="nonzero" fill-opacity="1" /><path clip-path="url(#clip180)" d="M16.4842 822.103 L16.4842 813.446 L56.238 792.375 L16.4842 792.375 L16.4842 786.137 L64.0042 786.137 L64.0042 794.794 L24.2503 815.865 L64.0042 815.865 L64.0042 822.103 L16.4842 822.103 Z" fill="#000000" fill-rule="nonzero" fill-opacity="1" /><path clip-path="url(#clip180)" d="M21.7677 746.192 L58.7206 746.192 L58.7206 738.426 Q58.7206 728.591 54.2646 724.04 Q49.8086 719.456 40.1964 719.456 Q30.6479 719.456 26.2237 724.04 Q21.7677 728.591 21.7677 738.426 L21.7677 746.192 M16.4842 752.622 L16.4842 739.413 Q16.4842 725.599 22.2451 719.138 Q27.9743 712.677 40.1964 712.677 Q52.4822 712.677 58.2432 719.17 Q64.0042 725.663 64.0042 739.413 L64.0042 752.622 L16.4842 752.622 Z" fill="#000000" fill-rule="nonzero" fill-opacity="1" /><path clip-path="url(#clip180)" d="M28.3562 702.683 L28.3562 696.826 L64.0042 696.826 L64.0042 702.683 L28.3562 702.683 M14.479 702.683 L14.479 696.826 L21.895 696.826 L21.895 702.683 L14.479 702.683 Z" fill="#000000" fill-rule="nonzero" fill-opacity="1" /><path clip-path="url(#clip180)" d="M29.4065 661.847 L34.9447 661.847 Q33.6716 664.329 33.035 667.003 Q32.3984 669.676 32.3984 672.541 Q32.3984 676.901 33.7352 679.098 Q35.072 681.262 37.7456 681.262 Q39.7826 681.262 40.9603 679.702 Q42.1061 678.143 43.1565 673.432 L43.6021 671.427 Q44.9389 665.189 47.3897 662.579 Q49.8086 659.937 54.1691 659.937 Q59.1344 659.937 62.0308 663.884 Q64.9272 667.798 64.9272 674.673 Q64.9272 677.538 64.3543 680.657 Q63.8132 683.745 62.6992 687.182 L56.6518 687.182 Q58.3387 683.936 59.198 680.785 Q60.0256 677.633 60.0256 674.546 Q60.0256 670.408 58.6251 668.18 Q57.1929 665.952 54.6147 665.952 Q52.2276 665.952 50.9545 667.576 Q49.6813 669.167 48.5037 674.61 L48.0262 676.647 Q46.8804 682.089 44.5251 684.508 Q42.138 686.927 38.0002 686.927 Q32.9713 686.927 30.2341 683.363 Q27.4968 679.798 27.4968 673.241 Q27.4968 669.995 27.9743 667.13 Q28.4517 664.266 29.4065 661.847 Z" fill="#000000" fill-rule="nonzero" fill-opacity="1" /><path clip-path="url(#clip180)" d="M18.2347 644.818 L28.3562 644.818 L28.3562 632.755 L32.9077 632.755 L32.9077 644.818 L52.2594 644.818 Q56.6199 644.818 57.8613 643.641 Q59.1026 642.431 59.1026 638.771 L59.1026 632.755 L64.0042 632.755 L64.0042 638.771 Q64.0042 645.55 61.4897 648.128 Q58.9434 650.707 52.2594 650.707 L32.9077 650.707 L32.9077 655.003 L28.3562 655.003 L28.3562 650.707 L18.2347 650.707 L18.2347 644.818 Z" fill="#000000" fill-rule="nonzero" fill-opacity="1" /><path clip-path="url(#clip180)" d="M46.0847 608.852 Q46.0847 615.95 47.7079 618.687 Q49.3312 621.424 53.2461 621.424 Q56.3653 621.424 58.2114 619.387 Q60.0256 617.318 60.0256 613.785 Q60.0256 608.916 56.5881 605.987 Q53.1188 603.027 47.3897 603.027 L46.0847 603.027 L46.0847 608.852 M43.6657 597.171 L64.0042 597.171 L64.0042 603.027 L58.5933 603.027 Q61.8398 605.033 63.3994 608.024 Q64.9272 611.016 64.9272 615.345 Q64.9272 620.82 61.8716 624.066 Q58.7843 627.281 53.6281 627.281 Q47.6125 627.281 44.5569 623.27 Q41.5014 619.228 41.5014 611.239 L41.5014 603.027 L40.9285 603.027 Q36.8862 603.027 34.6901 605.701 Q32.4621 608.343 32.4621 613.149 Q32.4621 616.204 33.1941 619.101 Q33.9262 621.997 35.3903 624.671 L29.9795 624.671 Q28.7381 621.456 28.1334 618.432 Q27.4968 615.409 27.4968 612.544 Q27.4968 604.81 31.5072 600.99 Q35.5176 597.171 43.6657 597.171 Z" fill="#000000" fill-rule="nonzero" fill-opacity="1" /><path clip-path="url(#clip180)" d="M42.4881 555.476 L64.0042 555.476 L64.0042 561.332 L42.679 561.332 Q37.6183 561.332 35.1038 563.305 Q32.5894 565.279 32.5894 569.226 Q32.5894 573.968 35.6131 576.705 Q38.6368 579.442 43.8567 579.442 L64.0042 579.442 L64.0042 585.331 L28.3562 585.331 L28.3562 579.442 L33.8944 579.442 Q30.6797 577.342 29.0883 574.509 Q27.4968 571.644 27.4968 567.921 Q27.4968 561.778 31.3163 558.627 Q35.1038 555.476 42.4881 555.476 Z" fill="#000000" fill-rule="nonzero" fill-opacity="1" /><path clip-path="url(#clip180)" d="M29.7248 518.141 L35.1993 518.141 Q33.8307 520.623 33.1623 523.138 Q32.4621 525.62 32.4621 528.167 Q32.4621 533.864 36.0905 537.015 Q39.6872 540.166 46.212 540.166 Q52.7369 540.166 56.3653 537.015 Q59.9619 533.864 59.9619 528.167 Q59.9619 525.62 59.2935 523.138 Q58.5933 520.623 57.2247 518.141 L62.6355 518.141 Q63.7814 520.592 64.3543 523.233 Q64.9272 525.843 64.9272 528.803 Q64.9272 536.856 59.8664 541.598 Q54.8057 546.341 46.212 546.341 Q37.491 546.341 32.4939 541.567 Q27.4968 536.76 27.4968 528.421 Q27.4968 525.716 28.0697 523.138 Q28.6108 520.56 29.7248 518.141 Z" fill="#000000" fill-rule="nonzero" fill-opacity="1" /><path clip-path="url(#clip180)" d="M44.7161 477.464 L47.5806 477.464 L47.5806 504.391 Q53.6281 504.009 56.8109 500.762 Q59.9619 497.484 59.9619 491.659 Q59.9619 488.286 59.1344 485.135 Q58.3069 481.952 56.6518 478.832 L62.1899 478.832 Q63.5267 481.984 64.227 485.294 Q64.9272 488.604 64.9272 492.009 Q64.9272 500.54 59.9619 505.537 Q54.9967 510.502 46.5303 510.502 Q37.7774 510.502 32.6531 505.791 Q27.4968 501.049 27.4968 493.028 Q27.4968 485.835 32.1438 481.665 Q36.7589 477.464 44.7161 477.464 M42.9973 483.32 Q38.1912 483.384 35.3266 486.026 Q32.4621 488.636 32.4621 492.964 Q32.4621 497.866 35.2312 500.826 Q38.0002 503.754 43.0292 504.2 L42.9973 483.32 Z" fill="#000000" fill-rule="nonzero" fill-opacity="1" /><path clip-path="url(#clip180)" d="M649.356 12.096 L661.549 12.096 L676.983 53.2532 L692.498 12.096 L704.691 12.096 L704.691 72.576 L696.711 72.576 L696.711 19.4686 L681.115 60.9499 L672.891 60.9499 L657.295 19.4686 L657.295 72.576 L649.356 72.576 L649.356 12.096 Z" fill="#000000" fill-rule="nonzero" fill-opacity="1" /><path clip-path="url(#clip180)" d="M759.419 48.0275 L759.419 51.6733 L725.148 51.6733 Q725.634 59.3701 729.766 63.421 Q733.938 67.4314 741.352 67.4314 Q745.646 67.4314 749.656 66.3781 Q753.707 65.3249 757.677 63.2184 L757.677 70.267 Q753.666 71.9684 749.453 72.8596 Q745.24 73.7508 740.906 73.7508 Q730.05 73.7508 723.69 67.4314 Q717.37 61.1119 717.37 50.3365 Q717.37 39.1965 723.366 32.6746 Q729.401 26.1121 739.61 26.1121 Q748.765 26.1121 754.071 32.0264 Q759.419 37.9003 759.419 48.0275 M751.965 45.84 Q751.884 39.7232 748.522 36.0774 Q745.2 32.4315 739.691 32.4315 Q733.452 32.4315 729.685 35.9558 Q725.958 39.4801 725.391 45.8805 L751.965 45.84 Z" fill="#000000" fill-rule="nonzero" fill-opacity="1" /><path clip-path="url(#clip180)" d="M792.271 49.7694 Q783.238 49.7694 779.754 51.8354 Q776.27 53.9013 776.27 58.8839 Q776.27 62.8538 778.863 65.2034 Q781.496 67.5124 785.993 67.5124 Q792.19 67.5124 795.917 63.1374 Q799.685 58.7219 799.685 51.4303 L799.685 49.7694 L792.271 49.7694 M807.138 46.6907 L807.138 72.576 L799.685 72.576 L799.685 65.6895 Q797.133 69.8214 793.325 71.8063 Q789.517 73.7508 784.008 73.7508 Q777.04 73.7508 772.908 69.8619 Q768.817 65.9325 768.817 59.3701 Q768.817 51.7138 773.921 47.825 Q779.066 43.9361 789.233 43.9361 L799.685 43.9361 L799.685 43.2069 Q799.685 38.0623 796.282 35.2672 Q792.92 32.4315 786.803 32.4315 Q782.914 32.4315 779.228 33.3632 Q775.541 34.295 772.138 36.1584 L772.138 29.2718 Q776.23 27.692 780.078 26.9223 Q783.927 26.1121 787.572 26.1121 Q797.416 26.1121 802.277 31.2163 Q807.138 36.3204 807.138 46.6907 Z" fill="#000000" fill-rule="nonzero" fill-opacity="1" /><path clip-path="url(#clip180)" d="M860.205 45.1919 L860.205 72.576 L852.751 72.576 L852.751 45.4349 Q852.751 38.994 850.24 35.7938 Q847.728 32.5936 842.705 32.5936 Q836.669 32.5936 833.186 36.4419 Q829.702 40.2903 829.702 46.9338 L829.702 72.576 L822.208 72.576 L822.208 27.2059 L829.702 27.2059 L829.702 34.2544 Q832.375 30.163 835.981 28.1376 Q839.627 26.1121 844.366 26.1121 Q852.184 26.1121 856.195 30.9732 Q860.205 35.7938 860.205 45.1919 Z" fill="#000000" fill-rule="nonzero" fill-opacity="1" /><path clip-path="url(#clip180)" d="M901.767 12.096 L912.786 12.096 L939.603 62.6918 L939.603 12.096 L947.543 12.096 L947.543 72.576 L936.524 72.576 L909.707 21.9802 L909.707 72.576 L901.767 72.576 L901.767 12.096 Z" fill="#000000" fill-rule="nonzero" fill-opacity="1" /><path clip-path="url(#clip180)" d="M963.827 12.096 L974.846 12.096 L1001.66 62.6918 L1001.66 12.096 L1009.6 12.096 L1009.6 72.576 L998.584 72.576 L971.767 21.9802 L971.767 72.576 L963.827 72.576 L963.827 12.096 Z" fill="#000000" fill-rule="nonzero" fill-opacity="1" /><path clip-path="url(#clip180)" d="M1060.44 18.8205 L1060.44 65.8515 L1070.33 65.8515 Q1082.84 65.8515 1088.64 60.1802 Q1094.47 54.509 1094.47 42.2752 Q1094.47 30.1225 1088.64 24.4918 Q1082.84 18.8205 1070.33 18.8205 L1060.44 18.8205 M1052.26 12.096 L1069.07 12.096 Q1086.65 12.096 1094.87 19.4281 Q1103.1 26.7198 1103.1 42.2752 Q1103.1 57.9117 1094.83 65.2439 Q1086.57 72.576 1069.07 72.576 L1052.26 72.576 L1052.26 12.096 Z" fill="#000000" fill-rule="nonzero" fill-opacity="1" /><path clip-path="url(#clip180)" d="M1115.82 27.2059 L1123.27 27.2059 L1123.27 72.576 L1115.82 72.576 L1115.82 27.2059 M1115.82 9.54393 L1123.27 9.54393 L1123.27 18.9825 L1115.82 18.9825 L1115.82 9.54393 Z" fill="#000000" fill-rule="nonzero" fill-opacity="1" /><path clip-path="url(#clip180)" d="M1167.79 28.5427 L1167.79 35.5912 Q1164.63 33.9709 1161.23 33.1607 Q1157.83 32.3505 1154.18 32.3505 Q1148.63 32.3505 1145.83 34.0519 Q1143.08 35.7533 1143.08 39.156 Q1143.08 41.7486 1145.06 43.2475 Q1147.05 44.7058 1153.05 46.0426 L1155.6 46.6097 Q1163.54 48.3111 1166.86 51.4303 Q1170.22 54.509 1170.22 60.0587 Q1170.22 66.3781 1165.2 70.0644 Q1160.22 73.7508 1151.47 73.7508 Q1147.82 73.7508 1143.85 73.0216 Q1139.92 72.3329 1135.55 70.9151 L1135.55 63.2184 Q1139.68 65.3654 1143.69 66.4591 Q1147.7 67.5124 1151.63 67.5124 Q1156.89 67.5124 1159.73 65.73 Q1162.56 63.9071 1162.56 60.6258 Q1162.56 57.5877 1160.5 55.9673 Q1158.47 54.3469 1151.55 52.8481 L1148.95 52.2405 Q1142.03 50.7821 1138.95 47.7845 Q1135.87 44.7463 1135.87 39.4801 Q1135.87 33.0797 1140.41 29.5959 Q1144.94 26.1121 1153.29 26.1121 Q1157.42 26.1121 1161.07 26.7198 Q1164.71 27.3274 1167.79 28.5427 Z" fill="#000000" fill-rule="nonzero" fill-opacity="1" /><path clip-path="url(#clip180)" d="M1189.46 14.324 L1189.46 27.2059 L1204.82 27.2059 L1204.82 32.9987 L1189.46 32.9987 L1189.46 57.6282 Q1189.46 63.1779 1190.96 64.7578 Q1192.5 66.3376 1197.16 66.3376 L1204.82 66.3376 L1204.82 72.576 L1197.16 72.576 Q1188.53 72.576 1185.25 69.3758 Q1181.97 66.1351 1181.97 57.6282 L1181.97 32.9987 L1176.5 32.9987 L1176.5 27.2059 L1181.97 27.2059 L1181.97 14.324 L1189.46 14.324 Z" fill="#000000" fill-rule="nonzero" fill-opacity="1" /><path clip-path="url(#clip180)" d="M1235.24 49.7694 Q1226.2 49.7694 1222.72 51.8354 Q1219.24 53.9013 1219.24 58.8839 Q1219.24 62.8538 1221.83 65.2034 Q1224.46 67.5124 1228.96 67.5124 Q1235.16 67.5124 1238.88 63.1374 Q1242.65 58.7219 1242.65 51.4303 L1242.65 49.7694 L1235.24 49.7694 M1250.1 46.6907 L1250.1 72.576 L1242.65 72.576 L1242.65 65.6895 Q1240.1 69.8214 1236.29 71.8063 Q1232.48 73.7508 1226.97 73.7508 Q1220.01 73.7508 1215.87 69.8619 Q1211.78 65.9325 1211.78 59.3701 Q1211.78 51.7138 1216.89 47.825 Q1222.03 43.9361 1232.2 43.9361 L1242.65 43.9361 L1242.65 43.2069 Q1242.65 38.0623 1239.25 35.2672 Q1235.89 32.4315 1229.77 32.4315 Q1225.88 32.4315 1222.19 33.3632 Q1218.51 34.295 1215.1 36.1584 L1215.1 29.2718 Q1219.2 27.692 1223.04 26.9223 Q1226.89 26.1121 1230.54 26.1121 Q1240.38 26.1121 1245.24 31.2163 Q1250.1 36.3204 1250.1 46.6907 Z" fill="#000000" fill-rule="nonzero" fill-opacity="1" /><path clip-path="url(#clip180)" d="M1303.17 45.1919 L1303.17 72.576 L1295.72 72.576 L1295.72 45.4349 Q1295.72 38.994 1293.21 35.7938 Q1290.69 32.5936 1285.67 32.5936 Q1279.64 32.5936 1276.15 36.4419 Q1272.67 40.2903 1272.67 46.9338 L1272.67 72.576 L1265.17 72.576 L1265.17 27.2059 L1272.67 27.2059 L1272.67 34.2544 Q1275.34 30.163 1278.95 28.1376 Q1282.59 26.1121 1287.33 26.1121 Q1295.15 26.1121 1299.16 30.9732 Q1303.17 35.7938 1303.17 45.1919 Z" fill="#000000" fill-rule="nonzero" fill-opacity="1" /><path clip-path="url(#clip180)" d="M1350.69 28.9478 L1350.69 35.9153 Q1347.53 34.1734 1344.33 33.3227 Q1341.17 32.4315 1337.93 32.4315 Q1330.68 32.4315 1326.67 37.0496 Q1322.66 41.6271 1322.66 49.9314 Q1322.66 58.2358 1326.67 62.8538 Q1330.68 67.4314 1337.93 67.4314 Q1341.17 67.4314 1344.33 66.5807 Q1347.53 65.6895 1350.69 63.9476 L1350.69 70.8341 Q1347.57 72.2924 1344.21 73.0216 Q1340.89 73.7508 1337.12 73.7508 Q1326.87 73.7508 1320.83 67.3098 Q1314.8 60.8689 1314.8 49.9314 Q1314.8 38.832 1320.87 32.472 Q1326.99 26.1121 1337.6 26.1121 Q1341.05 26.1121 1344.33 26.8413 Q1347.61 27.5299 1350.69 28.9478 Z" fill="#000000" fill-rule="nonzero" fill-opacity="1" /><path clip-path="url(#clip180)" d="M1402.46 48.0275 L1402.46 51.6733 L1368.19 51.6733 Q1368.67 59.3701 1372.81 63.421 Q1376.98 67.4314 1384.39 67.4314 Q1388.69 67.4314 1392.7 66.3781 Q1396.75 65.3249 1400.72 63.2184 L1400.72 70.267 Q1396.71 71.9684 1392.49 72.8596 Q1388.28 73.7508 1383.95 73.7508 Q1373.09 73.7508 1366.73 67.4314 Q1360.41 61.1119 1360.41 50.3365 Q1360.41 39.1965 1366.41 32.6746 Q1372.44 26.1121 1382.65 26.1121 Q1391.81 26.1121 1397.11 32.0264 Q1402.46 37.9003 1402.46 48.0275 M1395.01 45.84 Q1394.92 39.7232 1391.56 36.0774 Q1388.24 32.4315 1382.73 32.4315 Q1376.49 32.4315 1372.73 35.9558 Q1369 39.4801 1368.43 45.8805 L1395.01 45.84 Z" fill="#000000" fill-rule="nonzero" fill-opacity="1" /><path clip-path="url(#clip180)" d="M1486.68 16.7545 L1486.68 25.383 Q1482.55 21.5346 1477.85 19.6307 Q1473.19 17.7268 1467.92 17.7268 Q1457.55 17.7268 1452.04 24.0867 Q1446.53 30.4061 1446.53 42.3968 Q1446.53 54.3469 1452.04 60.7069 Q1457.55 67.0263 1467.92 67.0263 Q1473.19 67.0263 1477.85 65.1223 Q1482.55 63.2184 1486.68 59.3701 L1486.68 67.9175 Q1482.38 70.8341 1477.56 72.2924 Q1472.78 73.7508 1467.44 73.7508 Q1453.7 73.7508 1445.8 65.3654 Q1437.9 56.9395 1437.9 42.3968 Q1437.9 27.8135 1445.8 19.4281 Q1453.7 11.0023 1467.44 11.0023 Q1472.86 11.0023 1477.64 12.4606 Q1482.46 13.8784 1486.68 16.7545 Z" fill="#000000" fill-rule="nonzero" fill-opacity="1" /><path clip-path="url(#clip180)" d="M1516.57 32.4315 Q1510.58 32.4315 1507.09 37.1306 Q1503.61 41.7891 1503.61 49.9314 Q1503.61 58.0738 1507.05 62.7728 Q1510.54 67.4314 1516.57 67.4314 Q1522.53 67.4314 1526.01 62.7323 Q1529.5 58.0333 1529.5 49.9314 Q1529.5 41.8701 1526.01 37.1711 Q1522.53 32.4315 1516.57 32.4315 M1516.57 26.1121 Q1526.3 26.1121 1531.85 32.4315 Q1537.39 38.7509 1537.39 49.9314 Q1537.39 61.0714 1531.85 67.4314 Q1526.3 73.7508 1516.57 73.7508 Q1506.81 73.7508 1501.26 67.4314 Q1495.75 61.0714 1495.75 49.9314 Q1495.75 38.7509 1501.26 32.4315 Q1506.81 26.1121 1516.57 26.1121 Z" fill="#000000" fill-rule="nonzero" fill-opacity="1" /><path clip-path="url(#clip180)" d="M1585.07 35.9153 Q1587.87 30.8922 1591.76 28.5022 Q1595.65 26.1121 1600.91 26.1121 Q1608 26.1121 1611.85 31.0947 Q1615.7 36.0368 1615.7 45.1919 L1615.7 72.576 L1608.2 72.576 L1608.2 45.4349 Q1608.2 38.913 1605.9 35.7533 Q1603.59 32.5936 1598.85 32.5936 Q1593.05 32.5936 1589.69 36.4419 Q1586.33 40.2903 1586.33 46.9338 L1586.33 72.576 L1578.84 72.576 L1578.84 45.4349 Q1578.84 38.8725 1576.53 35.7533 Q1574.22 32.5936 1569.4 32.5936 Q1563.69 32.5936 1560.32 36.4824 Q1556.96 40.3308 1556.96 46.9338 L1556.96 72.576 L1549.47 72.576 L1549.47 27.2059 L1556.96 27.2059 L1556.96 34.2544 Q1559.51 30.082 1563.08 28.0971 Q1566.64 26.1121 1571.54 26.1121 Q1576.49 26.1121 1579.93 28.6237 Q1583.41 31.1352 1585.07 35.9153 Z" fill="#000000" fill-rule="nonzero" fill-opacity="1" /><path clip-path="url(#clip180)" d="M1637.78 65.7705 L1637.78 89.8329 L1630.28 89.8329 L1630.28 27.2059 L1637.78 27.2059 L1637.78 34.0924 Q1640.13 30.0415 1643.69 28.0971 Q1647.3 26.1121 1652.28 26.1121 Q1660.54 26.1121 1665.69 32.6746 Q1670.87 39.2371 1670.87 49.9314 Q1670.87 60.6258 1665.69 67.1883 Q1660.54 73.7508 1652.28 73.7508 Q1647.3 73.7508 1643.69 71.8063 Q1640.13 69.8214 1637.78 65.7705 M1663.13 49.9314 Q1663.13 41.7081 1659.73 37.0496 Q1656.37 32.3505 1650.46 32.3505 Q1644.54 32.3505 1641.14 37.0496 Q1637.78 41.7081 1637.78 49.9314 Q1637.78 58.1548 1641.14 62.8538 Q1644.54 67.5124 1650.46 67.5124 Q1656.37 67.5124 1659.73 62.8538 Q1663.13 58.1548 1663.13 49.9314 Z" fill="#000000" fill-rule="nonzero" fill-opacity="1" /><path clip-path="url(#clip180)" d="M1703.85 49.7694 Q1694.81 49.7694 1691.33 51.8354 Q1687.85 53.9013 1687.85 58.8839 Q1687.85 62.8538 1690.44 65.2034 Q1693.07 67.5124 1697.57 67.5124 Q1703.77 67.5124 1707.49 63.1374 Q1711.26 58.7219 1711.26 51.4303 L1711.26 49.7694 L1703.85 49.7694 M1718.71 46.6907 L1718.71 72.576 L1711.26 72.576 L1711.26 65.6895 Q1708.71 69.8214 1704.9 71.8063 Q1701.09 73.7508 1695.58 73.7508 Q1688.62 73.7508 1684.48 69.8619 Q1680.39 65.9325 1680.39 59.3701 Q1680.39 51.7138 1685.5 47.825 Q1690.64 43.9361 1700.81 43.9361 L1711.26 43.9361 L1711.26 43.2069 Q1711.26 38.0623 1707.86 35.2672 Q1704.49 32.4315 1698.38 32.4315 Q1694.49 32.4315 1690.8 33.3632 Q1687.12 34.295 1683.71 36.1584 L1683.71 29.2718 Q1687.8 27.692 1691.65 26.9223 Q1695.5 26.1121 1699.15 26.1121 Q1708.99 26.1121 1713.85 31.2163 Q1718.71 36.3204 1718.71 46.6907 Z" fill="#000000" fill-rule="nonzero" fill-opacity="1" /><path clip-path="url(#clip180)" d="M1760.36 34.1734 Q1759.1 33.4443 1757.6 33.1202 Q1756.14 32.7556 1754.36 32.7556 Q1748.04 32.7556 1744.64 36.8875 Q1741.28 40.9789 1741.28 48.6757 L1741.28 72.576 L1733.78 72.576 L1733.78 27.2059 L1741.28 27.2059 L1741.28 34.2544 Q1743.63 30.1225 1747.39 28.1376 Q1751.16 26.1121 1756.55 26.1121 Q1757.32 26.1121 1758.25 26.2337 Q1759.18 26.3147 1760.32 26.5172 L1760.36 34.1734 Z" fill="#000000" fill-rule="nonzero" fill-opacity="1" /><path clip-path="url(#clip180)" d="M1768.17 27.2059 L1775.63 27.2059 L1775.63 72.576 L1768.17 72.576 L1768.17 27.2059 M1768.17 9.54393 L1775.63 9.54393 L1775.63 18.9825 L1768.17 18.9825 L1768.17 9.54393 Z" fill="#000000" fill-rule="nonzero" fill-opacity="1" /><path clip-path="url(#clip180)" d="M1820.15 28.5427 L1820.15 35.5912 Q1816.99 33.9709 1813.59 33.1607 Q1810.18 32.3505 1806.54 32.3505 Q1800.99 32.3505 1798.19 34.0519 Q1795.44 35.7533 1795.44 39.156 Q1795.44 41.7486 1797.42 43.2475 Q1799.41 44.7058 1805.4 46.0426 L1807.95 46.6097 Q1815.89 48.3111 1819.22 51.4303 Q1822.58 54.509 1822.58 60.0587 Q1822.58 66.3781 1817.56 70.0644 Q1812.57 73.7508 1803.82 73.7508 Q1800.18 73.7508 1796.21 73.0216 Q1792.28 72.3329 1787.9 70.9151 L1787.9 63.2184 Q1792.03 65.3654 1796.05 66.4591 Q1800.06 67.5124 1803.98 67.5124 Q1809.25 67.5124 1812.09 65.73 Q1814.92 63.9071 1814.92 60.6258 Q1814.92 57.5877 1812.86 55.9673 Q1810.83 54.3469 1803.9 52.8481 L1801.31 52.2405 Q1794.38 50.7821 1791.31 47.7845 Q1788.23 44.7463 1788.23 39.4801 Q1788.23 33.0797 1792.76 29.5959 Q1797.3 26.1121 1805.65 26.1121 Q1809.78 26.1121 1813.42 26.7198 Q1817.07 27.3274 1820.15 28.5427 Z" fill="#000000" fill-rule="nonzero" fill-opacity="1" /><path clip-path="url(#clip180)" d="M1852.03 32.4315 Q1846.03 32.4315 1842.55 37.1306 Q1839.07 41.7891 1839.07 49.9314 Q1839.07 58.0738 1842.51 62.7728 Q1845.99 67.4314 1852.03 67.4314 Q1857.98 67.4314 1861.47 62.7323 Q1864.95 58.0333 1864.95 49.9314 Q1864.95 41.8701 1861.47 37.1711 Q1857.98 32.4315 1852.03 32.4315 M1852.03 26.1121 Q1861.75 26.1121 1867.3 32.4315 Q1872.85 38.7509 1872.85 49.9314 Q1872.85 61.0714 1867.3 67.4314 Q1861.75 73.7508 1852.03 73.7508 Q1842.27 73.7508 1836.72 67.4314 Q1831.21 61.0714 1831.21 49.9314 Q1831.21 38.7509 1836.72 32.4315 Q1842.27 26.1121 1852.03 26.1121 Z" fill="#000000" fill-rule="nonzero" fill-opacity="1" /><path clip-path="url(#clip180)" d="M1922.92 45.1919 L1922.92 72.576 L1915.47 72.576 L1915.47 45.4349 Q1915.47 38.994 1912.95 35.7938 Q1910.44 32.5936 1905.42 32.5936 Q1899.38 32.5936 1895.9 36.4419 Q1892.42 40.2903 1892.42 46.9338 L1892.42 72.576 L1884.92 72.576 L1884.92 27.2059 L1892.42 27.2059 L1892.42 34.2544 Q1895.09 30.163 1898.69 28.1376 Q1902.34 26.1121 1907.08 26.1121 Q1914.9 26.1121 1918.91 30.9732 Q1922.92 35.7938 1922.92 45.1919 Z" fill="#000000" fill-rule="nonzero" fill-opacity="1" /><polyline clip-path="url(#clip182)" style="stroke:#0000ff; stroke-linecap:round; stroke-linejoin:round; stroke-width:8; stroke-opacity:1; fill:none" points="279.894,1179.58 283.927,1156.82 287.96,1127.21 291.993,1092.56 296.026,1051.33 300.059,1005.74 304.092,957.105 308.125,908.406 312.158,862.385 316.191,815.895 320.224,766.827 324.257,721.312 328.29,677.61 332.323,633.249 336.356,588.643 340.389,547.079 344.422,511.778 348.455,480.013 352.488,454.794 356.521,428.568 360.554,406.952 364.588,389.72 368.621,376.953 372.654,367.863 376.687,356.919 380.72,348.772 384.753,341.56 388.786,334.45 392.819,327.75 396.852,322.161 400.885,315.8 404.918,310.603 408.951,306.941 412.984,302.49 417.017,300.359 421.05,303.813 425.083,306.809 429.116,306.858 433.149,304.873 437.182,302.925 441.215,300.835 445.248,297.857 449.281,293.41 453.314,287.225 457.347,280.38 461.381,274.24 465.414,269.846 469.447,267.107 473.48,265.909 477.513,265.463 481.546,264.77 485.579,264.323 489.612,263.415 493.645,261.633 497.678,260.599 501.711,259.366 505.744,259.106 509.777,257.88 513.81,256.657 517.843,254.798 521.876,253.993 525.909,255.351 529.942,258.951 533.975,264.183 538.008,269.998 542.041,275.233 546.074,279.616 550.107,284.627 554.14,288.658 558.174,291.325 562.207,293.496 566.24,294.574 570.273,295.505 574.306,295.874 578.339,296.739 582.372,298.03 586.405,299.901 590.438,302.451 594.471,303.966 598.504,304.348 602.537,303.64 606.57,302.336 610.603,300.955 614.636,299.621 618.669,297.95 622.702,297.202 626.735,297.984 630.768,299.049 634.801,300.743 638.834,303.006 642.867,306.506 646.9,310.65 650.933,316.798 654.967,323.873 659,333.052 663.033,343.831 667.066,354.733 671.099,365.489 675.132,375.792 679.165,385.866 683.198,396.269 687.231,406.443 691.264,418.627 695.297,432.795 699.33,446.981 703.363,461.142 707.396,477.384 711.429,493.127 715.462,509.367 719.495,525.201 723.528,540.171 727.561,554.182 731.594,566.867 735.627,578.596 739.66,589.333 743.693,598.667 747.726,606.648 751.76,613.216 755.793,619.741 759.826,626.635 763.859,633.341 767.892,638.819 771.925,644.267 775.958,651.557 779.991,658.726 784.024,665.047 788.057,670.901 792.09,677.679 796.123,686.146 800.156,694.625 804.189,703.627 808.222,712.881 812.255,723.001 816.288,732.16 820.321,740.857 824.354,749.503 828.387,757.162 832.42,763.792 836.453,769.642 840.486,774.645 844.519,779.556 848.552,784.117 852.586,788.671 856.619,792.704 860.652,796.603 864.685,800.116 868.718,802.965 872.751,805.269 876.784,807.325 880.817,808.363 884.85,808.864 888.883,808.685 892.916,808.964 896.949,809.539 900.982,809.731 905.015,809.492 909.048,809.43 913.081,810.701 917.114,811.437 921.147,812.784 925.18,814.329 929.213,814.978 933.246,814.742 937.279,814.436 941.312,815.099 945.345,816.14 949.379,817.449 953.412,818.991 957.445,820.708 961.478,821.892 965.511,822.403 969.544,822.236 973.577,822.701 977.61,823.799 981.643,824.357 985.676,824.259 989.709,823.508 993.742,822.683 997.775,821.68 1001.81,820.213 1005.84,818.699 1009.87,818.369 1013.91,818.193 1017.94,819.275 1021.97,821.068 1026.01,823.012 1030.04,825.37 1034.07,827.746 1038.11,829.832 1042.14,832 1046.17,834.191 1050.2,836.24 1054.24,838.55 1058.27,842.521 1062.3,846.503 1066.34,850.477 1070.37,854.194 1074.4,857.305 1078.44,860.045 1082.47,863.578 1086.5,867.176 1090.53,870.509 1094.57,873.411 1098.6,876.213 1102.63,879.38 1106.67,883.686 1110.7,888.574 1114.73,893.961 1118.77,899.19 1122.8,904.512 1126.83,910.635 1130.87,917.264 1134.9,923.942 1138.93,932.707 1142.96,942.065 1147,951.916 1151.03,962.099 1155.06,972.979 1159.1,984.365 1163.13,996.615 1167.16,1009.38 1171.2,1021.74 1175.23,1033.87 1179.26,1045.79 1183.29,1058.88 1187.33,1072.59 1191.36,1085.18 1195.39,1097.22 1199.43,1108.43 1203.46,1118.45 1207.49,1127.32 1211.53,1135.13 1215.56,1142.81 1219.59,1150.8 1223.63,1158.66 1227.66,1166.33 1231.69,1173.72 1235.72,1182.83 1239.76,1191.99 1243.79,1201.7 1247.82,1214.42 1251.86,1228.96 1255.89,1243.79 1259.92,1256.88 1263.96,1270.12 1267.99,1282.64 1272.02,1294.12 1276.05,1306.35 1280.09,1317.94 1284.12,1328.83 1288.15,1338.86 1292.19,1347.07 1296.22,1353.69 1300.25,1357.09 1304.29,1358.51 1308.32,1359.69 1312.35,1360.27 1316.39,1360.47 1320.42,1361.15 1324.45,1364.06 1328.48,1366.27 1332.52,1367.41 1336.55,1370.17 1340.58,1373.74 1344.62,1377.42 1348.65,1380.35 1352.68,1382.42 1356.72,1383.94 1360.75,1385.85 1364.78,1386.4 1368.81,1385.52 1372.85,1383.32 1376.88,1380.35 1380.91,1376.44 1384.95,1372.06 1388.98,1366.96 1393.01,1361.66 1397.05,1355.89 1401.08,1349.68 1405.11,1345.23 1409.15,1342.68 1413.18,1341.61 1417.21,1340.69 1421.24,1340.16 1425.28,1339.09 1429.31,1336.76 1433.34,1333.97 1437.38,1331.38 1441.41,1328.92 1445.44,1327.08 1449.48,1325.66 1453.51,1323.94 1457.54,1321.34 1461.57,1318.48 1465.61,1316.54 1469.64,1316.51 1473.67,1316.52 1477.71,1315.78 1481.74,1315.39 1485.77,1314.91 1489.81,1314.03 1493.84,1312.62 1497.87,1310.69 1501.91,1307.95 1505.94,1304.12 1509.97,1299.11 1514,1292.8 1518.04,1286.07 1522.07,1278.65 1526.1,1270.69 1530.14,1263.45 1534.17,1256.32 1538.2,1250.03 1542.24,1243.36 1546.27,1237.78 1550.3,1233.11 1554.33,1230.44 1558.37,1227.02 1562.4,1223.61 1566.43,1221.72 1570.47,1219.95 1574.5,1218.3 1578.53,1216.96 1582.57,1214.88 1586.6,1213.76 1590.63,1212.72 1594.67,1210.58 1598.7,1207.3 1602.73,1203.54 1606.76,1200.6 1610.8,1198.11 1614.83,1197.72 1618.86,1196.88 1622.9,1194.67 1626.93,1190.53 1630.96,1184.76 1635,1177.24 1639.03,1169.04 1643.06,1160.71 1647.09,1152.47 1651.13,1144.24 1655.16,1135.17 1659.19,1125.31 1663.23,1114.7 1667.26,1104.24 1671.29,1093.2 1675.33,1082.44 1679.36,1073.51 1683.39,1064.93 1687.43,1057.78 1691.46,1052.49 1695.49,1049.2 1699.52,1047.21 1703.56,1047.37 1707.59,1049.62 1711.62,1051.92 1715.66,1054.47 1719.69,1056.99 1723.72,1057.89 1727.76,1058.12 1731.79,1057.84 1735.82,1057.21 1739.85,1054.77 1743.89,1051.48 1747.92,1047.87 1751.95,1043.12 1755.99,1038.03 1760.02,1032.77 1764.05,1026.71 1768.09,1020.83 1772.12,1014.79 1776.15,1009.38 1780.19,1005.12 1784.22,1000.68 1788.25,996.002 1792.28,992.004 1796.32,989.026 1800.35,986.393 1804.38,985.799 1808.42,985.506 1812.45,984.8 1816.48,984.034 1820.52,983.235 1824.55,982.097 1828.58,980.502 1832.61,979.621 1836.65,980.38 1840.68,981.527 1844.71,983.398 1848.75,987.491 1852.78,991.687 1856.81,996.132 1860.85,1000.39 1864.88,1003.86 1868.91,1007.51 1872.94,1011.9 1876.98,1015.55 1881.01,1018.61 1885.04,1020.76 1889.08,1022.04 1893.11,1023.48 1897.14,1023.64 1901.18,1022.79 1905.21,1023.45 1909.24,1025.51 1913.28,1027.53 1917.31,1029.38 1921.34,1030.87 1925.37,1031.68 1929.41,1032.22 1933.44,1032 1937.47,1031.06 1941.51,1029.03 1945.54,1025.58 1949.57,1021.76 1953.61,1017.32 1957.64,1012.31 1961.67,1006.75 1965.7,1000.48 1969.74,993.847 1973.77,986.89 1977.8,979.8 1981.84,974.082 1985.87,969.23 1989.9,964.415 1993.94,960.085 1997.97,959.409 2002,960.379 2006.04,960.883 2010.07,960.49 2014.1,960.366 2018.13,961.481 2022.17,963.582 2026.2,964.942 2030.23,966.241 2034.27,967.319 2038.3,968.386 2042.33,969.315 2046.37,969.199 2050.4,967.968 2054.43,965.512 2058.46,962.433 2062.5,959.757 2066.53,955.71 2070.56,951.791 2074.6,946.637 2078.63,941.723 2082.66,937.222 2086.7,932.06 2090.73,927.368 2094.76,923.225 2098.8,919.045 2102.83,914.862 2106.86,910.186 2110.89,905.589 2114.93,902.814 2118.96,902.663 2122.99,902.324 2127.03,902.529 2131.06,903.024 2135.09,902.666 2139.13,902.954 2143.16,903.163 2147.19,904.285 2151.22,904.949 2155.26,905.545 2159.29,905.173 2163.32,903.855 2167.36,902.638 2171.39,900.93 2175.42,898.944 2179.46,897.75 2183.49,899.088 2187.52,903.779 2191.56,908.81 2195.59,913.937 2199.62,919.339 2203.65,924.845 2207.69,929.437 2211.72,933.486 2215.75,936.232 2219.79,938.096 2223.82,938.901 2227.85,938.887 2231.89,939.068 2235.92,939.066 2239.95,940.198 2243.98,942.826 2248.02,945.869 2252.05,949.489 2256.08,952.634 2260.12,955.179 2264.15,956.987 2268.18,958.836 2272.22,961.637 2276.25,963.92 2280.28,967.856 2284.32,973.211 2288.35,979.535 2292.38,984.675 "/>
<polyline clip-path="url(#clip182)" style="stroke:#ff0000; stroke-linecap:round; stroke-linejoin:round; stroke-width:8; stroke-opacity:1; fill:none" points="279.894,1180.4 283.927,1158.98 287.96,1131.15 291.993,1099.48 296.026,1062.19 300.059,1020.13 304.092,976.452 308.125,930.285 312.158,888.873 316.191,847.361 320.224,802.881 324.257,759.514 328.29,721.514 332.323,684.328 336.356,651.418 340.389,618.73 344.422,586.893 348.455,558.725 352.488,533.207 356.521,510.257 360.554,486.989 364.588,462.286 368.621,442.131 372.654,421.566 376.687,402.298 380.72,386.24 384.753,372.534 388.786,361.516 392.819,351.47 396.852,341.333 400.885,330.069 404.918,318.949 408.951,309.492 412.984,299.319 417.017,289.978 421.05,283.914 425.083,280.439 429.116,277.129 433.149,274.876 437.182,273.483 441.215,271.468 445.248,269.659 449.281,267.395 453.314,271.171 457.347,275.219 461.381,280.295 465.414,284.416 469.447,287.321 473.48,287.506 477.513,286.433 481.546,284.242 485.579,280.057 489.612,275.054 493.645,269.68 497.678,263.883 501.711,259.053 505.744,256.477 509.777,253.236 513.81,250.66 517.843,247.055 521.876,242.723 525.909,237.855 529.942,233.394 533.975,228.873 538.008,225.656 542.041,221.659 546.074,217.493 550.107,212.195 554.14,206.841 558.174,202.156 562.207,199.277 566.24,197.16 570.273,197.521 574.306,197.482 578.339,196.787 582.372,195.328 586.405,194.25 590.438,192.749 594.471,191.838 598.504,191.261 602.537,191.853 606.57,193.32 610.603,199.65 614.636,208.201 618.669,216.228 622.702,223.411 626.735,231.349 630.768,240.595 634.801,250.011 638.834,258.93 642.867,268.986 646.9,280.936 650.933,292.405 654.967,303.072 659,313.135 663.033,322.972 667.066,332.252 671.099,341.42 675.132,349.609 679.165,356.96 683.198,364.144 687.231,371.014 691.264,376.351 695.297,380.228 699.33,384.331 703.363,388.928 707.396,395.002 711.429,401.243 715.462,408.346 719.495,414.923 723.528,420.017 727.561,424.981 731.594,430.698 735.627,435.52 739.66,439.893 743.693,444.317 747.726,447.479 751.76,449.39 755.793,450.52 759.826,450.79 763.859,452.588 767.892,455.086 771.925,457.176 775.958,457.902 779.991,458.99 784.024,460.993 788.057,465.652 792.09,470.515 796.123,474.362 800.156,477.39 804.189,480.577 808.222,484.119 812.255,487.469 816.288,490.276 820.321,492.942 824.354,495.5 828.387,497.216 832.42,497.992 836.453,499.391 840.486,500.976 844.519,502.253 848.552,503.81 852.586,504.675 856.619,504.938 860.652,504.613 864.685,504.247 868.718,503.383 872.751,503.149 876.784,503.965 880.817,504.763 884.85,505.369 888.883,506.08 892.916,506.634 896.949,507.308 900.982,508.052 905.015,509.029 909.048,510.184 913.081,510.597 917.114,510.81 921.147,510.916 925.18,510.966 929.213,511.718 933.246,513.273 937.279,514.93 941.312,515.993 945.345,516.487 949.379,516.616 953.412,515.879 957.445,515.996 961.478,517.2 965.511,518.11 969.544,518.801 973.577,518.67 977.61,517.888 981.643,516.844 985.676,515.75 989.709,514.372 993.742,511.932 997.775,508.37 1001.81,504.159 1005.84,500.767 1009.87,496.488 1013.91,491.237 1017.94,485.599 1021.97,480.021 1026.01,474.746 1030.04,469.808 1034.07,464.733 1038.11,459.496 1042.14,454.368 1046.17,449.266 1050.2,444.573 1054.24,439.122 1058.27,432.951 1062.3,426.942 1066.34,421.152 1070.37,414.931 1074.4,408.389 1078.44,400.808 1082.47,392.377 1086.5,383.36 1090.53,373.953 1094.57,365.203 1098.6,356.951 1102.63,348.141 1106.67,340.139 1110.7,331.702 1114.73,323.834 1118.77,316.428 1122.8,309.271 1126.83,301.652 1130.87,293.562 1134.9,285.593 1138.93,277.878 1142.96,271.093 1147,264.656 1151.03,257.891 1155.06,250.692 1159.1,243.249 1163.13,235.626 1167.16,228.343 1171.2,221.238 1175.23,217.487 1179.26,215.053 1183.29,212.482 1187.33,210.482 1191.36,208.755 1195.39,207.84 1199.43,206.932 1203.46,205.705 1207.49,203.887 1211.53,201.406 1215.56,198.829 1219.59,197.536 1223.63,196.148 1227.66,194.187 1231.69,191.655 1235.72,188.489 1239.76,185.272 1243.79,182.081 1247.82,178.715 1251.86,175.061 1255.89,171.073 1259.92,167.799 1263.96,164.46 1267.99,161.51 1272.02,160.256 1276.05,160.808 1280.09,161.893 1284.12,163.251 1288.15,164.96 1292.19,167.372 1296.22,173.772 1300.25,183.354 1304.29,193.27 1308.32,203.779 1312.35,213.933 1316.39,223.343 1320.42,231.713 1324.45,239.026 1328.48,245.373 1332.52,250.646 1336.55,254.497 1340.58,256.347 1344.62,256.164 1348.65,254.222 1352.68,251.209 1356.72,248.75 1360.75,245.851 1364.78,242.146 1368.81,237.75 1372.85,233.592 1376.88,229.192 1380.91,224.7 1384.95,220.015 1388.98,214.964 1393.01,209.991 1397.05,206.305 1401.08,202.769 1405.11,200.078 1409.15,198.202 1413.18,197.27 1417.21,197.085 1421.24,197.953 1425.28,199.386 1429.31,200.834 1433.34,202.119 1437.38,203.848 1441.41,206.263 1445.44,208.162 1449.48,210.145 1453.51,211.964 1457.54,214.126 1461.57,215.6 1465.61,218.127 1469.64,219.785 1473.67,222.368 1477.71,225.844 1481.74,228.587 1485.77,230.868 1489.81,232.87 1493.84,235.162 1497.87,237.583 1501.91,240.532 1505.94,243.524 1509.97,246.017 1514,248.946 1518.04,252.682 1522.07,256.091 1526.1,259.015 1530.14,262.223 1534.17,265.653 1538.2,269.134 1542.24,272.642 1546.27,275.85 1550.3,279.825 1554.33,284.322 1558.37,289.686 1562.4,295.782 1566.43,303.207 1570.47,310.846 1574.5,317.741 1578.53,324.471 1582.57,330.779 1586.6,336.371 1590.63,341.322 1594.67,345.62 1598.7,348.888 1602.73,351.167 1606.76,352.551 1610.8,353.504 1614.83,355.542 1618.86,358.591 1622.9,361.892 1626.93,364.466 1630.96,366.6 1635,368.262 1639.03,369.87 1643.06,371.041 1647.09,372.814 1651.13,375.567 1655.16,378.313 1659.19,381.308 1663.23,383.727 1667.26,385.217 1671.29,386.372 1675.33,387.428 1679.36,388.153 1683.39,388.176 1687.43,388.111 1691.46,389.062 1695.49,390.558 1699.52,391.412 1703.56,391.954 1707.59,392.398 1711.62,391.73 1715.66,389.928 1719.69,387.658 1723.72,385.482 1727.76,385.058 1731.79,386.123 1735.82,388.267 1739.85,392.023 1743.89,397.723 1747.92,404.948 1751.95,412.84 1755.99,420.768 1760.02,428.837 1764.05,437.47 1768.09,445.541 1772.12,453.398 1776.15,461.293 1780.19,468.926 1784.22,476.218 1788.25,484.043 1792.28,491.618 1796.32,498.199 1800.35,504.221 1804.38,510.277 1808.42,515.271 1812.45,519.873 1816.48,524.174 1820.52,528.405 1824.55,533.24 1828.58,539.551 1832.61,545.697 1836.65,551.67 1840.68,557.212 1844.71,563.125 1848.75,569.64 1852.78,575.66 1856.81,580.977 1860.85,585.838 1864.88,590.624 1868.91,595.009 1872.94,599.468 1876.98,603.412 1881.01,606.268 1885.04,607.853 1889.08,608.584 1893.11,608.931 1897.14,609.574 1901.18,610.343 1905.21,611.114 1909.24,611.674 1913.28,612.145 1917.31,611.955 1921.34,612.227 1925.37,612.578 1929.41,613.1 1933.44,613.005 1937.47,613.55 1941.51,613.889 1945.54,615.162 1949.57,615.491 1953.61,615.401 1957.64,615.105 1961.67,615.024 1965.7,616.784 1969.74,618.869 1973.77,621.847 1977.8,624.778 1981.84,628.308 1985.87,632.285 1989.9,636.385 1993.94,639.836 1997.97,642.705 2002,644.785 2006.04,646.187 2010.07,646.619 2014.1,645.887 2018.13,644.694 2022.17,643.219 2026.2,640.55 2030.23,636.695 2034.27,632.966 2038.3,628.291 2042.33,622.478 2046.37,616.178 2050.4,609.788 2054.43,606.024 2058.46,602.517 2062.5,599.228 2066.53,595.299 2070.56,590.983 2074.6,587.325 2078.63,584.457 2082.66,581.142 2086.7,577.759 2090.73,574.744 2094.76,571.493 2098.8,568.331 2102.83,566.052 2106.86,563.524 2110.89,560.851 2114.93,557.242 2118.96,552.747 2122.99,548.618 2127.03,544.615 2131.06,539.901 2135.09,535.419 2139.13,531.728 2143.16,527.355 2147.19,523.721 2151.22,523.391 2155.26,524.733 2159.29,525.663 2163.32,526.48 2167.36,527.036 2171.39,527.053 2175.42,526.698 2179.46,526.244 2183.49,526.387 2187.52,527.066 2191.56,527.022 2195.59,526.26 2199.62,524.791 2203.65,523.591 2207.69,524.054 2211.72,524.373 2215.75,523.949 2219.79,524.075 2223.82,524.865 2227.85,527.404 2231.89,530.379 2235.92,533.609 2239.95,536.116 2243.98,537.444 2248.02,538.628 2252.05,539.923 2256.08,541.724 2260.12,544.312 2264.15,546.518 2268.18,547.729 2272.22,549.048 2276.25,549.81 2280.28,549.781 2284.32,549.358 2288.35,549.393 2292.38,549.708 "/>
<path clip-path="url(#clip180)" d="M1809.9 322.316 L2281.65 322.316 L2281.65 166.796 L1809.9 166.796  Z" fill="#ffffff" fill-rule="evenodd" fill-opacity="1"/>
<polyline clip-path="url(#clip180)" style="stroke:#000000; stroke-linecap:round; stroke-linejoin:round; stroke-width:4; stroke-opacity:1; fill:none" points="1809.9,322.316 2281.65,322.316 2281.65,166.796 1809.9,166.796 1809.9,322.316 "/>
<polyline clip-path="url(#clip180)" style="stroke:#0000ff; stroke-linecap:round; stroke-linejoin:round; stroke-width:8; stroke-opacity:1; fill:none" points="1833.6,218.636 1975.82,218.636 "/>
<path clip-path="url(#clip180)" d="M1999.52 201.356 L2006.49 201.356 L2015.31 224.874 L2024.17 201.356 L2031.14 201.356 L2031.14 235.916 L2026.58 235.916 L2026.58 205.569 L2017.67 229.272 L2012.97 229.272 L2004.06 205.569 L2004.06 235.916 L1999.52 235.916 L1999.52 201.356 Z" fill="#000000" fill-rule="nonzero" fill-opacity="1" /><path clip-path="url(#clip180)" d="M2062.41 221.888 L2062.41 223.971 L2042.83 223.971 Q2043.11 228.369 2045.47 230.684 Q2047.85 232.976 2052.09 232.976 Q2054.54 232.976 2056.84 232.374 Q2059.15 231.772 2061.42 230.569 L2061.42 234.596 Q2059.13 235.568 2056.72 236.078 Q2054.31 236.587 2051.84 236.587 Q2045.63 236.587 2042 232.976 Q2038.39 229.365 2038.39 223.207 Q2038.39 216.842 2041.81 213.115 Q2045.26 209.365 2051.09 209.365 Q2056.33 209.365 2059.36 212.745 Q2062.41 216.101 2062.41 221.888 M2058.15 220.638 Q2058.11 217.143 2056.19 215.059 Q2054.29 212.976 2051.14 212.976 Q2047.58 212.976 2045.42 214.99 Q2043.29 217.004 2042.97 220.661 L2058.15 220.638 Z" fill="#000000" fill-rule="nonzero" fill-opacity="1" /><path clip-path="url(#clip180)" d="M2073.62 202.629 L2073.62 209.99 L2082.39 209.99 L2082.39 213.3 L2073.62 213.3 L2073.62 227.374 Q2073.62 230.545 2074.47 231.448 Q2075.35 232.351 2078.02 232.351 L2082.39 232.351 L2082.39 235.916 L2078.02 235.916 Q2073.09 235.916 2071.21 234.087 Q2069.34 232.235 2069.34 227.374 L2069.34 213.3 L2066.21 213.3 L2066.21 209.99 L2069.34 209.99 L2069.34 202.629 L2073.62 202.629 Z" fill="#000000" fill-rule="nonzero" fill-opacity="1" /><path clip-path="url(#clip180)" d="M2103.02 213.971 Q2102.3 213.555 2101.44 213.37 Q2100.61 213.161 2099.59 213.161 Q2095.98 213.161 2094.03 215.522 Q2092.11 217.86 2092.11 222.258 L2092.11 235.916 L2087.83 235.916 L2087.83 209.99 L2092.11 209.99 L2092.11 214.018 Q2093.46 211.657 2095.61 210.522 Q2097.76 209.365 2100.84 209.365 Q2101.28 209.365 2101.81 209.434 Q2102.34 209.481 2102.99 209.596 L2103.02 213.971 Z" fill="#000000" fill-rule="nonzero" fill-opacity="1" /><path clip-path="url(#clip180)" d="M2107.48 209.99 L2111.74 209.99 L2111.74 235.916 L2107.48 235.916 L2107.48 209.99 M2107.48 199.897 L2111.74 199.897 L2111.74 205.291 L2107.48 205.291 L2107.48 199.897 Z" fill="#000000" fill-rule="nonzero" fill-opacity="1" /><path clip-path="url(#clip180)" d="M2139.31 210.985 L2139.31 214.967 Q2137.51 213.971 2135.68 213.485 Q2133.87 212.976 2132.02 212.976 Q2127.88 212.976 2125.58 215.615 Q2123.29 218.231 2123.29 222.976 Q2123.29 227.721 2125.58 230.36 Q2127.88 232.976 2132.02 232.976 Q2133.87 232.976 2135.68 232.49 Q2137.51 231.981 2139.31 230.985 L2139.31 234.92 Q2137.53 235.754 2135.61 236.17 Q2133.71 236.587 2131.56 236.587 Q2125.7 236.587 2122.25 232.906 Q2118.8 229.226 2118.8 222.976 Q2118.8 216.633 2122.27 212.999 Q2125.77 209.365 2131.83 209.365 Q2133.8 209.365 2135.68 209.782 Q2137.55 210.175 2139.31 210.985 Z" fill="#000000" fill-rule="nonzero" fill-opacity="1" /><polyline clip-path="url(#clip180)" style="stroke:#ff0000; stroke-linecap:round; stroke-linejoin:round; stroke-width:8; stroke-opacity:1; fill:none" points="1833.6,270.476 1975.82,270.476 "/>
<path clip-path="url(#clip180)" d="M1999.52 253.196 L2028.76 253.196 L2028.76 257.131 L2016.49 257.131 L2016.49 287.756 L2011.79 287.756 L2011.79 257.131 L1999.52 257.131 L1999.52 253.196 Z" fill="#000000" fill-rule="nonzero" fill-opacity="1" /><path clip-path="url(#clip180)" d="M2035.08 264.816 Q2031.65 264.816 2029.66 267.501 Q2027.67 270.163 2027.67 274.816 Q2027.67 279.469 2029.64 282.154 Q2031.63 284.816 2035.08 284.816 Q2038.48 284.816 2040.47 282.131 Q2042.46 279.446 2042.46 274.816 Q2042.46 270.21 2040.47 267.524 Q2038.48 264.816 2035.08 264.816 M2035.08 261.205 Q2040.63 261.205 2043.8 264.816 Q2046.97 268.427 2046.97 274.816 Q2046.97 281.182 2043.8 284.816 Q2040.63 288.427 2035.08 288.427 Q2029.5 288.427 2026.33 284.816 Q2023.18 281.182 2023.18 274.816 Q2023.18 268.427 2026.33 264.816 Q2029.5 261.205 2035.08 261.205 Z" fill="#000000" fill-rule="nonzero" fill-opacity="1" /><path clip-path="url(#clip180)" d="M2058.15 283.867 L2058.15 297.617 L2053.87 297.617 L2053.87 261.83 L2058.15 261.83 L2058.15 265.765 Q2059.5 263.45 2061.53 262.339 Q2063.59 261.205 2066.44 261.205 Q2071.16 261.205 2074.1 264.955 Q2077.07 268.705 2077.07 274.816 Q2077.07 280.927 2074.1 284.677 Q2071.16 288.427 2066.44 288.427 Q2063.59 288.427 2061.53 287.316 Q2059.5 286.182 2058.15 283.867 M2072.65 274.816 Q2072.65 270.117 2070.7 267.455 Q2068.78 264.77 2065.4 264.77 Q2062.02 264.77 2060.08 267.455 Q2058.15 270.117 2058.15 274.816 Q2058.15 279.515 2060.08 282.2 Q2062.02 284.862 2065.4 284.862 Q2068.78 284.862 2070.7 282.2 Q2072.65 279.515 2072.65 274.816 Z" fill="#000000" fill-rule="nonzero" fill-opacity="1" /><path clip-path="url(#clip180)" d="M2094.17 264.816 Q2090.75 264.816 2088.76 267.501 Q2086.77 270.163 2086.77 274.816 Q2086.77 279.469 2088.73 282.154 Q2090.72 284.816 2094.17 284.816 Q2097.58 284.816 2099.57 282.131 Q2101.56 279.446 2101.56 274.816 Q2101.56 270.21 2099.57 267.524 Q2097.58 264.816 2094.17 264.816 M2094.17 261.205 Q2099.73 261.205 2102.9 264.816 Q2106.07 268.427 2106.07 274.816 Q2106.07 281.182 2102.9 284.816 Q2099.73 288.427 2094.17 288.427 Q2088.59 288.427 2085.42 284.816 Q2082.28 281.182 2082.28 274.816 Q2082.28 268.427 2085.42 264.816 Q2088.59 261.205 2094.17 261.205 Z" fill="#000000" fill-rule="nonzero" fill-opacity="1" /><path clip-path="url(#clip180)" d="M2113.13 251.737 L2117.39 251.737 L2117.39 287.756 L2113.13 287.756 L2113.13 251.737 Z" fill="#000000" fill-rule="nonzero" fill-opacity="1" /><path clip-path="url(#clip180)" d="M2136.35 264.816 Q2132.92 264.816 2130.93 267.501 Q2128.94 270.163 2128.94 274.816 Q2128.94 279.469 2130.91 282.154 Q2132.9 284.816 2136.35 284.816 Q2139.75 284.816 2141.74 282.131 Q2143.73 279.446 2143.73 274.816 Q2143.73 270.21 2141.74 267.524 Q2139.75 264.816 2136.35 264.816 M2136.35 261.205 Q2141.9 261.205 2145.08 264.816 Q2148.25 268.427 2148.25 274.816 Q2148.25 281.182 2145.08 284.816 Q2141.9 288.427 2136.35 288.427 Q2130.77 288.427 2127.6 284.816 Q2124.45 281.182 2124.45 274.816 Q2124.45 268.427 2127.6 264.816 Q2130.77 261.205 2136.35 261.205 Z" fill="#000000" fill-rule="nonzero" fill-opacity="1" /><path clip-path="url(#clip180)" d="M2172.37 274.492 Q2172.37 269.862 2170.45 267.316 Q2168.55 264.77 2165.1 264.77 Q2161.67 264.77 2159.75 267.316 Q2157.85 269.862 2157.85 274.492 Q2157.85 279.098 2159.75 281.645 Q2161.67 284.191 2165.1 284.191 Q2168.55 284.191 2170.45 281.645 Q2172.37 279.098 2172.37 274.492 M2176.63 284.538 Q2176.63 291.158 2173.69 294.376 Q2170.75 297.617 2164.68 297.617 Q2162.44 297.617 2160.45 297.27 Q2158.46 296.945 2156.58 296.251 L2156.58 292.108 Q2158.46 293.126 2160.28 293.612 Q2162.11 294.098 2164.01 294.098 Q2168.2 294.098 2170.28 291.899 Q2172.37 289.723 2172.37 285.302 L2172.37 283.196 Q2171.05 285.487 2168.99 286.621 Q2166.93 287.756 2164.06 287.756 Q2159.29 287.756 2156.37 284.121 Q2153.46 280.487 2153.46 274.492 Q2153.46 268.473 2156.37 264.839 Q2159.29 261.205 2164.06 261.205 Q2166.93 261.205 2168.99 262.339 Q2171.05 263.473 2172.37 265.765 L2172.37 261.83 L2176.63 261.83 L2176.63 284.538 Z" fill="#000000" fill-rule="nonzero" fill-opacity="1" /><path clip-path="url(#clip180)" d="M2185.4 261.83 L2189.66 261.83 L2189.66 287.756 L2185.4 287.756 L2185.4 261.83 M2185.4 251.737 L2189.66 251.737 L2189.66 257.131 L2185.4 257.131 L2185.4 251.737 Z" fill="#000000" fill-rule="nonzero" fill-opacity="1" /><path clip-path="url(#clip180)" d="M2217.23 262.825 L2217.23 266.807 Q2215.42 265.811 2213.59 265.325 Q2211.79 264.816 2209.94 264.816 Q2205.79 264.816 2203.5 267.455 Q2201.21 270.071 2201.21 274.816 Q2201.21 279.561 2203.5 282.2 Q2205.79 284.816 2209.94 284.816 Q2211.79 284.816 2213.59 284.33 Q2215.42 283.821 2217.23 282.825 L2217.23 286.76 Q2215.45 287.594 2213.52 288.01 Q2211.63 288.427 2209.47 288.427 Q2203.62 288.427 2200.17 284.746 Q2196.72 281.066 2196.72 274.816 Q2196.72 268.473 2200.19 264.839 Q2203.69 261.205 2209.75 261.205 Q2211.72 261.205 2213.59 261.622 Q2215.47 262.015 2217.23 262.825 Z" fill="#000000" fill-rule="nonzero" fill-opacity="1" /><path clip-path="url(#clip180)" d="M2236.42 274.723 Q2231.26 274.723 2229.26 275.904 Q2227.27 277.084 2227.27 279.932 Q2227.27 282.2 2228.76 283.543 Q2230.26 284.862 2232.83 284.862 Q2236.37 284.862 2238.5 282.362 Q2240.65 279.839 2240.65 275.672 L2240.65 274.723 L2236.42 274.723 M2244.91 272.964 L2244.91 287.756 L2240.65 287.756 L2240.65 283.821 Q2239.2 286.182 2237.02 287.316 Q2234.84 288.427 2231.7 288.427 Q2227.71 288.427 2225.35 286.205 Q2223.02 283.959 2223.02 280.209 Q2223.02 275.834 2225.93 273.612 Q2228.87 271.39 2234.68 271.39 L2240.65 271.39 L2240.65 270.973 Q2240.65 268.034 2238.71 266.436 Q2236.79 264.816 2233.29 264.816 Q2231.07 264.816 2228.96 265.348 Q2226.86 265.881 2224.91 266.946 L2224.91 263.01 Q2227.25 262.108 2229.45 261.668 Q2231.65 261.205 2233.73 261.205 Q2239.36 261.205 2242.14 264.122 Q2244.91 267.038 2244.91 272.964 Z" fill="#000000" fill-rule="nonzero" fill-opacity="1" /><path clip-path="url(#clip180)" d="M2253.69 251.737 L2257.95 251.737 L2257.95 287.756 L2253.69 287.756 L2253.69 251.737 Z" fill="#000000" fill-rule="nonzero" fill-opacity="1" /></svg>
