<?xml version="1.0" encoding="utf-8"?>
<svg xmlns="http://www.w3.org/2000/svg" xmlns:xlink="http://www.w3.org/1999/xlink" width="600" height="400" viewBox="0 0 2400 1600">
<defs>
  <clipPath id="clip550">
    <rect x="0" y="0" width="2400" height="1600"/>
  </clipPath>
</defs>
<path clip-path="url(#clip550)" d="M0 1600 L2400 1600 L2400 0 L0 0  Z" fill="#ffffff" fill-rule="evenodd" fill-opacity="1"/>
<defs>
  <clipPath id="clip551">
    <rect x="480" y="0" width="1681" height="1600"/>
  </clipPath>
</defs>
<path clip-path="url(#clip550)" d="M219.38 1423.18 L2352.76 1423.18 L2352.76 123.472 L219.38 123.472  Z" fill="#ffffff" fill-rule="evenodd" fill-opacity="1"/>
<defs>
  <clipPath id="clip552">
    <rect x="219" y="123" width="2134" height="1301"/>
  </clipPath>
</defs>
<polyline clip-path="url(#clip552)" style="stroke:#000000; stroke-linecap:round; stroke-linejoin:round; stroke-width:2; stroke-opacity:0.1; fill:none" points="275.725,1423.18 275.725,123.472 "/>
<polyline clip-path="url(#clip552)" style="stroke:#000000; stroke-linecap:round; stroke-linejoin:round; stroke-width:2; stroke-opacity:0.1; fill:none" points="679.056,1423.18 679.056,123.472 "/>
<polyline clip-path="url(#clip552)" style="stroke:#000000; stroke-linecap:round; stroke-linejoin:round; stroke-width:2; stroke-opacity:0.1; fill:none" points="1082.39,1423.18 1082.39,123.472 "/>
<polyline clip-path="url(#clip552)" style="stroke:#000000; stroke-linecap:round; stroke-linejoin:round; stroke-width:2; stroke-opacity:0.1; fill:none" points="1485.72,1423.18 1485.72,123.472 "/>
<polyline clip-path="url(#clip552)" style="stroke:#000000; stroke-linecap:round; stroke-linejoin:round; stroke-width:2; stroke-opacity:0.1; fill:none" points="1889.05,1423.18 1889.05,123.472 "/>
<polyline clip-path="url(#clip552)" style="stroke:#000000; stroke-linecap:round; stroke-linejoin:round; stroke-width:2; stroke-opacity:0.1; fill:none" points="2292.38,1423.18 2292.38,123.472 "/>
<polyline clip-path="url(#clip552)" style="stroke:#000000; stroke-linecap:round; stroke-linejoin:round; stroke-width:2; stroke-opacity:0.1; fill:none" points="219.38,1248.84 2352.76,1248.84 "/>
<polyline clip-path="url(#clip552)" style="stroke:#000000; stroke-linecap:round; stroke-linejoin:round; stroke-width:2; stroke-opacity:0.1; fill:none" points="219.38,1012.27 2352.76,1012.27 "/>
<polyline clip-path="url(#clip552)" style="stroke:#000000; stroke-linecap:round; stroke-linejoin:round; stroke-width:2; stroke-opacity:0.1; fill:none" points="219.38,775.71 2352.76,775.71 "/>
<polyline clip-path="url(#clip552)" style="stroke:#000000; stroke-linecap:round; stroke-linejoin:round; stroke-width:2; stroke-opacity:0.1; fill:none" points="219.38,539.145 2352.76,539.145 "/>
<polyline clip-path="url(#clip552)" style="stroke:#000000; stroke-linecap:round; stroke-linejoin:round; stroke-width:2; stroke-opacity:0.1; fill:none" points="219.38,302.581 2352.76,302.581 "/>
<polyline clip-path="url(#clip550)" style="stroke:#000000; stroke-linecap:round; stroke-linejoin:round; stroke-width:4; stroke-opacity:1; fill:none" points="219.38,1423.18 2352.76,1423.18 "/>
<polyline clip-path="url(#clip550)" style="stroke:#000000; stroke-linecap:round; stroke-linejoin:round; stroke-width:4; stroke-opacity:1; fill:none" points="275.725,1423.18 275.725,1404.28 "/>
<polyline clip-path="url(#clip550)" style="stroke:#000000; stroke-linecap:round; stroke-linejoin:round; stroke-width:4; stroke-opacity:1; fill:none" points="679.056,1423.18 679.056,1404.28 "/>
<polyline clip-path="url(#clip550)" style="stroke:#000000; stroke-linecap:round; stroke-linejoin:round; stroke-width:4; stroke-opacity:1; fill:none" points="1082.39,1423.18 1082.39,1404.28 "/>
<polyline clip-path="url(#clip550)" style="stroke:#000000; stroke-linecap:round; stroke-linejoin:round; stroke-width:4; stroke-opacity:1; fill:none" points="1485.72,1423.18 1485.72,1404.28 "/>
<polyline clip-path="url(#clip550)" style="stroke:#000000; stroke-linecap:round; stroke-linejoin:round; stroke-width:4; stroke-opacity:1; fill:none" points="1889.05,1423.18 1889.05,1404.28 "/>
<polyline clip-path="url(#clip550)" style="stroke:#000000; stroke-linecap:round; stroke-linejoin:round; stroke-width:4; stroke-opacity:1; fill:none" points="2292.38,1423.18 2292.38,1404.28 "/>
<path clip-path="url(#clip550)" d="M275.725 1454.1 Q272.114 1454.1 270.286 1457.66 Q268.48 1461.2 268.48 1468.33 Q268.48 1475.44 270.286 1479.01 Q272.114 1482.55 275.725 1482.55 Q279.36 1482.55 281.165 1479.01 Q282.994 1475.44 282.994 1468.33 Q282.994 1461.2 281.165 1457.66 Q279.36 1454.1 275.725 1454.1 M275.725 1450.39 Q281.536 1450.39 284.591 1455 Q287.67 1459.58 287.67 1468.33 Q287.67 1477.06 284.591 1481.67 Q281.536 1486.25 275.725 1486.25 Q269.915 1486.25 266.837 1481.67 Q263.781 1477.06 263.781 1468.33 Q263.781 1459.58 266.837 1455 Q269.915 1450.39 275.725 1450.39 Z" fill="#000000" fill-rule="nonzero" fill-opacity="1" /><path clip-path="url(#clip550)" d="M638.662 1481.64 L646.301 1481.64 L646.301 1455.28 L637.991 1456.95 L637.991 1452.69 L646.255 1451.02 L650.931 1451.02 L650.931 1481.64 L658.57 1481.64 L658.57 1485.58 L638.662 1485.58 L638.662 1481.64 Z" fill="#000000" fill-rule="nonzero" fill-opacity="1" /><path clip-path="url(#clip550)" d="M678.014 1454.1 Q674.403 1454.1 672.574 1457.66 Q670.769 1461.2 670.769 1468.33 Q670.769 1475.44 672.574 1479.01 Q674.403 1482.55 678.014 1482.55 Q681.648 1482.55 683.454 1479.01 Q685.283 1475.44 685.283 1468.33 Q685.283 1461.2 683.454 1457.66 Q681.648 1454.1 678.014 1454.1 M678.014 1450.39 Q683.824 1450.39 686.88 1455 Q689.959 1459.58 689.959 1468.33 Q689.959 1477.06 686.88 1481.67 Q683.824 1486.25 678.014 1486.25 Q672.204 1486.25 669.125 1481.67 Q666.07 1477.06 666.07 1468.33 Q666.07 1459.58 669.125 1455 Q672.204 1450.39 678.014 1450.39 Z" fill="#000000" fill-rule="nonzero" fill-opacity="1" /><path clip-path="url(#clip550)" d="M708.176 1454.1 Q704.565 1454.1 702.736 1457.66 Q700.931 1461.2 700.931 1468.33 Q700.931 1475.44 702.736 1479.01 Q704.565 1482.55 708.176 1482.55 Q711.81 1482.55 713.616 1479.01 Q715.444 1475.44 715.444 1468.33 Q715.444 1461.2 713.616 1457.66 Q711.81 1454.1 708.176 1454.1 M708.176 1450.39 Q713.986 1450.39 717.042 1455 Q720.12 1459.58 720.12 1468.33 Q720.12 1477.06 717.042 1481.67 Q713.986 1486.25 708.176 1486.25 Q702.366 1486.25 699.287 1481.67 Q696.232 1477.06 696.232 1468.33 Q696.232 1459.58 699.287 1455 Q702.366 1450.39 708.176 1450.39 Z" fill="#000000" fill-rule="nonzero" fill-opacity="1" /><path clip-path="url(#clip550)" d="M1046.08 1481.64 L1062.4 1481.64 L1062.4 1485.58 L1040.45 1485.58 L1040.45 1481.64 Q1043.12 1478.89 1047.7 1474.26 Q1052.31 1469.61 1053.49 1468.27 Q1055.73 1465.74 1056.61 1464.01 Q1057.51 1462.25 1057.51 1460.56 Q1057.51 1457.8 1055.57 1456.07 Q1053.65 1454.33 1050.55 1454.33 Q1048.35 1454.33 1045.89 1455.09 Q1043.46 1455.86 1040.69 1457.41 L1040.69 1452.69 Q1043.51 1451.55 1045.96 1450.97 Q1048.42 1450.39 1050.45 1450.39 Q1055.82 1450.39 1059.02 1453.08 Q1062.21 1455.77 1062.21 1460.26 Q1062.21 1462.39 1061.4 1464.31 Q1060.62 1466.2 1058.51 1468.8 Q1057.93 1469.47 1054.83 1472.69 Q1051.73 1475.88 1046.08 1481.64 Z" fill="#000000" fill-rule="nonzero" fill-opacity="1" /><path clip-path="url(#clip550)" d="M1082.21 1454.1 Q1078.6 1454.1 1076.77 1457.66 Q1074.97 1461.2 1074.97 1468.33 Q1074.97 1475.44 1076.77 1479.01 Q1078.6 1482.55 1082.21 1482.55 Q1085.85 1482.55 1087.65 1479.01 Q1089.48 1475.44 1089.48 1468.33 Q1089.48 1461.2 1087.65 1457.66 Q1085.85 1454.1 1082.21 1454.1 M1082.21 1450.39 Q1088.02 1450.39 1091.08 1455 Q1094.16 1459.58 1094.16 1468.33 Q1094.16 1477.06 1091.08 1481.67 Q1088.02 1486.25 1082.21 1486.25 Q1076.4 1486.25 1073.32 1481.67 Q1070.27 1477.06 1070.27 1468.33 Q1070.27 1459.58 1073.32 1455 Q1076.4 1450.39 1082.21 1450.39 Z" fill="#000000" fill-rule="nonzero" fill-opacity="1" /><path clip-path="url(#clip550)" d="M1112.37 1454.1 Q1108.76 1454.1 1106.93 1457.66 Q1105.13 1461.2 1105.13 1468.33 Q1105.13 1475.44 1106.93 1479.01 Q1108.76 1482.55 1112.37 1482.55 Q1116.01 1482.55 1117.81 1479.01 Q1119.64 1475.44 1119.64 1468.33 Q1119.64 1461.2 1117.81 1457.66 Q1116.01 1454.1 1112.37 1454.1 M1112.37 1450.39 Q1118.18 1450.39 1121.24 1455 Q1124.32 1459.58 1124.32 1468.33 Q1124.32 1477.06 1121.24 1481.67 Q1118.18 1486.25 1112.37 1486.25 Q1106.56 1486.25 1103.49 1481.67 Q1100.43 1477.06 1100.43 1468.33 Q1100.43 1459.58 1103.49 1455 Q1106.56 1450.39 1112.37 1450.39 Z" fill="#000000" fill-rule="nonzero" fill-opacity="1" /><path clip-path="url(#clip550)" d="M1459.48 1466.95 Q1462.83 1467.66 1464.71 1469.93 Q1466.61 1472.2 1466.61 1475.53 Q1466.61 1480.65 1463.09 1483.45 Q1459.57 1486.25 1453.09 1486.25 Q1450.91 1486.25 1448.6 1485.81 Q1446.31 1485.39 1443.85 1484.54 L1443.85 1480.02 Q1445.8 1481.16 1448.11 1481.74 Q1450.43 1482.32 1452.95 1482.32 Q1457.35 1482.32 1459.64 1480.58 Q1461.96 1478.84 1461.96 1475.53 Q1461.96 1472.48 1459.8 1470.77 Q1457.67 1469.03 1453.85 1469.03 L1449.83 1469.03 L1449.83 1465.19 L1454.04 1465.19 Q1457.49 1465.19 1459.32 1463.82 Q1461.14 1462.43 1461.14 1459.84 Q1461.14 1457.18 1459.25 1455.77 Q1457.37 1454.33 1453.85 1454.33 Q1451.93 1454.33 1449.73 1454.75 Q1447.53 1455.16 1444.9 1456.04 L1444.9 1451.88 Q1447.56 1451.14 1449.87 1450.77 Q1452.21 1450.39 1454.27 1450.39 Q1459.59 1450.39 1462.7 1452.83 Q1465.8 1455.23 1465.8 1459.35 Q1465.8 1462.22 1464.15 1464.21 Q1462.51 1466.18 1459.48 1466.95 Z" fill="#000000" fill-rule="nonzero" fill-opacity="1" /><path clip-path="url(#clip550)" d="M1485.47 1454.1 Q1481.86 1454.1 1480.03 1457.66 Q1478.23 1461.2 1478.23 1468.33 Q1478.23 1475.44 1480.03 1479.01 Q1481.86 1482.55 1485.47 1482.55 Q1489.11 1482.55 1490.91 1479.01 Q1492.74 1475.44 1492.74 1468.33 Q1492.74 1461.2 1490.91 1457.66 Q1489.11 1454.1 1485.47 1454.1 M1485.47 1450.39 Q1491.28 1450.39 1494.34 1455 Q1497.42 1459.58 1497.42 1468.33 Q1497.42 1477.06 1494.34 1481.67 Q1491.28 1486.25 1485.47 1486.25 Q1479.66 1486.25 1476.58 1481.67 Q1473.53 1477.06 1473.53 1468.33 Q1473.53 1459.58 1476.58 1455 Q1479.66 1450.39 1485.47 1450.39 Z" fill="#000000" fill-rule="nonzero" fill-opacity="1" /><path clip-path="url(#clip550)" d="M1515.64 1454.1 Q1512.02 1454.1 1510.2 1457.66 Q1508.39 1461.2 1508.39 1468.33 Q1508.39 1475.44 1510.2 1479.01 Q1512.02 1482.55 1515.64 1482.55 Q1519.27 1482.55 1521.08 1479.01 Q1522.9 1475.44 1522.9 1468.33 Q1522.9 1461.2 1521.08 1457.66 Q1519.27 1454.1 1515.64 1454.1 M1515.64 1450.39 Q1521.45 1450.39 1524.5 1455 Q1527.58 1459.58 1527.58 1468.33 Q1527.58 1477.06 1524.5 1481.67 Q1521.45 1486.25 1515.64 1486.25 Q1509.83 1486.25 1506.75 1481.67 Q1503.69 1477.06 1503.69 1468.33 Q1503.69 1459.58 1506.75 1455 Q1509.83 1450.39 1515.64 1450.39 Z" fill="#000000" fill-rule="nonzero" fill-opacity="1" /><path clip-path="url(#clip550)" d="M1862.14 1455.09 L1850.33 1473.54 L1862.14 1473.54 L1862.14 1455.09 M1860.91 1451.02 L1866.79 1451.02 L1866.79 1473.54 L1871.72 1473.54 L1871.72 1477.43 L1866.79 1477.43 L1866.79 1485.58 L1862.14 1485.58 L1862.14 1477.43 L1846.54 1477.43 L1846.54 1472.92 L1860.91 1451.02 Z" fill="#000000" fill-rule="nonzero" fill-opacity="1" /><path clip-path="url(#clip550)" d="M1889.45 1454.1 Q1885.84 1454.1 1884.01 1457.66 Q1882.21 1461.2 1882.21 1468.33 Q1882.21 1475.44 1884.01 1479.01 Q1885.84 1482.55 1889.45 1482.55 Q1893.09 1482.55 1894.89 1479.01 Q1896.72 1475.44 1896.72 1468.33 Q1896.72 1461.2 1894.89 1457.66 Q1893.09 1454.1 1889.45 1454.1 M1889.45 1450.39 Q1895.26 1450.39 1898.32 1455 Q1901.4 1459.58 1901.4 1468.33 Q1901.4 1477.06 1898.32 1481.67 Q1895.26 1486.25 1889.45 1486.25 Q1883.64 1486.25 1880.56 1481.67 Q1877.51 1477.06 1877.51 1468.33 Q1877.51 1459.58 1880.56 1455 Q1883.64 1450.39 1889.45 1450.39 Z" fill="#000000" fill-rule="nonzero" fill-opacity="1" /><path clip-path="url(#clip550)" d="M1919.61 1454.1 Q1916 1454.1 1914.17 1457.66 Q1912.37 1461.2 1912.37 1468.33 Q1912.37 1475.44 1914.17 1479.01 Q1916 1482.55 1919.61 1482.55 Q1923.25 1482.55 1925.05 1479.01 Q1926.88 1475.44 1926.88 1468.33 Q1926.88 1461.2 1925.05 1457.66 Q1923.25 1454.1 1919.61 1454.1 M1919.61 1450.39 Q1925.42 1450.39 1928.48 1455 Q1931.56 1459.58 1931.56 1468.33 Q1931.56 1477.06 1928.48 1481.67 Q1925.42 1486.25 1919.61 1486.25 Q1913.8 1486.25 1910.73 1481.67 Q1907.67 1477.06 1907.67 1468.33 Q1907.67 1459.58 1910.73 1455 Q1913.8 1450.39 1919.61 1450.39 Z" fill="#000000" fill-rule="nonzero" fill-opacity="1" /><path clip-path="url(#clip550)" d="M2252 1451.02 L2270.35 1451.02 L2270.35 1454.96 L2256.28 1454.96 L2256.28 1463.43 Q2257.3 1463.08 2258.32 1462.92 Q2259.33 1462.73 2260.35 1462.73 Q2266.14 1462.73 2269.52 1465.9 Q2272.9 1469.08 2272.9 1474.49 Q2272.9 1480.07 2269.43 1483.17 Q2265.95 1486.25 2259.63 1486.25 Q2257.46 1486.25 2255.19 1485.88 Q2252.94 1485.51 2250.54 1484.77 L2250.54 1480.07 Q2252.62 1481.2 2254.84 1481.76 Q2257.07 1482.32 2259.54 1482.32 Q2263.55 1482.32 2265.88 1480.21 Q2268.22 1478.1 2268.22 1474.49 Q2268.22 1470.88 2265.88 1468.77 Q2263.55 1466.67 2259.54 1466.67 Q2257.67 1466.67 2255.79 1467.08 Q2253.94 1467.5 2252 1468.38 L2252 1451.02 Z" fill="#000000" fill-rule="nonzero" fill-opacity="1" /><path clip-path="url(#clip550)" d="M2292.11 1454.1 Q2288.5 1454.1 2286.67 1457.66 Q2284.87 1461.2 2284.87 1468.33 Q2284.87 1475.44 2286.67 1479.01 Q2288.5 1482.55 2292.11 1482.55 Q2295.75 1482.55 2297.55 1479.01 Q2299.38 1475.44 2299.38 1468.33 Q2299.38 1461.2 2297.55 1457.66 Q2295.75 1454.1 2292.11 1454.1 M2292.11 1450.39 Q2297.92 1450.39 2300.98 1455 Q2304.06 1459.58 2304.06 1468.33 Q2304.06 1477.06 2300.98 1481.67 Q2297.92 1486.25 2292.11 1486.25 Q2286.3 1486.25 2283.22 1481.67 Q2280.17 1477.06 2280.17 1468.33 Q2280.17 1459.58 2283.22 1455 Q2286.3 1450.39 2292.11 1450.39 Z" fill="#000000" fill-rule="nonzero" fill-opacity="1" /><path clip-path="url(#clip550)" d="M2322.27 1454.1 Q2318.66 1454.1 2316.83 1457.66 Q2315.03 1461.2 2315.03 1468.33 Q2315.03 1475.44 2316.83 1479.01 Q2318.66 1482.55 2322.27 1482.55 Q2325.91 1482.55 2327.71 1479.01 Q2329.54 1475.44 2329.54 1468.33 Q2329.54 1461.2 2327.71 1457.66 Q2325.91 1454.1 2322.27 1454.1 M2322.27 1450.39 Q2328.08 1450.39 2331.14 1455 Q2334.22 1459.58 2334.22 1468.33 Q2334.22 1477.06 2331.14 1481.67 Q2328.08 1486.25 2322.27 1486.25 Q2316.46 1486.25 2313.38 1481.67 Q2310.33 1477.06 2310.33 1468.33 Q2310.33 1459.58 2313.38 1455 Q2316.46 1450.39 2322.27 1450.39 Z" fill="#000000" fill-rule="nonzero" fill-opacity="1" /><path clip-path="url(#clip550)" d="M1246.38 1522.08 L1246.38 1528.35 Q1242.72 1526.6 1239.47 1525.74 Q1236.22 1524.88 1233.2 1524.88 Q1227.95 1524.88 1225.08 1526.92 Q1222.25 1528.96 1222.25 1532.71 Q1222.25 1535.87 1224.13 1537.49 Q1226.04 1539.08 1231.32 1540.07 L1235.21 1540.86 Q1242.4 1542.23 1245.8 1545.7 Q1249.24 1549.14 1249.24 1554.93 Q1249.24 1561.84 1244.6 1565.4 Q1239.98 1568.97 1231.04 1568.97 Q1227.66 1568.97 1223.84 1568.2 Q1220.06 1567.44 1215.98 1565.94 L1215.98 1559.32 Q1219.9 1561.52 1223.65 1562.63 Q1227.41 1563.75 1231.04 1563.75 Q1236.54 1563.75 1239.53 1561.58 Q1242.53 1559.42 1242.53 1555.41 Q1242.53 1551.91 1240.36 1549.93 Q1238.23 1547.96 1233.33 1546.97 L1229.41 1546.21 Q1222.22 1544.78 1219.01 1541.72 Q1215.79 1538.67 1215.79 1533.22 Q1215.79 1526.92 1220.21 1523.29 Q1224.67 1519.66 1232.47 1519.66 Q1235.81 1519.66 1239.28 1520.27 Q1242.75 1520.87 1246.38 1522.08 Z" fill="#000000" fill-rule="nonzero" fill-opacity="1" /><path clip-path="url(#clip550)" d="M1264.81 1522.27 L1264.81 1532.4 L1276.87 1532.4 L1276.87 1536.95 L1264.81 1536.95 L1264.81 1556.3 Q1264.81 1560.66 1265.98 1561.9 Q1267.19 1563.14 1270.85 1563.14 L1276.87 1563.14 L1276.87 1568.04 L1270.85 1568.04 Q1264.07 1568.04 1261.5 1565.53 Q1258.92 1562.98 1258.92 1556.3 L1258.92 1536.95 L1254.62 1536.95 L1254.62 1532.4 L1258.92 1532.4 L1258.92 1522.27 L1264.81 1522.27 Z" fill="#000000" fill-rule="nonzero" fill-opacity="1" /><path clip-path="url(#clip550)" d="M1315.06 1548.76 L1315.06 1551.62 L1288.14 1551.62 Q1288.52 1557.67 1291.77 1560.85 Q1295.04 1564 1300.87 1564 Q1304.24 1564 1307.39 1563.17 Q1310.58 1562.35 1313.7 1560.69 L1313.7 1566.23 Q1310.54 1567.57 1307.23 1568.27 Q1303.92 1568.97 1300.52 1568.97 Q1291.99 1568.97 1286.99 1564 Q1282.03 1559.04 1282.03 1550.57 Q1282.03 1541.82 1286.74 1536.69 Q1291.48 1531.54 1299.5 1531.54 Q1306.69 1531.54 1310.86 1536.18 Q1315.06 1540.8 1315.06 1548.76 M1309.21 1547.04 Q1309.14 1542.23 1306.5 1539.37 Q1303.89 1536.5 1299.56 1536.5 Q1294.66 1536.5 1291.7 1539.27 Q1288.77 1542.04 1288.33 1547.07 L1309.21 1547.04 Z" fill="#000000" fill-rule="nonzero" fill-opacity="1" /><path clip-path="url(#clip550)" d="M1330.34 1562.7 L1330.34 1581.6 L1324.45 1581.6 L1324.45 1532.4 L1330.34 1532.4 L1330.34 1537.81 Q1332.19 1534.62 1334.99 1533.1 Q1337.82 1531.54 1341.74 1531.54 Q1348.23 1531.54 1352.27 1536.69 Q1356.35 1541.85 1356.35 1550.25 Q1356.35 1558.65 1352.27 1563.81 Q1348.23 1568.97 1341.74 1568.97 Q1337.82 1568.97 1334.99 1567.44 Q1332.19 1565.88 1330.34 1562.7 M1350.27 1550.25 Q1350.27 1543.79 1347.59 1540.13 Q1344.95 1536.44 1340.3 1536.44 Q1335.66 1536.44 1332.98 1540.13 Q1330.34 1543.79 1330.34 1550.25 Q1330.34 1556.71 1332.98 1560.4 Q1335.66 1564.07 1340.3 1564.07 Q1344.95 1564.07 1347.59 1560.4 Q1350.27 1556.71 1350.27 1550.25 Z" fill="#000000" fill-rule="nonzero" fill-opacity="1" /><polyline clip-path="url(#clip550)" style="stroke:#000000; stroke-linecap:round; stroke-linejoin:round; stroke-width:4; stroke-opacity:1; fill:none" points="219.38,1423.18 219.38,123.472 "/>
<polyline clip-path="url(#clip550)" style="stroke:#000000; stroke-linecap:round; stroke-linejoin:round; stroke-width:4; stroke-opacity:1; fill:none" points="219.38,1248.84 238.278,1248.84 "/>
<polyline clip-path="url(#clip550)" style="stroke:#000000; stroke-linecap:round; stroke-linejoin:round; stroke-width:4; stroke-opacity:1; fill:none" points="219.38,1012.27 238.278,1012.27 "/>
<polyline clip-path="url(#clip550)" style="stroke:#000000; stroke-linecap:round; stroke-linejoin:round; stroke-width:4; stroke-opacity:1; fill:none" points="219.38,775.71 238.278,775.71 "/>
<polyline clip-path="url(#clip550)" style="stroke:#000000; stroke-linecap:round; stroke-linejoin:round; stroke-width:4; stroke-opacity:1; fill:none" points="219.38,539.145 238.278,539.145 "/>
<polyline clip-path="url(#clip550)" style="stroke:#000000; stroke-linecap:round; stroke-linejoin:round; stroke-width:4; stroke-opacity:1; fill:none" points="219.38,302.581 238.278,302.581 "/>
<path clip-path="url(#clip550)" d="M120.07 1262.18 L136.39 1262.18 L136.39 1266.12 L114.445 1266.12 L114.445 1262.18 Q117.107 1259.43 121.691 1254.8 Q126.297 1250.15 127.478 1248.8 Q129.723 1246.28 130.603 1244.54 Q131.505 1242.79 131.505 1241.1 Q131.505 1238.34 129.561 1236.61 Q127.64 1234.87 124.538 1234.87 Q122.339 1234.87 119.885 1235.63 Q117.455 1236.4 114.677 1237.95 L114.677 1233.23 Q117.501 1232.09 119.955 1231.51 Q122.408 1230.93 124.445 1230.93 Q129.816 1230.93 133.01 1233.62 Q136.204 1236.3 136.204 1240.79 Q136.204 1242.92 135.394 1244.85 Q134.607 1246.74 132.501 1249.34 Q131.922 1250.01 128.82 1253.23 Q125.718 1256.42 120.07 1262.18 Z" fill="#000000" fill-rule="nonzero" fill-opacity="1" /><path clip-path="url(#clip550)" d="M146.204 1260.24 L151.089 1260.24 L151.089 1266.12 L146.204 1266.12 L146.204 1260.24 Z" fill="#000000" fill-rule="nonzero" fill-opacity="1" /><path clip-path="url(#clip550)" d="M171.852 1246.98 Q168.704 1246.98 166.852 1249.13 Q165.024 1251.28 165.024 1255.03 Q165.024 1258.76 166.852 1260.93 Q168.704 1263.09 171.852 1263.09 Q175.001 1263.09 176.829 1260.93 Q178.681 1258.76 178.681 1255.03 Q178.681 1251.28 176.829 1249.13 Q175.001 1246.98 171.852 1246.98 M181.135 1232.32 L181.135 1236.58 Q179.376 1235.75 177.57 1235.31 Q175.788 1234.87 174.028 1234.87 Q169.399 1234.87 166.945 1237.99 Q164.515 1241.12 164.167 1247.44 Q165.533 1245.42 167.593 1244.36 Q169.653 1243.27 172.13 1243.27 Q177.339 1243.27 180.348 1246.44 Q183.38 1249.59 183.38 1255.03 Q183.38 1260.35 180.232 1263.57 Q177.084 1266.79 171.852 1266.79 Q165.857 1266.79 162.686 1262.21 Q159.515 1257.6 159.515 1248.87 Q159.515 1240.68 163.403 1235.82 Q167.292 1230.93 173.843 1230.93 Q175.602 1230.93 177.385 1231.28 Q179.19 1231.63 181.135 1232.32 Z" fill="#000000" fill-rule="nonzero" fill-opacity="1" /><path clip-path="url(#clip550)" d="M120.325 1025.62 L136.644 1025.62 L136.644 1029.55 L114.7 1029.55 L114.7 1025.62 Q117.362 1022.86 121.945 1018.23 Q126.552 1013.58 127.732 1012.24 Q129.978 1009.72 130.857 1007.98 Q131.76 1006.22 131.76 1004.53 Q131.76 1001.78 129.816 1000.04 Q127.894 998.305 124.793 998.305 Q122.593 998.305 120.14 999.068 Q117.709 999.832 114.931 1001.38 L114.931 996.661 Q117.756 995.527 120.209 994.948 Q122.663 994.369 124.7 994.369 Q130.07 994.369 133.265 997.055 Q136.459 999.74 136.459 1004.23 Q136.459 1006.36 135.649 1008.28 Q134.862 1010.18 132.755 1012.77 Q132.177 1013.44 129.075 1016.66 Q125.973 1019.86 120.325 1025.62 Z" fill="#000000" fill-rule="nonzero" fill-opacity="1" /><path clip-path="url(#clip550)" d="M146.459 1023.67 L151.343 1023.67 L151.343 1029.55 L146.459 1029.55 L146.459 1023.67 Z" fill="#000000" fill-rule="nonzero" fill-opacity="1" /><path clip-path="url(#clip550)" d="M171.528 1013.14 Q168.195 1013.14 166.274 1014.92 Q164.376 1016.71 164.376 1019.83 Q164.376 1022.96 166.274 1024.74 Q168.195 1026.52 171.528 1026.52 Q174.862 1026.52 176.783 1024.74 Q178.704 1022.93 178.704 1019.83 Q178.704 1016.71 176.783 1014.92 Q174.885 1013.14 171.528 1013.14 M166.852 1011.15 Q163.843 1010.41 162.153 1008.35 Q160.487 1006.29 160.487 1003.33 Q160.487 999.184 163.427 996.777 Q166.39 994.369 171.528 994.369 Q176.69 994.369 179.63 996.777 Q182.57 999.184 182.57 1003.33 Q182.57 1006.29 180.88 1008.35 Q179.214 1010.41 176.227 1011.15 Q179.607 1011.94 181.482 1014.23 Q183.38 1016.52 183.38 1019.83 Q183.38 1024.86 180.301 1027.54 Q177.246 1030.23 171.528 1030.23 Q165.811 1030.23 162.732 1027.54 Q159.677 1024.86 159.677 1019.83 Q159.677 1016.52 161.575 1014.23 Q163.473 1011.94 166.852 1011.15 M165.14 1003.77 Q165.14 1006.45 166.806 1007.96 Q168.496 1009.46 171.528 1009.46 Q174.538 1009.46 176.227 1007.96 Q177.94 1006.45 177.94 1003.77 Q177.94 1001.08 176.227 999.578 Q174.538 998.073 171.528 998.073 Q168.496 998.073 166.806 999.578 Q165.14 1001.08 165.14 1003.77 Z" fill="#000000" fill-rule="nonzero" fill-opacity="1" /><path clip-path="url(#clip550)" d="M130.371 774.356 Q133.728 775.073 135.603 777.342 Q137.501 779.61 137.501 782.944 Q137.501 788.059 133.982 790.86 Q130.464 793.661 123.982 793.661 Q121.806 793.661 119.492 793.221 Q117.2 792.805 114.746 791.948 L114.746 787.434 Q116.691 788.569 119.006 789.147 Q121.32 789.726 123.843 789.726 Q128.242 789.726 130.533 787.99 Q132.848 786.254 132.848 782.944 Q132.848 779.888 130.695 778.175 Q128.566 776.439 124.746 776.439 L120.718 776.439 L120.718 772.596 L124.931 772.596 Q128.38 772.596 130.209 771.231 Q132.038 769.842 132.038 767.249 Q132.038 764.587 130.14 763.175 Q128.265 761.74 124.746 761.74 Q122.825 761.74 120.626 762.157 Q118.427 762.573 115.788 763.453 L115.788 759.286 Q118.45 758.546 120.765 758.175 Q123.103 757.805 125.163 757.805 Q130.487 757.805 133.589 760.235 Q136.691 762.643 136.691 766.763 Q136.691 769.634 135.047 771.624 Q133.404 773.592 130.371 774.356 Z" fill="#000000" fill-rule="nonzero" fill-opacity="1" /><path clip-path="url(#clip550)" d="M146.366 787.11 L151.251 787.11 L151.251 792.99 L146.366 792.99 L146.366 787.11 Z" fill="#000000" fill-rule="nonzero" fill-opacity="1" /><path clip-path="url(#clip550)" d="M171.436 761.509 Q167.825 761.509 165.996 765.073 Q164.19 768.615 164.19 775.745 Q164.19 782.851 165.996 786.416 Q167.825 789.957 171.436 789.957 Q175.07 789.957 176.876 786.416 Q178.704 782.851 178.704 775.745 Q178.704 768.615 176.876 765.073 Q175.07 761.509 171.436 761.509 M171.436 757.805 Q177.246 757.805 180.301 762.411 Q183.38 766.995 183.38 775.745 Q183.38 784.471 180.301 789.078 Q177.246 793.661 171.436 793.661 Q165.626 793.661 162.547 789.078 Q159.491 784.471 159.491 775.745 Q159.491 766.995 162.547 762.411 Q165.626 757.805 171.436 757.805 Z" fill="#000000" fill-rule="nonzero" fill-opacity="1" /><path clip-path="url(#clip550)" d="M131.968 537.791 Q135.325 538.509 137.2 540.777 Q139.098 543.046 139.098 546.379 Q139.098 551.495 135.579 554.296 Q132.061 557.097 125.58 557.097 Q123.404 557.097 121.089 556.657 Q118.797 556.24 116.343 555.384 L116.343 550.87 Q118.288 552.004 120.603 552.583 Q122.918 553.162 125.441 553.162 Q129.839 553.162 132.13 551.425 Q134.445 549.689 134.445 546.379 Q134.445 543.324 132.292 541.611 Q130.163 539.875 126.343 539.875 L122.316 539.875 L122.316 536.032 L126.529 536.032 Q129.978 536.032 131.806 534.666 Q133.635 533.277 133.635 530.685 Q133.635 528.023 131.737 526.611 Q129.862 525.176 126.343 525.176 Q124.422 525.176 122.223 525.592 Q120.024 526.009 117.385 526.889 L117.385 522.722 Q120.047 521.981 122.362 521.611 Q124.7 521.24 126.76 521.24 Q132.084 521.24 135.186 523.671 Q138.288 526.078 138.288 530.199 Q138.288 533.069 136.644 535.06 Q135.001 537.027 131.968 537.791 Z" fill="#000000" fill-rule="nonzero" fill-opacity="1" /><path clip-path="url(#clip550)" d="M147.964 550.546 L152.848 550.546 L152.848 556.425 L147.964 556.425 L147.964 550.546 Z" fill="#000000" fill-rule="nonzero" fill-opacity="1" /><path clip-path="url(#clip550)" d="M167.061 552.49 L183.38 552.49 L183.38 556.425 L161.436 556.425 L161.436 552.49 Q164.098 549.736 168.681 545.106 Q173.288 540.453 174.468 539.111 Q176.714 536.588 177.593 534.851 Q178.496 533.092 178.496 531.402 Q178.496 528.648 176.551 526.912 Q174.63 525.176 171.528 525.176 Q169.329 525.176 166.876 525.939 Q164.445 526.703 161.667 528.254 L161.667 523.532 Q164.491 522.398 166.945 521.819 Q169.399 521.24 171.436 521.24 Q176.806 521.24 180.001 523.926 Q183.195 526.611 183.195 531.101 Q183.195 533.231 182.385 535.152 Q181.598 537.051 179.491 539.643 Q178.913 540.314 175.811 543.532 Q172.709 546.726 167.061 552.49 Z" fill="#000000" fill-rule="nonzero" fill-opacity="1" /><path clip-path="url(#clip550)" d="M129.885 301.227 Q133.242 301.944 135.117 304.213 Q137.015 306.481 137.015 309.815 Q137.015 314.93 133.496 317.731 Q129.978 320.532 123.496 320.532 Q121.32 320.532 119.006 320.092 Q116.714 319.676 114.26 318.819 L114.26 314.305 Q116.205 315.44 118.519 316.018 Q120.834 316.597 123.357 316.597 Q127.755 316.597 130.047 314.861 Q132.362 313.125 132.362 309.815 Q132.362 306.759 130.209 305.046 Q128.08 303.31 124.26 303.31 L120.232 303.31 L120.232 299.468 L124.445 299.468 Q127.894 299.468 129.723 298.102 Q131.552 296.713 131.552 294.12 Q131.552 291.458 129.654 290.046 Q127.779 288.611 124.26 288.611 Q122.339 288.611 120.14 289.028 Q117.941 289.444 115.302 290.324 L115.302 286.157 Q117.964 285.417 120.279 285.046 Q122.617 284.676 124.677 284.676 Q130.001 284.676 133.103 287.106 Q136.204 289.514 136.204 293.634 Q136.204 296.505 134.561 298.495 Q132.917 300.463 129.885 301.227 Z" fill="#000000" fill-rule="nonzero" fill-opacity="1" /><path clip-path="url(#clip550)" d="M145.88 313.981 L150.765 313.981 L150.765 319.861 L145.88 319.861 L145.88 313.981 Z" fill="#000000" fill-rule="nonzero" fill-opacity="1" /><path clip-path="url(#clip550)" d="M173.797 289.375 L161.991 307.824 L173.797 307.824 L173.797 289.375 M172.57 285.301 L178.45 285.301 L178.45 307.824 L183.38 307.824 L183.38 311.713 L178.45 311.713 L178.45 319.861 L173.797 319.861 L173.797 311.713 L158.195 311.713 L158.195 307.199 L172.57 285.301 Z" fill="#000000" fill-rule="nonzero" fill-opacity="1" /><path clip-path="url(#clip550)" d="M16.4842 1069.19 L16.4842 1059.61 L48.8219 1047.48 L16.4842 1035.29 L16.4842 1025.71 L64.0042 1025.71 L64.0042 1031.98 L22.277 1031.98 L54.8694 1044.23 L54.8694 1050.7 L22.277 1062.95 L64.0042 1062.95 L64.0042 1069.19 L16.4842 1069.19 Z" fill="#000000" fill-rule="nonzero" fill-opacity="1" /><path clip-path="url(#clip550)" d="M44.7161 982.71 L47.5806 982.71 L47.5806 1009.64 Q53.6281 1009.25 56.8109 1006.01 Q59.9619 1002.73 59.9619 996.906 Q59.9619 993.532 59.1344 990.381 Q58.3069 987.198 56.6518 984.079 L62.1899 984.079 Q63.5267 987.23 64.227 990.54 Q64.9272 993.85 64.9272 997.256 Q64.9272 1005.79 59.9619 1010.78 Q54.9967 1015.75 46.5303 1015.75 Q37.7774 1015.75 32.6531 1011.04 Q27.4968 1006.29 27.4968 998.274 Q27.4968 991.081 32.1438 986.911 Q36.7589 982.71 44.7161 982.71 M42.9973 988.566 Q38.1912 988.63 35.3266 991.272 Q32.4621 993.882 32.4621 998.21 Q32.4621 1003.11 35.2312 1006.07 Q38.0002 1009 43.0292 1009.45 L42.9973 988.566 Z" fill="#000000" fill-rule="nonzero" fill-opacity="1" /><path clip-path="url(#clip550)" d="M46.0847 956.897 Q46.0847 963.995 47.7079 966.732 Q49.3312 969.469 53.2461 969.469 Q56.3653 969.469 58.2114 967.432 Q60.0256 965.363 60.0256 961.83 Q60.0256 956.961 56.5881 954.032 Q53.1188 951.072 47.3897 951.072 L46.0847 951.072 L46.0847 956.897 M43.6657 945.216 L64.0042 945.216 L64.0042 951.072 L58.5933 951.072 Q61.8398 953.078 63.3994 956.07 Q64.9272 959.061 64.9272 963.39 Q64.9272 968.865 61.8716 972.111 Q58.7843 975.326 53.6281 975.326 Q47.6125 975.326 44.5569 971.315 Q41.5014 967.273 41.5014 959.284 L41.5014 951.072 L40.9285 951.072 Q36.8862 951.072 34.6901 953.746 Q32.4621 956.388 32.4621 961.194 Q32.4621 964.249 33.1941 967.146 Q33.9262 970.042 35.3903 972.716 L29.9795 972.716 Q28.7381 969.501 28.1334 966.477 Q27.4968 963.454 27.4968 960.589 Q27.4968 952.855 31.5072 949.035 Q35.5176 945.216 43.6657 945.216 Z" fill="#000000" fill-rule="nonzero" fill-opacity="1" /><path clip-path="url(#clip550)" d="M42.4881 903.521 L64.0042 903.521 L64.0042 909.377 L42.679 909.377 Q37.6183 909.377 35.1038 911.35 Q32.5894 913.324 32.5894 917.271 Q32.5894 922.013 35.6131 924.75 Q38.6368 927.487 43.8567 927.487 L64.0042 927.487 L64.0042 933.376 L28.3562 933.376 L28.3562 927.487 L33.8944 927.487 Q30.6797 925.387 29.0883 922.554 Q27.4968 919.689 27.4968 915.966 Q27.4968 909.823 31.3163 906.672 Q35.1038 903.521 42.4881 903.521 Z" fill="#000000" fill-rule="nonzero" fill-opacity="1" /><path clip-path="url(#clip550)" d="M16.4842 870.865 L16.4842 862.207 L56.238 841.137 L16.4842 841.137 L16.4842 834.898 L64.0042 834.898 L64.0042 843.556 L24.2503 864.626 L64.0042 864.626 L64.0042 870.865 L16.4842 870.865 Z" fill="#000000" fill-rule="nonzero" fill-opacity="1" /><path clip-path="url(#clip550)" d="M16.4842 822.103 L16.4842 813.446 L56.238 792.375 L16.4842 792.375 L16.4842 786.137 L64.0042 786.137 L64.0042 794.794 L24.2503 815.865 L64.0042 815.865 L64.0042 822.103 L16.4842 822.103 Z" fill="#000000" fill-rule="nonzero" fill-opacity="1" /><path clip-path="url(#clip550)" d="M21.7677 746.192 L58.7206 746.192 L58.7206 738.426 Q58.7206 728.591 54.2646 724.04 Q49.8086 719.456 40.1964 719.456 Q30.6479 719.456 26.2237 724.04 Q21.7677 728.591 21.7677 738.426 L21.7677 746.192 M16.4842 752.622 L16.4842 739.413 Q16.4842 725.599 22.2451 719.138 Q27.9743 712.677 40.1964 712.677 Q52.4822 712.677 58.2432 719.17 Q64.0042 725.663 64.0042 739.413 L64.0042 752.622 L16.4842 752.622 Z" fill="#000000" fill-rule="nonzero" fill-opacity="1" /><path clip-path="url(#clip550)" d="M28.3562 702.683 L28.3562 696.826 L64.0042 696.826 L64.0042 702.683 L28.3562 702.683 M14.479 702.683 L14.479 696.826 L21.895 696.826 L21.895 702.683 L14.479 702.683 Z" fill="#000000" fill-rule="nonzero" fill-opacity="1" /><path clip-path="url(#clip550)" d="M29.4065 661.847 L34.9447 661.847 Q33.6716 664.329 33.035 667.003 Q32.3984 669.676 32.3984 672.541 Q32.3984 676.901 33.7352 679.098 Q35.072 681.262 37.7456 681.262 Q39.7826 681.262 40.9603 679.702 Q42.1061 678.143 43.1565 673.432 L43.6021 671.427 Q44.9389 665.189 47.3897 662.579 Q49.8086 659.937 54.1691 659.937 Q59.1344 659.937 62.0308 663.884 Q64.9272 667.798 64.9272 674.673 Q64.9272 677.538 64.3543 680.657 Q63.8132 683.745 62.6992 687.182 L56.6518 687.182 Q58.3387 683.936 59.198 680.785 Q60.0256 677.633 60.0256 674.546 Q60.0256 670.408 58.6251 668.18 Q57.1929 665.952 54.6147 665.952 Q52.2276 665.952 50.9545 667.576 Q49.6813 669.167 48.5037 674.61 L48.0262 676.647 Q46.8804 682.089 44.5251 684.508 Q42.138 686.927 38.0002 686.927 Q32.9713 686.927 30.2341 683.363 Q27.4968 679.798 27.4968 673.241 Q27.4968 669.995 27.9743 667.13 Q28.4517 664.266 29.4065 661.847 Z" fill="#000000" fill-rule="nonzero" fill-opacity="1" /><path clip-path="url(#clip550)" d="M18.2347 644.818 L28.3562 644.818 L28.3562 632.755 L32.9077 632.755 L32.9077 644.818 L52.2594 644.818 Q56.6199 644.818 57.8613 643.641 Q59.1026 642.431 59.1026 638.771 L59.1026 632.755 L64.0042 632.755 L64.0042 638.771 Q64.0042 645.55 61.4897 648.128 Q58.9434 650.707 52.2594 650.707 L32.9077 650.707 L32.9077 655.003 L28.3562 655.003 L28.3562 650.707 L18.2347 650.707 L18.2347 644.818 Z" fill="#000000" fill-rule="nonzero" fill-opacity="1" /><path clip-path="url(#clip550)" d="M46.0847 608.852 Q46.0847 615.95 47.7079 618.687 Q49.3312 621.424 53.2461 621.424 Q56.3653 621.424 58.2114 619.387 Q60.0256 617.318 60.0256 613.785 Q60.0256 608.916 56.5881 605.987 Q53.1188 603.027 47.3897 603.027 L46.0847 603.027 L46.0847 608.852 M43.6657 597.171 L64.0042 597.171 L64.0042 603.027 L58.5933 603.027 Q61.8398 605.033 63.3994 608.024 Q64.9272 611.016 64.9272 615.345 Q64.9272 620.82 61.8716 624.066 Q58.7843 627.281 53.6281 627.281 Q47.6125 627.281 44.5569 623.27 Q41.5014 619.228 41.5014 611.239 L41.5014 603.027 L40.9285 603.027 Q36.8862 603.027 34.6901 605.701 Q32.4621 608.343 32.4621 613.149 Q32.4621 616.204 33.1941 619.101 Q33.9262 621.997 35.3903 624.671 L29.9795 624.671 Q28.7381 621.456 28.1334 618.432 Q27.4968 615.409 27.4968 612.544 Q27.4968 604.81 31.5072 600.99 Q35.5176 597.171 43.6657 597.171 Z" fill="#000000" fill-rule="nonzero" fill-opacity="1" /><path clip-path="url(#clip550)" d="M42.4881 555.476 L64.0042 555.476 L64.0042 561.332 L42.679 561.332 Q37.6183 561.332 35.1038 563.305 Q32.5894 565.279 32.5894 569.226 Q32.5894 573.968 35.6131 576.705 Q38.6368 579.442 43.8567 579.442 L64.0042 579.442 L64.0042 585.331 L28.3562 585.331 L28.3562 579.442 L33.8944 579.442 Q30.6797 577.342 29.0883 574.509 Q27.4968 571.644 27.4968 567.921 Q27.4968 561.778 31.3163 558.627 Q35.1038 555.476 42.4881 555.476 Z" fill="#000000" fill-rule="nonzero" fill-opacity="1" /><path clip-path="url(#clip550)" d="M29.7248 518.141 L35.1993 518.141 Q33.8307 520.623 33.1623 523.138 Q32.4621 525.62 32.4621 528.167 Q32.4621 533.864 36.0905 537.015 Q39.6872 540.166 46.212 540.166 Q52.7369 540.166 56.3653 537.015 Q59.9619 533.864 59.9619 528.167 Q59.9619 525.62 59.2935 523.138 Q58.5933 520.623 57.2247 518.141 L62.6355 518.141 Q63.7814 520.592 64.3543 523.233 Q64.9272 525.843 64.9272 528.803 Q64.9272 536.856 59.8664 541.598 Q54.8057 546.341 46.212 546.341 Q37.491 546.341 32.4939 541.567 Q27.4968 536.76 27.4968 528.421 Q27.4968 525.716 28.0697 523.138 Q28.6108 520.56 29.7248 518.141 Z" fill="#000000" fill-rule="nonzero" fill-opacity="1" /><path clip-path="url(#clip550)" d="M44.7161 477.464 L47.5806 477.464 L47.5806 504.391 Q53.6281 504.009 56.8109 500.762 Q59.9619 497.484 59.9619 491.659 Q59.9619 488.286 59.1344 485.135 Q58.3069 481.952 56.6518 478.832 L62.1899 478.832 Q63.5267 481.984 64.227 485.294 Q64.9272 488.604 64.9272 492.009 Q64.9272 500.54 59.9619 505.537 Q54.9967 510.502 46.5303 510.502 Q37.7774 510.502 32.6531 505.791 Q27.4968 501.049 27.4968 493.028 Q27.4968 485.835 32.1438 481.665 Q36.7589 477.464 44.7161 477.464 M42.9973 483.32 Q38.1912 483.384 35.3266 486.026 Q32.4621 488.636 32.4621 492.964 Q32.4621 497.866 35.2312 500.826 Q38.0002 503.754 43.0292 504.2 L42.9973 483.32 Z" fill="#000000" fill-rule="nonzero" fill-opacity="1" /><path clip-path="url(#clip550)" d="M649.286 12.096 L661.479 12.096 L676.913 53.2532 L692.428 12.096 L704.621 12.096 L704.621 72.576 L696.641 72.576 L696.641 19.4686 L681.045 60.9499 L672.822 60.9499 L657.226 19.4686 L657.226 72.576 L649.286 72.576 L649.286 12.096 Z" fill="#000000" fill-rule="nonzero" fill-opacity="1" /><path clip-path="url(#clip550)" d="M759.349 48.0275 L759.349 51.6733 L725.079 51.6733 Q725.565 59.3701 729.697 63.421 Q733.869 67.4314 741.282 67.4314 Q745.576 67.4314 749.587 66.3781 Q753.637 65.3249 757.607 63.2184 L757.607 70.267 Q753.597 71.9684 749.384 72.8596 Q745.171 73.7508 740.837 73.7508 Q729.98 73.7508 723.62 67.4314 Q717.301 61.1119 717.301 50.3365 Q717.301 39.1965 723.296 32.6746 Q729.332 26.1121 739.54 26.1121 Q748.695 26.1121 754.002 32.0264 Q759.349 37.9003 759.349 48.0275 M751.896 45.84 Q751.815 39.7232 748.452 36.0774 Q745.131 32.4315 739.621 32.4315 Q733.383 32.4315 729.616 35.9558 Q725.889 39.4801 725.322 45.8805 L751.896 45.84 Z" fill="#000000" fill-rule="nonzero" fill-opacity="1" /><path clip-path="url(#clip550)" d="M792.202 49.7694 Q783.169 49.7694 779.685 51.8354 Q776.201 53.9013 776.201 58.8839 Q776.201 62.8538 778.794 65.2034 Q781.427 67.5124 785.923 67.5124 Q792.121 67.5124 795.848 63.1374 Q799.615 58.7219 799.615 51.4303 L799.615 49.7694 L792.202 49.7694 M807.069 46.6907 L807.069 72.576 L799.615 72.576 L799.615 65.6895 Q797.063 69.8214 793.255 71.8063 Q789.447 73.7508 783.938 73.7508 Q776.971 73.7508 772.839 69.8619 Q768.747 65.9325 768.747 59.3701 Q768.747 51.7138 773.851 47.825 Q778.996 43.9361 789.164 43.9361 L799.615 43.9361 L799.615 43.2069 Q799.615 38.0623 796.212 35.2672 Q792.85 32.4315 786.733 32.4315 Q782.844 32.4315 779.158 33.3632 Q775.472 34.295 772.069 36.1584 L772.069 29.2718 Q776.16 27.692 780.009 26.9223 Q783.857 26.1121 787.503 26.1121 Q797.347 26.1121 802.208 31.2163 Q807.069 36.3204 807.069 46.6907 Z" fill="#000000" fill-rule="nonzero" fill-opacity="1" /><path clip-path="url(#clip550)" d="M860.136 45.1919 L860.136 72.576 L852.682 72.576 L852.682 45.4349 Q852.682 38.994 850.17 35.7938 Q847.659 32.5936 842.636 32.5936 Q836.6 32.5936 833.116 36.4419 Q829.632 40.2903 829.632 46.9338 L829.632 72.576 L822.138 72.576 L822.138 27.2059 L829.632 27.2059 L829.632 34.2544 Q832.306 30.163 835.911 28.1376 Q839.557 26.1121 844.297 26.1121 Q852.115 26.1121 856.125 30.9732 Q860.136 35.7938 860.136 45.1919 Z" fill="#000000" fill-rule="nonzero" fill-opacity="1" /><path clip-path="url(#clip550)" d="M901.698 12.096 L912.716 12.096 L939.533 62.6918 L939.533 12.096 L947.473 12.096 L947.473 72.576 L936.455 72.576 L909.638 21.9802 L909.638 72.576 L901.698 72.576 L901.698 12.096 Z" fill="#000000" fill-rule="nonzero" fill-opacity="1" /><path clip-path="url(#clip550)" d="M963.758 12.096 L974.776 12.096 L1001.59 62.6918 L1001.59 12.096 L1009.53 12.096 L1009.53 72.576 L998.515 72.576 L971.698 21.9802 L971.698 72.576 L963.758 72.576 L963.758 12.096 Z" fill="#000000" fill-rule="nonzero" fill-opacity="1" /><path clip-path="url(#clip550)" d="M1060.37 18.8205 L1060.37 65.8515 L1070.26 65.8515 Q1082.77 65.8515 1088.57 60.1802 Q1094.4 54.509 1094.4 42.2752 Q1094.4 30.1225 1088.57 24.4918 Q1082.77 18.8205 1070.26 18.8205 L1060.37 18.8205 M1052.19 12.096 L1069 12.096 Q1086.58 12.096 1094.8 19.4281 Q1103.03 26.7198 1103.03 42.2752 Q1103.03 57.9117 1094.76 65.2439 Q1086.5 72.576 1069 72.576 L1052.19 72.576 L1052.19 12.096 Z" fill="#000000" fill-rule="nonzero" fill-opacity="1" /><path clip-path="url(#clip550)" d="M1115.75 27.2059 L1123.2 27.2059 L1123.2 72.576 L1115.75 72.576 L1115.75 27.2059 M1115.75 9.54393 L1123.2 9.54393 L1123.2 18.9825 L1115.75 18.9825 L1115.75 9.54393 Z" fill="#000000" fill-rule="nonzero" fill-opacity="1" /><path clip-path="url(#clip550)" d="M1167.72 28.5427 L1167.72 35.5912 Q1164.56 33.9709 1161.16 33.1607 Q1157.76 32.3505 1154.11 32.3505 Q1148.56 32.3505 1145.76 34.0519 Q1143.01 35.7533 1143.01 39.156 Q1143.01 41.7486 1145 43.2475 Q1146.98 44.7058 1152.98 46.0426 L1155.53 46.6097 Q1163.47 48.3111 1166.79 51.4303 Q1170.15 54.509 1170.15 60.0587 Q1170.15 66.3781 1165.13 70.0644 Q1160.15 73.7508 1151.4 73.7508 Q1147.75 73.7508 1143.78 73.0216 Q1139.85 72.3329 1135.48 70.9151 L1135.48 63.2184 Q1139.61 65.3654 1143.62 66.4591 Q1147.63 67.5124 1151.56 67.5124 Q1156.82 67.5124 1159.66 65.73 Q1162.5 63.9071 1162.5 60.6258 Q1162.5 57.5877 1160.43 55.9673 Q1158.4 54.3469 1151.48 52.8481 L1148.88 52.2405 Q1141.96 50.7821 1138.88 47.7845 Q1135.8 44.7463 1135.8 39.4801 Q1135.8 33.0797 1140.34 29.5959 Q1144.87 26.1121 1153.22 26.1121 Q1157.35 26.1121 1161 26.7198 Q1164.64 27.3274 1167.72 28.5427 Z" fill="#000000" fill-rule="nonzero" fill-opacity="1" /><path clip-path="url(#clip550)" d="M1189.39 14.324 L1189.39 27.2059 L1204.75 27.2059 L1204.75 32.9987 L1189.39 32.9987 L1189.39 57.6282 Q1189.39 63.1779 1190.89 64.7578 Q1192.43 66.3376 1197.09 66.3376 L1204.75 66.3376 L1204.75 72.576 L1197.09 72.576 Q1188.46 72.576 1185.18 69.3758 Q1181.9 66.1351 1181.9 57.6282 L1181.9 32.9987 L1176.43 32.9987 L1176.43 27.2059 L1181.9 27.2059 L1181.9 14.324 L1189.39 14.324 Z" fill="#000000" fill-rule="nonzero" fill-opacity="1" /><path clip-path="url(#clip550)" d="M1235.17 49.7694 Q1226.13 49.7694 1222.65 51.8354 Q1219.17 53.9013 1219.17 58.8839 Q1219.17 62.8538 1221.76 65.2034 Q1224.39 67.5124 1228.89 67.5124 Q1235.09 67.5124 1238.81 63.1374 Q1242.58 58.7219 1242.58 51.4303 L1242.58 49.7694 L1235.17 49.7694 M1250.04 46.6907 L1250.04 72.576 L1242.58 72.576 L1242.58 65.6895 Q1240.03 69.8214 1236.22 71.8063 Q1232.41 73.7508 1226.9 73.7508 Q1219.94 73.7508 1215.81 69.8619 Q1211.71 65.9325 1211.71 59.3701 Q1211.71 51.7138 1216.82 47.825 Q1221.96 43.9361 1232.13 43.9361 L1242.58 43.9361 L1242.58 43.2069 Q1242.58 38.0623 1239.18 35.2672 Q1235.82 32.4315 1229.7 32.4315 Q1225.81 32.4315 1222.12 33.3632 Q1218.44 34.295 1215.04 36.1584 L1215.04 29.2718 Q1219.13 27.692 1222.98 26.9223 Q1226.82 26.1121 1230.47 26.1121 Q1240.31 26.1121 1245.17 31.2163 Q1250.04 36.3204 1250.04 46.6907 Z" fill="#000000" fill-rule="nonzero" fill-opacity="1" /><path clip-path="url(#clip550)" d="M1303.1 45.1919 L1303.1 72.576 L1295.65 72.576 L1295.65 45.4349 Q1295.65 38.994 1293.14 35.7938 Q1290.63 32.5936 1285.6 32.5936 Q1279.57 32.5936 1276.08 36.4419 Q1272.6 40.2903 1272.6 46.9338 L1272.6 72.576 L1265.1 72.576 L1265.1 27.2059 L1272.6 27.2059 L1272.6 34.2544 Q1275.27 30.163 1278.88 28.1376 Q1282.52 26.1121 1287.26 26.1121 Q1295.08 26.1121 1299.09 30.9732 Q1303.1 35.7938 1303.1 45.1919 Z" fill="#000000" fill-rule="nonzero" fill-opacity="1" /><path clip-path="url(#clip550)" d="M1350.62 28.9478 L1350.62 35.9153 Q1347.46 34.1734 1344.26 33.3227 Q1341.1 32.4315 1337.86 32.4315 Q1330.61 32.4315 1326.6 37.0496 Q1322.59 41.6271 1322.59 49.9314 Q1322.59 58.2358 1326.6 62.8538 Q1330.61 67.4314 1337.86 67.4314 Q1341.1 67.4314 1344.26 66.5807 Q1347.46 65.6895 1350.62 63.9476 L1350.62 70.8341 Q1347.5 72.2924 1344.14 73.0216 Q1340.82 73.7508 1337.05 73.7508 Q1326.8 73.7508 1320.76 67.3098 Q1314.73 60.8689 1314.73 49.9314 Q1314.73 38.832 1320.8 32.472 Q1326.92 26.1121 1337.53 26.1121 Q1340.98 26.1121 1344.26 26.8413 Q1347.54 27.5299 1350.62 28.9478 Z" fill="#000000" fill-rule="nonzero" fill-opacity="1" /><path clip-path="url(#clip550)" d="M1402.39 48.0275 L1402.39 51.6733 L1368.12 51.6733 Q1368.61 59.3701 1372.74 63.421 Q1376.91 67.4314 1384.32 67.4314 Q1388.62 67.4314 1392.63 66.3781 Q1396.68 65.3249 1400.65 63.2184 L1400.65 70.267 Q1396.64 71.9684 1392.42 72.8596 Q1388.21 73.7508 1383.88 73.7508 Q1373.02 73.7508 1366.66 67.4314 Q1360.34 61.1119 1360.34 50.3365 Q1360.34 39.1965 1366.34 32.6746 Q1372.37 26.1121 1382.58 26.1121 Q1391.74 26.1121 1397.04 32.0264 Q1402.39 37.9003 1402.39 48.0275 M1394.94 45.84 Q1394.86 39.7232 1391.49 36.0774 Q1388.17 32.4315 1382.66 32.4315 Q1376.42 32.4315 1372.66 35.9558 Q1368.93 39.4801 1368.36 45.8805 L1394.94 45.84 Z" fill="#000000" fill-rule="nonzero" fill-opacity="1" /><path clip-path="url(#clip550)" d="M1486.61 16.7545 L1486.61 25.383 Q1482.48 21.5346 1477.78 19.6307 Q1473.12 17.7268 1467.85 17.7268 Q1457.48 17.7268 1451.97 24.0867 Q1446.46 30.4061 1446.46 42.3968 Q1446.46 54.3469 1451.97 60.7069 Q1457.48 67.0263 1467.85 67.0263 Q1473.12 67.0263 1477.78 65.1223 Q1482.48 63.2184 1486.61 59.3701 L1486.61 67.9175 Q1482.31 70.8341 1477.49 72.2924 Q1472.71 73.7508 1467.37 73.7508 Q1453.63 73.7508 1445.73 65.3654 Q1437.84 56.9395 1437.84 42.3968 Q1437.84 27.8135 1445.73 19.4281 Q1453.63 11.0023 1467.37 11.0023 Q1472.79 11.0023 1477.57 12.4606 Q1482.4 13.8784 1486.61 16.7545 Z" fill="#000000" fill-rule="nonzero" fill-opacity="1" /><path clip-path="url(#clip550)" d="M1516.5 32.4315 Q1510.51 32.4315 1507.02 37.1306 Q1503.54 41.7891 1503.54 49.9314 Q1503.54 58.0738 1506.98 62.7728 Q1510.47 67.4314 1516.5 67.4314 Q1522.46 67.4314 1525.94 62.7323 Q1529.43 58.0333 1529.43 49.9314 Q1529.43 41.8701 1525.94 37.1711 Q1522.46 32.4315 1516.5 32.4315 M1516.5 26.1121 Q1526.23 26.1121 1531.78 32.4315 Q1537.33 38.7509 1537.33 49.9314 Q1537.33 61.0714 1531.78 67.4314 Q1526.23 73.7508 1516.5 73.7508 Q1506.74 73.7508 1501.19 67.4314 Q1495.68 61.0714 1495.68 49.9314 Q1495.68 38.7509 1501.19 32.4315 Q1506.74 26.1121 1516.5 26.1121 Z" fill="#000000" fill-rule="nonzero" fill-opacity="1" /><path clip-path="url(#clip550)" d="M1585 35.9153 Q1587.8 30.8922 1591.69 28.5022 Q1595.58 26.1121 1600.84 26.1121 Q1607.93 26.1121 1611.78 31.0947 Q1615.63 36.0368 1615.63 45.1919 L1615.63 72.576 L1608.14 72.576 L1608.14 45.4349 Q1608.14 38.913 1605.83 35.7533 Q1603.52 32.5936 1598.78 32.5936 Q1592.98 32.5936 1589.62 36.4419 Q1586.26 40.2903 1586.26 46.9338 L1586.26 72.576 L1578.77 72.576 L1578.77 45.4349 Q1578.77 38.8725 1576.46 35.7533 Q1574.15 32.5936 1569.33 32.5936 Q1563.62 32.5936 1560.25 36.4824 Q1556.89 40.3308 1556.89 46.9338 L1556.89 72.576 L1549.4 72.576 L1549.4 27.2059 L1556.89 27.2059 L1556.89 34.2544 Q1559.44 30.082 1563.01 28.0971 Q1566.57 26.1121 1571.47 26.1121 Q1576.42 26.1121 1579.86 28.6237 Q1583.34 31.1352 1585 35.9153 Z" fill="#000000" fill-rule="nonzero" fill-opacity="1" /><path clip-path="url(#clip550)" d="M1637.71 65.7705 L1637.71 89.8329 L1630.21 89.8329 L1630.21 27.2059 L1637.71 27.2059 L1637.71 34.0924 Q1640.06 30.0415 1643.62 28.0971 Q1647.23 26.1121 1652.21 26.1121 Q1660.47 26.1121 1665.62 32.6746 Q1670.8 39.2371 1670.8 49.9314 Q1670.8 60.6258 1665.62 67.1883 Q1660.47 73.7508 1652.21 73.7508 Q1647.23 73.7508 1643.62 71.8063 Q1640.06 69.8214 1637.71 65.7705 M1663.07 49.9314 Q1663.07 41.7081 1659.66 37.0496 Q1656.3 32.3505 1650.39 32.3505 Q1644.47 32.3505 1641.07 37.0496 Q1637.71 41.7081 1637.71 49.9314 Q1637.71 58.1548 1641.07 62.8538 Q1644.47 67.5124 1650.39 67.5124 Q1656.3 67.5124 1659.66 62.8538 Q1663.07 58.1548 1663.07 49.9314 Z" fill="#000000" fill-rule="nonzero" fill-opacity="1" /><path clip-path="url(#clip550)" d="M1703.78 49.7694 Q1694.74 49.7694 1691.26 51.8354 Q1687.78 53.9013 1687.78 58.8839 Q1687.78 62.8538 1690.37 65.2034 Q1693 67.5124 1697.5 67.5124 Q1703.7 67.5124 1707.42 63.1374 Q1711.19 58.7219 1711.19 51.4303 L1711.19 49.7694 L1703.78 49.7694 M1718.64 46.6907 L1718.64 72.576 L1711.19 72.576 L1711.19 65.6895 Q1708.64 69.8214 1704.83 71.8063 Q1701.02 73.7508 1695.51 73.7508 Q1688.55 73.7508 1684.41 69.8619 Q1680.32 65.9325 1680.32 59.3701 Q1680.32 51.7138 1685.43 47.825 Q1690.57 43.9361 1700.74 43.9361 L1711.19 43.9361 L1711.19 43.2069 Q1711.19 38.0623 1707.79 35.2672 Q1704.43 32.4315 1698.31 32.4315 Q1694.42 32.4315 1690.73 33.3632 Q1687.05 34.295 1683.64 36.1584 L1683.64 29.2718 Q1687.74 27.692 1691.58 26.9223 Q1695.43 26.1121 1699.08 26.1121 Q1708.92 26.1121 1713.78 31.2163 Q1718.64 36.3204 1718.64 46.6907 Z" fill="#000000" fill-rule="nonzero" fill-opacity="1" /><path clip-path="url(#clip550)" d="M1760.29 34.1734 Q1759.03 33.4443 1757.53 33.1202 Q1756.07 32.7556 1754.29 32.7556 Q1747.97 32.7556 1744.57 36.8875 Q1741.21 40.9789 1741.21 48.6757 L1741.21 72.576 L1733.71 72.576 L1733.71 27.2059 L1741.21 27.2059 L1741.21 34.2544 Q1743.56 30.1225 1747.32 28.1376 Q1751.09 26.1121 1756.48 26.1121 Q1757.25 26.1121 1758.18 26.2337 Q1759.11 26.3147 1760.25 26.5172 L1760.29 34.1734 Z" fill="#000000" fill-rule="nonzero" fill-opacity="1" /><path clip-path="url(#clip550)" d="M1768.11 27.2059 L1775.56 27.2059 L1775.56 72.576 L1768.11 72.576 L1768.11 27.2059 M1768.11 9.54393 L1775.56 9.54393 L1775.56 18.9825 L1768.11 18.9825 L1768.11 9.54393 Z" fill="#000000" fill-rule="nonzero" fill-opacity="1" /><path clip-path="url(#clip550)" d="M1820.08 28.5427 L1820.08 35.5912 Q1816.92 33.9709 1813.52 33.1607 Q1810.11 32.3505 1806.47 32.3505 Q1800.92 32.3505 1798.12 34.0519 Q1795.37 35.7533 1795.37 39.156 Q1795.37 41.7486 1797.35 43.2475 Q1799.34 44.7058 1805.33 46.0426 L1807.89 46.6097 Q1815.83 48.3111 1819.15 51.4303 Q1822.51 54.509 1822.51 60.0587 Q1822.51 66.3781 1817.49 70.0644 Q1812.5 73.7508 1803.75 73.7508 Q1800.11 73.7508 1796.14 73.0216 Q1792.21 72.3329 1787.83 70.9151 L1787.83 63.2184 Q1791.97 65.3654 1795.98 66.4591 Q1799.99 67.5124 1803.92 67.5124 Q1809.18 67.5124 1812.02 65.73 Q1814.85 63.9071 1814.85 60.6258 Q1814.85 57.5877 1812.79 55.9673 Q1810.76 54.3469 1803.83 52.8481 L1801.24 52.2405 Q1794.31 50.7821 1791.24 47.7845 Q1788.16 44.7463 1788.16 39.4801 Q1788.16 33.0797 1792.69 29.5959 Q1797.23 26.1121 1805.58 26.1121 Q1809.71 26.1121 1813.35 26.7198 Q1817 27.3274 1820.08 28.5427 Z" fill="#000000" fill-rule="nonzero" fill-opacity="1" /><path clip-path="url(#clip550)" d="M1851.96 32.4315 Q1845.96 32.4315 1842.48 37.1306 Q1839 41.7891 1839 49.9314 Q1839 58.0738 1842.44 62.7728 Q1845.92 67.4314 1851.96 67.4314 Q1857.91 67.4314 1861.4 62.7323 Q1864.88 58.0333 1864.88 49.9314 Q1864.88 41.8701 1861.4 37.1711 Q1857.91 32.4315 1851.96 32.4315 M1851.96 26.1121 Q1861.68 26.1121 1867.23 32.4315 Q1872.78 38.7509 1872.78 49.9314 Q1872.78 61.0714 1867.23 67.4314 Q1861.68 73.7508 1851.96 73.7508 Q1842.2 73.7508 1836.65 67.4314 Q1831.14 61.0714 1831.14 49.9314 Q1831.14 38.7509 1836.65 32.4315 Q1842.2 26.1121 1851.96 26.1121 Z" fill="#000000" fill-rule="nonzero" fill-opacity="1" /><path clip-path="url(#clip550)" d="M1922.85 45.1919 L1922.85 72.576 L1915.4 72.576 L1915.4 45.4349 Q1915.4 38.994 1912.88 35.7938 Q1910.37 32.5936 1905.35 32.5936 Q1899.31 32.5936 1895.83 36.4419 Q1892.35 40.2903 1892.35 46.9338 L1892.35 72.576 L1884.85 72.576 L1884.85 27.2059 L1892.35 27.2059 L1892.35 34.2544 Q1895.02 30.163 1898.63 28.1376 Q1902.27 26.1121 1907.01 26.1121 Q1914.83 26.1121 1918.84 30.9732 Q1922.85 35.7938 1922.85 45.1919 Z" fill="#000000" fill-rule="nonzero" fill-opacity="1" /><polyline clip-path="url(#clip552)" style="stroke:#0000ff; stroke-linecap:round; stroke-linejoin:round; stroke-width:8; stroke-opacity:1; fill:none" points="279.759,1385.45 283.792,1358.35 287.825,1325.58 291.859,1284.98 295.892,1235.54 299.925,1180.12 303.959,1118.56 307.992,1057.78 312.025,998.161 316.058,940.299 320.092,884.962 324.125,833.375 328.158,786.585 332.192,740.473 336.225,695.991 340.258,658.086 344.292,633.134 348.325,614.203 352.358,598.316 356.391,583.406 360.425,575.193 364.458,570.6 368.491,567.066 372.525,560.798 376.558,551.589 380.591,549.681 384.625,547.933 388.658,547.679 392.691,549.57 396.725,550.496 400.758,550.543 404.791,550.363 408.824,550.82 412.858,550.49 416.891,547.626 420.924,543.819 424.958,538.883 428.991,534.348 433.024,530.133 437.058,525.496 441.091,520.924 445.124,517.58 449.157,513.407 453.191,507.48 457.224,500.054 461.257,492.645 465.291,487.274 469.324,481.094 473.357,477.236 477.391,473.305 481.424,470.052 485.457,468.009 489.491,468.96 493.524,471.224 497.557,473.603 501.59,476.159 505.624,480.223 509.657,484.709 513.69,489.541 517.724,493.503 521.757,500.211 525.79,507.154 529.824,514.6 533.857,523.972 537.89,536.567 541.923,549.367 545.957,560.959 549.99,572.145 554.023,584.988 558.057,596.622 562.09,607.56 566.123,618.205 570.157,628.533 574.19,641.603 578.223,655.014 582.257,668.744 586.29,683.403 590.323,699.26 594.356,716.499 598.39,735.172 602.423,753.635 606.456,771.222 610.49,789.533 614.523,807.377 618.556,824.048 622.59,840.736 626.623,856.688 630.656,874.68 634.689,890.911 638.723,906.706 642.756,922.035 646.789,937.454 650.823,953.42 654.856,969.005 658.889,985.369 662.923,1003.03 666.956,1022.66 670.989,1040.31 675.022,1057.24 679.056,1075.08 683.089,1091.15 687.122,1104.89 691.156,1116.65 695.189,1126.66 699.222,1134.91 703.256,1142.9 707.289,1150.21 711.322,1156.2 715.356,1161.08 719.389,1164.65 723.422,1166.87 727.455,1167.93 731.489,1168.1 735.522,1168.35 739.555,1168.32 743.589,1168.26 747.622,1167.9 751.655,1166.8 755.689,1166.03 759.722,1164.74 763.755,1163.2 767.788,1163.09 771.822,1162.71 775.855,1162.04 779.888,1162.86 783.922,1163.8 787.955,1165.23 791.988,1166.39 796.022,1168.22 800.055,1170.76 804.088,1172.71 808.122,1173.85 812.155,1174 816.188,1174.51 820.221,1175.08 824.255,1175 828.288,1173.64 832.321,1171.49 836.355,1168.95 840.388,1166.12 844.421,1162.12 848.455,1157.15 852.488,1151.67 856.521,1145.64 860.554,1139.64 864.588,1133.29 868.621,1126.81 872.654,1119.65 876.688,1112.22 880.721,1104.41 884.754,1097.6 888.788,1091.5 892.821,1085.19 896.854,1078.91 900.888,1072.76 904.921,1067.21 908.954,1061.57 912.987,1055.76 917.021,1050.18 921.054,1045.04 925.087,1039.55 929.121,1034.06 933.154,1030.1 937.187,1026.4 941.221,1022.67 945.254,1019.18 949.287,1016.38 953.32,1014.19 957.354,1013.11 961.387,1013.35 965.42,1013.88 969.454,1014.81 973.487,1016.31 977.52,1018.47 981.554,1020.93 985.587,1023.11 989.62,1024.82 993.654,1026.34 997.687,1027.58 1001.72,1028.85 1005.75,1030.61 1009.79,1031.99 1013.82,1033.08 1017.85,1033.92 1021.89,1034.95 1025.92,1035.94 1029.95,1036.5 1033.99,1036.64 1038.02,1036.57 1042.05,1036.32 1046.09,1036.41 1050.12,1036.56 1054.15,1036.99 1058.19,1038.24 1062.22,1040.11 1066.25,1042.15 1070.29,1044.96 1074.32,1048.13 1078.35,1051.5 1082.39,1055.4 1086.42,1059.03 1090.45,1062.37 1094.49,1065.24 1098.52,1067.87 1102.55,1070.31 1106.59,1072.85 1110.62,1075.05 1114.65,1076.95 1118.69,1078.69 1122.72,1079.91 1126.75,1080.73 1130.79,1081.22 1134.82,1082 1138.85,1083.11 1142.89,1084.34 1146.92,1086.44 1150.95,1088.73 1154.99,1090.9 1159.02,1092.71 1163.05,1094.12 1167.09,1095.12 1171.12,1095.75 1175.15,1096.29 1179.19,1096.77 1183.22,1097.31 1187.25,1097.88 1191.29,1098.38 1195.32,1098.71 1199.35,1099.06 1203.39,1099.12 1207.42,1099.59 1211.45,1100.24 1215.49,1100.71 1219.52,1100.81 1223.55,1100.75 1227.59,1100.54 1231.62,1100.45 1235.65,1100.19 1239.69,1100.3 1243.72,1100.95 1247.75,1102.02 1251.78,1102.89 1255.82,1103.73 1259.85,1104.53 1263.88,1105.15 1267.92,1105.61 1271.95,1105.9 1275.98,1106.02 1280.02,1106 1284.05,1105.85 1288.08,1105.62 1292.12,1104.99 1296.15,1104.4 1300.18,1103.71 1304.22,1102.67 1308.25,1101.42 1312.28,1100.12 1316.32,1098.6 1320.35,1097.26 1324.38,1096.2 1328.42,1094.8 1332.45,1093.18 1336.48,1091.46 1340.52,1090.15 1344.55,1088.99 1348.58,1087.94 1352.62,1086.94 1356.65,1085.87 1360.68,1084.72 1364.72,1083.63 1368.75,1082.82 1372.78,1082.44 1376.82,1082.57 1380.85,1083.38 1384.88,1084.42 1388.92,1085.78 1392.95,1087.05 1396.98,1088.17 1401.02,1089.55 1405.05,1091.07 1409.08,1092.59 1413.12,1094.43 1417.15,1096.29 1421.18,1098.2 1425.22,1099.89 1429.25,1101.37 1433.28,1103.1 1437.32,1105.03 1441.35,1106.95 1445.38,1108.77 1449.42,1111.73 1453.45,1115.07 1457.48,1118.09 1461.52,1120.83 1465.55,1123.33 1469.58,1125.38 1473.62,1127.42 1477.65,1129.3 1481.68,1130.65 1485.72,1131.56 1489.75,1132.39 1493.78,1133.03 1497.82,1133.76 1501.85,1134.18 1505.88,1134.28 1509.92,1133.89 1513.95,1133.19 1517.98,1132.44 1522.02,1131.57 1526.05,1130.72 1530.08,1129.85 1534.12,1129.52 1538.15,1129.41 1542.18,1128.99 1546.22,1128.26 1550.25,1127.85 1554.28,1127.92 1558.32,1128.07 1562.35,1128.4 1566.38,1129.09 1570.42,1130.26 1574.45,1131.63 1578.48,1133.06 1582.52,1134.47 1586.55,1135.9 1590.58,1137.33 1594.62,1138.7 1598.65,1141.26 1602.68,1143.65 1606.72,1146.1 1610.75,1148.57 1614.78,1150.95 1618.82,1153.01 1622.85,1154.87 1626.88,1156.43 1630.92,1158.82 1634.95,1161.59 1638.98,1165.01 1643.02,1169.8 1647.05,1174.4 1651.08,1178.82 1655.12,1183.04 1659.15,1186.83 1663.18,1190.35 1667.22,1193.5 1671.25,1196.47 1675.28,1198.9 1679.32,1201.08 1683.35,1203.98 1687.38,1207.11 1691.42,1210.05 1695.45,1213.11 1699.48,1216.08 1703.51,1218.73 1707.55,1221.33 1711.58,1223.94 1715.61,1226.5 1719.65,1228.3 1723.68,1229.38 1727.71,1229.98 1731.75,1230.86 1735.78,1231.7 1739.81,1232.41 1743.85,1233.15 1747.88,1234.06 1751.91,1235.04 1755.95,1236.16 1759.98,1237.26 1764.01,1238.57 1768.05,1239.89 1772.08,1240.78 1776.11,1241.15 1780.15,1241.03 1784.18,1240.11 1788.21,1239.04 1792.25,1238.24 1796.28,1236.92 1800.31,1235.28 1804.35,1233.54 1808.38,1231.64 1812.41,1229.97 1816.45,1228.58 1820.48,1227.74 1824.51,1227 1828.55,1226.49 1832.58,1225.86 1836.61,1225.37 1840.65,1224.83 1844.68,1224.06 1848.71,1223.22 1852.75,1222.14 1856.78,1220.85 1860.81,1219.28 1864.85,1217.85 1868.88,1216.56 1872.91,1215.74 1876.95,1215.27 1880.98,1215.18 1885.01,1215.53 1889.05,1215.92 1893.08,1216.45 1897.11,1217.03 1901.15,1217.55 1905.18,1218.11 1909.21,1218.99 1913.25,1220.06 1917.28,1220.79 1921.31,1221.4 1925.35,1221.69 1929.38,1221.63 1933.41,1221.61 1937.45,1221.78 1941.48,1221.7 1945.51,1221.61 1949.55,1221.63 1953.58,1221.68 1957.61,1221.73 1961.65,1221.58 1965.68,1221.19 1969.71,1220.81 1973.75,1220.58 1977.78,1220.79 1981.81,1221.73 1985.85,1222.8 1989.88,1224.05 1993.91,1225.06 1997.95,1225.9 2001.98,1226.54 2006.01,1226.9 2010.05,1227.12 2014.08,1227.26 2018.11,1227.57 2022.15,1228.11 2026.18,1228.61 2030.21,1229.03 2034.25,1229.28 2038.28,1229.37 2042.31,1229.33 2046.35,1229.19 2050.38,1228.83 2054.41,1228.16 2058.45,1227.21 2062.48,1226.25 2066.51,1225.36 2070.55,1224.72 2074.58,1224.16 2078.61,1223.63 2082.65,1222.94 2086.68,1221.96 2090.71,1220.63 2094.75,1219.15 2098.78,1217.86 2102.81,1216.82 2106.85,1215.67 2110.88,1214.36 2114.91,1212.9 2118.95,1211.57 2122.98,1210.61 2127.01,1210.12 2131.05,1209.8 2135.08,1209.46 2139.11,1209.48 2143.15,1209.57 2147.18,1210.21 2151.21,1211.13 2155.25,1211.77 2159.28,1212.06 2163.31,1212.01 2167.34,1211.89 2171.38,1211.91 2175.41,1212.29 2179.44,1213.13 2183.48,1214.14 2187.51,1215.14 2191.54,1215.78 2195.58,1216.1 2199.61,1216.11 2203.64,1215.95 2207.68,1215.64 2211.71,1215.31 2215.74,1215.11 2219.78,1214.89 2223.81,1214.49 2227.84,1213.71 2231.88,1212.63 2235.91,1211.51 2239.94,1210.33 2243.98,1209.11 2248.01,1207.93 2252.04,1206.78 2256.08,1205.74 2260.11,1205.4 2264.14,1205.11 2268.18,1204.47 2272.21,1203.51 2276.24,1202.68 2280.28,1202.02 2284.31,1201.47 2288.34,1201.33 2292.38,1201.22 "/>
<polyline clip-path="url(#clip552)" style="stroke:#ff0000; stroke-linecap:round; stroke-linejoin:round; stroke-width:8; stroke-opacity:1; fill:none" points="279.759,1386.4 283.792,1360.88 287.825,1329.44 291.859,1291.77 295.892,1246.06 299.925,1194.31 303.959,1138.37 307.992,1080.99 312.025,1027.52 316.058,974.414 320.092,922.485 324.125,873.362 328.158,831.246 332.192,790.575 336.225,755.568 340.258,723.179 344.292,699.099 348.325,678.954 352.358,660.444 356.391,642.261 360.425,624.495 364.458,608.596 368.491,596.284 372.525,582.467 376.558,568.762 380.591,557.595 384.625,545.406 388.658,533.614 392.691,523.953 396.725,514.365 400.758,504.886 404.791,496.314 408.824,486.927 412.858,477.204 416.891,466.14 420.924,455.623 424.958,449.825 428.991,446.762 433.024,442.716 437.058,440.036 441.091,439.277 445.124,439.499 449.157,440.049 453.191,445.779 457.224,453.384 461.257,460.303 465.291,465.079 469.324,471.339 473.357,476.627 477.391,482.426 481.424,487.984 485.457,490.993 489.491,491.429 493.524,489.73 497.557,488.564 501.59,489.853 505.624,491.477 509.657,491.521 513.69,491.278 517.724,492.275 521.757,493.453 525.79,493.412 529.824,494.054 533.857,495.063 537.89,494.85 541.923,493.511 545.957,491.028 549.99,487.998 554.023,483.53 558.057,479.422 562.09,476.065 566.123,475.577 570.157,476.131 574.19,477.386 578.223,481.642 582.257,487.502 586.29,495.224 590.323,505.7 594.356,518.923 598.39,531.136 602.423,542.347 606.456,553.571 610.49,564.853 614.523,575.285 618.556,585.201 622.59,595.251 626.623,604.154 630.656,611.596 634.689,621.31 638.723,631.916 642.756,642.767 646.789,653.61 650.823,664.746 654.856,675.781 658.889,688.246 662.923,701.049 666.956,713.857 670.989,726.355 675.022,738.539 679.056,749.935 683.089,761.274 687.122,771.719 691.156,781.777 695.189,790.841 699.222,800.017 703.256,809.192 707.289,816.695 711.322,823.67 715.356,829.105 719.389,832.745 723.422,834.835 727.455,836.642 731.489,838.542 735.522,840.83 739.555,843.171 743.589,844.224 747.622,844.814 751.655,845.752 755.689,846.655 759.722,846.68 763.755,846.447 767.788,845.513 771.822,845.255 775.855,845.411 779.888,846.965 783.922,849.69 787.955,851.997 791.988,853.003 796.022,853.257 800.055,852.218 804.088,849.736 808.122,846.907 812.155,843.489 816.188,840.661 820.221,837.678 824.255,834.371 828.288,830.223 832.321,825.739 836.355,820.716 840.388,814.95 844.421,809.089 848.455,803.389 852.488,797.989 856.521,791.47 860.554,784.203 864.588,776.776 868.621,768.644 872.654,760.157 876.688,751.771 880.721,743.1 884.754,733.644 888.788,724.204 892.821,714.716 896.854,705.48 900.888,696.275 904.921,687.939 908.954,679.341 912.987,670.013 917.021,660.079 921.054,649.966 925.087,639.97 929.121,630.019 933.154,621.218 937.187,613.785 941.221,608.207 945.254,603.083 949.287,597.77 953.32,592.495 957.354,587.361 961.387,581.874 965.42,576.28 969.454,571.74 973.487,567.039 977.52,562.33 981.554,557.123 985.587,551.769 989.62,545.957 993.654,539.451 997.687,532.476 1001.72,525.657 1005.75,518.98 1009.79,513.237 1013.82,508.303 1017.85,503.963 1021.89,500.457 1025.92,496.595 1029.95,492.572 1033.99,488.913 1038.02,484.749 1042.05,480.228 1046.09,475.498 1050.12,470.114 1054.15,464.094 1058.19,457.657 1062.22,450.714 1066.25,443.423 1070.29,437.55 1074.32,431.797 1078.35,425.735 1082.39,419.358 1086.42,413.919 1090.45,408.922 1094.49,404.475 1098.52,400.722 1102.55,396.819 1106.59,393.248 1110.62,389.544 1114.65,385.428 1118.69,381.886 1122.72,378.562 1126.75,375.154 1130.79,372.31 1134.82,369.183 1138.85,366.502 1142.89,363.528 1146.92,359.929 1150.95,355.815 1154.99,351.433 1159.02,347.551 1163.05,343.87 1167.09,340.618 1171.12,336.992 1175.15,333.491 1179.19,329.74 1183.22,325.678 1187.25,321.854 1191.29,318.255 1195.32,314.336 1199.35,310.17 1203.39,306.016 1207.42,301.978 1211.45,298.28 1215.49,294.651 1219.52,290.974 1223.55,287.601 1227.59,284.449 1231.62,282.068 1235.65,279.507 1239.69,276.848 1243.72,274.223 1247.75,271.34 1251.78,268.02 1255.82,264.503 1259.85,261.004 1263.88,257.197 1267.92,253.501 1271.95,249.916 1275.98,247.244 1280.02,244.609 1284.05,241.724 1288.08,239.401 1292.12,236.883 1296.15,234.28 1300.18,231.449 1304.22,228.239 1308.25,225.056 1312.28,221.819 1316.32,218.773 1320.35,216.075 1324.38,213.312 1328.42,210.513 1332.45,207.656 1336.48,204.609 1340.52,201.275 1344.55,197.8 1348.58,194.613 1352.62,191.617 1356.65,189.014 1360.68,187.059 1364.72,185.146 1368.75,183.551 1372.78,182.031 1376.82,180.7 1380.85,179.278 1384.88,177.766 1388.92,176.383 1392.95,174.814 1396.98,172.976 1401.02,170.979 1405.05,169.11 1409.08,167.19 1413.12,165.285 1417.15,163.974 1421.18,163.48 1425.22,163.462 1429.25,163.776 1433.28,164.569 1437.32,165.478 1441.35,166.511 1445.38,168.494 1449.42,170.89 1453.45,173.451 1457.48,175.524 1461.52,177.019 1465.55,178.086 1469.58,178.738 1473.62,179.092 1477.65,179.061 1481.68,178.67 1485.72,178.011 1489.75,177.202 1493.78,176.496 1497.82,175.776 1501.85,174.921 1505.88,173.983 1509.92,173.23 1513.95,173.107 1517.98,173.834 1522.02,175.309 1526.05,177.081 1530.08,179.214 1534.12,181.798 1538.15,184.266 1542.18,186.572 1546.22,188.654 1550.25,190.744 1554.28,192.67 1558.32,194.352 1562.35,195.301 1566.38,195.81 1570.42,195.808 1574.45,195.476 1578.48,194.814 1582.52,193.668 1586.55,191.981 1590.58,189.862 1594.62,187.895 1598.65,185.628 1602.68,182.978 1606.72,180.196 1610.75,177.808 1614.78,175.595 1618.82,174.031 1622.85,172.731 1626.88,171.794 1630.92,171.276 1634.95,171.346 1638.98,171.993 1643.02,172.762 1647.05,173.096 1651.08,172.881 1655.12,172.102 1659.15,171.012 1663.18,170.378 1667.22,169.808 1671.25,169.099 1675.28,168.266 1679.32,167.256 1683.35,166.2 1687.38,165.282 1691.42,164.337 1695.45,163.327 1699.48,162.395 1703.51,161.488 1707.55,160.863 1711.58,160.443 1715.61,160.256 1719.65,160.414 1723.68,160.838 1727.71,161.595 1731.75,162.127 1735.78,162.714 1739.81,164.06 1743.85,165.432 1747.88,166.688 1751.91,167.742 1755.95,168.694 1759.98,169.51 1764.01,170.305 1768.05,172.013 1772.08,173.816 1776.11,175.553 1780.15,177.217 1784.18,178.717 1788.21,180.266 1792.25,181.817 1796.28,183.803 1800.31,185.312 1804.35,186.83 1808.38,188.461 1812.41,189.781 1816.45,190.682 1820.48,191.085 1824.51,191.262 1828.55,192.2 1832.58,193.463 1836.61,194.987 1840.65,197.082 1844.68,199.494 1848.71,201.888 1852.75,204.328 1856.78,206.36 1860.81,207.915 1864.85,208.981 1868.88,209.562 1872.91,209.725 1876.95,209.572 1880.98,209.282 1885.01,208.867 1889.05,208.595 1893.08,208.551 1897.11,208.548 1901.15,208.433 1905.18,208.463 1909.21,208.515 1913.25,208.316 1917.28,208.488 1921.31,208.149 1925.35,207.53 1929.38,206.605 1933.41,205.435 1937.45,204.442 1941.48,203.248 1945.51,201.84 1949.55,200.638 1953.58,200.002 1957.61,199.318 1961.65,198.781 1965.68,198.045 1969.71,197.469 1973.75,197.449 1977.78,197.278 1981.81,196.899 1985.85,196.313 1989.88,195.746 1993.91,195.127 1997.95,194.636 2001.98,194.396 2006.01,195.892 2010.05,197.62 2014.08,199.052 2018.11,200.014 2022.15,200.58 2026.18,200.713 2030.21,201.422 2034.25,202.262 2038.28,202.783 2042.31,203.458 2046.35,204.441 2050.38,205.51 2054.41,206.756 2058.45,208.309 2062.48,209.907 2066.51,211.187 2070.55,212.166 2074.58,212.828 2078.61,213.504 2082.65,214.298 2086.68,215.165 2090.71,215.898 2094.75,216.381 2098.78,216.67 2102.81,216.986 2106.85,217.497 2110.88,218.389 2114.91,219.433 2118.95,220.508 2122.98,221.275 2127.01,221.967 2131.05,223.058 2135.08,224.585 2139.11,226.037 2143.15,227.616 2147.18,229.194 2151.21,230.605 2155.25,231.833 2159.28,232.596 2163.31,233.254 2167.34,234.282 2171.38,235.592 2175.41,236.86 2179.44,237.677 2183.48,237.987 2187.51,238.168 2191.54,238.291 2195.58,238.234 2199.61,238.138 2203.64,238.265 2207.68,238.384 2211.71,238.346 2215.74,238.112 2219.78,237.745 2223.81,237.165 2227.84,236.6 2231.88,235.778 2235.91,234.501 2239.94,233.624 2243.98,232.947 2248.01,232.554 2252.04,232.442 2256.08,232.312 2260.11,231.629 2264.14,230.967 2268.18,229.781 2272.21,228.324 2276.24,226.899 2280.28,225.486 2284.31,224.02 2288.34,222.369 2292.38,220.74 "/>
<path clip-path="url(#clip550)" d="M290.493 322.316 L762.255 322.316 L762.255 166.796 L290.493 166.796  Z" fill="#ffffff" fill-rule="evenodd" fill-opacity="1"/>
<polyline clip-path="url(#clip550)" style="stroke:#000000; stroke-linecap:round; stroke-linejoin:round; stroke-width:4; stroke-opacity:1; fill:none" points="290.493,322.316 762.255,322.316 762.255,166.796 290.493,166.796 290.493,322.316 "/>
<polyline clip-path="url(#clip550)" style="stroke:#0000ff; stroke-linecap:round; stroke-linejoin:round; stroke-width:8; stroke-opacity:1; fill:none" points="314.197,218.636 456.422,218.636 "/>
<path clip-path="url(#clip550)" d="M480.126 201.356 L487.094 201.356 L495.913 224.874 L504.779 201.356 L511.746 201.356 L511.746 235.916 L507.186 235.916 L507.186 205.569 L498.274 229.272 L493.575 229.272 L484.663 205.569 L484.663 235.916 L480.126 235.916 L480.126 201.356 Z" fill="#000000" fill-rule="nonzero" fill-opacity="1" /><path clip-path="url(#clip550)" d="M543.019 221.888 L543.019 223.971 L523.436 223.971 Q523.714 228.369 526.075 230.684 Q528.459 232.976 532.695 232.976 Q535.149 232.976 537.441 232.374 Q539.755 231.772 542.024 230.569 L542.024 234.596 Q539.732 235.568 537.325 236.078 Q534.917 236.587 532.441 236.587 Q526.237 236.587 522.603 232.976 Q518.992 229.365 518.992 223.207 Q518.992 216.842 522.418 213.115 Q525.867 209.365 531.7 209.365 Q536.931 209.365 539.964 212.745 Q543.019 216.101 543.019 221.888 M538.76 220.638 Q538.714 217.143 536.792 215.059 Q534.894 212.976 531.746 212.976 Q528.181 212.976 526.029 214.99 Q523.899 217.004 523.575 220.661 L538.76 220.638 Z" fill="#000000" fill-rule="nonzero" fill-opacity="1" /><path clip-path="url(#clip550)" d="M554.223 202.629 L554.223 209.99 L562.996 209.99 L562.996 213.3 L554.223 213.3 L554.223 227.374 Q554.223 230.545 555.079 231.448 Q555.959 232.351 558.621 232.351 L562.996 232.351 L562.996 235.916 L558.621 235.916 Q553.691 235.916 551.816 234.087 Q549.941 232.235 549.941 227.374 L549.941 213.3 L546.816 213.3 L546.816 209.99 L549.941 209.99 L549.941 202.629 L554.223 202.629 Z" fill="#000000" fill-rule="nonzero" fill-opacity="1" /><path clip-path="url(#clip550)" d="M583.621 213.971 Q582.903 213.555 582.047 213.37 Q581.214 213.161 580.195 213.161 Q576.584 213.161 574.639 215.522 Q572.718 217.86 572.718 222.258 L572.718 235.916 L568.436 235.916 L568.436 209.99 L572.718 209.99 L572.718 214.018 Q574.061 211.657 576.214 210.522 Q578.366 209.365 581.445 209.365 Q581.885 209.365 582.417 209.434 Q582.95 209.481 583.598 209.596 L583.621 213.971 Z" fill="#000000" fill-rule="nonzero" fill-opacity="1" /><path clip-path="url(#clip550)" d="M588.088 209.99 L592.348 209.99 L592.348 235.916 L588.088 235.916 L588.088 209.99 M588.088 199.897 L592.348 199.897 L592.348 205.291 L588.088 205.291 L588.088 199.897 Z" fill="#000000" fill-rule="nonzero" fill-opacity="1" /><path clip-path="url(#clip550)" d="M619.917 210.985 L619.917 214.967 Q618.111 213.971 616.283 213.485 Q614.477 212.976 612.625 212.976 Q608.482 212.976 606.19 215.615 Q603.899 218.231 603.899 222.976 Q603.899 227.721 606.19 230.36 Q608.482 232.976 612.625 232.976 Q614.477 232.976 616.283 232.49 Q618.111 231.981 619.917 230.985 L619.917 234.92 Q618.135 235.754 616.213 236.17 Q614.315 236.587 612.162 236.587 Q606.306 236.587 602.857 232.906 Q599.408 229.226 599.408 222.976 Q599.408 216.633 602.88 212.999 Q606.375 209.365 612.44 209.365 Q614.408 209.365 616.283 209.782 Q618.158 210.175 619.917 210.985 Z" fill="#000000" fill-rule="nonzero" fill-opacity="1" /><polyline clip-path="url(#clip550)" style="stroke:#ff0000; stroke-linecap:round; stroke-linejoin:round; stroke-width:8; stroke-opacity:1; fill:none" points="314.197,270.476 456.422,270.476 "/>
<path clip-path="url(#clip550)" d="M480.126 253.196 L509.362 253.196 L509.362 257.131 L497.094 257.131 L497.094 287.756 L492.395 287.756 L492.395 257.131 L480.126 257.131 L480.126 253.196 Z" fill="#000000" fill-rule="nonzero" fill-opacity="1" /><path clip-path="url(#clip550)" d="M515.681 264.816 Q512.256 264.816 510.265 267.501 Q508.274 270.163 508.274 274.816 Q508.274 279.469 510.242 282.154 Q512.232 284.816 515.681 284.816 Q519.084 284.816 521.075 282.131 Q523.066 279.446 523.066 274.816 Q523.066 270.21 521.075 267.524 Q519.084 264.816 515.681 264.816 M515.681 261.205 Q521.237 261.205 524.408 264.816 Q527.58 268.427 527.58 274.816 Q527.58 281.182 524.408 284.816 Q521.237 288.427 515.681 288.427 Q510.103 288.427 506.931 284.816 Q503.783 281.182 503.783 274.816 Q503.783 268.427 506.931 264.816 Q510.103 261.205 515.681 261.205 Z" fill="#000000" fill-rule="nonzero" fill-opacity="1" /><path clip-path="url(#clip550)" d="M538.76 283.867 L538.76 297.617 L534.478 297.617 L534.478 261.83 L538.76 261.83 L538.76 265.765 Q540.103 263.45 542.14 262.339 Q544.2 261.205 547.047 261.205 Q551.769 261.205 554.709 264.955 Q557.672 268.705 557.672 274.816 Q557.672 280.927 554.709 284.677 Q551.769 288.427 547.047 288.427 Q544.2 288.427 542.14 287.316 Q540.103 286.182 538.76 283.867 M553.251 274.816 Q553.251 270.117 551.306 267.455 Q549.385 264.77 546.005 264.77 Q542.626 264.77 540.681 267.455 Q538.76 270.117 538.76 274.816 Q538.76 279.515 540.681 282.2 Q542.626 284.862 546.005 284.862 Q549.385 284.862 551.306 282.2 Q553.251 279.515 553.251 274.816 Z" fill="#000000" fill-rule="nonzero" fill-opacity="1" /><path clip-path="url(#clip550)" d="M574.778 264.816 Q571.352 264.816 569.362 267.501 Q567.371 270.163 567.371 274.816 Q567.371 279.469 569.339 282.154 Q571.329 284.816 574.778 284.816 Q578.181 284.816 580.172 282.131 Q582.163 279.446 582.163 274.816 Q582.163 270.21 580.172 267.524 Q578.181 264.816 574.778 264.816 M574.778 261.205 Q580.334 261.205 583.505 264.816 Q586.676 268.427 586.676 274.816 Q586.676 281.182 583.505 284.816 Q580.334 288.427 574.778 288.427 Q569.2 288.427 566.028 284.816 Q562.88 281.182 562.88 274.816 Q562.88 268.427 566.028 264.816 Q569.2 261.205 574.778 261.205 Z" fill="#000000" fill-rule="nonzero" fill-opacity="1" /><path clip-path="url(#clip550)" d="M593.737 251.737 L597.996 251.737 L597.996 287.756 L593.737 287.756 L593.737 251.737 Z" fill="#000000" fill-rule="nonzero" fill-opacity="1" /><path clip-path="url(#clip550)" d="M616.954 264.816 Q613.528 264.816 611.537 267.501 Q609.547 270.163 609.547 274.816 Q609.547 279.469 611.514 282.154 Q613.505 284.816 616.954 284.816 Q620.357 284.816 622.348 282.131 Q624.338 279.446 624.338 274.816 Q624.338 270.21 622.348 267.524 Q620.357 264.816 616.954 264.816 M616.954 261.205 Q622.51 261.205 625.681 264.816 Q628.852 268.427 628.852 274.816 Q628.852 281.182 625.681 284.816 Q622.51 288.427 616.954 288.427 Q611.375 288.427 608.204 284.816 Q605.056 281.182 605.056 274.816 Q605.056 268.427 608.204 264.816 Q611.375 261.205 616.954 261.205 Z" fill="#000000" fill-rule="nonzero" fill-opacity="1" /><path clip-path="url(#clip550)" d="M652.972 274.492 Q652.972 269.862 651.051 267.316 Q649.153 264.77 645.704 264.77 Q642.278 264.77 640.357 267.316 Q638.459 269.862 638.459 274.492 Q638.459 279.098 640.357 281.645 Q642.278 284.191 645.704 284.191 Q649.153 284.191 651.051 281.645 Q652.972 279.098 652.972 274.492 M657.232 284.538 Q657.232 291.158 654.292 294.376 Q651.352 297.617 645.287 297.617 Q643.042 297.617 641.051 297.27 Q639.06 296.945 637.185 296.251 L637.185 292.108 Q639.06 293.126 640.889 293.612 Q642.718 294.098 644.616 294.098 Q648.806 294.098 650.889 291.899 Q652.972 289.723 652.972 285.302 L652.972 283.196 Q651.653 285.487 649.593 286.621 Q647.533 287.756 644.662 287.756 Q639.894 287.756 636.977 284.121 Q634.06 280.487 634.06 274.492 Q634.06 268.473 636.977 264.839 Q639.894 261.205 644.662 261.205 Q647.533 261.205 649.593 262.339 Q651.653 263.473 652.972 265.765 L652.972 261.83 L657.232 261.83 L657.232 284.538 Z" fill="#000000" fill-rule="nonzero" fill-opacity="1" /><path clip-path="url(#clip550)" d="M666.005 261.83 L670.264 261.83 L670.264 287.756 L666.005 287.756 L666.005 261.83 M666.005 251.737 L670.264 251.737 L670.264 257.131 L666.005 257.131 L666.005 251.737 Z" fill="#000000" fill-rule="nonzero" fill-opacity="1" /><path clip-path="url(#clip550)" d="M697.833 262.825 L697.833 266.807 Q696.028 265.811 694.199 265.325 Q692.393 264.816 690.542 264.816 Q686.398 264.816 684.106 267.455 Q681.815 270.071 681.815 274.816 Q681.815 279.561 684.106 282.2 Q686.398 284.816 690.542 284.816 Q692.393 284.816 694.199 284.33 Q696.028 283.821 697.833 282.825 L697.833 286.76 Q696.051 287.594 694.13 288.01 Q692.231 288.427 690.079 288.427 Q684.222 288.427 680.773 284.746 Q677.324 281.066 677.324 274.816 Q677.324 268.473 680.796 264.839 Q684.292 261.205 690.356 261.205 Q692.324 261.205 694.199 261.622 Q696.074 262.015 697.833 262.825 Z" fill="#000000" fill-rule="nonzero" fill-opacity="1" /><path clip-path="url(#clip550)" d="M717.023 274.723 Q711.861 274.723 709.87 275.904 Q707.879 277.084 707.879 279.932 Q707.879 282.2 709.361 283.543 Q710.866 284.862 713.435 284.862 Q716.977 284.862 719.106 282.362 Q721.259 279.839 721.259 275.672 L721.259 274.723 L717.023 274.723 M725.518 272.964 L725.518 287.756 L721.259 287.756 L721.259 283.821 Q719.801 286.182 717.625 287.316 Q715.449 288.427 712.301 288.427 Q708.319 288.427 705.958 286.205 Q703.62 283.959 703.62 280.209 Q703.62 275.834 706.537 273.612 Q709.477 271.39 715.287 271.39 L721.259 271.39 L721.259 270.973 Q721.259 268.034 719.315 266.436 Q717.393 264.816 713.898 264.816 Q711.676 264.816 709.569 265.348 Q707.463 265.881 705.518 266.946 L705.518 263.01 Q707.856 262.108 710.055 261.668 Q712.254 261.205 714.338 261.205 Q719.963 261.205 722.741 264.122 Q725.518 267.038 725.518 272.964 Z" fill="#000000" fill-rule="nonzero" fill-opacity="1" /><path clip-path="url(#clip550)" d="M734.291 251.737 L738.551 251.737 L738.551 287.756 L734.291 287.756 L734.291 251.737 Z" fill="#000000" fill-rule="nonzero" fill-opacity="1" /></svg>
