<?xml version="1.0" encoding="utf-8"?>
<svg xmlns="http://www.w3.org/2000/svg" xmlns:xlink="http://www.w3.org/1999/xlink" width="600" height="400" viewBox="0 0 2400 1600">
<defs>
  <clipPath id="clip510">
    <rect x="0" y="0" width="2400" height="1600"/>
  </clipPath>
</defs>
<path clip-path="url(#clip510)" d="M0 1600 L2400 1600 L2400 0 L0 0  Z" fill="#ffffff" fill-rule="evenodd" fill-opacity="1"/>
<defs>
  <clipPath id="clip511">
    <rect x="480" y="0" width="1681" height="1600"/>
  </clipPath>
</defs>
<path clip-path="url(#clip510)" d="M219.866 1423.18 L2352.76 1423.18 L2352.76 123.472 L219.866 123.472  Z" fill="#ffffff" fill-rule="evenodd" fill-opacity="1"/>
<defs>
  <clipPath id="clip512">
    <rect x="219" y="123" width="2134" height="1301"/>
  </clipPath>
</defs>
<polyline clip-path="url(#clip512)" style="stroke:#000000; stroke-linecap:round; stroke-linejoin:round; stroke-width:2; stroke-opacity:0.1; fill:none" points="276.199,1423.18 276.199,123.472 "/>
<polyline clip-path="url(#clip512)" style="stroke:#000000; stroke-linecap:round; stroke-linejoin:round; stroke-width:2; stroke-opacity:0.1; fill:none" points="679.437,1423.18 679.437,123.472 "/>
<polyline clip-path="url(#clip512)" style="stroke:#000000; stroke-linecap:round; stroke-linejoin:round; stroke-width:2; stroke-opacity:0.1; fill:none" points="1082.68,1423.18 1082.68,123.472 "/>
<polyline clip-path="url(#clip512)" style="stroke:#000000; stroke-linecap:round; stroke-linejoin:round; stroke-width:2; stroke-opacity:0.1; fill:none" points="1485.91,1423.18 1485.91,123.472 "/>
<polyline clip-path="url(#clip512)" style="stroke:#000000; stroke-linecap:round; stroke-linejoin:round; stroke-width:2; stroke-opacity:0.1; fill:none" points="1889.15,1423.18 1889.15,123.472 "/>
<polyline clip-path="url(#clip512)" style="stroke:#000000; stroke-linecap:round; stroke-linejoin:round; stroke-width:2; stroke-opacity:0.1; fill:none" points="2292.39,1423.18 2292.39,123.472 "/>
<polyline clip-path="url(#clip512)" style="stroke:#000000; stroke-linecap:round; stroke-linejoin:round; stroke-width:2; stroke-opacity:0.1; fill:none" points="219.866,1187.67 2352.76,1187.67 "/>
<polyline clip-path="url(#clip512)" style="stroke:#000000; stroke-linecap:round; stroke-linejoin:round; stroke-width:2; stroke-opacity:0.1; fill:none" points="219.866,930.17 2352.76,930.17 "/>
<polyline clip-path="url(#clip512)" style="stroke:#000000; stroke-linecap:round; stroke-linejoin:round; stroke-width:2; stroke-opacity:0.1; fill:none" points="219.866,672.67 2352.76,672.67 "/>
<polyline clip-path="url(#clip512)" style="stroke:#000000; stroke-linecap:round; stroke-linejoin:round; stroke-width:2; stroke-opacity:0.1; fill:none" points="219.866,415.171 2352.76,415.171 "/>
<polyline clip-path="url(#clip512)" style="stroke:#000000; stroke-linecap:round; stroke-linejoin:round; stroke-width:2; stroke-opacity:0.1; fill:none" points="219.866,157.672 2352.76,157.672 "/>
<polyline clip-path="url(#clip510)" style="stroke:#000000; stroke-linecap:round; stroke-linejoin:round; stroke-width:4; stroke-opacity:1; fill:none" points="219.866,1423.18 2352.76,1423.18 "/>
<polyline clip-path="url(#clip510)" style="stroke:#000000; stroke-linecap:round; stroke-linejoin:round; stroke-width:4; stroke-opacity:1; fill:none" points="276.199,1423.18 276.199,1404.28 "/>
<polyline clip-path="url(#clip510)" style="stroke:#000000; stroke-linecap:round; stroke-linejoin:round; stroke-width:4; stroke-opacity:1; fill:none" points="679.437,1423.18 679.437,1404.28 "/>
<polyline clip-path="url(#clip510)" style="stroke:#000000; stroke-linecap:round; stroke-linejoin:round; stroke-width:4; stroke-opacity:1; fill:none" points="1082.68,1423.18 1082.68,1404.28 "/>
<polyline clip-path="url(#clip510)" style="stroke:#000000; stroke-linecap:round; stroke-linejoin:round; stroke-width:4; stroke-opacity:1; fill:none" points="1485.91,1423.18 1485.91,1404.28 "/>
<polyline clip-path="url(#clip510)" style="stroke:#000000; stroke-linecap:round; stroke-linejoin:round; stroke-width:4; stroke-opacity:1; fill:none" points="1889.15,1423.18 1889.15,1404.28 "/>
<polyline clip-path="url(#clip510)" style="stroke:#000000; stroke-linecap:round; stroke-linejoin:round; stroke-width:4; stroke-opacity:1; fill:none" points="2292.39,1423.18 2292.39,1404.28 "/>
<path clip-path="url(#clip510)" d="M276.199 1454.1 Q272.588 1454.1 270.759 1457.66 Q268.953 1461.2 268.953 1468.33 Q268.953 1475.44 270.759 1479.01 Q272.588 1482.55 276.199 1482.55 Q279.833 1482.55 281.638 1479.01 Q283.467 1475.44 283.467 1468.33 Q283.467 1461.2 281.638 1457.66 Q279.833 1454.1 276.199 1454.1 M276.199 1450.39 Q282.009 1450.39 285.064 1455 Q288.143 1459.58 288.143 1468.33 Q288.143 1477.06 285.064 1481.67 Q282.009 1486.25 276.199 1486.25 Q270.389 1486.25 267.31 1481.67 Q264.254 1477.06 264.254 1468.33 Q264.254 1459.58 267.31 1455 Q270.389 1450.39 276.199 1450.39 Z" fill="#000000" fill-rule="nonzero" fill-opacity="1" /><path clip-path="url(#clip510)" d="M639.044 1481.64 L646.683 1481.64 L646.683 1455.28 L638.373 1456.95 L638.373 1452.69 L646.636 1451.02 L651.312 1451.02 L651.312 1481.64 L658.951 1481.64 L658.951 1485.58 L639.044 1485.58 L639.044 1481.64 Z" fill="#000000" fill-rule="nonzero" fill-opacity="1" /><path clip-path="url(#clip510)" d="M678.396 1454.1 Q674.784 1454.1 672.956 1457.66 Q671.15 1461.2 671.15 1468.33 Q671.15 1475.44 672.956 1479.01 Q674.784 1482.55 678.396 1482.55 Q682.03 1482.55 683.835 1479.01 Q685.664 1475.44 685.664 1468.33 Q685.664 1461.2 683.835 1457.66 Q682.03 1454.1 678.396 1454.1 M678.396 1450.39 Q684.206 1450.39 687.261 1455 Q690.34 1459.58 690.34 1468.33 Q690.34 1477.06 687.261 1481.67 Q684.206 1486.25 678.396 1486.25 Q672.585 1486.25 669.507 1481.67 Q666.451 1477.06 666.451 1468.33 Q666.451 1459.58 669.507 1455 Q672.585 1450.39 678.396 1450.39 Z" fill="#000000" fill-rule="nonzero" fill-opacity="1" /><path clip-path="url(#clip510)" d="M708.557 1454.1 Q704.946 1454.1 703.118 1457.66 Q701.312 1461.2 701.312 1468.33 Q701.312 1475.44 703.118 1479.01 Q704.946 1482.55 708.557 1482.55 Q712.192 1482.55 713.997 1479.01 Q715.826 1475.44 715.826 1468.33 Q715.826 1461.2 713.997 1457.66 Q712.192 1454.1 708.557 1454.1 M708.557 1450.39 Q714.368 1450.39 717.423 1455 Q720.502 1459.58 720.502 1468.33 Q720.502 1477.06 717.423 1481.67 Q714.368 1486.25 708.557 1486.25 Q702.747 1486.25 699.669 1481.67 Q696.613 1477.06 696.613 1468.33 Q696.613 1459.58 699.669 1455 Q702.747 1450.39 708.557 1450.39 Z" fill="#000000" fill-rule="nonzero" fill-opacity="1" /><path clip-path="url(#clip510)" d="M1046.37 1481.64 L1062.69 1481.64 L1062.69 1485.58 L1040.74 1485.58 L1040.74 1481.64 Q1043.41 1478.89 1047.99 1474.26 Q1052.59 1469.61 1053.78 1468.27 Q1056.02 1465.74 1056.9 1464.01 Q1057.8 1462.25 1057.8 1460.56 Q1057.8 1457.8 1055.86 1456.07 Q1053.94 1454.33 1050.84 1454.33 Q1048.64 1454.33 1046.18 1455.09 Q1043.75 1455.86 1040.97 1457.41 L1040.97 1452.69 Q1043.8 1451.55 1046.25 1450.97 Q1048.71 1450.39 1050.74 1450.39 Q1056.11 1450.39 1059.31 1453.08 Q1062.5 1455.77 1062.5 1460.26 Q1062.5 1462.39 1061.69 1464.31 Q1060.9 1466.2 1058.8 1468.8 Q1058.22 1469.47 1055.12 1472.69 Q1052.02 1475.88 1046.37 1481.64 Z" fill="#000000" fill-rule="nonzero" fill-opacity="1" /><path clip-path="url(#clip510)" d="M1082.5 1454.1 Q1078.89 1454.1 1077.06 1457.66 Q1075.26 1461.2 1075.26 1468.33 Q1075.26 1475.44 1077.06 1479.01 Q1078.89 1482.55 1082.5 1482.55 Q1086.14 1482.55 1087.94 1479.01 Q1089.77 1475.44 1089.77 1468.33 Q1089.77 1461.2 1087.94 1457.66 Q1086.14 1454.1 1082.5 1454.1 M1082.5 1450.39 Q1088.31 1450.39 1091.37 1455 Q1094.45 1459.58 1094.45 1468.33 Q1094.45 1477.06 1091.37 1481.67 Q1088.31 1486.25 1082.5 1486.25 Q1076.69 1486.25 1073.61 1481.67 Q1070.56 1477.06 1070.56 1468.33 Q1070.56 1459.58 1073.61 1455 Q1076.69 1450.39 1082.5 1450.39 Z" fill="#000000" fill-rule="nonzero" fill-opacity="1" /><path clip-path="url(#clip510)" d="M1112.66 1454.1 Q1109.05 1454.1 1107.22 1457.66 Q1105.42 1461.2 1105.42 1468.33 Q1105.42 1475.44 1107.22 1479.01 Q1109.05 1482.55 1112.66 1482.55 Q1116.3 1482.55 1118.1 1479.01 Q1119.93 1475.44 1119.93 1468.33 Q1119.93 1461.2 1118.1 1457.66 Q1116.3 1454.1 1112.66 1454.1 M1112.66 1450.39 Q1118.47 1450.39 1121.53 1455 Q1124.61 1459.58 1124.61 1468.33 Q1124.61 1477.06 1121.53 1481.67 Q1118.47 1486.25 1112.66 1486.25 Q1106.85 1486.25 1103.78 1481.67 Q1100.72 1477.06 1100.72 1468.33 Q1100.72 1459.58 1103.78 1455 Q1106.85 1450.39 1112.66 1450.39 Z" fill="#000000" fill-rule="nonzero" fill-opacity="1" /><path clip-path="url(#clip510)" d="M1459.68 1466.95 Q1463.03 1467.66 1464.91 1469.93 Q1466.81 1472.2 1466.81 1475.53 Q1466.81 1480.65 1463.29 1483.45 Q1459.77 1486.25 1453.29 1486.25 Q1451.11 1486.25 1448.8 1485.81 Q1446.5 1485.39 1444.05 1484.54 L1444.05 1480.02 Q1446 1481.16 1448.31 1481.74 Q1450.62 1482.32 1453.15 1482.32 Q1457.55 1482.32 1459.84 1480.58 Q1462.15 1478.84 1462.15 1475.53 Q1462.15 1472.48 1460 1470.77 Q1457.87 1469.03 1454.05 1469.03 L1450.02 1469.03 L1450.02 1465.19 L1454.24 1465.19 Q1457.69 1465.19 1459.51 1463.82 Q1461.34 1462.43 1461.34 1459.84 Q1461.34 1457.18 1459.44 1455.77 Q1457.57 1454.33 1454.05 1454.33 Q1452.13 1454.33 1449.93 1454.75 Q1447.73 1455.16 1445.09 1456.04 L1445.09 1451.88 Q1447.75 1451.14 1450.07 1450.77 Q1452.41 1450.39 1454.47 1450.39 Q1459.79 1450.39 1462.89 1452.83 Q1466 1455.23 1466 1459.35 Q1466 1462.22 1464.35 1464.21 Q1462.71 1466.18 1459.68 1466.95 Z" fill="#000000" fill-rule="nonzero" fill-opacity="1" /><path clip-path="url(#clip510)" d="M1485.67 1454.1 Q1482.06 1454.1 1480.23 1457.66 Q1478.43 1461.2 1478.43 1468.33 Q1478.43 1475.44 1480.23 1479.01 Q1482.06 1482.55 1485.67 1482.55 Q1489.31 1482.55 1491.11 1479.01 Q1492.94 1475.44 1492.94 1468.33 Q1492.94 1461.2 1491.11 1457.66 Q1489.31 1454.1 1485.67 1454.1 M1485.67 1450.39 Q1491.48 1450.39 1494.54 1455 Q1497.62 1459.58 1497.62 1468.33 Q1497.62 1477.06 1494.54 1481.67 Q1491.48 1486.25 1485.67 1486.25 Q1479.86 1486.25 1476.78 1481.67 Q1473.73 1477.06 1473.73 1468.33 Q1473.73 1459.58 1476.78 1455 Q1479.86 1450.39 1485.67 1450.39 Z" fill="#000000" fill-rule="nonzero" fill-opacity="1" /><path clip-path="url(#clip510)" d="M1515.83 1454.1 Q1512.22 1454.1 1510.39 1457.66 Q1508.59 1461.2 1508.59 1468.33 Q1508.59 1475.44 1510.39 1479.01 Q1512.22 1482.55 1515.83 1482.55 Q1519.47 1482.55 1521.27 1479.01 Q1523.1 1475.44 1523.1 1468.33 Q1523.1 1461.2 1521.27 1457.66 Q1519.47 1454.1 1515.83 1454.1 M1515.83 1450.39 Q1521.64 1450.39 1524.7 1455 Q1527.78 1459.58 1527.78 1468.33 Q1527.78 1477.06 1524.7 1481.67 Q1521.64 1486.25 1515.83 1486.25 Q1510.02 1486.25 1506.94 1481.67 Q1503.89 1477.06 1503.89 1468.33 Q1503.89 1459.58 1506.94 1455 Q1510.02 1450.39 1515.83 1450.39 Z" fill="#000000" fill-rule="nonzero" fill-opacity="1" /><path clip-path="url(#clip510)" d="M1862.24 1455.09 L1850.44 1473.54 L1862.24 1473.54 L1862.24 1455.09 M1861.02 1451.02 L1866.9 1451.02 L1866.9 1473.54 L1871.83 1473.54 L1871.83 1477.43 L1866.9 1477.43 L1866.9 1485.58 L1862.24 1485.58 L1862.24 1477.43 L1846.64 1477.43 L1846.64 1472.92 L1861.02 1451.02 Z" fill="#000000" fill-rule="nonzero" fill-opacity="1" /><path clip-path="url(#clip510)" d="M1889.56 1454.1 Q1885.95 1454.1 1884.12 1457.66 Q1882.31 1461.2 1882.31 1468.33 Q1882.31 1475.44 1884.12 1479.01 Q1885.95 1482.55 1889.56 1482.55 Q1893.19 1482.55 1895 1479.01 Q1896.83 1475.44 1896.83 1468.33 Q1896.83 1461.2 1895 1457.66 Q1893.19 1454.1 1889.56 1454.1 M1889.56 1450.39 Q1895.37 1450.39 1898.42 1455 Q1901.5 1459.58 1901.5 1468.33 Q1901.5 1477.06 1898.42 1481.67 Q1895.37 1486.25 1889.56 1486.25 Q1883.75 1486.25 1880.67 1481.67 Q1877.61 1477.06 1877.61 1468.33 Q1877.61 1459.58 1880.67 1455 Q1883.75 1450.39 1889.56 1450.39 Z" fill="#000000" fill-rule="nonzero" fill-opacity="1" /><path clip-path="url(#clip510)" d="M1919.72 1454.1 Q1916.11 1454.1 1914.28 1457.66 Q1912.47 1461.2 1912.47 1468.33 Q1912.47 1475.44 1914.28 1479.01 Q1916.11 1482.55 1919.72 1482.55 Q1923.35 1482.55 1925.16 1479.01 Q1926.99 1475.44 1926.99 1468.33 Q1926.99 1461.2 1925.16 1457.66 Q1923.35 1454.1 1919.72 1454.1 M1919.72 1450.39 Q1925.53 1450.39 1928.59 1455 Q1931.66 1459.58 1931.66 1468.33 Q1931.66 1477.06 1928.59 1481.67 Q1925.53 1486.25 1919.72 1486.25 Q1913.91 1486.25 1910.83 1481.67 Q1907.78 1477.06 1907.78 1468.33 Q1907.78 1459.58 1910.83 1455 Q1913.91 1450.39 1919.72 1450.39 Z" fill="#000000" fill-rule="nonzero" fill-opacity="1" /><path clip-path="url(#clip510)" d="M2252.01 1451.02 L2270.37 1451.02 L2270.37 1454.96 L2256.29 1454.96 L2256.29 1463.43 Q2257.31 1463.08 2258.33 1462.92 Q2259.35 1462.73 2260.37 1462.73 Q2266.15 1462.73 2269.53 1465.9 Q2272.91 1469.08 2272.91 1474.49 Q2272.91 1480.07 2269.44 1483.17 Q2265.97 1486.25 2259.65 1486.25 Q2257.47 1486.25 2255.2 1485.88 Q2252.96 1485.51 2250.55 1484.77 L2250.55 1480.07 Q2252.63 1481.2 2254.86 1481.76 Q2257.08 1482.32 2259.56 1482.32 Q2263.56 1482.32 2265.9 1480.21 Q2268.24 1478.1 2268.24 1474.49 Q2268.24 1470.88 2265.9 1468.77 Q2263.56 1466.67 2259.56 1466.67 Q2257.68 1466.67 2255.81 1467.08 Q2253.95 1467.5 2252.01 1468.38 L2252.01 1451.02 Z" fill="#000000" fill-rule="nonzero" fill-opacity="1" /><path clip-path="url(#clip510)" d="M2292.12 1454.1 Q2288.51 1454.1 2286.69 1457.66 Q2284.88 1461.2 2284.88 1468.33 Q2284.88 1475.44 2286.69 1479.01 Q2288.51 1482.55 2292.12 1482.55 Q2295.76 1482.55 2297.56 1479.01 Q2299.39 1475.44 2299.39 1468.33 Q2299.39 1461.2 2297.56 1457.66 Q2295.76 1454.1 2292.12 1454.1 M2292.12 1450.39 Q2297.94 1450.39 2300.99 1455 Q2304.07 1459.58 2304.07 1468.33 Q2304.07 1477.06 2300.99 1481.67 Q2297.94 1486.25 2292.12 1486.25 Q2286.31 1486.25 2283.24 1481.67 Q2280.18 1477.06 2280.18 1468.33 Q2280.18 1459.58 2283.24 1455 Q2286.31 1450.39 2292.12 1450.39 Z" fill="#000000" fill-rule="nonzero" fill-opacity="1" /><path clip-path="url(#clip510)" d="M2322.29 1454.1 Q2318.68 1454.1 2316.85 1457.66 Q2315.04 1461.2 2315.04 1468.33 Q2315.04 1475.44 2316.85 1479.01 Q2318.68 1482.55 2322.29 1482.55 Q2325.92 1482.55 2327.73 1479.01 Q2329.56 1475.44 2329.56 1468.33 Q2329.56 1461.2 2327.73 1457.66 Q2325.92 1454.1 2322.29 1454.1 M2322.29 1450.39 Q2328.1 1450.39 2331.15 1455 Q2334.23 1459.58 2334.23 1468.33 Q2334.23 1477.06 2331.15 1481.67 Q2328.1 1486.25 2322.29 1486.25 Q2316.48 1486.25 2313.4 1481.67 Q2310.34 1477.06 2310.34 1468.33 Q2310.34 1459.58 2313.4 1455 Q2316.48 1450.39 2322.29 1450.39 Z" fill="#000000" fill-rule="nonzero" fill-opacity="1" /><path clip-path="url(#clip510)" d="M1246.62 1522.08 L1246.62 1528.35 Q1242.96 1526.6 1239.71 1525.74 Q1236.47 1524.88 1233.44 1524.88 Q1228.19 1524.88 1225.33 1526.92 Q1222.49 1528.96 1222.49 1532.71 Q1222.49 1535.87 1224.37 1537.49 Q1226.28 1539.08 1231.57 1540.07 L1235.45 1540.86 Q1242.64 1542.23 1246.05 1545.7 Q1249.49 1549.14 1249.49 1554.93 Q1249.49 1561.84 1244.84 1565.4 Q1240.22 1568.97 1231.28 1568.97 Q1227.91 1568.97 1224.09 1568.2 Q1220.3 1567.44 1216.22 1565.94 L1216.22 1559.32 Q1220.14 1561.52 1223.9 1562.63 Q1227.65 1563.75 1231.28 1563.75 Q1236.79 1563.75 1239.78 1561.58 Q1242.77 1559.42 1242.77 1555.41 Q1242.77 1551.91 1240.61 1549.93 Q1238.47 1547.96 1233.57 1546.97 L1229.66 1546.21 Q1222.46 1544.78 1219.25 1541.72 Q1216.03 1538.67 1216.03 1533.22 Q1216.03 1526.92 1220.46 1523.29 Q1224.91 1519.66 1232.71 1519.66 Q1236.05 1519.66 1239.52 1520.27 Q1242.99 1520.87 1246.62 1522.08 Z" fill="#000000" fill-rule="nonzero" fill-opacity="1" /><path clip-path="url(#clip510)" d="M1265.05 1522.27 L1265.05 1532.4 L1277.11 1532.4 L1277.11 1536.95 L1265.05 1536.95 L1265.05 1556.3 Q1265.05 1560.66 1266.23 1561.9 Q1267.44 1563.14 1271.1 1563.14 L1277.11 1563.14 L1277.11 1568.04 L1271.1 1568.04 Q1264.32 1568.04 1261.74 1565.53 Q1259.16 1562.98 1259.16 1556.3 L1259.16 1536.95 L1254.86 1536.95 L1254.86 1532.4 L1259.16 1532.4 L1259.16 1522.27 L1265.05 1522.27 Z" fill="#000000" fill-rule="nonzero" fill-opacity="1" /><path clip-path="url(#clip510)" d="M1315.31 1548.76 L1315.31 1551.62 L1288.38 1551.62 Q1288.76 1557.67 1292.01 1560.85 Q1295.29 1564 1301.11 1564 Q1304.49 1564 1307.64 1563.17 Q1310.82 1562.35 1313.94 1560.69 L1313.94 1566.23 Q1310.79 1567.57 1307.48 1568.27 Q1304.17 1568.97 1300.76 1568.97 Q1292.23 1568.97 1287.23 1564 Q1282.27 1559.04 1282.27 1550.57 Q1282.27 1541.82 1286.98 1536.69 Q1291.72 1531.54 1299.74 1531.54 Q1306.94 1531.54 1311.11 1536.18 Q1315.31 1540.8 1315.31 1548.76 M1309.45 1547.04 Q1309.39 1542.23 1306.75 1539.37 Q1304.14 1536.5 1299.81 1536.5 Q1294.9 1536.5 1291.94 1539.27 Q1289.02 1542.04 1288.57 1547.07 L1309.45 1547.04 Z" fill="#000000" fill-rule="nonzero" fill-opacity="1" /><path clip-path="url(#clip510)" d="M1330.58 1562.7 L1330.58 1581.6 L1324.7 1581.6 L1324.7 1532.4 L1330.58 1532.4 L1330.58 1537.81 Q1332.43 1534.62 1335.23 1533.1 Q1338.06 1531.54 1341.98 1531.54 Q1348.47 1531.54 1352.51 1536.69 Q1356.59 1541.85 1356.59 1550.25 Q1356.59 1558.65 1352.51 1563.81 Q1348.47 1568.97 1341.98 1568.97 Q1338.06 1568.97 1335.23 1567.44 Q1332.43 1565.88 1330.58 1562.7 M1350.51 1550.25 Q1350.51 1543.79 1347.84 1540.13 Q1345.19 1536.44 1340.55 1536.44 Q1335.9 1536.44 1333.23 1540.13 Q1330.58 1543.79 1330.58 1550.25 Q1330.58 1556.71 1333.23 1560.4 Q1335.9 1564.07 1340.55 1564.07 Q1345.19 1564.07 1347.84 1560.4 Q1350.51 1556.71 1350.51 1550.25 Z" fill="#000000" fill-rule="nonzero" fill-opacity="1" /><polyline clip-path="url(#clip510)" style="stroke:#000000; stroke-linecap:round; stroke-linejoin:round; stroke-width:4; stroke-opacity:1; fill:none" points="219.866,1423.18 219.866,123.472 "/>
<polyline clip-path="url(#clip510)" style="stroke:#000000; stroke-linecap:round; stroke-linejoin:round; stroke-width:4; stroke-opacity:1; fill:none" points="219.866,1187.67 238.764,1187.67 "/>
<polyline clip-path="url(#clip510)" style="stroke:#000000; stroke-linecap:round; stroke-linejoin:round; stroke-width:4; stroke-opacity:1; fill:none" points="219.866,930.17 238.764,930.17 "/>
<polyline clip-path="url(#clip510)" style="stroke:#000000; stroke-linecap:round; stroke-linejoin:round; stroke-width:4; stroke-opacity:1; fill:none" points="219.866,672.67 238.764,672.67 "/>
<polyline clip-path="url(#clip510)" style="stroke:#000000; stroke-linecap:round; stroke-linejoin:round; stroke-width:4; stroke-opacity:1; fill:none" points="219.866,415.171 238.764,415.171 "/>
<polyline clip-path="url(#clip510)" style="stroke:#000000; stroke-linecap:round; stroke-linejoin:round; stroke-width:4; stroke-opacity:1; fill:none" points="219.866,157.672 238.764,157.672 "/>
<path clip-path="url(#clip510)" d="M128.288 1173.47 Q124.677 1173.47 122.848 1177.03 Q121.043 1180.57 121.043 1187.7 Q121.043 1194.81 122.848 1198.37 Q124.677 1201.92 128.288 1201.92 Q131.922 1201.92 133.728 1198.37 Q135.556 1194.81 135.556 1187.7 Q135.556 1180.57 133.728 1177.03 Q131.922 1173.47 128.288 1173.47 M128.288 1169.76 Q134.098 1169.76 137.154 1174.37 Q140.232 1178.95 140.232 1187.7 Q140.232 1196.43 137.154 1201.04 Q134.098 1205.62 128.288 1205.62 Q122.478 1205.62 119.399 1201.04 Q116.343 1196.43 116.343 1187.7 Q116.343 1178.95 119.399 1174.37 Q122.478 1169.76 128.288 1169.76 Z" fill="#000000" fill-rule="nonzero" fill-opacity="1" /><path clip-path="url(#clip510)" d="M148.45 1199.07 L153.334 1199.07 L153.334 1204.95 L148.45 1204.95 L148.45 1199.07 Z" fill="#000000" fill-rule="nonzero" fill-opacity="1" /><path clip-path="url(#clip510)" d="M167.547 1201.01 L183.866 1201.01 L183.866 1204.95 L161.922 1204.95 L161.922 1201.01 Q164.584 1198.26 169.167 1193.63 Q173.774 1188.98 174.954 1187.63 Q177.2 1185.11 178.079 1183.37 Q178.982 1181.62 178.982 1179.93 Q178.982 1177.17 177.038 1175.44 Q175.116 1173.7 172.014 1173.7 Q169.815 1173.7 167.362 1174.46 Q164.931 1175.23 162.153 1176.78 L162.153 1172.06 Q164.977 1170.92 167.431 1170.34 Q169.885 1169.76 171.922 1169.76 Q177.292 1169.76 180.487 1172.45 Q183.681 1175.13 183.681 1179.62 Q183.681 1181.75 182.871 1183.68 Q182.084 1185.57 179.977 1188.17 Q179.399 1188.84 176.297 1192.06 Q173.195 1195.25 167.547 1201.01 Z" fill="#000000" fill-rule="nonzero" fill-opacity="1" /><path clip-path="url(#clip510)" d="M126.205 915.968 Q122.593 915.968 120.765 919.533 Q118.959 923.075 118.959 930.204 Q118.959 937.311 120.765 940.876 Q122.593 944.417 126.205 944.417 Q129.839 944.417 131.644 940.876 Q133.473 937.311 133.473 930.204 Q133.473 923.075 131.644 919.533 Q129.839 915.968 126.205 915.968 M126.205 912.265 Q132.015 912.265 135.07 916.871 Q138.149 921.454 138.149 930.204 Q138.149 938.931 135.07 943.538 Q132.015 948.121 126.205 948.121 Q120.394 948.121 117.316 943.538 Q114.26 938.931 114.26 930.204 Q114.26 921.454 117.316 916.871 Q120.394 912.265 126.205 912.265 Z" fill="#000000" fill-rule="nonzero" fill-opacity="1" /><path clip-path="url(#clip510)" d="M146.366 941.57 L151.251 941.57 L151.251 947.45 L146.366 947.45 L146.366 941.57 Z" fill="#000000" fill-rule="nonzero" fill-opacity="1" /><path clip-path="url(#clip510)" d="M174.283 916.964 L162.477 935.413 L174.283 935.413 L174.283 916.964 M173.056 912.89 L178.936 912.89 L178.936 935.413 L183.866 935.413 L183.866 939.302 L178.936 939.302 L178.936 947.45 L174.283 947.45 L174.283 939.302 L158.681 939.302 L158.681 934.788 L173.056 912.89 Z" fill="#000000" fill-rule="nonzero" fill-opacity="1" /><path clip-path="url(#clip510)" d="M126.529 658.469 Q122.918 658.469 121.089 662.034 Q119.283 665.575 119.283 672.705 Q119.283 679.812 121.089 683.376 Q122.918 686.918 126.529 686.918 Q130.163 686.918 131.968 683.376 Q133.797 679.812 133.797 672.705 Q133.797 665.575 131.968 662.034 Q130.163 658.469 126.529 658.469 M126.529 654.765 Q132.339 654.765 135.394 659.372 Q138.473 663.955 138.473 672.705 Q138.473 681.432 135.394 686.038 Q132.339 690.622 126.529 690.622 Q120.718 690.622 117.64 686.038 Q114.584 681.432 114.584 672.705 Q114.584 663.955 117.64 659.372 Q120.718 654.765 126.529 654.765 Z" fill="#000000" fill-rule="nonzero" fill-opacity="1" /><path clip-path="url(#clip510)" d="M146.691 684.071 L151.575 684.071 L151.575 689.95 L146.691 689.95 L146.691 684.071 Z" fill="#000000" fill-rule="nonzero" fill-opacity="1" /><path clip-path="url(#clip510)" d="M172.339 670.807 Q169.19 670.807 167.339 672.96 Q165.51 675.112 165.51 678.862 Q165.51 682.589 167.339 684.765 Q169.19 686.918 172.339 686.918 Q175.487 686.918 177.315 684.765 Q179.167 682.589 179.167 678.862 Q179.167 675.112 177.315 672.96 Q175.487 670.807 172.339 670.807 M181.621 656.154 L181.621 660.413 Q179.862 659.58 178.056 659.14 Q176.274 658.701 174.514 658.701 Q169.885 658.701 167.431 661.826 Q165.001 664.951 164.653 671.27 Q166.019 669.256 168.079 668.191 Q170.139 667.103 172.616 667.103 Q177.825 667.103 180.834 670.275 Q183.866 673.423 183.866 678.862 Q183.866 684.187 180.718 687.404 Q177.57 690.622 172.339 690.622 Q166.343 690.622 163.172 686.038 Q160.001 681.432 160.001 672.705 Q160.001 664.511 163.89 659.65 Q167.778 654.765 174.329 654.765 Q176.089 654.765 177.871 655.113 Q179.676 655.46 181.621 656.154 Z" fill="#000000" fill-rule="nonzero" fill-opacity="1" /><path clip-path="url(#clip510)" d="M126.783 400.97 Q123.172 400.97 121.343 404.535 Q119.538 408.076 119.538 415.206 Q119.538 422.312 121.343 425.877 Q123.172 429.419 126.783 429.419 Q130.417 429.419 132.223 425.877 Q134.052 422.312 134.052 415.206 Q134.052 408.076 132.223 404.535 Q130.417 400.97 126.783 400.97 M126.783 397.266 Q132.593 397.266 135.649 401.873 Q138.728 406.456 138.728 415.206 Q138.728 423.933 135.649 428.539 Q132.593 433.122 126.783 433.122 Q120.973 433.122 117.894 428.539 Q114.839 423.933 114.839 415.206 Q114.839 406.456 117.894 401.873 Q120.973 397.266 126.783 397.266 Z" fill="#000000" fill-rule="nonzero" fill-opacity="1" /><path clip-path="url(#clip510)" d="M146.945 426.572 L151.829 426.572 L151.829 432.451 L146.945 432.451 L146.945 426.572 Z" fill="#000000" fill-rule="nonzero" fill-opacity="1" /><path clip-path="url(#clip510)" d="M172.014 416.039 Q168.681 416.039 166.76 417.822 Q164.862 419.604 164.862 422.729 Q164.862 425.854 166.76 427.636 Q168.681 429.419 172.014 429.419 Q175.348 429.419 177.269 427.636 Q179.19 425.831 179.19 422.729 Q179.19 419.604 177.269 417.822 Q175.371 416.039 172.014 416.039 M167.339 414.048 Q164.329 413.308 162.64 411.248 Q160.973 409.187 160.973 406.224 Q160.973 402.081 163.913 399.674 Q166.876 397.266 172.014 397.266 Q177.176 397.266 180.116 399.674 Q183.056 402.081 183.056 406.224 Q183.056 409.187 181.366 411.248 Q179.7 413.308 176.714 414.048 Q180.093 414.835 181.968 417.127 Q183.866 419.419 183.866 422.729 Q183.866 427.752 180.788 430.437 Q177.732 433.122 172.014 433.122 Q166.297 433.122 163.218 430.437 Q160.163 427.752 160.163 422.729 Q160.163 419.419 162.061 417.127 Q163.959 414.835 167.339 414.048 M165.626 406.664 Q165.626 409.349 167.292 410.854 Q168.982 412.359 172.014 412.359 Q175.024 412.359 176.714 410.854 Q178.426 409.349 178.426 406.664 Q178.426 403.979 176.714 402.474 Q175.024 400.97 172.014 400.97 Q168.982 400.97 167.292 402.474 Q165.626 403.979 165.626 406.664 Z" fill="#000000" fill-rule="nonzero" fill-opacity="1" /><path clip-path="url(#clip510)" d="M117.501 171.017 L125.14 171.017 L125.14 144.651 L116.83 146.318 L116.83 142.059 L125.093 140.392 L129.769 140.392 L129.769 171.017 L137.408 171.017 L137.408 174.952 L117.501 174.952 L117.501 171.017 Z" fill="#000000" fill-rule="nonzero" fill-opacity="1" /><path clip-path="url(#clip510)" d="M146.853 169.072 L151.737 169.072 L151.737 174.952 L146.853 174.952 L146.853 169.072 Z" fill="#000000" fill-rule="nonzero" fill-opacity="1" /><path clip-path="url(#clip510)" d="M171.922 143.471 Q168.311 143.471 166.482 147.035 Q164.677 150.577 164.677 157.707 Q164.677 164.813 166.482 168.378 Q168.311 171.919 171.922 171.919 Q175.556 171.919 177.362 168.378 Q179.19 164.813 179.19 157.707 Q179.19 150.577 177.362 147.035 Q175.556 143.471 171.922 143.471 M171.922 139.767 Q177.732 139.767 180.788 144.373 Q183.866 148.957 183.866 157.707 Q183.866 166.433 180.788 171.04 Q177.732 175.623 171.922 175.623 Q166.112 175.623 163.033 171.04 Q159.978 166.433 159.978 157.707 Q159.978 148.957 163.033 144.373 Q166.112 139.767 171.922 139.767 Z" fill="#000000" fill-rule="nonzero" fill-opacity="1" /><path clip-path="url(#clip510)" d="M20.8447 1022.02 Q20.8447 1029.02 26.0645 1033.16 Q31.2844 1037.26 40.2919 1037.26 Q49.2675 1037.26 54.4874 1033.16 Q59.7073 1029.02 59.7073 1022.02 Q59.7073 1015.02 54.4874 1010.94 Q49.2675 1006.84 40.2919 1006.84 Q31.2844 1006.84 26.0645 1010.94 Q20.8447 1015.02 20.8447 1022.02 M15.6248 1022.02 Q15.6248 1012.02 22.3406 1006.04 Q29.0246 1000.06 40.2919 1000.06 Q51.5274 1000.06 58.2432 1006.04 Q64.9272 1012.02 64.9272 1022.02 Q64.9272 1032.04 58.2432 1038.06 Q51.5592 1044.04 40.2919 1044.04 Q29.0246 1044.04 22.3406 1038.06 Q15.6248 1032.04 15.6248 1022.02 Z" fill="#000000" fill-rule="nonzero" fill-opacity="1" /><path clip-path="url(#clip510)" d="M33.8307 969.597 Q33.2578 970.583 33.0032 971.761 Q32.7167 972.907 32.7167 974.307 Q32.7167 979.273 35.9632 981.946 Q39.1779 984.588 45.2253 984.588 L64.0042 984.588 L64.0042 990.476 L28.3562 990.476 L28.3562 984.588 L33.8944 984.588 Q30.6479 982.742 29.0883 979.782 Q27.4968 976.822 27.4968 972.589 Q27.4968 971.984 27.5923 971.252 Q27.656 970.52 27.8151 969.628 L33.8307 969.597 Z" fill="#000000" fill-rule="nonzero" fill-opacity="1" /><path clip-path="url(#clip510)" d="M33.7671 941.142 L14.479 941.142 L14.479 935.285 L64.0042 935.285 L64.0042 941.142 L58.657 941.142 Q61.8398 942.988 63.3994 945.821 Q64.9272 948.622 64.9272 952.568 Q64.9272 959.03 59.771 963.104 Q54.6147 967.146 46.212 967.146 Q37.8093 967.146 32.6531 963.104 Q27.4968 959.03 27.4968 952.568 Q27.4968 948.622 29.0564 945.821 Q30.5842 942.988 33.7671 941.142 M46.212 961.098 Q52.6732 961.098 56.3653 958.457 Q60.0256 955.783 60.0256 951.136 Q60.0256 946.489 56.3653 943.816 Q52.6732 941.142 46.212 941.142 Q39.7508 941.142 36.0905 943.816 Q32.3984 946.489 32.3984 951.136 Q32.3984 955.783 36.0905 958.457 Q39.7508 961.098 46.212 961.098 Z" fill="#000000" fill-rule="nonzero" fill-opacity="1" /><path clip-path="url(#clip510)" d="M44.7161 892.731 L47.5806 892.731 L47.5806 919.658 Q53.6281 919.276 56.8109 916.029 Q59.9619 912.751 59.9619 906.926 Q59.9619 903.552 59.1344 900.401 Q58.3069 897.219 56.6518 894.099 L62.1899 894.099 Q63.5267 897.25 64.227 900.561 Q64.9272 903.871 64.9272 907.276 Q64.9272 915.806 59.9619 920.803 Q54.9967 925.769 46.5303 925.769 Q37.7774 925.769 32.6531 921.058 Q27.4968 916.316 27.4968 908.295 Q27.4968 901.102 32.1438 896.932 Q36.7589 892.731 44.7161 892.731 M42.9973 898.587 Q38.1912 898.651 35.3266 901.293 Q32.4621 903.903 32.4621 908.231 Q32.4621 913.133 35.2312 916.093 Q38.0002 919.021 43.0292 919.467 L42.9973 898.587 Z" fill="#000000" fill-rule="nonzero" fill-opacity="1" /><path clip-path="url(#clip510)" d="M33.8307 862.462 Q33.2578 863.448 33.0032 864.626 Q32.7167 865.772 32.7167 867.172 Q32.7167 872.138 35.9632 874.811 Q39.1779 877.453 45.2253 877.453 L64.0042 877.453 L64.0042 883.341 L28.3562 883.341 L28.3562 877.453 L33.8944 877.453 Q30.6479 875.607 29.0883 872.647 Q27.4968 869.687 27.4968 865.454 Q27.4968 864.849 27.5923 864.117 Q27.656 863.385 27.8151 862.494 L33.8307 862.462 Z" fill="#000000" fill-rule="nonzero" fill-opacity="1" /><path clip-path="url(#clip510)" d="M21.7677 828.915 L39.6235 828.915 L39.6235 820.83 Q39.6235 816.342 37.3 813.891 Q34.9765 811.441 30.6797 811.441 Q26.4147 811.441 24.0912 813.891 Q21.7677 816.342 21.7677 820.83 L21.7677 828.915 M16.4842 835.344 L16.4842 820.83 Q16.4842 812.841 20.1126 808.767 Q23.7092 804.661 30.6797 804.661 Q37.7138 804.661 41.3104 808.767 Q44.907 812.841 44.907 820.83 L44.907 828.915 L64.0042 828.915 L64.0042 835.344 L16.4842 835.344 Z" fill="#000000" fill-rule="nonzero" fill-opacity="1" /><path clip-path="url(#clip510)" d="M46.0847 783.018 Q46.0847 790.116 47.7079 792.853 Q49.3312 795.59 53.2461 795.59 Q56.3653 795.59 58.2114 793.553 Q60.0256 791.484 60.0256 787.951 Q60.0256 783.081 56.5881 780.153 Q53.1188 777.193 47.3897 777.193 L46.0847 777.193 L46.0847 783.018 M43.6657 771.337 L64.0042 771.337 L64.0042 777.193 L58.5933 777.193 Q61.8398 779.198 63.3994 782.19 Q64.9272 785.182 64.9272 789.511 Q64.9272 794.985 61.8716 798.232 Q58.7843 801.446 53.6281 801.446 Q47.6125 801.446 44.5569 797.436 Q41.5014 793.394 41.5014 785.405 L41.5014 777.193 L40.9285 777.193 Q36.8862 777.193 34.6901 779.867 Q32.4621 782.509 32.4621 787.315 Q32.4621 790.37 33.1941 793.267 Q33.9262 796.163 35.3903 798.837 L29.9795 798.837 Q28.7381 795.622 28.1334 792.598 Q27.4968 789.574 27.4968 786.71 Q27.4968 778.976 31.5072 775.156 Q35.5176 771.337 43.6657 771.337 Z" fill="#000000" fill-rule="nonzero" fill-opacity="1" /><path clip-path="url(#clip510)" d="M33.8307 738.617 Q33.2578 739.604 33.0032 740.781 Q32.7167 741.927 32.7167 743.328 Q32.7167 748.293 35.9632 750.966 Q39.1779 753.608 45.2253 753.608 L64.0042 753.608 L64.0042 759.496 L28.3562 759.496 L28.3562 753.608 L33.8944 753.608 Q30.6479 751.762 29.0883 748.802 Q27.4968 745.842 27.4968 741.609 Q27.4968 741.004 27.5923 740.272 Q27.656 739.54 27.8151 738.649 L33.8307 738.617 Z" fill="#000000" fill-rule="nonzero" fill-opacity="1" /><path clip-path="url(#clip510)" d="M46.0847 716.273 Q46.0847 723.371 47.7079 726.108 Q49.3312 728.846 53.2461 728.846 Q56.3653 728.846 58.2114 726.809 Q60.0256 724.74 60.0256 721.207 Q60.0256 716.337 56.5881 713.409 Q53.1188 710.449 47.3897 710.449 L46.0847 710.449 L46.0847 716.273 M43.6657 704.592 L64.0042 704.592 L64.0042 710.449 L58.5933 710.449 Q61.8398 712.454 63.3994 715.446 Q64.9272 718.438 64.9272 722.766 Q64.9272 728.241 61.8716 731.487 Q58.7843 734.702 53.6281 734.702 Q47.6125 734.702 44.5569 730.692 Q41.5014 726.649 41.5014 718.66 L41.5014 710.449 L40.9285 710.449 Q36.8862 710.449 34.6901 713.122 Q32.4621 715.764 32.4621 720.57 Q32.4621 723.626 33.1941 726.522 Q33.9262 729.419 35.3903 732.092 L29.9795 732.092 Q28.7381 728.877 28.1334 725.854 Q27.4968 722.83 27.4968 719.965 Q27.4968 712.231 31.5072 708.412 Q35.5176 704.592 43.6657 704.592 Z" fill="#000000" fill-rule="nonzero" fill-opacity="1" /><path clip-path="url(#clip510)" d="M35.1993 664.775 Q31.2526 662.579 29.3747 659.523 Q27.4968 656.468 27.4968 652.33 Q27.4968 646.76 31.4117 643.736 Q35.2948 640.712 42.4881 640.712 L64.0042 640.712 L64.0042 646.601 L42.679 646.601 Q37.5546 646.601 35.072 648.415 Q32.5894 650.229 32.5894 653.953 Q32.5894 658.505 35.6131 661.146 Q38.6368 663.788 43.8567 663.788 L64.0042 663.788 L64.0042 669.676 L42.679 669.676 Q37.5228 669.676 35.072 671.491 Q32.5894 673.305 32.5894 677.092 Q32.5894 681.58 35.6449 684.222 Q38.6686 686.864 43.8567 686.864 L64.0042 686.864 L64.0042 692.752 L28.3562 692.752 L28.3562 686.864 L33.8944 686.864 Q30.616 684.859 29.0564 682.058 Q27.4968 679.257 27.4968 675.406 Q27.4968 671.522 29.4702 668.817 Q31.4436 666.08 35.1993 664.775 Z" fill="#000000" fill-rule="nonzero" fill-opacity="1" /><path clip-path="url(#clip510)" d="M44.7161 598.54 L47.5806 598.54 L47.5806 625.467 Q53.6281 625.085 56.8109 621.838 Q59.9619 618.56 59.9619 612.735 Q59.9619 609.361 59.1344 606.21 Q58.3069 603.027 56.6518 599.908 L62.1899 599.908 Q63.5267 603.059 64.227 606.369 Q64.9272 609.68 64.9272 613.085 Q64.9272 621.615 59.9619 626.612 Q54.9967 631.578 46.5303 631.578 Q37.7774 631.578 32.6531 626.867 Q27.4968 622.125 27.4968 614.104 Q27.4968 606.91 32.1438 602.741 Q36.7589 598.54 44.7161 598.54 M42.9973 604.396 Q38.1912 604.46 35.3266 607.101 Q32.4621 609.711 32.4621 614.04 Q32.4621 618.942 35.2312 621.902 Q38.0002 624.83 43.0292 625.276 L42.9973 604.396 Z" fill="#000000" fill-rule="nonzero" fill-opacity="1" /><path clip-path="url(#clip510)" d="M18.2347 583.135 L28.3562 583.135 L28.3562 571.072 L32.9077 571.072 L32.9077 583.135 L52.2594 583.135 Q56.6199 583.135 57.8613 581.957 Q59.1026 580.747 59.1026 577.087 L59.1026 571.072 L64.0042 571.072 L64.0042 577.087 Q64.0042 583.867 61.4897 586.445 Q58.9434 589.023 52.2594 589.023 L32.9077 589.023 L32.9077 593.32 L28.3562 593.32 L28.3562 589.023 L18.2347 589.023 L18.2347 583.135 Z" fill="#000000" fill-rule="nonzero" fill-opacity="1" /><path clip-path="url(#clip510)" d="M44.7161 532.877 L47.5806 532.877 L47.5806 559.804 Q53.6281 559.422 56.8109 556.176 Q59.9619 552.897 59.9619 547.073 Q59.9619 543.699 59.1344 540.548 Q58.3069 537.365 56.6518 534.246 L62.1899 534.246 Q63.5267 537.397 64.227 540.707 Q64.9272 544.017 64.9272 547.423 Q64.9272 555.953 59.9619 560.95 Q54.9967 565.915 46.5303 565.915 Q37.7774 565.915 32.6531 561.205 Q27.4968 556.462 27.4968 548.441 Q27.4968 541.248 32.1438 537.079 Q36.7589 532.877 44.7161 532.877 M42.9973 538.734 Q38.1912 538.797 35.3266 541.439 Q32.4621 544.049 32.4621 548.378 Q32.4621 553.279 35.2312 556.239 Q38.0002 559.168 43.0292 559.613 L42.9973 538.734 Z" fill="#000000" fill-rule="nonzero" fill-opacity="1" /><path clip-path="url(#clip510)" d="M33.8307 502.608 Q33.2578 503.595 33.0032 504.773 Q32.7167 505.919 32.7167 507.319 Q32.7167 512.284 35.9632 514.958 Q39.1779 517.6 45.2253 517.6 L64.0042 517.6 L64.0042 523.488 L28.3562 523.488 L28.3562 517.6 L33.8944 517.6 Q30.6479 515.754 29.0883 512.794 Q27.4968 509.833 27.4968 505.6 Q27.4968 504.996 27.5923 504.263 Q27.656 503.531 27.8151 502.64 L33.8307 502.608 Z" fill="#000000" fill-rule="nonzero" fill-opacity="1" /><path clip-path="url(#clip510)" d="M711.771 17.6457 Q702.859 17.6457 697.593 24.2892 Q692.368 30.9327 692.368 42.3968 Q692.368 53.8203 697.593 60.4638 Q702.859 67.1073 711.771 67.1073 Q720.683 67.1073 725.868 60.4638 Q731.094 53.8203 731.094 42.3968 Q731.094 30.9327 725.868 24.2892 Q720.683 17.6457 711.771 17.6457 M711.771 11.0023 Q724.491 11.0023 732.107 19.5497 Q739.723 28.0566 739.723 42.3968 Q739.723 56.6965 732.107 65.2439 Q724.491 73.7508 711.771 73.7508 Q699.011 73.7508 691.355 65.2439 Q683.739 56.737 683.739 42.3968 Q683.739 28.0566 691.355 19.5497 Q699.011 11.0023 711.771 11.0023 Z" fill="#000000" fill-rule="nonzero" fill-opacity="1" /><path clip-path="url(#clip510)" d="M778.49 34.1734 Q777.234 33.4443 775.735 33.1202 Q774.277 32.7556 772.494 32.7556 Q766.175 32.7556 762.772 36.8875 Q759.41 40.9789 759.41 48.6757 L759.41 72.576 L751.916 72.576 L751.916 27.2059 L759.41 27.2059 L759.41 34.2544 Q761.759 30.1225 765.527 28.1376 Q769.294 26.1121 774.682 26.1121 Q775.452 26.1121 776.383 26.2337 Q777.315 26.3147 778.449 26.5172 L778.49 34.1734 Z" fill="#000000" fill-rule="nonzero" fill-opacity="1" /><path clip-path="url(#clip510)" d="M814.705 34.0924 L814.705 9.54393 L822.158 9.54393 L822.158 72.576 L814.705 72.576 L814.705 65.7705 Q812.355 69.8214 808.75 71.8063 Q805.185 73.7508 800.162 73.7508 Q791.939 73.7508 786.754 67.1883 Q781.609 60.6258 781.609 49.9314 Q781.609 39.2371 786.754 32.6746 Q791.939 26.1121 800.162 26.1121 Q805.185 26.1121 808.75 28.0971 Q812.355 30.0415 814.705 34.0924 M789.306 49.9314 Q789.306 58.1548 792.668 62.8538 Q796.071 67.5124 801.985 67.5124 Q807.899 67.5124 811.302 62.8538 Q814.705 58.1548 814.705 49.9314 Q814.705 41.7081 811.302 37.0496 Q807.899 32.3505 801.985 32.3505 Q796.071 32.3505 792.668 37.0496 Q789.306 41.7081 789.306 49.9314 Z" fill="#000000" fill-rule="nonzero" fill-opacity="1" /><path clip-path="url(#clip510)" d="M876.319 48.0275 L876.319 51.6733 L842.048 51.6733 Q842.535 59.3701 846.666 63.421 Q850.839 67.4314 858.252 67.4314 Q862.546 67.4314 866.556 66.3781 Q870.607 65.3249 874.577 63.2184 L874.577 70.267 Q870.567 71.9684 866.354 72.8596 Q862.141 73.7508 857.806 73.7508 Q846.95 73.7508 840.59 67.4314 Q834.271 61.1119 834.271 50.3365 Q834.271 39.1965 840.266 32.6746 Q846.302 26.1121 856.51 26.1121 Q865.665 26.1121 870.972 32.0264 Q876.319 37.9003 876.319 48.0275 M868.865 45.84 Q868.784 39.7232 865.422 36.0774 Q862.1 32.4315 856.591 32.4315 Q850.353 32.4315 846.585 35.9558 Q842.859 39.4801 842.291 45.8805 L868.865 45.84 Z" fill="#000000" fill-rule="nonzero" fill-opacity="1" /><path clip-path="url(#clip510)" d="M914.843 34.1734 Q913.587 33.4443 912.089 33.1202 Q910.63 32.7556 908.848 32.7556 Q902.528 32.7556 899.126 36.8875 Q895.763 40.9789 895.763 48.6757 L895.763 72.576 L888.269 72.576 L888.269 27.2059 L895.763 27.2059 L895.763 34.2544 Q898.113 30.1225 901.88 28.1376 Q905.648 26.1121 911.035 26.1121 Q911.805 26.1121 912.737 26.2337 Q913.668 26.3147 914.803 26.5172 L914.843 34.1734 Z" fill="#000000" fill-rule="nonzero" fill-opacity="1" /><path clip-path="url(#clip510)" d="M957.54 18.8205 L957.54 41.5461 L967.829 41.5461 Q973.541 41.5461 976.66 38.5889 Q979.779 35.6318 979.779 30.163 Q979.779 24.7348 976.66 21.7777 Q973.541 18.8205 967.829 18.8205 L957.54 18.8205 M949.357 12.096 L967.829 12.096 Q977.997 12.096 983.182 16.714 Q988.408 21.2916 988.408 30.163 Q988.408 39.1155 983.182 43.6931 Q977.997 48.2706 967.829 48.2706 L957.54 48.2706 L957.54 72.576 L949.357 72.576 L949.357 12.096 Z" fill="#000000" fill-rule="nonzero" fill-opacity="1" /><path clip-path="url(#clip510)" d="M1015.95 49.7694 Q1006.92 49.7694 1003.44 51.8354 Q999.953 53.9013 999.953 58.8839 Q999.953 62.8538 1002.55 65.2034 Q1005.18 67.5124 1009.67 67.5124 Q1015.87 67.5124 1019.6 63.1374 Q1023.37 58.7219 1023.37 51.4303 L1023.37 49.7694 L1015.95 49.7694 M1030.82 46.6907 L1030.82 72.576 L1023.37 72.576 L1023.37 65.6895 Q1020.81 69.8214 1017.01 71.8063 Q1013.2 73.7508 1007.69 73.7508 Q1000.72 73.7508 996.59 69.8619 Q992.499 65.9325 992.499 59.3701 Q992.499 51.7138 997.603 47.825 Q1002.75 43.9361 1012.92 43.9361 L1023.37 43.9361 L1023.37 43.2069 Q1023.37 38.0623 1019.96 35.2672 Q1016.6 32.4315 1010.49 32.4315 Q1006.6 32.4315 1002.91 33.3632 Q999.224 34.295 995.821 36.1584 L995.821 29.2718 Q999.912 27.692 1003.76 26.9223 Q1007.61 26.1121 1011.25 26.1121 Q1021.1 26.1121 1025.96 31.2163 Q1030.82 36.3204 1030.82 46.6907 Z" fill="#000000" fill-rule="nonzero" fill-opacity="1" /><path clip-path="url(#clip510)" d="M1072.46 34.1734 Q1071.21 33.4443 1069.71 33.1202 Q1068.25 32.7556 1066.47 32.7556 Q1060.15 32.7556 1056.75 36.8875 Q1053.38 40.9789 1053.38 48.6757 L1053.38 72.576 L1045.89 72.576 L1045.89 27.2059 L1053.38 27.2059 L1053.38 34.2544 Q1055.73 30.1225 1059.5 28.1376 Q1063.27 26.1121 1068.66 26.1121 Q1069.43 26.1121 1070.36 26.2337 Q1071.29 26.3147 1072.42 26.5172 L1072.46 34.1734 Z" fill="#000000" fill-rule="nonzero" fill-opacity="1" /><path clip-path="url(#clip510)" d="M1100.9 49.7694 Q1091.87 49.7694 1088.38 51.8354 Q1084.9 53.9013 1084.9 58.8839 Q1084.9 62.8538 1087.49 65.2034 Q1090.13 67.5124 1094.62 67.5124 Q1100.82 67.5124 1104.55 63.1374 Q1108.31 58.7219 1108.31 51.4303 L1108.31 49.7694 L1100.9 49.7694 M1115.77 46.6907 L1115.77 72.576 L1108.31 72.576 L1108.31 65.6895 Q1105.76 69.8214 1101.95 71.8063 Q1098.15 73.7508 1092.64 73.7508 Q1085.67 73.7508 1081.54 69.8619 Q1077.45 65.9325 1077.45 59.3701 Q1077.45 51.7138 1082.55 47.825 Q1087.7 43.9361 1097.86 43.9361 L1108.31 43.9361 L1108.31 43.2069 Q1108.31 38.0623 1104.91 35.2672 Q1101.55 32.4315 1095.43 32.4315 Q1091.54 32.4315 1087.86 33.3632 Q1084.17 34.295 1080.77 36.1584 L1080.77 29.2718 Q1084.86 27.692 1088.71 26.9223 Q1092.56 26.1121 1096.2 26.1121 Q1106.05 26.1121 1110.91 31.2163 Q1115.77 36.3204 1115.77 46.6907 Z" fill="#000000" fill-rule="nonzero" fill-opacity="1" /><path clip-path="url(#clip510)" d="M1166.44 35.9153 Q1169.24 30.8922 1173.13 28.5022 Q1177.02 26.1121 1182.28 26.1121 Q1189.37 26.1121 1193.22 31.0947 Q1197.07 36.0368 1197.07 45.1919 L1197.07 72.576 L1189.58 72.576 L1189.58 45.4349 Q1189.58 38.913 1187.27 35.7533 Q1184.96 32.5936 1180.22 32.5936 Q1174.43 32.5936 1171.06 36.4419 Q1167.7 40.2903 1167.7 46.9338 L1167.7 72.576 L1160.21 72.576 L1160.21 45.4349 Q1160.21 38.8725 1157.9 35.7533 Q1155.59 32.5936 1150.77 32.5936 Q1145.06 32.5936 1141.69 36.4824 Q1138.33 40.3308 1138.33 46.9338 L1138.33 72.576 L1130.84 72.576 L1130.84 27.2059 L1138.33 27.2059 L1138.33 34.2544 Q1140.88 30.082 1144.45 28.0971 Q1148.01 26.1121 1152.91 26.1121 Q1157.86 26.1121 1161.3 28.6237 Q1164.78 31.1352 1166.44 35.9153 Z" fill="#000000" fill-rule="nonzero" fill-opacity="1" /><path clip-path="url(#clip510)" d="M1250.74 48.0275 L1250.74 51.6733 L1216.47 51.6733 Q1216.96 59.3701 1221.09 63.421 Q1225.26 67.4314 1232.68 67.4314 Q1236.97 67.4314 1240.98 66.3781 Q1245.03 65.3249 1249 63.2184 L1249 70.267 Q1244.99 71.9684 1240.78 72.8596 Q1236.57 73.7508 1232.23 73.7508 Q1221.38 73.7508 1215.02 67.4314 Q1208.7 61.1119 1208.7 50.3365 Q1208.7 39.1965 1214.69 32.6746 Q1220.73 26.1121 1230.94 26.1121 Q1240.09 26.1121 1245.4 32.0264 Q1250.74 37.9003 1250.74 48.0275 M1243.29 45.84 Q1243.21 39.7232 1239.85 36.0774 Q1236.53 32.4315 1231.02 32.4315 Q1224.78 32.4315 1221.01 35.9558 Q1217.28 39.4801 1216.72 45.8805 L1243.29 45.84 Z" fill="#000000" fill-rule="nonzero" fill-opacity="1" /><path clip-path="url(#clip510)" d="M1270.35 14.324 L1270.35 27.2059 L1285.7 27.2059 L1285.7 32.9987 L1270.35 32.9987 L1270.35 57.6282 Q1270.35 63.1779 1271.85 64.7578 Q1273.39 66.3376 1278.05 66.3376 L1285.7 66.3376 L1285.7 72.576 L1278.05 72.576 Q1269.42 72.576 1266.14 69.3758 Q1262.86 66.1351 1262.86 57.6282 L1262.86 32.9987 L1257.39 32.9987 L1257.39 27.2059 L1262.86 27.2059 L1262.86 14.324 L1270.35 14.324 Z" fill="#000000" fill-rule="nonzero" fill-opacity="1" /><path clip-path="url(#clip510)" d="M1334.31 48.0275 L1334.31 51.6733 L1300.04 51.6733 Q1300.53 59.3701 1304.66 63.421 Q1308.83 67.4314 1316.25 67.4314 Q1320.54 67.4314 1324.55 66.3781 Q1328.6 65.3249 1332.57 63.2184 L1332.57 70.267 Q1328.56 71.9684 1324.35 72.8596 Q1320.14 73.7508 1315.8 73.7508 Q1304.95 73.7508 1298.59 67.4314 Q1292.27 61.1119 1292.27 50.3365 Q1292.27 39.1965 1298.26 32.6746 Q1304.3 26.1121 1314.51 26.1121 Q1323.66 26.1121 1328.97 32.0264 Q1334.31 37.9003 1334.31 48.0275 M1326.86 45.84 Q1326.78 39.7232 1323.42 36.0774 Q1320.1 32.4315 1314.59 32.4315 Q1308.35 32.4315 1304.58 35.9558 Q1300.85 39.4801 1300.29 45.8805 L1326.86 45.84 Z" fill="#000000" fill-rule="nonzero" fill-opacity="1" /><path clip-path="url(#clip510)" d="M1372.84 34.1734 Q1371.58 33.4443 1370.08 33.1202 Q1368.63 32.7556 1366.84 32.7556 Q1360.52 32.7556 1357.12 36.8875 Q1353.76 40.9789 1353.76 48.6757 L1353.76 72.576 L1346.26 72.576 L1346.26 27.2059 L1353.76 27.2059 L1353.76 34.2544 Q1356.11 30.1225 1359.88 28.1376 Q1363.64 26.1121 1369.03 26.1121 Q1369.8 26.1121 1370.73 26.2337 Q1371.66 26.3147 1372.8 26.5172 L1372.84 34.1734 Z" fill="#000000" fill-rule="nonzero" fill-opacity="1" /><path clip-path="url(#clip510)" d="M1452.64 16.7545 L1452.64 25.383 Q1448.51 21.5346 1443.81 19.6307 Q1439.15 17.7268 1433.89 17.7268 Q1423.52 17.7268 1418.01 24.0867 Q1412.5 30.4061 1412.5 42.3968 Q1412.5 54.3469 1418.01 60.7069 Q1423.52 67.0263 1433.89 67.0263 Q1439.15 67.0263 1443.81 65.1223 Q1448.51 63.2184 1452.64 59.3701 L1452.64 67.9175 Q1448.35 70.8341 1443.53 72.2924 Q1438.75 73.7508 1433.4 73.7508 Q1419.67 73.7508 1411.77 65.3654 Q1403.87 56.9395 1403.87 42.3968 Q1403.87 27.8135 1411.77 19.4281 Q1419.67 11.0023 1433.4 11.0023 Q1438.83 11.0023 1443.61 12.4606 Q1448.43 13.8784 1452.64 16.7545 Z" fill="#000000" fill-rule="nonzero" fill-opacity="1" /><path clip-path="url(#clip510)" d="M1482.54 32.4315 Q1476.54 32.4315 1473.06 37.1306 Q1469.57 41.7891 1469.57 49.9314 Q1469.57 58.0738 1473.02 62.7728 Q1476.5 67.4314 1482.54 67.4314 Q1488.49 67.4314 1491.98 62.7323 Q1495.46 58.0333 1495.46 49.9314 Q1495.46 41.8701 1491.98 37.1711 Q1488.49 32.4315 1482.54 32.4315 M1482.54 26.1121 Q1492.26 26.1121 1497.81 32.4315 Q1503.36 38.7509 1503.36 49.9314 Q1503.36 61.0714 1497.81 67.4314 Q1492.26 73.7508 1482.54 73.7508 Q1472.77 73.7508 1467.22 67.4314 Q1461.72 61.0714 1461.72 49.9314 Q1461.72 38.7509 1467.22 32.4315 Q1472.77 26.1121 1482.54 26.1121 Z" fill="#000000" fill-rule="nonzero" fill-opacity="1" /><path clip-path="url(#clip510)" d="M1551.04 35.9153 Q1553.83 30.8922 1557.72 28.5022 Q1561.61 26.1121 1566.88 26.1121 Q1573.97 26.1121 1577.81 31.0947 Q1581.66 36.0368 1581.66 45.1919 L1581.66 72.576 L1574.17 72.576 L1574.17 45.4349 Q1574.17 38.913 1571.86 35.7533 Q1569.55 32.5936 1564.81 32.5936 Q1559.02 32.5936 1555.66 36.4419 Q1552.29 40.2903 1552.29 46.9338 L1552.29 72.576 L1544.8 72.576 L1544.8 45.4349 Q1544.8 38.8725 1542.49 35.7533 Q1540.18 32.5936 1535.36 32.5936 Q1529.65 32.5936 1526.29 36.4824 Q1522.92 40.3308 1522.92 46.9338 L1522.92 72.576 L1515.43 72.576 L1515.43 27.2059 L1522.92 27.2059 L1522.92 34.2544 Q1525.48 30.082 1529.04 28.0971 Q1532.61 26.1121 1537.51 26.1121 Q1542.45 26.1121 1545.89 28.6237 Q1549.38 31.1352 1551.04 35.9153 Z" fill="#000000" fill-rule="nonzero" fill-opacity="1" /><path clip-path="url(#clip510)" d="M1603.74 65.7705 L1603.74 89.8329 L1596.25 89.8329 L1596.25 27.2059 L1603.74 27.2059 L1603.74 34.0924 Q1606.09 30.0415 1609.65 28.0971 Q1613.26 26.1121 1618.24 26.1121 Q1626.51 26.1121 1631.65 32.6746 Q1636.84 39.2371 1636.84 49.9314 Q1636.84 60.6258 1631.65 67.1883 Q1626.51 73.7508 1618.24 73.7508 Q1613.26 73.7508 1609.65 71.8063 Q1606.09 69.8214 1603.74 65.7705 M1629.1 49.9314 Q1629.1 41.7081 1625.7 37.0496 Q1622.33 32.3505 1616.42 32.3505 Q1610.5 32.3505 1607.1 37.0496 Q1603.74 41.7081 1603.74 49.9314 Q1603.74 58.1548 1607.1 62.8538 Q1610.5 67.5124 1616.42 67.5124 Q1622.33 67.5124 1625.7 62.8538 Q1629.1 58.1548 1629.1 49.9314 Z" fill="#000000" fill-rule="nonzero" fill-opacity="1" /><path clip-path="url(#clip510)" d="M1669.81 49.7694 Q1660.78 49.7694 1657.29 51.8354 Q1653.81 53.9013 1653.81 58.8839 Q1653.81 62.8538 1656.4 65.2034 Q1659.03 67.5124 1663.53 67.5124 Q1669.73 67.5124 1673.46 63.1374 Q1677.22 58.7219 1677.22 51.4303 L1677.22 49.7694 L1669.81 49.7694 M1684.68 46.6907 L1684.68 72.576 L1677.22 72.576 L1677.22 65.6895 Q1674.67 69.8214 1670.86 71.8063 Q1667.06 73.7508 1661.55 73.7508 Q1654.58 73.7508 1650.45 69.8619 Q1646.36 65.9325 1646.36 59.3701 Q1646.36 51.7138 1651.46 47.825 Q1656.6 43.9361 1666.77 43.9361 L1677.22 43.9361 L1677.22 43.2069 Q1677.22 38.0623 1673.82 35.2672 Q1670.46 32.4315 1664.34 32.4315 Q1660.45 32.4315 1656.77 33.3632 Q1653.08 34.295 1649.68 36.1584 L1649.68 29.2718 Q1653.77 27.692 1657.62 26.9223 Q1661.47 26.1121 1665.11 26.1121 Q1674.95 26.1121 1679.82 31.2163 Q1684.68 36.3204 1684.68 46.6907 Z" fill="#000000" fill-rule="nonzero" fill-opacity="1" /><path clip-path="url(#clip510)" d="M1726.32 34.1734 Q1725.06 33.4443 1723.57 33.1202 Q1722.11 32.7556 1720.32 32.7556 Q1714.01 32.7556 1710.6 36.8875 Q1707.24 40.9789 1707.24 48.6757 L1707.24 72.576 L1699.75 72.576 L1699.75 27.2059 L1707.24 27.2059 L1707.24 34.2544 Q1709.59 30.1225 1713.36 28.1376 Q1717.12 26.1121 1722.51 26.1121 Q1723.28 26.1121 1724.21 26.2337 Q1725.15 26.3147 1726.28 26.5172 L1726.32 34.1734 Z" fill="#000000" fill-rule="nonzero" fill-opacity="1" /><path clip-path="url(#clip510)" d="M1734.14 27.2059 L1741.59 27.2059 L1741.59 72.576 L1734.14 72.576 L1734.14 27.2059 M1734.14 9.54393 L1741.59 9.54393 L1741.59 18.9825 L1734.14 18.9825 L1734.14 9.54393 Z" fill="#000000" fill-rule="nonzero" fill-opacity="1" /><path clip-path="url(#clip510)" d="M1786.11 28.5427 L1786.11 35.5912 Q1782.95 33.9709 1779.55 33.1607 Q1776.15 32.3505 1772.5 32.3505 Q1766.95 32.3505 1764.16 34.0519 Q1761.4 35.7533 1761.4 39.156 Q1761.4 41.7486 1763.39 43.2475 Q1765.37 44.7058 1771.37 46.0426 L1773.92 46.6097 Q1781.86 48.3111 1785.18 51.4303 Q1788.54 54.509 1788.54 60.0587 Q1788.54 66.3781 1783.52 70.0644 Q1778.54 73.7508 1769.79 73.7508 Q1766.14 73.7508 1762.17 73.0216 Q1758.24 72.3329 1753.87 70.9151 L1753.87 63.2184 Q1758 65.3654 1762.01 66.4591 Q1766.02 67.5124 1769.95 67.5124 Q1775.21 67.5124 1778.05 65.73 Q1780.89 63.9071 1780.89 60.6258 Q1780.89 57.5877 1778.82 55.9673 Q1776.79 54.3469 1769.87 52.8481 L1767.27 52.2405 Q1760.35 50.7821 1757.27 47.7845 Q1754.19 44.7463 1754.19 39.4801 Q1754.19 33.0797 1758.73 29.5959 Q1763.26 26.1121 1771.61 26.1121 Q1775.74 26.1121 1779.39 26.7198 Q1783.03 27.3274 1786.11 28.5427 Z" fill="#000000" fill-rule="nonzero" fill-opacity="1" /><path clip-path="url(#clip510)" d="M1817.99 32.4315 Q1812 32.4315 1808.51 37.1306 Q1805.03 41.7891 1805.03 49.9314 Q1805.03 58.0738 1808.47 62.7728 Q1811.96 67.4314 1817.99 67.4314 Q1823.95 67.4314 1827.43 62.7323 Q1830.91 58.0333 1830.91 49.9314 Q1830.91 41.8701 1827.43 37.1711 Q1823.95 32.4315 1817.99 32.4315 M1817.99 26.1121 Q1827.71 26.1121 1833.26 32.4315 Q1838.81 38.7509 1838.81 49.9314 Q1838.81 61.0714 1833.26 67.4314 Q1827.71 73.7508 1817.99 73.7508 Q1808.23 73.7508 1802.68 67.4314 Q1797.17 61.0714 1797.17 49.9314 Q1797.17 38.7509 1802.68 32.4315 Q1808.23 26.1121 1817.99 26.1121 Z" fill="#000000" fill-rule="nonzero" fill-opacity="1" /><path clip-path="url(#clip510)" d="M1888.88 45.1919 L1888.88 72.576 L1881.43 72.576 L1881.43 45.4349 Q1881.43 38.994 1878.92 35.7938 Q1876.41 32.5936 1871.38 32.5936 Q1865.35 32.5936 1861.86 36.4419 Q1858.38 40.2903 1858.38 46.9338 L1858.38 72.576 L1850.89 72.576 L1850.89 27.2059 L1858.38 27.2059 L1858.38 34.2544 Q1861.05 30.163 1864.66 28.1376 Q1868.3 26.1121 1873.04 26.1121 Q1880.86 26.1121 1884.87 30.9732 Q1888.88 35.7938 1888.88 45.1919 Z" fill="#000000" fill-rule="nonzero" fill-opacity="1" /><polyline clip-path="url(#clip512)" style="stroke:#0000ff; stroke-linecap:round; stroke-linejoin:round; stroke-width:8; stroke-opacity:1; fill:none" points="280.231,1362.38 284.263,1350.15 288.296,1346.53 292.328,1362 296.361,1366.07 300.393,1369.22 304.425,1366.68 308.458,1362.22 312.49,1375.72 316.523,1370.26 320.555,1377.03 324.587,1364.66 328.62,1375.03 332.652,1370.14 336.684,1366.14 340.717,1362.9 344.749,1360.32 348.782,1357.04 352.814,1352.12 356.846,1345.14 360.879,1337 364.911,1328.05 368.944,1319.87 372.976,1313.37 377.008,1307.48 381.041,1301.81 385.073,1293.92 389.105,1279.92 393.138,1267.76 397.17,1257.11 401.203,1225.73 405.235,1217.2 409.267,1209.78 413.3,1202.86 417.332,1196.68 421.365,1192.89 425.397,1192.08 429.429,1192.65 433.462,1195.24 437.494,1198.59 441.526,1202.21 445.559,1205.91 449.591,1209.68 453.624,1214.7 457.656,1217.81 461.688,1219.54 465.721,1221.37 469.753,1222.34 473.786,1223.22 477.818,1222.57 481.85,1221.92 485.883,1219.88 489.915,1215.33 493.947,1209.68 497.98,1203.05 502.012,1193.51 506.045,1178.07 510.077,1153.11 514.109,1139.47 518.142,1130.97 522.174,1123.51 526.207,1115.68 530.239,1108.19 534.271,1100.08 538.304,1091.62 542.336,1081.59 546.368,1069.98 550.401,1058.4 554.433,1047.89 558.466,1036.89 562.498,1028.23 566.53,1021.19 570.563,1013.62 574.595,1003.51 578.628,990.776 582.66,979.275 586.692,969.757 590.725,960.513 594.757,951.288 598.789,939.815 602.822,927.746 606.854,915.629 610.887,902.943 614.919,890.15 618.951,874.705 622.984,857.779 627.016,837.877 631.049,817.023 635.081,798.987 639.113,783.084 643.146,767.819 647.178,752.993 651.21,737.859 655.243,722.986 659.275,708.279 663.308,692.041 667.34,674.067 671.372,635.995 675.405,614.779 679.437,594.829 683.47,573.719 687.502,551.48 691.534,525.882 695.567,499.189 699.599,469.585 703.631,446.561 707.664,426.151 711.696,410.347 715.729,395.867 719.761,384.221 723.793,373.583 727.826,364.431 731.858,355.692 735.891,346.745 739.923,337.797 743.955,328.505 747.988,319.613 752.02,311.201 756.052,303.894 760.085,296.899 764.117,290.424 768.15,285.094 772.182,280.809 776.214,277.28 780.247,274.604 784.279,272.247 788.312,270.454 792.344,268.629 796.376,266.808 800.409,265.281 804.441,263.926 808.473,262.403 812.506,260.445 816.538,258.612 820.571,256.914 824.603,255.167 828.635,253.337 832.668,251.786 836.7,250.219 840.733,248.813 844.765,247.475 848.797,246.135 852.83,245.058 856.862,244.055 860.894,243.152 864.927,242.269 868.959,241.47 872.992,240.711 877.024,239.761 881.056,238.762 885.089,237.737 889.121,236.724 893.154,235.833 897.186,234.946 901.218,234.094 905.251,233.304 909.283,232.472 913.315,231.652 917.348,230.613 921.38,229.508 925.413,228.613 929.445,227.609 933.477,226.694 937.51,225.735 941.542,224.683 945.575,223.693 949.607,223.077 953.639,222.085 957.672,221.116 961.704,220.235 965.736,219.386 969.769,218.571 973.801,217.769 977.834,216.922 981.866,216.124 985.898,215.355 989.931,214.836 993.963,214.002 997.996,213.217 1002.03,212.497 1006.06,211.819 1010.09,211.202 1014.13,210.616 1018.16,209.969 1022.19,209.278 1026.22,208.642 1030.25,208.029 1034.29,207.427 1038.32,206.85 1042.35,206.306 1046.38,205.746 1050.42,205.091 1054.45,204.477 1058.48,203.822 1062.51,203.217 1066.55,202.616 1070.58,202.032 1074.61,201.355 1078.64,200.767 1082.68,200.222 1086.71,199.612 1090.74,199.059 1094.77,198.536 1098.81,198.057 1102.84,197.603 1106.87,197.169 1110.9,196.751 1114.93,196.265 1118.97,195.803 1123,195.311 1127.03,194.837 1131.06,194.349 1135.1,193.818 1139.13,193.337 1143.16,192.875 1147.19,192.462 1151.23,192.089 1155.26,191.761 1159.29,191.406 1163.32,191.006 1167.36,190.631 1171.39,190.175 1175.42,189.71 1179.45,189.259 1183.49,188.862 1187.52,188.507 1191.55,188.084 1195.58,187.677 1199.61,187.29 1203.65,186.903 1207.68,186.505 1211.71,186.095 1215.74,185.694 1219.78,185.293 1223.81,184.921 1227.84,184.517 1231.87,184.137 1235.91,183.798 1239.94,183.484 1243.97,183.197 1248,182.926 1252.04,182.65 1256.07,182.356 1260.1,182.061 1264.13,181.781 1268.17,181.532 1272.2,181.286 1276.23,181.062 1280.26,180.834 1284.29,180.604 1288.33,180.361 1292.36,180.104 1296.39,179.87 1300.42,179.599 1304.46,179.361 1308.49,179.139 1312.52,178.935 1316.55,178.805 1320.59,178.681 1324.62,178.57 1328.65,178.497 1332.68,178.438 1336.72,178.391 1340.75,178.327 1344.78,178.277 1348.81,178.223 1352.85,178.168 1356.88,178.149 1360.91,178.151 1364.94,178.151 1368.97,178.155 1373.01,178.133 1377.04,178.076 1381.07,178.017 1385.1,177.962 1389.14,177.883 1393.17,177.806 1397.2,177.744 1401.23,177.581 1405.27,177.441 1409.3,177.339 1413.33,177.28 1417.36,177.287 1421.4,177.327 1425.43,177.419 1429.46,177.557 1433.49,177.732 1437.53,177.911 1441.56,177.932 1445.59,177.381 1449.62,176.976 1453.66,176.676 1457.69,176.448 1461.72,176.265 1465.75,176.168 1469.78,176.014 1473.82,175.889 1477.85,175.778 1481.88,175.256 1485.91,174.79 1489.95,174.324 1493.98,173.939 1498.01,173.609 1502.04,173.341 1506.08,173.072 1510.11,172.833 1514.14,172.641 1518.17,172.478 1522.21,172.368 1526.24,172.313 1530.27,171.771 1534.3,171.32 1538.34,170.912 1542.37,170.595 1546.4,170.36 1550.43,170.193 1554.46,170.062 1558.5,169.947 1562.53,169.749 1566.56,169.52 1570.59,169.381 1574.63,169.304 1578.66,169.275 1582.69,169.321 1586.72,169.403 1590.76,169.463 1594.79,169.316 1598.82,168.872 1602.85,168.571 1606.89,168.4 1610.92,168.306 1614.95,168.274 1618.98,168.457 1623.02,168.64 1627.05,168.895 1631.08,168.564 1635.11,168.346 1639.14,168.227 1643.18,168.152 1647.21,168.073 1651.24,167.89 1655.27,167.792 1659.31,167.534 1663.34,167.454 1667.37,167.529 1671.4,167.623 1675.44,167.785 1679.47,167.952 1683.5,167.705 1687.53,167.418 1691.57,167.246 1695.6,167.14 1699.63,167.171 1703.66,167.285 1707.7,167.312 1711.73,167.4 1715.76,167.557 1719.79,167.123 1723.82,166.819 1727.86,166.585 1731.89,166.298 1735.92,166.114 1739.95,166.02 1743.99,165.887 1748.02,165.806 1752.05,165.767 1756.08,165.813 1760.12,165.689 1764.15,165.679 1768.18,165.542 1772.21,165.575 1776.25,165.543 1780.28,165.637 1784.31,165.244 1788.34,164.956 1792.38,164.734 1796.41,164.604 1800.44,164.555 1804.47,164.467 1808.5,164.311 1812.54,164.282 1816.57,164.15 1820.6,164.111 1824.63,163.966 1828.67,163.912 1832.7,163.946 1836.73,163.858 1840.76,163.788 1844.8,163.785 1848.83,163.619 1852.86,163.55 1856.89,163.581 1860.93,163.576 1864.96,163.675 1868.99,163.699 1873.02,163.657 1877.06,163.351 1881.09,163.268 1885.12,163.085 1889.15,162.967 1893.19,162.905 1897.22,162.996 1901.25,163.192 1905.28,163.186 1909.31,163.104 1913.35,162.963 1917.38,162.67 1921.41,162.437 1925.44,162.296 1929.48,162.244 1933.51,162.283 1937.54,162.427 1941.57,162.44 1945.61,162.226 1949.64,162.064 1953.67,161.948 1957.7,161.857 1961.74,161.715 1965.77,161.665 1969.8,161.681 1973.83,161.769 1977.87,161.752 1981.9,161.819 1985.93,161.739 1989.96,161.61 1993.99,161.547 1998.03,161.584 2002.06,161.457 2006.09,161.341 2010.12,161.179 2014.16,161.161 2018.19,161.265 2022.22,161.442 2026.25,161.449 2030.29,161.499 2034.32,161.321 2038.35,161.168 2042.38,161.054 2046.42,160.977 2050.45,160.955 2054.48,161.091 2058.51,161.322 2062.55,161.575 2066.58,161.57 2070.61,161.636 2074.64,161.44 2078.67,161.273 2082.71,161.13 2086.74,161.006 2090.77,160.923 2094.8,160.958 2098.84,161.097 2102.87,161.325 2106.9,161.289 2110.93,161.106 2114.97,161.029 2119,161.05 2123.03,161.046 2127.06,161.212 2131.1,161.323 2135.13,161.281 2139.16,161.292 2143.19,161.323 2147.23,161.6 2151.26,161.79 2155.29,161.645 2159.32,161.483 2163.35,161.418 2167.39,161.19 2171.42,161.257 2175.45,161.347 2179.48,161.496 2183.52,161.44 2187.55,161.471 2191.58,161.447 2195.61,161.435 2199.65,161.433 2203.68,161.468 2207.71,161.424 2211.74,161.442 2215.78,161.498 2219.81,161.593 2223.84,161.494 2227.87,161.464 2231.91,161.316 2235.94,161.192 2239.97,161.148 2244,161.141 2248.03,161.172 2252.07,161.146 2256.1,161.174 2260.13,161.263 2264.16,161.151 2268.2,161.035 2272.23,160.94 2276.26,160.916 2280.29,160.976 2284.33,160.908 2288.36,160.892 2292.39,160.93 "/>
<polyline clip-path="url(#clip512)" style="stroke:#ff0000; stroke-linecap:round; stroke-linejoin:round; stroke-width:8; stroke-opacity:1; fill:none" points="280.231,1363.88 284.263,1356.87 288.296,1371.87 292.328,1370.12 296.361,1382.85 300.393,1386.14 304.425,1386.4 308.458,1381.79 312.49,1371.72 316.523,1363.26 320.555,1356.32 324.587,1351.62 328.62,1347.13 332.652,1339.45 336.684,1343.68 340.717,1353.45 344.749,1350.99 348.782,1345.66 352.814,1339.94 356.846,1331.37 360.879,1320.18 364.911,1293.25 368.944,1278.58 372.976,1264.18 377.008,1235.82 381.041,1226.62 385.073,1223.71 389.105,1225.44 393.138,1225.71 397.17,1225.35 401.203,1224.11 405.235,1222.68 409.267,1212.95 413.3,1203.97 417.332,1196.88 421.365,1194.02 425.397,1192.31 429.429,1187.51 433.462,1173.5 437.494,1161.09 441.526,1151.07 445.559,1144.38 449.591,1138.16 453.624,1132.97 457.656,1127.52 461.688,1116.45 465.721,1103.72 469.753,1093.88 473.786,1082.42 477.818,1072.29 481.85,1062.95 485.883,1054.64 489.915,1046.82 493.947,1040.25 497.98,1034.42 502.012,1028.39 506.045,1021.06 510.077,1014.53 514.109,1009.67 518.142,1005.33 522.174,1002.31 526.207,1002.19 530.239,1003.53 534.271,990.96 538.304,979.915 542.336,967.757 546.368,955.071 550.401,936.331 554.433,919.158 558.466,903.72 562.498,889.32 566.53,874.727 570.563,861.78 574.595,838.045 578.628,819.15 582.66,805.033 586.692,791.061 590.725,776.046 594.757,756.689 598.789,739.579 602.822,724.807 606.854,713.677 610.887,703.643 614.919,695.113 618.951,687.676 622.984,680.704 627.016,673.927 631.049,668.579 635.081,661.673 639.113,653.187 643.146,643.018 647.178,632.503 651.21,621.978 655.243,611.155 659.275,598.823 663.308,587.923 667.34,578.706 671.372,569.806 675.405,549.92 679.437,526.27 683.47,502.816 687.502,494.232 691.534,487.394 695.567,480.997 699.599,474.639 703.631,467.779 707.664,460.598 711.696,453.151 715.729,445.153 719.761,436.53 723.793,427.909 727.826,419.24 731.858,410.47 735.891,401.655 739.923,393.785 743.955,386.263 747.988,379.073 752.02,372.474 756.052,366.877 760.085,361.579 764.117,356.563 768.15,352.391 772.182,348.182 776.214,344.189 780.247,340.523 784.279,336.751 788.312,333.299 792.344,329.733 796.376,326.08 800.409,322.436 804.441,318.751 808.473,315.107 812.506,311.47 816.538,307.756 820.571,304.382 824.603,300.826 828.635,297.376 832.668,294.071 836.7,290.685 840.733,288 844.765,285.271 848.797,282.175 852.83,278.442 856.862,275.04 860.894,271.447 864.927,268.117 868.959,264.937 872.992,262.058 877.024,259.479 881.056,256.563 885.089,253.543 889.121,250.706 893.154,247.858 897.186,244.988 901.218,242.21 905.251,239.546 909.283,236.891 913.315,234.443 917.348,232.013 921.38,229.731 925.413,227.479 929.445,225.412 933.477,223.837 937.51,222.198 941.542,220.047 945.575,218.012 949.607,215.751 953.639,213.678 957.672,211.793 961.704,209.959 965.736,208.327 969.769,206.864 973.801,205.507 977.834,204.209 981.866,203.157 985.898,202.226 989.931,200.849 993.963,199.704 997.996,198.541 1002.03,197.385 1006.06,196.332 1010.09,195.285 1014.13,194.278 1018.16,193.305 1022.19,192.268 1026.22,191.254 1030.25,190.221 1034.29,189.258 1038.32,188.392 1042.35,187.49 1046.38,186.628 1050.42,185.685 1054.45,184.849 1058.48,184.074 1062.51,183.317 1066.55,182.642 1070.58,181.968 1074.61,181.319 1078.64,180.739 1082.68,180.237 1086.71,179.729 1090.74,179.275 1094.77,178.81 1098.81,178.362 1102.84,177.871 1106.87,177.472 1110.9,177.127 1114.93,176.856 1118.97,176.577 1123,176.276 1127.03,175.954 1131.06,175.663 1135.1,175.388 1139.13,175.113 1143.16,174.828 1147.19,174.549 1151.23,174.321 1155.26,173.989 1159.29,173.699 1163.32,173.367 1167.36,173.082 1171.39,172.82 1175.42,172.525 1179.45,172.277 1183.49,172.056 1187.52,171.83 1191.55,171.629 1195.58,171.41 1199.61,171.179 1203.65,170.982 1207.68,170.812 1211.71,170.626 1215.74,170.459 1219.78,170.301 1223.81,170.168 1227.84,170.056 1231.87,169.927 1235.91,169.8 1239.94,169.69 1243.97,169.578 1248,169.486 1252.04,169.386 1256.07,169.27 1260.1,169.089 1264.13,168.904 1268.17,168.754 1272.2,168.636 1276.23,168.49 1280.26,168.362 1284.29,168.165 1288.33,167.996 1292.36,167.816 1296.39,167.657 1300.42,167.483 1304.46,167.318 1308.49,167.175 1312.52,167.015 1316.55,166.857 1320.59,166.694 1324.62,166.521 1328.65,166.345 1332.68,166.187 1336.72,166.058 1340.75,165.923 1344.78,165.799 1348.81,165.668 1352.85,165.535 1356.88,165.397 1360.91,165.266 1364.94,165.139 1368.97,164.982 1373.01,164.822 1377.04,164.675 1381.07,164.536 1385.1,164.411 1389.14,164.262 1393.17,164.107 1397.2,163.966 1401.23,163.839 1405.27,163.709 1409.3,163.569 1413.33,163.442 1417.36,163.275 1421.4,163.133 1425.43,163.002 1429.46,162.902 1433.49,162.839 1437.53,162.816 1441.56,162.815 1445.59,162.864 1449.62,162.994 1453.66,163.226 1457.69,162.911 1461.72,162.656 1465.75,162.457 1469.78,162.28 1473.82,162.124 1477.85,161.978 1481.88,161.852 1485.91,161.707 1489.95,161.563 1493.98,161.414 1498.01,161.311 1502.04,161.312 1506.08,161.373 1510.11,161.515 1514.14,161.729 1518.17,162.014 1522.21,162.325 1526.24,162.695 1530.27,163.092 1534.3,163.53 1538.34,163.169 1542.37,162.856 1546.4,162.591 1550.43,162.38 1554.46,162.2 1558.5,162.092 1562.53,161.748 1566.56,161.468 1570.59,161.253 1574.63,161.09 1578.66,160.932 1582.69,160.787 1586.72,160.684 1590.76,160.59 1594.79,160.518 1598.82,160.479 1602.85,160.449 1606.89,160.421 1610.92,160.417 1614.95,160.434 1618.98,160.569 1623.02,160.795 1627.05,161.103 1631.08,161.483 1635.11,161.928 1639.14,162.398 1643.18,162.699 1647.21,162.404 1651.24,162.136 1655.27,161.894 1659.31,161.676 1663.34,161.516 1667.37,161.356 1671.4,161.225 1675.44,161.108 1679.47,160.981 1683.5,160.865 1687.53,160.758 1691.57,160.656 1695.6,160.571 1699.63,160.481 1703.66,160.401 1707.7,160.335 1711.73,160.256 1715.76,160.431 1719.79,160.625 1723.82,160.864 1727.86,161.121 1731.89,160.87 1735.92,160.818 1739.95,160.832 1743.99,160.925 1748.02,161.093 1752.05,161.3 1756.08,161.852 1760.12,162.515 1764.15,162.573 1768.18,162.31 1772.21,162.106 1776.25,161.789 1780.28,161.524 1784.31,161.299 1788.34,161.121 1792.38,160.97 1796.41,160.839 1800.44,160.716 1804.47,160.941 1808.5,161.294 1812.54,161.567 1816.57,161.416 1820.6,161.274 1824.63,161.154 1828.67,161.244 1832.7,161.393 1836.73,161.595 1840.76,161.875 1844.8,162.223 1848.83,162.155 1852.86,162.208 1856.89,162.127 1860.93,161.972 1864.96,161.833 1868.99,161.698 1873.02,161.64 1877.06,161.692 1881.09,162.136 1885.12,162.741 1889.15,163.221 1893.19,163.939 1897.22,164.761 1901.25,165.023 1905.28,165.481 1909.31,165.986 1913.35,165.536 1917.38,165.152 1921.41,164.817 1925.44,164.492 1929.48,164.187 1933.51,163.913 1937.54,163.669 1941.57,163.45 1945.61,163.24 1949.64,163.214 1953.67,163.278 1957.7,163.359 1961.74,163.497 1965.77,163.722 1969.8,164.133 1973.83,164.001 1977.87,163.945 1981.9,164.29 1985.93,164.519 1989.96,164.908 1993.99,165.062 1998.03,165.103 2002.06,165.584 2006.09,166.045 2010.12,166.621 2014.16,166.743 2018.19,166.388 2022.22,166.073 2026.25,166.058 2030.29,165.821 2034.32,165.611 2038.35,165.415 2042.38,165.41 2046.42,165.461 2050.45,165.518 2054.48,165.917 2058.51,166.422 2062.55,166.584 2066.58,166.621 2070.61,166.297 2074.64,166.012 2078.67,165.775 2082.71,165.521 2086.74,165.316 2090.77,165.278 2094.8,165.314 2098.84,165.437 2102.87,165.688 2106.9,166.01 2110.93,165.899 2114.97,165.884 2119,166.193 2123.03,165.878 2127.06,165.604 2131.1,165.452 2135.13,165.407 2139.16,165.481 2143.19,165.586 2147.23,165.765 2151.26,166.023 2155.29,166.362 2159.32,166.403 2163.35,166.277 2167.39,166.267 2171.42,166.355 2175.45,166.58 2179.48,166.275 2183.52,166.002 2187.55,165.782 2191.58,165.651 2195.61,165.456 2199.65,165.596 2203.68,165.598 2207.71,165.59 2211.74,165.61 2215.78,165.919 2219.81,166.006 2223.84,165.734 2227.87,165.599 2231.91,165.87 2235.94,165.992 2239.97,166.192 2244,166.494 2248.03,166.906 2252.07,167.403 2256.1,167.643 2260.13,167.317 2264.16,167.061 2268.2,166.893 2272.23,166.968 2276.26,167.316 2280.29,167.825 2284.33,167.56 2288.36,167.406 2292.39,167.261 "/>
<path clip-path="url(#clip510)" d="M1809.95 1379.86 L2281.66 1379.86 L2281.66 1224.34 L1809.95 1224.34  Z" fill="#ffffff" fill-rule="evenodd" fill-opacity="1"/>
<polyline clip-path="url(#clip510)" style="stroke:#000000; stroke-linecap:round; stroke-linejoin:round; stroke-width:4; stroke-opacity:1; fill:none" points="1809.95,1379.86 2281.66,1379.86 2281.66,1224.34 1809.95,1224.34 1809.95,1379.86 "/>
<polyline clip-path="url(#clip510)" style="stroke:#0000ff; stroke-linecap:round; stroke-linejoin:round; stroke-width:8; stroke-opacity:1; fill:none" points="1833.64,1276.18 1975.84,1276.18 "/>
<path clip-path="url(#clip510)" d="M1999.54 1258.9 L2006.5 1258.9 L2015.32 1282.41 L2024.19 1258.9 L2031.16 1258.9 L2031.16 1293.46 L2026.6 1293.46 L2026.6 1263.11 L2017.68 1286.81 L2012.99 1286.81 L2004.07 1263.11 L2004.07 1293.46 L1999.54 1293.46 L1999.54 1258.9 Z" fill="#000000" fill-rule="nonzero" fill-opacity="1" /><path clip-path="url(#clip510)" d="M2062.43 1279.43 L2062.43 1281.51 L2042.85 1281.51 Q2043.12 1285.91 2045.49 1288.22 Q2047.87 1290.52 2052.11 1290.52 Q2054.56 1290.52 2056.85 1289.91 Q2059.17 1289.31 2061.43 1288.11 L2061.43 1292.14 Q2059.14 1293.11 2056.74 1293.62 Q2054.33 1294.13 2051.85 1294.13 Q2045.65 1294.13 2042.01 1290.52 Q2038.4 1286.91 2038.4 1280.75 Q2038.4 1274.38 2041.83 1270.66 Q2045.28 1266.91 2051.11 1266.91 Q2056.34 1266.91 2059.37 1270.29 Q2062.43 1273.64 2062.43 1279.43 M2058.17 1278.18 Q2058.12 1274.68 2056.2 1272.6 Q2054.3 1270.52 2051.16 1270.52 Q2047.59 1270.52 2045.44 1272.53 Q2043.31 1274.54 2042.99 1278.2 L2058.17 1278.18 Z" fill="#000000" fill-rule="nonzero" fill-opacity="1" /><path clip-path="url(#clip510)" d="M2073.63 1260.17 L2073.63 1267.53 L2082.41 1267.53 L2082.41 1270.84 L2073.63 1270.84 L2073.63 1284.91 Q2073.63 1288.09 2074.49 1288.99 Q2075.37 1289.89 2078.03 1289.89 L2082.41 1289.89 L2082.41 1293.46 L2078.03 1293.46 Q2073.1 1293.46 2071.23 1291.63 Q2069.35 1289.78 2069.35 1284.91 L2069.35 1270.84 L2066.23 1270.84 L2066.23 1267.53 L2069.35 1267.53 L2069.35 1260.17 L2073.63 1260.17 Z" fill="#000000" fill-rule="nonzero" fill-opacity="1" /><path clip-path="url(#clip510)" d="M2103.03 1271.51 Q2102.31 1271.1 2101.46 1270.91 Q2100.62 1270.7 2099.61 1270.7 Q2095.99 1270.7 2094.05 1273.06 Q2092.13 1275.4 2092.13 1279.8 L2092.13 1293.46 L2087.85 1293.46 L2087.85 1267.53 L2092.13 1267.53 L2092.13 1271.56 Q2093.47 1269.2 2095.62 1268.06 Q2097.78 1266.91 2100.86 1266.91 Q2101.29 1266.91 2101.83 1266.97 Q2102.36 1267.02 2103.01 1267.14 L2103.03 1271.51 Z" fill="#000000" fill-rule="nonzero" fill-opacity="1" /><path clip-path="url(#clip510)" d="M2107.5 1267.53 L2111.76 1267.53 L2111.76 1293.46 L2107.5 1293.46 L2107.5 1267.53 M2107.5 1257.44 L2111.76 1257.44 L2111.76 1262.83 L2107.5 1262.83 L2107.5 1257.44 Z" fill="#000000" fill-rule="nonzero" fill-opacity="1" /><path clip-path="url(#clip510)" d="M2139.33 1268.53 L2139.33 1272.51 Q2137.52 1271.51 2135.69 1271.03 Q2133.89 1270.52 2132.04 1270.52 Q2127.89 1270.52 2125.6 1273.16 Q2123.31 1275.77 2123.31 1280.52 Q2123.31 1285.26 2125.6 1287.9 Q2127.89 1290.52 2132.04 1290.52 Q2133.89 1290.52 2135.69 1290.03 Q2137.52 1289.52 2139.33 1288.53 L2139.33 1292.46 Q2137.54 1293.29 2135.62 1293.71 Q2133.73 1294.13 2131.57 1294.13 Q2125.72 1294.13 2122.27 1290.45 Q2118.82 1286.77 2118.82 1280.52 Q2118.82 1274.17 2122.29 1270.54 Q2125.79 1266.91 2131.85 1266.91 Q2133.82 1266.91 2135.69 1267.32 Q2137.57 1267.72 2139.33 1268.53 Z" fill="#000000" fill-rule="nonzero" fill-opacity="1" /><polyline clip-path="url(#clip510)" style="stroke:#ff0000; stroke-linecap:round; stroke-linejoin:round; stroke-width:8; stroke-opacity:1; fill:none" points="1833.64,1328.02 1975.84,1328.02 "/>
<path clip-path="url(#clip510)" d="M1999.54 1310.74 L2028.77 1310.74 L2028.77 1314.67 L2016.5 1314.67 L2016.5 1345.3 L2011.8 1345.3 L2011.8 1314.67 L1999.54 1314.67 L1999.54 1310.74 Z" fill="#000000" fill-rule="nonzero" fill-opacity="1" /><path clip-path="url(#clip510)" d="M2035.09 1322.36 Q2031.67 1322.36 2029.67 1325.04 Q2027.68 1327.7 2027.68 1332.36 Q2027.68 1337.01 2029.65 1339.69 Q2031.64 1342.36 2035.09 1342.36 Q2038.49 1342.36 2040.49 1339.67 Q2042.48 1336.99 2042.48 1332.36 Q2042.48 1327.75 2040.49 1325.06 Q2038.49 1322.36 2035.09 1322.36 M2035.09 1318.75 Q2040.65 1318.75 2043.82 1322.36 Q2046.99 1325.97 2046.99 1332.36 Q2046.99 1338.72 2043.82 1342.36 Q2040.65 1345.97 2035.09 1345.97 Q2029.51 1345.97 2026.34 1342.36 Q2023.19 1338.72 2023.19 1332.36 Q2023.19 1325.97 2026.34 1322.36 Q2029.51 1318.75 2035.09 1318.75 Z" fill="#000000" fill-rule="nonzero" fill-opacity="1" /><path clip-path="url(#clip510)" d="M2058.17 1341.41 L2058.17 1355.16 L2053.89 1355.16 L2053.89 1319.37 L2058.17 1319.37 L2058.17 1323.31 Q2059.51 1320.99 2061.55 1319.88 Q2063.61 1318.75 2066.46 1318.75 Q2071.18 1318.75 2074.12 1322.5 Q2077.08 1326.25 2077.08 1332.36 Q2077.08 1338.47 2074.12 1342.22 Q2071.18 1345.97 2066.46 1345.97 Q2063.61 1345.97 2061.55 1344.86 Q2059.51 1343.72 2058.17 1341.41 M2072.66 1332.36 Q2072.66 1327.66 2070.72 1325 Q2068.8 1322.31 2065.42 1322.31 Q2062.04 1322.31 2060.09 1325 Q2058.17 1327.66 2058.17 1332.36 Q2058.17 1337.06 2060.09 1339.74 Q2062.04 1342.4 2065.42 1342.4 Q2068.8 1342.4 2070.72 1339.74 Q2072.66 1337.06 2072.66 1332.36 Z" fill="#000000" fill-rule="nonzero" fill-opacity="1" /><path clip-path="url(#clip510)" d="M2094.19 1322.36 Q2090.76 1322.36 2088.77 1325.04 Q2086.78 1327.7 2086.78 1332.36 Q2086.78 1337.01 2088.75 1339.69 Q2090.74 1342.36 2094.19 1342.36 Q2097.59 1342.36 2099.58 1339.67 Q2101.57 1336.99 2101.57 1332.36 Q2101.57 1327.75 2099.58 1325.06 Q2097.59 1322.36 2094.19 1322.36 M2094.19 1318.75 Q2099.74 1318.75 2102.92 1322.36 Q2106.09 1325.97 2106.09 1332.36 Q2106.09 1338.72 2102.92 1342.36 Q2099.74 1345.97 2094.19 1345.97 Q2088.61 1345.97 2085.44 1342.36 Q2082.29 1338.72 2082.29 1332.36 Q2082.29 1325.97 2085.44 1322.36 Q2088.61 1318.75 2094.19 1318.75 Z" fill="#000000" fill-rule="nonzero" fill-opacity="1" /><path clip-path="url(#clip510)" d="M2113.15 1309.28 L2117.41 1309.28 L2117.41 1345.3 L2113.15 1345.3 L2113.15 1309.28 Z" fill="#000000" fill-rule="nonzero" fill-opacity="1" /><path clip-path="url(#clip510)" d="M2136.36 1322.36 Q2132.94 1322.36 2130.95 1325.04 Q2128.96 1327.7 2128.96 1332.36 Q2128.96 1337.01 2130.92 1339.69 Q2132.92 1342.36 2136.36 1342.36 Q2139.77 1342.36 2141.76 1339.67 Q2143.75 1336.99 2143.75 1332.36 Q2143.75 1327.75 2141.76 1325.06 Q2139.77 1322.36 2136.36 1322.36 M2136.36 1318.75 Q2141.92 1318.75 2145.09 1322.36 Q2148.26 1325.97 2148.26 1332.36 Q2148.26 1338.72 2145.09 1342.36 Q2141.92 1345.97 2136.36 1345.97 Q2130.79 1345.97 2127.61 1342.36 Q2124.47 1338.72 2124.47 1332.36 Q2124.47 1325.97 2127.61 1322.36 Q2130.79 1318.75 2136.36 1318.75 Z" fill="#000000" fill-rule="nonzero" fill-opacity="1" /><path clip-path="url(#clip510)" d="M2172.38 1332.03 Q2172.38 1327.4 2170.46 1324.86 Q2168.56 1322.31 2165.11 1322.31 Q2161.69 1322.31 2159.77 1324.86 Q2157.87 1327.4 2157.87 1332.03 Q2157.87 1336.64 2159.77 1339.19 Q2161.69 1341.73 2165.11 1341.73 Q2168.56 1341.73 2170.46 1339.19 Q2172.38 1336.64 2172.38 1332.03 M2176.64 1342.08 Q2176.64 1348.7 2173.7 1351.92 Q2170.76 1355.16 2164.7 1355.16 Q2162.45 1355.16 2160.46 1354.81 Q2158.47 1354.49 2156.6 1353.79 L2156.6 1349.65 Q2158.47 1350.67 2160.3 1351.15 Q2162.13 1351.64 2164.03 1351.64 Q2168.22 1351.64 2170.3 1349.44 Q2172.38 1347.26 2172.38 1342.84 L2172.38 1340.74 Q2171.06 1343.03 2169 1344.16 Q2166.94 1345.3 2164.07 1345.3 Q2159.3 1345.3 2156.39 1341.66 Q2153.47 1338.03 2153.47 1332.03 Q2153.47 1326.01 2156.39 1322.38 Q2159.3 1318.75 2164.07 1318.75 Q2166.94 1318.75 2169 1319.88 Q2171.06 1321.01 2172.38 1323.31 L2172.38 1319.37 L2176.64 1319.37 L2176.64 1342.08 Z" fill="#000000" fill-rule="nonzero" fill-opacity="1" /><path clip-path="url(#clip510)" d="M2185.41 1319.37 L2189.67 1319.37 L2189.67 1345.3 L2185.41 1345.3 L2185.41 1319.37 M2185.41 1309.28 L2189.67 1309.28 L2189.67 1314.67 L2185.41 1314.67 L2185.41 1309.28 Z" fill="#000000" fill-rule="nonzero" fill-opacity="1" /><path clip-path="url(#clip510)" d="M2217.24 1320.37 L2217.24 1324.35 Q2215.44 1323.35 2213.61 1322.87 Q2211.8 1322.36 2209.95 1322.36 Q2205.81 1322.36 2203.52 1325 Q2201.23 1327.61 2201.23 1332.36 Q2201.23 1337.1 2203.52 1339.74 Q2205.81 1342.36 2209.95 1342.36 Q2211.8 1342.36 2213.61 1341.87 Q2215.44 1341.36 2217.24 1340.37 L2217.24 1344.3 Q2215.46 1345.13 2213.54 1345.55 Q2211.64 1345.97 2209.49 1345.97 Q2203.63 1345.97 2200.18 1342.29 Q2196.73 1338.61 2196.73 1332.36 Q2196.73 1326.01 2200.21 1322.38 Q2203.7 1318.75 2209.77 1318.75 Q2211.73 1318.75 2213.61 1319.16 Q2215.48 1319.56 2217.24 1320.37 Z" fill="#000000" fill-rule="nonzero" fill-opacity="1" /><path clip-path="url(#clip510)" d="M2236.43 1332.26 Q2231.27 1332.26 2229.28 1333.44 Q2227.29 1334.63 2227.29 1337.47 Q2227.29 1339.74 2228.77 1341.08 Q2230.28 1342.4 2232.85 1342.4 Q2236.39 1342.4 2238.52 1339.9 Q2240.67 1337.38 2240.67 1333.21 L2240.67 1332.26 L2236.43 1332.26 M2244.93 1330.5 L2244.93 1345.3 L2240.67 1345.3 L2240.67 1341.36 Q2239.21 1343.72 2237.03 1344.86 Q2234.86 1345.97 2231.71 1345.97 Q2227.73 1345.97 2225.37 1343.75 Q2223.03 1341.5 2223.03 1337.75 Q2223.03 1333.38 2225.95 1331.15 Q2228.89 1328.93 2234.7 1328.93 L2240.67 1328.93 L2240.67 1328.51 Q2240.67 1325.57 2238.72 1323.98 Q2236.8 1322.36 2233.31 1322.36 Q2231.09 1322.36 2228.98 1322.89 Q2226.87 1323.42 2224.93 1324.49 L2224.93 1320.55 Q2227.27 1319.65 2229.47 1319.21 Q2231.66 1318.75 2233.75 1318.75 Q2239.37 1318.75 2242.15 1321.66 Q2244.93 1324.58 2244.93 1330.5 Z" fill="#000000" fill-rule="nonzero" fill-opacity="1" /><path clip-path="url(#clip510)" d="M2253.7 1309.28 L2257.96 1309.28 L2257.96 1345.3 L2253.7 1345.3 L2253.7 1309.28 Z" fill="#000000" fill-rule="nonzero" fill-opacity="1" /></svg>
