<?xml version="1.0" encoding="utf-8"?>
<svg xmlns="http://www.w3.org/2000/svg" xmlns:xlink="http://www.w3.org/1999/xlink" width="600" height="400" viewBox="0 0 2400 1600">
<defs>
  <clipPath id="clip980">
    <rect x="0" y="0" width="2400" height="1600"/>
  </clipPath>
</defs>
<path clip-path="url(#clip980)" d="M0 1600 L2400 1600 L2400 0 L0 0  Z" fill="#ffffff" fill-rule="evenodd" fill-opacity="1"/>
<defs>
  <clipPath id="clip981">
    <rect x="480" y="0" width="1681" height="1600"/>
  </clipPath>
</defs>
<path clip-path="url(#clip980)" d="M219.866 1423.18 L2352.76 1423.18 L2352.76 123.472 L219.866 123.472  Z" fill="#ffffff" fill-rule="evenodd" fill-opacity="1"/>
<defs>
  <clipPath id="clip982">
    <rect x="219" y="123" width="2134" height="1301"/>
  </clipPath>
</defs>
<polyline clip-path="url(#clip982)" style="stroke:#000000; stroke-linecap:round; stroke-linejoin:round; stroke-width:2; stroke-opacity:0.1; fill:none" points="276.199,1423.18 276.199,123.472 "/>
<polyline clip-path="url(#clip982)" style="stroke:#000000; stroke-linecap:round; stroke-linejoin:round; stroke-width:2; stroke-opacity:0.1; fill:none" points="679.437,1423.18 679.437,123.472 "/>
<polyline clip-path="url(#clip982)" style="stroke:#000000; stroke-linecap:round; stroke-linejoin:round; stroke-width:2; stroke-opacity:0.1; fill:none" points="1082.68,1423.18 1082.68,123.472 "/>
<polyline clip-path="url(#clip982)" style="stroke:#000000; stroke-linecap:round; stroke-linejoin:round; stroke-width:2; stroke-opacity:0.1; fill:none" points="1485.91,1423.18 1485.91,123.472 "/>
<polyline clip-path="url(#clip982)" style="stroke:#000000; stroke-linecap:round; stroke-linejoin:round; stroke-width:2; stroke-opacity:0.1; fill:none" points="1889.15,1423.18 1889.15,123.472 "/>
<polyline clip-path="url(#clip982)" style="stroke:#000000; stroke-linecap:round; stroke-linejoin:round; stroke-width:2; stroke-opacity:0.1; fill:none" points="2292.39,1423.18 2292.39,123.472 "/>
<polyline clip-path="url(#clip982)" style="stroke:#000000; stroke-linecap:round; stroke-linejoin:round; stroke-width:2; stroke-opacity:0.1; fill:none" points="219.866,1183.73 2352.76,1183.73 "/>
<polyline clip-path="url(#clip982)" style="stroke:#000000; stroke-linecap:round; stroke-linejoin:round; stroke-width:2; stroke-opacity:0.1; fill:none" points="219.866,927.746 2352.76,927.746 "/>
<polyline clip-path="url(#clip982)" style="stroke:#000000; stroke-linecap:round; stroke-linejoin:round; stroke-width:2; stroke-opacity:0.1; fill:none" points="219.866,671.763 2352.76,671.763 "/>
<polyline clip-path="url(#clip982)" style="stroke:#000000; stroke-linecap:round; stroke-linejoin:round; stroke-width:2; stroke-opacity:0.1; fill:none" points="219.866,415.78 2352.76,415.78 "/>
<polyline clip-path="url(#clip982)" style="stroke:#000000; stroke-linecap:round; stroke-linejoin:round; stroke-width:2; stroke-opacity:0.1; fill:none" points="219.866,159.797 2352.76,159.797 "/>
<polyline clip-path="url(#clip980)" style="stroke:#000000; stroke-linecap:round; stroke-linejoin:round; stroke-width:4; stroke-opacity:1; fill:none" points="219.866,1423.18 2352.76,1423.18 "/>
<polyline clip-path="url(#clip980)" style="stroke:#000000; stroke-linecap:round; stroke-linejoin:round; stroke-width:4; stroke-opacity:1; fill:none" points="276.199,1423.18 276.199,1404.28 "/>
<polyline clip-path="url(#clip980)" style="stroke:#000000; stroke-linecap:round; stroke-linejoin:round; stroke-width:4; stroke-opacity:1; fill:none" points="679.437,1423.18 679.437,1404.28 "/>
<polyline clip-path="url(#clip980)" style="stroke:#000000; stroke-linecap:round; stroke-linejoin:round; stroke-width:4; stroke-opacity:1; fill:none" points="1082.68,1423.18 1082.68,1404.28 "/>
<polyline clip-path="url(#clip980)" style="stroke:#000000; stroke-linecap:round; stroke-linejoin:round; stroke-width:4; stroke-opacity:1; fill:none" points="1485.91,1423.18 1485.91,1404.28 "/>
<polyline clip-path="url(#clip980)" style="stroke:#000000; stroke-linecap:round; stroke-linejoin:round; stroke-width:4; stroke-opacity:1; fill:none" points="1889.15,1423.18 1889.15,1404.28 "/>
<polyline clip-path="url(#clip980)" style="stroke:#000000; stroke-linecap:round; stroke-linejoin:round; stroke-width:4; stroke-opacity:1; fill:none" points="2292.39,1423.18 2292.39,1404.28 "/>
<path clip-path="url(#clip980)" d="M276.199 1454.1 Q272.588 1454.1 270.759 1457.66 Q268.953 1461.2 268.953 1468.33 Q268.953 1475.44 270.759 1479.01 Q272.588 1482.55 276.199 1482.55 Q279.833 1482.55 281.638 1479.01 Q283.467 1475.44 283.467 1468.33 Q283.467 1461.2 281.638 1457.66 Q279.833 1454.1 276.199 1454.1 M276.199 1450.39 Q282.009 1450.39 285.064 1455 Q288.143 1459.58 288.143 1468.33 Q288.143 1477.06 285.064 1481.67 Q282.009 1486.25 276.199 1486.25 Q270.389 1486.25 267.31 1481.67 Q264.254 1477.06 264.254 1468.33 Q264.254 1459.58 267.31 1455 Q270.389 1450.39 276.199 1450.39 Z" fill="#000000" fill-rule="nonzero" fill-opacity="1" /><path clip-path="url(#clip980)" d="M639.044 1481.64 L646.683 1481.64 L646.683 1455.28 L638.373 1456.95 L638.373 1452.69 L646.636 1451.02 L651.312 1451.02 L651.312 1481.64 L658.951 1481.64 L658.951 1485.58 L639.044 1485.58 L639.044 1481.64 Z" fill="#000000" fill-rule="nonzero" fill-opacity="1" /><path clip-path="url(#clip980)" d="M678.396 1454.1 Q674.784 1454.1 672.956 1457.66 Q671.15 1461.2 671.15 1468.33 Q671.15 1475.44 672.956 1479.01 Q674.784 1482.55 678.396 1482.55 Q682.03 1482.55 683.835 1479.01 Q685.664 1475.44 685.664 1468.33 Q685.664 1461.2 683.835 1457.66 Q682.03 1454.1 678.396 1454.1 M678.396 1450.39 Q684.206 1450.39 687.261 1455 Q690.34 1459.58 690.34 1468.33 Q690.34 1477.06 687.261 1481.67 Q684.206 1486.25 678.396 1486.25 Q672.585 1486.25 669.507 1481.67 Q666.451 1477.06 666.451 1468.33 Q666.451 1459.58 669.507 1455 Q672.585 1450.39 678.396 1450.39 Z" fill="#000000" fill-rule="nonzero" fill-opacity="1" /><path clip-path="url(#clip980)" d="M708.557 1454.1 Q704.946 1454.1 703.118 1457.66 Q701.312 1461.2 701.312 1468.33 Q701.312 1475.44 703.118 1479.01 Q704.946 1482.55 708.557 1482.55 Q712.192 1482.55 713.997 1479.01 Q715.826 1475.44 715.826 1468.33 Q715.826 1461.2 713.997 1457.66 Q712.192 1454.1 708.557 1454.1 M708.557 1450.39 Q714.368 1450.39 717.423 1455 Q720.502 1459.58 720.502 1468.33 Q720.502 1477.06 717.423 1481.67 Q714.368 1486.25 708.557 1486.25 Q702.747 1486.25 699.669 1481.67 Q696.613 1477.06 696.613 1468.33 Q696.613 1459.58 699.669 1455 Q702.747 1450.39 708.557 1450.39 Z" fill="#000000" fill-rule="nonzero" fill-opacity="1" /><path clip-path="url(#clip980)" d="M1046.37 1481.64 L1062.69 1481.64 L1062.69 1485.58 L1040.74 1485.58 L1040.74 1481.64 Q1043.41 1478.89 1047.99 1474.26 Q1052.59 1469.61 1053.78 1468.27 Q1056.02 1465.74 1056.9 1464.01 Q1057.8 1462.25 1057.8 1460.56 Q1057.8 1457.8 1055.86 1456.07 Q1053.94 1454.33 1050.84 1454.33 Q1048.64 1454.33 1046.18 1455.09 Q1043.75 1455.86 1040.97 1457.41 L1040.97 1452.69 Q1043.8 1451.55 1046.25 1450.97 Q1048.71 1450.39 1050.74 1450.39 Q1056.11 1450.39 1059.31 1453.08 Q1062.5 1455.77 1062.5 1460.26 Q1062.5 1462.39 1061.69 1464.31 Q1060.9 1466.2 1058.8 1468.8 Q1058.22 1469.47 1055.12 1472.69 Q1052.02 1475.88 1046.37 1481.64 Z" fill="#000000" fill-rule="nonzero" fill-opacity="1" /><path clip-path="url(#clip980)" d="M1082.5 1454.1 Q1078.89 1454.1 1077.06 1457.66 Q1075.26 1461.2 1075.26 1468.33 Q1075.26 1475.44 1077.06 1479.01 Q1078.89 1482.55 1082.5 1482.55 Q1086.14 1482.55 1087.94 1479.01 Q1089.77 1475.44 1089.77 1468.33 Q1089.77 1461.2 1087.94 1457.66 Q1086.14 1454.1 1082.5 1454.1 M1082.5 1450.39 Q1088.31 1450.39 1091.37 1455 Q1094.45 1459.58 1094.45 1468.33 Q1094.45 1477.06 1091.37 1481.67 Q1088.31 1486.25 1082.5 1486.25 Q1076.69 1486.25 1073.61 1481.67 Q1070.56 1477.06 1070.56 1468.33 Q1070.56 1459.58 1073.61 1455 Q1076.69 1450.39 1082.5 1450.39 Z" fill="#000000" fill-rule="nonzero" fill-opacity="1" /><path clip-path="url(#clip980)" d="M1112.66 1454.1 Q1109.05 1454.1 1107.22 1457.66 Q1105.42 1461.2 1105.42 1468.33 Q1105.42 1475.44 1107.22 1479.01 Q1109.05 1482.55 1112.66 1482.55 Q1116.3 1482.55 1118.1 1479.01 Q1119.93 1475.44 1119.93 1468.33 Q1119.93 1461.2 1118.1 1457.66 Q1116.3 1454.1 1112.66 1454.1 M1112.66 1450.39 Q1118.47 1450.39 1121.53 1455 Q1124.61 1459.58 1124.61 1468.33 Q1124.61 1477.06 1121.53 1481.67 Q1118.47 1486.25 1112.66 1486.25 Q1106.85 1486.25 1103.78 1481.67 Q1100.72 1477.06 1100.72 1468.33 Q1100.72 1459.58 1103.78 1455 Q1106.85 1450.39 1112.66 1450.39 Z" fill="#000000" fill-rule="nonzero" fill-opacity="1" /><path clip-path="url(#clip980)" d="M1459.68 1466.95 Q1463.03 1467.66 1464.91 1469.93 Q1466.81 1472.2 1466.81 1475.53 Q1466.81 1480.65 1463.29 1483.45 Q1459.77 1486.25 1453.29 1486.25 Q1451.11 1486.25 1448.8 1485.81 Q1446.5 1485.39 1444.05 1484.54 L1444.05 1480.02 Q1446 1481.16 1448.31 1481.74 Q1450.62 1482.32 1453.15 1482.32 Q1457.55 1482.32 1459.84 1480.58 Q1462.15 1478.84 1462.15 1475.53 Q1462.15 1472.48 1460 1470.77 Q1457.87 1469.03 1454.05 1469.03 L1450.02 1469.03 L1450.02 1465.19 L1454.24 1465.19 Q1457.69 1465.19 1459.51 1463.82 Q1461.34 1462.43 1461.34 1459.84 Q1461.34 1457.18 1459.44 1455.77 Q1457.57 1454.33 1454.05 1454.33 Q1452.13 1454.33 1449.93 1454.75 Q1447.73 1455.16 1445.09 1456.04 L1445.09 1451.88 Q1447.75 1451.14 1450.07 1450.77 Q1452.41 1450.39 1454.47 1450.39 Q1459.79 1450.39 1462.89 1452.83 Q1466 1455.23 1466 1459.35 Q1466 1462.22 1464.35 1464.21 Q1462.71 1466.18 1459.68 1466.95 Z" fill="#000000" fill-rule="nonzero" fill-opacity="1" /><path clip-path="url(#clip980)" d="M1485.67 1454.1 Q1482.06 1454.1 1480.23 1457.66 Q1478.43 1461.2 1478.43 1468.33 Q1478.43 1475.44 1480.23 1479.01 Q1482.06 1482.55 1485.67 1482.55 Q1489.31 1482.55 1491.11 1479.01 Q1492.94 1475.44 1492.94 1468.33 Q1492.94 1461.2 1491.11 1457.66 Q1489.31 1454.1 1485.67 1454.1 M1485.67 1450.39 Q1491.48 1450.39 1494.54 1455 Q1497.62 1459.58 1497.62 1468.33 Q1497.62 1477.06 1494.54 1481.67 Q1491.48 1486.25 1485.67 1486.25 Q1479.86 1486.25 1476.78 1481.67 Q1473.73 1477.06 1473.73 1468.33 Q1473.73 1459.58 1476.78 1455 Q1479.86 1450.39 1485.67 1450.39 Z" fill="#000000" fill-rule="nonzero" fill-opacity="1" /><path clip-path="url(#clip980)" d="M1515.83 1454.1 Q1512.22 1454.1 1510.39 1457.66 Q1508.59 1461.2 1508.59 1468.33 Q1508.59 1475.44 1510.39 1479.01 Q1512.22 1482.55 1515.83 1482.55 Q1519.47 1482.55 1521.27 1479.01 Q1523.1 1475.44 1523.1 1468.33 Q1523.1 1461.2 1521.27 1457.66 Q1519.47 1454.1 1515.83 1454.1 M1515.83 1450.39 Q1521.64 1450.39 1524.7 1455 Q1527.78 1459.58 1527.78 1468.33 Q1527.78 1477.06 1524.7 1481.67 Q1521.64 1486.25 1515.83 1486.25 Q1510.02 1486.25 1506.94 1481.67 Q1503.89 1477.06 1503.89 1468.33 Q1503.89 1459.58 1506.94 1455 Q1510.02 1450.39 1515.83 1450.39 Z" fill="#000000" fill-rule="nonzero" fill-opacity="1" /><path clip-path="url(#clip980)" d="M1862.24 1455.09 L1850.44 1473.54 L1862.24 1473.54 L1862.24 1455.09 M1861.02 1451.02 L1866.9 1451.02 L1866.9 1473.54 L1871.83 1473.54 L1871.83 1477.43 L1866.9 1477.43 L1866.9 1485.58 L1862.24 1485.58 L1862.24 1477.43 L1846.64 1477.43 L1846.64 1472.92 L1861.02 1451.02 Z" fill="#000000" fill-rule="nonzero" fill-opacity="1" /><path clip-path="url(#clip980)" d="M1889.56 1454.1 Q1885.95 1454.1 1884.12 1457.66 Q1882.31 1461.2 1882.31 1468.33 Q1882.31 1475.44 1884.12 1479.01 Q1885.95 1482.55 1889.56 1482.55 Q1893.19 1482.55 1895 1479.01 Q1896.83 1475.44 1896.83 1468.33 Q1896.83 1461.2 1895 1457.66 Q1893.19 1454.1 1889.56 1454.1 M1889.56 1450.39 Q1895.37 1450.39 1898.42 1455 Q1901.5 1459.58 1901.5 1468.33 Q1901.5 1477.06 1898.42 1481.67 Q1895.37 1486.25 1889.56 1486.25 Q1883.75 1486.25 1880.67 1481.67 Q1877.61 1477.06 1877.61 1468.33 Q1877.61 1459.58 1880.67 1455 Q1883.75 1450.39 1889.56 1450.39 Z" fill="#000000" fill-rule="nonzero" fill-opacity="1" /><path clip-path="url(#clip980)" d="M1919.72 1454.1 Q1916.11 1454.1 1914.28 1457.66 Q1912.47 1461.2 1912.47 1468.33 Q1912.47 1475.44 1914.28 1479.01 Q1916.11 1482.55 1919.72 1482.55 Q1923.35 1482.55 1925.16 1479.01 Q1926.99 1475.44 1926.99 1468.33 Q1926.99 1461.2 1925.16 1457.66 Q1923.35 1454.1 1919.72 1454.1 M1919.72 1450.39 Q1925.53 1450.39 1928.59 1455 Q1931.66 1459.58 1931.66 1468.33 Q1931.66 1477.06 1928.59 1481.67 Q1925.53 1486.25 1919.72 1486.25 Q1913.91 1486.25 1910.83 1481.67 Q1907.78 1477.06 1907.78 1468.33 Q1907.78 1459.58 1910.83 1455 Q1913.91 1450.39 1919.72 1450.39 Z" fill="#000000" fill-rule="nonzero" fill-opacity="1" /><path clip-path="url(#clip980)" d="M2252.01 1451.02 L2270.37 1451.02 L2270.37 1454.96 L2256.29 1454.96 L2256.29 1463.43 Q2257.31 1463.08 2258.33 1462.92 Q2259.35 1462.73 2260.37 1462.73 Q2266.15 1462.73 2269.53 1465.9 Q2272.91 1469.08 2272.91 1474.49 Q2272.91 1480.07 2269.44 1483.17 Q2265.97 1486.25 2259.65 1486.25 Q2257.47 1486.25 2255.2 1485.88 Q2252.96 1485.51 2250.55 1484.77 L2250.55 1480.07 Q2252.63 1481.2 2254.86 1481.76 Q2257.08 1482.32 2259.56 1482.32 Q2263.56 1482.32 2265.9 1480.21 Q2268.24 1478.1 2268.24 1474.49 Q2268.24 1470.88 2265.9 1468.77 Q2263.56 1466.67 2259.56 1466.67 Q2257.68 1466.67 2255.81 1467.08 Q2253.95 1467.5 2252.01 1468.38 L2252.01 1451.02 Z" fill="#000000" fill-rule="nonzero" fill-opacity="1" /><path clip-path="url(#clip980)" d="M2292.12 1454.1 Q2288.51 1454.1 2286.69 1457.66 Q2284.88 1461.2 2284.88 1468.33 Q2284.88 1475.44 2286.69 1479.01 Q2288.51 1482.55 2292.12 1482.55 Q2295.76 1482.55 2297.56 1479.01 Q2299.39 1475.44 2299.39 1468.33 Q2299.39 1461.2 2297.56 1457.66 Q2295.76 1454.1 2292.12 1454.1 M2292.12 1450.39 Q2297.94 1450.39 2300.99 1455 Q2304.07 1459.58 2304.07 1468.33 Q2304.07 1477.06 2300.99 1481.67 Q2297.94 1486.25 2292.12 1486.25 Q2286.31 1486.25 2283.24 1481.67 Q2280.18 1477.06 2280.18 1468.33 Q2280.18 1459.58 2283.24 1455 Q2286.31 1450.39 2292.12 1450.39 Z" fill="#000000" fill-rule="nonzero" fill-opacity="1" /><path clip-path="url(#clip980)" d="M2322.29 1454.1 Q2318.68 1454.1 2316.85 1457.66 Q2315.04 1461.2 2315.04 1468.33 Q2315.04 1475.44 2316.85 1479.01 Q2318.68 1482.55 2322.29 1482.55 Q2325.92 1482.55 2327.73 1479.01 Q2329.56 1475.44 2329.56 1468.33 Q2329.56 1461.2 2327.73 1457.66 Q2325.92 1454.1 2322.29 1454.1 M2322.29 1450.39 Q2328.1 1450.39 2331.15 1455 Q2334.23 1459.58 2334.23 1468.33 Q2334.23 1477.06 2331.15 1481.67 Q2328.1 1486.25 2322.29 1486.25 Q2316.48 1486.25 2313.4 1481.67 Q2310.34 1477.06 2310.34 1468.33 Q2310.34 1459.58 2313.4 1455 Q2316.48 1450.39 2322.29 1450.39 Z" fill="#000000" fill-rule="nonzero" fill-opacity="1" /><path clip-path="url(#clip980)" d="M1246.62 1522.08 L1246.62 1528.35 Q1242.96 1526.6 1239.71 1525.74 Q1236.47 1524.88 1233.44 1524.88 Q1228.19 1524.88 1225.33 1526.92 Q1222.49 1528.96 1222.49 1532.71 Q1222.49 1535.87 1224.37 1537.49 Q1226.28 1539.08 1231.57 1540.07 L1235.45 1540.86 Q1242.64 1542.23 1246.05 1545.7 Q1249.49 1549.14 1249.49 1554.93 Q1249.49 1561.84 1244.84 1565.4 Q1240.22 1568.97 1231.28 1568.97 Q1227.91 1568.97 1224.09 1568.2 Q1220.3 1567.44 1216.22 1565.94 L1216.22 1559.32 Q1220.14 1561.52 1223.9 1562.63 Q1227.65 1563.75 1231.28 1563.75 Q1236.79 1563.75 1239.78 1561.58 Q1242.77 1559.42 1242.77 1555.41 Q1242.77 1551.91 1240.61 1549.93 Q1238.47 1547.96 1233.57 1546.97 L1229.66 1546.21 Q1222.46 1544.78 1219.25 1541.72 Q1216.03 1538.67 1216.03 1533.22 Q1216.03 1526.92 1220.46 1523.29 Q1224.91 1519.66 1232.71 1519.66 Q1236.05 1519.66 1239.52 1520.27 Q1242.99 1520.87 1246.62 1522.08 Z" fill="#000000" fill-rule="nonzero" fill-opacity="1" /><path clip-path="url(#clip980)" d="M1265.05 1522.27 L1265.05 1532.4 L1277.11 1532.4 L1277.11 1536.95 L1265.05 1536.95 L1265.05 1556.3 Q1265.05 1560.66 1266.23 1561.9 Q1267.44 1563.14 1271.1 1563.14 L1277.11 1563.14 L1277.11 1568.04 L1271.1 1568.04 Q1264.32 1568.04 1261.74 1565.53 Q1259.16 1562.98 1259.16 1556.3 L1259.16 1536.95 L1254.86 1536.95 L1254.86 1532.4 L1259.16 1532.4 L1259.16 1522.27 L1265.05 1522.27 Z" fill="#000000" fill-rule="nonzero" fill-opacity="1" /><path clip-path="url(#clip980)" d="M1315.31 1548.76 L1315.31 1551.62 L1288.38 1551.62 Q1288.76 1557.67 1292.01 1560.85 Q1295.29 1564 1301.11 1564 Q1304.49 1564 1307.64 1563.17 Q1310.82 1562.35 1313.94 1560.69 L1313.94 1566.23 Q1310.79 1567.57 1307.48 1568.27 Q1304.17 1568.97 1300.76 1568.97 Q1292.23 1568.97 1287.23 1564 Q1282.27 1559.04 1282.27 1550.57 Q1282.27 1541.82 1286.98 1536.69 Q1291.72 1531.54 1299.74 1531.54 Q1306.94 1531.54 1311.11 1536.18 Q1315.31 1540.8 1315.31 1548.76 M1309.45 1547.04 Q1309.39 1542.23 1306.75 1539.37 Q1304.14 1536.5 1299.81 1536.5 Q1294.9 1536.5 1291.94 1539.27 Q1289.02 1542.04 1288.57 1547.07 L1309.45 1547.04 Z" fill="#000000" fill-rule="nonzero" fill-opacity="1" /><path clip-path="url(#clip980)" d="M1330.58 1562.7 L1330.58 1581.6 L1324.7 1581.6 L1324.7 1532.4 L1330.58 1532.4 L1330.58 1537.81 Q1332.43 1534.62 1335.23 1533.1 Q1338.06 1531.54 1341.98 1531.54 Q1348.47 1531.54 1352.51 1536.69 Q1356.59 1541.85 1356.59 1550.25 Q1356.59 1558.65 1352.51 1563.81 Q1348.47 1568.97 1341.98 1568.97 Q1338.06 1568.97 1335.23 1567.44 Q1332.43 1565.88 1330.58 1562.7 M1350.51 1550.25 Q1350.51 1543.79 1347.84 1540.13 Q1345.19 1536.44 1340.55 1536.44 Q1335.9 1536.44 1333.23 1540.13 Q1330.58 1543.79 1330.58 1550.25 Q1330.58 1556.71 1333.23 1560.4 Q1335.9 1564.07 1340.55 1564.07 Q1345.19 1564.07 1347.84 1560.4 Q1350.51 1556.71 1350.51 1550.25 Z" fill="#000000" fill-rule="nonzero" fill-opacity="1" /><polyline clip-path="url(#clip980)" style="stroke:#000000; stroke-linecap:round; stroke-linejoin:round; stroke-width:4; stroke-opacity:1; fill:none" points="219.866,1423.18 219.866,123.472 "/>
<polyline clip-path="url(#clip980)" style="stroke:#000000; stroke-linecap:round; stroke-linejoin:round; stroke-width:4; stroke-opacity:1; fill:none" points="219.866,1183.73 238.764,1183.73 "/>
<polyline clip-path="url(#clip980)" style="stroke:#000000; stroke-linecap:round; stroke-linejoin:round; stroke-width:4; stroke-opacity:1; fill:none" points="219.866,927.746 238.764,927.746 "/>
<polyline clip-path="url(#clip980)" style="stroke:#000000; stroke-linecap:round; stroke-linejoin:round; stroke-width:4; stroke-opacity:1; fill:none" points="219.866,671.763 238.764,671.763 "/>
<polyline clip-path="url(#clip980)" style="stroke:#000000; stroke-linecap:round; stroke-linejoin:round; stroke-width:4; stroke-opacity:1; fill:none" points="219.866,415.78 238.764,415.78 "/>
<polyline clip-path="url(#clip980)" style="stroke:#000000; stroke-linecap:round; stroke-linejoin:round; stroke-width:4; stroke-opacity:1; fill:none" points="219.866,159.797 238.764,159.797 "/>
<path clip-path="url(#clip980)" d="M128.288 1169.53 Q124.677 1169.53 122.848 1173.09 Q121.043 1176.63 121.043 1183.76 Q121.043 1190.87 122.848 1194.43 Q124.677 1197.98 128.288 1197.98 Q131.922 1197.98 133.728 1194.43 Q135.556 1190.87 135.556 1183.76 Q135.556 1176.63 133.728 1173.09 Q131.922 1169.53 128.288 1169.53 M128.288 1165.82 Q134.098 1165.82 137.154 1170.43 Q140.232 1175.01 140.232 1183.76 Q140.232 1192.49 137.154 1197.1 Q134.098 1201.68 128.288 1201.68 Q122.478 1201.68 119.399 1197.1 Q116.343 1192.49 116.343 1183.76 Q116.343 1175.01 119.399 1170.43 Q122.478 1165.82 128.288 1165.82 Z" fill="#000000" fill-rule="nonzero" fill-opacity="1" /><path clip-path="url(#clip980)" d="M148.45 1195.13 L153.334 1195.13 L153.334 1201.01 L148.45 1201.01 L148.45 1195.13 Z" fill="#000000" fill-rule="nonzero" fill-opacity="1" /><path clip-path="url(#clip980)" d="M167.547 1197.07 L183.866 1197.07 L183.866 1201.01 L161.922 1201.01 L161.922 1197.07 Q164.584 1194.32 169.167 1189.69 Q173.774 1185.04 174.954 1183.69 Q177.2 1181.17 178.079 1179.43 Q178.982 1177.68 178.982 1175.99 Q178.982 1173.23 177.038 1171.49 Q175.116 1169.76 172.014 1169.76 Q169.815 1169.76 167.362 1170.52 Q164.931 1171.29 162.153 1172.84 L162.153 1168.12 Q164.977 1166.98 167.431 1166.4 Q169.885 1165.82 171.922 1165.82 Q177.292 1165.82 180.487 1168.51 Q183.681 1171.19 183.681 1175.68 Q183.681 1177.81 182.871 1179.74 Q182.084 1181.63 179.977 1184.23 Q179.399 1184.9 176.297 1188.12 Q173.195 1191.31 167.547 1197.07 Z" fill="#000000" fill-rule="nonzero" fill-opacity="1" /><path clip-path="url(#clip980)" d="M126.205 913.544 Q122.593 913.544 120.765 917.109 Q118.959 920.651 118.959 927.781 Q118.959 934.887 120.765 938.452 Q122.593 941.993 126.205 941.993 Q129.839 941.993 131.644 938.452 Q133.473 934.887 133.473 927.781 Q133.473 920.651 131.644 917.109 Q129.839 913.544 126.205 913.544 M126.205 909.841 Q132.015 909.841 135.07 914.447 Q138.149 919.031 138.149 927.781 Q138.149 936.507 135.07 941.114 Q132.015 945.697 126.205 945.697 Q120.394 945.697 117.316 941.114 Q114.26 936.507 114.26 927.781 Q114.26 919.031 117.316 914.447 Q120.394 909.841 126.205 909.841 Z" fill="#000000" fill-rule="nonzero" fill-opacity="1" /><path clip-path="url(#clip980)" d="M146.366 939.146 L151.251 939.146 L151.251 945.026 L146.366 945.026 L146.366 939.146 Z" fill="#000000" fill-rule="nonzero" fill-opacity="1" /><path clip-path="url(#clip980)" d="M174.283 914.54 L162.477 932.989 L174.283 932.989 L174.283 914.54 M173.056 910.466 L178.936 910.466 L178.936 932.989 L183.866 932.989 L183.866 936.878 L178.936 936.878 L178.936 945.026 L174.283 945.026 L174.283 936.878 L158.681 936.878 L158.681 932.364 L173.056 910.466 Z" fill="#000000" fill-rule="nonzero" fill-opacity="1" /><path clip-path="url(#clip980)" d="M126.529 657.562 Q122.918 657.562 121.089 661.126 Q119.283 664.668 119.283 671.798 Q119.283 678.904 121.089 682.469 Q122.918 686.011 126.529 686.011 Q130.163 686.011 131.968 682.469 Q133.797 678.904 133.797 671.798 Q133.797 664.668 131.968 661.126 Q130.163 657.562 126.529 657.562 M126.529 653.858 Q132.339 653.858 135.394 658.464 Q138.473 663.048 138.473 671.798 Q138.473 680.524 135.394 685.131 Q132.339 689.714 126.529 689.714 Q120.718 689.714 117.64 685.131 Q114.584 680.524 114.584 671.798 Q114.584 663.048 117.64 658.464 Q120.718 653.858 126.529 653.858 Z" fill="#000000" fill-rule="nonzero" fill-opacity="1" /><path clip-path="url(#clip980)" d="M146.691 683.163 L151.575 683.163 L151.575 689.043 L146.691 689.043 L146.691 683.163 Z" fill="#000000" fill-rule="nonzero" fill-opacity="1" /><path clip-path="url(#clip980)" d="M172.339 669.9 Q169.19 669.9 167.339 672.052 Q165.51 674.205 165.51 677.955 Q165.51 681.682 167.339 683.858 Q169.19 686.011 172.339 686.011 Q175.487 686.011 177.315 683.858 Q179.167 681.682 179.167 677.955 Q179.167 674.205 177.315 672.052 Q175.487 669.9 172.339 669.9 M181.621 655.247 L181.621 659.506 Q179.862 658.673 178.056 658.233 Q176.274 657.793 174.514 657.793 Q169.885 657.793 167.431 660.918 Q165.001 664.043 164.653 670.362 Q166.019 668.349 168.079 667.284 Q170.139 666.196 172.616 666.196 Q177.825 666.196 180.834 669.367 Q183.866 672.515 183.866 677.955 Q183.866 683.279 180.718 686.497 Q177.57 689.714 172.339 689.714 Q166.343 689.714 163.172 685.131 Q160.001 680.524 160.001 671.798 Q160.001 663.603 163.89 658.742 Q167.778 653.858 174.329 653.858 Q176.089 653.858 177.871 654.205 Q179.676 654.552 181.621 655.247 Z" fill="#000000" fill-rule="nonzero" fill-opacity="1" /><path clip-path="url(#clip980)" d="M126.783 401.579 Q123.172 401.579 121.343 405.144 Q119.538 408.685 119.538 415.815 Q119.538 422.921 121.343 426.486 Q123.172 430.028 126.783 430.028 Q130.417 430.028 132.223 426.486 Q134.052 422.921 134.052 415.815 Q134.052 408.685 132.223 405.144 Q130.417 401.579 126.783 401.579 M126.783 397.875 Q132.593 397.875 135.649 402.482 Q138.728 407.065 138.728 415.815 Q138.728 424.542 135.649 429.148 Q132.593 433.731 126.783 433.731 Q120.973 433.731 117.894 429.148 Q114.839 424.542 114.839 415.815 Q114.839 407.065 117.894 402.482 Q120.973 397.875 126.783 397.875 Z" fill="#000000" fill-rule="nonzero" fill-opacity="1" /><path clip-path="url(#clip980)" d="M146.945 427.18 L151.829 427.18 L151.829 433.06 L146.945 433.06 L146.945 427.18 Z" fill="#000000" fill-rule="nonzero" fill-opacity="1" /><path clip-path="url(#clip980)" d="M172.014 416.648 Q168.681 416.648 166.76 418.431 Q164.862 420.213 164.862 423.338 Q164.862 426.463 166.76 428.245 Q168.681 430.028 172.014 430.028 Q175.348 430.028 177.269 428.245 Q179.19 426.44 179.19 423.338 Q179.19 420.213 177.269 418.431 Q175.371 416.648 172.014 416.648 M167.339 414.657 Q164.329 413.917 162.64 411.856 Q160.973 409.796 160.973 406.833 Q160.973 402.69 163.913 400.282 Q166.876 397.875 172.014 397.875 Q177.176 397.875 180.116 400.282 Q183.056 402.69 183.056 406.833 Q183.056 409.796 181.366 411.856 Q179.7 413.917 176.714 414.657 Q180.093 415.444 181.968 417.736 Q183.866 420.028 183.866 423.338 Q183.866 428.361 180.788 431.046 Q177.732 433.731 172.014 433.731 Q166.297 433.731 163.218 431.046 Q160.163 428.361 160.163 423.338 Q160.163 420.028 162.061 417.736 Q163.959 415.444 167.339 414.657 M165.626 407.273 Q165.626 409.958 167.292 411.463 Q168.982 412.968 172.014 412.968 Q175.024 412.968 176.714 411.463 Q178.426 409.958 178.426 407.273 Q178.426 404.588 176.714 403.083 Q175.024 401.579 172.014 401.579 Q168.982 401.579 167.292 403.083 Q165.626 404.588 165.626 407.273 Z" fill="#000000" fill-rule="nonzero" fill-opacity="1" /><path clip-path="url(#clip980)" d="M117.501 173.142 L125.14 173.142 L125.14 146.776 L116.83 148.443 L116.83 144.184 L125.093 142.517 L129.769 142.517 L129.769 173.142 L137.408 173.142 L137.408 177.077 L117.501 177.077 L117.501 173.142 Z" fill="#000000" fill-rule="nonzero" fill-opacity="1" /><path clip-path="url(#clip980)" d="M146.853 171.198 L151.737 171.198 L151.737 177.077 L146.853 177.077 L146.853 171.198 Z" fill="#000000" fill-rule="nonzero" fill-opacity="1" /><path clip-path="url(#clip980)" d="M171.922 145.596 Q168.311 145.596 166.482 149.161 Q164.677 152.702 164.677 159.832 Q164.677 166.938 166.482 170.503 Q168.311 174.045 171.922 174.045 Q175.556 174.045 177.362 170.503 Q179.19 166.938 179.19 159.832 Q179.19 152.702 177.362 149.161 Q175.556 145.596 171.922 145.596 M171.922 141.892 Q177.732 141.892 180.788 146.499 Q183.866 151.082 183.866 159.832 Q183.866 168.559 180.788 173.165 Q177.732 177.749 171.922 177.749 Q166.112 177.749 163.033 173.165 Q159.978 168.559 159.978 159.832 Q159.978 151.082 163.033 146.499 Q166.112 141.892 171.922 141.892 Z" fill="#000000" fill-rule="nonzero" fill-opacity="1" /><path clip-path="url(#clip980)" d="M20.8447 1022.02 Q20.8447 1029.02 26.0645 1033.16 Q31.2844 1037.26 40.2919 1037.26 Q49.2675 1037.26 54.4874 1033.16 Q59.7073 1029.02 59.7073 1022.02 Q59.7073 1015.02 54.4874 1010.94 Q49.2675 1006.84 40.2919 1006.84 Q31.2844 1006.84 26.0645 1010.94 Q20.8447 1015.02 20.8447 1022.02 M15.6248 1022.02 Q15.6248 1012.02 22.3406 1006.04 Q29.0246 1000.06 40.2919 1000.06 Q51.5274 1000.06 58.2432 1006.04 Q64.9272 1012.02 64.9272 1022.02 Q64.9272 1032.04 58.2432 1038.06 Q51.5592 1044.04 40.2919 1044.04 Q29.0246 1044.04 22.3406 1038.06 Q15.6248 1032.04 15.6248 1022.02 Z" fill="#000000" fill-rule="nonzero" fill-opacity="1" /><path clip-path="url(#clip980)" d="M33.8307 969.597 Q33.2578 970.583 33.0032 971.761 Q32.7167 972.907 32.7167 974.307 Q32.7167 979.273 35.9632 981.946 Q39.1779 984.588 45.2253 984.588 L64.0042 984.588 L64.0042 990.476 L28.3562 990.476 L28.3562 984.588 L33.8944 984.588 Q30.6479 982.742 29.0883 979.782 Q27.4968 976.822 27.4968 972.589 Q27.4968 971.984 27.5923 971.252 Q27.656 970.52 27.8151 969.628 L33.8307 969.597 Z" fill="#000000" fill-rule="nonzero" fill-opacity="1" /><path clip-path="url(#clip980)" d="M33.7671 941.142 L14.479 941.142 L14.479 935.285 L64.0042 935.285 L64.0042 941.142 L58.657 941.142 Q61.8398 942.988 63.3994 945.821 Q64.9272 948.622 64.9272 952.568 Q64.9272 959.03 59.771 963.104 Q54.6147 967.146 46.212 967.146 Q37.8093 967.146 32.6531 963.104 Q27.4968 959.03 27.4968 952.568 Q27.4968 948.622 29.0564 945.821 Q30.5842 942.988 33.7671 941.142 M46.212 961.098 Q52.6732 961.098 56.3653 958.457 Q60.0256 955.783 60.0256 951.136 Q60.0256 946.489 56.3653 943.816 Q52.6732 941.142 46.212 941.142 Q39.7508 941.142 36.0905 943.816 Q32.3984 946.489 32.3984 951.136 Q32.3984 955.783 36.0905 958.457 Q39.7508 961.098 46.212 961.098 Z" fill="#000000" fill-rule="nonzero" fill-opacity="1" /><path clip-path="url(#clip980)" d="M44.7161 892.731 L47.5806 892.731 L47.5806 919.658 Q53.6281 919.276 56.8109 916.029 Q59.9619 912.751 59.9619 906.926 Q59.9619 903.552 59.1344 900.401 Q58.3069 897.219 56.6518 894.099 L62.1899 894.099 Q63.5267 897.25 64.227 900.561 Q64.9272 903.871 64.9272 907.276 Q64.9272 915.806 59.9619 920.803 Q54.9967 925.769 46.5303 925.769 Q37.7774 925.769 32.6531 921.058 Q27.4968 916.316 27.4968 908.295 Q27.4968 901.102 32.1438 896.932 Q36.7589 892.731 44.7161 892.731 M42.9973 898.587 Q38.1912 898.651 35.3266 901.293 Q32.4621 903.903 32.4621 908.231 Q32.4621 913.133 35.2312 916.093 Q38.0002 919.021 43.0292 919.467 L42.9973 898.587 Z" fill="#000000" fill-rule="nonzero" fill-opacity="1" /><path clip-path="url(#clip980)" d="M33.8307 862.462 Q33.2578 863.448 33.0032 864.626 Q32.7167 865.772 32.7167 867.172 Q32.7167 872.138 35.9632 874.811 Q39.1779 877.453 45.2253 877.453 L64.0042 877.453 L64.0042 883.341 L28.3562 883.341 L28.3562 877.453 L33.8944 877.453 Q30.6479 875.607 29.0883 872.647 Q27.4968 869.687 27.4968 865.454 Q27.4968 864.849 27.5923 864.117 Q27.656 863.385 27.8151 862.494 L33.8307 862.462 Z" fill="#000000" fill-rule="nonzero" fill-opacity="1" /><path clip-path="url(#clip980)" d="M21.7677 828.915 L39.6235 828.915 L39.6235 820.83 Q39.6235 816.342 37.3 813.891 Q34.9765 811.441 30.6797 811.441 Q26.4147 811.441 24.0912 813.891 Q21.7677 816.342 21.7677 820.83 L21.7677 828.915 M16.4842 835.344 L16.4842 820.83 Q16.4842 812.841 20.1126 808.767 Q23.7092 804.661 30.6797 804.661 Q37.7138 804.661 41.3104 808.767 Q44.907 812.841 44.907 820.83 L44.907 828.915 L64.0042 828.915 L64.0042 835.344 L16.4842 835.344 Z" fill="#000000" fill-rule="nonzero" fill-opacity="1" /><path clip-path="url(#clip980)" d="M46.0847 783.018 Q46.0847 790.116 47.7079 792.853 Q49.3312 795.59 53.2461 795.59 Q56.3653 795.59 58.2114 793.553 Q60.0256 791.484 60.0256 787.951 Q60.0256 783.081 56.5881 780.153 Q53.1188 777.193 47.3897 777.193 L46.0847 777.193 L46.0847 783.018 M43.6657 771.337 L64.0042 771.337 L64.0042 777.193 L58.5933 777.193 Q61.8398 779.198 63.3994 782.19 Q64.9272 785.182 64.9272 789.511 Q64.9272 794.985 61.8716 798.232 Q58.7843 801.446 53.6281 801.446 Q47.6125 801.446 44.5569 797.436 Q41.5014 793.394 41.5014 785.405 L41.5014 777.193 L40.9285 777.193 Q36.8862 777.193 34.6901 779.867 Q32.4621 782.509 32.4621 787.315 Q32.4621 790.37 33.1941 793.267 Q33.9262 796.163 35.3903 798.837 L29.9795 798.837 Q28.7381 795.622 28.1334 792.598 Q27.4968 789.574 27.4968 786.71 Q27.4968 778.976 31.5072 775.156 Q35.5176 771.337 43.6657 771.337 Z" fill="#000000" fill-rule="nonzero" fill-opacity="1" /><path clip-path="url(#clip980)" d="M33.8307 738.617 Q33.2578 739.604 33.0032 740.781 Q32.7167 741.927 32.7167 743.328 Q32.7167 748.293 35.9632 750.966 Q39.1779 753.608 45.2253 753.608 L64.0042 753.608 L64.0042 759.496 L28.3562 759.496 L28.3562 753.608 L33.8944 753.608 Q30.6479 751.762 29.0883 748.802 Q27.4968 745.842 27.4968 741.609 Q27.4968 741.004 27.5923 740.272 Q27.656 739.54 27.8151 738.649 L33.8307 738.617 Z" fill="#000000" fill-rule="nonzero" fill-opacity="1" /><path clip-path="url(#clip980)" d="M46.0847 716.273 Q46.0847 723.371 47.7079 726.108 Q49.3312 728.846 53.2461 728.846 Q56.3653 728.846 58.2114 726.809 Q60.0256 724.74 60.0256 721.207 Q60.0256 716.337 56.5881 713.409 Q53.1188 710.449 47.3897 710.449 L46.0847 710.449 L46.0847 716.273 M43.6657 704.592 L64.0042 704.592 L64.0042 710.449 L58.5933 710.449 Q61.8398 712.454 63.3994 715.446 Q64.9272 718.438 64.9272 722.766 Q64.9272 728.241 61.8716 731.487 Q58.7843 734.702 53.6281 734.702 Q47.6125 734.702 44.5569 730.692 Q41.5014 726.649 41.5014 718.66 L41.5014 710.449 L40.9285 710.449 Q36.8862 710.449 34.6901 713.122 Q32.4621 715.764 32.4621 720.57 Q32.4621 723.626 33.1941 726.522 Q33.9262 729.419 35.3903 732.092 L29.9795 732.092 Q28.7381 728.877 28.1334 725.854 Q27.4968 722.83 27.4968 719.965 Q27.4968 712.231 31.5072 708.412 Q35.5176 704.592 43.6657 704.592 Z" fill="#000000" fill-rule="nonzero" fill-opacity="1" /><path clip-path="url(#clip980)" d="M35.1993 664.775 Q31.2526 662.579 29.3747 659.523 Q27.4968 656.468 27.4968 652.33 Q27.4968 646.76 31.4117 643.736 Q35.2948 640.712 42.4881 640.712 L64.0042 640.712 L64.0042 646.601 L42.679 646.601 Q37.5546 646.601 35.072 648.415 Q32.5894 650.229 32.5894 653.953 Q32.5894 658.505 35.6131 661.146 Q38.6368 663.788 43.8567 663.788 L64.0042 663.788 L64.0042 669.676 L42.679 669.676 Q37.5228 669.676 35.072 671.491 Q32.5894 673.305 32.5894 677.092 Q32.5894 681.58 35.6449 684.222 Q38.6686 686.864 43.8567 686.864 L64.0042 686.864 L64.0042 692.752 L28.3562 692.752 L28.3562 686.864 L33.8944 686.864 Q30.616 684.859 29.0564 682.058 Q27.4968 679.257 27.4968 675.406 Q27.4968 671.522 29.4702 668.817 Q31.4436 666.08 35.1993 664.775 Z" fill="#000000" fill-rule="nonzero" fill-opacity="1" /><path clip-path="url(#clip980)" d="M44.7161 598.54 L47.5806 598.54 L47.5806 625.467 Q53.6281 625.085 56.8109 621.838 Q59.9619 618.56 59.9619 612.735 Q59.9619 609.361 59.1344 606.21 Q58.3069 603.027 56.6518 599.908 L62.1899 599.908 Q63.5267 603.059 64.227 606.369 Q64.9272 609.68 64.9272 613.085 Q64.9272 621.615 59.9619 626.612 Q54.9967 631.578 46.5303 631.578 Q37.7774 631.578 32.6531 626.867 Q27.4968 622.125 27.4968 614.104 Q27.4968 606.91 32.1438 602.741 Q36.7589 598.54 44.7161 598.54 M42.9973 604.396 Q38.1912 604.46 35.3266 607.101 Q32.4621 609.711 32.4621 614.04 Q32.4621 618.942 35.2312 621.902 Q38.0002 624.83 43.0292 625.276 L42.9973 604.396 Z" fill="#000000" fill-rule="nonzero" fill-opacity="1" /><path clip-path="url(#clip980)" d="M18.2347 583.135 L28.3562 583.135 L28.3562 571.072 L32.9077 571.072 L32.9077 583.135 L52.2594 583.135 Q56.6199 583.135 57.8613 581.957 Q59.1026 580.747 59.1026 577.087 L59.1026 571.072 L64.0042 571.072 L64.0042 577.087 Q64.0042 583.867 61.4897 586.445 Q58.9434 589.023 52.2594 589.023 L32.9077 589.023 L32.9077 593.32 L28.3562 593.32 L28.3562 589.023 L18.2347 589.023 L18.2347 583.135 Z" fill="#000000" fill-rule="nonzero" fill-opacity="1" /><path clip-path="url(#clip980)" d="M44.7161 532.877 L47.5806 532.877 L47.5806 559.804 Q53.6281 559.422 56.8109 556.176 Q59.9619 552.897 59.9619 547.073 Q59.9619 543.699 59.1344 540.548 Q58.3069 537.365 56.6518 534.246 L62.1899 534.246 Q63.5267 537.397 64.227 540.707 Q64.9272 544.017 64.9272 547.423 Q64.9272 555.953 59.9619 560.95 Q54.9967 565.915 46.5303 565.915 Q37.7774 565.915 32.6531 561.205 Q27.4968 556.462 27.4968 548.441 Q27.4968 541.248 32.1438 537.079 Q36.7589 532.877 44.7161 532.877 M42.9973 538.734 Q38.1912 538.797 35.3266 541.439 Q32.4621 544.049 32.4621 548.378 Q32.4621 553.279 35.2312 556.239 Q38.0002 559.168 43.0292 559.613 L42.9973 538.734 Z" fill="#000000" fill-rule="nonzero" fill-opacity="1" /><path clip-path="url(#clip980)" d="M33.8307 502.608 Q33.2578 503.595 33.0032 504.773 Q32.7167 505.919 32.7167 507.319 Q32.7167 512.284 35.9632 514.958 Q39.1779 517.6 45.2253 517.6 L64.0042 517.6 L64.0042 523.488 L28.3562 523.488 L28.3562 517.6 L33.8944 517.6 Q30.6479 515.754 29.0883 512.794 Q27.4968 509.833 27.4968 505.6 Q27.4968 504.996 27.5923 504.263 Q27.656 503.531 27.8151 502.64 L33.8307 502.608 Z" fill="#000000" fill-rule="nonzero" fill-opacity="1" /><path clip-path="url(#clip980)" d="M711.771 17.6457 Q702.859 17.6457 697.593 24.2892 Q692.368 30.9327 692.368 42.3968 Q692.368 53.8203 697.593 60.4638 Q702.859 67.1073 711.771 67.1073 Q720.683 67.1073 725.868 60.4638 Q731.094 53.8203 731.094 42.3968 Q731.094 30.9327 725.868 24.2892 Q720.683 17.6457 711.771 17.6457 M711.771 11.0023 Q724.491 11.0023 732.107 19.5497 Q739.723 28.0566 739.723 42.3968 Q739.723 56.6965 732.107 65.2439 Q724.491 73.7508 711.771 73.7508 Q699.011 73.7508 691.355 65.2439 Q683.739 56.737 683.739 42.3968 Q683.739 28.0566 691.355 19.5497 Q699.011 11.0023 711.771 11.0023 Z" fill="#000000" fill-rule="nonzero" fill-opacity="1" /><path clip-path="url(#clip980)" d="M778.49 34.1734 Q777.234 33.4443 775.735 33.1202 Q774.277 32.7556 772.494 32.7556 Q766.175 32.7556 762.772 36.8875 Q759.41 40.9789 759.41 48.6757 L759.41 72.576 L751.916 72.576 L751.916 27.2059 L759.41 27.2059 L759.41 34.2544 Q761.759 30.1225 765.527 28.1376 Q769.294 26.1121 774.682 26.1121 Q775.452 26.1121 776.383 26.2337 Q777.315 26.3147 778.449 26.5172 L778.49 34.1734 Z" fill="#000000" fill-rule="nonzero" fill-opacity="1" /><path clip-path="url(#clip980)" d="M814.705 34.0924 L814.705 9.54393 L822.158 9.54393 L822.158 72.576 L814.705 72.576 L814.705 65.7705 Q812.355 69.8214 808.75 71.8063 Q805.185 73.7508 800.162 73.7508 Q791.939 73.7508 786.754 67.1883 Q781.609 60.6258 781.609 49.9314 Q781.609 39.2371 786.754 32.6746 Q791.939 26.1121 800.162 26.1121 Q805.185 26.1121 808.75 28.0971 Q812.355 30.0415 814.705 34.0924 M789.306 49.9314 Q789.306 58.1548 792.668 62.8538 Q796.071 67.5124 801.985 67.5124 Q807.899 67.5124 811.302 62.8538 Q814.705 58.1548 814.705 49.9314 Q814.705 41.7081 811.302 37.0496 Q807.899 32.3505 801.985 32.3505 Q796.071 32.3505 792.668 37.0496 Q789.306 41.7081 789.306 49.9314 Z" fill="#000000" fill-rule="nonzero" fill-opacity="1" /><path clip-path="url(#clip980)" d="M876.319 48.0275 L876.319 51.6733 L842.048 51.6733 Q842.535 59.3701 846.666 63.421 Q850.839 67.4314 858.252 67.4314 Q862.546 67.4314 866.556 66.3781 Q870.607 65.3249 874.577 63.2184 L874.577 70.267 Q870.567 71.9684 866.354 72.8596 Q862.141 73.7508 857.806 73.7508 Q846.95 73.7508 840.59 67.4314 Q834.271 61.1119 834.271 50.3365 Q834.271 39.1965 840.266 32.6746 Q846.302 26.1121 856.51 26.1121 Q865.665 26.1121 870.972 32.0264 Q876.319 37.9003 876.319 48.0275 M868.865 45.84 Q868.784 39.7232 865.422 36.0774 Q862.1 32.4315 856.591 32.4315 Q850.353 32.4315 846.585 35.9558 Q842.859 39.4801 842.291 45.8805 L868.865 45.84 Z" fill="#000000" fill-rule="nonzero" fill-opacity="1" /><path clip-path="url(#clip980)" d="M914.843 34.1734 Q913.587 33.4443 912.089 33.1202 Q910.63 32.7556 908.848 32.7556 Q902.528 32.7556 899.126 36.8875 Q895.763 40.9789 895.763 48.6757 L895.763 72.576 L888.269 72.576 L888.269 27.2059 L895.763 27.2059 L895.763 34.2544 Q898.113 30.1225 901.88 28.1376 Q905.648 26.1121 911.035 26.1121 Q911.805 26.1121 912.737 26.2337 Q913.668 26.3147 914.803 26.5172 L914.843 34.1734 Z" fill="#000000" fill-rule="nonzero" fill-opacity="1" /><path clip-path="url(#clip980)" d="M957.54 18.8205 L957.54 41.5461 L967.829 41.5461 Q973.541 41.5461 976.66 38.5889 Q979.779 35.6318 979.779 30.163 Q979.779 24.7348 976.66 21.7777 Q973.541 18.8205 967.829 18.8205 L957.54 18.8205 M949.357 12.096 L967.829 12.096 Q977.997 12.096 983.182 16.714 Q988.408 21.2916 988.408 30.163 Q988.408 39.1155 983.182 43.6931 Q977.997 48.2706 967.829 48.2706 L957.54 48.2706 L957.54 72.576 L949.357 72.576 L949.357 12.096 Z" fill="#000000" fill-rule="nonzero" fill-opacity="1" /><path clip-path="url(#clip980)" d="M1015.95 49.7694 Q1006.92 49.7694 1003.44 51.8354 Q999.953 53.9013 999.953 58.8839 Q999.953 62.8538 1002.55 65.2034 Q1005.18 67.5124 1009.67 67.5124 Q1015.87 67.5124 1019.6 63.1374 Q1023.37 58.7219 1023.37 51.4303 L1023.37 49.7694 L1015.95 49.7694 M1030.82 46.6907 L1030.82 72.576 L1023.37 72.576 L1023.37 65.6895 Q1020.81 69.8214 1017.01 71.8063 Q1013.2 73.7508 1007.69 73.7508 Q1000.72 73.7508 996.59 69.8619 Q992.499 65.9325 992.499 59.3701 Q992.499 51.7138 997.603 47.825 Q1002.75 43.9361 1012.92 43.9361 L1023.37 43.9361 L1023.37 43.2069 Q1023.37 38.0623 1019.96 35.2672 Q1016.6 32.4315 1010.49 32.4315 Q1006.6 32.4315 1002.91 33.3632 Q999.224 34.295 995.821 36.1584 L995.821 29.2718 Q999.912 27.692 1003.76 26.9223 Q1007.61 26.1121 1011.25 26.1121 Q1021.1 26.1121 1025.96 31.2163 Q1030.82 36.3204 1030.82 46.6907 Z" fill="#000000" fill-rule="nonzero" fill-opacity="1" /><path clip-path="url(#clip980)" d="M1072.46 34.1734 Q1071.21 33.4443 1069.71 33.1202 Q1068.25 32.7556 1066.47 32.7556 Q1060.15 32.7556 1056.75 36.8875 Q1053.38 40.9789 1053.38 48.6757 L1053.38 72.576 L1045.89 72.576 L1045.89 27.2059 L1053.38 27.2059 L1053.38 34.2544 Q1055.73 30.1225 1059.5 28.1376 Q1063.27 26.1121 1068.66 26.1121 Q1069.43 26.1121 1070.36 26.2337 Q1071.29 26.3147 1072.42 26.5172 L1072.46 34.1734 Z" fill="#000000" fill-rule="nonzero" fill-opacity="1" /><path clip-path="url(#clip980)" d="M1100.9 49.7694 Q1091.87 49.7694 1088.38 51.8354 Q1084.9 53.9013 1084.9 58.8839 Q1084.9 62.8538 1087.49 65.2034 Q1090.13 67.5124 1094.62 67.5124 Q1100.82 67.5124 1104.55 63.1374 Q1108.31 58.7219 1108.31 51.4303 L1108.31 49.7694 L1100.9 49.7694 M1115.77 46.6907 L1115.77 72.576 L1108.31 72.576 L1108.31 65.6895 Q1105.76 69.8214 1101.95 71.8063 Q1098.15 73.7508 1092.64 73.7508 Q1085.67 73.7508 1081.54 69.8619 Q1077.45 65.9325 1077.45 59.3701 Q1077.45 51.7138 1082.55 47.825 Q1087.7 43.9361 1097.86 43.9361 L1108.31 43.9361 L1108.31 43.2069 Q1108.31 38.0623 1104.91 35.2672 Q1101.55 32.4315 1095.43 32.4315 Q1091.54 32.4315 1087.86 33.3632 Q1084.17 34.295 1080.77 36.1584 L1080.77 29.2718 Q1084.86 27.692 1088.71 26.9223 Q1092.56 26.1121 1096.2 26.1121 Q1106.05 26.1121 1110.91 31.2163 Q1115.77 36.3204 1115.77 46.6907 Z" fill="#000000" fill-rule="nonzero" fill-opacity="1" /><path clip-path="url(#clip980)" d="M1166.44 35.9153 Q1169.24 30.8922 1173.13 28.5022 Q1177.02 26.1121 1182.28 26.1121 Q1189.37 26.1121 1193.22 31.0947 Q1197.07 36.0368 1197.07 45.1919 L1197.07 72.576 L1189.58 72.576 L1189.58 45.4349 Q1189.58 38.913 1187.27 35.7533 Q1184.96 32.5936 1180.22 32.5936 Q1174.43 32.5936 1171.06 36.4419 Q1167.7 40.2903 1167.7 46.9338 L1167.7 72.576 L1160.21 72.576 L1160.21 45.4349 Q1160.21 38.8725 1157.9 35.7533 Q1155.59 32.5936 1150.77 32.5936 Q1145.06 32.5936 1141.69 36.4824 Q1138.33 40.3308 1138.33 46.9338 L1138.33 72.576 L1130.84 72.576 L1130.84 27.2059 L1138.33 27.2059 L1138.33 34.2544 Q1140.88 30.082 1144.45 28.0971 Q1148.01 26.1121 1152.91 26.1121 Q1157.86 26.1121 1161.3 28.6237 Q1164.78 31.1352 1166.44 35.9153 Z" fill="#000000" fill-rule="nonzero" fill-opacity="1" /><path clip-path="url(#clip980)" d="M1250.74 48.0275 L1250.74 51.6733 L1216.47 51.6733 Q1216.96 59.3701 1221.09 63.421 Q1225.26 67.4314 1232.68 67.4314 Q1236.97 67.4314 1240.98 66.3781 Q1245.03 65.3249 1249 63.2184 L1249 70.267 Q1244.99 71.9684 1240.78 72.8596 Q1236.57 73.7508 1232.23 73.7508 Q1221.38 73.7508 1215.02 67.4314 Q1208.7 61.1119 1208.7 50.3365 Q1208.7 39.1965 1214.69 32.6746 Q1220.73 26.1121 1230.94 26.1121 Q1240.09 26.1121 1245.4 32.0264 Q1250.74 37.9003 1250.74 48.0275 M1243.29 45.84 Q1243.21 39.7232 1239.85 36.0774 Q1236.53 32.4315 1231.02 32.4315 Q1224.78 32.4315 1221.01 35.9558 Q1217.28 39.4801 1216.72 45.8805 L1243.29 45.84 Z" fill="#000000" fill-rule="nonzero" fill-opacity="1" /><path clip-path="url(#clip980)" d="M1270.35 14.324 L1270.35 27.2059 L1285.7 27.2059 L1285.7 32.9987 L1270.35 32.9987 L1270.35 57.6282 Q1270.35 63.1779 1271.85 64.7578 Q1273.39 66.3376 1278.05 66.3376 L1285.7 66.3376 L1285.7 72.576 L1278.05 72.576 Q1269.42 72.576 1266.14 69.3758 Q1262.86 66.1351 1262.86 57.6282 L1262.86 32.9987 L1257.39 32.9987 L1257.39 27.2059 L1262.86 27.2059 L1262.86 14.324 L1270.35 14.324 Z" fill="#000000" fill-rule="nonzero" fill-opacity="1" /><path clip-path="url(#clip980)" d="M1334.31 48.0275 L1334.31 51.6733 L1300.04 51.6733 Q1300.53 59.3701 1304.66 63.421 Q1308.83 67.4314 1316.25 67.4314 Q1320.54 67.4314 1324.55 66.3781 Q1328.6 65.3249 1332.57 63.2184 L1332.57 70.267 Q1328.56 71.9684 1324.35 72.8596 Q1320.14 73.7508 1315.8 73.7508 Q1304.95 73.7508 1298.59 67.4314 Q1292.27 61.1119 1292.27 50.3365 Q1292.27 39.1965 1298.26 32.6746 Q1304.3 26.1121 1314.51 26.1121 Q1323.66 26.1121 1328.97 32.0264 Q1334.31 37.9003 1334.31 48.0275 M1326.86 45.84 Q1326.78 39.7232 1323.42 36.0774 Q1320.1 32.4315 1314.59 32.4315 Q1308.35 32.4315 1304.58 35.9558 Q1300.85 39.4801 1300.29 45.8805 L1326.86 45.84 Z" fill="#000000" fill-rule="nonzero" fill-opacity="1" /><path clip-path="url(#clip980)" d="M1372.84 34.1734 Q1371.58 33.4443 1370.08 33.1202 Q1368.63 32.7556 1366.84 32.7556 Q1360.52 32.7556 1357.12 36.8875 Q1353.76 40.9789 1353.76 48.6757 L1353.76 72.576 L1346.26 72.576 L1346.26 27.2059 L1353.76 27.2059 L1353.76 34.2544 Q1356.11 30.1225 1359.88 28.1376 Q1363.64 26.1121 1369.03 26.1121 Q1369.8 26.1121 1370.73 26.2337 Q1371.66 26.3147 1372.8 26.5172 L1372.84 34.1734 Z" fill="#000000" fill-rule="nonzero" fill-opacity="1" /><path clip-path="url(#clip980)" d="M1452.64 16.7545 L1452.64 25.383 Q1448.51 21.5346 1443.81 19.6307 Q1439.15 17.7268 1433.89 17.7268 Q1423.52 17.7268 1418.01 24.0867 Q1412.5 30.4061 1412.5 42.3968 Q1412.5 54.3469 1418.01 60.7069 Q1423.52 67.0263 1433.89 67.0263 Q1439.15 67.0263 1443.81 65.1223 Q1448.51 63.2184 1452.64 59.3701 L1452.64 67.9175 Q1448.35 70.8341 1443.53 72.2924 Q1438.75 73.7508 1433.4 73.7508 Q1419.67 73.7508 1411.77 65.3654 Q1403.87 56.9395 1403.87 42.3968 Q1403.87 27.8135 1411.77 19.4281 Q1419.67 11.0023 1433.4 11.0023 Q1438.83 11.0023 1443.61 12.4606 Q1448.43 13.8784 1452.64 16.7545 Z" fill="#000000" fill-rule="nonzero" fill-opacity="1" /><path clip-path="url(#clip980)" d="M1482.54 32.4315 Q1476.54 32.4315 1473.06 37.1306 Q1469.57 41.7891 1469.57 49.9314 Q1469.57 58.0738 1473.02 62.7728 Q1476.5 67.4314 1482.54 67.4314 Q1488.49 67.4314 1491.98 62.7323 Q1495.46 58.0333 1495.46 49.9314 Q1495.46 41.8701 1491.98 37.1711 Q1488.49 32.4315 1482.54 32.4315 M1482.54 26.1121 Q1492.26 26.1121 1497.81 32.4315 Q1503.36 38.7509 1503.36 49.9314 Q1503.36 61.0714 1497.81 67.4314 Q1492.26 73.7508 1482.54 73.7508 Q1472.77 73.7508 1467.22 67.4314 Q1461.72 61.0714 1461.72 49.9314 Q1461.72 38.7509 1467.22 32.4315 Q1472.77 26.1121 1482.54 26.1121 Z" fill="#000000" fill-rule="nonzero" fill-opacity="1" /><path clip-path="url(#clip980)" d="M1551.04 35.9153 Q1553.83 30.8922 1557.72 28.5022 Q1561.61 26.1121 1566.88 26.1121 Q1573.97 26.1121 1577.81 31.0947 Q1581.66 36.0368 1581.66 45.1919 L1581.66 72.576 L1574.17 72.576 L1574.17 45.4349 Q1574.17 38.913 1571.86 35.7533 Q1569.55 32.5936 1564.81 32.5936 Q1559.02 32.5936 1555.66 36.4419 Q1552.29 40.2903 1552.29 46.9338 L1552.29 72.576 L1544.8 72.576 L1544.8 45.4349 Q1544.8 38.8725 1542.49 35.7533 Q1540.18 32.5936 1535.36 32.5936 Q1529.65 32.5936 1526.29 36.4824 Q1522.92 40.3308 1522.92 46.9338 L1522.92 72.576 L1515.43 72.576 L1515.43 27.2059 L1522.92 27.2059 L1522.92 34.2544 Q1525.48 30.082 1529.04 28.0971 Q1532.61 26.1121 1537.51 26.1121 Q1542.45 26.1121 1545.89 28.6237 Q1549.38 31.1352 1551.04 35.9153 Z" fill="#000000" fill-rule="nonzero" fill-opacity="1" /><path clip-path="url(#clip980)" d="M1603.74 65.7705 L1603.74 89.8329 L1596.25 89.8329 L1596.25 27.2059 L1603.74 27.2059 L1603.74 34.0924 Q1606.09 30.0415 1609.65 28.0971 Q1613.26 26.1121 1618.24 26.1121 Q1626.51 26.1121 1631.65 32.6746 Q1636.84 39.2371 1636.84 49.9314 Q1636.84 60.6258 1631.65 67.1883 Q1626.51 73.7508 1618.24 73.7508 Q1613.26 73.7508 1609.65 71.8063 Q1606.09 69.8214 1603.74 65.7705 M1629.1 49.9314 Q1629.1 41.7081 1625.7 37.0496 Q1622.33 32.3505 1616.42 32.3505 Q1610.5 32.3505 1607.1 37.0496 Q1603.74 41.7081 1603.74 49.9314 Q1603.74 58.1548 1607.1 62.8538 Q1610.5 67.5124 1616.42 67.5124 Q1622.33 67.5124 1625.7 62.8538 Q1629.1 58.1548 1629.1 49.9314 Z" fill="#000000" fill-rule="nonzero" fill-opacity="1" /><path clip-path="url(#clip980)" d="M1669.81 49.7694 Q1660.78 49.7694 1657.29 51.8354 Q1653.81 53.9013 1653.81 58.8839 Q1653.81 62.8538 1656.4 65.2034 Q1659.03 67.5124 1663.53 67.5124 Q1669.73 67.5124 1673.46 63.1374 Q1677.22 58.7219 1677.22 51.4303 L1677.22 49.7694 L1669.81 49.7694 M1684.68 46.6907 L1684.68 72.576 L1677.22 72.576 L1677.22 65.6895 Q1674.67 69.8214 1670.86 71.8063 Q1667.06 73.7508 1661.55 73.7508 Q1654.58 73.7508 1650.45 69.8619 Q1646.36 65.9325 1646.36 59.3701 Q1646.36 51.7138 1651.46 47.825 Q1656.6 43.9361 1666.77 43.9361 L1677.22 43.9361 L1677.22 43.2069 Q1677.22 38.0623 1673.82 35.2672 Q1670.46 32.4315 1664.34 32.4315 Q1660.45 32.4315 1656.77 33.3632 Q1653.08 34.295 1649.68 36.1584 L1649.68 29.2718 Q1653.77 27.692 1657.62 26.9223 Q1661.47 26.1121 1665.11 26.1121 Q1674.95 26.1121 1679.82 31.2163 Q1684.68 36.3204 1684.68 46.6907 Z" fill="#000000" fill-rule="nonzero" fill-opacity="1" /><path clip-path="url(#clip980)" d="M1726.32 34.1734 Q1725.06 33.4443 1723.57 33.1202 Q1722.11 32.7556 1720.32 32.7556 Q1714.01 32.7556 1710.6 36.8875 Q1707.24 40.9789 1707.24 48.6757 L1707.24 72.576 L1699.75 72.576 L1699.75 27.2059 L1707.24 27.2059 L1707.24 34.2544 Q1709.59 30.1225 1713.36 28.1376 Q1717.12 26.1121 1722.51 26.1121 Q1723.28 26.1121 1724.21 26.2337 Q1725.15 26.3147 1726.28 26.5172 L1726.32 34.1734 Z" fill="#000000" fill-rule="nonzero" fill-opacity="1" /><path clip-path="url(#clip980)" d="M1734.14 27.2059 L1741.59 27.2059 L1741.59 72.576 L1734.14 72.576 L1734.14 27.2059 M1734.14 9.54393 L1741.59 9.54393 L1741.59 18.9825 L1734.14 18.9825 L1734.14 9.54393 Z" fill="#000000" fill-rule="nonzero" fill-opacity="1" /><path clip-path="url(#clip980)" d="M1786.11 28.5427 L1786.11 35.5912 Q1782.95 33.9709 1779.55 33.1607 Q1776.15 32.3505 1772.5 32.3505 Q1766.95 32.3505 1764.16 34.0519 Q1761.4 35.7533 1761.4 39.156 Q1761.4 41.7486 1763.39 43.2475 Q1765.37 44.7058 1771.37 46.0426 L1773.92 46.6097 Q1781.86 48.3111 1785.18 51.4303 Q1788.54 54.509 1788.54 60.0587 Q1788.54 66.3781 1783.52 70.0644 Q1778.54 73.7508 1769.79 73.7508 Q1766.14 73.7508 1762.17 73.0216 Q1758.24 72.3329 1753.87 70.9151 L1753.87 63.2184 Q1758 65.3654 1762.01 66.4591 Q1766.02 67.5124 1769.95 67.5124 Q1775.21 67.5124 1778.05 65.73 Q1780.89 63.9071 1780.89 60.6258 Q1780.89 57.5877 1778.82 55.9673 Q1776.79 54.3469 1769.87 52.8481 L1767.27 52.2405 Q1760.35 50.7821 1757.27 47.7845 Q1754.19 44.7463 1754.19 39.4801 Q1754.19 33.0797 1758.73 29.5959 Q1763.26 26.1121 1771.61 26.1121 Q1775.74 26.1121 1779.39 26.7198 Q1783.03 27.3274 1786.11 28.5427 Z" fill="#000000" fill-rule="nonzero" fill-opacity="1" /><path clip-path="url(#clip980)" d="M1817.99 32.4315 Q1812 32.4315 1808.51 37.1306 Q1805.03 41.7891 1805.03 49.9314 Q1805.03 58.0738 1808.47 62.7728 Q1811.96 67.4314 1817.99 67.4314 Q1823.95 67.4314 1827.43 62.7323 Q1830.91 58.0333 1830.91 49.9314 Q1830.91 41.8701 1827.43 37.1711 Q1823.95 32.4315 1817.99 32.4315 M1817.99 26.1121 Q1827.71 26.1121 1833.26 32.4315 Q1838.81 38.7509 1838.81 49.9314 Q1838.81 61.0714 1833.26 67.4314 Q1827.71 73.7508 1817.99 73.7508 Q1808.23 73.7508 1802.68 67.4314 Q1797.17 61.0714 1797.17 49.9314 Q1797.17 38.7509 1802.68 32.4315 Q1808.23 26.1121 1817.99 26.1121 Z" fill="#000000" fill-rule="nonzero" fill-opacity="1" /><path clip-path="url(#clip980)" d="M1888.88 45.1919 L1888.88 72.576 L1881.43 72.576 L1881.43 45.4349 Q1881.43 38.994 1878.92 35.7938 Q1876.41 32.5936 1871.38 32.5936 Q1865.35 32.5936 1861.86 36.4419 Q1858.38 40.2903 1858.38 46.9338 L1858.38 72.576 L1850.89 72.576 L1850.89 27.2059 L1858.38 27.2059 L1858.38 34.2544 Q1861.05 30.163 1864.66 28.1376 Q1868.3 26.1121 1873.04 26.1121 Q1880.86 26.1121 1884.87 30.9732 Q1888.88 35.7938 1888.88 45.1919 Z" fill="#000000" fill-rule="nonzero" fill-opacity="1" /><polyline clip-path="url(#clip982)" style="stroke:#0000ff; stroke-linecap:round; stroke-linejoin:round; stroke-width:8; stroke-opacity:1; fill:none" points="280.231,1374.84 284.263,1357.13 288.296,1347.96 292.328,1354.13 296.361,1360.53 300.393,1367.61 304.425,1370.74 308.458,1372.43 312.49,1385.67 316.523,1369.03 320.555,1384.2 324.587,1378.41 328.62,1376.95 332.652,1366.64 336.684,1361.93 340.717,1359.81 344.749,1357.71 348.782,1355.65 352.814,1353.17 356.846,1349.52 360.879,1346.28 364.911,1341.94 368.944,1336.94 372.976,1332.21 377.008,1326.38 381.041,1320.2 385.073,1311.63 389.105,1301.03 393.138,1286.54 397.17,1269.41 401.203,1251.32 405.235,1239.17 409.267,1233.08 413.3,1227.63 417.332,1221.09 421.365,1214.23 425.397,1208.97 429.429,1203.15 433.462,1196.27 437.494,1192.5 441.526,1196.96 445.559,1204.97 449.591,1208.16 453.624,1211.72 457.656,1214.12 461.688,1216.66 465.721,1220.15 469.753,1231.59 473.786,1228.27 477.818,1228.8 481.85,1231.48 485.883,1234.41 489.915,1237.09 493.947,1237.68 497.98,1233.89 502.012,1225.57 506.045,1205.47 510.077,1200.78 514.109,1199.67 518.142,1198.06 522.174,1194.64 526.207,1188.46 530.239,1181.8 534.271,1177.13 538.304,1169.82 542.336,1162.46 546.368,1155.78 550.401,1148.33 554.433,1142.29 558.466,1141.98 562.498,1125.78 566.53,1111.8 570.563,1116.7 574.595,1111.9 578.628,1103.89 582.66,1092.67 586.692,1080.62 590.725,1072.27 594.757,1064.78 598.789,1055.9 602.822,1045.56 606.854,1037.16 610.887,1030.06 614.919,1023.94 618.951,1017.07 622.984,1010.45 627.016,1004.57 631.049,1000.96 635.081,997.448 639.113,992.872 643.146,985.782 647.178,976.182 651.21,966.362 655.243,954.87 659.275,943.598 663.308,933.917 667.34,923.573 671.372,913.698 675.405,913.277 679.437,912.975 683.47,908.587 687.502,904.141 691.534,900.689 695.567,898.949 699.599,896.525 703.631,895.34 707.664,895.597 711.696,885.515 715.729,872.026 719.761,862.529 723.793,858.124 727.826,854.442 731.858,851.929 735.891,851.132 739.923,850.746 743.955,851.427 747.988,849.542 752.02,843.066 756.052,833.437 760.085,823.295 764.117,813.618 768.15,804.899 772.182,794.957 776.214,786.214 780.247,778.142 784.279,769.761 788.312,762.291 792.344,756.328 796.376,749.76 800.409,742.318 804.441,735.571 808.473,727.281 812.506,717.68 816.538,708.289 820.571,698.999 824.603,689.86 828.635,680.902 832.668,672.88 836.7,665.656 840.733,657.835 844.765,648.765 848.797,639.312 852.83,627.834 856.862,596.753 860.894,582.85 864.927,571.002 868.959,559.366 872.992,548.934 877.024,539.481 881.056,531.326 885.089,523.637 889.121,516.365 893.154,509.515 897.186,502.807 901.218,496.891 905.251,491.607 909.283,486.086 913.315,480.706 917.348,475.231 921.38,470.016 925.413,465.313 929.445,460.654 933.477,455.831 937.51,451.542 941.542,447.878 945.575,444.031 949.607,440.133 953.639,436.251 957.672,432.271 961.704,428.322 965.736,424.003 969.769,419.652 973.801,415.554 977.834,411.337 981.866,407.039 985.898,402.795 989.931,399.506 993.963,396.323 997.996,393.141 1002.03,390.251 1006.06,386.915 1010.09,383.713 1014.13,380.71 1018.16,378.081 1022.19,374.372 1026.22,370.589 1030.25,366.913 1034.29,362.955 1038.32,359.581 1042.35,356.194 1046.38,352.822 1050.42,349.906 1054.45,347.278 1058.48,344.54 1062.51,341.761 1066.55,339.065 1070.58,336.341 1074.61,333.597 1078.64,331.11 1082.68,328.721 1086.71,326.464 1090.74,324.103 1094.77,321.718 1098.81,319.477 1102.84,317.174 1106.87,314.99 1110.9,312.642 1114.93,310.388 1118.97,308.214 1123,306.047 1127.03,303.93 1131.06,301.543 1135.1,299.274 1139.13,296.977 1143.16,294.88 1147.19,292.927 1151.23,291.019 1155.26,289.156 1159.29,287.093 1163.32,285.319 1167.36,283.598 1171.39,282.065 1175.42,280.669 1179.45,279.406 1183.49,278 1187.52,276.618 1191.55,275.232 1195.58,273.962 1199.61,272.696 1203.65,271.481 1207.68,270.163 1211.71,268.841 1215.74,267.617 1219.78,266.266 1223.81,264.995 1227.84,263.6 1231.87,262.263 1235.91,260.877 1239.94,259.528 1243.97,258.275 1248,257.13 1252.04,256.153 1256.07,255.262 1260.1,254.403 1264.13,253.528 1268.17,252.694 1272.2,251.883 1276.23,251.092 1280.26,250.281 1284.29,249.401 1288.33,248.476 1292.36,247.624 1296.39,246.814 1300.42,246.116 1304.46,245.436 1308.49,244.61 1312.52,243.831 1316.55,243.134 1320.59,242.38 1324.62,241.711 1328.65,241.094 1332.68,240.435 1336.72,239.967 1340.75,239.424 1344.78,238.881 1348.81,238.221 1352.85,237.539 1356.88,236.901 1360.91,236.145 1364.94,235.385 1368.97,234.654 1373.01,233.962 1377.04,233.278 1381.07,232.612 1385.1,231.894 1389.14,231.192 1393.17,230.426 1397.2,229.698 1401.23,228.992 1405.27,228.312 1409.3,227.451 1413.33,226.625 1417.36,225.802 1421.4,224.972 1425.43,224.344 1429.46,223.727 1433.49,223.055 1437.53,222.4 1441.56,221.752 1445.59,221.09 1449.62,220.409 1453.66,219.704 1457.69,218.981 1461.72,218.265 1465.75,217.532 1469.78,216.801 1473.82,216.106 1477.85,215.409 1481.88,214.749 1485.91,214.065 1489.95,213.37 1493.98,212.67 1498.01,211.963 1502.04,211.227 1506.08,210.473 1510.11,209.681 1514.14,208.905 1518.17,208.124 1522.21,207.336 1526.24,206.543 1530.27,205.648 1534.3,204.823 1538.34,204.012 1542.37,203.255 1546.4,202.506 1550.43,201.739 1554.46,200.975 1558.5,200.225 1562.53,199.47 1566.56,198.715 1570.59,197.944 1574.63,197.191 1578.66,196.45 1582.69,195.655 1586.72,194.868 1590.76,194.078 1594.79,193.268 1598.82,192.455 1602.85,191.64 1606.89,190.817 1610.92,189.988 1614.95,189.143 1618.98,188.345 1623.02,187.508 1627.05,186.694 1631.08,185.89 1635.11,185.123 1639.14,184.378 1643.18,183.671 1647.21,182.963 1651.24,182.267 1655.27,181.559 1659.31,180.859 1663.34,180.167 1667.37,179.488 1671.4,178.816 1675.44,178.162 1679.47,177.543 1683.5,176.963 1687.53,176.369 1691.57,175.828 1695.6,175.287 1699.63,174.719 1703.66,174.107 1707.7,173.516 1711.73,172.946 1715.76,172.393 1719.79,171.881 1723.82,171.413 1727.86,170.94 1731.89,170.463 1735.92,170.012 1739.95,169.589 1743.99,169.163 1748.02,168.737 1752.05,168.334 1756.08,167.969 1760.12,167.603 1764.15,167.239 1768.18,166.896 1772.21,166.543 1776.25,166.189 1780.28,165.869 1784.31,165.556 1788.34,165.274 1792.38,165.021 1796.41,164.788 1800.44,164.515 1804.47,164.269 1808.5,164.033 1812.54,163.814 1816.57,163.637 1820.6,163.463 1824.63,163.288 1828.67,163.123 1832.7,162.959 1836.73,162.791 1840.76,162.632 1844.8,162.49 1848.83,162.361 1852.86,162.222 1856.89,162.076 1860.93,161.959 1864.96,161.843 1868.99,161.748 1873.02,161.68 1877.06,161.623 1881.09,161.53 1885.12,161.442 1889.15,161.339 1893.19,161.254 1897.22,161.184 1901.25,161.13 1905.28,161.086 1909.31,161.062 1913.35,161.018 1917.38,160.966 1921.41,160.908 1925.44,160.856 1929.48,160.809 1933.51,160.776 1937.54,160.743 1941.57,160.722 1945.61,160.693 1949.64,160.665 1953.67,160.643 1957.7,160.63 1961.74,160.614 1965.77,160.583 1969.8,160.517 1973.83,160.471 1977.87,160.439 1981.9,160.396 1985.93,160.373 1989.96,160.348 1993.99,160.338 1998.03,160.34 2002.06,160.34 2006.09,160.324 2010.12,160.312 2014.16,160.316 2018.19,160.325 2022.22,160.311 2026.25,160.307 2030.29,160.302 2034.32,160.301 2038.35,160.304 2042.38,160.317 2046.42,160.313 2050.45,160.291 2054.48,160.271 2058.51,160.259 2062.55,160.256 2066.58,160.258 2070.61,160.273 2074.64,160.293 2078.67,160.308 2082.71,160.307 2086.74,160.315 2090.77,160.348 2094.8,160.382 2098.84,160.393 2102.87,160.377 2106.9,160.37 2110.93,160.376 2114.97,160.381 2119,160.406 2123.03,160.434 2127.06,160.45 2131.1,160.479 2135.13,160.493 2139.16,160.499 2143.19,160.511 2147.23,160.525 2151.26,160.521 2155.29,160.525 2159.32,160.538 2163.35,160.562 2167.39,160.583 2171.42,160.594 2175.45,160.606 2179.48,160.608 2183.52,160.619 2187.55,160.632 2191.58,160.648 2195.61,160.654 2199.65,160.677 2203.68,160.676 2207.71,160.673 2211.74,160.678 2215.78,160.701 2219.81,160.716 2223.84,160.714 2227.87,160.725 2231.91,160.742 2235.94,160.751 2239.97,160.761 2244,160.774 2248.03,160.78 2252.07,160.793 2256.1,160.792 2260.13,160.796 2264.16,160.796 2268.2,160.808 2272.23,160.82 2276.26,160.83 2280.29,160.825 2284.33,160.834 2288.36,160.844 2292.39,160.826 "/>
<polyline clip-path="url(#clip982)" style="stroke:#ff0000; stroke-linecap:round; stroke-linejoin:round; stroke-width:8; stroke-opacity:1; fill:none" points="280.231,1377.54 284.263,1370.34 288.296,1377.89 292.328,1372.04 296.361,1379.63 300.393,1377.8 304.425,1382.57 308.458,1386.4 312.49,1384.47 316.523,1381.56 320.555,1379.18 324.587,1378.23 328.62,1376.82 332.652,1372.11 336.684,1381.44 340.717,1383.89 344.749,1382.29 348.782,1379.15 352.814,1376.43 356.846,1371.81 360.879,1362.84 364.911,1352.59 368.944,1348.03 372.976,1332.62 377.008,1309.07 381.041,1296.98 385.073,1291.65 389.105,1292.51 393.138,1293.97 397.17,1297.07 401.203,1298.16 405.235,1298.03 409.267,1296.08 413.3,1294.93 417.332,1295.47 421.365,1296.74 425.397,1297.47 429.429,1293.49 433.462,1284.69 437.494,1268.3 441.526,1249.77 445.559,1244.68 449.591,1238.31 453.624,1230.77 457.656,1220.23 461.688,1213.57 465.721,1199.43 469.753,1194.83 473.786,1187.85 477.818,1182.44 481.85,1178.38 485.883,1175.27 489.915,1170.67 493.947,1163.27 497.98,1156.5 502.012,1154.11 506.045,1149.27 510.077,1141.47 514.109,1135.16 518.142,1129.57 522.174,1123.71 526.207,1116.94 530.239,1109.3 534.271,1096.05 538.304,1079.33 542.336,1068.4 546.368,1061.55 550.401,1054.41 554.433,1046.26 558.466,1037.53 562.498,1028.14 566.53,1017.28 570.563,1005.82 574.595,996.808 578.628,988.628 582.66,977.334 586.692,966.3 590.725,955.982 594.757,946.267 598.789,938.57 602.822,928.538 606.854,906.364 610.887,900.124 614.919,896.349 618.951,893.885 622.984,891.46 627.016,888.384 631.049,884.815 635.081,880.787 639.113,876.769 643.146,871.687 647.178,854.52 651.21,849.033 655.243,846.796 659.275,842.616 663.308,839.18 667.34,835.191 671.372,830.435 675.405,825.289 679.437,819.544 683.47,814.189 687.502,811.151 691.534,821.802 695.567,811.585 699.599,805.323 703.631,801.91 707.664,797.863 711.696,793.199 715.729,787.535 719.761,780.041 723.793,769.097 727.826,755.284 731.858,747.456 735.891,743.069 739.923,739.623 743.955,736.536 747.988,732.895 752.02,728.036 756.052,722.003 760.085,716.257 764.117,709.854 768.15,703.674 772.182,697.798 776.214,692.459 780.247,688.725 784.279,687.282 788.312,687.175 792.344,686.6 796.376,685.141 800.409,683.793 804.441,681.911 808.473,679.967 812.506,677.846 816.538,674.613 820.571,669.868 824.603,665.198 828.635,661.317 832.668,658.116 836.7,654.405 840.733,650.499 844.765,645.823 848.797,640.849 852.83,636.586 856.862,632.373 860.894,627.886 864.927,623.52 868.959,619.512 872.992,615.249 877.024,610.721 881.056,606.036 885.089,601.494 889.121,596.916 893.154,592.001 897.186,587.109 901.218,582.416 905.251,577.632 909.283,572.804 913.315,566.796 917.348,561.034 921.38,555.164 925.413,549.264 929.445,544.947 933.477,542.557 937.51,540.506 941.542,536.613 945.575,532.118 949.607,527.66 953.639,523.778 957.672,518.798 961.704,513.46 965.736,508.014 969.769,502.412 973.801,497.152 977.834,492.703 981.866,489.588 985.898,485.69 989.931,481.439 993.963,477.685 997.996,474.882 1002.03,472.603 1006.06,469.299 1010.09,463.423 1014.13,455.581 1018.16,446.967 1022.19,438.049 1026.22,429.094 1030.25,404.08 1034.29,391.176 1038.32,382.707 1042.35,373.243 1046.38,357.3 1050.42,347.576 1054.45,343.001 1058.48,339.371 1062.51,333.699 1066.55,328.294 1070.58,321.474 1074.61,315.456 1078.64,310.168 1082.68,306.326 1086.71,302.876 1090.74,300.343 1094.77,297.499 1098.81,293.992 1102.84,291.265 1106.87,288.643 1110.9,285.747 1114.93,283.156 1118.97,280.8 1123,278.671 1127.03,276.852 1131.06,275.099 1135.1,273.707 1139.13,272.341 1143.16,271.147 1147.19,270.113 1151.23,269.218 1155.26,268.208 1159.29,267.236 1163.32,266.249 1167.36,264.883 1171.39,263.633 1175.42,262.339 1179.45,260.638 1183.49,258.919 1187.52,256.95 1191.55,255.076 1195.58,253.433 1199.61,251.974 1203.65,250.531 1207.68,249.291 1211.71,247.778 1215.74,246.328 1219.78,245.056 1223.81,243.995 1227.84,243.153 1231.87,242.489 1235.91,241.865 1239.94,241.227 1243.97,240.52 1248,239.698 1252.04,238.877 1256.07,238.025 1260.1,237.092 1264.13,236.118 1268.17,235.194 1272.2,234.189 1276.23,232.992 1280.26,231.76 1284.29,230.507 1288.33,229.243 1292.36,228.079 1296.39,226.959 1300.42,226.038 1304.46,225.013 1308.49,223.962 1312.52,223.024 1316.55,222.144 1320.59,221.412 1324.62,220.632 1328.65,219.881 1332.68,219.027 1336.72,218.057 1340.75,217.123 1344.78,216.327 1348.81,215.485 1352.85,214.572 1356.88,213.626 1360.91,212.581 1364.94,211.537 1368.97,210.477 1373.01,209.442 1377.04,208.505 1381.07,207.298 1385.1,206.304 1389.14,205.33 1393.17,204.359 1397.2,203.31 1401.23,202.251 1405.27,201.119 1409.3,200.024 1413.33,199.072 1417.36,198.089 1421.4,197.158 1425.43,196.284 1429.46,195.449 1433.49,194.674 1437.53,193.919 1441.56,193.162 1445.59,192.452 1449.62,191.712 1453.66,190.949 1457.69,190.119 1461.72,189.292 1465.75,188.449 1469.78,187.587 1473.82,186.752 1477.85,185.943 1481.88,185.218 1485.91,184.545 1489.95,183.811 1493.98,183.078 1498.01,182.306 1502.04,181.541 1506.08,180.715 1510.11,179.924 1514.14,179.181 1518.17,178.423 1522.21,177.695 1526.24,177.012 1530.27,176.303 1534.3,175.647 1538.34,175.014 1542.37,174.472 1546.4,173.961 1550.43,173.428 1554.46,172.913 1558.5,172.409 1562.53,171.906 1566.56,171.446 1570.59,170.993 1574.63,170.476 1578.66,169.981 1582.69,169.465 1586.72,169.004 1590.76,168.566 1594.79,168.15 1598.82,167.765 1602.85,167.38 1606.89,167.02 1610.92,166.69 1614.95,166.346 1618.98,165.991 1623.02,165.669 1627.05,165.372 1631.08,165.076 1635.11,164.812 1639.14,164.57 1643.18,164.361 1647.21,164.161 1651.24,163.979 1655.27,163.787 1659.31,163.612 1663.34,163.425 1667.37,163.234 1671.4,163.07 1675.44,162.894 1679.47,162.725 1683.5,162.557 1687.53,162.387 1691.57,162.235 1695.6,162.095 1699.63,161.975 1703.66,161.876 1707.7,161.808 1711.73,161.746 1715.76,161.678 1719.79,161.626 1723.82,161.583 1727.86,161.545 1731.89,161.478 1735.92,161.414 1739.95,161.365 1743.99,161.344 1748.02,161.348 1752.05,161.361 1756.08,161.376 1760.12,161.387 1764.15,161.397 1768.18,161.421 1772.21,161.432 1776.25,161.444 1780.28,161.475 1784.31,161.516 1788.34,161.551 1792.38,161.598 1796.41,161.644 1800.44,161.692 1804.47,161.727 1808.5,161.753 1812.54,161.779 1816.57,161.813 1820.6,161.862 1824.63,161.931 1828.67,162.003 1832.7,162.076 1836.73,162.123 1840.76,162.163 1844.8,162.221 1848.83,162.279 1852.86,162.341 1856.89,162.405 1860.93,162.475 1864.96,162.539 1868.99,162.587 1873.02,162.663 1877.06,162.719 1881.09,162.775 1885.12,162.796 1889.15,162.84 1893.19,162.868 1897.22,162.907 1901.25,162.951 1905.28,163.008 1909.31,163.051 1913.35,163.098 1917.38,163.13 1921.41,163.164 1925.44,163.201 1929.48,163.241 1933.51,163.283 1937.54,163.319 1941.57,163.355 1945.61,163.391 1949.64,163.428 1953.67,163.466 1957.7,163.494 1961.74,163.523 1965.77,163.533 1969.8,163.523 1973.83,163.53 1977.87,163.545 1981.9,163.568 1985.93,163.579 1989.96,163.592 1993.99,163.604 1998.03,163.599 2002.06,163.609 2006.09,163.631 2010.12,163.65 2014.16,163.641 2018.19,163.593 2022.22,163.535 2026.25,163.492 2030.29,163.465 2034.32,163.432 2038.35,163.384 2042.38,163.331 2046.42,163.29 2050.45,163.248 2054.48,163.202 2058.51,163.164 2062.55,163.123 2066.58,163.101 2070.61,163.094 2074.64,163.071 2078.67,163.029 2082.71,162.992 2086.74,162.946 2090.77,162.898 2094.8,162.858 2098.84,162.822 2102.87,162.787 2106.9,162.757 2110.93,162.725 2114.97,162.693 2119,162.667 2123.03,162.646 2127.06,162.628 2131.1,162.622 2135.13,162.631 2139.16,162.642 2143.19,162.638 2147.23,162.603 2151.26,162.561 2155.29,162.517 2159.32,162.444 2163.35,162.377 2167.39,162.323 2171.42,162.291 2175.45,162.269 2179.48,162.221 2183.52,162.162 2187.55,162.117 2191.58,162.079 2195.61,162.053 2199.65,162.012 2203.68,161.972 2207.71,161.946 2211.74,161.917 2215.78,161.897 2219.81,161.863 2223.84,161.837 2227.87,161.802 2231.91,161.767 2235.94,161.732 2239.97,161.7 2244,161.689 2248.03,161.676 2252.07,161.647 2256.1,161.629 2260.13,161.61 2264.16,161.592 2268.2,161.576 2272.23,161.535 2276.26,161.502 2280.29,161.474 2284.33,161.442 2288.36,161.393 2292.39,161.354 "/>
<path clip-path="url(#clip980)" d="M290.963 322.316 L762.676 322.316 L762.676 166.796 L290.963 166.796  Z" fill="#ffffff" fill-rule="evenodd" fill-opacity="1"/>
<polyline clip-path="url(#clip980)" style="stroke:#000000; stroke-linecap:round; stroke-linejoin:round; stroke-width:4; stroke-opacity:1; fill:none" points="290.963,322.316 762.676,322.316 762.676,166.796 290.963,166.796 290.963,322.316 "/>
<polyline clip-path="url(#clip980)" style="stroke:#0000ff; stroke-linecap:round; stroke-linejoin:round; stroke-width:8; stroke-opacity:1; fill:none" points="314.661,218.636 456.854,218.636 "/>
<path clip-path="url(#clip980)" d="M480.553 201.356 L487.52 201.356 L496.34 224.874 L505.205 201.356 L512.173 201.356 L512.173 235.916 L507.613 235.916 L507.613 205.569 L498.701 229.272 L494.002 229.272 L485.09 205.569 L485.09 235.916 L480.553 235.916 L480.553 201.356 Z" fill="#000000" fill-rule="nonzero" fill-opacity="1" /><path clip-path="url(#clip980)" d="M543.446 221.888 L543.446 223.971 L523.863 223.971 Q524.141 228.369 526.502 230.684 Q528.886 232.976 533.122 232.976 Q535.576 232.976 537.867 232.374 Q540.182 231.772 542.451 230.569 L542.451 234.596 Q540.159 235.568 537.752 236.078 Q535.344 236.587 532.867 236.587 Q526.664 236.587 523.029 232.976 Q519.418 229.365 519.418 223.207 Q519.418 216.842 522.844 213.115 Q526.293 209.365 532.127 209.365 Q537.358 209.365 540.39 212.745 Q543.446 216.101 543.446 221.888 M539.187 220.638 Q539.14 217.143 537.219 215.059 Q535.321 212.976 532.173 212.976 Q528.608 212.976 526.455 214.99 Q524.326 217.004 524.002 220.661 L539.187 220.638 Z" fill="#000000" fill-rule="nonzero" fill-opacity="1" /><path clip-path="url(#clip980)" d="M554.65 202.629 L554.65 209.99 L563.423 209.99 L563.423 213.3 L554.65 213.3 L554.65 227.374 Q554.65 230.545 555.506 231.448 Q556.386 232.351 559.048 232.351 L563.423 232.351 L563.423 235.916 L559.048 235.916 Q554.117 235.916 552.242 234.087 Q550.367 232.235 550.367 227.374 L550.367 213.3 L547.242 213.3 L547.242 209.99 L550.367 209.99 L550.367 202.629 L554.65 202.629 Z" fill="#000000" fill-rule="nonzero" fill-opacity="1" /><path clip-path="url(#clip980)" d="M584.048 213.971 Q583.33 213.555 582.474 213.37 Q581.64 213.161 580.622 213.161 Q577.011 213.161 575.066 215.522 Q573.145 217.86 573.145 222.258 L573.145 235.916 L568.862 235.916 L568.862 209.99 L573.145 209.99 L573.145 214.018 Q574.487 211.657 576.64 210.522 Q578.793 209.365 581.872 209.365 Q582.311 209.365 582.844 209.434 Q583.376 209.481 584.024 209.596 L584.048 213.971 Z" fill="#000000" fill-rule="nonzero" fill-opacity="1" /><path clip-path="url(#clip980)" d="M588.515 209.99 L592.774 209.99 L592.774 235.916 L588.515 235.916 L588.515 209.99 M588.515 199.897 L592.774 199.897 L592.774 205.291 L588.515 205.291 L588.515 199.897 Z" fill="#000000" fill-rule="nonzero" fill-opacity="1" /><path clip-path="url(#clip980)" d="M620.344 210.985 L620.344 214.967 Q618.538 213.971 616.709 213.485 Q614.904 212.976 613.052 212.976 Q608.909 212.976 606.617 215.615 Q604.325 218.231 604.325 222.976 Q604.325 227.721 606.617 230.36 Q608.909 232.976 613.052 232.976 Q614.904 232.976 616.709 232.49 Q618.538 231.981 620.344 230.985 L620.344 234.92 Q618.561 235.754 616.64 236.17 Q614.742 236.587 612.589 236.587 Q606.733 236.587 603.284 232.906 Q599.835 229.226 599.835 222.976 Q599.835 216.633 603.307 212.999 Q606.802 209.365 612.867 209.365 Q614.834 209.365 616.709 209.782 Q618.584 210.175 620.344 210.985 Z" fill="#000000" fill-rule="nonzero" fill-opacity="1" /><polyline clip-path="url(#clip980)" style="stroke:#ff0000; stroke-linecap:round; stroke-linejoin:round; stroke-width:8; stroke-opacity:1; fill:none" points="314.661,270.476 456.854,270.476 "/>
<path clip-path="url(#clip980)" d="M480.553 253.196 L509.789 253.196 L509.789 257.131 L497.52 257.131 L497.52 287.756 L492.821 287.756 L492.821 257.131 L480.553 257.131 L480.553 253.196 Z" fill="#000000" fill-rule="nonzero" fill-opacity="1" /><path clip-path="url(#clip980)" d="M516.108 264.816 Q512.682 264.816 510.692 267.501 Q508.701 270.163 508.701 274.816 Q508.701 279.469 510.668 282.154 Q512.659 284.816 516.108 284.816 Q519.511 284.816 521.502 282.131 Q523.492 279.446 523.492 274.816 Q523.492 270.21 521.502 267.524 Q519.511 264.816 516.108 264.816 M516.108 261.205 Q521.664 261.205 524.835 264.816 Q528.006 268.427 528.006 274.816 Q528.006 281.182 524.835 284.816 Q521.664 288.427 516.108 288.427 Q510.529 288.427 507.358 284.816 Q504.21 281.182 504.21 274.816 Q504.21 268.427 507.358 264.816 Q510.529 261.205 516.108 261.205 Z" fill="#000000" fill-rule="nonzero" fill-opacity="1" /><path clip-path="url(#clip980)" d="M539.187 283.867 L539.187 297.617 L534.904 297.617 L534.904 261.83 L539.187 261.83 L539.187 265.765 Q540.529 263.45 542.566 262.339 Q544.627 261.205 547.474 261.205 Q552.196 261.205 555.136 264.955 Q558.099 268.705 558.099 274.816 Q558.099 280.927 555.136 284.677 Q552.196 288.427 547.474 288.427 Q544.627 288.427 542.566 287.316 Q540.529 286.182 539.187 283.867 M553.677 274.816 Q553.677 270.117 551.733 267.455 Q549.812 264.77 546.432 264.77 Q543.052 264.77 541.108 267.455 Q539.187 270.117 539.187 274.816 Q539.187 279.515 541.108 282.2 Q543.052 284.862 546.432 284.862 Q549.812 284.862 551.733 282.2 Q553.677 279.515 553.677 274.816 Z" fill="#000000" fill-rule="nonzero" fill-opacity="1" /><path clip-path="url(#clip980)" d="M575.205 264.816 Q571.779 264.816 569.788 267.501 Q567.798 270.163 567.798 274.816 Q567.798 279.469 569.765 282.154 Q571.756 284.816 575.205 284.816 Q578.608 284.816 580.599 282.131 Q582.589 279.446 582.589 274.816 Q582.589 270.21 580.599 267.524 Q578.608 264.816 575.205 264.816 M575.205 261.205 Q580.761 261.205 583.932 264.816 Q587.103 268.427 587.103 274.816 Q587.103 281.182 583.932 284.816 Q580.761 288.427 575.205 288.427 Q569.626 288.427 566.455 284.816 Q563.307 281.182 563.307 274.816 Q563.307 268.427 566.455 264.816 Q569.626 261.205 575.205 261.205 Z" fill="#000000" fill-rule="nonzero" fill-opacity="1" /><path clip-path="url(#clip980)" d="M594.163 251.737 L598.423 251.737 L598.423 287.756 L594.163 287.756 L594.163 251.737 Z" fill="#000000" fill-rule="nonzero" fill-opacity="1" /><path clip-path="url(#clip980)" d="M617.381 264.816 Q613.955 264.816 611.964 267.501 Q609.973 270.163 609.973 274.816 Q609.973 279.469 611.941 282.154 Q613.932 284.816 617.381 284.816 Q620.784 284.816 622.774 282.131 Q624.765 279.446 624.765 274.816 Q624.765 270.21 622.774 267.524 Q620.784 264.816 617.381 264.816 M617.381 261.205 Q622.936 261.205 626.108 264.816 Q629.279 268.427 629.279 274.816 Q629.279 281.182 626.108 284.816 Q622.936 288.427 617.381 288.427 Q611.802 288.427 608.631 284.816 Q605.483 281.182 605.483 274.816 Q605.483 268.427 608.631 264.816 Q611.802 261.205 617.381 261.205 Z" fill="#000000" fill-rule="nonzero" fill-opacity="1" /><path clip-path="url(#clip980)" d="M653.399 274.492 Q653.399 269.862 651.478 267.316 Q649.58 264.77 646.131 264.77 Q642.705 264.77 640.783 267.316 Q638.885 269.862 638.885 274.492 Q638.885 279.098 640.783 281.645 Q642.705 284.191 646.131 284.191 Q649.58 284.191 651.478 281.645 Q653.399 279.098 653.399 274.492 M657.658 284.538 Q657.658 291.158 654.719 294.376 Q651.779 297.617 645.714 297.617 Q643.469 297.617 641.478 297.27 Q639.487 296.945 637.612 296.251 L637.612 292.108 Q639.487 293.126 641.316 293.612 Q643.144 294.098 645.043 294.098 Q649.232 294.098 651.316 291.899 Q653.399 289.723 653.399 285.302 L653.399 283.196 Q652.08 285.487 650.019 286.621 Q647.959 287.756 645.089 287.756 Q640.32 287.756 637.404 284.121 Q634.487 280.487 634.487 274.492 Q634.487 268.473 637.404 264.839 Q640.32 261.205 645.089 261.205 Q647.959 261.205 650.019 262.339 Q652.08 263.473 653.399 265.765 L653.399 261.83 L657.658 261.83 L657.658 284.538 Z" fill="#000000" fill-rule="nonzero" fill-opacity="1" /><path clip-path="url(#clip980)" d="M666.431 261.83 L670.691 261.83 L670.691 287.756 L666.431 287.756 L666.431 261.83 M666.431 251.737 L670.691 251.737 L670.691 257.131 L666.431 257.131 L666.431 251.737 Z" fill="#000000" fill-rule="nonzero" fill-opacity="1" /><path clip-path="url(#clip980)" d="M698.26 262.825 L698.26 266.807 Q696.454 265.811 694.626 265.325 Q692.82 264.816 690.968 264.816 Q686.825 264.816 684.533 267.455 Q682.242 270.071 682.242 274.816 Q682.242 279.561 684.533 282.2 Q686.825 284.816 690.968 284.816 Q692.82 284.816 694.626 284.33 Q696.454 283.821 698.26 282.825 L698.26 286.76 Q696.478 287.594 694.556 288.01 Q692.658 288.427 690.505 288.427 Q684.649 288.427 681.2 284.746 Q677.751 281.066 677.751 274.816 Q677.751 268.473 681.223 264.839 Q684.718 261.205 690.783 261.205 Q692.751 261.205 694.626 261.622 Q696.501 262.015 698.26 262.825 Z" fill="#000000" fill-rule="nonzero" fill-opacity="1" /><path clip-path="url(#clip980)" d="M717.45 274.723 Q712.288 274.723 710.297 275.904 Q708.306 277.084 708.306 279.932 Q708.306 282.2 709.788 283.543 Q711.292 284.862 713.862 284.862 Q717.403 284.862 719.533 282.362 Q721.686 279.839 721.686 275.672 L721.686 274.723 L717.45 274.723 M725.945 272.964 L725.945 287.756 L721.686 287.756 L721.686 283.821 Q720.227 286.182 718.052 287.316 Q715.876 288.427 712.727 288.427 Q708.746 288.427 706.385 286.205 Q704.047 283.959 704.047 280.209 Q704.047 275.834 706.964 273.612 Q709.903 271.39 715.714 271.39 L721.686 271.39 L721.686 270.973 Q721.686 268.034 719.741 266.436 Q717.82 264.816 714.325 264.816 Q712.102 264.816 709.996 265.348 Q707.89 265.881 705.945 266.946 L705.945 263.01 Q708.283 262.108 710.482 261.668 Q712.681 261.205 714.764 261.205 Q720.389 261.205 723.167 264.122 Q725.945 267.038 725.945 272.964 Z" fill="#000000" fill-rule="nonzero" fill-opacity="1" /><path clip-path="url(#clip980)" d="M734.718 251.737 L738.977 251.737 L738.977 287.756 L734.718 287.756 L734.718 251.737 Z" fill="#000000" fill-rule="nonzero" fill-opacity="1" /></svg>
