<?xml version="1.0" encoding="utf-8"?>
<svg xmlns="http://www.w3.org/2000/svg" xmlns:xlink="http://www.w3.org/1999/xlink" width="600" height="400" viewBox="0 0 2400 1600">
<defs>
  <clipPath id="clip140">
    <rect x="0" y="0" width="2400" height="1600"/>
  </clipPath>
</defs>
<path clip-path="url(#clip140)" d="M0 1600 L2400 1600 L2400 0 L0 0  Z" fill="#ffffff" fill-rule="evenodd" fill-opacity="1"/>
<defs>
  <clipPath id="clip141">
    <rect x="480" y="0" width="1681" height="1600"/>
  </clipPath>
</defs>
<path clip-path="url(#clip140)" d="M219.866 1423.18 L2352.76 1423.18 L2352.76 123.472 L219.866 123.472  Z" fill="#ffffff" fill-rule="evenodd" fill-opacity="1"/>
<defs>
  <clipPath id="clip142">
    <rect x="219" y="123" width="2134" height="1301"/>
  </clipPath>
</defs>
<polyline clip-path="url(#clip142)" style="stroke:#000000; stroke-linecap:round; stroke-linejoin:round; stroke-width:2; stroke-opacity:0.1; fill:none" points="276.199,1423.18 276.199,123.472 "/>
<polyline clip-path="url(#clip142)" style="stroke:#000000; stroke-linecap:round; stroke-linejoin:round; stroke-width:2; stroke-opacity:0.1; fill:none" points="679.437,1423.18 679.437,123.472 "/>
<polyline clip-path="url(#clip142)" style="stroke:#000000; stroke-linecap:round; stroke-linejoin:round; stroke-width:2; stroke-opacity:0.1; fill:none" points="1082.68,1423.18 1082.68,123.472 "/>
<polyline clip-path="url(#clip142)" style="stroke:#000000; stroke-linecap:round; stroke-linejoin:round; stroke-width:2; stroke-opacity:0.1; fill:none" points="1485.91,1423.18 1485.91,123.472 "/>
<polyline clip-path="url(#clip142)" style="stroke:#000000; stroke-linecap:round; stroke-linejoin:round; stroke-width:2; stroke-opacity:0.1; fill:none" points="1889.15,1423.18 1889.15,123.472 "/>
<polyline clip-path="url(#clip142)" style="stroke:#000000; stroke-linecap:round; stroke-linejoin:round; stroke-width:2; stroke-opacity:0.1; fill:none" points="2292.39,1423.18 2292.39,123.472 "/>
<polyline clip-path="url(#clip142)" style="stroke:#000000; stroke-linecap:round; stroke-linejoin:round; stroke-width:2; stroke-opacity:0.1; fill:none" points="219.866,1175.69 2352.76,1175.69 "/>
<polyline clip-path="url(#clip142)" style="stroke:#000000; stroke-linecap:round; stroke-linejoin:round; stroke-width:2; stroke-opacity:0.1; fill:none" points="219.866,912.257 2352.76,912.257 "/>
<polyline clip-path="url(#clip142)" style="stroke:#000000; stroke-linecap:round; stroke-linejoin:round; stroke-width:2; stroke-opacity:0.1; fill:none" points="219.866,648.826 2352.76,648.826 "/>
<polyline clip-path="url(#clip142)" style="stroke:#000000; stroke-linecap:round; stroke-linejoin:round; stroke-width:2; stroke-opacity:0.1; fill:none" points="219.866,385.396 2352.76,385.396 "/>
<polyline clip-path="url(#clip140)" style="stroke:#000000; stroke-linecap:round; stroke-linejoin:round; stroke-width:4; stroke-opacity:1; fill:none" points="219.866,1423.18 2352.76,1423.18 "/>
<polyline clip-path="url(#clip140)" style="stroke:#000000; stroke-linecap:round; stroke-linejoin:round; stroke-width:4; stroke-opacity:1; fill:none" points="276.199,1423.18 276.199,1404.28 "/>
<polyline clip-path="url(#clip140)" style="stroke:#000000; stroke-linecap:round; stroke-linejoin:round; stroke-width:4; stroke-opacity:1; fill:none" points="679.437,1423.18 679.437,1404.28 "/>
<polyline clip-path="url(#clip140)" style="stroke:#000000; stroke-linecap:round; stroke-linejoin:round; stroke-width:4; stroke-opacity:1; fill:none" points="1082.68,1423.18 1082.68,1404.28 "/>
<polyline clip-path="url(#clip140)" style="stroke:#000000; stroke-linecap:round; stroke-linejoin:round; stroke-width:4; stroke-opacity:1; fill:none" points="1485.91,1423.18 1485.91,1404.28 "/>
<polyline clip-path="url(#clip140)" style="stroke:#000000; stroke-linecap:round; stroke-linejoin:round; stroke-width:4; stroke-opacity:1; fill:none" points="1889.15,1423.18 1889.15,1404.28 "/>
<polyline clip-path="url(#clip140)" style="stroke:#000000; stroke-linecap:round; stroke-linejoin:round; stroke-width:4; stroke-opacity:1; fill:none" points="2292.39,1423.18 2292.39,1404.28 "/>
<path clip-path="url(#clip140)" d="M276.199 1454.1 Q272.588 1454.1 270.759 1457.66 Q268.953 1461.2 268.953 1468.33 Q268.953 1475.44 270.759 1479.01 Q272.588 1482.55 276.199 1482.55 Q279.833 1482.55 281.638 1479.01 Q283.467 1475.44 283.467 1468.33 Q283.467 1461.2 281.638 1457.66 Q279.833 1454.1 276.199 1454.1 M276.199 1450.39 Q282.009 1450.39 285.064 1455 Q288.143 1459.58 288.143 1468.33 Q288.143 1477.06 285.064 1481.67 Q282.009 1486.25 276.199 1486.25 Q270.389 1486.25 267.31 1481.67 Q264.254 1477.06 264.254 1468.33 Q264.254 1459.58 267.31 1455 Q270.389 1450.39 276.199 1450.39 Z" fill="#000000" fill-rule="nonzero" fill-opacity="1" /><path clip-path="url(#clip140)" d="M639.044 1481.64 L646.683 1481.64 L646.683 1455.28 L638.373 1456.95 L638.373 1452.69 L646.636 1451.02 L651.312 1451.02 L651.312 1481.64 L658.951 1481.64 L658.951 1485.58 L639.044 1485.58 L639.044 1481.64 Z" fill="#000000" fill-rule="nonzero" fill-opacity="1" /><path clip-path="url(#clip140)" d="M678.396 1454.1 Q674.784 1454.1 672.956 1457.66 Q671.15 1461.2 671.15 1468.33 Q671.15 1475.44 672.956 1479.01 Q674.784 1482.55 678.396 1482.55 Q682.03 1482.55 683.835 1479.01 Q685.664 1475.44 685.664 1468.33 Q685.664 1461.2 683.835 1457.66 Q682.03 1454.1 678.396 1454.1 M678.396 1450.39 Q684.206 1450.39 687.261 1455 Q690.34 1459.58 690.34 1468.33 Q690.34 1477.06 687.261 1481.67 Q684.206 1486.25 678.396 1486.25 Q672.585 1486.25 669.507 1481.67 Q666.451 1477.06 666.451 1468.33 Q666.451 1459.58 669.507 1455 Q672.585 1450.39 678.396 1450.39 Z" fill="#000000" fill-rule="nonzero" fill-opacity="1" /><path clip-path="url(#clip140)" d="M708.557 1454.1 Q704.946 1454.1 703.118 1457.66 Q701.312 1461.2 701.312 1468.33 Q701.312 1475.44 703.118 1479.01 Q704.946 1482.55 708.557 1482.55 Q712.192 1482.55 713.997 1479.01 Q715.826 1475.44 715.826 1468.33 Q715.826 1461.2 713.997 1457.66 Q712.192 1454.1 708.557 1454.1 M708.557 1450.39 Q714.368 1450.39 717.423 1455 Q720.502 1459.58 720.502 1468.33 Q720.502 1477.06 717.423 1481.67 Q714.368 1486.25 708.557 1486.25 Q702.747 1486.25 699.669 1481.67 Q696.613 1477.06 696.613 1468.33 Q696.613 1459.58 699.669 1455 Q702.747 1450.39 708.557 1450.39 Z" fill="#000000" fill-rule="nonzero" fill-opacity="1" /><path clip-path="url(#clip140)" d="M1046.37 1481.64 L1062.69 1481.64 L1062.69 1485.58 L1040.74 1485.58 L1040.74 1481.64 Q1043.41 1478.89 1047.99 1474.26 Q1052.59 1469.61 1053.78 1468.27 Q1056.02 1465.74 1056.9 1464.01 Q1057.8 1462.25 1057.8 1460.56 Q1057.8 1457.8 1055.86 1456.07 Q1053.94 1454.33 1050.84 1454.33 Q1048.64 1454.33 1046.18 1455.09 Q1043.75 1455.86 1040.97 1457.41 L1040.97 1452.69 Q1043.8 1451.55 1046.25 1450.97 Q1048.71 1450.39 1050.74 1450.39 Q1056.11 1450.39 1059.31 1453.08 Q1062.5 1455.77 1062.5 1460.26 Q1062.5 1462.39 1061.69 1464.31 Q1060.9 1466.2 1058.8 1468.8 Q1058.22 1469.47 1055.12 1472.69 Q1052.02 1475.88 1046.37 1481.64 Z" fill="#000000" fill-rule="nonzero" fill-opacity="1" /><path clip-path="url(#clip140)" d="M1082.5 1454.1 Q1078.89 1454.1 1077.06 1457.66 Q1075.26 1461.2 1075.26 1468.33 Q1075.26 1475.44 1077.06 1479.01 Q1078.89 1482.55 1082.5 1482.55 Q1086.14 1482.55 1087.94 1479.01 Q1089.77 1475.44 1089.77 1468.33 Q1089.77 1461.2 1087.94 1457.66 Q1086.14 1454.1 1082.5 1454.1 M1082.5 1450.39 Q1088.31 1450.39 1091.37 1455 Q1094.45 1459.58 1094.45 1468.33 Q1094.45 1477.06 1091.37 1481.67 Q1088.31 1486.25 1082.5 1486.25 Q1076.69 1486.25 1073.61 1481.67 Q1070.56 1477.06 1070.56 1468.33 Q1070.56 1459.58 1073.61 1455 Q1076.69 1450.39 1082.5 1450.39 Z" fill="#000000" fill-rule="nonzero" fill-opacity="1" /><path clip-path="url(#clip140)" d="M1112.66 1454.1 Q1109.05 1454.1 1107.22 1457.66 Q1105.42 1461.2 1105.42 1468.33 Q1105.42 1475.44 1107.22 1479.01 Q1109.05 1482.55 1112.66 1482.55 Q1116.3 1482.55 1118.1 1479.01 Q1119.93 1475.44 1119.93 1468.33 Q1119.93 1461.2 1118.1 1457.66 Q1116.3 1454.1 1112.66 1454.1 M1112.66 1450.39 Q1118.47 1450.39 1121.53 1455 Q1124.61 1459.58 1124.61 1468.33 Q1124.61 1477.06 1121.53 1481.67 Q1118.47 1486.25 1112.66 1486.25 Q1106.85 1486.25 1103.78 1481.67 Q1100.72 1477.06 1100.72 1468.33 Q1100.72 1459.58 1103.78 1455 Q1106.85 1450.39 1112.66 1450.39 Z" fill="#000000" fill-rule="nonzero" fill-opacity="1" /><path clip-path="url(#clip140)" d="M1459.68 1466.95 Q1463.03 1467.66 1464.91 1469.93 Q1466.81 1472.2 1466.81 1475.53 Q1466.81 1480.65 1463.29 1483.45 Q1459.77 1486.25 1453.29 1486.25 Q1451.11 1486.25 1448.8 1485.81 Q1446.5 1485.39 1444.05 1484.54 L1444.05 1480.02 Q1446 1481.16 1448.31 1481.74 Q1450.62 1482.32 1453.15 1482.32 Q1457.55 1482.32 1459.84 1480.58 Q1462.15 1478.84 1462.15 1475.53 Q1462.15 1472.48 1460 1470.77 Q1457.87 1469.03 1454.05 1469.03 L1450.02 1469.03 L1450.02 1465.19 L1454.24 1465.19 Q1457.69 1465.19 1459.51 1463.82 Q1461.34 1462.43 1461.34 1459.84 Q1461.34 1457.18 1459.44 1455.77 Q1457.57 1454.33 1454.05 1454.33 Q1452.13 1454.33 1449.93 1454.75 Q1447.73 1455.16 1445.09 1456.04 L1445.09 1451.88 Q1447.75 1451.14 1450.07 1450.77 Q1452.41 1450.39 1454.47 1450.39 Q1459.79 1450.39 1462.89 1452.83 Q1466 1455.23 1466 1459.35 Q1466 1462.22 1464.35 1464.21 Q1462.71 1466.18 1459.68 1466.95 Z" fill="#000000" fill-rule="nonzero" fill-opacity="1" /><path clip-path="url(#clip140)" d="M1485.67 1454.1 Q1482.06 1454.1 1480.23 1457.66 Q1478.43 1461.2 1478.43 1468.33 Q1478.43 1475.44 1480.23 1479.01 Q1482.06 1482.55 1485.67 1482.55 Q1489.31 1482.55 1491.11 1479.01 Q1492.94 1475.44 1492.94 1468.33 Q1492.94 1461.2 1491.11 1457.66 Q1489.31 1454.1 1485.67 1454.1 M1485.67 1450.39 Q1491.48 1450.39 1494.54 1455 Q1497.62 1459.58 1497.62 1468.33 Q1497.62 1477.06 1494.54 1481.67 Q1491.48 1486.25 1485.67 1486.25 Q1479.86 1486.25 1476.78 1481.67 Q1473.73 1477.06 1473.73 1468.33 Q1473.73 1459.58 1476.78 1455 Q1479.86 1450.39 1485.67 1450.39 Z" fill="#000000" fill-rule="nonzero" fill-opacity="1" /><path clip-path="url(#clip140)" d="M1515.83 1454.1 Q1512.22 1454.1 1510.39 1457.66 Q1508.59 1461.2 1508.59 1468.33 Q1508.59 1475.44 1510.39 1479.01 Q1512.22 1482.55 1515.83 1482.55 Q1519.47 1482.55 1521.27 1479.01 Q1523.1 1475.44 1523.1 1468.33 Q1523.1 1461.2 1521.27 1457.66 Q1519.47 1454.1 1515.83 1454.1 M1515.83 1450.39 Q1521.64 1450.39 1524.7 1455 Q1527.78 1459.58 1527.78 1468.33 Q1527.78 1477.06 1524.7 1481.67 Q1521.64 1486.25 1515.83 1486.25 Q1510.02 1486.25 1506.94 1481.67 Q1503.89 1477.06 1503.89 1468.33 Q1503.89 1459.58 1506.94 1455 Q1510.02 1450.39 1515.83 1450.39 Z" fill="#000000" fill-rule="nonzero" fill-opacity="1" /><path clip-path="url(#clip140)" d="M1862.24 1455.09 L1850.44 1473.54 L1862.24 1473.54 L1862.24 1455.09 M1861.02 1451.02 L1866.9 1451.02 L1866.9 1473.54 L1871.83 1473.54 L1871.83 1477.43 L1866.9 1477.43 L1866.9 1485.58 L1862.24 1485.58 L1862.24 1477.43 L1846.64 1477.43 L1846.64 1472.92 L1861.02 1451.02 Z" fill="#000000" fill-rule="nonzero" fill-opacity="1" /><path clip-path="url(#clip140)" d="M1889.56 1454.1 Q1885.95 1454.1 1884.12 1457.66 Q1882.31 1461.2 1882.31 1468.33 Q1882.31 1475.44 1884.12 1479.01 Q1885.95 1482.55 1889.56 1482.55 Q1893.19 1482.55 1895 1479.01 Q1896.83 1475.44 1896.83 1468.33 Q1896.83 1461.2 1895 1457.66 Q1893.19 1454.1 1889.56 1454.1 M1889.56 1450.39 Q1895.37 1450.39 1898.42 1455 Q1901.5 1459.58 1901.5 1468.33 Q1901.5 1477.06 1898.42 1481.67 Q1895.37 1486.25 1889.56 1486.25 Q1883.75 1486.25 1880.67 1481.67 Q1877.61 1477.06 1877.61 1468.33 Q1877.61 1459.58 1880.67 1455 Q1883.75 1450.39 1889.56 1450.39 Z" fill="#000000" fill-rule="nonzero" fill-opacity="1" /><path clip-path="url(#clip140)" d="M1919.72 1454.1 Q1916.11 1454.1 1914.28 1457.66 Q1912.47 1461.2 1912.47 1468.33 Q1912.47 1475.44 1914.28 1479.01 Q1916.11 1482.55 1919.72 1482.55 Q1923.35 1482.55 1925.16 1479.01 Q1926.99 1475.44 1926.99 1468.33 Q1926.99 1461.2 1925.16 1457.66 Q1923.35 1454.1 1919.72 1454.1 M1919.72 1450.39 Q1925.53 1450.39 1928.59 1455 Q1931.66 1459.58 1931.66 1468.33 Q1931.66 1477.06 1928.59 1481.67 Q1925.53 1486.25 1919.72 1486.25 Q1913.91 1486.25 1910.83 1481.67 Q1907.78 1477.06 1907.78 1468.33 Q1907.78 1459.58 1910.83 1455 Q1913.91 1450.39 1919.72 1450.39 Z" fill="#000000" fill-rule="nonzero" fill-opacity="1" /><path clip-path="url(#clip140)" d="M2252.01 1451.02 L2270.37 1451.02 L2270.37 1454.96 L2256.29 1454.96 L2256.29 1463.43 Q2257.31 1463.08 2258.33 1462.92 Q2259.35 1462.73 2260.37 1462.73 Q2266.15 1462.73 2269.53 1465.9 Q2272.91 1469.08 2272.91 1474.49 Q2272.91 1480.07 2269.44 1483.17 Q2265.97 1486.25 2259.65 1486.25 Q2257.47 1486.25 2255.2 1485.88 Q2252.96 1485.51 2250.55 1484.77 L2250.55 1480.07 Q2252.63 1481.2 2254.86 1481.76 Q2257.08 1482.32 2259.56 1482.32 Q2263.56 1482.32 2265.9 1480.21 Q2268.24 1478.1 2268.24 1474.49 Q2268.24 1470.88 2265.9 1468.77 Q2263.56 1466.67 2259.56 1466.67 Q2257.68 1466.67 2255.81 1467.08 Q2253.95 1467.5 2252.01 1468.38 L2252.01 1451.02 Z" fill="#000000" fill-rule="nonzero" fill-opacity="1" /><path clip-path="url(#clip140)" d="M2292.12 1454.1 Q2288.51 1454.1 2286.69 1457.66 Q2284.88 1461.2 2284.88 1468.33 Q2284.88 1475.44 2286.69 1479.01 Q2288.51 1482.55 2292.12 1482.55 Q2295.76 1482.55 2297.56 1479.01 Q2299.39 1475.44 2299.39 1468.33 Q2299.39 1461.2 2297.56 1457.66 Q2295.76 1454.1 2292.12 1454.1 M2292.12 1450.39 Q2297.94 1450.39 2300.99 1455 Q2304.07 1459.58 2304.07 1468.33 Q2304.07 1477.06 2300.99 1481.67 Q2297.94 1486.25 2292.12 1486.25 Q2286.31 1486.25 2283.24 1481.67 Q2280.18 1477.06 2280.18 1468.33 Q2280.18 1459.58 2283.24 1455 Q2286.31 1450.39 2292.12 1450.39 Z" fill="#000000" fill-rule="nonzero" fill-opacity="1" /><path clip-path="url(#clip140)" d="M2322.29 1454.1 Q2318.68 1454.1 2316.85 1457.66 Q2315.04 1461.2 2315.04 1468.33 Q2315.04 1475.44 2316.85 1479.01 Q2318.68 1482.55 2322.29 1482.55 Q2325.92 1482.55 2327.73 1479.01 Q2329.56 1475.44 2329.56 1468.33 Q2329.56 1461.2 2327.73 1457.66 Q2325.92 1454.1 2322.29 1454.1 M2322.29 1450.39 Q2328.1 1450.39 2331.15 1455 Q2334.23 1459.58 2334.23 1468.33 Q2334.23 1477.06 2331.15 1481.67 Q2328.1 1486.25 2322.29 1486.25 Q2316.48 1486.25 2313.4 1481.67 Q2310.34 1477.06 2310.34 1468.33 Q2310.34 1459.58 2313.4 1455 Q2316.48 1450.39 2322.29 1450.39 Z" fill="#000000" fill-rule="nonzero" fill-opacity="1" /><path clip-path="url(#clip140)" d="M1246.62 1522.08 L1246.62 1528.35 Q1242.96 1526.6 1239.71 1525.74 Q1236.47 1524.88 1233.44 1524.88 Q1228.19 1524.88 1225.33 1526.92 Q1222.49 1528.96 1222.49 1532.71 Q1222.49 1535.87 1224.37 1537.49 Q1226.28 1539.08 1231.57 1540.07 L1235.45 1540.86 Q1242.64 1542.23 1246.05 1545.7 Q1249.49 1549.14 1249.49 1554.93 Q1249.49 1561.84 1244.84 1565.4 Q1240.22 1568.97 1231.28 1568.97 Q1227.91 1568.97 1224.09 1568.2 Q1220.3 1567.44 1216.22 1565.94 L1216.22 1559.32 Q1220.14 1561.52 1223.9 1562.63 Q1227.65 1563.75 1231.28 1563.75 Q1236.79 1563.75 1239.78 1561.58 Q1242.77 1559.42 1242.77 1555.41 Q1242.77 1551.91 1240.61 1549.93 Q1238.47 1547.96 1233.57 1546.97 L1229.66 1546.21 Q1222.46 1544.78 1219.25 1541.72 Q1216.03 1538.67 1216.03 1533.22 Q1216.03 1526.92 1220.46 1523.29 Q1224.91 1519.66 1232.71 1519.66 Q1236.05 1519.66 1239.52 1520.27 Q1242.99 1520.87 1246.62 1522.08 Z" fill="#000000" fill-rule="nonzero" fill-opacity="1" /><path clip-path="url(#clip140)" d="M1265.05 1522.27 L1265.05 1532.4 L1277.11 1532.4 L1277.11 1536.95 L1265.05 1536.95 L1265.05 1556.3 Q1265.05 1560.66 1266.23 1561.9 Q1267.44 1563.14 1271.1 1563.14 L1277.11 1563.14 L1277.11 1568.04 L1271.1 1568.04 Q1264.32 1568.04 1261.74 1565.53 Q1259.16 1562.98 1259.16 1556.3 L1259.16 1536.95 L1254.86 1536.95 L1254.86 1532.4 L1259.16 1532.4 L1259.16 1522.27 L1265.05 1522.27 Z" fill="#000000" fill-rule="nonzero" fill-opacity="1" /><path clip-path="url(#clip140)" d="M1315.31 1548.76 L1315.31 1551.62 L1288.38 1551.62 Q1288.76 1557.67 1292.01 1560.85 Q1295.29 1564 1301.11 1564 Q1304.49 1564 1307.64 1563.17 Q1310.82 1562.35 1313.94 1560.69 L1313.94 1566.23 Q1310.79 1567.57 1307.48 1568.27 Q1304.17 1568.97 1300.76 1568.97 Q1292.23 1568.97 1287.23 1564 Q1282.27 1559.04 1282.27 1550.57 Q1282.27 1541.82 1286.98 1536.69 Q1291.72 1531.54 1299.74 1531.54 Q1306.94 1531.54 1311.11 1536.18 Q1315.31 1540.8 1315.31 1548.76 M1309.45 1547.04 Q1309.39 1542.23 1306.75 1539.37 Q1304.14 1536.5 1299.81 1536.5 Q1294.9 1536.5 1291.94 1539.27 Q1289.02 1542.04 1288.57 1547.07 L1309.45 1547.04 Z" fill="#000000" fill-rule="nonzero" fill-opacity="1" /><path clip-path="url(#clip140)" d="M1330.58 1562.7 L1330.58 1581.6 L1324.7 1581.6 L1324.7 1532.4 L1330.58 1532.4 L1330.58 1537.81 Q1332.43 1534.62 1335.23 1533.1 Q1338.06 1531.54 1341.98 1531.54 Q1348.47 1531.54 1352.51 1536.69 Q1356.59 1541.85 1356.59 1550.25 Q1356.59 1558.65 1352.51 1563.81 Q1348.47 1568.97 1341.98 1568.97 Q1338.06 1568.97 1335.23 1567.44 Q1332.43 1565.88 1330.58 1562.7 M1350.51 1550.25 Q1350.51 1543.79 1347.84 1540.13 Q1345.19 1536.44 1340.55 1536.44 Q1335.9 1536.44 1333.23 1540.13 Q1330.58 1543.79 1330.58 1550.25 Q1330.58 1556.71 1333.23 1560.4 Q1335.9 1564.07 1340.55 1564.07 Q1345.19 1564.07 1347.84 1560.4 Q1350.51 1556.71 1350.51 1550.25 Z" fill="#000000" fill-rule="nonzero" fill-opacity="1" /><polyline clip-path="url(#clip140)" style="stroke:#000000; stroke-linecap:round; stroke-linejoin:round; stroke-width:4; stroke-opacity:1; fill:none" points="219.866,1423.18 219.866,123.472 "/>
<polyline clip-path="url(#clip140)" style="stroke:#000000; stroke-linecap:round; stroke-linejoin:round; stroke-width:4; stroke-opacity:1; fill:none" points="219.866,1175.69 238.764,1175.69 "/>
<polyline clip-path="url(#clip140)" style="stroke:#000000; stroke-linecap:round; stroke-linejoin:round; stroke-width:4; stroke-opacity:1; fill:none" points="219.866,912.257 238.764,912.257 "/>
<polyline clip-path="url(#clip140)" style="stroke:#000000; stroke-linecap:round; stroke-linejoin:round; stroke-width:4; stroke-opacity:1; fill:none" points="219.866,648.826 238.764,648.826 "/>
<polyline clip-path="url(#clip140)" style="stroke:#000000; stroke-linecap:round; stroke-linejoin:round; stroke-width:4; stroke-opacity:1; fill:none" points="219.866,385.396 238.764,385.396 "/>
<path clip-path="url(#clip140)" d="M128.288 1161.49 Q124.677 1161.49 122.848 1165.05 Q121.043 1168.59 121.043 1175.72 Q121.043 1182.83 122.848 1186.39 Q124.677 1189.93 128.288 1189.93 Q131.922 1189.93 133.728 1186.39 Q135.556 1182.83 135.556 1175.72 Q135.556 1168.59 133.728 1165.05 Q131.922 1161.49 128.288 1161.49 M128.288 1157.78 Q134.098 1157.78 137.154 1162.39 Q140.232 1166.97 140.232 1175.72 Q140.232 1184.45 137.154 1189.06 Q134.098 1193.64 128.288 1193.64 Q122.478 1193.64 119.399 1189.06 Q116.343 1184.45 116.343 1175.72 Q116.343 1166.97 119.399 1162.39 Q122.478 1157.78 128.288 1157.78 Z" fill="#000000" fill-rule="nonzero" fill-opacity="1" /><path clip-path="url(#clip140)" d="M148.45 1187.09 L153.334 1187.09 L153.334 1192.97 L148.45 1192.97 L148.45 1187.09 Z" fill="#000000" fill-rule="nonzero" fill-opacity="1" /><path clip-path="url(#clip140)" d="M167.547 1189.03 L183.866 1189.03 L183.866 1192.97 L161.922 1192.97 L161.922 1189.03 Q164.584 1186.28 169.167 1181.65 Q173.774 1177 174.954 1175.65 Q177.2 1173.13 178.079 1171.39 Q178.982 1169.63 178.982 1167.94 Q178.982 1165.19 177.038 1163.45 Q175.116 1161.72 172.014 1161.72 Q169.815 1161.72 167.362 1162.48 Q164.931 1163.25 162.153 1164.8 L162.153 1160.07 Q164.977 1158.94 167.431 1158.36 Q169.885 1157.78 171.922 1157.78 Q177.292 1157.78 180.487 1160.47 Q183.681 1163.15 183.681 1167.64 Q183.681 1169.77 182.871 1171.69 Q182.084 1173.59 179.977 1176.18 Q179.399 1176.86 176.297 1180.07 Q173.195 1183.27 167.547 1189.03 Z" fill="#000000" fill-rule="nonzero" fill-opacity="1" /><path clip-path="url(#clip140)" d="M126.205 898.056 Q122.593 898.056 120.765 901.62 Q118.959 905.162 118.959 912.292 Q118.959 919.398 120.765 922.963 Q122.593 926.504 126.205 926.504 Q129.839 926.504 131.644 922.963 Q133.473 919.398 133.473 912.292 Q133.473 905.162 131.644 901.62 Q129.839 898.056 126.205 898.056 M126.205 894.352 Q132.015 894.352 135.07 898.958 Q138.149 903.542 138.149 912.292 Q138.149 921.018 135.07 925.625 Q132.015 930.208 126.205 930.208 Q120.394 930.208 117.316 925.625 Q114.26 921.018 114.26 912.292 Q114.26 903.542 117.316 898.958 Q120.394 894.352 126.205 894.352 Z" fill="#000000" fill-rule="nonzero" fill-opacity="1" /><path clip-path="url(#clip140)" d="M146.366 923.657 L151.251 923.657 L151.251 929.537 L146.366 929.537 L146.366 923.657 Z" fill="#000000" fill-rule="nonzero" fill-opacity="1" /><path clip-path="url(#clip140)" d="M174.283 899.051 L162.477 917.5 L174.283 917.5 L174.283 899.051 M173.056 894.977 L178.936 894.977 L178.936 917.5 L183.866 917.5 L183.866 921.389 L178.936 921.389 L178.936 929.537 L174.283 929.537 L174.283 921.389 L158.681 921.389 L158.681 916.875 L173.056 894.977 Z" fill="#000000" fill-rule="nonzero" fill-opacity="1" /><path clip-path="url(#clip140)" d="M126.529 634.625 Q122.918 634.625 121.089 638.19 Q119.283 641.732 119.283 648.861 Q119.283 655.968 121.089 659.532 Q122.918 663.074 126.529 663.074 Q130.163 663.074 131.968 659.532 Q133.797 655.968 133.797 648.861 Q133.797 641.732 131.968 638.19 Q130.163 634.625 126.529 634.625 M126.529 630.921 Q132.339 630.921 135.394 635.528 Q138.473 640.111 138.473 648.861 Q138.473 657.588 135.394 662.194 Q132.339 666.778 126.529 666.778 Q120.718 666.778 117.64 662.194 Q114.584 657.588 114.584 648.861 Q114.584 640.111 117.64 635.528 Q120.718 630.921 126.529 630.921 Z" fill="#000000" fill-rule="nonzero" fill-opacity="1" /><path clip-path="url(#clip140)" d="M146.691 660.227 L151.575 660.227 L151.575 666.106 L146.691 666.106 L146.691 660.227 Z" fill="#000000" fill-rule="nonzero" fill-opacity="1" /><path clip-path="url(#clip140)" d="M172.339 646.963 Q169.19 646.963 167.339 649.116 Q165.51 651.269 165.51 655.019 Q165.51 658.745 167.339 660.921 Q169.19 663.074 172.339 663.074 Q175.487 663.074 177.315 660.921 Q179.167 658.745 179.167 655.019 Q179.167 651.269 177.315 649.116 Q175.487 646.963 172.339 646.963 M181.621 632.31 L181.621 636.57 Q179.862 635.736 178.056 635.296 Q176.274 634.857 174.514 634.857 Q169.885 634.857 167.431 637.982 Q165.001 641.107 164.653 647.426 Q166.019 645.412 168.079 644.347 Q170.139 643.259 172.616 643.259 Q177.825 643.259 180.834 646.431 Q183.866 649.579 183.866 655.019 Q183.866 660.343 180.718 663.56 Q177.57 666.778 172.339 666.778 Q166.343 666.778 163.172 662.194 Q160.001 657.588 160.001 648.861 Q160.001 640.667 163.89 635.806 Q167.778 630.921 174.329 630.921 Q176.089 630.921 177.871 631.269 Q179.676 631.616 181.621 632.31 Z" fill="#000000" fill-rule="nonzero" fill-opacity="1" /><path clip-path="url(#clip140)" d="M126.783 371.195 Q123.172 371.195 121.343 374.76 Q119.538 378.301 119.538 385.431 Q119.538 392.537 121.343 396.102 Q123.172 399.644 126.783 399.644 Q130.417 399.644 132.223 396.102 Q134.052 392.537 134.052 385.431 Q134.052 378.301 132.223 374.76 Q130.417 371.195 126.783 371.195 M126.783 367.491 Q132.593 367.491 135.649 372.098 Q138.728 376.681 138.728 385.431 Q138.728 394.158 135.649 398.764 Q132.593 403.347 126.783 403.347 Q120.973 403.347 117.894 398.764 Q114.839 394.158 114.839 385.431 Q114.839 376.681 117.894 372.098 Q120.973 367.491 126.783 367.491 Z" fill="#000000" fill-rule="nonzero" fill-opacity="1" /><path clip-path="url(#clip140)" d="M146.945 396.796 L151.829 396.796 L151.829 402.676 L146.945 402.676 L146.945 396.796 Z" fill="#000000" fill-rule="nonzero" fill-opacity="1" /><path clip-path="url(#clip140)" d="M172.014 386.264 Q168.681 386.264 166.76 388.047 Q164.862 389.829 164.862 392.954 Q164.862 396.079 166.76 397.861 Q168.681 399.644 172.014 399.644 Q175.348 399.644 177.269 397.861 Q179.19 396.056 179.19 392.954 Q179.19 389.829 177.269 388.047 Q175.371 386.264 172.014 386.264 M167.339 384.273 Q164.329 383.533 162.64 381.472 Q160.973 379.412 160.973 376.449 Q160.973 372.306 163.913 369.898 Q166.876 367.491 172.014 367.491 Q177.176 367.491 180.116 369.898 Q183.056 372.306 183.056 376.449 Q183.056 379.412 181.366 381.472 Q179.7 383.533 176.714 384.273 Q180.093 385.06 181.968 387.352 Q183.866 389.644 183.866 392.954 Q183.866 397.977 180.788 400.662 Q177.732 403.347 172.014 403.347 Q166.297 403.347 163.218 400.662 Q160.163 397.977 160.163 392.954 Q160.163 389.644 162.061 387.352 Q163.959 385.06 167.339 384.273 M165.626 376.889 Q165.626 379.574 167.292 381.079 Q168.982 382.584 172.014 382.584 Q175.024 382.584 176.714 381.079 Q178.426 379.574 178.426 376.889 Q178.426 374.204 176.714 372.699 Q175.024 371.195 172.014 371.195 Q168.982 371.195 167.292 372.699 Q165.626 374.204 165.626 376.889 Z" fill="#000000" fill-rule="nonzero" fill-opacity="1" /><path clip-path="url(#clip140)" d="M20.8447 1022.02 Q20.8447 1029.02 26.0645 1033.16 Q31.2844 1037.26 40.2919 1037.26 Q49.2675 1037.26 54.4874 1033.16 Q59.7073 1029.02 59.7073 1022.02 Q59.7073 1015.02 54.4874 1010.94 Q49.2675 1006.84 40.2919 1006.84 Q31.2844 1006.84 26.0645 1010.94 Q20.8447 1015.02 20.8447 1022.02 M15.6248 1022.02 Q15.6248 1012.02 22.3406 1006.04 Q29.0246 1000.06 40.2919 1000.06 Q51.5274 1000.06 58.2432 1006.04 Q64.9272 1012.02 64.9272 1022.02 Q64.9272 1032.04 58.2432 1038.06 Q51.5592 1044.04 40.2919 1044.04 Q29.0246 1044.04 22.3406 1038.06 Q15.6248 1032.04 15.6248 1022.02 Z" fill="#000000" fill-rule="nonzero" fill-opacity="1" /><path clip-path="url(#clip140)" d="M33.8307 969.597 Q33.2578 970.583 33.0032 971.761 Q32.7167 972.907 32.7167 974.307 Q32.7167 979.273 35.9632 981.946 Q39.1779 984.588 45.2253 984.588 L64.0042 984.588 L64.0042 990.476 L28.3562 990.476 L28.3562 984.588 L33.8944 984.588 Q30.6479 982.742 29.0883 979.782 Q27.4968 976.822 27.4968 972.589 Q27.4968 971.984 27.5923 971.252 Q27.656 970.52 27.8151 969.628 L33.8307 969.597 Z" fill="#000000" fill-rule="nonzero" fill-opacity="1" /><path clip-path="url(#clip140)" d="M33.7671 941.142 L14.479 941.142 L14.479 935.285 L64.0042 935.285 L64.0042 941.142 L58.657 941.142 Q61.8398 942.988 63.3994 945.821 Q64.9272 948.622 64.9272 952.568 Q64.9272 959.03 59.771 963.104 Q54.6147 967.146 46.212 967.146 Q37.8093 967.146 32.6531 963.104 Q27.4968 959.03 27.4968 952.568 Q27.4968 948.622 29.0564 945.821 Q30.5842 942.988 33.7671 941.142 M46.212 961.098 Q52.6732 961.098 56.3653 958.457 Q60.0256 955.783 60.0256 951.136 Q60.0256 946.489 56.3653 943.816 Q52.6732 941.142 46.212 941.142 Q39.7508 941.142 36.0905 943.816 Q32.3984 946.489 32.3984 951.136 Q32.3984 955.783 36.0905 958.457 Q39.7508 961.098 46.212 961.098 Z" fill="#000000" fill-rule="nonzero" fill-opacity="1" /><path clip-path="url(#clip140)" d="M44.7161 892.731 L47.5806 892.731 L47.5806 919.658 Q53.6281 919.276 56.8109 916.029 Q59.9619 912.751 59.9619 906.926 Q59.9619 903.552 59.1344 900.401 Q58.3069 897.219 56.6518 894.099 L62.1899 894.099 Q63.5267 897.25 64.227 900.561 Q64.9272 903.871 64.9272 907.276 Q64.9272 915.806 59.9619 920.803 Q54.9967 925.769 46.5303 925.769 Q37.7774 925.769 32.6531 921.058 Q27.4968 916.316 27.4968 908.295 Q27.4968 901.102 32.1438 896.932 Q36.7589 892.731 44.7161 892.731 M42.9973 898.587 Q38.1912 898.651 35.3266 901.293 Q32.4621 903.903 32.4621 908.231 Q32.4621 913.133 35.2312 916.093 Q38.0002 919.021 43.0292 919.467 L42.9973 898.587 Z" fill="#000000" fill-rule="nonzero" fill-opacity="1" /><path clip-path="url(#clip140)" d="M33.8307 862.462 Q33.2578 863.448 33.0032 864.626 Q32.7167 865.772 32.7167 867.172 Q32.7167 872.138 35.9632 874.811 Q39.1779 877.453 45.2253 877.453 L64.0042 877.453 L64.0042 883.341 L28.3562 883.341 L28.3562 877.453 L33.8944 877.453 Q30.6479 875.607 29.0883 872.647 Q27.4968 869.687 27.4968 865.454 Q27.4968 864.849 27.5923 864.117 Q27.656 863.385 27.8151 862.494 L33.8307 862.462 Z" fill="#000000" fill-rule="nonzero" fill-opacity="1" /><path clip-path="url(#clip140)" d="M21.7677 828.915 L39.6235 828.915 L39.6235 820.83 Q39.6235 816.342 37.3 813.891 Q34.9765 811.441 30.6797 811.441 Q26.4147 811.441 24.0912 813.891 Q21.7677 816.342 21.7677 820.83 L21.7677 828.915 M16.4842 835.344 L16.4842 820.83 Q16.4842 812.841 20.1126 808.767 Q23.7092 804.661 30.6797 804.661 Q37.7138 804.661 41.3104 808.767 Q44.907 812.841 44.907 820.83 L44.907 828.915 L64.0042 828.915 L64.0042 835.344 L16.4842 835.344 Z" fill="#000000" fill-rule="nonzero" fill-opacity="1" /><path clip-path="url(#clip140)" d="M46.0847 783.018 Q46.0847 790.116 47.7079 792.853 Q49.3312 795.59 53.2461 795.59 Q56.3653 795.59 58.2114 793.553 Q60.0256 791.484 60.0256 787.951 Q60.0256 783.081 56.5881 780.153 Q53.1188 777.193 47.3897 777.193 L46.0847 777.193 L46.0847 783.018 M43.6657 771.337 L64.0042 771.337 L64.0042 777.193 L58.5933 777.193 Q61.8398 779.198 63.3994 782.19 Q64.9272 785.182 64.9272 789.511 Q64.9272 794.985 61.8716 798.232 Q58.7843 801.446 53.6281 801.446 Q47.6125 801.446 44.5569 797.436 Q41.5014 793.394 41.5014 785.405 L41.5014 777.193 L40.9285 777.193 Q36.8862 777.193 34.6901 779.867 Q32.4621 782.509 32.4621 787.315 Q32.4621 790.37 33.1941 793.267 Q33.9262 796.163 35.3903 798.837 L29.9795 798.837 Q28.7381 795.622 28.1334 792.598 Q27.4968 789.574 27.4968 786.71 Q27.4968 778.976 31.5072 775.156 Q35.5176 771.337 43.6657 771.337 Z" fill="#000000" fill-rule="nonzero" fill-opacity="1" /><path clip-path="url(#clip140)" d="M33.8307 738.617 Q33.2578 739.604 33.0032 740.781 Q32.7167 741.927 32.7167 743.328 Q32.7167 748.293 35.9632 750.966 Q39.1779 753.608 45.2253 753.608 L64.0042 753.608 L64.0042 759.496 L28.3562 759.496 L28.3562 753.608 L33.8944 753.608 Q30.6479 751.762 29.0883 748.802 Q27.4968 745.842 27.4968 741.609 Q27.4968 741.004 27.5923 740.272 Q27.656 739.54 27.8151 738.649 L33.8307 738.617 Z" fill="#000000" fill-rule="nonzero" fill-opacity="1" /><path clip-path="url(#clip140)" d="M46.0847 716.273 Q46.0847 723.371 47.7079 726.108 Q49.3312 728.846 53.2461 728.846 Q56.3653 728.846 58.2114 726.809 Q60.0256 724.74 60.0256 721.207 Q60.0256 716.337 56.5881 713.409 Q53.1188 710.449 47.3897 710.449 L46.0847 710.449 L46.0847 716.273 M43.6657 704.592 L64.0042 704.592 L64.0042 710.449 L58.5933 710.449 Q61.8398 712.454 63.3994 715.446 Q64.9272 718.438 64.9272 722.766 Q64.9272 728.241 61.8716 731.487 Q58.7843 734.702 53.6281 734.702 Q47.6125 734.702 44.5569 730.692 Q41.5014 726.649 41.5014 718.66 L41.5014 710.449 L40.9285 710.449 Q36.8862 710.449 34.6901 713.122 Q32.4621 715.764 32.4621 720.57 Q32.4621 723.626 33.1941 726.522 Q33.9262 729.419 35.3903 732.092 L29.9795 732.092 Q28.7381 728.877 28.1334 725.854 Q27.4968 722.83 27.4968 719.965 Q27.4968 712.231 31.5072 708.412 Q35.5176 704.592 43.6657 704.592 Z" fill="#000000" fill-rule="nonzero" fill-opacity="1" /><path clip-path="url(#clip140)" d="M35.1993 664.775 Q31.2526 662.579 29.3747 659.523 Q27.4968 656.468 27.4968 652.33 Q27.4968 646.76 31.4117 643.736 Q35.2948 640.712 42.4881 640.712 L64.0042 640.712 L64.0042 646.601 L42.679 646.601 Q37.5546 646.601 35.072 648.415 Q32.5894 650.229 32.5894 653.953 Q32.5894 658.505 35.6131 661.146 Q38.6368 663.788 43.8567 663.788 L64.0042 663.788 L64.0042 669.676 L42.679 669.676 Q37.5228 669.676 35.072 671.491 Q32.5894 673.305 32.5894 677.092 Q32.5894 681.58 35.6449 684.222 Q38.6686 686.864 43.8567 686.864 L64.0042 686.864 L64.0042 692.752 L28.3562 692.752 L28.3562 686.864 L33.8944 686.864 Q30.616 684.859 29.0564 682.058 Q27.4968 679.257 27.4968 675.406 Q27.4968 671.522 29.4702 668.817 Q31.4436 666.08 35.1993 664.775 Z" fill="#000000" fill-rule="nonzero" fill-opacity="1" /><path clip-path="url(#clip140)" d="M44.7161 598.54 L47.5806 598.54 L47.5806 625.467 Q53.6281 625.085 56.8109 621.838 Q59.9619 618.56 59.9619 612.735 Q59.9619 609.361 59.1344 606.21 Q58.3069 603.027 56.6518 599.908 L62.1899 599.908 Q63.5267 603.059 64.227 606.369 Q64.9272 609.68 64.9272 613.085 Q64.9272 621.615 59.9619 626.612 Q54.9967 631.578 46.5303 631.578 Q37.7774 631.578 32.6531 626.867 Q27.4968 622.125 27.4968 614.104 Q27.4968 606.91 32.1438 602.741 Q36.7589 598.54 44.7161 598.54 M42.9973 604.396 Q38.1912 604.46 35.3266 607.101 Q32.4621 609.711 32.4621 614.04 Q32.4621 618.942 35.2312 621.902 Q38.0002 624.83 43.0292 625.276 L42.9973 604.396 Z" fill="#000000" fill-rule="nonzero" fill-opacity="1" /><path clip-path="url(#clip140)" d="M18.2347 583.135 L28.3562 583.135 L28.3562 571.072 L32.9077 571.072 L32.9077 583.135 L52.2594 583.135 Q56.6199 583.135 57.8613 581.957 Q59.1026 580.747 59.1026 577.087 L59.1026 571.072 L64.0042 571.072 L64.0042 577.087 Q64.0042 583.867 61.4897 586.445 Q58.9434 589.023 52.2594 589.023 L32.9077 589.023 L32.9077 593.32 L28.3562 593.32 L28.3562 589.023 L18.2347 589.023 L18.2347 583.135 Z" fill="#000000" fill-rule="nonzero" fill-opacity="1" /><path clip-path="url(#clip140)" d="M44.7161 532.877 L47.5806 532.877 L47.5806 559.804 Q53.6281 559.422 56.8109 556.176 Q59.9619 552.897 59.9619 547.073 Q59.9619 543.699 59.1344 540.548 Q58.3069 537.365 56.6518 534.246 L62.1899 534.246 Q63.5267 537.397 64.227 540.707 Q64.9272 544.017 64.9272 547.423 Q64.9272 555.953 59.9619 560.95 Q54.9967 565.915 46.5303 565.915 Q37.7774 565.915 32.6531 561.205 Q27.4968 556.462 27.4968 548.441 Q27.4968 541.248 32.1438 537.079 Q36.7589 532.877 44.7161 532.877 M42.9973 538.734 Q38.1912 538.797 35.3266 541.439 Q32.4621 544.049 32.4621 548.378 Q32.4621 553.279 35.2312 556.239 Q38.0002 559.168 43.0292 559.613 L42.9973 538.734 Z" fill="#000000" fill-rule="nonzero" fill-opacity="1" /><path clip-path="url(#clip140)" d="M33.8307 502.608 Q33.2578 503.595 33.0032 504.773 Q32.7167 505.919 32.7167 507.319 Q32.7167 512.284 35.9632 514.958 Q39.1779 517.6 45.2253 517.6 L64.0042 517.6 L64.0042 523.488 L28.3562 523.488 L28.3562 517.6 L33.8944 517.6 Q30.6479 515.754 29.0883 512.794 Q27.4968 509.833 27.4968 505.6 Q27.4968 504.996 27.5923 504.263 Q27.656 503.531 27.8151 502.64 L33.8307 502.608 Z" fill="#000000" fill-rule="nonzero" fill-opacity="1" /><path clip-path="url(#clip140)" d="M711.771 17.6457 Q702.859 17.6457 697.593 24.2892 Q692.368 30.9327 692.368 42.3968 Q692.368 53.8203 697.593 60.4638 Q702.859 67.1073 711.771 67.1073 Q720.683 67.1073 725.868 60.4638 Q731.094 53.8203 731.094 42.3968 Q731.094 30.9327 725.868 24.2892 Q720.683 17.6457 711.771 17.6457 M711.771 11.0023 Q724.491 11.0023 732.107 19.5497 Q739.723 28.0566 739.723 42.3968 Q739.723 56.6965 732.107 65.2439 Q724.491 73.7508 711.771 73.7508 Q699.011 73.7508 691.355 65.2439 Q683.739 56.737 683.739 42.3968 Q683.739 28.0566 691.355 19.5497 Q699.011 11.0023 711.771 11.0023 Z" fill="#000000" fill-rule="nonzero" fill-opacity="1" /><path clip-path="url(#clip140)" d="M778.49 34.1734 Q777.234 33.4443 775.735 33.1202 Q774.277 32.7556 772.494 32.7556 Q766.175 32.7556 762.772 36.8875 Q759.41 40.9789 759.41 48.6757 L759.41 72.576 L751.916 72.576 L751.916 27.2059 L759.41 27.2059 L759.41 34.2544 Q761.759 30.1225 765.527 28.1376 Q769.294 26.1121 774.682 26.1121 Q775.452 26.1121 776.383 26.2337 Q777.315 26.3147 778.449 26.5172 L778.49 34.1734 Z" fill="#000000" fill-rule="nonzero" fill-opacity="1" /><path clip-path="url(#clip140)" d="M814.705 34.0924 L814.705 9.54393 L822.158 9.54393 L822.158 72.576 L814.705 72.576 L814.705 65.7705 Q812.355 69.8214 808.75 71.8063 Q805.185 73.7508 800.162 73.7508 Q791.939 73.7508 786.754 67.1883 Q781.609 60.6258 781.609 49.9314 Q781.609 39.2371 786.754 32.6746 Q791.939 26.1121 800.162 26.1121 Q805.185 26.1121 808.75 28.0971 Q812.355 30.0415 814.705 34.0924 M789.306 49.9314 Q789.306 58.1548 792.668 62.8538 Q796.071 67.5124 801.985 67.5124 Q807.899 67.5124 811.302 62.8538 Q814.705 58.1548 814.705 49.9314 Q814.705 41.7081 811.302 37.0496 Q807.899 32.3505 801.985 32.3505 Q796.071 32.3505 792.668 37.0496 Q789.306 41.7081 789.306 49.9314 Z" fill="#000000" fill-rule="nonzero" fill-opacity="1" /><path clip-path="url(#clip140)" d="M876.319 48.0275 L876.319 51.6733 L842.048 51.6733 Q842.535 59.3701 846.666 63.421 Q850.839 67.4314 858.252 67.4314 Q862.546 67.4314 866.556 66.3781 Q870.607 65.3249 874.577 63.2184 L874.577 70.267 Q870.567 71.9684 866.354 72.8596 Q862.141 73.7508 857.806 73.7508 Q846.95 73.7508 840.59 67.4314 Q834.271 61.1119 834.271 50.3365 Q834.271 39.1965 840.266 32.6746 Q846.302 26.1121 856.51 26.1121 Q865.665 26.1121 870.972 32.0264 Q876.319 37.9003 876.319 48.0275 M868.865 45.84 Q868.784 39.7232 865.422 36.0774 Q862.1 32.4315 856.591 32.4315 Q850.353 32.4315 846.585 35.9558 Q842.859 39.4801 842.291 45.8805 L868.865 45.84 Z" fill="#000000" fill-rule="nonzero" fill-opacity="1" /><path clip-path="url(#clip140)" d="M914.843 34.1734 Q913.587 33.4443 912.089 33.1202 Q910.63 32.7556 908.848 32.7556 Q902.528 32.7556 899.126 36.8875 Q895.763 40.9789 895.763 48.6757 L895.763 72.576 L888.269 72.576 L888.269 27.2059 L895.763 27.2059 L895.763 34.2544 Q898.113 30.1225 901.88 28.1376 Q905.648 26.1121 911.035 26.1121 Q911.805 26.1121 912.737 26.2337 Q913.668 26.3147 914.803 26.5172 L914.843 34.1734 Z" fill="#000000" fill-rule="nonzero" fill-opacity="1" /><path clip-path="url(#clip140)" d="M957.54 18.8205 L957.54 41.5461 L967.829 41.5461 Q973.541 41.5461 976.66 38.5889 Q979.779 35.6318 979.779 30.163 Q979.779 24.7348 976.66 21.7777 Q973.541 18.8205 967.829 18.8205 L957.54 18.8205 M949.357 12.096 L967.829 12.096 Q977.997 12.096 983.182 16.714 Q988.408 21.2916 988.408 30.163 Q988.408 39.1155 983.182 43.6931 Q977.997 48.2706 967.829 48.2706 L957.54 48.2706 L957.54 72.576 L949.357 72.576 L949.357 12.096 Z" fill="#000000" fill-rule="nonzero" fill-opacity="1" /><path clip-path="url(#clip140)" d="M1015.95 49.7694 Q1006.92 49.7694 1003.44 51.8354 Q999.953 53.9013 999.953 58.8839 Q999.953 62.8538 1002.55 65.2034 Q1005.18 67.5124 1009.67 67.5124 Q1015.87 67.5124 1019.6 63.1374 Q1023.37 58.7219 1023.37 51.4303 L1023.37 49.7694 L1015.95 49.7694 M1030.82 46.6907 L1030.82 72.576 L1023.37 72.576 L1023.37 65.6895 Q1020.81 69.8214 1017.01 71.8063 Q1013.2 73.7508 1007.69 73.7508 Q1000.72 73.7508 996.59 69.8619 Q992.499 65.9325 992.499 59.3701 Q992.499 51.7138 997.603 47.825 Q1002.75 43.9361 1012.92 43.9361 L1023.37 43.9361 L1023.37 43.2069 Q1023.37 38.0623 1019.96 35.2672 Q1016.6 32.4315 1010.49 32.4315 Q1006.6 32.4315 1002.91 33.3632 Q999.224 34.295 995.821 36.1584 L995.821 29.2718 Q999.912 27.692 1003.76 26.9223 Q1007.61 26.1121 1011.25 26.1121 Q1021.1 26.1121 1025.96 31.2163 Q1030.82 36.3204 1030.82 46.6907 Z" fill="#000000" fill-rule="nonzero" fill-opacity="1" /><path clip-path="url(#clip140)" d="M1072.46 34.1734 Q1071.21 33.4443 1069.71 33.1202 Q1068.25 32.7556 1066.47 32.7556 Q1060.15 32.7556 1056.75 36.8875 Q1053.38 40.9789 1053.38 48.6757 L1053.38 72.576 L1045.89 72.576 L1045.89 27.2059 L1053.38 27.2059 L1053.38 34.2544 Q1055.73 30.1225 1059.5 28.1376 Q1063.27 26.1121 1068.66 26.1121 Q1069.43 26.1121 1070.36 26.2337 Q1071.29 26.3147 1072.42 26.5172 L1072.46 34.1734 Z" fill="#000000" fill-rule="nonzero" fill-opacity="1" /><path clip-path="url(#clip140)" d="M1100.9 49.7694 Q1091.87 49.7694 1088.38 51.8354 Q1084.9 53.9013 1084.9 58.8839 Q1084.9 62.8538 1087.49 65.2034 Q1090.13 67.5124 1094.62 67.5124 Q1100.82 67.5124 1104.55 63.1374 Q1108.31 58.7219 1108.31 51.4303 L1108.31 49.7694 L1100.9 49.7694 M1115.77 46.6907 L1115.77 72.576 L1108.31 72.576 L1108.31 65.6895 Q1105.76 69.8214 1101.95 71.8063 Q1098.15 73.7508 1092.64 73.7508 Q1085.67 73.7508 1081.54 69.8619 Q1077.45 65.9325 1077.45 59.3701 Q1077.45 51.7138 1082.55 47.825 Q1087.7 43.9361 1097.86 43.9361 L1108.31 43.9361 L1108.31 43.2069 Q1108.31 38.0623 1104.91 35.2672 Q1101.55 32.4315 1095.43 32.4315 Q1091.54 32.4315 1087.86 33.3632 Q1084.17 34.295 1080.77 36.1584 L1080.77 29.2718 Q1084.86 27.692 1088.71 26.9223 Q1092.56 26.1121 1096.2 26.1121 Q1106.05 26.1121 1110.91 31.2163 Q1115.77 36.3204 1115.77 46.6907 Z" fill="#000000" fill-rule="nonzero" fill-opacity="1" /><path clip-path="url(#clip140)" d="M1166.44 35.9153 Q1169.24 30.8922 1173.13 28.5022 Q1177.02 26.1121 1182.28 26.1121 Q1189.37 26.1121 1193.22 31.0947 Q1197.07 36.0368 1197.07 45.1919 L1197.07 72.576 L1189.58 72.576 L1189.58 45.4349 Q1189.58 38.913 1187.27 35.7533 Q1184.96 32.5936 1180.22 32.5936 Q1174.43 32.5936 1171.06 36.4419 Q1167.7 40.2903 1167.7 46.9338 L1167.7 72.576 L1160.21 72.576 L1160.21 45.4349 Q1160.21 38.8725 1157.9 35.7533 Q1155.59 32.5936 1150.77 32.5936 Q1145.06 32.5936 1141.69 36.4824 Q1138.33 40.3308 1138.33 46.9338 L1138.33 72.576 L1130.84 72.576 L1130.84 27.2059 L1138.33 27.2059 L1138.33 34.2544 Q1140.88 30.082 1144.45 28.0971 Q1148.01 26.1121 1152.91 26.1121 Q1157.86 26.1121 1161.3 28.6237 Q1164.78 31.1352 1166.44 35.9153 Z" fill="#000000" fill-rule="nonzero" fill-opacity="1" /><path clip-path="url(#clip140)" d="M1250.74 48.0275 L1250.74 51.6733 L1216.47 51.6733 Q1216.96 59.3701 1221.09 63.421 Q1225.26 67.4314 1232.68 67.4314 Q1236.97 67.4314 1240.98 66.3781 Q1245.03 65.3249 1249 63.2184 L1249 70.267 Q1244.99 71.9684 1240.78 72.8596 Q1236.57 73.7508 1232.23 73.7508 Q1221.38 73.7508 1215.02 67.4314 Q1208.7 61.1119 1208.7 50.3365 Q1208.7 39.1965 1214.69 32.6746 Q1220.73 26.1121 1230.94 26.1121 Q1240.09 26.1121 1245.4 32.0264 Q1250.74 37.9003 1250.74 48.0275 M1243.29 45.84 Q1243.21 39.7232 1239.85 36.0774 Q1236.53 32.4315 1231.02 32.4315 Q1224.78 32.4315 1221.01 35.9558 Q1217.28 39.4801 1216.72 45.8805 L1243.29 45.84 Z" fill="#000000" fill-rule="nonzero" fill-opacity="1" /><path clip-path="url(#clip140)" d="M1270.35 14.324 L1270.35 27.2059 L1285.7 27.2059 L1285.7 32.9987 L1270.35 32.9987 L1270.35 57.6282 Q1270.35 63.1779 1271.85 64.7578 Q1273.39 66.3376 1278.05 66.3376 L1285.7 66.3376 L1285.7 72.576 L1278.05 72.576 Q1269.42 72.576 1266.14 69.3758 Q1262.86 66.1351 1262.86 57.6282 L1262.86 32.9987 L1257.39 32.9987 L1257.39 27.2059 L1262.86 27.2059 L1262.86 14.324 L1270.35 14.324 Z" fill="#000000" fill-rule="nonzero" fill-opacity="1" /><path clip-path="url(#clip140)" d="M1334.31 48.0275 L1334.31 51.6733 L1300.04 51.6733 Q1300.53 59.3701 1304.66 63.421 Q1308.83 67.4314 1316.25 67.4314 Q1320.54 67.4314 1324.55 66.3781 Q1328.6 65.3249 1332.57 63.2184 L1332.57 70.267 Q1328.56 71.9684 1324.35 72.8596 Q1320.14 73.7508 1315.8 73.7508 Q1304.95 73.7508 1298.59 67.4314 Q1292.27 61.1119 1292.27 50.3365 Q1292.27 39.1965 1298.26 32.6746 Q1304.3 26.1121 1314.51 26.1121 Q1323.66 26.1121 1328.97 32.0264 Q1334.31 37.9003 1334.31 48.0275 M1326.86 45.84 Q1326.78 39.7232 1323.42 36.0774 Q1320.1 32.4315 1314.59 32.4315 Q1308.35 32.4315 1304.58 35.9558 Q1300.85 39.4801 1300.29 45.8805 L1326.86 45.84 Z" fill="#000000" fill-rule="nonzero" fill-opacity="1" /><path clip-path="url(#clip140)" d="M1372.84 34.1734 Q1371.58 33.4443 1370.08 33.1202 Q1368.63 32.7556 1366.84 32.7556 Q1360.52 32.7556 1357.12 36.8875 Q1353.76 40.9789 1353.76 48.6757 L1353.76 72.576 L1346.26 72.576 L1346.26 27.2059 L1353.76 27.2059 L1353.76 34.2544 Q1356.11 30.1225 1359.88 28.1376 Q1363.64 26.1121 1369.03 26.1121 Q1369.8 26.1121 1370.73 26.2337 Q1371.66 26.3147 1372.8 26.5172 L1372.84 34.1734 Z" fill="#000000" fill-rule="nonzero" fill-opacity="1" /><path clip-path="url(#clip140)" d="M1452.64 16.7545 L1452.64 25.383 Q1448.51 21.5346 1443.81 19.6307 Q1439.15 17.7268 1433.89 17.7268 Q1423.52 17.7268 1418.01 24.0867 Q1412.5 30.4061 1412.5 42.3968 Q1412.5 54.3469 1418.01 60.7069 Q1423.52 67.0263 1433.89 67.0263 Q1439.15 67.0263 1443.81 65.1223 Q1448.51 63.2184 1452.64 59.3701 L1452.64 67.9175 Q1448.35 70.8341 1443.53 72.2924 Q1438.75 73.7508 1433.4 73.7508 Q1419.67 73.7508 1411.77 65.3654 Q1403.87 56.9395 1403.87 42.3968 Q1403.87 27.8135 1411.77 19.4281 Q1419.67 11.0023 1433.4 11.0023 Q1438.83 11.0023 1443.61 12.4606 Q1448.43 13.8784 1452.64 16.7545 Z" fill="#000000" fill-rule="nonzero" fill-opacity="1" /><path clip-path="url(#clip140)" d="M1482.54 32.4315 Q1476.54 32.4315 1473.06 37.1306 Q1469.57 41.7891 1469.57 49.9314 Q1469.57 58.0738 1473.02 62.7728 Q1476.5 67.4314 1482.54 67.4314 Q1488.49 67.4314 1491.98 62.7323 Q1495.46 58.0333 1495.46 49.9314 Q1495.46 41.8701 1491.98 37.1711 Q1488.49 32.4315 1482.54 32.4315 M1482.54 26.1121 Q1492.26 26.1121 1497.81 32.4315 Q1503.36 38.7509 1503.36 49.9314 Q1503.36 61.0714 1497.81 67.4314 Q1492.26 73.7508 1482.54 73.7508 Q1472.77 73.7508 1467.22 67.4314 Q1461.72 61.0714 1461.72 49.9314 Q1461.72 38.7509 1467.22 32.4315 Q1472.77 26.1121 1482.54 26.1121 Z" fill="#000000" fill-rule="nonzero" fill-opacity="1" /><path clip-path="url(#clip140)" d="M1551.04 35.9153 Q1553.83 30.8922 1557.72 28.5022 Q1561.61 26.1121 1566.88 26.1121 Q1573.97 26.1121 1577.81 31.0947 Q1581.66 36.0368 1581.66 45.1919 L1581.66 72.576 L1574.17 72.576 L1574.17 45.4349 Q1574.17 38.913 1571.86 35.7533 Q1569.55 32.5936 1564.81 32.5936 Q1559.02 32.5936 1555.66 36.4419 Q1552.29 40.2903 1552.29 46.9338 L1552.29 72.576 L1544.8 72.576 L1544.8 45.4349 Q1544.8 38.8725 1542.49 35.7533 Q1540.18 32.5936 1535.36 32.5936 Q1529.65 32.5936 1526.29 36.4824 Q1522.92 40.3308 1522.92 46.9338 L1522.92 72.576 L1515.43 72.576 L1515.43 27.2059 L1522.92 27.2059 L1522.92 34.2544 Q1525.48 30.082 1529.04 28.0971 Q1532.61 26.1121 1537.51 26.1121 Q1542.45 26.1121 1545.89 28.6237 Q1549.38 31.1352 1551.04 35.9153 Z" fill="#000000" fill-rule="nonzero" fill-opacity="1" /><path clip-path="url(#clip140)" d="M1603.74 65.7705 L1603.74 89.8329 L1596.25 89.8329 L1596.25 27.2059 L1603.74 27.2059 L1603.74 34.0924 Q1606.09 30.0415 1609.65 28.0971 Q1613.26 26.1121 1618.24 26.1121 Q1626.51 26.1121 1631.65 32.6746 Q1636.84 39.2371 1636.84 49.9314 Q1636.84 60.6258 1631.65 67.1883 Q1626.51 73.7508 1618.24 73.7508 Q1613.26 73.7508 1609.65 71.8063 Q1606.09 69.8214 1603.74 65.7705 M1629.1 49.9314 Q1629.1 41.7081 1625.7 37.0496 Q1622.33 32.3505 1616.42 32.3505 Q1610.5 32.3505 1607.1 37.0496 Q1603.74 41.7081 1603.74 49.9314 Q1603.74 58.1548 1607.1 62.8538 Q1610.5 67.5124 1616.42 67.5124 Q1622.33 67.5124 1625.7 62.8538 Q1629.1 58.1548 1629.1 49.9314 Z" fill="#000000" fill-rule="nonzero" fill-opacity="1" /><path clip-path="url(#clip140)" d="M1669.81 49.7694 Q1660.78 49.7694 1657.29 51.8354 Q1653.81 53.9013 1653.81 58.8839 Q1653.81 62.8538 1656.4 65.2034 Q1659.03 67.5124 1663.53 67.5124 Q1669.73 67.5124 1673.46 63.1374 Q1677.22 58.7219 1677.22 51.4303 L1677.22 49.7694 L1669.81 49.7694 M1684.68 46.6907 L1684.68 72.576 L1677.22 72.576 L1677.22 65.6895 Q1674.67 69.8214 1670.86 71.8063 Q1667.06 73.7508 1661.55 73.7508 Q1654.58 73.7508 1650.45 69.8619 Q1646.36 65.9325 1646.36 59.3701 Q1646.36 51.7138 1651.46 47.825 Q1656.6 43.9361 1666.77 43.9361 L1677.22 43.9361 L1677.22 43.2069 Q1677.22 38.0623 1673.82 35.2672 Q1670.46 32.4315 1664.34 32.4315 Q1660.45 32.4315 1656.77 33.3632 Q1653.08 34.295 1649.68 36.1584 L1649.68 29.2718 Q1653.77 27.692 1657.62 26.9223 Q1661.47 26.1121 1665.11 26.1121 Q1674.95 26.1121 1679.82 31.2163 Q1684.68 36.3204 1684.68 46.6907 Z" fill="#000000" fill-rule="nonzero" fill-opacity="1" /><path clip-path="url(#clip140)" d="M1726.32 34.1734 Q1725.06 33.4443 1723.57 33.1202 Q1722.11 32.7556 1720.32 32.7556 Q1714.01 32.7556 1710.6 36.8875 Q1707.24 40.9789 1707.24 48.6757 L1707.24 72.576 L1699.75 72.576 L1699.75 27.2059 L1707.24 27.2059 L1707.24 34.2544 Q1709.59 30.1225 1713.36 28.1376 Q1717.12 26.1121 1722.51 26.1121 Q1723.28 26.1121 1724.21 26.2337 Q1725.15 26.3147 1726.28 26.5172 L1726.32 34.1734 Z" fill="#000000" fill-rule="nonzero" fill-opacity="1" /><path clip-path="url(#clip140)" d="M1734.14 27.2059 L1741.59 27.2059 L1741.59 72.576 L1734.14 72.576 L1734.14 27.2059 M1734.14 9.54393 L1741.59 9.54393 L1741.59 18.9825 L1734.14 18.9825 L1734.14 9.54393 Z" fill="#000000" fill-rule="nonzero" fill-opacity="1" /><path clip-path="url(#clip140)" d="M1786.11 28.5427 L1786.11 35.5912 Q1782.95 33.9709 1779.55 33.1607 Q1776.15 32.3505 1772.5 32.3505 Q1766.95 32.3505 1764.16 34.0519 Q1761.4 35.7533 1761.4 39.156 Q1761.4 41.7486 1763.39 43.2475 Q1765.37 44.7058 1771.37 46.0426 L1773.92 46.6097 Q1781.86 48.3111 1785.18 51.4303 Q1788.54 54.509 1788.54 60.0587 Q1788.54 66.3781 1783.52 70.0644 Q1778.54 73.7508 1769.79 73.7508 Q1766.14 73.7508 1762.17 73.0216 Q1758.24 72.3329 1753.87 70.9151 L1753.87 63.2184 Q1758 65.3654 1762.01 66.4591 Q1766.02 67.5124 1769.95 67.5124 Q1775.21 67.5124 1778.05 65.73 Q1780.89 63.9071 1780.89 60.6258 Q1780.89 57.5877 1778.82 55.9673 Q1776.79 54.3469 1769.87 52.8481 L1767.27 52.2405 Q1760.35 50.7821 1757.27 47.7845 Q1754.19 44.7463 1754.19 39.4801 Q1754.19 33.0797 1758.73 29.5959 Q1763.26 26.1121 1771.61 26.1121 Q1775.74 26.1121 1779.39 26.7198 Q1783.03 27.3274 1786.11 28.5427 Z" fill="#000000" fill-rule="nonzero" fill-opacity="1" /><path clip-path="url(#clip140)" d="M1817.99 32.4315 Q1812 32.4315 1808.51 37.1306 Q1805.03 41.7891 1805.03 49.9314 Q1805.03 58.0738 1808.47 62.7728 Q1811.96 67.4314 1817.99 67.4314 Q1823.95 67.4314 1827.43 62.7323 Q1830.91 58.0333 1830.91 49.9314 Q1830.91 41.8701 1827.43 37.1711 Q1823.95 32.4315 1817.99 32.4315 M1817.99 26.1121 Q1827.71 26.1121 1833.26 32.4315 Q1838.81 38.7509 1838.81 49.9314 Q1838.81 61.0714 1833.26 67.4314 Q1827.71 73.7508 1817.99 73.7508 Q1808.23 73.7508 1802.68 67.4314 Q1797.17 61.0714 1797.17 49.9314 Q1797.17 38.7509 1802.68 32.4315 Q1808.23 26.1121 1817.99 26.1121 Z" fill="#000000" fill-rule="nonzero" fill-opacity="1" /><path clip-path="url(#clip140)" d="M1888.88 45.1919 L1888.88 72.576 L1881.43 72.576 L1881.43 45.4349 Q1881.43 38.994 1878.92 35.7938 Q1876.41 32.5936 1871.38 32.5936 Q1865.35 32.5936 1861.86 36.4419 Q1858.38 40.2903 1858.38 46.9338 L1858.38 72.576 L1850.89 72.576 L1850.89 27.2059 L1858.38 27.2059 L1858.38 34.2544 Q1861.05 30.163 1864.66 28.1376 Q1868.3 26.1121 1873.04 26.1121 Q1880.86 26.1121 1884.87 30.9732 Q1888.88 35.7938 1888.88 45.1919 Z" fill="#000000" fill-rule="nonzero" fill-opacity="1" /><polyline clip-path="url(#clip142)" style="stroke:#0000ff; stroke-linecap:round; stroke-linejoin:round; stroke-width:8; stroke-opacity:1; fill:none" points="280.231,1365.65 284.263,1350.32 288.296,1348.07 292.328,1364.19 296.361,1364.81 300.393,1363.93 304.425,1362.45 308.458,1358.63 312.49,1343.39 316.523,1318.46 320.555,1325.69 324.587,1316 328.62,1305.21 332.652,1294.3 336.684,1283.4 340.717,1273.1 344.749,1262.9 348.782,1252.59 352.814,1243.77 356.846,1236.3 360.879,1229.81 364.911,1220.95 368.944,1210.5 372.976,1200.81 377.008,1195.74 381.041,1194.49 385.073,1193.56 389.105,1189.81 393.138,1183.19 397.17,1173.13 401.203,1160.31 405.235,1148.09 409.267,1137.07 413.3,1123.91 417.332,1118.62 421.365,1118.33 425.397,1121.18 429.429,1120.28 433.462,1125 437.494,1130.46 441.526,1138.12 445.559,1141.74 449.591,1140.39 453.624,1136.61 457.656,1130.17 461.688,1122.04 465.721,1108.82 469.753,1113.99 473.786,1117.29 477.818,1117.35 481.85,1115.77 485.883,1106.75 489.915,1096.38 493.947,1089.72 497.98,1084.26 502.012,1078.6 506.045,1058.03 510.077,1044.98 514.109,1036.68 518.142,1027.45 522.174,1019.33 526.207,1009.32 530.239,1000.54 534.271,994.385 538.304,989.656 542.336,980.833 546.368,946.884 550.401,937.513 554.433,929.215 558.466,920.335 562.498,910.034 566.53,897.506 570.563,883.235 574.595,868.599 578.628,856.499 582.66,847.458 586.692,840.602 590.725,834.01 594.757,828.359 598.789,822.839 602.822,816.883 606.854,811.665 610.887,806.309 614.919,801.332 618.951,797.403 622.984,794.028 627.016,789.988 631.049,786.885 635.081,783.77 639.113,780.33 643.146,775.977 647.178,770.905 651.21,764.077 655.243,755.751 659.275,744.798 663.308,735.299 667.34,727.089 671.372,717.78 675.405,709.215 679.437,701.037 683.47,692.303 687.502,683.351 691.534,672.457 695.567,660.988 699.599,647.922 703.631,634.74 707.664,621.839 711.696,609.21 715.729,597.208 719.761,584.641 723.793,572.852 727.826,561.417 731.858,549.731 735.891,538.551 739.923,526.764 743.955,514.583 747.988,501.871 752.02,489.42 756.052,478.823 760.085,470.851 764.117,463.825 768.15,457.192 772.182,448.969 776.214,440.622 780.247,431.846 784.279,422.665 788.312,413.673 792.344,405.004 796.376,397.023 800.409,389.467 804.441,382.279 808.473,375.068 812.506,368.574 816.538,362.613 820.571,357.239 824.603,351.697 828.635,346.522 832.668,341.926 836.7,337.708 840.733,332.855 844.765,328.289 848.797,324.309 852.83,320.441 856.862,317.011 860.894,314.207 864.927,311.588 868.959,309.376 872.992,307.314 877.024,305.446 881.056,303.782 885.089,302.291 889.121,300.721 893.154,299.202 897.186,297.422 901.218,295.352 905.251,293.401 909.283,291.409 913.315,289.546 917.348,287.843 921.38,286.149 925.413,284.452 929.445,282.889 933.477,281.405 937.51,279.922 941.542,278.624 945.575,276.873 949.607,275.202 953.639,273.369 957.672,271.413 961.704,269.71 965.736,267.871 969.769,266.274 973.801,264.907 977.834,263.686 981.866,262.586 985.898,261.533 989.931,260.567 993.963,259.477 997.996,258.515 1002.03,257.592 1006.06,257.29 1010.09,256.692 1014.13,255.978 1018.16,255.016 1022.19,254.06 1026.22,252.992 1030.25,251.94 1034.29,250.806 1038.32,249.734 1042.35,248.64 1046.38,247.477 1050.42,246.35 1054.45,244.985 1058.48,243.292 1062.51,241.641 1066.55,240.028 1070.58,238.466 1074.61,236.914 1078.64,235.363 1082.68,233.711 1086.71,232.128 1090.74,230.404 1094.77,228.7 1098.81,226.982 1102.84,225.057 1106.87,223.25 1110.9,221.508 1114.93,220.201 1118.97,219.189 1123,218.397 1127.03,217.439 1131.06,216.491 1135.1,215.372 1139.13,214.179 1143.16,212.835 1147.19,211.108 1151.23,209.405 1155.26,207.769 1159.29,206.198 1163.32,204.534 1167.36,202.833 1171.39,201.558 1175.42,200.529 1179.45,198.42 1183.49,196.758 1187.52,195.427 1191.55,194.135 1195.58,192.773 1199.61,191.982 1203.65,192.182 1207.68,193.968 1211.71,197.728 1215.74,202.987 1219.78,208.265 1223.81,213.116 1227.84,216.726 1231.87,219.367 1235.91,220.899 1239.94,221.651 1243.97,222.523 1248,222.338 1252.04,223.025 1256.07,224.742 1260.1,227.809 1264.13,231.415 1268.17,233.531 1272.2,234.738 1276.23,235.274 1280.26,234.386 1284.29,233.007 1288.33,232.657 1292.36,232.9 1296.39,232.283 1300.42,226.705 1304.46,218.955 1308.49,222.446 1312.52,227.016 1316.55,229.302 1320.59,230.419 1324.62,230.453 1328.65,230.096 1332.68,229.709 1336.72,228.459 1340.75,227.012 1344.78,225.826 1348.81,225.103 1352.85,223.248 1356.88,219.695 1360.91,215.261 1364.94,210.556 1368.97,208.224 1373.01,208.644 1377.04,219.179 1381.07,231.999 1385.1,237.371 1389.14,242.377 1393.17,247.93 1397.2,253.525 1401.23,258.278 1405.27,260.473 1409.3,261.174 1413.33,263.502 1417.36,264.073 1421.4,263.42 1425.43,262.391 1429.46,262.036 1433.49,261.038 1437.53,261.18 1441.56,262.644 1445.59,264.826 1449.62,267.257 1453.66,271.318 1457.69,290.201 1461.72,302.752 1465.75,302.697 1469.78,302.074 1473.82,301.98 1477.85,303.547 1481.88,307.951 1485.91,324.972 1489.95,340.129 1493.98,343.255 1498.01,344.763 1502.04,346.665 1506.08,354.873 1510.11,362.339 1514.14,364.161 1518.17,365.498 1522.21,372.97 1526.24,382.156 1530.27,391.833 1534.3,377.207 1538.34,376.924 1542.37,378.046 1546.4,380.584 1550.43,385.726 1554.46,391.188 1558.5,397.787 1562.53,396.069 1566.56,392.639 1570.59,387.651 1574.63,390.828 1578.66,399.129 1582.69,395.044 1586.72,412.651 1590.76,422.228 1594.79,417.169 1598.82,395.008 1602.85,391.972 1606.89,388.059 1610.92,386.445 1614.95,407.097 1618.98,406.04 1623.02,400.452 1627.05,394.648 1631.08,381.877 1635.11,362.377 1639.14,349.625 1643.18,333.417 1647.21,329.708 1651.24,333.981 1655.27,337.994 1659.31,340.119 1663.34,337.992 1667.37,336.437 1671.4,335.765 1675.44,334.339 1679.47,333.482 1683.5,335.652 1687.53,340.491 1691.57,350.354 1695.6,359.049 1699.63,363.03 1703.66,364.271 1707.7,363.033 1711.73,359.683 1715.76,356.071 1719.79,352.11 1723.82,342.011 1727.86,329.786 1731.89,319.833 1735.92,312.686 1739.95,307.738 1743.99,304.47 1748.02,303.779 1752.05,303.128 1756.08,302.708 1760.12,302.581 1764.15,302.336 1768.18,302.132 1772.21,302.66 1776.25,303.989 1780.28,303.259 1784.31,302.711 1788.34,302.202 1792.38,300.877 1796.41,300.044 1800.44,299.386 1804.47,299.093 1808.5,295.562 1812.54,292.216 1816.57,290.303 1820.6,291.473 1824.63,294.973 1828.67,303.451 1832.7,311.116 1836.73,315.01 1840.76,317.313 1844.8,316.339 1848.83,314.833 1852.86,311.862 1856.89,309.084 1860.93,306.594 1864.96,304.114 1868.99,301.908 1873.02,301.572 1877.06,301.471 1881.09,301.346 1885.12,301.328 1889.15,301.326 1893.19,299.428 1897.22,297.277 1901.25,295.166 1905.28,292.991 1909.31,291.047 1913.35,288.833 1917.38,287.244 1921.41,284.237 1925.44,280.232 1929.48,275.558 1933.51,273.207 1937.54,271.933 1941.57,272.072 1945.61,271.821 1949.64,271.687 1953.67,272.258 1957.7,273.404 1961.74,274.562 1965.77,275.672 1969.8,279.131 1973.83,282.925 1977.87,285.472 1981.9,288.43 1985.93,291.768 1989.96,295.246 1993.99,298.412 1998.03,302.131 2002.06,305.508 2006.09,307.493 2010.12,308.991 2014.16,309.712 2018.19,309.502 2022.22,308.172 2026.25,306.662 2030.29,305.387 2034.32,298.932 2038.35,284.692 2042.38,283.104 2046.42,283.302 2050.45,283.54 2054.48,283.569 2058.51,283.424 2062.55,281.925 2066.58,280.769 2070.61,280.287 2074.64,278.177 2078.67,276.77 2082.71,275.701 2086.74,275.146 2090.77,274.709 2094.8,276.236 2098.84,283.922 2102.87,290.762 2106.9,291.391 2110.93,290.644 2114.97,289.742 2119,292.089 2123.03,294.852 2127.06,299.008 2131.1,304.862 2135.13,311.676 2139.16,316.864 2143.19,321.994 2147.23,325.958 2151.26,328.221 2155.29,330.072 2159.32,327.559 2163.35,316.926 2167.39,309.353 2171.42,305.884 2175.45,308.141 2179.48,311.999 2183.52,325.764 2187.55,330.134 2191.58,331.656 2195.61,331.918 2199.65,324.948 2203.68,317.528 2207.71,316.875 2211.74,318.232 2215.78,319.363 2219.81,316.928 2223.84,299.185 2227.87,299.269 2231.91,300.674 2235.94,301.829 2239.97,304.757 2244,307.549 2248.03,307.322 2252.07,306.91 2256.1,306.301 2260.13,305.419 2264.16,304.69 2268.2,304.17 2272.23,303.837 2276.26,303.496 2280.29,303.28 2284.33,301.624 2288.36,299.756 2292.39,296.867 "/>
<polyline clip-path="url(#clip142)" style="stroke:#ff0000; stroke-linecap:round; stroke-linejoin:round; stroke-width:8; stroke-opacity:1; fill:none" points="280.231,1367.59 284.263,1362.56 288.296,1377.29 292.328,1380.55 296.361,1386.4 300.393,1381.85 304.425,1379.22 308.458,1374.65 312.49,1349.72 316.523,1339.27 320.555,1331.87 324.587,1325.59 328.62,1319.42 332.652,1310.4 336.684,1307.87 340.717,1314.46 344.749,1310.01 348.782,1304.38 352.814,1299.95 356.846,1293.69 360.879,1282.67 364.911,1267.26 368.944,1258.67 372.976,1242.78 377.008,1223.43 381.041,1217.58 385.073,1216.83 389.105,1219.31 393.138,1222.94 397.17,1224.54 401.203,1236.79 405.235,1247.94 409.267,1250.36 413.3,1251.5 417.332,1253.5 421.365,1255.76 425.397,1257.37 429.429,1254.25 433.462,1234.46 437.494,1209.27 441.526,1188.84 445.559,1176.14 449.591,1163.98 453.624,1153.76 457.656,1142.58 461.688,1133.9 465.721,1125.63 469.753,1116.72 473.786,1101.19 477.818,1086.09 481.85,1076.07 485.883,1067.23 489.915,1059.79 493.947,1053.88 497.98,1048.7 502.012,1044.47 506.045,1040.81 510.077,1034.41 514.109,1023.05 518.142,1012.38 522.174,1003.62 526.207,994.443 530.239,984.851 534.271,975.289 538.304,966.567 542.336,958.153 546.368,950.707 550.401,943.415 554.433,936.73 558.466,930.272 562.498,924.296 566.53,918.319 570.563,912.169 574.595,908.537 578.628,905.157 582.66,901.823 586.692,897.601 590.725,893.921 594.757,891.827 598.789,889.238 602.822,885.565 606.854,881.866 610.887,878.043 614.919,873.409 618.951,868.783 622.984,865.065 627.016,859.952 631.049,852.974 635.081,845.722 639.113,838.662 643.146,831.852 647.178,825.654 651.21,818.369 655.243,807.934 659.275,795.913 663.308,783.537 667.34,772.889 671.372,764.359 675.405,756.884 679.437,750.173 683.47,743.758 687.502,737.34 691.534,731.997 695.567,726.7 699.599,722.172 703.631,719.697 707.664,716.048 711.696,709.762 715.729,701.893 719.761,692.872 723.793,683.45 727.826,672.47 731.858,659.566 735.891,644.425 739.923,628.042 743.955,615.622 747.988,608.217 752.02,602.888 756.052,598.271 760.085,593.269 764.117,588.061 768.15,583.139 772.182,576.438 776.214,569.096 780.247,561.332 784.279,553.301 788.312,544.21 792.344,535.924 796.376,527.318 800.409,520.279 804.441,513.455 808.473,507.402 812.506,501.612 816.538,496.306 820.571,490.999 824.603,485.806 828.635,480.665 832.668,473.675 836.7,467.28 840.733,460.565 844.765,455.395 848.797,451.418 852.83,445.079 856.862,437.942 860.894,433.052 864.927,437.272 868.959,440.811 872.992,443.029 877.024,444.257 881.056,443.97 885.089,442.832 889.121,441.363 893.154,438.018 897.186,434.753 901.218,432.565 905.251,430.499 909.283,429.14 913.315,427.827 917.348,426.561 921.38,426.226 925.413,422.347 929.445,411.886 933.477,399.232 937.51,390.156 941.542,385.069 945.575,380.244 949.607,373.857 953.639,368.251 957.672,362.517 961.704,355.743 965.736,348.66 969.769,341.339 973.801,333.959 977.834,326.6 981.866,319.481 985.898,312.413 989.931,305.836 993.963,296.841 997.996,288.38 1002.03,280.659 1006.06,274.034 1010.09,268.171 1014.13,262.648 1018.16,257.451 1022.19,251.025 1026.22,245.024 1030.25,238.096 1034.29,230.47 1038.32,222.07 1042.35,212.449 1046.38,201.23 1050.42,192.336 1054.45,186.106 1058.48,179.976 1062.51,175.042 1066.55,171.737 1070.58,169.31 1074.61,167.52 1078.64,166.148 1082.68,164.464 1086.71,163.217 1090.74,162.008 1094.77,161.167 1098.81,161.049 1102.84,161.23 1106.87,161.071 1110.9,161.223 1114.93,161.632 1118.97,162.271 1123,162.445 1127.03,162.677 1131.06,162.992 1135.1,163.14 1139.13,163.436 1143.16,163.922 1147.19,164.482 1151.23,165.231 1155.26,166.113 1159.29,167.098 1163.32,166.901 1167.36,166.975 1171.39,167.176 1175.42,167.363 1179.45,167.768 1183.49,167.891 1187.52,168.103 1191.55,168.468 1195.58,169.026 1199.61,169.556 1203.65,170.032 1207.68,170.317 1211.71,170.431 1215.74,170.028 1219.78,169.557 1223.81,168.994 1227.84,168.457 1231.87,167.933 1235.91,167.375 1239.94,166.534 1243.97,164.385 1248,162.696 1252.04,161.071 1256.07,160.256 1260.1,160.46 1264.13,162.036 1268.17,164.989 1272.2,169.45 1276.23,174.88 1280.26,180.742 1284.29,186.209 1288.33,191.353 1292.36,196.493 1296.39,201.408 1300.42,205.502 1304.46,208.958 1308.49,210.614 1312.52,211.544 1316.55,210.758 1320.59,209.639 1324.62,208.378 1328.65,206.981 1332.68,205.571 1336.72,204.36 1340.75,203.662 1344.78,203.296 1348.81,203.708 1352.85,204.696 1356.88,203.944 1360.91,198.724 1364.94,193.085 1368.97,189.746 1373.01,188.23 1377.04,187.306 1381.07,186.305 1385.1,184.706 1389.14,183.6 1393.17,182.659 1397.2,181.16 1401.23,180.308 1405.27,179.508 1409.3,178.744 1413.33,178.038 1417.36,178.688 1421.4,185.905 1425.43,192.805 1429.46,193.13 1433.49,193.213 1437.53,194.416 1441.56,199.008 1445.59,205.555 1449.62,209.317 1453.66,211.573 1457.69,212.953 1461.72,212.412 1465.75,211.043 1469.78,208.787 1473.82,205.923 1477.85,202.044 1481.88,196.574 1485.91,192.505 1489.95,189.241 1493.98,186.29 1498.01,183.149 1502.04,180.82 1506.08,179.086 1510.11,177.7 1514.14,177.275 1518.17,175.678 1522.21,174.925 1526.24,177.074 1530.27,199.555 1534.3,201.342 1538.34,203.276 1542.37,205.639 1546.4,208.25 1550.43,210.136 1554.46,212.002 1558.5,212.873 1562.53,212.669 1566.56,210.187 1570.59,208.542 1574.63,206.818 1578.66,204.129 1582.69,203.329 1586.72,206.259 1590.76,212.25 1594.79,215.913 1598.82,214.654 1602.85,212.465 1606.89,210.261 1610.92,210.146 1614.95,210.57 1618.98,211.865 1623.02,214.219 1627.05,217.45 1631.08,221.137 1635.11,223.063 1639.14,223.923 1643.18,224.027 1647.21,212.663 1651.24,198.527 1655.27,195.841 1659.31,192.991 1663.34,189.088 1667.37,185.975 1671.4,185.132 1675.44,185.492 1679.47,186.862 1683.5,190.612 1687.53,195.219 1691.57,200.91 1695.6,204.497 1699.63,208.904 1703.66,213.38 1707.7,217.425 1711.73,221.204 1715.76,222.178 1719.79,222.818 1723.82,223.112 1727.86,223.159 1731.89,223.31 1735.92,224.241 1739.95,224.88 1743.99,225.751 1748.02,227.582 1752.05,229.964 1756.08,233.266 1760.12,235.311 1764.15,236.93 1768.18,237.595 1772.21,237.297 1776.25,235.427 1780.28,233.087 1784.31,231.08 1788.34,227.476 1792.38,222.456 1796.41,217.575 1800.44,213.993 1804.47,210.861 1808.5,208.254 1812.54,206.033 1816.57,204.598 1820.6,203.399 1824.63,204.018 1828.67,205.123 1832.7,206.723 1836.73,209.864 1840.76,213.212 1844.8,216.654 1848.83,219.975 1852.86,221.778 1856.89,223.284 1860.93,224.516 1864.96,224.756 1868.99,224.944 1873.02,225.043 1877.06,225.197 1881.09,225.547 1885.12,222.592 1889.15,220.818 1893.19,219.575 1897.22,218.622 1901.25,216.966 1905.28,215.747 1909.31,214.922 1913.35,214.596 1917.38,214.864 1921.41,217.031 1925.44,220.05 1929.48,222.942 1933.51,224.942 1937.54,227.427 1941.57,230.555 1945.61,234.362 1949.64,236.959 1953.67,239.789 1957.7,242.413 1961.74,244.363 1965.77,244.618 1969.8,244.148 1973.83,242.921 1977.87,241.771 1981.9,240.819 1985.93,240.129 1989.96,241.68 1993.99,244.776 1998.03,249.695 2002.06,254.543 2006.09,257.931 2010.12,260.42 2014.16,259.692 2018.19,255.182 2022.22,242.757 2026.25,237.795 2030.29,236.899 2034.32,236.844 2038.35,235.128 2042.38,233.013 2046.42,230.6 2050.45,228.033 2054.48,225.534 2058.51,223.287 2062.55,221.834 2066.58,220.801 2070.61,220.666 2074.64,220.96 2078.67,221.402 2082.71,222.179 2086.74,222.867 2090.77,223.554 2094.8,224.232 2098.84,225.003 2102.87,225.5 2106.9,226.105 2110.93,226.768 2114.97,227.365 2119,227.964 2123.03,228.159 2127.06,228.342 2131.1,228.482 2135.13,228.636 2139.16,228.151 2143.19,226.093 2147.23,223.958 2151.26,220.366 2155.29,216.735 2159.32,213.316 2163.35,210.114 2167.39,207.213 2171.42,204.863 2175.45,202.886 2179.48,201.193 2183.52,200.008 2187.55,224.775 2191.58,224.195 2195.61,223.878 2199.65,223.751 2203.68,225.445 2207.71,227.328 2211.74,229.41 2215.78,230.962 2219.81,233.322 2223.84,235.739 2227.87,237.927 2231.91,239.841 2235.94,241.068 2239.97,240.545 2244,239.117 2248.03,235.258 2252.07,230.794 2256.1,225.66 2260.13,222.138 2264.16,219.832 2268.2,218.213 2272.23,217.314 2276.26,215.336 2280.29,214.913 2284.33,215.359 2288.36,216.926 2292.39,219.287 "/>
<path clip-path="url(#clip140)" d="M290.963 322.316 L762.676 322.316 L762.676 166.796 L290.963 166.796  Z" fill="#ffffff" fill-rule="evenodd" fill-opacity="1"/>
<polyline clip-path="url(#clip140)" style="stroke:#000000; stroke-linecap:round; stroke-linejoin:round; stroke-width:4; stroke-opacity:1; fill:none" points="290.963,322.316 762.676,322.316 762.676,166.796 290.963,166.796 290.963,322.316 "/>
<polyline clip-path="url(#clip140)" style="stroke:#0000ff; stroke-linecap:round; stroke-linejoin:round; stroke-width:8; stroke-opacity:1; fill:none" points="314.661,218.636 456.854,218.636 "/>
<path clip-path="url(#clip140)" d="M480.553 201.356 L487.52 201.356 L496.34 224.874 L505.205 201.356 L512.173 201.356 L512.173 235.916 L507.613 235.916 L507.613 205.569 L498.701 229.272 L494.002 229.272 L485.09 205.569 L485.09 235.916 L480.553 235.916 L480.553 201.356 Z" fill="#000000" fill-rule="nonzero" fill-opacity="1" /><path clip-path="url(#clip140)" d="M543.446 221.888 L543.446 223.971 L523.863 223.971 Q524.141 228.369 526.502 230.684 Q528.886 232.976 533.122 232.976 Q535.576 232.976 537.867 232.374 Q540.182 231.772 542.451 230.569 L542.451 234.596 Q540.159 235.568 537.752 236.078 Q535.344 236.587 532.867 236.587 Q526.664 236.587 523.029 232.976 Q519.418 229.365 519.418 223.207 Q519.418 216.842 522.844 213.115 Q526.293 209.365 532.127 209.365 Q537.358 209.365 540.39 212.745 Q543.446 216.101 543.446 221.888 M539.187 220.638 Q539.14 217.143 537.219 215.059 Q535.321 212.976 532.173 212.976 Q528.608 212.976 526.455 214.99 Q524.326 217.004 524.002 220.661 L539.187 220.638 Z" fill="#000000" fill-rule="nonzero" fill-opacity="1" /><path clip-path="url(#clip140)" d="M554.65 202.629 L554.65 209.99 L563.423 209.99 L563.423 213.3 L554.65 213.3 L554.65 227.374 Q554.65 230.545 555.506 231.448 Q556.386 232.351 559.048 232.351 L563.423 232.351 L563.423 235.916 L559.048 235.916 Q554.117 235.916 552.242 234.087 Q550.367 232.235 550.367 227.374 L550.367 213.3 L547.242 213.3 L547.242 209.99 L550.367 209.99 L550.367 202.629 L554.65 202.629 Z" fill="#000000" fill-rule="nonzero" fill-opacity="1" /><path clip-path="url(#clip140)" d="M584.048 213.971 Q583.33 213.555 582.474 213.37 Q581.64 213.161 580.622 213.161 Q577.011 213.161 575.066 215.522 Q573.145 217.86 573.145 222.258 L573.145 235.916 L568.862 235.916 L568.862 209.99 L573.145 209.99 L573.145 214.018 Q574.487 211.657 576.64 210.522 Q578.793 209.365 581.872 209.365 Q582.311 209.365 582.844 209.434 Q583.376 209.481 584.024 209.596 L584.048 213.971 Z" fill="#000000" fill-rule="nonzero" fill-opacity="1" /><path clip-path="url(#clip140)" d="M588.515 209.99 L592.774 209.99 L592.774 235.916 L588.515 235.916 L588.515 209.99 M588.515 199.897 L592.774 199.897 L592.774 205.291 L588.515 205.291 L588.515 199.897 Z" fill="#000000" fill-rule="nonzero" fill-opacity="1" /><path clip-path="url(#clip140)" d="M620.344 210.985 L620.344 214.967 Q618.538 213.971 616.709 213.485 Q614.904 212.976 613.052 212.976 Q608.909 212.976 606.617 215.615 Q604.325 218.231 604.325 222.976 Q604.325 227.721 606.617 230.36 Q608.909 232.976 613.052 232.976 Q614.904 232.976 616.709 232.49 Q618.538 231.981 620.344 230.985 L620.344 234.92 Q618.561 235.754 616.64 236.17 Q614.742 236.587 612.589 236.587 Q606.733 236.587 603.284 232.906 Q599.835 229.226 599.835 222.976 Q599.835 216.633 603.307 212.999 Q606.802 209.365 612.867 209.365 Q614.834 209.365 616.709 209.782 Q618.584 210.175 620.344 210.985 Z" fill="#000000" fill-rule="nonzero" fill-opacity="1" /><polyline clip-path="url(#clip140)" style="stroke:#ff0000; stroke-linecap:round; stroke-linejoin:round; stroke-width:8; stroke-opacity:1; fill:none" points="314.661,270.476 456.854,270.476 "/>
<path clip-path="url(#clip140)" d="M480.553 253.196 L509.789 253.196 L509.789 257.131 L497.52 257.131 L497.52 287.756 L492.821 287.756 L492.821 257.131 L480.553 257.131 L480.553 253.196 Z" fill="#000000" fill-rule="nonzero" fill-opacity="1" /><path clip-path="url(#clip140)" d="M516.108 264.816 Q512.682 264.816 510.692 267.501 Q508.701 270.163 508.701 274.816 Q508.701 279.469 510.668 282.154 Q512.659 284.816 516.108 284.816 Q519.511 284.816 521.502 282.131 Q523.492 279.446 523.492 274.816 Q523.492 270.21 521.502 267.524 Q519.511 264.816 516.108 264.816 M516.108 261.205 Q521.664 261.205 524.835 264.816 Q528.006 268.427 528.006 274.816 Q528.006 281.182 524.835 284.816 Q521.664 288.427 516.108 288.427 Q510.529 288.427 507.358 284.816 Q504.21 281.182 504.21 274.816 Q504.21 268.427 507.358 264.816 Q510.529 261.205 516.108 261.205 Z" fill="#000000" fill-rule="nonzero" fill-opacity="1" /><path clip-path="url(#clip140)" d="M539.187 283.867 L539.187 297.617 L534.904 297.617 L534.904 261.83 L539.187 261.83 L539.187 265.765 Q540.529 263.45 542.566 262.339 Q544.627 261.205 547.474 261.205 Q552.196 261.205 555.136 264.955 Q558.099 268.705 558.099 274.816 Q558.099 280.927 555.136 284.677 Q552.196 288.427 547.474 288.427 Q544.627 288.427 542.566 287.316 Q540.529 286.182 539.187 283.867 M553.677 274.816 Q553.677 270.117 551.733 267.455 Q549.812 264.77 546.432 264.77 Q543.052 264.77 541.108 267.455 Q539.187 270.117 539.187 274.816 Q539.187 279.515 541.108 282.2 Q543.052 284.862 546.432 284.862 Q549.812 284.862 551.733 282.2 Q553.677 279.515 553.677 274.816 Z" fill="#000000" fill-rule="nonzero" fill-opacity="1" /><path clip-path="url(#clip140)" d="M575.205 264.816 Q571.779 264.816 569.788 267.501 Q567.798 270.163 567.798 274.816 Q567.798 279.469 569.765 282.154 Q571.756 284.816 575.205 284.816 Q578.608 284.816 580.599 282.131 Q582.589 279.446 582.589 274.816 Q582.589 270.21 580.599 267.524 Q578.608 264.816 575.205 264.816 M575.205 261.205 Q580.761 261.205 583.932 264.816 Q587.103 268.427 587.103 274.816 Q587.103 281.182 583.932 284.816 Q580.761 288.427 575.205 288.427 Q569.626 288.427 566.455 284.816 Q563.307 281.182 563.307 274.816 Q563.307 268.427 566.455 264.816 Q569.626 261.205 575.205 261.205 Z" fill="#000000" fill-rule="nonzero" fill-opacity="1" /><path clip-path="url(#clip140)" d="M594.163 251.737 L598.423 251.737 L598.423 287.756 L594.163 287.756 L594.163 251.737 Z" fill="#000000" fill-rule="nonzero" fill-opacity="1" /><path clip-path="url(#clip140)" d="M617.381 264.816 Q613.955 264.816 611.964 267.501 Q609.973 270.163 609.973 274.816 Q609.973 279.469 611.941 282.154 Q613.932 284.816 617.381 284.816 Q620.784 284.816 622.774 282.131 Q624.765 279.446 624.765 274.816 Q624.765 270.21 622.774 267.524 Q620.784 264.816 617.381 264.816 M617.381 261.205 Q622.936 261.205 626.108 264.816 Q629.279 268.427 629.279 274.816 Q629.279 281.182 626.108 284.816 Q622.936 288.427 617.381 288.427 Q611.802 288.427 608.631 284.816 Q605.483 281.182 605.483 274.816 Q605.483 268.427 608.631 264.816 Q611.802 261.205 617.381 261.205 Z" fill="#000000" fill-rule="nonzero" fill-opacity="1" /><path clip-path="url(#clip140)" d="M653.399 274.492 Q653.399 269.862 651.478 267.316 Q649.58 264.77 646.131 264.77 Q642.705 264.77 640.783 267.316 Q638.885 269.862 638.885 274.492 Q638.885 279.098 640.783 281.645 Q642.705 284.191 646.131 284.191 Q649.58 284.191 651.478 281.645 Q653.399 279.098 653.399 274.492 M657.658 284.538 Q657.658 291.158 654.719 294.376 Q651.779 297.617 645.714 297.617 Q643.469 297.617 641.478 297.27 Q639.487 296.945 637.612 296.251 L637.612 292.108 Q639.487 293.126 641.316 293.612 Q643.144 294.098 645.043 294.098 Q649.232 294.098 651.316 291.899 Q653.399 289.723 653.399 285.302 L653.399 283.196 Q652.08 285.487 650.019 286.621 Q647.959 287.756 645.089 287.756 Q640.32 287.756 637.404 284.121 Q634.487 280.487 634.487 274.492 Q634.487 268.473 637.404 264.839 Q640.32 261.205 645.089 261.205 Q647.959 261.205 650.019 262.339 Q652.08 263.473 653.399 265.765 L653.399 261.83 L657.658 261.83 L657.658 284.538 Z" fill="#000000" fill-rule="nonzero" fill-opacity="1" /><path clip-path="url(#clip140)" d="M666.431 261.83 L670.691 261.83 L670.691 287.756 L666.431 287.756 L666.431 261.83 M666.431 251.737 L670.691 251.737 L670.691 257.131 L666.431 257.131 L666.431 251.737 Z" fill="#000000" fill-rule="nonzero" fill-opacity="1" /><path clip-path="url(#clip140)" d="M698.26 262.825 L698.26 266.807 Q696.454 265.811 694.626 265.325 Q692.82 264.816 690.968 264.816 Q686.825 264.816 684.533 267.455 Q682.242 270.071 682.242 274.816 Q682.242 279.561 684.533 282.2 Q686.825 284.816 690.968 284.816 Q692.82 284.816 694.626 284.33 Q696.454 283.821 698.26 282.825 L698.26 286.76 Q696.478 287.594 694.556 288.01 Q692.658 288.427 690.505 288.427 Q684.649 288.427 681.2 284.746 Q677.751 281.066 677.751 274.816 Q677.751 268.473 681.223 264.839 Q684.718 261.205 690.783 261.205 Q692.751 261.205 694.626 261.622 Q696.501 262.015 698.26 262.825 Z" fill="#000000" fill-rule="nonzero" fill-opacity="1" /><path clip-path="url(#clip140)" d="M717.45 274.723 Q712.288 274.723 710.297 275.904 Q708.306 277.084 708.306 279.932 Q708.306 282.2 709.788 283.543 Q711.292 284.862 713.862 284.862 Q717.403 284.862 719.533 282.362 Q721.686 279.839 721.686 275.672 L721.686 274.723 L717.45 274.723 M725.945 272.964 L725.945 287.756 L721.686 287.756 L721.686 283.821 Q720.227 286.182 718.052 287.316 Q715.876 288.427 712.727 288.427 Q708.746 288.427 706.385 286.205 Q704.047 283.959 704.047 280.209 Q704.047 275.834 706.964 273.612 Q709.903 271.39 715.714 271.39 L721.686 271.39 L721.686 270.973 Q721.686 268.034 719.741 266.436 Q717.82 264.816 714.325 264.816 Q712.102 264.816 709.996 265.348 Q707.89 265.881 705.945 266.946 L705.945 263.01 Q708.283 262.108 710.482 261.668 Q712.681 261.205 714.764 261.205 Q720.389 261.205 723.167 264.122 Q725.945 267.038 725.945 272.964 Z" fill="#000000" fill-rule="nonzero" fill-opacity="1" /><path clip-path="url(#clip140)" d="M734.718 251.737 L738.977 251.737 L738.977 287.756 L734.718 287.756 L734.718 251.737 Z" fill="#000000" fill-rule="nonzero" fill-opacity="1" /></svg>
