<?xml version="1.0" encoding="utf-8"?>
<svg xmlns="http://www.w3.org/2000/svg" xmlns:xlink="http://www.w3.org/1999/xlink" width="600" height="400" viewBox="0 0 2400 1600">
<defs>
  <clipPath id="clip100">
    <rect x="0" y="0" width="2400" height="1600"/>
  </clipPath>
</defs>
<path clip-path="url(#clip100)" d="M0 1600 L2400 1600 L2400 0 L0 0  Z" fill="#ffffff" fill-rule="evenodd" fill-opacity="1"/>
<defs>
  <clipPath id="clip101">
    <rect x="480" y="0" width="1681" height="1600"/>
  </clipPath>
</defs>
<path clip-path="url(#clip100)" d="M219.38 1423.18 L2352.76 1423.18 L2352.76 123.472 L219.38 123.472  Z" fill="#ffffff" fill-rule="evenodd" fill-opacity="1"/>
<defs>
  <clipPath id="clip102">
    <rect x="219" y="123" width="2134" height="1301"/>
  </clipPath>
</defs>
<polyline clip-path="url(#clip102)" style="stroke:#000000; stroke-linecap:round; stroke-linejoin:round; stroke-width:2; stroke-opacity:0.1; fill:none" points="275.725,1423.18 275.725,123.472 "/>
<polyline clip-path="url(#clip102)" style="stroke:#000000; stroke-linecap:round; stroke-linejoin:round; stroke-width:2; stroke-opacity:0.1; fill:none" points="679.056,1423.18 679.056,123.472 "/>
<polyline clip-path="url(#clip102)" style="stroke:#000000; stroke-linecap:round; stroke-linejoin:round; stroke-width:2; stroke-opacity:0.1; fill:none" points="1082.39,1423.18 1082.39,123.472 "/>
<polyline clip-path="url(#clip102)" style="stroke:#000000; stroke-linecap:round; stroke-linejoin:round; stroke-width:2; stroke-opacity:0.1; fill:none" points="1485.72,1423.18 1485.72,123.472 "/>
<polyline clip-path="url(#clip102)" style="stroke:#000000; stroke-linecap:round; stroke-linejoin:round; stroke-width:2; stroke-opacity:0.1; fill:none" points="1889.05,1423.18 1889.05,123.472 "/>
<polyline clip-path="url(#clip102)" style="stroke:#000000; stroke-linecap:round; stroke-linejoin:round; stroke-width:2; stroke-opacity:0.1; fill:none" points="2292.38,1423.18 2292.38,123.472 "/>
<polyline clip-path="url(#clip102)" style="stroke:#000000; stroke-linecap:round; stroke-linejoin:round; stroke-width:2; stroke-opacity:0.1; fill:none" points="219.38,1410 2352.76,1410 "/>
<polyline clip-path="url(#clip102)" style="stroke:#000000; stroke-linecap:round; stroke-linejoin:round; stroke-width:2; stroke-opacity:0.1; fill:none" points="219.38,1065.34 2352.76,1065.34 "/>
<polyline clip-path="url(#clip102)" style="stroke:#000000; stroke-linecap:round; stroke-linejoin:round; stroke-width:2; stroke-opacity:0.1; fill:none" points="219.38,720.693 2352.76,720.693 "/>
<polyline clip-path="url(#clip102)" style="stroke:#000000; stroke-linecap:round; stroke-linejoin:round; stroke-width:2; stroke-opacity:0.1; fill:none" points="219.38,376.042 2352.76,376.042 "/>
<polyline clip-path="url(#clip100)" style="stroke:#000000; stroke-linecap:round; stroke-linejoin:round; stroke-width:4; stroke-opacity:1; fill:none" points="219.38,1423.18 2352.76,1423.18 "/>
<polyline clip-path="url(#clip100)" style="stroke:#000000; stroke-linecap:round; stroke-linejoin:round; stroke-width:4; stroke-opacity:1; fill:none" points="275.725,1423.18 275.725,1404.28 "/>
<polyline clip-path="url(#clip100)" style="stroke:#000000; stroke-linecap:round; stroke-linejoin:round; stroke-width:4; stroke-opacity:1; fill:none" points="679.056,1423.18 679.056,1404.28 "/>
<polyline clip-path="url(#clip100)" style="stroke:#000000; stroke-linecap:round; stroke-linejoin:round; stroke-width:4; stroke-opacity:1; fill:none" points="1082.39,1423.18 1082.39,1404.28 "/>
<polyline clip-path="url(#clip100)" style="stroke:#000000; stroke-linecap:round; stroke-linejoin:round; stroke-width:4; stroke-opacity:1; fill:none" points="1485.72,1423.18 1485.72,1404.28 "/>
<polyline clip-path="url(#clip100)" style="stroke:#000000; stroke-linecap:round; stroke-linejoin:round; stroke-width:4; stroke-opacity:1; fill:none" points="1889.05,1423.18 1889.05,1404.28 "/>
<polyline clip-path="url(#clip100)" style="stroke:#000000; stroke-linecap:round; stroke-linejoin:round; stroke-width:4; stroke-opacity:1; fill:none" points="2292.38,1423.18 2292.38,1404.28 "/>
<path clip-path="url(#clip100)" d="M275.725 1454.1 Q272.114 1454.1 270.286 1457.66 Q268.48 1461.2 268.48 1468.33 Q268.48 1475.44 270.286 1479.01 Q272.114 1482.55 275.725 1482.55 Q279.36 1482.55 281.165 1479.01 Q282.994 1475.44 282.994 1468.33 Q282.994 1461.2 281.165 1457.66 Q279.36 1454.1 275.725 1454.1 M275.725 1450.39 Q281.536 1450.39 284.591 1455 Q287.67 1459.58 287.67 1468.33 Q287.67 1477.06 284.591 1481.67 Q281.536 1486.25 275.725 1486.25 Q269.915 1486.25 266.837 1481.67 Q263.781 1477.06 263.781 1468.33 Q263.781 1459.58 266.837 1455 Q269.915 1450.39 275.725 1450.39 Z" fill="#000000" fill-rule="nonzero" fill-opacity="1" /><path clip-path="url(#clip100)" d="M638.662 1481.64 L646.301 1481.64 L646.301 1455.28 L637.991 1456.95 L637.991 1452.69 L646.255 1451.02 L650.931 1451.02 L650.931 1481.64 L658.57 1481.64 L658.57 1485.58 L638.662 1485.58 L638.662 1481.64 Z" fill="#000000" fill-rule="nonzero" fill-opacity="1" /><path clip-path="url(#clip100)" d="M678.014 1454.1 Q674.403 1454.1 672.574 1457.66 Q670.769 1461.2 670.769 1468.33 Q670.769 1475.44 672.574 1479.01 Q674.403 1482.55 678.014 1482.55 Q681.648 1482.55 683.454 1479.01 Q685.283 1475.44 685.283 1468.33 Q685.283 1461.2 683.454 1457.66 Q681.648 1454.1 678.014 1454.1 M678.014 1450.39 Q683.824 1450.39 686.88 1455 Q689.959 1459.58 689.959 1468.33 Q689.959 1477.06 686.88 1481.67 Q683.824 1486.25 678.014 1486.25 Q672.204 1486.25 669.125 1481.67 Q666.07 1477.06 666.07 1468.33 Q666.07 1459.58 669.125 1455 Q672.204 1450.39 678.014 1450.39 Z" fill="#000000" fill-rule="nonzero" fill-opacity="1" /><path clip-path="url(#clip100)" d="M708.176 1454.1 Q704.565 1454.1 702.736 1457.66 Q700.931 1461.2 700.931 1468.33 Q700.931 1475.44 702.736 1479.01 Q704.565 1482.55 708.176 1482.55 Q711.81 1482.55 713.616 1479.01 Q715.444 1475.44 715.444 1468.33 Q715.444 1461.2 713.616 1457.66 Q711.81 1454.1 708.176 1454.1 M708.176 1450.39 Q713.986 1450.39 717.042 1455 Q720.12 1459.58 720.12 1468.33 Q720.12 1477.06 717.042 1481.67 Q713.986 1486.25 708.176 1486.25 Q702.366 1486.25 699.287 1481.67 Q696.232 1477.06 696.232 1468.33 Q696.232 1459.58 699.287 1455 Q702.366 1450.39 708.176 1450.39 Z" fill="#000000" fill-rule="nonzero" fill-opacity="1" /><path clip-path="url(#clip100)" d="M1046.08 1481.64 L1062.4 1481.64 L1062.4 1485.58 L1040.45 1485.58 L1040.45 1481.64 Q1043.12 1478.89 1047.7 1474.26 Q1052.31 1469.61 1053.49 1468.27 Q1055.73 1465.74 1056.61 1464.01 Q1057.51 1462.25 1057.51 1460.56 Q1057.51 1457.8 1055.57 1456.07 Q1053.65 1454.33 1050.55 1454.33 Q1048.35 1454.33 1045.89 1455.09 Q1043.46 1455.86 1040.69 1457.41 L1040.69 1452.69 Q1043.51 1451.55 1045.96 1450.97 Q1048.42 1450.39 1050.45 1450.39 Q1055.82 1450.39 1059.02 1453.08 Q1062.21 1455.77 1062.21 1460.26 Q1062.21 1462.39 1061.4 1464.31 Q1060.62 1466.2 1058.51 1468.8 Q1057.93 1469.47 1054.83 1472.69 Q1051.73 1475.88 1046.08 1481.64 Z" fill="#000000" fill-rule="nonzero" fill-opacity="1" /><path clip-path="url(#clip100)" d="M1082.21 1454.1 Q1078.6 1454.1 1076.77 1457.66 Q1074.97 1461.2 1074.97 1468.33 Q1074.97 1475.44 1076.77 1479.01 Q1078.6 1482.55 1082.21 1482.55 Q1085.85 1482.55 1087.65 1479.01 Q1089.48 1475.44 1089.48 1468.33 Q1089.48 1461.2 1087.65 1457.66 Q1085.85 1454.1 1082.21 1454.1 M1082.21 1450.39 Q1088.02 1450.39 1091.08 1455 Q1094.16 1459.58 1094.16 1468.33 Q1094.16 1477.06 1091.08 1481.67 Q1088.02 1486.25 1082.21 1486.25 Q1076.4 1486.25 1073.32 1481.67 Q1070.27 1477.06 1070.27 1468.33 Q1070.27 1459.58 1073.32 1455 Q1076.4 1450.39 1082.21 1450.39 Z" fill="#000000" fill-rule="nonzero" fill-opacity="1" /><path clip-path="url(#clip100)" d="M1112.37 1454.1 Q1108.76 1454.1 1106.93 1457.66 Q1105.13 1461.2 1105.13 1468.33 Q1105.13 1475.44 1106.93 1479.01 Q1108.76 1482.55 1112.37 1482.55 Q1116.01 1482.55 1117.81 1479.01 Q1119.64 1475.44 1119.64 1468.33 Q1119.64 1461.2 1117.81 1457.66 Q1116.01 1454.1 1112.37 1454.1 M1112.37 1450.39 Q1118.18 1450.39 1121.24 1455 Q1124.32 1459.58 1124.32 1468.33 Q1124.32 1477.06 1121.24 1481.67 Q1118.18 1486.25 1112.37 1486.25 Q1106.56 1486.25 1103.49 1481.67 Q1100.43 1477.06 1100.43 1468.33 Q1100.43 1459.58 1103.49 1455 Q1106.56 1450.39 1112.37 1450.39 Z" fill="#000000" fill-rule="nonzero" fill-opacity="1" /><path clip-path="url(#clip100)" d="M1459.48 1466.95 Q1462.83 1467.66 1464.71 1469.93 Q1466.61 1472.2 1466.61 1475.53 Q1466.61 1480.65 1463.09 1483.45 Q1459.57 1486.25 1453.09 1486.25 Q1450.91 1486.25 1448.6 1485.81 Q1446.31 1485.39 1443.85 1484.54 L1443.85 1480.02 Q1445.8 1481.16 1448.11 1481.74 Q1450.43 1482.32 1452.95 1482.32 Q1457.35 1482.32 1459.64 1480.58 Q1461.96 1478.84 1461.96 1475.53 Q1461.96 1472.48 1459.8 1470.77 Q1457.67 1469.03 1453.85 1469.03 L1449.83 1469.03 L1449.83 1465.19 L1454.04 1465.19 Q1457.49 1465.19 1459.32 1463.82 Q1461.14 1462.43 1461.14 1459.84 Q1461.14 1457.18 1459.25 1455.77 Q1457.37 1454.33 1453.85 1454.33 Q1451.93 1454.33 1449.73 1454.75 Q1447.53 1455.16 1444.9 1456.04 L1444.9 1451.88 Q1447.56 1451.14 1449.87 1450.77 Q1452.21 1450.39 1454.27 1450.39 Q1459.59 1450.39 1462.7 1452.83 Q1465.8 1455.23 1465.8 1459.35 Q1465.8 1462.22 1464.15 1464.21 Q1462.51 1466.18 1459.48 1466.95 Z" fill="#000000" fill-rule="nonzero" fill-opacity="1" /><path clip-path="url(#clip100)" d="M1485.47 1454.1 Q1481.86 1454.1 1480.03 1457.66 Q1478.23 1461.2 1478.23 1468.33 Q1478.23 1475.44 1480.03 1479.01 Q1481.86 1482.55 1485.47 1482.55 Q1489.11 1482.55 1490.91 1479.01 Q1492.74 1475.44 1492.74 1468.33 Q1492.74 1461.2 1490.91 1457.66 Q1489.11 1454.1 1485.47 1454.1 M1485.47 1450.39 Q1491.28 1450.39 1494.34 1455 Q1497.42 1459.58 1497.42 1468.33 Q1497.42 1477.06 1494.34 1481.67 Q1491.28 1486.25 1485.47 1486.25 Q1479.66 1486.25 1476.58 1481.67 Q1473.53 1477.06 1473.53 1468.33 Q1473.53 1459.58 1476.58 1455 Q1479.66 1450.39 1485.47 1450.39 Z" fill="#000000" fill-rule="nonzero" fill-opacity="1" /><path clip-path="url(#clip100)" d="M1515.64 1454.1 Q1512.02 1454.1 1510.2 1457.66 Q1508.39 1461.2 1508.39 1468.33 Q1508.39 1475.44 1510.2 1479.01 Q1512.02 1482.55 1515.64 1482.55 Q1519.27 1482.55 1521.08 1479.01 Q1522.9 1475.44 1522.9 1468.33 Q1522.9 1461.2 1521.08 1457.66 Q1519.27 1454.1 1515.64 1454.1 M1515.64 1450.39 Q1521.45 1450.39 1524.5 1455 Q1527.58 1459.58 1527.58 1468.33 Q1527.58 1477.06 1524.5 1481.67 Q1521.45 1486.25 1515.64 1486.25 Q1509.83 1486.25 1506.75 1481.67 Q1503.69 1477.06 1503.69 1468.33 Q1503.69 1459.58 1506.75 1455 Q1509.83 1450.39 1515.64 1450.39 Z" fill="#000000" fill-rule="nonzero" fill-opacity="1" /><path clip-path="url(#clip100)" d="M1862.14 1455.09 L1850.33 1473.54 L1862.14 1473.54 L1862.14 1455.09 M1860.91 1451.02 L1866.79 1451.02 L1866.79 1473.54 L1871.72 1473.54 L1871.72 1477.43 L1866.79 1477.43 L1866.79 1485.58 L1862.14 1485.58 L1862.14 1477.43 L1846.54 1477.43 L1846.54 1472.92 L1860.91 1451.02 Z" fill="#000000" fill-rule="nonzero" fill-opacity="1" /><path clip-path="url(#clip100)" d="M1889.45 1454.1 Q1885.84 1454.1 1884.01 1457.66 Q1882.21 1461.2 1882.21 1468.33 Q1882.21 1475.44 1884.01 1479.01 Q1885.84 1482.55 1889.45 1482.55 Q1893.09 1482.55 1894.89 1479.01 Q1896.72 1475.44 1896.72 1468.33 Q1896.72 1461.2 1894.89 1457.66 Q1893.09 1454.1 1889.45 1454.1 M1889.45 1450.39 Q1895.26 1450.39 1898.32 1455 Q1901.4 1459.58 1901.4 1468.33 Q1901.4 1477.06 1898.32 1481.67 Q1895.26 1486.25 1889.45 1486.25 Q1883.64 1486.25 1880.56 1481.67 Q1877.51 1477.06 1877.51 1468.33 Q1877.51 1459.58 1880.56 1455 Q1883.64 1450.39 1889.45 1450.39 Z" fill="#000000" fill-rule="nonzero" fill-opacity="1" /><path clip-path="url(#clip100)" d="M1919.61 1454.1 Q1916 1454.1 1914.17 1457.66 Q1912.37 1461.2 1912.37 1468.33 Q1912.37 1475.44 1914.17 1479.01 Q1916 1482.55 1919.61 1482.55 Q1923.25 1482.55 1925.05 1479.01 Q1926.88 1475.44 1926.88 1468.33 Q1926.88 1461.2 1925.05 1457.66 Q1923.25 1454.1 1919.61 1454.1 M1919.61 1450.39 Q1925.42 1450.39 1928.48 1455 Q1931.56 1459.58 1931.56 1468.33 Q1931.56 1477.06 1928.48 1481.67 Q1925.42 1486.25 1919.61 1486.25 Q1913.8 1486.25 1910.73 1481.67 Q1907.67 1477.06 1907.67 1468.33 Q1907.67 1459.58 1910.73 1455 Q1913.8 1450.39 1919.61 1450.39 Z" fill="#000000" fill-rule="nonzero" fill-opacity="1" /><path clip-path="url(#clip100)" d="M2252 1451.02 L2270.35 1451.02 L2270.35 1454.96 L2256.28 1454.96 L2256.28 1463.43 Q2257.3 1463.08 2258.32 1462.92 Q2259.33 1462.73 2260.35 1462.73 Q2266.14 1462.73 2269.52 1465.9 Q2272.9 1469.08 2272.9 1474.49 Q2272.9 1480.07 2269.43 1483.17 Q2265.95 1486.25 2259.63 1486.25 Q2257.46 1486.25 2255.19 1485.88 Q2252.94 1485.51 2250.54 1484.77 L2250.54 1480.07 Q2252.62 1481.2 2254.84 1481.76 Q2257.07 1482.32 2259.54 1482.32 Q2263.55 1482.32 2265.88 1480.21 Q2268.22 1478.1 2268.22 1474.49 Q2268.22 1470.88 2265.88 1468.77 Q2263.55 1466.67 2259.54 1466.67 Q2257.67 1466.67 2255.79 1467.08 Q2253.94 1467.5 2252 1468.38 L2252 1451.02 Z" fill="#000000" fill-rule="nonzero" fill-opacity="1" /><path clip-path="url(#clip100)" d="M2292.11 1454.1 Q2288.5 1454.1 2286.67 1457.66 Q2284.87 1461.2 2284.87 1468.33 Q2284.87 1475.44 2286.67 1479.01 Q2288.5 1482.55 2292.11 1482.55 Q2295.75 1482.55 2297.55 1479.01 Q2299.38 1475.44 2299.38 1468.33 Q2299.38 1461.2 2297.55 1457.66 Q2295.75 1454.1 2292.11 1454.1 M2292.11 1450.39 Q2297.92 1450.39 2300.98 1455 Q2304.06 1459.58 2304.06 1468.33 Q2304.06 1477.06 2300.98 1481.67 Q2297.92 1486.25 2292.11 1486.25 Q2286.3 1486.25 2283.22 1481.67 Q2280.17 1477.06 2280.17 1468.33 Q2280.17 1459.58 2283.22 1455 Q2286.3 1450.39 2292.11 1450.39 Z" fill="#000000" fill-rule="nonzero" fill-opacity="1" /><path clip-path="url(#clip100)" d="M2322.27 1454.1 Q2318.66 1454.1 2316.83 1457.66 Q2315.03 1461.2 2315.03 1468.33 Q2315.03 1475.44 2316.83 1479.01 Q2318.66 1482.55 2322.27 1482.55 Q2325.91 1482.55 2327.71 1479.01 Q2329.54 1475.44 2329.54 1468.33 Q2329.54 1461.2 2327.71 1457.66 Q2325.91 1454.1 2322.27 1454.1 M2322.27 1450.39 Q2328.08 1450.39 2331.14 1455 Q2334.22 1459.58 2334.22 1468.33 Q2334.22 1477.06 2331.14 1481.67 Q2328.08 1486.25 2322.27 1486.25 Q2316.46 1486.25 2313.38 1481.67 Q2310.33 1477.06 2310.33 1468.33 Q2310.33 1459.58 2313.38 1455 Q2316.46 1450.39 2322.27 1450.39 Z" fill="#000000" fill-rule="nonzero" fill-opacity="1" /><path clip-path="url(#clip100)" d="M1246.38 1522.08 L1246.38 1528.35 Q1242.72 1526.6 1239.47 1525.74 Q1236.22 1524.88 1233.2 1524.88 Q1227.95 1524.88 1225.08 1526.92 Q1222.25 1528.96 1222.25 1532.71 Q1222.25 1535.87 1224.13 1537.49 Q1226.04 1539.08 1231.32 1540.07 L1235.21 1540.86 Q1242.4 1542.23 1245.8 1545.7 Q1249.24 1549.14 1249.24 1554.93 Q1249.24 1561.84 1244.6 1565.4 Q1239.98 1568.97 1231.04 1568.97 Q1227.66 1568.97 1223.84 1568.2 Q1220.06 1567.44 1215.98 1565.94 L1215.98 1559.32 Q1219.9 1561.52 1223.65 1562.63 Q1227.41 1563.75 1231.04 1563.75 Q1236.54 1563.75 1239.53 1561.58 Q1242.53 1559.42 1242.53 1555.41 Q1242.53 1551.91 1240.36 1549.93 Q1238.23 1547.96 1233.33 1546.97 L1229.41 1546.21 Q1222.22 1544.78 1219.01 1541.72 Q1215.79 1538.67 1215.79 1533.22 Q1215.79 1526.92 1220.21 1523.29 Q1224.67 1519.66 1232.47 1519.66 Q1235.81 1519.66 1239.28 1520.27 Q1242.75 1520.87 1246.38 1522.08 Z" fill="#000000" fill-rule="nonzero" fill-opacity="1" /><path clip-path="url(#clip100)" d="M1264.81 1522.27 L1264.81 1532.4 L1276.87 1532.4 L1276.87 1536.95 L1264.81 1536.95 L1264.81 1556.3 Q1264.81 1560.66 1265.98 1561.9 Q1267.19 1563.14 1270.85 1563.14 L1276.87 1563.14 L1276.87 1568.04 L1270.85 1568.04 Q1264.07 1568.04 1261.5 1565.53 Q1258.92 1562.98 1258.92 1556.3 L1258.92 1536.95 L1254.62 1536.95 L1254.62 1532.4 L1258.92 1532.4 L1258.92 1522.27 L1264.81 1522.27 Z" fill="#000000" fill-rule="nonzero" fill-opacity="1" /><path clip-path="url(#clip100)" d="M1315.06 1548.76 L1315.06 1551.62 L1288.14 1551.62 Q1288.52 1557.67 1291.77 1560.85 Q1295.04 1564 1300.87 1564 Q1304.24 1564 1307.39 1563.17 Q1310.58 1562.35 1313.7 1560.69 L1313.7 1566.23 Q1310.54 1567.57 1307.23 1568.27 Q1303.92 1568.97 1300.52 1568.97 Q1291.99 1568.97 1286.99 1564 Q1282.03 1559.04 1282.03 1550.57 Q1282.03 1541.82 1286.74 1536.69 Q1291.48 1531.54 1299.5 1531.54 Q1306.69 1531.54 1310.86 1536.18 Q1315.06 1540.8 1315.06 1548.76 M1309.21 1547.04 Q1309.14 1542.23 1306.5 1539.37 Q1303.89 1536.5 1299.56 1536.5 Q1294.66 1536.5 1291.7 1539.27 Q1288.77 1542.04 1288.33 1547.07 L1309.21 1547.04 Z" fill="#000000" fill-rule="nonzero" fill-opacity="1" /><path clip-path="url(#clip100)" d="M1330.34 1562.7 L1330.34 1581.6 L1324.45 1581.6 L1324.45 1532.4 L1330.34 1532.4 L1330.34 1537.81 Q1332.19 1534.62 1334.99 1533.1 Q1337.82 1531.54 1341.74 1531.54 Q1348.23 1531.54 1352.27 1536.69 Q1356.35 1541.85 1356.35 1550.25 Q1356.35 1558.65 1352.27 1563.81 Q1348.23 1568.97 1341.74 1568.97 Q1337.82 1568.97 1334.99 1567.44 Q1332.19 1565.88 1330.34 1562.7 M1350.27 1550.25 Q1350.27 1543.79 1347.59 1540.13 Q1344.95 1536.44 1340.3 1536.44 Q1335.66 1536.44 1332.98 1540.13 Q1330.34 1543.79 1330.34 1550.25 Q1330.34 1556.71 1332.98 1560.4 Q1335.66 1564.07 1340.3 1564.07 Q1344.95 1564.07 1347.59 1560.4 Q1350.27 1556.71 1350.27 1550.25 Z" fill="#000000" fill-rule="nonzero" fill-opacity="1" /><polyline clip-path="url(#clip100)" style="stroke:#000000; stroke-linecap:round; stroke-linejoin:round; stroke-width:4; stroke-opacity:1; fill:none" points="219.38,1423.18 219.38,123.472 "/>
<polyline clip-path="url(#clip100)" style="stroke:#000000; stroke-linecap:round; stroke-linejoin:round; stroke-width:4; stroke-opacity:1; fill:none" points="219.38,1410 238.278,1410 "/>
<polyline clip-path="url(#clip100)" style="stroke:#000000; stroke-linecap:round; stroke-linejoin:round; stroke-width:4; stroke-opacity:1; fill:none" points="219.38,1065.34 238.278,1065.34 "/>
<polyline clip-path="url(#clip100)" style="stroke:#000000; stroke-linecap:round; stroke-linejoin:round; stroke-width:4; stroke-opacity:1; fill:none" points="219.38,720.693 238.278,720.693 "/>
<polyline clip-path="url(#clip100)" style="stroke:#000000; stroke-linecap:round; stroke-linejoin:round; stroke-width:4; stroke-opacity:1; fill:none" points="219.38,376.042 238.278,376.042 "/>
<path clip-path="url(#clip100)" d="M126.205 1395.79 Q122.593 1395.79 120.765 1399.36 Q118.959 1402.9 118.959 1410.03 Q118.959 1417.14 120.765 1420.7 Q122.593 1424.24 126.205 1424.24 Q129.839 1424.24 131.644 1420.7 Q133.473 1417.14 133.473 1410.03 Q133.473 1402.9 131.644 1399.36 Q129.839 1395.79 126.205 1395.79 M126.205 1392.09 Q132.015 1392.09 135.07 1396.7 Q138.149 1401.28 138.149 1410.03 Q138.149 1418.76 135.07 1423.36 Q132.015 1427.95 126.205 1427.95 Q120.394 1427.95 117.316 1423.36 Q114.26 1418.76 114.26 1410.03 Q114.26 1401.28 117.316 1396.7 Q120.394 1392.09 126.205 1392.09 Z" fill="#000000" fill-rule="nonzero" fill-opacity="1" /><path clip-path="url(#clip100)" d="M146.366 1421.4 L151.251 1421.4 L151.251 1427.28 L146.366 1427.28 L146.366 1421.4 Z" fill="#000000" fill-rule="nonzero" fill-opacity="1" /><path clip-path="url(#clip100)" d="M171.436 1395.79 Q167.825 1395.79 165.996 1399.36 Q164.19 1402.9 164.19 1410.03 Q164.19 1417.14 165.996 1420.7 Q167.825 1424.24 171.436 1424.24 Q175.07 1424.24 176.876 1420.7 Q178.704 1417.14 178.704 1410.03 Q178.704 1402.9 176.876 1399.36 Q175.07 1395.79 171.436 1395.79 M171.436 1392.09 Q177.246 1392.09 180.301 1396.7 Q183.38 1401.28 183.38 1410.03 Q183.38 1418.76 180.301 1423.36 Q177.246 1427.95 171.436 1427.95 Q165.626 1427.95 162.547 1423.36 Q159.491 1418.76 159.491 1410.03 Q159.491 1401.28 162.547 1396.7 Q165.626 1392.09 171.436 1392.09 Z" fill="#000000" fill-rule="nonzero" fill-opacity="1" /><path clip-path="url(#clip100)" d="M127.431 1051.14 Q123.82 1051.14 121.992 1054.71 Q120.186 1058.25 120.186 1065.38 Q120.186 1072.49 121.992 1076.05 Q123.82 1079.59 127.431 1079.59 Q131.066 1079.59 132.871 1076.05 Q134.7 1072.49 134.7 1065.38 Q134.7 1058.25 132.871 1054.71 Q131.066 1051.14 127.431 1051.14 M127.431 1047.44 Q133.242 1047.44 136.297 1052.05 Q139.376 1056.63 139.376 1065.38 Q139.376 1074.11 136.297 1078.71 Q133.242 1083.3 127.431 1083.3 Q121.621 1083.3 118.543 1078.71 Q115.487 1074.11 115.487 1065.38 Q115.487 1056.63 118.543 1052.05 Q121.621 1047.44 127.431 1047.44 Z" fill="#000000" fill-rule="nonzero" fill-opacity="1" /><path clip-path="url(#clip100)" d="M147.593 1076.74 L152.478 1076.74 L152.478 1082.62 L147.593 1082.62 L147.593 1076.74 Z" fill="#000000" fill-rule="nonzero" fill-opacity="1" /><path clip-path="url(#clip100)" d="M163.473 1078.69 L171.112 1078.69 L171.112 1052.32 L162.802 1053.99 L162.802 1049.73 L171.065 1048.06 L175.741 1048.06 L175.741 1078.69 L183.38 1078.69 L183.38 1082.62 L163.473 1082.62 L163.473 1078.69 Z" fill="#000000" fill-rule="nonzero" fill-opacity="1" /><path clip-path="url(#clip100)" d="M127.802 706.492 Q124.191 706.492 122.362 710.056 Q120.556 713.598 120.556 720.728 Q120.556 727.834 122.362 731.399 Q124.191 734.941 127.802 734.941 Q131.436 734.941 133.242 731.399 Q135.07 727.834 135.07 720.728 Q135.07 713.598 133.242 710.056 Q131.436 706.492 127.802 706.492 M127.802 702.788 Q133.612 702.788 136.667 707.394 Q139.746 711.978 139.746 720.728 Q139.746 729.454 136.667 734.061 Q133.612 738.644 127.802 738.644 Q121.992 738.644 118.913 734.061 Q115.857 729.454 115.857 720.728 Q115.857 711.978 118.913 707.394 Q121.992 702.788 127.802 702.788 Z" fill="#000000" fill-rule="nonzero" fill-opacity="1" /><path clip-path="url(#clip100)" d="M147.964 732.093 L152.848 732.093 L152.848 737.973 L147.964 737.973 L147.964 732.093 Z" fill="#000000" fill-rule="nonzero" fill-opacity="1" /><path clip-path="url(#clip100)" d="M167.061 734.038 L183.38 734.038 L183.38 737.973 L161.436 737.973 L161.436 734.038 Q164.098 731.283 168.681 726.654 Q173.288 722.001 174.468 720.658 Q176.714 718.135 177.593 716.399 Q178.496 714.64 178.496 712.95 Q178.496 710.195 176.551 708.459 Q174.63 706.723 171.528 706.723 Q169.329 706.723 166.876 707.487 Q164.445 708.251 161.667 709.802 L161.667 705.08 Q164.491 703.945 166.945 703.367 Q169.399 702.788 171.436 702.788 Q176.806 702.788 180.001 705.473 Q183.195 708.158 183.195 712.649 Q183.195 714.779 182.385 716.7 Q181.598 718.598 179.491 721.191 Q178.913 721.862 175.811 725.079 Q172.709 728.274 167.061 734.038 Z" fill="#000000" fill-rule="nonzero" fill-opacity="1" /><path clip-path="url(#clip100)" d="M126.853 361.84 Q123.242 361.84 121.413 365.405 Q119.607 368.947 119.607 376.076 Q119.607 383.183 121.413 386.748 Q123.242 390.289 126.853 390.289 Q130.487 390.289 132.292 386.748 Q134.121 383.183 134.121 376.076 Q134.121 368.947 132.292 365.405 Q130.487 361.84 126.853 361.84 M126.853 358.137 Q132.663 358.137 135.718 362.743 Q138.797 367.326 138.797 376.076 Q138.797 384.803 135.718 389.41 Q132.663 393.993 126.853 393.993 Q121.043 393.993 117.964 389.41 Q114.908 384.803 114.908 376.076 Q114.908 367.326 117.964 362.743 Q121.043 358.137 126.853 358.137 Z" fill="#000000" fill-rule="nonzero" fill-opacity="1" /><path clip-path="url(#clip100)" d="M147.015 387.442 L151.899 387.442 L151.899 393.322 L147.015 393.322 L147.015 387.442 Z" fill="#000000" fill-rule="nonzero" fill-opacity="1" /><path clip-path="url(#clip100)" d="M176.251 374.687 Q179.607 375.405 181.482 377.673 Q183.38 379.942 183.38 383.275 Q183.38 388.391 179.862 391.192 Q176.343 393.993 169.862 393.993 Q167.686 393.993 165.371 393.553 Q163.079 393.136 160.626 392.28 L160.626 387.766 Q162.57 388.9 164.885 389.479 Q167.2 390.058 169.723 390.058 Q174.121 390.058 176.413 388.322 Q178.727 386.585 178.727 383.275 Q178.727 380.22 176.575 378.507 Q174.445 376.771 170.626 376.771 L166.598 376.771 L166.598 372.928 L170.811 372.928 Q174.26 372.928 176.089 371.562 Q177.917 370.174 177.917 367.581 Q177.917 364.919 176.019 363.507 Q174.144 362.072 170.626 362.072 Q168.704 362.072 166.505 362.488 Q164.306 362.905 161.667 363.785 L161.667 359.618 Q164.329 358.877 166.644 358.507 Q168.982 358.137 171.042 358.137 Q176.366 358.137 179.468 360.567 Q182.57 362.974 182.57 367.095 Q182.57 369.965 180.926 371.956 Q179.283 373.924 176.251 374.687 Z" fill="#000000" fill-rule="nonzero" fill-opacity="1" /><path clip-path="url(#clip100)" d="M18.0438 904.316 L24.314 904.316 Q22.5634 907.977 21.704 911.223 Q20.8447 914.47 20.8447 917.493 Q20.8447 922.745 22.8817 925.61 Q24.9187 928.442 28.6745 928.442 Q31.8255 928.442 33.4488 926.564 Q35.0402 924.655 36.0269 919.371 L36.8226 915.488 Q38.1912 908.295 41.6605 904.889 Q45.098 901.452 50.8908 901.452 Q57.7976 901.452 61.3624 906.099 Q64.9272 910.714 64.9272 919.658 Q64.9272 923.031 64.1633 926.851 Q63.3994 930.639 61.9035 934.713 L55.2831 934.713 Q57.4793 930.798 58.5933 927.042 Q59.7073 923.286 59.7073 919.658 Q59.7073 914.151 57.543 911.159 Q55.3786 908.168 51.3682 908.168 Q47.8671 908.168 45.8937 910.332 Q43.9204 912.464 42.9337 917.366 L42.1698 921.281 Q40.7375 928.474 37.682 931.689 Q34.6264 934.904 29.1837 934.904 Q22.8817 934.904 19.2532 930.479 Q15.6248 926.023 15.6248 918.225 Q15.6248 914.883 16.2295 911.414 Q16.8343 907.945 18.0438 904.316 Z" fill="#000000" fill-rule="nonzero" fill-opacity="1" /><path clip-path="url(#clip100)" d="M58.657 886.015 L77.5631 886.015 L77.5631 891.903 L28.3562 891.903 L28.3562 886.015 L33.7671 886.015 Q30.5842 884.169 29.0564 881.368 Q27.4968 878.535 27.4968 874.62 Q27.4968 868.127 32.6531 864.085 Q37.8093 860.011 46.212 860.011 Q54.6147 860.011 59.771 864.085 Q64.9272 868.127 64.9272 874.62 Q64.9272 878.535 63.3994 881.368 Q61.8398 884.169 58.657 886.015 M46.212 866.09 Q39.7508 866.09 36.0905 868.764 Q32.3984 871.406 32.3984 876.053 Q32.3984 880.7 36.0905 883.373 Q39.7508 886.015 46.212 886.015 Q52.6732 886.015 56.3653 883.373 Q60.0256 880.7 60.0256 876.053 Q60.0256 871.406 56.3653 868.764 Q52.6732 866.09 46.212 866.09 Z" fill="#000000" fill-rule="nonzero" fill-opacity="1" /><path clip-path="url(#clip100)" d="M44.7161 819.812 L47.5806 819.812 L47.5806 846.738 Q53.6281 846.357 56.8109 843.11 Q59.9619 839.832 59.9619 834.007 Q59.9619 830.633 59.1344 827.482 Q58.3069 824.299 56.6518 821.18 L62.1899 821.18 Q63.5267 824.331 64.227 827.641 Q64.9272 830.952 64.9272 834.357 Q64.9272 842.887 59.9619 847.884 Q54.9967 852.85 46.5303 852.85 Q37.7774 852.85 32.6531 848.139 Q27.4968 843.396 27.4968 835.376 Q27.4968 828.182 32.1438 824.013 Q36.7589 819.812 44.7161 819.812 M42.9973 825.668 Q38.1912 825.732 35.3266 828.373 Q32.4621 830.983 32.4621 835.312 Q32.4621 840.214 35.2312 843.174 Q38.0002 846.102 43.0292 846.548 L42.9973 825.668 Z" fill="#000000" fill-rule="nonzero" fill-opacity="1" /><path clip-path="url(#clip100)" d="M44.7161 779.708 L47.5806 779.708 L47.5806 806.635 Q53.6281 806.253 56.8109 803.006 Q59.9619 799.728 59.9619 793.903 Q59.9619 790.529 59.1344 787.378 Q58.3069 784.195 56.6518 781.076 L62.1899 781.076 Q63.5267 784.227 64.227 787.537 Q64.9272 790.848 64.9272 794.253 Q64.9272 802.783 59.9619 807.78 Q54.9967 812.746 46.5303 812.746 Q37.7774 812.746 32.6531 808.035 Q27.4968 803.293 27.4968 795.272 Q27.4968 788.079 32.1438 783.909 Q36.7589 779.708 44.7161 779.708 M42.9973 785.564 Q38.1912 785.628 35.3266 788.269 Q32.4621 790.879 32.4621 795.208 Q32.4621 800.11 35.2312 803.07 Q38.0002 805.998 43.0292 806.444 L42.9973 785.564 Z" fill="#000000" fill-rule="nonzero" fill-opacity="1" /><path clip-path="url(#clip100)" d="M33.7671 746.638 L14.479 746.638 L14.479 740.781 L64.0042 740.781 L64.0042 746.638 L58.657 746.638 Q61.8398 748.484 63.3994 751.317 Q64.9272 754.117 64.9272 758.064 Q64.9272 764.525 59.771 768.599 Q54.6147 772.642 46.212 772.642 Q37.8093 772.642 32.6531 768.599 Q27.4968 764.525 27.4968 758.064 Q27.4968 754.117 29.0564 751.317 Q30.5842 748.484 33.7671 746.638 M46.212 766.594 Q52.6732 766.594 56.3653 763.952 Q60.0256 761.279 60.0256 756.632 Q60.0256 751.985 56.3653 749.311 Q52.6732 746.638 46.212 746.638 Q39.7508 746.638 36.0905 749.311 Q32.3984 751.985 32.3984 756.632 Q32.3984 761.279 36.0905 763.952 Q39.7508 766.594 46.212 766.594 Z" fill="#000000" fill-rule="nonzero" fill-opacity="1" /><path clip-path="url(#clip100)" d="M18.0438 679.257 L24.314 679.257 Q22.5634 682.917 21.704 686.164 Q20.8447 689.41 20.8447 692.434 Q20.8447 697.685 22.8817 700.55 Q24.9187 703.383 28.6745 703.383 Q31.8255 703.383 33.4488 701.505 Q35.0402 699.595 36.0269 694.312 L36.8226 690.429 Q38.1912 683.235 41.6605 679.83 Q45.098 676.392 50.8908 676.392 Q57.7976 676.392 61.3624 681.039 Q64.9272 685.654 64.9272 694.598 Q64.9272 697.972 64.1633 701.791 Q63.3994 705.579 61.9035 709.653 L55.2831 709.653 Q57.4793 705.738 58.5933 701.982 Q59.7073 698.227 59.7073 694.598 Q59.7073 689.092 57.543 686.1 Q55.3786 683.108 51.3682 683.108 Q47.8671 683.108 45.8937 685.272 Q43.9204 687.405 42.9337 692.306 L42.1698 696.221 Q40.7375 703.415 37.682 706.629 Q34.6264 709.844 29.1837 709.844 Q22.8817 709.844 19.2532 705.42 Q15.6248 700.964 15.6248 693.166 Q15.6248 689.824 16.2295 686.355 Q16.8343 682.885 18.0438 679.257 Z" fill="#000000" fill-rule="nonzero" fill-opacity="1" /><path clip-path="url(#clip100)" d="M18.2347 660.828 L28.3562 660.828 L28.3562 648.765 L32.9077 648.765 L32.9077 660.828 L52.2594 660.828 Q56.6199 660.828 57.8613 659.65 Q59.1026 658.441 59.1026 654.781 L59.1026 648.765 L64.0042 648.765 L64.0042 654.781 Q64.0042 661.56 61.4897 664.138 Q58.9434 666.716 52.2594 666.716 L32.9077 666.716 L32.9077 671.013 L28.3562 671.013 L28.3562 666.716 L18.2347 666.716 L18.2347 660.828 Z" fill="#000000" fill-rule="nonzero" fill-opacity="1" /><path clip-path="url(#clip100)" d="M33.7671 617.605 L14.479 617.605 L14.479 611.748 L64.0042 611.748 L64.0042 617.605 L58.657 617.605 Q61.8398 619.451 63.3994 622.284 Q64.9272 625.085 64.9272 629.031 Q64.9272 635.493 59.771 639.567 Q54.6147 643.609 46.212 643.609 Q37.8093 643.609 32.6531 639.567 Q27.4968 635.493 27.4968 629.031 Q27.4968 625.085 29.0564 622.284 Q30.5842 619.451 33.7671 617.605 M46.212 637.561 Q52.6732 637.561 56.3653 634.92 Q60.0256 632.246 60.0256 627.599 Q60.0256 622.952 56.3653 620.278 Q52.6732 617.605 46.212 617.605 Q39.7508 617.605 36.0905 620.278 Q32.3984 622.952 32.3984 627.599 Q32.3984 632.246 36.0905 634.92 Q39.7508 637.561 46.212 637.561 Z" fill="#000000" fill-rule="nonzero" fill-opacity="1" /><path clip-path="url(#clip100)" d="M969.247 14.0809 L969.247 22.0612 Q964.588 19.8332 960.456 18.7395 Q956.324 17.6457 952.476 17.6457 Q945.792 17.6457 942.146 20.2383 Q938.541 22.8309 938.541 27.611 Q938.541 31.6214 940.931 33.6873 Q943.362 35.7128 950.086 36.9686 L955.028 37.9813 Q964.183 39.7232 968.518 44.1387 Q972.893 48.5136 972.893 55.8863 Q972.893 64.6767 966.978 69.2137 Q961.104 73.7508 949.721 73.7508 Q945.427 73.7508 940.566 72.7785 Q935.746 71.8063 930.561 69.9024 L930.561 61.4765 Q935.543 64.2716 940.323 65.6895 Q945.103 67.1073 949.721 67.1073 Q956.73 67.1073 960.537 64.3527 Q964.345 61.598 964.345 56.4939 Q964.345 52.0379 961.591 49.5264 Q958.876 47.0148 952.638 45.759 L947.655 44.7868 Q938.5 42.9639 934.409 39.075 Q930.318 35.1862 930.318 28.2591 Q930.318 20.2383 935.948 15.6203 Q941.62 11.0023 951.544 11.0023 Q955.798 11.0023 960.213 11.7719 Q964.629 12.5416 969.247 14.0809 Z" fill="#000000" fill-rule="nonzero" fill-opacity="1" /><path clip-path="url(#clip100)" d="M992.54 65.7705 L992.54 89.8329 L985.045 89.8329 L985.045 27.2059 L992.54 27.2059 L992.54 34.0924 Q994.889 30.0415 998.454 28.0971 Q1002.06 26.1121 1007.04 26.1121 Q1015.31 26.1121 1020.45 32.6746 Q1025.64 39.2371 1025.64 49.9314 Q1025.64 60.6258 1020.45 67.1883 Q1015.31 73.7508 1007.04 73.7508 Q1002.06 73.7508 998.454 71.8063 Q994.889 69.8214 992.54 65.7705 M1017.9 49.9314 Q1017.9 41.7081 1014.5 37.0496 Q1011.13 32.3505 1005.22 32.3505 Q999.305 32.3505 995.902 37.0496 Q992.54 41.7081 992.54 49.9314 Q992.54 58.1548 995.902 62.8538 Q999.305 67.5124 1005.22 67.5124 Q1011.13 67.5124 1014.5 62.8538 Q1017.9 58.1548 1017.9 49.9314 Z" fill="#000000" fill-rule="nonzero" fill-opacity="1" /><path clip-path="url(#clip100)" d="M1076.8 48.0275 L1076.8 51.6733 L1042.53 51.6733 Q1043.01 59.3701 1047.15 63.421 Q1051.32 67.4314 1058.73 67.4314 Q1063.03 67.4314 1067.04 66.3781 Q1071.09 65.3249 1075.06 63.2184 L1075.06 70.267 Q1071.05 71.9684 1066.83 72.8596 Q1062.62 73.7508 1058.29 73.7508 Q1047.43 73.7508 1041.07 67.4314 Q1034.75 61.1119 1034.75 50.3365 Q1034.75 39.1965 1040.75 32.6746 Q1046.78 26.1121 1056.99 26.1121 Q1066.14 26.1121 1071.45 32.0264 Q1076.8 37.9003 1076.8 48.0275 M1069.34 45.84 Q1069.26 39.7232 1065.9 36.0774 Q1062.58 32.4315 1057.07 32.4315 Q1050.83 32.4315 1047.06 35.9558 Q1043.34 39.4801 1042.77 45.8805 L1069.34 45.84 Z" fill="#000000" fill-rule="nonzero" fill-opacity="1" /><path clip-path="url(#clip100)" d="M1127.84 48.0275 L1127.84 51.6733 L1093.57 51.6733 Q1094.06 59.3701 1098.19 63.421 Q1102.36 67.4314 1109.77 67.4314 Q1114.07 67.4314 1118.08 66.3781 Q1122.13 65.3249 1126.1 63.2184 L1126.1 70.267 Q1122.09 71.9684 1117.87 72.8596 Q1113.66 73.7508 1109.33 73.7508 Q1098.47 73.7508 1092.11 67.4314 Q1085.79 61.1119 1085.79 50.3365 Q1085.79 39.1965 1091.79 32.6746 Q1097.82 26.1121 1108.03 26.1121 Q1117.19 26.1121 1122.49 32.0264 Q1127.84 37.9003 1127.84 48.0275 M1120.39 45.84 Q1120.31 39.7232 1116.94 36.0774 Q1113.62 32.4315 1108.11 32.4315 Q1101.87 32.4315 1098.11 35.9558 Q1094.38 39.4801 1093.81 45.8805 L1120.39 45.84 Z" fill="#000000" fill-rule="nonzero" fill-opacity="1" /><path clip-path="url(#clip100)" d="M1169.93 34.0924 L1169.93 9.54393 L1177.38 9.54393 L1177.38 72.576 L1169.93 72.576 L1169.93 65.7705 Q1167.58 69.8214 1163.97 71.8063 Q1160.41 73.7508 1155.39 73.7508 Q1147.16 73.7508 1141.98 67.1883 Q1136.83 60.6258 1136.83 49.9314 Q1136.83 39.2371 1141.98 32.6746 Q1147.16 26.1121 1155.39 26.1121 Q1160.41 26.1121 1163.97 28.0971 Q1167.58 30.0415 1169.93 34.0924 M1144.53 49.9314 Q1144.53 58.1548 1147.89 62.8538 Q1151.29 67.5124 1157.21 67.5124 Q1163.12 67.5124 1166.53 62.8538 Q1169.93 58.1548 1169.93 49.9314 Q1169.93 41.7081 1166.53 37.0496 Q1163.12 32.3505 1157.21 32.3505 Q1151.29 32.3505 1147.89 37.0496 Q1144.53 41.7081 1144.53 49.9314 Z" fill="#000000" fill-rule="nonzero" fill-opacity="1" /><path clip-path="url(#clip100)" d="M1227.61 18.8205 L1227.61 65.8515 L1237.5 65.8515 Q1250.01 65.8515 1255.81 60.1802 Q1261.64 54.509 1261.64 42.2752 Q1261.64 30.1225 1255.81 24.4918 Q1250.01 18.8205 1237.5 18.8205 L1227.61 18.8205 M1219.43 12.096 L1236.24 12.096 Q1253.82 12.096 1262.05 19.4281 Q1270.27 26.7198 1270.27 42.2752 Q1270.27 57.9117 1262.01 65.2439 Q1253.74 72.576 1236.24 72.576 L1219.43 72.576 L1219.43 12.096 Z" fill="#000000" fill-rule="nonzero" fill-opacity="1" /><path clip-path="url(#clip100)" d="M1282.99 27.2059 L1290.44 27.2059 L1290.44 72.576 L1282.99 72.576 L1282.99 27.2059 M1282.99 9.54393 L1290.44 9.54393 L1290.44 18.9825 L1282.99 18.9825 L1282.99 9.54393 Z" fill="#000000" fill-rule="nonzero" fill-opacity="1" /><path clip-path="url(#clip100)" d="M1334.96 28.5427 L1334.96 35.5912 Q1331.8 33.9709 1328.4 33.1607 Q1325 32.3505 1321.35 32.3505 Q1315.8 32.3505 1313.01 34.0519 Q1310.25 35.7533 1310.25 39.156 Q1310.25 41.7486 1312.24 43.2475 Q1314.22 44.7058 1320.22 46.0426 L1322.77 46.6097 Q1330.71 48.3111 1334.03 51.4303 Q1337.39 54.509 1337.39 60.0587 Q1337.39 66.3781 1332.37 70.0644 Q1327.39 73.7508 1318.64 73.7508 Q1314.99 73.7508 1311.02 73.0216 Q1307.09 72.3329 1302.72 70.9151 L1302.72 63.2184 Q1306.85 65.3654 1310.86 66.4591 Q1314.87 67.5124 1318.8 67.5124 Q1324.07 67.5124 1326.9 65.73 Q1329.74 63.9071 1329.74 60.6258 Q1329.74 57.5877 1327.67 55.9673 Q1325.65 54.3469 1318.72 52.8481 L1316.13 52.2405 Q1309.2 50.7821 1306.12 47.7845 Q1303.04 44.7463 1303.04 39.4801 Q1303.04 33.0797 1307.58 29.5959 Q1312.12 26.1121 1320.46 26.1121 Q1324.59 26.1121 1328.24 26.7198 Q1331.88 27.3274 1334.96 28.5427 Z" fill="#000000" fill-rule="nonzero" fill-opacity="1" /><path clip-path="url(#clip100)" d="M1356.47 65.7705 L1356.47 89.8329 L1348.98 89.8329 L1348.98 27.2059 L1356.47 27.2059 L1356.47 34.0924 Q1358.82 30.0415 1362.39 28.0971 Q1365.99 26.1121 1370.97 26.1121 Q1379.24 26.1121 1384.38 32.6746 Q1389.57 39.2371 1389.57 49.9314 Q1389.57 60.6258 1384.38 67.1883 Q1379.24 73.7508 1370.97 73.7508 Q1365.99 73.7508 1362.39 71.8063 Q1358.82 69.8214 1356.47 65.7705 M1381.83 49.9314 Q1381.83 41.7081 1378.43 37.0496 Q1375.07 32.3505 1369.15 32.3505 Q1363.24 32.3505 1359.83 37.0496 Q1356.47 41.7081 1356.47 49.9314 Q1356.47 58.1548 1359.83 62.8538 Q1363.24 67.5124 1369.15 67.5124 Q1375.07 67.5124 1378.43 62.8538 Q1381.83 58.1548 1381.83 49.9314 Z" fill="#000000" fill-rule="nonzero" fill-opacity="1" /><path clip-path="url(#clip100)" d="M1440.73 48.0275 L1440.73 51.6733 L1406.46 51.6733 Q1406.95 59.3701 1411.08 63.421 Q1415.25 67.4314 1422.66 67.4314 Q1426.96 67.4314 1430.97 66.3781 Q1435.02 65.3249 1438.99 63.2184 L1438.99 70.267 Q1434.98 71.9684 1430.77 72.8596 Q1426.55 73.7508 1422.22 73.7508 Q1411.36 73.7508 1405 67.4314 Q1398.68 61.1119 1398.68 50.3365 Q1398.68 39.1965 1404.68 32.6746 Q1410.71 26.1121 1420.92 26.1121 Q1430.08 26.1121 1435.38 32.0264 Q1440.73 37.9003 1440.73 48.0275 M1433.28 45.84 Q1433.2 39.7232 1429.83 36.0774 Q1426.51 32.4315 1421 32.4315 Q1414.77 32.4315 1411 35.9558 Q1407.27 39.4801 1406.7 45.8805 L1433.28 45.84 Z" fill="#000000" fill-rule="nonzero" fill-opacity="1" /><path clip-path="url(#clip100)" d="M1479.26 34.1734 Q1478 33.4443 1476.5 33.1202 Q1475.04 32.7556 1473.26 32.7556 Q1466.94 32.7556 1463.54 36.8875 Q1460.18 40.9789 1460.18 48.6757 L1460.18 72.576 L1452.68 72.576 L1452.68 27.2059 L1460.18 27.2059 L1460.18 34.2544 Q1462.53 30.1225 1466.29 28.1376 Q1470.06 26.1121 1475.45 26.1121 Q1476.22 26.1121 1477.15 26.2337 Q1478.08 26.3147 1479.22 26.5172 L1479.26 34.1734 Z" fill="#000000" fill-rule="nonzero" fill-opacity="1" /><path clip-path="url(#clip100)" d="M1516 28.5427 L1516 35.5912 Q1512.84 33.9709 1509.43 33.1607 Q1506.03 32.3505 1502.39 32.3505 Q1496.84 32.3505 1494.04 34.0519 Q1491.29 35.7533 1491.29 39.156 Q1491.29 41.7486 1493.27 43.2475 Q1495.26 44.7058 1501.25 46.0426 L1503.8 46.6097 Q1511.74 48.3111 1515.07 51.4303 Q1518.43 54.509 1518.43 60.0587 Q1518.43 66.3781 1513.4 70.0644 Q1508.42 73.7508 1499.67 73.7508 Q1496.03 73.7508 1492.06 73.0216 Q1488.13 72.3329 1483.75 70.9151 L1483.75 63.2184 Q1487.88 65.3654 1491.89 66.4591 Q1495.9 67.5124 1499.83 67.5124 Q1505.1 67.5124 1507.94 65.73 Q1510.77 63.9071 1510.77 60.6258 Q1510.77 57.5877 1508.71 55.9673 Q1506.68 54.3469 1499.75 52.8481 L1497.16 52.2405 Q1490.23 50.7821 1487.15 47.7845 Q1484.08 44.7463 1484.08 39.4801 Q1484.08 33.0797 1488.61 29.5959 Q1493.15 26.1121 1501.5 26.1121 Q1505.63 26.1121 1509.27 26.7198 Q1512.92 27.3274 1516 28.5427 Z" fill="#000000" fill-rule="nonzero" fill-opacity="1" /><path clip-path="url(#clip100)" d="M1530.3 27.2059 L1537.75 27.2059 L1537.75 72.576 L1530.3 72.576 L1530.3 27.2059 M1530.3 9.54393 L1537.75 9.54393 L1537.75 18.9825 L1530.3 18.9825 L1530.3 9.54393 Z" fill="#000000" fill-rule="nonzero" fill-opacity="1" /><path clip-path="url(#clip100)" d="M1570.93 32.4315 Q1564.93 32.4315 1561.45 37.1306 Q1557.96 41.7891 1557.96 49.9314 Q1557.96 58.0738 1561.41 62.7728 Q1564.89 67.4314 1570.93 67.4314 Q1576.88 67.4314 1580.37 62.7323 Q1583.85 58.0333 1583.85 49.9314 Q1583.85 41.8701 1580.37 37.1711 Q1576.88 32.4315 1570.93 32.4315 M1570.93 26.1121 Q1580.65 26.1121 1586.2 32.4315 Q1591.75 38.7509 1591.75 49.9314 Q1591.75 61.0714 1586.2 67.4314 Q1580.65 73.7508 1570.93 73.7508 Q1561.16 73.7508 1555.62 67.4314 Q1550.11 61.0714 1550.11 49.9314 Q1550.11 38.7509 1555.62 32.4315 Q1561.16 26.1121 1570.93 26.1121 Z" fill="#000000" fill-rule="nonzero" fill-opacity="1" /><path clip-path="url(#clip100)" d="M1641.82 45.1919 L1641.82 72.576 L1634.36 72.576 L1634.36 45.4349 Q1634.36 38.994 1631.85 35.7938 Q1629.34 32.5936 1624.32 32.5936 Q1618.28 32.5936 1614.8 36.4419 Q1611.32 40.2903 1611.32 46.9338 L1611.32 72.576 L1603.82 72.576 L1603.82 27.2059 L1611.32 27.2059 L1611.32 34.2544 Q1613.99 30.163 1617.59 28.1376 Q1621.24 26.1121 1625.98 26.1121 Q1633.8 26.1121 1637.81 30.9732 Q1641.82 35.7938 1641.82 45.1919 Z" fill="#000000" fill-rule="nonzero" fill-opacity="1" /><polyline clip-path="url(#clip102)" style="stroke:#009af9; stroke-linecap:round; stroke-linejoin:round; stroke-width:8; stroke-opacity:1; fill:none" points="279.759,465.405 283.792,453.68 287.825,437.322 291.859,420.998 295.892,388.436 299.925,341.879 303.959,290.262 307.992,241.607 312.025,202.181 316.058,181.695 320.092,178.191 324.125,187.709 328.158,207.429 332.192,229.616 336.225,251.606 340.258,273.912 344.292,291.458 348.325,308.254 352.358,323.679 356.391,337.222 360.425,351.919 364.458,365.39 368.491,380.61 372.525,394.657 376.558,407.035 380.591,419.68 384.625,431.096 388.658,442.991 392.691,455.48 396.725,467.595 400.758,485.835 404.791,504.615 408.824,521.319 412.858,535.107 416.891,546.285 420.924,558.517 424.958,569.489 428.991,578.598 433.024,584.845 437.058,590.789 441.091,598.279 445.124,609.1 449.157,625.027 453.191,642.189 457.224,658.856 461.257,672.568 465.291,682.074 469.324,690.465 473.357,699.809 477.391,706.052 481.424,710.007 485.457,710.271 489.491,709.221 493.524,711.952 497.557,711.281 501.59,709.836 505.624,711.324 509.657,713.99 513.69,716.02 517.724,716.957 521.757,717.409 525.79,718.971 529.824,719.144 533.857,715.921 537.89,709.936 541.923,703.79 545.957,693.734 549.99,684.38 554.023,674.363 558.057,670.23 562.09,668.823 566.123,667.891 570.157,671.573 574.19,679.231 578.223,690.052 582.257,698.738 586.29,708.207 590.323,714.008 594.356,718.896 598.39,722.823 602.423,725.489 606.456,723.558 610.49,718.908 614.523,711.656 618.556,699.229 622.59,687.633 626.623,674.495 630.656,662.139 634.689,650.77 638.723,637.883 642.756,625.038 646.789,613.078 650.823,602.154 654.856,593.615 658.889,589.057 662.923,586.675 666.956,583.137 670.989,578.318 675.022,578.769 679.056,580.923 683.089,583.599 687.122,584.002 691.156,583.017 695.189,582.11 699.222,575.641 703.256,566.224 707.289,556.982 711.322,549.892 715.356,544.502 719.389,541.503 723.422,539.012 727.455,535.234 731.489,532.124 735.522,529.398 739.555,524.394 743.589,520.148 747.622,516.415 751.655,514.11 755.689,513.301 759.722,512.927 763.755,516.139 767.788,519.946 771.822,524.142 775.855,529.75 779.888,534.779 783.922,538.975 787.955,542.329 791.988,544.391 796.022,546.592 800.055,545.9 804.088,544.467 808.122,543.898 812.155,544.092 816.188,541.958 820.221,540.431 824.255,538.668 828.288,535.971 832.321,532.835 836.355,529.647 840.388,522.701 844.421,517.46 848.455,512.074 852.488,507.157 856.521,500.754 860.554,500.92 864.588,502.045 868.621,503.346 872.654,506.129 876.688,512.257 880.721,517.646 884.754,522.899 888.788,527.509 892.821,531.371 896.854,535.476 900.888,544.207 904.921,552.656 908.954,559.733 912.987,565.977 917.021,570.376 921.054,573.345 925.087,576.089 929.121,579.442 933.154,581.546 937.187,582.563 941.221,584.37 945.254,586.17 949.287,587.03 953.32,587.777 957.354,588.734 961.387,590.906 965.42,592.949 969.454,593.691 973.487,593.86 977.52,592.987 981.554,592.22 985.587,590.712 989.62,589.689 993.654,588.807 997.687,587.833 1001.72,588.079 1005.75,586.837 1009.79,585.902 1013.82,586.093 1017.85,585.538 1021.89,586.898 1025.92,587.537 1029.95,588.951 1033.99,590.148 1038.02,592.442 1042.05,594.672 1046.09,596.329 1050.12,598.84 1054.15,602.284 1058.19,604.639 1062.22,606.4 1066.25,606.664 1070.29,605.179 1074.32,603.406 1078.35,600.802 1082.39,597.936 1086.42,596.371 1090.45,595.384 1094.49,593.879 1098.52,592.999 1102.55,590.723 1106.59,587.103 1110.62,585.948 1114.65,584.791 1118.69,583.344 1122.72,582.951 1126.75,582.866 1130.79,582.976 1134.82,582.109 1138.85,580.998 1142.89,580.907 1146.92,580.463 1150.95,579.472 1154.99,578.306 1159.02,577.073 1163.05,575.905 1167.09,574.462 1171.12,574.264 1175.15,573.261 1179.19,573.339 1183.22,573.62 1187.25,574.747 1191.29,579.42 1195.32,584.589 1199.35,585.89 1203.39,588.958 1207.42,591.311 1211.45,593.43 1215.49,595.101 1219.52,595.349 1223.55,595.174 1227.59,593.557 1231.62,590.576 1235.65,587.914 1239.69,588.759 1243.72,592.192 1247.75,599.8 1251.78,606.141 1255.82,612.527 1259.85,618.976 1263.88,625.227 1267.92,630.42 1271.95,634.394 1275.98,641.923 1280.02,652.13 1284.05,660.885 1288.08,670.307 1292.12,681.173 1296.15,692.983 1300.18,705.749 1304.22,717.982 1308.25,728.44 1312.28,739.384 1316.32,749.432 1320.35,758.016 1324.38,765.992 1328.42,774.118 1332.45,778.704 1336.48,781.289 1340.52,785.054 1344.55,792.044 1348.58,799.825 1352.62,807.164 1356.65,813.353 1360.68,818.835 1364.72,826.148 1368.75,832.02 1372.78,840.152 1376.82,847.941 1380.85,854.542 1384.88,859.939 1388.92,864.703 1392.95,869.046 1396.98,873.025 1401.02,877.039 1405.05,882.079 1409.08,886.927 1413.12,890.315 1417.15,894.799 1421.18,899.741 1425.22,905.964 1429.25,912.473 1433.28,918.884 1437.32,924.794 1441.35,930.626 1445.38,937.257 1449.42,941.185 1453.45,946.639 1457.48,954.07 1461.52,959.763 1465.55,964.992 1469.58,971.474 1473.62,979.845 1477.65,987.577 1481.68,996.23 1485.72,1004.82 1489.75,1012.6 1493.78,1020.54 1497.82,1027.76 1501.85,1034.39 1505.88,1039.57 1509.92,1040.85 1513.95,1042.16 1517.98,1046.68 1522.02,1050.53 1526.05,1052.82 1530.08,1057.38 1534.12,1066.17 1538.15,1073.13 1542.18,1080.12 1546.22,1086.75 1550.25,1093.28 1554.28,1100.54 1558.32,1108.94 1562.35,1116.31 1566.38,1124.87 1570.42,1132.25 1574.45,1139.91 1578.48,1148.3 1582.52,1155.84 1586.55,1162.16 1590.58,1167.96 1594.62,1176.81 1598.65,1182.53 1602.68,1186.33 1606.72,1188.85 1610.75,1194.63 1614.78,1199.67 1618.82,1203.81 1622.85,1206.38 1626.88,1208.28 1630.92,1210.02 1634.95,1210.31 1638.98,1210.12 1643.02,1208.55 1647.05,1206.78 1651.08,1207.11 1655.12,1211.11 1659.15,1212.56 1663.18,1213.9 1667.22,1213.51 1671.25,1213.46 1675.28,1214.54 1679.32,1215.48 1683.35,1217.51 1687.38,1218.62 1691.42,1219.14 1695.45,1218.66 1699.48,1219.97 1703.51,1223.49 1707.55,1226.45 1711.58,1227.56 1715.61,1230.7 1719.65,1233.26 1723.68,1237.18 1727.71,1241 1731.75,1245.56 1735.78,1248.75 1739.81,1251.79 1743.85,1255.07 1747.88,1257.39 1751.91,1257.14 1755.95,1256.3 1759.98,1254.32 1764.01,1252.61 1768.05,1254.03 1772.08,1256.03 1776.11,1256.08 1780.15,1254.11 1784.18,1251.59 1788.21,1251.55 1792.25,1253.12 1796.28,1255.99 1800.31,1258.7 1804.35,1259.78 1808.38,1261.02 1812.41,1260.4 1816.45,1263.68 1820.48,1265.83 1824.51,1267.12 1828.55,1267.96 1832.58,1266.83 1836.61,1268.25 1840.65,1267.87 1844.68,1266.01 1848.71,1267.7 1852.75,1272.46 1856.78,1280.54 1860.81,1289.18 1864.85,1296.82 1868.88,1306.68 1872.91,1311.23 1876.95,1315.53 1880.98,1318.94 1885.01,1319.69 1889.05,1318.18 1893.08,1315.44 1897.11,1314.05 1901.15,1315.36 1905.18,1315.2 1909.21,1315.62 1913.25,1317.18 1917.28,1320.09 1921.31,1321.19 1925.35,1321.53 1929.38,1322.76 1933.41,1322.93 1937.45,1322.14 1941.48,1321.37 1945.51,1317.27 1949.55,1314.3 1953.58,1312.96 1957.61,1312.65 1961.65,1313.63 1965.68,1318.06 1969.71,1317.45 1973.75,1321.78 1977.78,1323.48 1981.81,1323.43 1985.85,1329.82 1989.88,1334.95 1993.91,1339.83 1997.95,1344.16 2001.98,1347.18 2006.01,1348.39 2010.05,1350.4 2014.08,1349.77 2018.11,1350.08 2022.15,1349.36 2026.18,1349.45 2030.21,1348.68 2034.25,1349.48 2038.28,1348.91 2042.31,1348.5 2046.35,1348.75 2050.38,1349.11 2054.41,1349.76 2058.45,1350.22 2062.48,1351.84 2066.51,1352.36 2070.55,1354.15 2074.58,1354.64 2078.61,1355.03 2082.65,1353.1 2086.68,1353.06 2090.71,1355.48 2094.75,1357.59 2098.78,1359.65 2102.81,1359.94 2106.85,1359.4 2110.88,1358.74 2114.91,1359.12 2118.95,1360.42 2122.98,1361.6 2127.01,1363.6 2131.05,1363.06 2135.08,1365.12 2139.11,1363.89 2143.15,1362.81 2147.18,1361.97 2151.21,1359.15 2155.25,1358.93 2159.28,1358.62 2163.31,1359.96 2167.34,1359.65 2171.38,1355.78 2175.41,1357.05 2179.44,1358.53 2183.48,1360.48 2187.51,1365.9 2191.54,1365.23 2195.58,1368.4 2199.61,1371.15 2203.64,1374.5 2207.68,1374.15 2211.71,1372.8 2215.74,1374.71 2219.78,1377.17 2223.81,1378.26 2227.84,1380.35 2231.88,1379.78 2235.91,1383.4 2239.94,1381.69 2243.98,1382.25 2248.01,1384.44 2252.04,1386.4 2256.08,1384.21 2260.11,1381.04 2264.14,1379.35 2268.18,1377.27 2272.21,1379.23 2276.24,1383.31 2280.28,1384.13 2284.31,1385.09 2288.34,1384.18 2292.38,1382.92 "/>
<polyline clip-path="url(#clip102)" style="stroke:#e26f46; stroke-linecap:round; stroke-linejoin:round; stroke-width:8; stroke-opacity:1; fill:none" points="279.759,456.353 283.792,439.95 287.825,429.8 291.859,425.538 295.892,405.842 299.925,380.67 303.959,351.424 307.992,323.304 312.025,296.838 316.058,279.414 320.092,271.339 324.125,270.305 328.158,277.485 332.192,287.356 336.225,302.386 340.258,325.759 344.292,343.9 348.325,361.302 352.358,377.739 356.391,391.104 360.425,401.15 364.458,411.908 368.491,422.755 372.525,433.901 376.558,448.491 380.591,462.381 384.625,474.472 388.658,486.257 392.691,499.826 396.725,515.356 400.758,528.414 404.791,537.868 408.824,542.937 412.858,547.721 416.891,549.442 420.924,548.927 424.958,549.289 428.991,550.475 433.024,552.908 437.058,555.742 441.091,560.594 445.124,568.529 449.157,574.962 453.191,580.026 457.224,584.923 461.257,593.29 465.291,603.319 469.324,614.61 473.357,624.84 477.391,637.69 481.424,653.431 485.457,670.051 489.491,687.161 493.524,701.945 497.557,711.366 501.59,719.428 505.624,728.003 509.657,738.432 513.69,747.069 517.724,754.71 521.757,757.172 525.79,762.566 529.824,765.494 533.857,768.158 537.89,769.924 541.923,772.649 545.957,775.397 549.99,775.517 554.023,775.195 558.057,773.692 562.09,771.425 566.123,766.604 570.157,758.482 574.19,748.32 578.223,742.463 582.257,736.935 586.29,732.933 590.323,729.122 594.356,723.171 598.39,718.832 602.423,714.997 606.456,717.303 610.49,720.424 614.523,722.137 618.556,721.925 622.59,721.028 626.623,719.986 630.656,715.759 634.689,711.626 638.723,707.037 642.756,702.456 646.789,697.497 650.823,695.957 654.856,692.885 658.889,689.308 662.923,684.357 666.956,679.931 670.989,674.85 675.022,668.135 679.056,662.93 683.089,656.333 687.122,652.652 691.156,646.875 695.189,645.601 699.222,647.377 703.256,645.443 707.289,643.016 711.322,638.902 715.356,634.237 719.389,630.555 723.422,627.787 727.455,625.936 731.489,628.751 735.522,630.73 739.555,631.442 743.589,632.594 747.622,632.313 751.655,629.944 755.689,623.43 759.722,616.237 763.755,608.248 767.788,600.778 771.822,594.195 775.855,585.995 779.888,578.842 783.922,570.768 787.955,564.931 791.988,560.134 796.022,555.058 800.055,551.693 804.088,547.027 808.122,542.349 812.155,536.334 816.188,530.166 820.221,524.515 824.255,521.617 828.288,518.785 832.321,514.605 836.355,509.532 840.388,505.125 844.421,501.961 848.455,496.737 852.488,489.984 856.521,482.471 860.554,476.426 864.588,469.927 868.621,465.163 872.654,459.906 876.688,455.072 880.721,449.996 884.754,442.19 888.788,433.608 892.821,425.947 896.854,421.489 900.888,415.523 904.921,409.567 908.954,401.727 912.987,395.385 917.021,388.149 921.054,380.3 925.087,371.562 929.121,362.571 933.154,353.05 937.187,343.423 941.221,337.063 945.254,330.501 949.287,327.011 953.32,320.686 957.354,313.266 961.387,306.053 965.42,300.461 969.454,295.672 973.487,289.046 977.52,282.226 981.554,272.499 985.587,263.41 989.62,252.491 993.654,242.199 997.687,231.3 1001.72,220.983 1005.75,209.921 1009.79,199.024 1013.82,188.727 1017.85,179.973 1021.89,172.659 1025.92,165.7 1029.95,160.256 1033.99,160.847 1038.02,162.213 1042.05,165.12 1046.09,164.889 1050.12,163.584 1054.15,164.055 1058.19,165.313 1062.22,165.123 1066.25,165.106 1070.29,165.536 1074.32,169.515 1078.35,176.467 1082.39,182.52 1086.42,187.437 1090.45,192.54 1094.49,197.104 1098.52,201.17 1102.55,206.586 1106.59,211.57 1110.62,214.847 1114.65,218.485 1118.69,221.201 1122.72,226.112 1126.75,230.499 1130.79,237.296 1134.82,243.263 1138.85,249.371 1142.89,255.031 1146.92,262.047 1150.95,268.903 1154.99,274.251 1159.02,278.311 1163.05,281.704 1167.09,284.823 1171.12,286.731 1175.15,288.296 1179.19,286.613 1183.22,285.954 1187.25,285.132 1191.29,284.021 1195.32,284.902 1199.35,286.868 1203.39,287.989 1207.42,290.834 1211.45,291.965 1215.49,292.713 1219.52,293.924 1223.55,296.159 1227.59,299.619 1231.62,303.838 1235.65,306.969 1239.69,309.356 1243.72,311.882 1247.75,313.768 1251.78,316.107 1255.82,318.732 1259.85,322.477 1263.88,327.109 1267.92,331.931 1271.95,335.436 1275.98,337.87 1280.02,342.324 1284.05,347.155 1288.08,351.343 1292.12,356.127 1296.15,361.523 1300.18,367.965 1304.22,372.807 1308.25,379.334 1312.28,386.625 1316.32,393.677 1320.35,400.268 1324.38,407.962 1328.42,418.363 1332.45,430.037 1336.48,441.748 1340.52,454.199 1344.55,465.584 1348.58,478.223 1352.62,489.969 1356.65,501.102 1360.68,514.26 1364.72,525.83 1368.75,535.705 1372.78,545.041 1376.82,554.731 1380.85,567.475 1384.88,580.376 1388.92,591.363 1392.95,601.167 1396.98,611.677 1401.02,622.683 1405.05,634.796 1409.08,647.589 1413.12,662.001 1417.15,676.032 1421.18,689.903 1425.22,705.749 1429.25,723.71 1433.28,740.104 1437.32,755.427 1441.35,770.696 1445.38,787.042 1449.42,803.086 1453.45,818.099 1457.48,831.094 1461.52,842.299 1465.55,855.797 1469.58,869.13 1473.62,882.311 1477.65,893.952 1481.68,904.566 1485.72,911.636 1489.75,917.387 1493.78,925.309 1497.82,934.519 1501.85,944.01 1505.88,954.492 1509.92,964.244 1513.95,974.564 1517.98,987.479 1522.02,1000.52 1526.05,1011.72 1530.08,1024.36 1534.12,1035.5 1538.15,1044.62 1542.18,1053.68 1546.22,1061.77 1550.25,1067.92 1554.28,1072.93 1558.32,1078.07 1562.35,1085.9 1566.38,1094.79 1570.42,1102.11 1574.45,1108.61 1578.48,1115 1582.52,1124.03 1586.55,1131.35 1590.58,1138.18 1594.62,1143.87 1598.65,1149.98 1602.68,1158.32 1606.72,1167.74 1610.75,1175.86 1614.78,1185.82 1618.82,1192.69 1622.85,1201.36 1626.88,1210.24 1630.92,1220.37 1634.95,1228.95 1638.98,1236.68 1643.02,1241.9 1647.05,1244.81 1651.08,1248.64 1655.12,1250.4 1659.15,1251.12 1663.18,1254.83 1667.22,1255.55 1671.25,1256.68 1675.28,1259.61 1679.32,1262.98 1683.35,1263.24 1687.38,1263.25 1691.42,1264.71 1695.45,1268.21 1699.48,1270.32 1703.51,1271.57 1707.55,1273.49 1711.58,1271.5 1715.61,1269.41 1719.65,1269.71 1723.68,1270.37 1727.71,1270.65 1731.75,1269.95 1735.78,1268.51 1739.81,1267.43 1743.85,1266.79 1747.88,1266.78 1751.91,1269.51 1755.95,1271.11 1759.98,1273.91 1764.01,1276.55 1768.05,1279.95 1772.08,1283.06 1776.11,1284.25 1780.15,1284.55 1784.18,1285.11 1788.21,1285.56 1792.25,1285.82 1796.28,1286.47 1800.31,1288.33 1804.35,1289.77 1808.38,1289.64 1812.41,1291.2 1816.45,1290.24 1820.48,1289.69 1824.51,1289.07 1828.55,1288.41 1832.58,1288.67 1836.61,1290.33 1840.65,1291.2 1844.68,1291.13 1848.71,1290.38 1852.75,1290.39 1856.78,1292.88 1860.81,1293.54 1864.85,1295.98 1868.88,1302.92 1872.91,1307.79 1876.95,1311.59 1880.98,1314.26 1885.01,1317.12 1889.05,1318.4 1893.08,1321.66 1897.11,1324.21 1901.15,1325.86 1905.18,1326.43 1909.21,1327.72 1913.25,1328.25 1917.28,1331.76 1921.31,1332.42 1925.35,1336.94 1929.38,1339.84 1933.41,1341.52 1937.45,1342.53 1941.48,1342.89 1945.51,1342.82 1949.55,1342.16 1953.58,1341.39 1957.61,1341.53 1961.65,1341.27 1965.68,1342.61 1969.71,1346.13 1973.75,1346.19 1977.78,1350.43 1981.81,1351.22 1985.85,1354.86 1989.88,1355.88 1993.91,1357.76 1997.95,1357.47 2001.98,1355.91 2006.01,1353.31 2010.05,1351.24 2014.08,1349.67 2018.11,1347.53 2022.15,1343.84 2026.18,1344.43 2030.21,1344.74 2034.25,1342.92 2038.28,1341.15 2042.31,1339.63 2046.35,1341.13 2050.38,1342.83 2054.41,1343.05 2058.45,1340.61 2062.48,1338.88 2066.51,1337.76 2070.55,1336.23 2074.58,1335.44 2078.61,1335.28 2082.65,1334.32 2086.68,1332.96 2090.71,1330.46 2094.75,1327.75 2098.78,1325.94 2102.81,1324.45 2106.85,1324.57 2110.88,1323.99 2114.91,1324.23 2118.95,1323.07 2122.98,1325.63 2127.01,1327.3 2131.05,1326.96 2135.08,1325.44 2139.11,1326.64 2143.15,1329.04 2147.18,1330.18 2151.21,1329.41 2155.25,1328.37 2159.28,1326.9 2163.31,1327.93 2167.34,1328.88 2171.38,1332 2175.41,1332.84 2179.44,1330.94 2183.48,1331.53 2187.51,1332.41 2191.54,1332.3 2195.58,1332.71 2199.61,1335.61 2203.64,1339.15 2207.68,1340.77 2211.71,1339.78 2215.74,1339.54 2219.78,1339.97 2223.81,1340.3 2227.84,1339.97 2231.88,1339.16 2235.91,1337.8 2239.94,1338.43 2243.98,1340.11 2248.01,1340.84 2252.04,1340.77 2256.08,1342.37 2260.11,1343.55 2264.14,1344.51 2268.18,1348.21 2272.21,1351.98 2276.24,1358.4 2280.28,1364.32 2284.31,1367.93 2288.34,1369.51 2292.38,1370.54 "/>
<path clip-path="url(#clip100)" d="M1809.88 322.316 L2281.64 322.316 L2281.64 166.796 L1809.88 166.796  Z" fill="#ffffff" fill-rule="evenodd" fill-opacity="1"/>
<polyline clip-path="url(#clip100)" style="stroke:#000000; stroke-linecap:round; stroke-linejoin:round; stroke-width:4; stroke-opacity:1; fill:none" points="1809.88,322.316 2281.64,322.316 2281.64,166.796 1809.88,166.796 1809.88,322.316 "/>
<polyline clip-path="url(#clip100)" style="stroke:#009af9; stroke-linecap:round; stroke-linejoin:round; stroke-width:8; stroke-opacity:1; fill:none" points="1833.59,218.636 1975.81,218.636 "/>
<path clip-path="url(#clip100)" d="M1999.51 201.356 L2006.48 201.356 L2015.3 224.874 L2024.17 201.356 L2031.13 201.356 L2031.13 235.916 L2026.57 235.916 L2026.57 205.569 L2017.66 229.272 L2012.96 229.272 L2004.05 205.569 L2004.05 235.916 L1999.51 235.916 L1999.51 201.356 Z" fill="#000000" fill-rule="nonzero" fill-opacity="1" /><path clip-path="url(#clip100)" d="M2062.41 221.888 L2062.41 223.971 L2042.82 223.971 Q2043.1 228.369 2045.46 230.684 Q2047.85 232.976 2052.08 232.976 Q2054.54 232.976 2056.83 232.374 Q2059.14 231.772 2061.41 230.569 L2061.41 234.596 Q2059.12 235.568 2056.71 236.078 Q2054.31 236.587 2051.83 236.587 Q2045.63 236.587 2041.99 232.976 Q2038.38 229.365 2038.38 223.207 Q2038.38 216.842 2041.81 213.115 Q2045.26 209.365 2051.09 209.365 Q2056.32 209.365 2059.35 212.745 Q2062.41 216.101 2062.41 221.888 M2058.15 220.638 Q2058.1 217.143 2056.18 215.059 Q2054.28 212.976 2051.13 212.976 Q2047.57 212.976 2045.42 214.99 Q2043.29 217.004 2042.96 220.661 L2058.15 220.638 Z" fill="#000000" fill-rule="nonzero" fill-opacity="1" /><path clip-path="url(#clip100)" d="M2073.61 202.629 L2073.61 209.99 L2082.38 209.99 L2082.38 213.3 L2073.61 213.3 L2073.61 227.374 Q2073.61 230.545 2074.47 231.448 Q2075.35 232.351 2078.01 232.351 L2082.38 232.351 L2082.38 235.916 L2078.01 235.916 Q2073.08 235.916 2071.2 234.087 Q2069.33 232.235 2069.33 227.374 L2069.33 213.3 L2066.2 213.3 L2066.2 209.99 L2069.33 209.99 L2069.33 202.629 L2073.61 202.629 Z" fill="#000000" fill-rule="nonzero" fill-opacity="1" /><path clip-path="url(#clip100)" d="M2103.01 213.971 Q2102.29 213.555 2101.44 213.37 Q2100.6 213.161 2099.58 213.161 Q2095.97 213.161 2094.03 215.522 Q2092.11 217.86 2092.11 222.258 L2092.11 235.916 L2087.82 235.916 L2087.82 209.99 L2092.11 209.99 L2092.11 214.018 Q2093.45 211.657 2095.6 210.522 Q2097.75 209.365 2100.83 209.365 Q2101.27 209.365 2101.81 209.434 Q2102.34 209.481 2102.99 209.596 L2103.01 213.971 Z" fill="#000000" fill-rule="nonzero" fill-opacity="1" /><path clip-path="url(#clip100)" d="M2107.48 209.99 L2111.74 209.99 L2111.74 235.916 L2107.48 235.916 L2107.48 209.99 M2107.48 199.897 L2111.74 199.897 L2111.74 205.291 L2107.48 205.291 L2107.48 199.897 Z" fill="#000000" fill-rule="nonzero" fill-opacity="1" /><path clip-path="url(#clip100)" d="M2139.31 210.985 L2139.31 214.967 Q2137.5 213.971 2135.67 213.485 Q2133.87 212.976 2132.01 212.976 Q2127.87 212.976 2125.58 215.615 Q2123.29 218.231 2123.29 222.976 Q2123.29 227.721 2125.58 230.36 Q2127.87 232.976 2132.01 232.976 Q2133.87 232.976 2135.67 232.49 Q2137.5 231.981 2139.31 230.985 L2139.31 234.92 Q2137.52 235.754 2135.6 236.17 Q2133.7 236.587 2131.55 236.587 Q2125.69 236.587 2122.25 232.906 Q2118.8 229.226 2118.8 222.976 Q2118.8 216.633 2122.27 212.999 Q2125.76 209.365 2131.83 209.365 Q2133.8 209.365 2135.67 209.782 Q2137.55 210.175 2139.31 210.985 Z" fill="#000000" fill-rule="nonzero" fill-opacity="1" /><polyline clip-path="url(#clip100)" style="stroke:#e26f46; stroke-linecap:round; stroke-linejoin:round; stroke-width:8; stroke-opacity:1; fill:none" points="1833.59,270.476 1975.81,270.476 "/>
<path clip-path="url(#clip100)" d="M1999.51 253.196 L2028.75 253.196 L2028.75 257.131 L2016.48 257.131 L2016.48 287.756 L2011.78 287.756 L2011.78 257.131 L1999.51 257.131 L1999.51 253.196 Z" fill="#000000" fill-rule="nonzero" fill-opacity="1" /><path clip-path="url(#clip100)" d="M2035.07 264.816 Q2031.64 264.816 2029.65 267.501 Q2027.66 270.163 2027.66 274.816 Q2027.66 279.469 2029.63 282.154 Q2031.62 284.816 2035.07 284.816 Q2038.47 284.816 2040.46 282.131 Q2042.45 279.446 2042.45 274.816 Q2042.45 270.21 2040.46 267.524 Q2038.47 264.816 2035.07 264.816 M2035.07 261.205 Q2040.63 261.205 2043.8 264.816 Q2046.97 268.427 2046.97 274.816 Q2046.97 281.182 2043.8 284.816 Q2040.63 288.427 2035.07 288.427 Q2029.49 288.427 2026.32 284.816 Q2023.17 281.182 2023.17 274.816 Q2023.17 268.427 2026.32 264.816 Q2029.49 261.205 2035.07 261.205 Z" fill="#000000" fill-rule="nonzero" fill-opacity="1" /><path clip-path="url(#clip100)" d="M2058.15 283.867 L2058.15 297.617 L2053.87 297.617 L2053.87 261.83 L2058.15 261.83 L2058.15 265.765 Q2059.49 263.45 2061.53 262.339 Q2063.59 261.205 2066.44 261.205 Q2071.16 261.205 2074.1 264.955 Q2077.06 268.705 2077.06 274.816 Q2077.06 280.927 2074.1 284.677 Q2071.16 288.427 2066.44 288.427 Q2063.59 288.427 2061.53 287.316 Q2059.49 286.182 2058.15 283.867 M2072.64 274.816 Q2072.64 270.117 2070.69 267.455 Q2068.77 264.77 2065.39 264.77 Q2062.01 264.77 2060.07 267.455 Q2058.15 270.117 2058.15 274.816 Q2058.15 279.515 2060.07 282.2 Q2062.01 284.862 2065.39 284.862 Q2068.77 284.862 2070.69 282.2 Q2072.64 279.515 2072.64 274.816 Z" fill="#000000" fill-rule="nonzero" fill-opacity="1" /><path clip-path="url(#clip100)" d="M2094.17 264.816 Q2090.74 264.816 2088.75 267.501 Q2086.76 270.163 2086.76 274.816 Q2086.76 279.469 2088.73 282.154 Q2090.72 284.816 2094.17 284.816 Q2097.57 284.816 2099.56 282.131 Q2101.55 279.446 2101.55 274.816 Q2101.55 270.21 2099.56 267.524 Q2097.57 264.816 2094.17 264.816 M2094.17 261.205 Q2099.72 261.205 2102.89 264.816 Q2106.07 268.427 2106.07 274.816 Q2106.07 281.182 2102.89 284.816 Q2099.72 288.427 2094.17 288.427 Q2088.59 288.427 2085.42 284.816 Q2082.27 281.182 2082.27 274.816 Q2082.27 268.427 2085.42 264.816 Q2088.59 261.205 2094.17 261.205 Z" fill="#000000" fill-rule="nonzero" fill-opacity="1" /><path clip-path="url(#clip100)" d="M2113.13 251.737 L2117.38 251.737 L2117.38 287.756 L2113.13 287.756 L2113.13 251.737 Z" fill="#000000" fill-rule="nonzero" fill-opacity="1" /><path clip-path="url(#clip100)" d="M2136.34 264.816 Q2132.92 264.816 2130.93 267.501 Q2128.94 270.163 2128.94 274.816 Q2128.94 279.469 2130.9 282.154 Q2132.89 284.816 2136.34 284.816 Q2139.75 284.816 2141.74 282.131 Q2143.73 279.446 2143.73 274.816 Q2143.73 270.21 2141.74 267.524 Q2139.75 264.816 2136.34 264.816 M2136.34 261.205 Q2141.9 261.205 2145.07 264.816 Q2148.24 268.427 2148.24 274.816 Q2148.24 281.182 2145.07 284.816 Q2141.9 288.427 2136.34 288.427 Q2130.76 288.427 2127.59 284.816 Q2124.44 281.182 2124.44 274.816 Q2124.44 268.427 2127.59 264.816 Q2130.76 261.205 2136.34 261.205 Z" fill="#000000" fill-rule="nonzero" fill-opacity="1" /><path clip-path="url(#clip100)" d="M2172.36 274.492 Q2172.36 269.862 2170.44 267.316 Q2168.54 264.77 2165.09 264.77 Q2161.67 264.77 2159.75 267.316 Q2157.85 269.862 2157.85 274.492 Q2157.85 279.098 2159.75 281.645 Q2161.67 284.191 2165.09 284.191 Q2168.54 284.191 2170.44 281.645 Q2172.36 279.098 2172.36 274.492 M2176.62 284.538 Q2176.62 291.158 2173.68 294.376 Q2170.74 297.617 2164.68 297.617 Q2162.43 297.617 2160.44 297.27 Q2158.45 296.945 2156.57 296.251 L2156.57 292.108 Q2158.45 293.126 2160.28 293.612 Q2162.11 294.098 2164 294.098 Q2168.19 294.098 2170.28 291.899 Q2172.36 289.723 2172.36 285.302 L2172.36 283.196 Q2171.04 285.487 2168.98 286.621 Q2166.92 287.756 2164.05 287.756 Q2159.28 287.756 2156.37 284.121 Q2153.45 280.487 2153.45 274.492 Q2153.45 268.473 2156.37 264.839 Q2159.28 261.205 2164.05 261.205 Q2166.92 261.205 2168.98 262.339 Q2171.04 263.473 2172.36 265.765 L2172.36 261.83 L2176.62 261.83 L2176.62 284.538 Z" fill="#000000" fill-rule="nonzero" fill-opacity="1" /><path clip-path="url(#clip100)" d="M2185.39 261.83 L2189.65 261.83 L2189.65 287.756 L2185.39 287.756 L2185.39 261.83 M2185.39 251.737 L2189.65 251.737 L2189.65 257.131 L2185.39 257.131 L2185.39 251.737 Z" fill="#000000" fill-rule="nonzero" fill-opacity="1" /><path clip-path="url(#clip100)" d="M2217.22 262.825 L2217.22 266.807 Q2215.42 265.811 2213.59 265.325 Q2211.78 264.816 2209.93 264.816 Q2205.79 264.816 2203.5 267.455 Q2201.2 270.071 2201.2 274.816 Q2201.2 279.561 2203.5 282.2 Q2205.79 284.816 2209.93 284.816 Q2211.78 284.816 2213.59 284.33 Q2215.42 283.821 2217.22 282.825 L2217.22 286.76 Q2215.44 287.594 2213.52 288.01 Q2211.62 288.427 2209.47 288.427 Q2203.61 288.427 2200.16 284.746 Q2196.71 281.066 2196.71 274.816 Q2196.71 268.473 2200.18 264.839 Q2203.68 261.205 2209.75 261.205 Q2211.71 261.205 2213.59 261.622 Q2215.46 262.015 2217.22 262.825 Z" fill="#000000" fill-rule="nonzero" fill-opacity="1" /><path clip-path="url(#clip100)" d="M2236.41 274.723 Q2231.25 274.723 2229.26 275.904 Q2227.27 277.084 2227.27 279.932 Q2227.27 282.2 2228.75 283.543 Q2230.25 284.862 2232.82 284.862 Q2236.37 284.862 2238.49 282.362 Q2240.65 279.839 2240.65 275.672 L2240.65 274.723 L2236.41 274.723 M2244.91 272.964 L2244.91 287.756 L2240.65 287.756 L2240.65 283.821 Q2239.19 286.182 2237.01 287.316 Q2234.84 288.427 2231.69 288.427 Q2227.71 288.427 2225.35 286.205 Q2223.01 283.959 2223.01 280.209 Q2223.01 275.834 2225.93 273.612 Q2228.87 271.39 2234.68 271.39 L2240.65 271.39 L2240.65 270.973 Q2240.65 268.034 2238.7 266.436 Q2236.78 264.816 2233.29 264.816 Q2231.06 264.816 2228.96 265.348 Q2226.85 265.881 2224.91 266.946 L2224.91 263.01 Q2227.24 262.108 2229.44 261.668 Q2231.64 261.205 2233.73 261.205 Q2239.35 261.205 2242.13 264.122 Q2244.91 267.038 2244.91 272.964 Z" fill="#000000" fill-rule="nonzero" fill-opacity="1" /><path clip-path="url(#clip100)" d="M2253.68 251.737 L2257.94 251.737 L2257.94 287.756 L2253.68 287.756 L2253.68 251.737 Z" fill="#000000" fill-rule="nonzero" fill-opacity="1" /></svg>
