<?xml version="1.0" encoding="utf-8"?>
<svg xmlns="http://www.w3.org/2000/svg" xmlns:xlink="http://www.w3.org/1999/xlink" width="600" height="400" viewBox="0 0 2400 1600">
<defs>
  <clipPath id="clip260">
    <rect x="0" y="0" width="2400" height="1600"/>
  </clipPath>
</defs>
<path clip-path="url(#clip260)" d="M0 1600 L2400 1600 L2400 0 L0 0  Z" fill="#ffffff" fill-rule="evenodd" fill-opacity="1"/>
<defs>
  <clipPath id="clip261">
    <rect x="480" y="0" width="1681" height="1600"/>
  </clipPath>
</defs>
<path clip-path="url(#clip260)" d="M219.866 1423.18 L2352.76 1423.18 L2352.76 123.472 L219.866 123.472  Z" fill="#ffffff" fill-rule="evenodd" fill-opacity="1"/>
<defs>
  <clipPath id="clip262">
    <rect x="219" y="123" width="2134" height="1301"/>
  </clipPath>
</defs>
<polyline clip-path="url(#clip262)" style="stroke:#000000; stroke-linecap:round; stroke-linejoin:round; stroke-width:2; stroke-opacity:0.1; fill:none" points="276.199,1423.18 276.199,123.472 "/>
<polyline clip-path="url(#clip262)" style="stroke:#000000; stroke-linecap:round; stroke-linejoin:round; stroke-width:2; stroke-opacity:0.1; fill:none" points="679.437,1423.18 679.437,123.472 "/>
<polyline clip-path="url(#clip262)" style="stroke:#000000; stroke-linecap:round; stroke-linejoin:round; stroke-width:2; stroke-opacity:0.1; fill:none" points="1082.68,1423.18 1082.68,123.472 "/>
<polyline clip-path="url(#clip262)" style="stroke:#000000; stroke-linecap:round; stroke-linejoin:round; stroke-width:2; stroke-opacity:0.1; fill:none" points="1485.91,1423.18 1485.91,123.472 "/>
<polyline clip-path="url(#clip262)" style="stroke:#000000; stroke-linecap:round; stroke-linejoin:round; stroke-width:2; stroke-opacity:0.1; fill:none" points="1889.15,1423.18 1889.15,123.472 "/>
<polyline clip-path="url(#clip262)" style="stroke:#000000; stroke-linecap:round; stroke-linejoin:round; stroke-width:2; stroke-opacity:0.1; fill:none" points="2292.39,1423.18 2292.39,123.472 "/>
<polyline clip-path="url(#clip262)" style="stroke:#000000; stroke-linecap:round; stroke-linejoin:round; stroke-width:2; stroke-opacity:0.1; fill:none" points="219.866,1403.04 2352.76,1403.04 "/>
<polyline clip-path="url(#clip262)" style="stroke:#000000; stroke-linecap:round; stroke-linejoin:round; stroke-width:2; stroke-opacity:0.1; fill:none" points="219.866,1058.02 2352.76,1058.02 "/>
<polyline clip-path="url(#clip262)" style="stroke:#000000; stroke-linecap:round; stroke-linejoin:round; stroke-width:2; stroke-opacity:0.1; fill:none" points="219.866,712.99 2352.76,712.99 "/>
<polyline clip-path="url(#clip262)" style="stroke:#000000; stroke-linecap:round; stroke-linejoin:round; stroke-width:2; stroke-opacity:0.1; fill:none" points="219.866,367.963 2352.76,367.963 "/>
<polyline clip-path="url(#clip260)" style="stroke:#000000; stroke-linecap:round; stroke-linejoin:round; stroke-width:4; stroke-opacity:1; fill:none" points="219.866,1423.18 2352.76,1423.18 "/>
<polyline clip-path="url(#clip260)" style="stroke:#000000; stroke-linecap:round; stroke-linejoin:round; stroke-width:4; stroke-opacity:1; fill:none" points="276.199,1423.18 276.199,1404.28 "/>
<polyline clip-path="url(#clip260)" style="stroke:#000000; stroke-linecap:round; stroke-linejoin:round; stroke-width:4; stroke-opacity:1; fill:none" points="679.437,1423.18 679.437,1404.28 "/>
<polyline clip-path="url(#clip260)" style="stroke:#000000; stroke-linecap:round; stroke-linejoin:round; stroke-width:4; stroke-opacity:1; fill:none" points="1082.68,1423.18 1082.68,1404.28 "/>
<polyline clip-path="url(#clip260)" style="stroke:#000000; stroke-linecap:round; stroke-linejoin:round; stroke-width:4; stroke-opacity:1; fill:none" points="1485.91,1423.18 1485.91,1404.28 "/>
<polyline clip-path="url(#clip260)" style="stroke:#000000; stroke-linecap:round; stroke-linejoin:round; stroke-width:4; stroke-opacity:1; fill:none" points="1889.15,1423.18 1889.15,1404.28 "/>
<polyline clip-path="url(#clip260)" style="stroke:#000000; stroke-linecap:round; stroke-linejoin:round; stroke-width:4; stroke-opacity:1; fill:none" points="2292.39,1423.18 2292.39,1404.28 "/>
<path clip-path="url(#clip260)" d="M276.199 1454.1 Q272.588 1454.1 270.759 1457.66 Q268.953 1461.2 268.953 1468.33 Q268.953 1475.44 270.759 1479.01 Q272.588 1482.55 276.199 1482.55 Q279.833 1482.55 281.638 1479.01 Q283.467 1475.44 283.467 1468.33 Q283.467 1461.2 281.638 1457.66 Q279.833 1454.1 276.199 1454.1 M276.199 1450.39 Q282.009 1450.39 285.064 1455 Q288.143 1459.58 288.143 1468.33 Q288.143 1477.06 285.064 1481.67 Q282.009 1486.25 276.199 1486.25 Q270.389 1486.25 267.31 1481.67 Q264.254 1477.06 264.254 1468.33 Q264.254 1459.58 267.31 1455 Q270.389 1450.39 276.199 1450.39 Z" fill="#000000" fill-rule="nonzero" fill-opacity="1" /><path clip-path="url(#clip260)" d="M639.044 1481.64 L646.683 1481.64 L646.683 1455.28 L638.373 1456.95 L638.373 1452.69 L646.636 1451.02 L651.312 1451.02 L651.312 1481.64 L658.951 1481.64 L658.951 1485.58 L639.044 1485.58 L639.044 1481.64 Z" fill="#000000" fill-rule="nonzero" fill-opacity="1" /><path clip-path="url(#clip260)" d="M678.396 1454.1 Q674.784 1454.1 672.956 1457.66 Q671.15 1461.2 671.15 1468.33 Q671.15 1475.44 672.956 1479.01 Q674.784 1482.55 678.396 1482.55 Q682.03 1482.55 683.835 1479.01 Q685.664 1475.44 685.664 1468.33 Q685.664 1461.2 683.835 1457.66 Q682.03 1454.1 678.396 1454.1 M678.396 1450.39 Q684.206 1450.39 687.261 1455 Q690.34 1459.58 690.34 1468.33 Q690.34 1477.06 687.261 1481.67 Q684.206 1486.25 678.396 1486.25 Q672.585 1486.25 669.507 1481.67 Q666.451 1477.06 666.451 1468.33 Q666.451 1459.58 669.507 1455 Q672.585 1450.39 678.396 1450.39 Z" fill="#000000" fill-rule="nonzero" fill-opacity="1" /><path clip-path="url(#clip260)" d="M708.557 1454.1 Q704.946 1454.1 703.118 1457.66 Q701.312 1461.2 701.312 1468.33 Q701.312 1475.44 703.118 1479.01 Q704.946 1482.55 708.557 1482.55 Q712.192 1482.55 713.997 1479.01 Q715.826 1475.44 715.826 1468.33 Q715.826 1461.2 713.997 1457.66 Q712.192 1454.1 708.557 1454.1 M708.557 1450.39 Q714.368 1450.39 717.423 1455 Q720.502 1459.58 720.502 1468.33 Q720.502 1477.06 717.423 1481.67 Q714.368 1486.25 708.557 1486.25 Q702.747 1486.25 699.669 1481.67 Q696.613 1477.06 696.613 1468.33 Q696.613 1459.58 699.669 1455 Q702.747 1450.39 708.557 1450.39 Z" fill="#000000" fill-rule="nonzero" fill-opacity="1" /><path clip-path="url(#clip260)" d="M1046.37 1481.64 L1062.69 1481.64 L1062.69 1485.58 L1040.74 1485.58 L1040.74 1481.64 Q1043.41 1478.89 1047.99 1474.26 Q1052.59 1469.61 1053.78 1468.27 Q1056.02 1465.74 1056.9 1464.01 Q1057.8 1462.25 1057.8 1460.56 Q1057.8 1457.8 1055.86 1456.07 Q1053.94 1454.33 1050.84 1454.33 Q1048.64 1454.33 1046.18 1455.09 Q1043.75 1455.86 1040.97 1457.41 L1040.97 1452.69 Q1043.8 1451.55 1046.25 1450.97 Q1048.71 1450.39 1050.74 1450.39 Q1056.11 1450.39 1059.31 1453.08 Q1062.5 1455.77 1062.5 1460.26 Q1062.5 1462.39 1061.69 1464.31 Q1060.9 1466.2 1058.8 1468.8 Q1058.22 1469.47 1055.12 1472.69 Q1052.02 1475.88 1046.37 1481.64 Z" fill="#000000" fill-rule="nonzero" fill-opacity="1" /><path clip-path="url(#clip260)" d="M1082.5 1454.1 Q1078.89 1454.1 1077.06 1457.66 Q1075.26 1461.2 1075.26 1468.33 Q1075.26 1475.44 1077.06 1479.01 Q1078.89 1482.55 1082.5 1482.55 Q1086.14 1482.55 1087.94 1479.01 Q1089.77 1475.44 1089.77 1468.33 Q1089.77 1461.2 1087.94 1457.66 Q1086.14 1454.1 1082.5 1454.1 M1082.5 1450.39 Q1088.31 1450.39 1091.37 1455 Q1094.45 1459.58 1094.45 1468.33 Q1094.45 1477.06 1091.37 1481.67 Q1088.31 1486.25 1082.5 1486.25 Q1076.69 1486.25 1073.61 1481.67 Q1070.56 1477.06 1070.56 1468.33 Q1070.56 1459.58 1073.61 1455 Q1076.69 1450.39 1082.5 1450.39 Z" fill="#000000" fill-rule="nonzero" fill-opacity="1" /><path clip-path="url(#clip260)" d="M1112.66 1454.1 Q1109.05 1454.1 1107.22 1457.66 Q1105.42 1461.2 1105.42 1468.33 Q1105.42 1475.44 1107.22 1479.01 Q1109.05 1482.55 1112.66 1482.55 Q1116.3 1482.55 1118.1 1479.01 Q1119.93 1475.44 1119.93 1468.33 Q1119.93 1461.2 1118.1 1457.66 Q1116.3 1454.1 1112.66 1454.1 M1112.66 1450.39 Q1118.47 1450.39 1121.53 1455 Q1124.61 1459.58 1124.61 1468.33 Q1124.61 1477.06 1121.53 1481.67 Q1118.47 1486.25 1112.66 1486.25 Q1106.85 1486.25 1103.78 1481.67 Q1100.72 1477.06 1100.72 1468.33 Q1100.72 1459.58 1103.78 1455 Q1106.85 1450.39 1112.66 1450.39 Z" fill="#000000" fill-rule="nonzero" fill-opacity="1" /><path clip-path="url(#clip260)" d="M1459.68 1466.95 Q1463.03 1467.66 1464.91 1469.93 Q1466.81 1472.2 1466.81 1475.53 Q1466.81 1480.65 1463.29 1483.45 Q1459.77 1486.25 1453.29 1486.25 Q1451.11 1486.25 1448.8 1485.81 Q1446.5 1485.39 1444.05 1484.54 L1444.05 1480.02 Q1446 1481.16 1448.31 1481.74 Q1450.62 1482.32 1453.15 1482.32 Q1457.55 1482.32 1459.84 1480.58 Q1462.15 1478.84 1462.15 1475.53 Q1462.15 1472.48 1460 1470.77 Q1457.87 1469.03 1454.05 1469.03 L1450.02 1469.03 L1450.02 1465.19 L1454.24 1465.19 Q1457.69 1465.19 1459.51 1463.82 Q1461.34 1462.43 1461.34 1459.84 Q1461.34 1457.18 1459.44 1455.77 Q1457.57 1454.33 1454.05 1454.33 Q1452.13 1454.33 1449.93 1454.75 Q1447.73 1455.16 1445.09 1456.04 L1445.09 1451.88 Q1447.75 1451.14 1450.07 1450.77 Q1452.41 1450.39 1454.47 1450.39 Q1459.79 1450.39 1462.89 1452.83 Q1466 1455.23 1466 1459.35 Q1466 1462.22 1464.35 1464.21 Q1462.71 1466.18 1459.68 1466.95 Z" fill="#000000" fill-rule="nonzero" fill-opacity="1" /><path clip-path="url(#clip260)" d="M1485.67 1454.1 Q1482.06 1454.1 1480.23 1457.66 Q1478.43 1461.2 1478.43 1468.33 Q1478.43 1475.44 1480.23 1479.01 Q1482.06 1482.55 1485.67 1482.55 Q1489.31 1482.55 1491.11 1479.01 Q1492.94 1475.44 1492.94 1468.33 Q1492.94 1461.2 1491.11 1457.66 Q1489.31 1454.1 1485.67 1454.1 M1485.67 1450.39 Q1491.48 1450.39 1494.54 1455 Q1497.62 1459.58 1497.62 1468.33 Q1497.62 1477.06 1494.54 1481.67 Q1491.48 1486.25 1485.67 1486.25 Q1479.86 1486.25 1476.78 1481.67 Q1473.73 1477.06 1473.73 1468.33 Q1473.73 1459.58 1476.78 1455 Q1479.86 1450.39 1485.67 1450.39 Z" fill="#000000" fill-rule="nonzero" fill-opacity="1" /><path clip-path="url(#clip260)" d="M1515.83 1454.1 Q1512.22 1454.1 1510.39 1457.66 Q1508.59 1461.2 1508.59 1468.33 Q1508.59 1475.44 1510.39 1479.01 Q1512.22 1482.55 1515.83 1482.55 Q1519.47 1482.55 1521.27 1479.01 Q1523.1 1475.44 1523.1 1468.33 Q1523.1 1461.2 1521.27 1457.66 Q1519.47 1454.1 1515.83 1454.1 M1515.83 1450.39 Q1521.64 1450.39 1524.7 1455 Q1527.78 1459.58 1527.78 1468.33 Q1527.78 1477.06 1524.7 1481.67 Q1521.64 1486.25 1515.83 1486.25 Q1510.02 1486.25 1506.94 1481.67 Q1503.89 1477.06 1503.89 1468.33 Q1503.89 1459.58 1506.94 1455 Q1510.02 1450.39 1515.83 1450.39 Z" fill="#000000" fill-rule="nonzero" fill-opacity="1" /><path clip-path="url(#clip260)" d="M1862.24 1455.09 L1850.44 1473.54 L1862.24 1473.54 L1862.24 1455.09 M1861.02 1451.02 L1866.9 1451.02 L1866.9 1473.54 L1871.83 1473.54 L1871.83 1477.43 L1866.9 1477.43 L1866.9 1485.58 L1862.24 1485.58 L1862.24 1477.43 L1846.64 1477.43 L1846.64 1472.92 L1861.02 1451.02 Z" fill="#000000" fill-rule="nonzero" fill-opacity="1" /><path clip-path="url(#clip260)" d="M1889.56 1454.1 Q1885.95 1454.1 1884.12 1457.66 Q1882.31 1461.2 1882.31 1468.33 Q1882.31 1475.44 1884.12 1479.01 Q1885.95 1482.55 1889.56 1482.55 Q1893.19 1482.55 1895 1479.01 Q1896.83 1475.44 1896.83 1468.33 Q1896.83 1461.2 1895 1457.66 Q1893.19 1454.1 1889.56 1454.1 M1889.56 1450.39 Q1895.37 1450.39 1898.42 1455 Q1901.5 1459.58 1901.5 1468.33 Q1901.5 1477.06 1898.42 1481.67 Q1895.37 1486.25 1889.56 1486.25 Q1883.75 1486.25 1880.67 1481.67 Q1877.61 1477.06 1877.61 1468.33 Q1877.61 1459.58 1880.67 1455 Q1883.75 1450.39 1889.56 1450.39 Z" fill="#000000" fill-rule="nonzero" fill-opacity="1" /><path clip-path="url(#clip260)" d="M1919.72 1454.1 Q1916.11 1454.1 1914.28 1457.66 Q1912.47 1461.2 1912.47 1468.33 Q1912.47 1475.44 1914.28 1479.01 Q1916.11 1482.55 1919.72 1482.55 Q1923.35 1482.55 1925.16 1479.01 Q1926.99 1475.44 1926.99 1468.33 Q1926.99 1461.2 1925.16 1457.66 Q1923.35 1454.1 1919.72 1454.1 M1919.72 1450.39 Q1925.53 1450.39 1928.59 1455 Q1931.66 1459.58 1931.66 1468.33 Q1931.66 1477.06 1928.59 1481.67 Q1925.53 1486.25 1919.72 1486.25 Q1913.91 1486.25 1910.83 1481.67 Q1907.78 1477.06 1907.78 1468.33 Q1907.78 1459.58 1910.83 1455 Q1913.91 1450.39 1919.72 1450.39 Z" fill="#000000" fill-rule="nonzero" fill-opacity="1" /><path clip-path="url(#clip260)" d="M2252.01 1451.02 L2270.37 1451.02 L2270.37 1454.96 L2256.29 1454.96 L2256.29 1463.43 Q2257.31 1463.08 2258.33 1462.92 Q2259.35 1462.73 2260.37 1462.73 Q2266.15 1462.73 2269.53 1465.9 Q2272.91 1469.08 2272.91 1474.49 Q2272.91 1480.07 2269.44 1483.17 Q2265.97 1486.25 2259.65 1486.25 Q2257.47 1486.25 2255.2 1485.88 Q2252.96 1485.51 2250.55 1484.77 L2250.55 1480.07 Q2252.63 1481.2 2254.86 1481.76 Q2257.08 1482.32 2259.56 1482.32 Q2263.56 1482.32 2265.9 1480.21 Q2268.24 1478.1 2268.24 1474.49 Q2268.24 1470.88 2265.9 1468.77 Q2263.56 1466.67 2259.56 1466.67 Q2257.68 1466.67 2255.81 1467.08 Q2253.95 1467.5 2252.01 1468.38 L2252.01 1451.02 Z" fill="#000000" fill-rule="nonzero" fill-opacity="1" /><path clip-path="url(#clip260)" d="M2292.12 1454.1 Q2288.51 1454.1 2286.69 1457.66 Q2284.88 1461.2 2284.88 1468.33 Q2284.88 1475.44 2286.69 1479.01 Q2288.51 1482.55 2292.12 1482.55 Q2295.76 1482.55 2297.56 1479.01 Q2299.39 1475.44 2299.39 1468.33 Q2299.39 1461.2 2297.56 1457.66 Q2295.76 1454.1 2292.12 1454.1 M2292.12 1450.39 Q2297.94 1450.39 2300.99 1455 Q2304.07 1459.58 2304.07 1468.33 Q2304.07 1477.06 2300.99 1481.67 Q2297.94 1486.25 2292.12 1486.25 Q2286.31 1486.25 2283.24 1481.67 Q2280.18 1477.06 2280.18 1468.33 Q2280.18 1459.58 2283.24 1455 Q2286.31 1450.39 2292.12 1450.39 Z" fill="#000000" fill-rule="nonzero" fill-opacity="1" /><path clip-path="url(#clip260)" d="M2322.29 1454.1 Q2318.68 1454.1 2316.85 1457.66 Q2315.04 1461.2 2315.04 1468.33 Q2315.04 1475.44 2316.85 1479.01 Q2318.68 1482.55 2322.29 1482.55 Q2325.92 1482.55 2327.73 1479.01 Q2329.56 1475.44 2329.56 1468.33 Q2329.56 1461.2 2327.73 1457.66 Q2325.92 1454.1 2322.29 1454.1 M2322.29 1450.39 Q2328.1 1450.39 2331.15 1455 Q2334.23 1459.58 2334.23 1468.33 Q2334.23 1477.06 2331.15 1481.67 Q2328.1 1486.25 2322.29 1486.25 Q2316.48 1486.25 2313.4 1481.67 Q2310.34 1477.06 2310.34 1468.33 Q2310.34 1459.58 2313.4 1455 Q2316.48 1450.39 2322.29 1450.39 Z" fill="#000000" fill-rule="nonzero" fill-opacity="1" /><path clip-path="url(#clip260)" d="M1246.62 1522.08 L1246.62 1528.35 Q1242.96 1526.6 1239.71 1525.74 Q1236.47 1524.88 1233.44 1524.88 Q1228.19 1524.88 1225.33 1526.92 Q1222.49 1528.96 1222.49 1532.71 Q1222.49 1535.87 1224.37 1537.49 Q1226.28 1539.08 1231.57 1540.07 L1235.45 1540.86 Q1242.64 1542.23 1246.05 1545.7 Q1249.49 1549.14 1249.49 1554.93 Q1249.49 1561.84 1244.84 1565.4 Q1240.22 1568.97 1231.28 1568.97 Q1227.91 1568.97 1224.09 1568.2 Q1220.3 1567.44 1216.22 1565.94 L1216.22 1559.32 Q1220.14 1561.52 1223.9 1562.63 Q1227.65 1563.75 1231.28 1563.75 Q1236.79 1563.75 1239.78 1561.58 Q1242.77 1559.42 1242.77 1555.41 Q1242.77 1551.91 1240.61 1549.93 Q1238.47 1547.96 1233.57 1546.97 L1229.66 1546.21 Q1222.46 1544.78 1219.25 1541.72 Q1216.03 1538.67 1216.03 1533.22 Q1216.03 1526.92 1220.46 1523.29 Q1224.91 1519.66 1232.71 1519.66 Q1236.05 1519.66 1239.52 1520.27 Q1242.99 1520.87 1246.62 1522.08 Z" fill="#000000" fill-rule="nonzero" fill-opacity="1" /><path clip-path="url(#clip260)" d="M1265.05 1522.27 L1265.05 1532.4 L1277.11 1532.4 L1277.11 1536.95 L1265.05 1536.95 L1265.05 1556.3 Q1265.05 1560.66 1266.23 1561.9 Q1267.44 1563.14 1271.1 1563.14 L1277.11 1563.14 L1277.11 1568.04 L1271.1 1568.04 Q1264.32 1568.04 1261.74 1565.53 Q1259.16 1562.98 1259.16 1556.3 L1259.16 1536.95 L1254.86 1536.95 L1254.86 1532.4 L1259.16 1532.4 L1259.16 1522.27 L1265.05 1522.27 Z" fill="#000000" fill-rule="nonzero" fill-opacity="1" /><path clip-path="url(#clip260)" d="M1315.31 1548.76 L1315.31 1551.62 L1288.38 1551.62 Q1288.76 1557.67 1292.01 1560.85 Q1295.29 1564 1301.11 1564 Q1304.49 1564 1307.64 1563.17 Q1310.82 1562.35 1313.94 1560.69 L1313.94 1566.23 Q1310.79 1567.57 1307.48 1568.27 Q1304.17 1568.97 1300.76 1568.97 Q1292.23 1568.97 1287.23 1564 Q1282.27 1559.04 1282.27 1550.57 Q1282.27 1541.82 1286.98 1536.69 Q1291.72 1531.54 1299.74 1531.54 Q1306.94 1531.54 1311.11 1536.18 Q1315.31 1540.8 1315.31 1548.76 M1309.45 1547.04 Q1309.39 1542.23 1306.75 1539.37 Q1304.14 1536.5 1299.81 1536.5 Q1294.9 1536.5 1291.94 1539.27 Q1289.02 1542.04 1288.57 1547.07 L1309.45 1547.04 Z" fill="#000000" fill-rule="nonzero" fill-opacity="1" /><path clip-path="url(#clip260)" d="M1330.58 1562.7 L1330.58 1581.6 L1324.7 1581.6 L1324.7 1532.4 L1330.58 1532.4 L1330.58 1537.81 Q1332.43 1534.62 1335.23 1533.1 Q1338.06 1531.54 1341.98 1531.54 Q1348.47 1531.54 1352.51 1536.69 Q1356.59 1541.85 1356.59 1550.25 Q1356.59 1558.65 1352.51 1563.81 Q1348.47 1568.97 1341.98 1568.97 Q1338.06 1568.97 1335.23 1567.44 Q1332.43 1565.88 1330.58 1562.7 M1350.51 1550.25 Q1350.51 1543.79 1347.84 1540.13 Q1345.19 1536.44 1340.55 1536.44 Q1335.9 1536.44 1333.23 1540.13 Q1330.58 1543.79 1330.58 1550.25 Q1330.58 1556.71 1333.23 1560.4 Q1335.9 1564.07 1340.55 1564.07 Q1345.19 1564.07 1347.84 1560.4 Q1350.51 1556.71 1350.51 1550.25 Z" fill="#000000" fill-rule="nonzero" fill-opacity="1" /><polyline clip-path="url(#clip260)" style="stroke:#000000; stroke-linecap:round; stroke-linejoin:round; stroke-width:4; stroke-opacity:1; fill:none" points="219.866,1423.18 219.866,123.472 "/>
<polyline clip-path="url(#clip260)" style="stroke:#000000; stroke-linecap:round; stroke-linejoin:round; stroke-width:4; stroke-opacity:1; fill:none" points="219.866,1403.04 238.764,1403.04 "/>
<polyline clip-path="url(#clip260)" style="stroke:#000000; stroke-linecap:round; stroke-linejoin:round; stroke-width:4; stroke-opacity:1; fill:none" points="219.866,1058.02 238.764,1058.02 "/>
<polyline clip-path="url(#clip260)" style="stroke:#000000; stroke-linecap:round; stroke-linejoin:round; stroke-width:4; stroke-opacity:1; fill:none" points="219.866,712.99 238.764,712.99 "/>
<polyline clip-path="url(#clip260)" style="stroke:#000000; stroke-linecap:round; stroke-linejoin:round; stroke-width:4; stroke-opacity:1; fill:none" points="219.866,367.963 238.764,367.963 "/>
<path clip-path="url(#clip260)" d="M128.288 1388.84 Q124.677 1388.84 122.848 1392.41 Q121.043 1395.95 121.043 1403.08 Q121.043 1410.18 122.848 1413.75 Q124.677 1417.29 128.288 1417.29 Q131.922 1417.29 133.728 1413.75 Q135.556 1410.18 135.556 1403.08 Q135.556 1395.95 133.728 1392.41 Q131.922 1388.84 128.288 1388.84 M128.288 1385.14 Q134.098 1385.14 137.154 1389.74 Q140.232 1394.33 140.232 1403.08 Q140.232 1411.8 137.154 1416.41 Q134.098 1420.99 128.288 1420.99 Q122.478 1420.99 119.399 1416.41 Q116.343 1411.8 116.343 1403.08 Q116.343 1394.33 119.399 1389.74 Q122.478 1385.14 128.288 1385.14 Z" fill="#000000" fill-rule="nonzero" fill-opacity="1" /><path clip-path="url(#clip260)" d="M148.45 1414.44 L153.334 1414.44 L153.334 1420.32 L148.45 1420.32 L148.45 1414.44 Z" fill="#000000" fill-rule="nonzero" fill-opacity="1" /><path clip-path="url(#clip260)" d="M167.547 1416.39 L183.866 1416.39 L183.866 1420.32 L161.922 1420.32 L161.922 1416.39 Q164.584 1413.63 169.167 1409 Q173.774 1404.35 174.954 1403.01 Q177.2 1400.48 178.079 1398.75 Q178.982 1396.99 178.982 1395.3 Q178.982 1392.55 177.038 1390.81 Q175.116 1389.07 172.014 1389.07 Q169.815 1389.07 167.362 1389.84 Q164.931 1390.6 162.153 1392.15 L162.153 1387.43 Q164.977 1386.3 167.431 1385.72 Q169.885 1385.14 171.922 1385.14 Q177.292 1385.14 180.487 1387.82 Q183.681 1390.51 183.681 1395 Q183.681 1397.13 182.871 1399.05 Q182.084 1400.95 179.977 1403.54 Q179.399 1404.21 176.297 1407.43 Q173.195 1410.62 167.547 1416.39 Z" fill="#000000" fill-rule="nonzero" fill-opacity="1" /><path clip-path="url(#clip260)" d="M127.339 1043.81 Q123.728 1043.81 121.899 1047.38 Q120.093 1050.92 120.093 1058.05 Q120.093 1065.16 121.899 1068.72 Q123.728 1072.26 127.339 1072.26 Q130.973 1072.26 132.779 1068.72 Q134.607 1065.16 134.607 1058.05 Q134.607 1050.92 132.779 1047.38 Q130.973 1043.81 127.339 1043.81 M127.339 1040.11 Q133.149 1040.11 136.204 1044.72 Q139.283 1049.3 139.283 1058.05 Q139.283 1066.78 136.204 1071.38 Q133.149 1075.97 127.339 1075.97 Q121.529 1075.97 118.45 1071.38 Q115.394 1066.78 115.394 1058.05 Q115.394 1049.3 118.45 1044.72 Q121.529 1040.11 127.339 1040.11 Z" fill="#000000" fill-rule="nonzero" fill-opacity="1" /><path clip-path="url(#clip260)" d="M147.501 1069.42 L152.385 1069.42 L152.385 1075.3 L147.501 1075.3 L147.501 1069.42 Z" fill="#000000" fill-rule="nonzero" fill-opacity="1" /><path clip-path="url(#clip260)" d="M176.737 1056.66 Q180.093 1057.38 181.968 1059.65 Q183.866 1061.92 183.866 1065.25 Q183.866 1070.37 180.348 1073.17 Q176.829 1075.97 170.348 1075.97 Q168.172 1075.97 165.857 1075.53 Q163.565 1075.11 161.112 1074.25 L161.112 1069.74 Q163.056 1070.87 165.371 1071.45 Q167.686 1072.03 170.209 1072.03 Q174.607 1072.03 176.899 1070.3 Q179.214 1068.56 179.214 1065.25 Q179.214 1062.19 177.061 1060.48 Q174.931 1058.75 171.112 1058.75 L167.084 1058.75 L167.084 1054.9 L171.297 1054.9 Q174.746 1054.9 176.575 1053.54 Q178.403 1052.15 178.403 1049.56 Q178.403 1046.89 176.505 1045.48 Q174.63 1044.05 171.112 1044.05 Q169.19 1044.05 166.991 1044.46 Q164.792 1044.88 162.153 1045.76 L162.153 1041.59 Q164.815 1040.85 167.13 1040.48 Q169.468 1040.11 171.528 1040.11 Q176.852 1040.11 179.954 1042.54 Q183.056 1044.95 183.056 1049.07 Q183.056 1051.94 181.413 1053.93 Q179.769 1055.9 176.737 1056.66 Z" fill="#000000" fill-rule="nonzero" fill-opacity="1" /><path clip-path="url(#clip260)" d="M126.205 698.788 Q122.593 698.788 120.765 702.353 Q118.959 705.895 118.959 713.024 Q118.959 720.131 120.765 723.696 Q122.593 727.237 126.205 727.237 Q129.839 727.237 131.644 723.696 Q133.473 720.131 133.473 713.024 Q133.473 705.895 131.644 702.353 Q129.839 698.788 126.205 698.788 M126.205 695.085 Q132.015 695.085 135.07 699.691 Q138.149 704.274 138.149 713.024 Q138.149 721.751 135.07 726.358 Q132.015 730.941 126.205 730.941 Q120.394 730.941 117.316 726.358 Q114.26 721.751 114.26 713.024 Q114.26 704.274 117.316 699.691 Q120.394 695.085 126.205 695.085 Z" fill="#000000" fill-rule="nonzero" fill-opacity="1" /><path clip-path="url(#clip260)" d="M146.366 724.39 L151.251 724.39 L151.251 730.27 L146.366 730.27 L146.366 724.39 Z" fill="#000000" fill-rule="nonzero" fill-opacity="1" /><path clip-path="url(#clip260)" d="M174.283 699.784 L162.477 718.233 L174.283 718.233 L174.283 699.784 M173.056 695.71 L178.936 695.71 L178.936 718.233 L183.866 718.233 L183.866 722.122 L178.936 722.122 L178.936 730.27 L174.283 730.27 L174.283 722.122 L158.681 722.122 L158.681 717.608 L173.056 695.71 Z" fill="#000000" fill-rule="nonzero" fill-opacity="1" /><path clip-path="url(#clip260)" d="M127.686 353.762 Q124.075 353.762 122.246 357.327 Q120.441 360.868 120.441 367.998 Q120.441 375.104 122.246 378.669 Q124.075 382.211 127.686 382.211 Q131.32 382.211 133.126 378.669 Q134.954 375.104 134.954 367.998 Q134.954 360.868 133.126 357.327 Q131.32 353.762 127.686 353.762 M127.686 350.058 Q133.496 350.058 136.552 354.665 Q139.63 359.248 139.63 367.998 Q139.63 376.725 136.552 381.331 Q133.496 385.914 127.686 385.914 Q121.876 385.914 118.797 381.331 Q115.742 376.725 115.742 367.998 Q115.742 359.248 118.797 354.665 Q121.876 350.058 127.686 350.058 Z" fill="#000000" fill-rule="nonzero" fill-opacity="1" /><path clip-path="url(#clip260)" d="M147.848 379.364 L152.732 379.364 L152.732 385.243 L147.848 385.243 L147.848 379.364 Z" fill="#000000" fill-rule="nonzero" fill-opacity="1" /><path clip-path="url(#clip260)" d="M162.964 350.683 L181.32 350.683 L181.32 354.618 L167.246 354.618 L167.246 363.091 Q168.264 362.743 169.283 362.581 Q170.302 362.396 171.32 362.396 Q177.107 362.396 180.487 365.567 Q183.866 368.739 183.866 374.155 Q183.866 379.734 180.394 382.836 Q176.922 385.914 170.602 385.914 Q168.427 385.914 166.158 385.544 Q163.913 385.174 161.505 384.433 L161.505 379.734 Q163.589 380.868 165.811 381.424 Q168.033 381.979 170.51 381.979 Q174.514 381.979 176.852 379.873 Q179.19 377.766 179.19 374.155 Q179.19 370.544 176.852 368.438 Q174.514 366.331 170.51 366.331 Q168.635 366.331 166.76 366.748 Q164.908 367.165 162.964 368.044 L162.964 350.683 Z" fill="#000000" fill-rule="nonzero" fill-opacity="1" /><path clip-path="url(#clip260)" d="M18.0438 904.316 L24.314 904.316 Q22.5634 907.977 21.704 911.223 Q20.8447 914.47 20.8447 917.493 Q20.8447 922.745 22.8817 925.61 Q24.9187 928.442 28.6745 928.442 Q31.8255 928.442 33.4488 926.564 Q35.0402 924.655 36.0269 919.371 L36.8226 915.488 Q38.1912 908.295 41.6605 904.889 Q45.098 901.452 50.8908 901.452 Q57.7976 901.452 61.3624 906.099 Q64.9272 910.714 64.9272 919.658 Q64.9272 923.031 64.1633 926.851 Q63.3994 930.639 61.9035 934.713 L55.2831 934.713 Q57.4793 930.798 58.5933 927.042 Q59.7073 923.286 59.7073 919.658 Q59.7073 914.151 57.543 911.159 Q55.3786 908.168 51.3682 908.168 Q47.8671 908.168 45.8937 910.332 Q43.9204 912.464 42.9337 917.366 L42.1698 921.281 Q40.7375 928.474 37.682 931.689 Q34.6264 934.904 29.1837 934.904 Q22.8817 934.904 19.2532 930.479 Q15.6248 926.023 15.6248 918.225 Q15.6248 914.883 16.2295 911.414 Q16.8343 907.945 18.0438 904.316 Z" fill="#000000" fill-rule="nonzero" fill-opacity="1" /><path clip-path="url(#clip260)" d="M58.657 886.015 L77.5631 886.015 L77.5631 891.903 L28.3562 891.903 L28.3562 886.015 L33.7671 886.015 Q30.5842 884.169 29.0564 881.368 Q27.4968 878.535 27.4968 874.62 Q27.4968 868.127 32.6531 864.085 Q37.8093 860.011 46.212 860.011 Q54.6147 860.011 59.771 864.085 Q64.9272 868.127 64.9272 874.62 Q64.9272 878.535 63.3994 881.368 Q61.8398 884.169 58.657 886.015 M46.212 866.09 Q39.7508 866.09 36.0905 868.764 Q32.3984 871.406 32.3984 876.053 Q32.3984 880.7 36.0905 883.373 Q39.7508 886.015 46.212 886.015 Q52.6732 886.015 56.3653 883.373 Q60.0256 880.7 60.0256 876.053 Q60.0256 871.406 56.3653 868.764 Q52.6732 866.09 46.212 866.09 Z" fill="#000000" fill-rule="nonzero" fill-opacity="1" /><path clip-path="url(#clip260)" d="M44.7161 819.812 L47.5806 819.812 L47.5806 846.738 Q53.6281 846.357 56.8109 843.11 Q59.9619 839.832 59.9619 834.007 Q59.9619 830.633 59.1344 827.482 Q58.3069 824.299 56.6518 821.18 L62.1899 821.18 Q63.5267 824.331 64.227 827.641 Q64.9272 830.952 64.9272 834.357 Q64.9272 842.887 59.9619 847.884 Q54.9967 852.85 46.5303 852.85 Q37.7774 852.85 32.6531 848.139 Q27.4968 843.396 27.4968 835.376 Q27.4968 828.182 32.1438 824.013 Q36.7589 819.812 44.7161 819.812 M42.9973 825.668 Q38.1912 825.732 35.3266 828.373 Q32.4621 830.983 32.4621 835.312 Q32.4621 840.214 35.2312 843.174 Q38.0002 846.102 43.0292 846.548 L42.9973 825.668 Z" fill="#000000" fill-rule="nonzero" fill-opacity="1" /><path clip-path="url(#clip260)" d="M44.7161 779.708 L47.5806 779.708 L47.5806 806.635 Q53.6281 806.253 56.8109 803.006 Q59.9619 799.728 59.9619 793.903 Q59.9619 790.529 59.1344 787.378 Q58.3069 784.195 56.6518 781.076 L62.1899 781.076 Q63.5267 784.227 64.227 787.537 Q64.9272 790.848 64.9272 794.253 Q64.9272 802.783 59.9619 807.78 Q54.9967 812.746 46.5303 812.746 Q37.7774 812.746 32.6531 808.035 Q27.4968 803.293 27.4968 795.272 Q27.4968 788.079 32.1438 783.909 Q36.7589 779.708 44.7161 779.708 M42.9973 785.564 Q38.1912 785.628 35.3266 788.269 Q32.4621 790.879 32.4621 795.208 Q32.4621 800.11 35.2312 803.07 Q38.0002 805.998 43.0292 806.444 L42.9973 785.564 Z" fill="#000000" fill-rule="nonzero" fill-opacity="1" /><path clip-path="url(#clip260)" d="M33.7671 746.638 L14.479 746.638 L14.479 740.781 L64.0042 740.781 L64.0042 746.638 L58.657 746.638 Q61.8398 748.484 63.3994 751.317 Q64.9272 754.117 64.9272 758.064 Q64.9272 764.525 59.771 768.599 Q54.6147 772.642 46.212 772.642 Q37.8093 772.642 32.6531 768.599 Q27.4968 764.525 27.4968 758.064 Q27.4968 754.117 29.0564 751.317 Q30.5842 748.484 33.7671 746.638 M46.212 766.594 Q52.6732 766.594 56.3653 763.952 Q60.0256 761.279 60.0256 756.632 Q60.0256 751.985 56.3653 749.311 Q52.6732 746.638 46.212 746.638 Q39.7508 746.638 36.0905 749.311 Q32.3984 751.985 32.3984 756.632 Q32.3984 761.279 36.0905 763.952 Q39.7508 766.594 46.212 766.594 Z" fill="#000000" fill-rule="nonzero" fill-opacity="1" /><path clip-path="url(#clip260)" d="M18.0438 679.257 L24.314 679.257 Q22.5634 682.917 21.704 686.164 Q20.8447 689.41 20.8447 692.434 Q20.8447 697.685 22.8817 700.55 Q24.9187 703.383 28.6745 703.383 Q31.8255 703.383 33.4488 701.505 Q35.0402 699.595 36.0269 694.312 L36.8226 690.429 Q38.1912 683.235 41.6605 679.83 Q45.098 676.392 50.8908 676.392 Q57.7976 676.392 61.3624 681.039 Q64.9272 685.654 64.9272 694.598 Q64.9272 697.972 64.1633 701.791 Q63.3994 705.579 61.9035 709.653 L55.2831 709.653 Q57.4793 705.738 58.5933 701.982 Q59.7073 698.227 59.7073 694.598 Q59.7073 689.092 57.543 686.1 Q55.3786 683.108 51.3682 683.108 Q47.8671 683.108 45.8937 685.272 Q43.9204 687.405 42.9337 692.306 L42.1698 696.221 Q40.7375 703.415 37.682 706.629 Q34.6264 709.844 29.1837 709.844 Q22.8817 709.844 19.2532 705.42 Q15.6248 700.964 15.6248 693.166 Q15.6248 689.824 16.2295 686.355 Q16.8343 682.885 18.0438 679.257 Z" fill="#000000" fill-rule="nonzero" fill-opacity="1" /><path clip-path="url(#clip260)" d="M18.2347 660.828 L28.3562 660.828 L28.3562 648.765 L32.9077 648.765 L32.9077 660.828 L52.2594 660.828 Q56.6199 660.828 57.8613 659.65 Q59.1026 658.441 59.1026 654.781 L59.1026 648.765 L64.0042 648.765 L64.0042 654.781 Q64.0042 661.56 61.4897 664.138 Q58.9434 666.716 52.2594 666.716 L32.9077 666.716 L32.9077 671.013 L28.3562 671.013 L28.3562 666.716 L18.2347 666.716 L18.2347 660.828 Z" fill="#000000" fill-rule="nonzero" fill-opacity="1" /><path clip-path="url(#clip260)" d="M33.7671 617.605 L14.479 617.605 L14.479 611.748 L64.0042 611.748 L64.0042 617.605 L58.657 617.605 Q61.8398 619.451 63.3994 622.284 Q64.9272 625.085 64.9272 629.031 Q64.9272 635.493 59.771 639.567 Q54.6147 643.609 46.212 643.609 Q37.8093 643.609 32.6531 639.567 Q27.4968 635.493 27.4968 629.031 Q27.4968 625.085 29.0564 622.284 Q30.5842 619.451 33.7671 617.605 M46.212 637.561 Q52.6732 637.561 56.3653 634.92 Q60.0256 632.246 60.0256 627.599 Q60.0256 622.952 56.3653 620.278 Q52.6732 617.605 46.212 617.605 Q39.7508 617.605 36.0905 620.278 Q32.3984 622.952 32.3984 627.599 Q32.3984 632.246 36.0905 634.92 Q39.7508 637.561 46.212 637.561 Z" fill="#000000" fill-rule="nonzero" fill-opacity="1" /><path clip-path="url(#clip260)" d="M969.49 14.0809 L969.49 22.0612 Q964.831 19.8332 960.699 18.7395 Q956.567 17.6457 952.719 17.6457 Q946.035 17.6457 942.389 20.2383 Q938.784 22.8309 938.784 27.611 Q938.784 31.6214 941.174 33.6873 Q943.605 35.7128 950.329 36.9686 L955.271 37.9813 Q964.426 39.7232 968.761 44.1387 Q973.136 48.5136 973.136 55.8863 Q973.136 64.6767 967.221 69.2137 Q961.348 73.7508 949.965 73.7508 Q945.671 73.7508 940.809 72.7785 Q935.989 71.8063 930.804 69.9024 L930.804 61.4765 Q935.786 64.2716 940.566 65.6895 Q945.346 67.1073 949.965 67.1073 Q956.973 67.1073 960.78 64.3527 Q964.588 61.598 964.588 56.4939 Q964.588 52.0379 961.834 49.5264 Q959.12 47.0148 952.881 45.759 L947.899 44.7868 Q938.744 42.9639 934.652 39.075 Q930.561 35.1862 930.561 28.2591 Q930.561 20.2383 936.191 15.6203 Q941.863 11.0023 951.787 11.0023 Q956.041 11.0023 960.456 11.7719 Q964.872 12.5416 969.49 14.0809 Z" fill="#000000" fill-rule="nonzero" fill-opacity="1" /><path clip-path="url(#clip260)" d="M992.783 65.7705 L992.783 89.8329 L985.288 89.8329 L985.288 27.2059 L992.783 27.2059 L992.783 34.0924 Q995.132 30.0415 998.697 28.0971 Q1002.3 26.1121 1007.28 26.1121 Q1015.55 26.1121 1020.69 32.6746 Q1025.88 39.2371 1025.88 49.9314 Q1025.88 60.6258 1020.69 67.1883 Q1015.55 73.7508 1007.28 73.7508 Q1002.3 73.7508 998.697 71.8063 Q995.132 69.8214 992.783 65.7705 M1018.14 49.9314 Q1018.14 41.7081 1014.74 37.0496 Q1011.38 32.3505 1005.46 32.3505 Q999.548 32.3505 996.145 37.0496 Q992.783 41.7081 992.783 49.9314 Q992.783 58.1548 996.145 62.8538 Q999.548 67.5124 1005.46 67.5124 Q1011.38 67.5124 1014.74 62.8538 Q1018.14 58.1548 1018.14 49.9314 Z" fill="#000000" fill-rule="nonzero" fill-opacity="1" /><path clip-path="url(#clip260)" d="M1077.04 48.0275 L1077.04 51.6733 L1042.77 51.6733 Q1043.26 59.3701 1047.39 63.421 Q1051.56 67.4314 1058.97 67.4314 Q1063.27 67.4314 1067.28 66.3781 Q1071.33 65.3249 1075.3 63.2184 L1075.3 70.267 Q1071.29 71.9684 1067.08 72.8596 Q1062.86 73.7508 1058.53 73.7508 Q1047.67 73.7508 1041.31 67.4314 Q1034.99 61.1119 1034.99 50.3365 Q1034.99 39.1965 1040.99 32.6746 Q1047.02 26.1121 1057.23 26.1121 Q1066.39 26.1121 1071.69 32.0264 Q1077.04 37.9003 1077.04 48.0275 M1069.59 45.84 Q1069.51 39.7232 1066.14 36.0774 Q1062.82 32.4315 1057.31 32.4315 Q1051.08 32.4315 1047.31 35.9558 Q1043.58 39.4801 1043.01 45.8805 L1069.59 45.84 Z" fill="#000000" fill-rule="nonzero" fill-opacity="1" /><path clip-path="url(#clip260)" d="M1128.08 48.0275 L1128.08 51.6733 L1093.81 51.6733 Q1094.3 59.3701 1098.43 63.421 Q1102.6 67.4314 1110.02 67.4314 Q1114.31 67.4314 1118.32 66.3781 Q1122.37 65.3249 1126.34 63.2184 L1126.34 70.267 Q1122.33 71.9684 1118.12 72.8596 Q1113.9 73.7508 1109.57 73.7508 Q1098.71 73.7508 1092.35 67.4314 Q1086.03 61.1119 1086.03 50.3365 Q1086.03 39.1965 1092.03 32.6746 Q1098.07 26.1121 1108.27 26.1121 Q1117.43 26.1121 1122.74 32.0264 Q1128.08 37.9003 1128.08 48.0275 M1120.63 45.84 Q1120.55 39.7232 1117.19 36.0774 Q1113.86 32.4315 1108.35 32.4315 Q1102.12 32.4315 1098.35 35.9558 Q1094.62 39.4801 1094.06 45.8805 L1120.63 45.84 Z" fill="#000000" fill-rule="nonzero" fill-opacity="1" /><path clip-path="url(#clip260)" d="M1170.17 34.0924 L1170.17 9.54393 L1177.63 9.54393 L1177.63 72.576 L1170.17 72.576 L1170.17 65.7705 Q1167.82 69.8214 1164.22 71.8063 Q1160.65 73.7508 1155.63 73.7508 Q1147.41 73.7508 1142.22 67.1883 Q1137.08 60.6258 1137.08 49.9314 Q1137.08 39.2371 1142.22 32.6746 Q1147.41 26.1121 1155.63 26.1121 Q1160.65 26.1121 1164.22 28.0971 Q1167.82 30.0415 1170.17 34.0924 M1144.77 49.9314 Q1144.77 58.1548 1148.13 62.8538 Q1151.54 67.5124 1157.45 67.5124 Q1163.37 67.5124 1166.77 62.8538 Q1170.17 58.1548 1170.17 49.9314 Q1170.17 41.7081 1166.77 37.0496 Q1163.37 32.3505 1157.45 32.3505 Q1151.54 32.3505 1148.13 37.0496 Q1144.77 41.7081 1144.77 49.9314 Z" fill="#000000" fill-rule="nonzero" fill-opacity="1" /><path clip-path="url(#clip260)" d="M1227.86 18.8205 L1227.86 65.8515 L1237.74 65.8515 Q1250.26 65.8515 1256.05 60.1802 Q1261.88 54.509 1261.88 42.2752 Q1261.88 30.1225 1256.05 24.4918 Q1250.26 18.8205 1237.74 18.8205 L1227.86 18.8205 M1219.67 12.096 L1236.48 12.096 Q1254.07 12.096 1262.29 19.4281 Q1270.51 26.7198 1270.51 42.2752 Q1270.51 57.9117 1262.25 65.2439 Q1253.98 72.576 1236.48 72.576 L1219.67 72.576 L1219.67 12.096 Z" fill="#000000" fill-rule="nonzero" fill-opacity="1" /><path clip-path="url(#clip260)" d="M1283.23 27.2059 L1290.69 27.2059 L1290.69 72.576 L1283.23 72.576 L1283.23 27.2059 M1283.23 9.54393 L1290.69 9.54393 L1290.69 18.9825 L1283.23 18.9825 L1283.23 9.54393 Z" fill="#000000" fill-rule="nonzero" fill-opacity="1" /><path clip-path="url(#clip260)" d="M1335.21 28.5427 L1335.21 35.5912 Q1332.05 33.9709 1328.64 33.1607 Q1325.24 32.3505 1321.59 32.3505 Q1316.04 32.3505 1313.25 34.0519 Q1310.49 35.7533 1310.49 39.156 Q1310.49 41.7486 1312.48 43.2475 Q1314.46 44.7058 1320.46 46.0426 L1323.01 46.6097 Q1330.95 48.3111 1334.27 51.4303 Q1337.64 54.509 1337.64 60.0587 Q1337.64 66.3781 1332.61 70.0644 Q1327.63 73.7508 1318.88 73.7508 Q1315.23 73.7508 1311.26 73.0216 Q1307.34 72.3329 1302.96 70.9151 L1302.96 63.2184 Q1307.09 65.3654 1311.1 66.4591 Q1315.11 67.5124 1319.04 67.5124 Q1324.31 67.5124 1327.14 65.73 Q1329.98 63.9071 1329.98 60.6258 Q1329.98 57.5877 1327.91 55.9673 Q1325.89 54.3469 1318.96 52.8481 L1316.37 52.2405 Q1309.44 50.7821 1306.36 47.7845 Q1303.28 44.7463 1303.28 39.4801 Q1303.28 33.0797 1307.82 29.5959 Q1312.36 26.1121 1320.7 26.1121 Q1324.84 26.1121 1328.48 26.7198 Q1332.13 27.3274 1335.21 28.5427 Z" fill="#000000" fill-rule="nonzero" fill-opacity="1" /><path clip-path="url(#clip260)" d="M1356.72 65.7705 L1356.72 89.8329 L1349.22 89.8329 L1349.22 27.2059 L1356.72 27.2059 L1356.72 34.0924 Q1359.07 30.0415 1362.63 28.0971 Q1366.24 26.1121 1371.22 26.1121 Q1379.48 26.1121 1384.63 32.6746 Q1389.81 39.2371 1389.81 49.9314 Q1389.81 60.6258 1384.63 67.1883 Q1379.48 73.7508 1371.22 73.7508 Q1366.24 73.7508 1362.63 71.8063 Q1359.07 69.8214 1356.72 65.7705 M1382.07 49.9314 Q1382.07 41.7081 1378.67 37.0496 Q1375.31 32.3505 1369.4 32.3505 Q1363.48 32.3505 1360.08 37.0496 Q1356.72 41.7081 1356.72 49.9314 Q1356.72 58.1548 1360.08 62.8538 Q1363.48 67.5124 1369.4 67.5124 Q1375.31 67.5124 1378.67 62.8538 Q1382.07 58.1548 1382.07 49.9314 Z" fill="#000000" fill-rule="nonzero" fill-opacity="1" /><path clip-path="url(#clip260)" d="M1440.97 48.0275 L1440.97 51.6733 L1406.7 51.6733 Q1407.19 59.3701 1411.32 63.421 Q1415.49 67.4314 1422.91 67.4314 Q1427.2 67.4314 1431.21 66.3781 Q1435.26 65.3249 1439.23 63.2184 L1439.23 70.267 Q1435.22 71.9684 1431.01 72.8596 Q1426.8 73.7508 1422.46 73.7508 Q1411.61 73.7508 1405.25 67.4314 Q1398.93 61.1119 1398.93 50.3365 Q1398.93 39.1965 1404.92 32.6746 Q1410.96 26.1121 1421.17 26.1121 Q1430.32 26.1121 1435.63 32.0264 Q1440.97 37.9003 1440.97 48.0275 M1433.52 45.84 Q1433.44 39.7232 1430.08 36.0774 Q1426.76 32.4315 1421.25 32.4315 Q1415.01 32.4315 1411.24 35.9558 Q1407.51 39.4801 1406.95 45.8805 L1433.52 45.84 Z" fill="#000000" fill-rule="nonzero" fill-opacity="1" /><path clip-path="url(#clip260)" d="M1479.5 34.1734 Q1478.24 33.4443 1476.74 33.1202 Q1475.29 32.7556 1473.5 32.7556 Q1467.18 32.7556 1463.78 36.8875 Q1460.42 40.9789 1460.42 48.6757 L1460.42 72.576 L1452.92 72.576 L1452.92 27.2059 L1460.42 27.2059 L1460.42 34.2544 Q1462.77 30.1225 1466.54 28.1376 Q1470.3 26.1121 1475.69 26.1121 Q1476.46 26.1121 1477.39 26.2337 Q1478.32 26.3147 1479.46 26.5172 L1479.5 34.1734 Z" fill="#000000" fill-rule="nonzero" fill-opacity="1" /><path clip-path="url(#clip260)" d="M1516.24 28.5427 L1516.24 35.5912 Q1513.08 33.9709 1509.68 33.1607 Q1506.28 32.3505 1502.63 32.3505 Q1497.08 32.3505 1494.28 34.0519 Q1491.53 35.7533 1491.53 39.156 Q1491.53 41.7486 1493.51 43.2475 Q1495.5 44.7058 1501.5 46.0426 L1504.05 46.6097 Q1511.99 48.3111 1515.31 51.4303 Q1518.67 54.509 1518.67 60.0587 Q1518.67 66.3781 1513.65 70.0644 Q1508.67 73.7508 1499.92 73.7508 Q1496.27 73.7508 1492.3 73.0216 Q1488.37 72.3329 1484 70.9151 L1484 63.2184 Q1488.13 65.3654 1492.14 66.4591 Q1496.15 67.5124 1500.08 67.5124 Q1505.34 67.5124 1508.18 65.73 Q1511.01 63.9071 1511.01 60.6258 Q1511.01 57.5877 1508.95 55.9673 Q1506.92 54.3469 1500 52.8481 L1497.4 52.2405 Q1490.48 50.7821 1487.4 47.7845 Q1484.32 44.7463 1484.32 39.4801 Q1484.32 33.0797 1488.86 29.5959 Q1493.39 26.1121 1501.74 26.1121 Q1505.87 26.1121 1509.52 26.7198 Q1513.16 27.3274 1516.24 28.5427 Z" fill="#000000" fill-rule="nonzero" fill-opacity="1" /><path clip-path="url(#clip260)" d="M1530.54 27.2059 L1537.99 27.2059 L1537.99 72.576 L1530.54 72.576 L1530.54 27.2059 M1530.54 9.54393 L1537.99 9.54393 L1537.99 18.9825 L1530.54 18.9825 L1530.54 9.54393 Z" fill="#000000" fill-rule="nonzero" fill-opacity="1" /><path clip-path="url(#clip260)" d="M1571.17 32.4315 Q1565.18 32.4315 1561.69 37.1306 Q1558.21 41.7891 1558.21 49.9314 Q1558.21 58.0738 1561.65 62.7728 Q1565.13 67.4314 1571.17 67.4314 Q1577.13 67.4314 1580.61 62.7323 Q1584.09 58.0333 1584.09 49.9314 Q1584.09 41.8701 1580.61 37.1711 Q1577.13 32.4315 1571.17 32.4315 M1571.17 26.1121 Q1580.89 26.1121 1586.44 32.4315 Q1591.99 38.7509 1591.99 49.9314 Q1591.99 61.0714 1586.44 67.4314 Q1580.89 73.7508 1571.17 73.7508 Q1561.41 73.7508 1555.86 67.4314 Q1550.35 61.0714 1550.35 49.9314 Q1550.35 38.7509 1555.86 32.4315 Q1561.41 26.1121 1571.17 26.1121 Z" fill="#000000" fill-rule="nonzero" fill-opacity="1" /><path clip-path="url(#clip260)" d="M1642.06 45.1919 L1642.06 72.576 L1634.61 72.576 L1634.61 45.4349 Q1634.61 38.994 1632.1 35.7938 Q1629.58 32.5936 1624.56 32.5936 Q1618.53 32.5936 1615.04 36.4419 Q1611.56 40.2903 1611.56 46.9338 L1611.56 72.576 L1604.06 72.576 L1604.06 27.2059 L1611.56 27.2059 L1611.56 34.2544 Q1614.23 30.163 1617.84 28.1376 Q1621.48 26.1121 1626.22 26.1121 Q1634.04 26.1121 1638.05 30.9732 Q1642.06 35.7938 1642.06 45.1919 Z" fill="#000000" fill-rule="nonzero" fill-opacity="1" /><polyline clip-path="url(#clip262)" style="stroke:#009af9; stroke-linecap:round; stroke-linejoin:round; stroke-width:8; stroke-opacity:1; fill:none" points="280.231,1070.79 284.263,1008.15 288.296,935.21 292.328,849.815 296.361,739.61 300.393,630.574 304.425,549.385 308.458,483.975 312.49,418.823 316.523,358.759 320.555,315.585 324.587,291.873 328.62,276.091 332.652,275.84 336.684,274.604 340.717,297.537 344.749,315.568 348.782,334.12 352.814,348.054 356.846,358.062 360.879,365.983 364.911,370.8 368.944,372.467 372.976,371.576 377.008,376.944 381.041,381.233 385.073,383.956 389.105,390.393 393.138,400.339 397.17,415.488 401.203,428.711 405.235,439.337 409.267,453.08 413.3,466.643 417.332,482.776 421.365,501.543 425.397,521.596 429.429,543.231 433.462,569.661 437.494,594.637 441.526,617.585 445.559,641.064 449.591,668.637 453.624,691.428 457.656,712.38 461.688,732.353 465.721,750.545 469.753,770.169 473.786,788.893 477.818,808.165 481.85,828.67 485.883,850.607 489.915,870.875 493.947,886.842 497.98,899.244 502.012,908.442 506.045,917.412 510.077,927.372 514.109,936.45 518.142,943.529 522.174,948.572 526.207,951.185 530.239,956.121 534.271,963.302 538.304,969.418 542.336,977.599 546.368,983.983 550.401,993.455 554.433,1003.01 558.466,1011.11 562.498,1019.7 566.53,1026.98 570.563,1035.49 574.595,1043.87 578.628,1051.13 582.66,1059.1 586.692,1066.16 590.725,1070.68 594.757,1073.79 598.789,1076.21 602.822,1081.23 606.854,1084.85 610.887,1087.12 614.919,1091.47 618.951,1094.82 622.984,1097.2 627.016,1099.76 631.049,1102.09 635.081,1105.02 639.113,1109.03 643.146,1111.4 647.178,1113.49 651.21,1116.52 655.243,1117.59 659.275,1117.66 663.308,1118.41 667.34,1117.95 671.372,1116.59 675.405,1114.03 679.437,1109.88 683.47,1105.46 687.502,1100.27 691.534,1096.6 695.567,1092.8 699.599,1088.03 703.631,1083.67 707.664,1081.44 711.696,1082.59 715.729,1082.35 719.761,1079.71 723.793,1075.84 727.826,1072.94 731.858,1071.27 735.891,1068.79 739.923,1064.58 743.955,1059.18 747.988,1056.34 752.02,1052.96 756.052,1050.92 760.085,1050.91 764.117,1048.7 768.15,1045.66 772.182,1042.41 776.214,1038.14 780.247,1034.26 784.279,1033.19 788.312,1036.74 792.344,1044.09 796.376,1052.46 800.409,1060.36 804.441,1067.9 808.473,1074.93 812.506,1084.96 816.538,1094.38 820.571,1102.8 824.603,1111.48 828.635,1120.8 832.668,1128.78 836.7,1136.33 840.733,1142.14 844.765,1148.7 848.797,1155.89 852.83,1164.51 856.862,1172.16 860.894,1178.3 864.927,1184.62 868.959,1189.3 872.992,1192.76 877.024,1195.48 881.056,1197.98 885.089,1200.09 889.121,1202.47 893.154,1207.22 897.186,1211.17 901.218,1214.88 905.251,1219.52 909.283,1226.82 913.315,1237.02 917.348,1251.5 921.38,1263.55 925.413,1274.39 929.445,1284.21 933.477,1292.94 937.51,1299.62 941.542,1304.46 945.575,1307.29 949.607,1310.68 953.639,1317.81 957.672,1325.33 961.704,1332.79 965.736,1339.3 969.769,1345.51 973.801,1350.1 977.834,1351.97 981.866,1353.33 985.898,1355.7 989.931,1356 993.963,1359.18 997.996,1362.73 1002.03,1368.62 1006.06,1374.18 1010.09,1377.25 1014.13,1379.35 1018.16,1378.68 1022.19,1377.39 1026.22,1373.58 1030.25,1374.73 1034.29,1373.98 1038.32,1371.95 1042.35,1368.25 1046.38,1363.04 1050.42,1359.44 1054.45,1358.44 1058.48,1363.89 1062.51,1371.62 1066.55,1377.56 1070.58,1382.43 1074.61,1385.61 1078.64,1386.4 1082.68,1385.01 1086.71,1383.69 1090.74,1380.8 1094.77,1373.9 1098.81,1366.11 1102.84,1358.89 1106.87,1350.77 1110.9,1343.9 1114.93,1337.28 1118.97,1336.25 1123,1337.85 1127.03,1349.56 1131.06,1358.15 1135.1,1365.42 1139.13,1367.62 1143.16,1367.63 1147.19,1369.91 1151.23,1368.59 1155.26,1366.79 1159.29,1363.4 1163.32,1360.19 1167.36,1351.67 1171.39,1339.41 1175.42,1331.69 1179.45,1312.11 1183.49,1291.13 1187.52,1271.06 1191.55,1251.96 1195.58,1231.65 1199.61,1210.44 1203.65,1188.34 1207.68,1166.93 1211.71,1149.98 1215.74,1141.07 1219.78,1137.92 1223.81,1134.86 1227.84,1144.34 1231.87,1151.77 1235.91,1151.32 1239.94,1148.41 1243.97,1142.38 1248,1128.75 1252.04,1113.48 1256.07,1094.17 1260.1,1076.87 1264.13,1065.57 1268.17,1059.47 1272.2,1055.86 1276.23,1049.15 1280.26,1032.42 1284.29,1009.29 1288.33,975.206 1292.36,942.968 1296.39,905.856 1300.42,869.203 1304.46,851.383 1308.49,851.849 1312.52,853.56 1316.55,843.346 1320.59,828.298 1324.62,811.701 1328.65,793.751 1332.68,774.059 1336.72,751.46 1340.75,727.97 1344.78,704.852 1348.81,679.649 1352.85,656.079 1356.88,631.274 1360.91,602.779 1364.94,578.31 1368.97,559.638 1373.01,545.917 1377.04,529.227 1381.07,528.027 1385.1,518.541 1389.14,508.314 1393.17,497.107 1397.2,487.39 1401.23,479.016 1405.27,473.62 1409.3,472.823 1413.33,470.44 1417.36,461.95 1421.4,452.029 1425.43,440.01 1429.46,430.527 1433.49,422.785 1437.53,417.434 1441.56,412.734 1445.59,406.678 1449.62,402.094 1453.66,384.097 1457.69,363.713 1461.72,355.185 1465.75,329.469 1469.78,304.18 1473.82,283.413 1477.85,266.315 1481.88,248.664 1485.91,234.07 1489.95,229.135 1493.98,225.526 1498.01,223.153 1502.04,223.508 1506.08,218.841 1510.11,212.999 1514.14,207.49 1518.17,193.157 1522.21,177.391 1526.24,166.023 1530.27,160.772 1534.3,160.256 1538.34,174.778 1542.37,188.655 1546.4,203.593 1550.43,207.932 1554.46,214.378 1558.5,210.971 1562.53,205.179 1566.56,201.362 1570.59,203.65 1574.63,202.501 1578.66,206.287 1582.69,211.986 1586.72,218.781 1590.76,227.796 1594.79,217.423 1598.82,221.427 1602.85,234.272 1606.89,236.922 1610.92,243.823 1614.95,260.225 1618.98,271.546 1623.02,276.704 1627.05,268.6 1631.08,262.157 1635.11,263.687 1639.14,270.511 1643.18,278.191 1647.21,280.985 1651.24,292.533 1655.27,309.914 1659.31,329.248 1663.34,341.871 1667.37,344.938 1671.4,352.583 1675.44,360.209 1679.47,369.291 1683.5,378.421 1687.53,389.911 1691.57,397.744 1695.6,405.186 1699.63,416.537 1703.66,429.244 1707.7,437.535 1711.73,443.968 1715.76,450.256 1719.79,457.707 1723.82,450.945 1727.86,454.957 1731.89,468.157 1735.92,486.363 1739.95,508.002 1743.99,523.486 1748.02,533.189 1752.05,544.754 1756.08,556.269 1760.12,567.413 1764.15,579.03 1768.18,590.263 1772.21,599.662 1776.25,600.022 1780.28,597.526 1784.31,596.406 1788.34,593.833 1792.38,586.942 1796.41,582.382 1800.44,579.49 1804.47,580.952 1808.5,581.546 1812.54,582.569 1816.57,588.935 1820.6,593.426 1824.63,599.334 1828.67,610.393 1832.7,627.434 1836.73,649.312 1840.76,672.017 1844.8,691.736 1848.83,712.211 1852.86,730.714 1856.89,749.803 1860.93,770.146 1864.96,788.731 1868.99,808.697 1873.02,824.606 1877.06,841.076 1881.09,854.225 1885.12,867.866 1889.15,872.299 1893.19,873.847 1897.22,864.989 1901.25,857.03 1905.28,848.05 1909.31,839.298 1913.35,831.984 1917.38,823.504 1921.41,818.288 1925.44,817.019 1929.48,818.964 1933.51,826.825 1937.54,835.567 1941.57,845.575 1945.61,855.889 1949.64,859.909 1953.67,866.879 1957.7,860.969 1961.74,857.795 1965.77,852.768 1969.8,847.564 1973.83,842.83 1977.87,838.917 1981.9,840.836 1985.93,844.713 1989.96,852.227 1993.99,854.984 1998.03,857.891 2002.06,863.839 2006.09,866.384 2010.12,869.078 2014.16,871.341 2018.19,858.882 2022.22,846.809 2026.25,831.598 2030.29,817.319 2034.32,804.859 2038.35,811.117 2042.38,826.647 2046.42,841.904 2050.45,857.032 2054.48,869.079 2058.51,865.875 2062.55,862.24 2066.58,861.083 2070.61,865.091 2074.64,867.102 2078.67,862.176 2082.71,856.38 2086.74,848.233 2090.77,841.283 2094.8,835.537 2098.84,825.318 2102.87,823.688 2106.9,821.02 2110.93,819.398 2114.97,813.077 2119,800.438 2123.03,790.608 2127.06,786.079 2131.1,784.152 2135.13,782.135 2139.16,782.66 2143.19,784.189 2147.23,783.241 2151.26,786.645 2155.29,772.268 2159.32,759.799 2163.35,758.04 2167.39,766.67 2171.42,777.467 2175.45,767.967 2179.48,756.78 2183.52,751.35 2187.55,756.835 2191.58,762.566 2195.61,744.516 2199.65,730.79 2203.68,724.435 2207.71,727.91 2211.74,731.257 2215.78,699.14 2219.81,670.217 2223.84,670.631 2227.87,689.508 2231.91,707.144 2235.94,709.326 2239.97,712.889 2244,718.572 2248.03,724.685 2252.07,733.828 2256.1,745.711 2260.13,760.216 2264.16,768.179 2268.2,778.017 2272.23,787.012 2276.26,795.302 2280.29,803.418 2284.33,807.024 2288.36,809.446 2292.39,807.376 "/>
<polyline clip-path="url(#clip262)" style="stroke:#e26f46; stroke-linecap:round; stroke-linejoin:round; stroke-width:8; stroke-opacity:1; fill:none" points="280.231,1063.66 284.263,1000.28 288.296,930.436 292.328,847.671 296.361,734.795 300.393,644.52 304.425,570.649 308.458,508.464 312.49,447.843 316.523,387.891 320.555,343.645 324.587,307.361 328.62,283.73 332.652,274.179 336.684,270.088 340.717,278.899 344.749,284.633 348.782,290.664 352.814,292.47 356.846,288.96 360.879,284.215 364.911,279.8 368.944,275.809 372.976,278.327 377.008,283.593 381.041,286.563 385.073,292.018 389.105,302.984 393.138,314.571 397.17,321.208 401.203,328.777 405.235,336.693 409.267,347.675 413.3,353.771 417.332,359.387 421.365,365.027 425.397,372.24 429.429,378.803 433.462,391.996 437.494,405.47 441.526,419.979 445.559,436.4 449.591,456.432 453.624,478.778 457.656,503.415 461.688,528.226 465.721,550.63 469.753,573.464 473.786,595.93 477.818,618.596 481.85,641.888 485.883,662.708 489.915,682.212 493.947,699.064 497.98,711.594 502.012,721.182 506.045,731.355 510.077,737.552 514.109,742.552 518.142,746.019 522.174,750.388 526.207,755.325 530.239,759.257 534.271,764.959 538.304,769.527 542.336,773.091 546.368,774.357 550.401,776.966 554.433,779.588 558.466,782.981 562.498,788.838 566.53,798.473 570.563,805.675 574.595,811.282 578.628,816.423 582.66,820.402 586.692,824.736 590.725,828.339 594.757,834.699 598.789,840.103 602.822,849.324 606.854,857.193 610.887,865.402 614.919,873.857 618.951,879.892 622.984,884.311 627.016,886.15 631.049,887.148 635.081,887.665 639.113,888.204 643.146,891.038 647.178,895.611 651.21,900.048 655.243,906.103 659.275,913.754 663.308,922.917 667.34,930.368 671.372,936.394 675.405,941.31 679.437,946.717 683.47,952.317 687.502,956.376 691.534,957.824 695.567,961.58 699.599,960.763 703.631,957.044 707.664,954.814 711.696,952.358 715.729,950.303 719.761,946.44 723.793,942.498 727.826,938.029 731.858,930.749 735.891,923.532 739.923,913.694 743.955,906.874 747.988,902.217 752.02,897.308 756.052,892.706 760.085,887.554 764.117,881.574 768.15,872.724 772.182,861.935 776.214,850.426 780.247,838.346 784.279,827.391 788.312,819.934 792.344,813.072 796.376,806.507 800.409,802.623 804.441,800.517 808.473,797.433 812.506,796.698 816.538,796.313 820.571,795.002 824.603,792.842 828.635,788.012 832.668,783.353 836.7,779.302 840.733,774.143 844.765,767.477 848.797,760.377 852.83,754.404 856.862,748.902 860.894,746.478 864.927,744.81 868.959,745.418 872.992,747.902 877.024,750.197 881.056,750.448 885.089,748.475 889.121,749.217 893.154,748.032 897.186,747.084 901.218,747.165 905.251,746.511 909.283,743.323 913.315,740.117 917.348,734.495 921.38,721.96 925.413,710.271 929.445,699.705 933.477,694.604 937.51,694.462 941.542,695.628 945.575,695.088 949.607,694.434 953.639,692.88 957.672,691.173 961.704,689.417 965.736,686.521 969.769,683.259 973.801,675.136 977.834,668.499 981.866,662.492 985.898,658.733 989.931,654.465 993.963,652.422 997.996,652.237 1002.03,653.258 1006.06,654.711 1010.09,655.964 1014.13,659.065 1018.16,663.142 1022.19,668.552 1026.22,673.228 1030.25,679.471 1034.29,687.607 1038.32,696.562 1042.35,707.387 1046.38,718.349 1050.42,731.153 1054.45,744.706 1058.48,756.454 1062.51,764.975 1066.55,775.273 1070.58,784.521 1074.61,792.982 1078.64,800.374 1082.68,806.687 1086.71,812.755 1090.74,816.564 1094.77,821.094 1098.81,824.342 1102.84,828.065 1106.87,831.494 1110.9,836.358 1114.93,840.192 1118.97,844.419 1123,847.226 1127.03,851.706 1131.06,855.635 1135.1,859.776 1139.13,862.522 1143.16,864.259 1147.19,865.792 1151.23,867.467 1155.26,871.131 1159.29,874.115 1163.32,874.701 1167.36,876.438 1171.39,876.981 1175.42,875.782 1179.45,874.228 1183.49,874.855 1187.52,874.96 1191.55,880.29 1195.58,886.46 1199.61,896.8 1203.65,908.059 1207.68,919.961 1211.71,932.091 1215.74,943.324 1219.78,954.762 1223.81,964.507 1227.84,976.583 1231.87,984.538 1235.91,988.519 1239.94,987.949 1243.97,985.851 1248,983.98 1252.04,977.882 1256.07,969.856 1260.1,961.174 1264.13,951.152 1268.17,941.476 1272.2,934.978 1276.23,931.702 1280.26,932.524 1284.29,936.68 1288.33,945.299 1292.36,958.21 1296.39,978.097 1300.42,1001.41 1304.46,1024.02 1308.49,1042.5 1312.52,1058.68 1316.55,1069.99 1320.59,1079.92 1324.62,1087.73 1328.65,1091.24 1332.68,1093.36 1336.72,1081.75 1340.75,1058.14 1344.78,1033.74 1348.81,1009.02 1352.85,987.834 1356.88,974.308 1360.91,970.596 1364.94,982.024 1368.97,999.411 1373.01,1016.22 1377.04,1033.27 1381.07,1051.75 1385.1,1065.64 1389.14,1079.16 1393.17,1092.38 1397.2,1071.34 1401.23,1045.49 1405.27,1019.86 1409.3,997.214 1413.33,976.562 1417.36,945.481 1421.4,924.309 1425.43,919.643 1429.46,921.671 1433.49,924.503 1437.53,928.549 1441.56,938.987 1445.59,957.566 1449.62,980.003 1453.66,982.916 1457.69,988.271 1461.72,986.557 1465.75,987.675 1469.78,985.535 1473.82,978.082 1477.85,972.398 1481.88,949.675 1485.91,937.35 1489.95,932.468 1493.98,932.729 1498.01,937.27 1502.04,946.923 1506.08,958.551 1510.11,963.135 1514.14,946.652 1518.17,926.092 1522.21,907.577 1526.24,892.486 1530.27,887.766 1534.3,904.965 1538.34,923.142 1542.37,942.505 1546.4,964.319 1550.43,964.211 1554.46,961.912 1558.5,963.322 1562.53,951.795 1566.56,938.469 1570.59,918.78 1574.63,903.426 1578.66,873.089 1582.69,850.547 1586.72,839.758 1590.76,838.106 1594.79,848.655 1598.82,864.929 1602.85,881.639 1606.89,896.807 1610.92,892.131 1614.95,891.469 1618.98,893.154 1623.02,897.151 1627.05,882.846 1631.08,870.426 1635.11,858.232 1639.14,848.025 1643.18,836.312 1647.21,827.712 1651.24,845.41 1655.27,854.079 1659.31,865.154 1663.34,877.785 1667.37,890.154 1671.4,908.347 1675.44,913.468 1679.47,919.857 1683.5,912.247 1687.53,907.75 1691.57,906.422 1695.6,904.214 1699.63,907.119 1703.66,914.038 1707.7,920.541 1711.73,927.473 1715.76,923.013 1719.79,924.185 1723.82,927.918 1727.86,932.167 1731.89,942.113 1735.92,955.524 1739.95,967.344 1743.99,974.174 1748.02,978.081 1752.05,982.659 1756.08,961.384 1760.12,938.25 1764.15,921.534 1768.18,910.084 1772.21,902.855 1776.25,901.701 1780.28,906.959 1784.31,916.052 1788.34,920.982 1792.38,921.243 1796.41,923.764 1800.44,914.173 1804.47,908.951 1808.5,907.676 1812.54,906.672 1816.57,909.665 1820.6,918.213 1824.63,921.381 1828.67,925.974 1832.7,931.253 1836.73,931.318 1840.76,935.244 1844.8,940.185 1848.83,942.603 1852.86,947.935 1856.89,953.997 1860.93,962.722 1864.96,970.177 1868.99,978.312 1873.02,988.955 1877.06,998.414 1881.09,1006.48 1885.12,1005.28 1889.15,1008.44 1893.19,1002.12 1897.22,998.28 1901.25,996.941 1905.28,999.417 1909.31,1007.03 1913.35,1017.02 1917.38,1015.95 1921.41,1010.01 1925.44,1002.61 1929.48,996.83 1933.51,989.264 1937.54,980.855 1941.57,974.12 1945.61,970.269 1949.64,965.91 1953.67,966.385 1957.7,971.625 1961.74,979.701 1965.77,982.491 1969.8,988.36 1973.83,980.554 1977.87,971.572 1981.9,960.676 1985.93,949.462 1989.96,937.232 1993.99,929.805 1998.03,927.537 2002.06,911.683 2006.09,894.752 2010.12,877.855 2014.16,859.185 2018.19,843.917 2022.22,841.225 2026.25,857.326 2030.29,880.574 2034.32,902.726 2038.35,909.46 2042.38,914.646 2046.42,901.28 2050.45,889.687 2054.48,880.217 2058.51,873.005 2062.55,870.223 2066.58,870.686 2070.61,878.789 2074.64,889.284 2078.67,896.842 2082.71,906.412 2086.74,917.626 2090.77,920.611 2094.8,926.826 2098.84,934.084 2102.87,941.325 2106.9,948.88 2110.93,953.996 2114.97,961.063 2119,969.77 2123.03,979.722 2127.06,995.396 2131.1,1015.29 2135.13,1036.95 2139.16,1056.54 2143.19,1066.89 2147.23,1079.44 2151.26,1085.81 2155.29,1073.45 2159.32,1059.88 2163.35,1047.54 2167.39,1040.37 2171.42,1025.03 2175.45,1008.64 2179.48,996.781 2183.52,985.608 2187.55,979.979 2191.58,999.026 2195.61,1017.5 2199.65,1030.78 2203.68,1040.02 2207.71,1049.67 2211.74,1062.47 2215.78,1080 2219.81,1095.36 2223.84,1110.13 2227.87,1101.22 2231.91,1094.95 2235.94,1092.78 2239.97,1089.38 2244,1089 2248.03,1092.51 2252.07,1095.06 2256.1,1084.35 2260.13,1080.99 2264.16,1084.39 2268.2,1086.12 2272.23,1085.81 2276.26,1077.13 2280.29,1053.62 2284.33,1031.49 2288.36,1014.18 2292.39,1001.79 "/>
<path clip-path="url(#clip260)" d="M1809.95 322.316 L2281.66 322.316 L2281.66 166.796 L1809.95 166.796  Z" fill="#ffffff" fill-rule="evenodd" fill-opacity="1"/>
<polyline clip-path="url(#clip260)" style="stroke:#000000; stroke-linecap:round; stroke-linejoin:round; stroke-width:4; stroke-opacity:1; fill:none" points="1809.95,322.316 2281.66,322.316 2281.66,166.796 1809.95,166.796 1809.95,322.316 "/>
<polyline clip-path="url(#clip260)" style="stroke:#009af9; stroke-linecap:round; stroke-linejoin:round; stroke-width:8; stroke-opacity:1; fill:none" points="1833.64,218.636 1975.84,218.636 "/>
<path clip-path="url(#clip260)" d="M1999.54 201.356 L2006.5 201.356 L2015.32 224.874 L2024.19 201.356 L2031.16 201.356 L2031.16 235.916 L2026.6 235.916 L2026.6 205.569 L2017.68 229.272 L2012.99 229.272 L2004.07 205.569 L2004.07 235.916 L1999.54 235.916 L1999.54 201.356 Z" fill="#000000" fill-rule="nonzero" fill-opacity="1" /><path clip-path="url(#clip260)" d="M2062.43 221.888 L2062.43 223.971 L2042.85 223.971 Q2043.12 228.369 2045.49 230.684 Q2047.87 232.976 2052.11 232.976 Q2054.56 232.976 2056.85 232.374 Q2059.17 231.772 2061.43 230.569 L2061.43 234.596 Q2059.14 235.568 2056.74 236.078 Q2054.33 236.587 2051.85 236.587 Q2045.65 236.587 2042.01 232.976 Q2038.4 229.365 2038.4 223.207 Q2038.4 216.842 2041.83 213.115 Q2045.28 209.365 2051.11 209.365 Q2056.34 209.365 2059.37 212.745 Q2062.43 216.101 2062.43 221.888 M2058.17 220.638 Q2058.12 217.143 2056.2 215.059 Q2054.3 212.976 2051.16 212.976 Q2047.59 212.976 2045.44 214.99 Q2043.31 217.004 2042.99 220.661 L2058.17 220.638 Z" fill="#000000" fill-rule="nonzero" fill-opacity="1" /><path clip-path="url(#clip260)" d="M2073.63 202.629 L2073.63 209.99 L2082.41 209.99 L2082.41 213.3 L2073.63 213.3 L2073.63 227.374 Q2073.63 230.545 2074.49 231.448 Q2075.37 232.351 2078.03 232.351 L2082.41 232.351 L2082.41 235.916 L2078.03 235.916 Q2073.1 235.916 2071.23 234.087 Q2069.35 232.235 2069.35 227.374 L2069.35 213.3 L2066.23 213.3 L2066.23 209.99 L2069.35 209.99 L2069.35 202.629 L2073.63 202.629 Z" fill="#000000" fill-rule="nonzero" fill-opacity="1" /><path clip-path="url(#clip260)" d="M2103.03 213.971 Q2102.31 213.555 2101.46 213.37 Q2100.62 213.161 2099.61 213.161 Q2095.99 213.161 2094.05 215.522 Q2092.13 217.86 2092.13 222.258 L2092.13 235.916 L2087.85 235.916 L2087.85 209.99 L2092.13 209.99 L2092.13 214.018 Q2093.47 211.657 2095.62 210.522 Q2097.78 209.365 2100.86 209.365 Q2101.29 209.365 2101.83 209.434 Q2102.36 209.481 2103.01 209.596 L2103.03 213.971 Z" fill="#000000" fill-rule="nonzero" fill-opacity="1" /><path clip-path="url(#clip260)" d="M2107.5 209.99 L2111.76 209.99 L2111.76 235.916 L2107.5 235.916 L2107.5 209.99 M2107.5 199.897 L2111.76 199.897 L2111.76 205.291 L2107.5 205.291 L2107.5 199.897 Z" fill="#000000" fill-rule="nonzero" fill-opacity="1" /><path clip-path="url(#clip260)" d="M2139.33 210.985 L2139.33 214.967 Q2137.52 213.971 2135.69 213.485 Q2133.89 212.976 2132.04 212.976 Q2127.89 212.976 2125.6 215.615 Q2123.31 218.231 2123.31 222.976 Q2123.31 227.721 2125.6 230.36 Q2127.89 232.976 2132.04 232.976 Q2133.89 232.976 2135.69 232.49 Q2137.52 231.981 2139.33 230.985 L2139.33 234.92 Q2137.54 235.754 2135.62 236.17 Q2133.73 236.587 2131.57 236.587 Q2125.72 236.587 2122.27 232.906 Q2118.82 229.226 2118.82 222.976 Q2118.82 216.633 2122.29 212.999 Q2125.79 209.365 2131.85 209.365 Q2133.82 209.365 2135.69 209.782 Q2137.57 210.175 2139.33 210.985 Z" fill="#000000" fill-rule="nonzero" fill-opacity="1" /><polyline clip-path="url(#clip260)" style="stroke:#e26f46; stroke-linecap:round; stroke-linejoin:round; stroke-width:8; stroke-opacity:1; fill:none" points="1833.64,270.476 1975.84,270.476 "/>
<path clip-path="url(#clip260)" d="M1999.54 253.196 L2028.77 253.196 L2028.77 257.131 L2016.5 257.131 L2016.5 287.756 L2011.8 287.756 L2011.8 257.131 L1999.54 257.131 L1999.54 253.196 Z" fill="#000000" fill-rule="nonzero" fill-opacity="1" /><path clip-path="url(#clip260)" d="M2035.09 264.816 Q2031.67 264.816 2029.67 267.501 Q2027.68 270.163 2027.68 274.816 Q2027.68 279.469 2029.65 282.154 Q2031.64 284.816 2035.09 284.816 Q2038.49 284.816 2040.49 282.131 Q2042.48 279.446 2042.48 274.816 Q2042.48 270.21 2040.49 267.524 Q2038.49 264.816 2035.09 264.816 M2035.09 261.205 Q2040.65 261.205 2043.82 264.816 Q2046.99 268.427 2046.99 274.816 Q2046.99 281.182 2043.82 284.816 Q2040.65 288.427 2035.09 288.427 Q2029.51 288.427 2026.34 284.816 Q2023.19 281.182 2023.19 274.816 Q2023.19 268.427 2026.34 264.816 Q2029.51 261.205 2035.09 261.205 Z" fill="#000000" fill-rule="nonzero" fill-opacity="1" /><path clip-path="url(#clip260)" d="M2058.17 283.867 L2058.17 297.617 L2053.89 297.617 L2053.89 261.83 L2058.17 261.83 L2058.17 265.765 Q2059.51 263.45 2061.55 262.339 Q2063.61 261.205 2066.46 261.205 Q2071.18 261.205 2074.12 264.955 Q2077.08 268.705 2077.08 274.816 Q2077.08 280.927 2074.12 284.677 Q2071.18 288.427 2066.46 288.427 Q2063.61 288.427 2061.55 287.316 Q2059.51 286.182 2058.17 283.867 M2072.66 274.816 Q2072.66 270.117 2070.72 267.455 Q2068.8 264.77 2065.42 264.77 Q2062.04 264.77 2060.09 267.455 Q2058.17 270.117 2058.17 274.816 Q2058.17 279.515 2060.09 282.2 Q2062.04 284.862 2065.42 284.862 Q2068.8 284.862 2070.72 282.2 Q2072.66 279.515 2072.66 274.816 Z" fill="#000000" fill-rule="nonzero" fill-opacity="1" /><path clip-path="url(#clip260)" d="M2094.19 264.816 Q2090.76 264.816 2088.77 267.501 Q2086.78 270.163 2086.78 274.816 Q2086.78 279.469 2088.75 282.154 Q2090.74 284.816 2094.19 284.816 Q2097.59 284.816 2099.58 282.131 Q2101.57 279.446 2101.57 274.816 Q2101.57 270.21 2099.58 267.524 Q2097.59 264.816 2094.19 264.816 M2094.19 261.205 Q2099.74 261.205 2102.92 264.816 Q2106.09 268.427 2106.09 274.816 Q2106.09 281.182 2102.92 284.816 Q2099.74 288.427 2094.19 288.427 Q2088.61 288.427 2085.44 284.816 Q2082.29 281.182 2082.29 274.816 Q2082.29 268.427 2085.44 264.816 Q2088.61 261.205 2094.19 261.205 Z" fill="#000000" fill-rule="nonzero" fill-opacity="1" /><path clip-path="url(#clip260)" d="M2113.15 251.737 L2117.41 251.737 L2117.41 287.756 L2113.15 287.756 L2113.15 251.737 Z" fill="#000000" fill-rule="nonzero" fill-opacity="1" /><path clip-path="url(#clip260)" d="M2136.36 264.816 Q2132.94 264.816 2130.95 267.501 Q2128.96 270.163 2128.96 274.816 Q2128.96 279.469 2130.92 282.154 Q2132.92 284.816 2136.36 284.816 Q2139.77 284.816 2141.76 282.131 Q2143.75 279.446 2143.75 274.816 Q2143.75 270.21 2141.76 267.524 Q2139.77 264.816 2136.36 264.816 M2136.36 261.205 Q2141.92 261.205 2145.09 264.816 Q2148.26 268.427 2148.26 274.816 Q2148.26 281.182 2145.09 284.816 Q2141.92 288.427 2136.36 288.427 Q2130.79 288.427 2127.61 284.816 Q2124.47 281.182 2124.47 274.816 Q2124.47 268.427 2127.61 264.816 Q2130.79 261.205 2136.36 261.205 Z" fill="#000000" fill-rule="nonzero" fill-opacity="1" /><path clip-path="url(#clip260)" d="M2172.38 274.492 Q2172.38 269.862 2170.46 267.316 Q2168.56 264.77 2165.11 264.77 Q2161.69 264.77 2159.77 267.316 Q2157.87 269.862 2157.87 274.492 Q2157.87 279.098 2159.77 281.645 Q2161.69 284.191 2165.11 284.191 Q2168.56 284.191 2170.46 281.645 Q2172.38 279.098 2172.38 274.492 M2176.64 284.538 Q2176.64 291.158 2173.7 294.376 Q2170.76 297.617 2164.7 297.617 Q2162.45 297.617 2160.46 297.27 Q2158.47 296.945 2156.6 296.251 L2156.6 292.108 Q2158.47 293.126 2160.3 293.612 Q2162.13 294.098 2164.03 294.098 Q2168.22 294.098 2170.3 291.899 Q2172.38 289.723 2172.38 285.302 L2172.38 283.196 Q2171.06 285.487 2169 286.621 Q2166.94 287.756 2164.07 287.756 Q2159.3 287.756 2156.39 284.121 Q2153.47 280.487 2153.47 274.492 Q2153.47 268.473 2156.39 264.839 Q2159.3 261.205 2164.07 261.205 Q2166.94 261.205 2169 262.339 Q2171.06 263.473 2172.38 265.765 L2172.38 261.83 L2176.64 261.83 L2176.64 284.538 Z" fill="#000000" fill-rule="nonzero" fill-opacity="1" /><path clip-path="url(#clip260)" d="M2185.41 261.83 L2189.67 261.83 L2189.67 287.756 L2185.41 287.756 L2185.41 261.83 M2185.41 251.737 L2189.67 251.737 L2189.67 257.131 L2185.41 257.131 L2185.41 251.737 Z" fill="#000000" fill-rule="nonzero" fill-opacity="1" /><path clip-path="url(#clip260)" d="M2217.24 262.825 L2217.24 266.807 Q2215.44 265.811 2213.61 265.325 Q2211.8 264.816 2209.95 264.816 Q2205.81 264.816 2203.52 267.455 Q2201.23 270.071 2201.23 274.816 Q2201.23 279.561 2203.52 282.2 Q2205.81 284.816 2209.95 284.816 Q2211.8 284.816 2213.61 284.33 Q2215.44 283.821 2217.24 282.825 L2217.24 286.76 Q2215.46 287.594 2213.54 288.01 Q2211.64 288.427 2209.49 288.427 Q2203.63 288.427 2200.18 284.746 Q2196.73 281.066 2196.73 274.816 Q2196.73 268.473 2200.21 264.839 Q2203.7 261.205 2209.77 261.205 Q2211.73 261.205 2213.61 261.622 Q2215.48 262.015 2217.24 262.825 Z" fill="#000000" fill-rule="nonzero" fill-opacity="1" /><path clip-path="url(#clip260)" d="M2236.43 274.723 Q2231.27 274.723 2229.28 275.904 Q2227.29 277.084 2227.29 279.932 Q2227.29 282.2 2228.77 283.543 Q2230.28 284.862 2232.85 284.862 Q2236.39 284.862 2238.52 282.362 Q2240.67 279.839 2240.67 275.672 L2240.67 274.723 L2236.43 274.723 M2244.93 272.964 L2244.93 287.756 L2240.67 287.756 L2240.67 283.821 Q2239.21 286.182 2237.03 287.316 Q2234.86 288.427 2231.71 288.427 Q2227.73 288.427 2225.37 286.205 Q2223.03 283.959 2223.03 280.209 Q2223.03 275.834 2225.95 273.612 Q2228.89 271.39 2234.7 271.39 L2240.67 271.39 L2240.67 270.973 Q2240.67 268.034 2238.72 266.436 Q2236.8 264.816 2233.31 264.816 Q2231.09 264.816 2228.98 265.348 Q2226.87 265.881 2224.93 266.946 L2224.93 263.01 Q2227.27 262.108 2229.47 261.668 Q2231.66 261.205 2233.75 261.205 Q2239.37 261.205 2242.15 264.122 Q2244.93 267.038 2244.93 272.964 Z" fill="#000000" fill-rule="nonzero" fill-opacity="1" /><path clip-path="url(#clip260)" d="M2253.7 251.737 L2257.96 251.737 L2257.96 287.756 L2253.7 287.756 L2253.7 251.737 Z" fill="#000000" fill-rule="nonzero" fill-opacity="1" /></svg>
