<?xml version="1.0" encoding="utf-8"?>
<svg xmlns="http://www.w3.org/2000/svg" xmlns:xlink="http://www.w3.org/1999/xlink" width="600" height="400" viewBox="0 0 2400 1600">
<defs>
  <clipPath id="clip630">
    <rect x="0" y="0" width="2400" height="1600"/>
  </clipPath>
</defs>
<path clip-path="url(#clip630)" d="M0 1600 L2400 1600 L2400 0 L0 0  Z" fill="#ffffff" fill-rule="evenodd" fill-opacity="1"/>
<defs>
  <clipPath id="clip631">
    <rect x="480" y="0" width="1681" height="1600"/>
  </clipPath>
</defs>
<path clip-path="url(#clip630)" d="M219.866 1423.18 L2352.76 1423.18 L2352.76 123.472 L219.866 123.472  Z" fill="#ffffff" fill-rule="evenodd" fill-opacity="1"/>
<defs>
  <clipPath id="clip632">
    <rect x="219" y="123" width="2134" height="1301"/>
  </clipPath>
</defs>
<polyline clip-path="url(#clip632)" style="stroke:#000000; stroke-linecap:round; stroke-linejoin:round; stroke-width:2; stroke-opacity:0.1; fill:none" points="276.199,1423.18 276.199,123.472 "/>
<polyline clip-path="url(#clip632)" style="stroke:#000000; stroke-linecap:round; stroke-linejoin:round; stroke-width:2; stroke-opacity:0.1; fill:none" points="679.437,1423.18 679.437,123.472 "/>
<polyline clip-path="url(#clip632)" style="stroke:#000000; stroke-linecap:round; stroke-linejoin:round; stroke-width:2; stroke-opacity:0.1; fill:none" points="1082.68,1423.18 1082.68,123.472 "/>
<polyline clip-path="url(#clip632)" style="stroke:#000000; stroke-linecap:round; stroke-linejoin:round; stroke-width:2; stroke-opacity:0.1; fill:none" points="1485.91,1423.18 1485.91,123.472 "/>
<polyline clip-path="url(#clip632)" style="stroke:#000000; stroke-linecap:round; stroke-linejoin:round; stroke-width:2; stroke-opacity:0.1; fill:none" points="1889.15,1423.18 1889.15,123.472 "/>
<polyline clip-path="url(#clip632)" style="stroke:#000000; stroke-linecap:round; stroke-linejoin:round; stroke-width:2; stroke-opacity:0.1; fill:none" points="2292.39,1423.18 2292.39,123.472 "/>
<polyline clip-path="url(#clip632)" style="stroke:#000000; stroke-linecap:round; stroke-linejoin:round; stroke-width:2; stroke-opacity:0.1; fill:none" points="219.866,1170.9 2352.76,1170.9 "/>
<polyline clip-path="url(#clip632)" style="stroke:#000000; stroke-linecap:round; stroke-linejoin:round; stroke-width:2; stroke-opacity:0.1; fill:none" points="219.866,904.291 2352.76,904.291 "/>
<polyline clip-path="url(#clip632)" style="stroke:#000000; stroke-linecap:round; stroke-linejoin:round; stroke-width:2; stroke-opacity:0.1; fill:none" points="219.866,637.682 2352.76,637.682 "/>
<polyline clip-path="url(#clip632)" style="stroke:#000000; stroke-linecap:round; stroke-linejoin:round; stroke-width:2; stroke-opacity:0.1; fill:none" points="219.866,371.073 2352.76,371.073 "/>
<polyline clip-path="url(#clip630)" style="stroke:#000000; stroke-linecap:round; stroke-linejoin:round; stroke-width:4; stroke-opacity:1; fill:none" points="219.866,1423.18 2352.76,1423.18 "/>
<polyline clip-path="url(#clip630)" style="stroke:#000000; stroke-linecap:round; stroke-linejoin:round; stroke-width:4; stroke-opacity:1; fill:none" points="276.199,1423.18 276.199,1404.28 "/>
<polyline clip-path="url(#clip630)" style="stroke:#000000; stroke-linecap:round; stroke-linejoin:round; stroke-width:4; stroke-opacity:1; fill:none" points="679.437,1423.18 679.437,1404.28 "/>
<polyline clip-path="url(#clip630)" style="stroke:#000000; stroke-linecap:round; stroke-linejoin:round; stroke-width:4; stroke-opacity:1; fill:none" points="1082.68,1423.18 1082.68,1404.28 "/>
<polyline clip-path="url(#clip630)" style="stroke:#000000; stroke-linecap:round; stroke-linejoin:round; stroke-width:4; stroke-opacity:1; fill:none" points="1485.91,1423.18 1485.91,1404.28 "/>
<polyline clip-path="url(#clip630)" style="stroke:#000000; stroke-linecap:round; stroke-linejoin:round; stroke-width:4; stroke-opacity:1; fill:none" points="1889.15,1423.18 1889.15,1404.28 "/>
<polyline clip-path="url(#clip630)" style="stroke:#000000; stroke-linecap:round; stroke-linejoin:round; stroke-width:4; stroke-opacity:1; fill:none" points="2292.39,1423.18 2292.39,1404.28 "/>
<path clip-path="url(#clip630)" d="M276.199 1454.1 Q272.588 1454.1 270.759 1457.66 Q268.953 1461.2 268.953 1468.33 Q268.953 1475.44 270.759 1479.01 Q272.588 1482.55 276.199 1482.55 Q279.833 1482.55 281.638 1479.01 Q283.467 1475.44 283.467 1468.33 Q283.467 1461.2 281.638 1457.66 Q279.833 1454.1 276.199 1454.1 M276.199 1450.39 Q282.009 1450.39 285.064 1455 Q288.143 1459.58 288.143 1468.33 Q288.143 1477.06 285.064 1481.67 Q282.009 1486.25 276.199 1486.25 Q270.389 1486.25 267.31 1481.67 Q264.254 1477.06 264.254 1468.33 Q264.254 1459.58 267.31 1455 Q270.389 1450.39 276.199 1450.39 Z" fill="#000000" fill-rule="nonzero" fill-opacity="1" /><path clip-path="url(#clip630)" d="M639.044 1481.64 L646.683 1481.64 L646.683 1455.28 L638.373 1456.95 L638.373 1452.69 L646.636 1451.02 L651.312 1451.02 L651.312 1481.64 L658.951 1481.64 L658.951 1485.58 L639.044 1485.58 L639.044 1481.64 Z" fill="#000000" fill-rule="nonzero" fill-opacity="1" /><path clip-path="url(#clip630)" d="M678.396 1454.1 Q674.784 1454.1 672.956 1457.66 Q671.15 1461.2 671.15 1468.33 Q671.15 1475.44 672.956 1479.01 Q674.784 1482.55 678.396 1482.55 Q682.03 1482.55 683.835 1479.01 Q685.664 1475.44 685.664 1468.33 Q685.664 1461.2 683.835 1457.66 Q682.03 1454.1 678.396 1454.1 M678.396 1450.39 Q684.206 1450.39 687.261 1455 Q690.34 1459.58 690.34 1468.33 Q690.34 1477.06 687.261 1481.67 Q684.206 1486.25 678.396 1486.25 Q672.585 1486.25 669.507 1481.67 Q666.451 1477.06 666.451 1468.33 Q666.451 1459.58 669.507 1455 Q672.585 1450.39 678.396 1450.39 Z" fill="#000000" fill-rule="nonzero" fill-opacity="1" /><path clip-path="url(#clip630)" d="M708.557 1454.1 Q704.946 1454.1 703.118 1457.66 Q701.312 1461.2 701.312 1468.33 Q701.312 1475.44 703.118 1479.01 Q704.946 1482.55 708.557 1482.55 Q712.192 1482.55 713.997 1479.01 Q715.826 1475.44 715.826 1468.33 Q715.826 1461.2 713.997 1457.66 Q712.192 1454.1 708.557 1454.1 M708.557 1450.39 Q714.368 1450.39 717.423 1455 Q720.502 1459.58 720.502 1468.33 Q720.502 1477.06 717.423 1481.67 Q714.368 1486.25 708.557 1486.25 Q702.747 1486.25 699.669 1481.67 Q696.613 1477.06 696.613 1468.33 Q696.613 1459.58 699.669 1455 Q702.747 1450.39 708.557 1450.39 Z" fill="#000000" fill-rule="nonzero" fill-opacity="1" /><path clip-path="url(#clip630)" d="M1046.37 1481.64 L1062.69 1481.64 L1062.69 1485.58 L1040.74 1485.58 L1040.74 1481.64 Q1043.41 1478.89 1047.99 1474.26 Q1052.59 1469.61 1053.78 1468.27 Q1056.02 1465.74 1056.9 1464.01 Q1057.8 1462.25 1057.8 1460.56 Q1057.8 1457.8 1055.86 1456.07 Q1053.94 1454.33 1050.84 1454.33 Q1048.64 1454.33 1046.18 1455.09 Q1043.75 1455.86 1040.97 1457.41 L1040.97 1452.69 Q1043.8 1451.55 1046.25 1450.97 Q1048.71 1450.39 1050.74 1450.39 Q1056.11 1450.39 1059.31 1453.08 Q1062.5 1455.77 1062.5 1460.26 Q1062.5 1462.39 1061.69 1464.31 Q1060.9 1466.2 1058.8 1468.8 Q1058.22 1469.47 1055.12 1472.69 Q1052.02 1475.88 1046.37 1481.64 Z" fill="#000000" fill-rule="nonzero" fill-opacity="1" /><path clip-path="url(#clip630)" d="M1082.5 1454.1 Q1078.89 1454.1 1077.06 1457.66 Q1075.26 1461.2 1075.26 1468.33 Q1075.26 1475.44 1077.06 1479.01 Q1078.89 1482.55 1082.5 1482.55 Q1086.14 1482.55 1087.94 1479.01 Q1089.77 1475.44 1089.77 1468.33 Q1089.77 1461.2 1087.94 1457.66 Q1086.14 1454.1 1082.5 1454.1 M1082.5 1450.39 Q1088.31 1450.39 1091.37 1455 Q1094.45 1459.58 1094.45 1468.33 Q1094.45 1477.06 1091.37 1481.67 Q1088.31 1486.25 1082.5 1486.25 Q1076.69 1486.25 1073.61 1481.67 Q1070.56 1477.06 1070.56 1468.33 Q1070.56 1459.58 1073.61 1455 Q1076.69 1450.39 1082.5 1450.39 Z" fill="#000000" fill-rule="nonzero" fill-opacity="1" /><path clip-path="url(#clip630)" d="M1112.66 1454.1 Q1109.05 1454.1 1107.22 1457.66 Q1105.42 1461.2 1105.42 1468.33 Q1105.42 1475.44 1107.22 1479.01 Q1109.05 1482.55 1112.66 1482.55 Q1116.3 1482.55 1118.1 1479.01 Q1119.93 1475.44 1119.93 1468.33 Q1119.93 1461.2 1118.1 1457.66 Q1116.3 1454.1 1112.66 1454.1 M1112.66 1450.39 Q1118.47 1450.39 1121.53 1455 Q1124.61 1459.58 1124.61 1468.33 Q1124.61 1477.06 1121.53 1481.67 Q1118.47 1486.25 1112.66 1486.25 Q1106.85 1486.25 1103.78 1481.67 Q1100.72 1477.06 1100.72 1468.33 Q1100.72 1459.58 1103.78 1455 Q1106.85 1450.39 1112.66 1450.39 Z" fill="#000000" fill-rule="nonzero" fill-opacity="1" /><path clip-path="url(#clip630)" d="M1459.68 1466.95 Q1463.03 1467.66 1464.91 1469.93 Q1466.81 1472.2 1466.81 1475.53 Q1466.81 1480.65 1463.29 1483.45 Q1459.77 1486.25 1453.29 1486.25 Q1451.11 1486.25 1448.8 1485.81 Q1446.5 1485.39 1444.05 1484.54 L1444.05 1480.02 Q1446 1481.16 1448.31 1481.74 Q1450.62 1482.32 1453.15 1482.32 Q1457.55 1482.32 1459.84 1480.58 Q1462.15 1478.84 1462.15 1475.53 Q1462.15 1472.48 1460 1470.77 Q1457.87 1469.03 1454.05 1469.03 L1450.02 1469.03 L1450.02 1465.19 L1454.24 1465.19 Q1457.69 1465.19 1459.51 1463.82 Q1461.34 1462.43 1461.34 1459.84 Q1461.34 1457.18 1459.44 1455.77 Q1457.57 1454.33 1454.05 1454.33 Q1452.13 1454.33 1449.93 1454.75 Q1447.73 1455.16 1445.09 1456.04 L1445.09 1451.88 Q1447.75 1451.14 1450.07 1450.77 Q1452.41 1450.39 1454.47 1450.39 Q1459.79 1450.39 1462.89 1452.83 Q1466 1455.23 1466 1459.35 Q1466 1462.22 1464.35 1464.21 Q1462.71 1466.18 1459.68 1466.95 Z" fill="#000000" fill-rule="nonzero" fill-opacity="1" /><path clip-path="url(#clip630)" d="M1485.67 1454.1 Q1482.06 1454.1 1480.23 1457.66 Q1478.43 1461.2 1478.43 1468.33 Q1478.43 1475.44 1480.23 1479.01 Q1482.06 1482.55 1485.67 1482.55 Q1489.31 1482.55 1491.11 1479.01 Q1492.94 1475.44 1492.94 1468.33 Q1492.94 1461.2 1491.11 1457.66 Q1489.31 1454.1 1485.67 1454.1 M1485.67 1450.39 Q1491.48 1450.39 1494.54 1455 Q1497.62 1459.58 1497.62 1468.33 Q1497.62 1477.06 1494.54 1481.67 Q1491.48 1486.25 1485.67 1486.25 Q1479.86 1486.25 1476.78 1481.67 Q1473.73 1477.06 1473.73 1468.33 Q1473.73 1459.58 1476.78 1455 Q1479.86 1450.39 1485.67 1450.39 Z" fill="#000000" fill-rule="nonzero" fill-opacity="1" /><path clip-path="url(#clip630)" d="M1515.83 1454.1 Q1512.22 1454.1 1510.39 1457.66 Q1508.59 1461.2 1508.59 1468.33 Q1508.59 1475.44 1510.39 1479.01 Q1512.22 1482.55 1515.83 1482.55 Q1519.47 1482.55 1521.27 1479.01 Q1523.1 1475.44 1523.1 1468.33 Q1523.1 1461.2 1521.27 1457.66 Q1519.47 1454.1 1515.83 1454.1 M1515.83 1450.39 Q1521.64 1450.39 1524.7 1455 Q1527.78 1459.58 1527.78 1468.33 Q1527.78 1477.06 1524.7 1481.67 Q1521.64 1486.25 1515.83 1486.25 Q1510.02 1486.25 1506.94 1481.67 Q1503.89 1477.06 1503.89 1468.33 Q1503.89 1459.58 1506.94 1455 Q1510.02 1450.39 1515.83 1450.39 Z" fill="#000000" fill-rule="nonzero" fill-opacity="1" /><path clip-path="url(#clip630)" d="M1862.24 1455.09 L1850.44 1473.54 L1862.24 1473.54 L1862.24 1455.09 M1861.02 1451.02 L1866.9 1451.02 L1866.9 1473.54 L1871.83 1473.54 L1871.83 1477.43 L1866.9 1477.43 L1866.9 1485.58 L1862.24 1485.58 L1862.24 1477.43 L1846.64 1477.43 L1846.64 1472.92 L1861.02 1451.02 Z" fill="#000000" fill-rule="nonzero" fill-opacity="1" /><path clip-path="url(#clip630)" d="M1889.56 1454.1 Q1885.95 1454.1 1884.12 1457.66 Q1882.31 1461.2 1882.31 1468.33 Q1882.31 1475.44 1884.12 1479.01 Q1885.95 1482.55 1889.56 1482.55 Q1893.19 1482.55 1895 1479.01 Q1896.83 1475.44 1896.83 1468.33 Q1896.83 1461.2 1895 1457.66 Q1893.19 1454.1 1889.56 1454.1 M1889.56 1450.39 Q1895.37 1450.39 1898.42 1455 Q1901.5 1459.58 1901.5 1468.33 Q1901.5 1477.06 1898.42 1481.67 Q1895.37 1486.25 1889.56 1486.25 Q1883.75 1486.25 1880.67 1481.67 Q1877.61 1477.06 1877.61 1468.33 Q1877.61 1459.58 1880.67 1455 Q1883.75 1450.39 1889.56 1450.39 Z" fill="#000000" fill-rule="nonzero" fill-opacity="1" /><path clip-path="url(#clip630)" d="M1919.72 1454.1 Q1916.11 1454.1 1914.28 1457.66 Q1912.47 1461.2 1912.47 1468.33 Q1912.47 1475.44 1914.28 1479.01 Q1916.11 1482.55 1919.72 1482.55 Q1923.35 1482.55 1925.16 1479.01 Q1926.99 1475.44 1926.99 1468.33 Q1926.99 1461.2 1925.16 1457.66 Q1923.35 1454.1 1919.72 1454.1 M1919.72 1450.39 Q1925.53 1450.39 1928.59 1455 Q1931.66 1459.58 1931.66 1468.33 Q1931.66 1477.06 1928.59 1481.67 Q1925.53 1486.25 1919.72 1486.25 Q1913.91 1486.25 1910.83 1481.67 Q1907.78 1477.06 1907.78 1468.33 Q1907.78 1459.58 1910.83 1455 Q1913.91 1450.39 1919.72 1450.39 Z" fill="#000000" fill-rule="nonzero" fill-opacity="1" /><path clip-path="url(#clip630)" d="M2252.01 1451.02 L2270.37 1451.02 L2270.37 1454.96 L2256.29 1454.96 L2256.29 1463.43 Q2257.31 1463.08 2258.33 1462.92 Q2259.35 1462.73 2260.37 1462.73 Q2266.15 1462.73 2269.53 1465.9 Q2272.91 1469.08 2272.91 1474.49 Q2272.91 1480.07 2269.44 1483.17 Q2265.97 1486.25 2259.65 1486.25 Q2257.47 1486.25 2255.2 1485.88 Q2252.96 1485.51 2250.55 1484.77 L2250.55 1480.07 Q2252.63 1481.2 2254.86 1481.76 Q2257.08 1482.32 2259.56 1482.32 Q2263.56 1482.32 2265.9 1480.21 Q2268.24 1478.1 2268.24 1474.49 Q2268.24 1470.88 2265.9 1468.77 Q2263.56 1466.67 2259.56 1466.67 Q2257.68 1466.67 2255.81 1467.08 Q2253.95 1467.5 2252.01 1468.38 L2252.01 1451.02 Z" fill="#000000" fill-rule="nonzero" fill-opacity="1" /><path clip-path="url(#clip630)" d="M2292.12 1454.1 Q2288.51 1454.1 2286.69 1457.66 Q2284.88 1461.2 2284.88 1468.33 Q2284.88 1475.44 2286.69 1479.01 Q2288.51 1482.55 2292.12 1482.55 Q2295.76 1482.55 2297.56 1479.01 Q2299.39 1475.44 2299.39 1468.33 Q2299.39 1461.2 2297.56 1457.66 Q2295.76 1454.1 2292.12 1454.1 M2292.12 1450.39 Q2297.94 1450.39 2300.99 1455 Q2304.07 1459.58 2304.07 1468.33 Q2304.07 1477.06 2300.99 1481.67 Q2297.94 1486.25 2292.12 1486.25 Q2286.31 1486.25 2283.24 1481.67 Q2280.18 1477.06 2280.18 1468.33 Q2280.18 1459.58 2283.24 1455 Q2286.31 1450.39 2292.12 1450.39 Z" fill="#000000" fill-rule="nonzero" fill-opacity="1" /><path clip-path="url(#clip630)" d="M2322.29 1454.1 Q2318.68 1454.1 2316.85 1457.66 Q2315.04 1461.2 2315.04 1468.33 Q2315.04 1475.44 2316.85 1479.01 Q2318.68 1482.55 2322.29 1482.55 Q2325.92 1482.55 2327.73 1479.01 Q2329.56 1475.44 2329.56 1468.33 Q2329.56 1461.2 2327.73 1457.66 Q2325.92 1454.1 2322.29 1454.1 M2322.29 1450.39 Q2328.1 1450.39 2331.15 1455 Q2334.23 1459.58 2334.23 1468.33 Q2334.23 1477.06 2331.15 1481.67 Q2328.1 1486.25 2322.29 1486.25 Q2316.48 1486.25 2313.4 1481.67 Q2310.34 1477.06 2310.34 1468.33 Q2310.34 1459.58 2313.4 1455 Q2316.48 1450.39 2322.29 1450.39 Z" fill="#000000" fill-rule="nonzero" fill-opacity="1" /><path clip-path="url(#clip630)" d="M1246.62 1522.08 L1246.62 1528.35 Q1242.96 1526.6 1239.71 1525.74 Q1236.47 1524.88 1233.44 1524.88 Q1228.19 1524.88 1225.33 1526.92 Q1222.49 1528.96 1222.49 1532.71 Q1222.49 1535.87 1224.37 1537.49 Q1226.28 1539.08 1231.57 1540.07 L1235.45 1540.86 Q1242.64 1542.23 1246.05 1545.7 Q1249.49 1549.14 1249.49 1554.93 Q1249.49 1561.84 1244.84 1565.4 Q1240.22 1568.97 1231.28 1568.97 Q1227.91 1568.97 1224.09 1568.2 Q1220.3 1567.44 1216.22 1565.94 L1216.22 1559.32 Q1220.14 1561.52 1223.9 1562.63 Q1227.65 1563.75 1231.28 1563.75 Q1236.79 1563.75 1239.78 1561.58 Q1242.77 1559.42 1242.77 1555.41 Q1242.77 1551.91 1240.61 1549.93 Q1238.47 1547.96 1233.57 1546.97 L1229.66 1546.21 Q1222.46 1544.78 1219.25 1541.72 Q1216.03 1538.67 1216.03 1533.22 Q1216.03 1526.92 1220.46 1523.29 Q1224.91 1519.66 1232.71 1519.66 Q1236.05 1519.66 1239.52 1520.27 Q1242.99 1520.87 1246.62 1522.08 Z" fill="#000000" fill-rule="nonzero" fill-opacity="1" /><path clip-path="url(#clip630)" d="M1265.05 1522.27 L1265.05 1532.4 L1277.11 1532.4 L1277.11 1536.95 L1265.05 1536.95 L1265.05 1556.3 Q1265.05 1560.66 1266.23 1561.9 Q1267.44 1563.14 1271.1 1563.14 L1277.11 1563.14 L1277.11 1568.04 L1271.1 1568.04 Q1264.32 1568.04 1261.74 1565.53 Q1259.16 1562.98 1259.16 1556.3 L1259.16 1536.95 L1254.86 1536.95 L1254.86 1532.4 L1259.16 1532.4 L1259.16 1522.27 L1265.05 1522.27 Z" fill="#000000" fill-rule="nonzero" fill-opacity="1" /><path clip-path="url(#clip630)" d="M1315.31 1548.76 L1315.31 1551.62 L1288.38 1551.62 Q1288.76 1557.67 1292.01 1560.85 Q1295.29 1564 1301.11 1564 Q1304.49 1564 1307.64 1563.17 Q1310.82 1562.35 1313.94 1560.69 L1313.94 1566.23 Q1310.79 1567.57 1307.48 1568.27 Q1304.17 1568.97 1300.76 1568.97 Q1292.23 1568.97 1287.23 1564 Q1282.27 1559.04 1282.27 1550.57 Q1282.27 1541.82 1286.98 1536.69 Q1291.72 1531.54 1299.74 1531.54 Q1306.94 1531.54 1311.11 1536.18 Q1315.31 1540.8 1315.31 1548.76 M1309.45 1547.04 Q1309.39 1542.23 1306.75 1539.37 Q1304.14 1536.5 1299.81 1536.5 Q1294.9 1536.5 1291.94 1539.27 Q1289.02 1542.04 1288.57 1547.07 L1309.45 1547.04 Z" fill="#000000" fill-rule="nonzero" fill-opacity="1" /><path clip-path="url(#clip630)" d="M1330.58 1562.7 L1330.58 1581.6 L1324.7 1581.6 L1324.7 1532.4 L1330.58 1532.4 L1330.58 1537.81 Q1332.43 1534.62 1335.23 1533.1 Q1338.06 1531.54 1341.98 1531.54 Q1348.47 1531.54 1352.51 1536.69 Q1356.59 1541.85 1356.59 1550.25 Q1356.59 1558.65 1352.51 1563.81 Q1348.47 1568.97 1341.98 1568.97 Q1338.06 1568.97 1335.23 1567.44 Q1332.43 1565.88 1330.58 1562.7 M1350.51 1550.25 Q1350.51 1543.79 1347.84 1540.13 Q1345.19 1536.44 1340.55 1536.44 Q1335.9 1536.44 1333.23 1540.13 Q1330.58 1543.79 1330.58 1550.25 Q1330.58 1556.71 1333.23 1560.4 Q1335.9 1564.07 1340.55 1564.07 Q1345.19 1564.07 1347.84 1560.4 Q1350.51 1556.71 1350.51 1550.25 Z" fill="#000000" fill-rule="nonzero" fill-opacity="1" /><polyline clip-path="url(#clip630)" style="stroke:#000000; stroke-linecap:round; stroke-linejoin:round; stroke-width:4; stroke-opacity:1; fill:none" points="219.866,1423.18 219.866,123.472 "/>
<polyline clip-path="url(#clip630)" style="stroke:#000000; stroke-linecap:round; stroke-linejoin:round; stroke-width:4; stroke-opacity:1; fill:none" points="219.866,1170.9 238.764,1170.9 "/>
<polyline clip-path="url(#clip630)" style="stroke:#000000; stroke-linecap:round; stroke-linejoin:round; stroke-width:4; stroke-opacity:1; fill:none" points="219.866,904.291 238.764,904.291 "/>
<polyline clip-path="url(#clip630)" style="stroke:#000000; stroke-linecap:round; stroke-linejoin:round; stroke-width:4; stroke-opacity:1; fill:none" points="219.866,637.682 238.764,637.682 "/>
<polyline clip-path="url(#clip630)" style="stroke:#000000; stroke-linecap:round; stroke-linejoin:round; stroke-width:4; stroke-opacity:1; fill:none" points="219.866,371.073 238.764,371.073 "/>
<path clip-path="url(#clip630)" d="M127.917 1156.7 Q124.306 1156.7 122.478 1160.26 Q120.672 1163.81 120.672 1170.93 Q120.672 1178.04 122.478 1181.61 Q124.306 1185.15 127.917 1185.15 Q131.552 1185.15 133.357 1181.61 Q135.186 1178.04 135.186 1170.93 Q135.186 1163.81 133.357 1160.26 Q131.552 1156.7 127.917 1156.7 M127.917 1153 Q133.728 1153 136.783 1157.6 Q139.862 1162.19 139.862 1170.93 Q139.862 1179.66 136.783 1184.27 Q133.728 1188.85 127.917 1188.85 Q122.107 1188.85 119.029 1184.27 Q115.973 1179.66 115.973 1170.93 Q115.973 1162.19 119.029 1157.6 Q122.107 1153 127.917 1153 Z" fill="#000000" fill-rule="nonzero" fill-opacity="1" /><path clip-path="url(#clip630)" d="M148.079 1182.3 L152.964 1182.3 L152.964 1188.18 L148.079 1188.18 L148.079 1182.3 Z" fill="#000000" fill-rule="nonzero" fill-opacity="1" /><path clip-path="url(#clip630)" d="M163.959 1184.25 L171.598 1184.25 L171.598 1157.88 L163.288 1159.55 L163.288 1155.29 L171.552 1153.62 L176.227 1153.62 L176.227 1184.25 L183.866 1184.25 L183.866 1188.18 L163.959 1188.18 L163.959 1184.25 Z" fill="#000000" fill-rule="nonzero" fill-opacity="1" /><path clip-path="url(#clip630)" d="M128.288 890.09 Q124.677 890.09 122.848 893.655 Q121.043 897.196 121.043 904.326 Q121.043 911.432 122.848 914.997 Q124.677 918.539 128.288 918.539 Q131.922 918.539 133.728 914.997 Q135.556 911.432 135.556 904.326 Q135.556 897.196 133.728 893.655 Q131.922 890.09 128.288 890.09 M128.288 886.386 Q134.098 886.386 137.154 890.993 Q140.232 895.576 140.232 904.326 Q140.232 913.053 137.154 917.659 Q134.098 922.242 128.288 922.242 Q122.478 922.242 119.399 917.659 Q116.343 913.053 116.343 904.326 Q116.343 895.576 119.399 890.993 Q122.478 886.386 128.288 886.386 Z" fill="#000000" fill-rule="nonzero" fill-opacity="1" /><path clip-path="url(#clip630)" d="M148.45 915.692 L153.334 915.692 L153.334 921.571 L148.45 921.571 L148.45 915.692 Z" fill="#000000" fill-rule="nonzero" fill-opacity="1" /><path clip-path="url(#clip630)" d="M167.547 917.636 L183.866 917.636 L183.866 921.571 L161.922 921.571 L161.922 917.636 Q164.584 914.881 169.167 910.252 Q173.774 905.599 174.954 904.256 Q177.2 901.733 178.079 899.997 Q178.982 898.238 178.982 896.548 Q178.982 893.794 177.038 892.057 Q175.116 890.321 172.014 890.321 Q169.815 890.321 167.362 891.085 Q164.931 891.849 162.153 893.4 L162.153 888.678 Q164.977 887.544 167.431 886.965 Q169.885 886.386 171.922 886.386 Q177.292 886.386 180.487 889.071 Q183.681 891.757 183.681 896.247 Q183.681 898.377 182.871 900.298 Q182.084 902.196 179.977 904.789 Q179.399 905.46 176.297 908.678 Q173.195 911.872 167.547 917.636 Z" fill="#000000" fill-rule="nonzero" fill-opacity="1" /><path clip-path="url(#clip630)" d="M127.339 623.481 Q123.728 623.481 121.899 627.046 Q120.093 630.587 120.093 637.717 Q120.093 644.823 121.899 648.388 Q123.728 651.93 127.339 651.93 Q130.973 651.93 132.779 648.388 Q134.607 644.823 134.607 637.717 Q134.607 630.587 132.779 627.046 Q130.973 623.481 127.339 623.481 M127.339 619.777 Q133.149 619.777 136.204 624.384 Q139.283 628.967 139.283 637.717 Q139.283 646.444 136.204 651.05 Q133.149 655.633 127.339 655.633 Q121.529 655.633 118.45 651.05 Q115.394 646.444 115.394 637.717 Q115.394 628.967 118.45 624.384 Q121.529 619.777 127.339 619.777 Z" fill="#000000" fill-rule="nonzero" fill-opacity="1" /><path clip-path="url(#clip630)" d="M147.501 649.083 L152.385 649.083 L152.385 654.962 L147.501 654.962 L147.501 649.083 Z" fill="#000000" fill-rule="nonzero" fill-opacity="1" /><path clip-path="url(#clip630)" d="M176.737 636.328 Q180.093 637.046 181.968 639.314 Q183.866 641.583 183.866 644.916 Q183.866 650.032 180.348 652.832 Q176.829 655.633 170.348 655.633 Q168.172 655.633 165.857 655.194 Q163.565 654.777 161.112 653.92 L161.112 649.407 Q163.056 650.541 165.371 651.12 Q167.686 651.698 170.209 651.698 Q174.607 651.698 176.899 649.962 Q179.214 648.226 179.214 644.916 Q179.214 641.86 177.061 640.147 Q174.931 638.411 171.112 638.411 L167.084 638.411 L167.084 634.569 L171.297 634.569 Q174.746 634.569 176.575 633.203 Q178.403 631.814 178.403 629.222 Q178.403 626.559 176.505 625.147 Q174.63 623.712 171.112 623.712 Q169.19 623.712 166.991 624.129 Q164.792 624.546 162.153 625.425 L162.153 621.259 Q164.815 620.518 167.13 620.147 Q169.468 619.777 171.528 619.777 Q176.852 619.777 179.954 622.208 Q183.056 624.615 183.056 628.735 Q183.056 631.606 181.413 633.596 Q179.769 635.564 176.737 636.328 Z" fill="#000000" fill-rule="nonzero" fill-opacity="1" /><path clip-path="url(#clip630)" d="M126.205 356.872 Q122.593 356.872 120.765 360.437 Q118.959 363.978 118.959 371.108 Q118.959 378.214 120.765 381.779 Q122.593 385.321 126.205 385.321 Q129.839 385.321 131.644 381.779 Q133.473 378.214 133.473 371.108 Q133.473 363.978 131.644 360.437 Q129.839 356.872 126.205 356.872 M126.205 353.168 Q132.015 353.168 135.07 357.775 Q138.149 362.358 138.149 371.108 Q138.149 379.835 135.07 384.441 Q132.015 389.024 126.205 389.024 Q120.394 389.024 117.316 384.441 Q114.26 379.835 114.26 371.108 Q114.26 362.358 117.316 357.775 Q120.394 353.168 126.205 353.168 Z" fill="#000000" fill-rule="nonzero" fill-opacity="1" /><path clip-path="url(#clip630)" d="M146.366 382.473 L151.251 382.473 L151.251 388.353 L146.366 388.353 L146.366 382.473 Z" fill="#000000" fill-rule="nonzero" fill-opacity="1" /><path clip-path="url(#clip630)" d="M174.283 357.867 L162.477 376.316 L174.283 376.316 L174.283 357.867 M173.056 353.793 L178.936 353.793 L178.936 376.316 L183.866 376.316 L183.866 380.205 L178.936 380.205 L178.936 388.353 L174.283 388.353 L174.283 380.205 L158.681 380.205 L158.681 375.691 L173.056 353.793 Z" fill="#000000" fill-rule="nonzero" fill-opacity="1" /><path clip-path="url(#clip630)" d="M18.0438 904.316 L24.314 904.316 Q22.5634 907.977 21.704 911.223 Q20.8447 914.47 20.8447 917.493 Q20.8447 922.745 22.8817 925.61 Q24.9187 928.442 28.6745 928.442 Q31.8255 928.442 33.4488 926.564 Q35.0402 924.655 36.0269 919.371 L36.8226 915.488 Q38.1912 908.295 41.6605 904.889 Q45.098 901.452 50.8908 901.452 Q57.7976 901.452 61.3624 906.099 Q64.9272 910.714 64.9272 919.658 Q64.9272 923.031 64.1633 926.851 Q63.3994 930.639 61.9035 934.713 L55.2831 934.713 Q57.4793 930.798 58.5933 927.042 Q59.7073 923.286 59.7073 919.658 Q59.7073 914.151 57.543 911.159 Q55.3786 908.168 51.3682 908.168 Q47.8671 908.168 45.8937 910.332 Q43.9204 912.464 42.9337 917.366 L42.1698 921.281 Q40.7375 928.474 37.682 931.689 Q34.6264 934.904 29.1837 934.904 Q22.8817 934.904 19.2532 930.479 Q15.6248 926.023 15.6248 918.225 Q15.6248 914.883 16.2295 911.414 Q16.8343 907.945 18.0438 904.316 Z" fill="#000000" fill-rule="nonzero" fill-opacity="1" /><path clip-path="url(#clip630)" d="M58.657 886.015 L77.5631 886.015 L77.5631 891.903 L28.3562 891.903 L28.3562 886.015 L33.7671 886.015 Q30.5842 884.169 29.0564 881.368 Q27.4968 878.535 27.4968 874.62 Q27.4968 868.127 32.6531 864.085 Q37.8093 860.011 46.212 860.011 Q54.6147 860.011 59.771 864.085 Q64.9272 868.127 64.9272 874.62 Q64.9272 878.535 63.3994 881.368 Q61.8398 884.169 58.657 886.015 M46.212 866.09 Q39.7508 866.09 36.0905 868.764 Q32.3984 871.406 32.3984 876.053 Q32.3984 880.7 36.0905 883.373 Q39.7508 886.015 46.212 886.015 Q52.6732 886.015 56.3653 883.373 Q60.0256 880.7 60.0256 876.053 Q60.0256 871.406 56.3653 868.764 Q52.6732 866.09 46.212 866.09 Z" fill="#000000" fill-rule="nonzero" fill-opacity="1" /><path clip-path="url(#clip630)" d="M44.7161 819.812 L47.5806 819.812 L47.5806 846.738 Q53.6281 846.357 56.8109 843.11 Q59.9619 839.832 59.9619 834.007 Q59.9619 830.633 59.1344 827.482 Q58.3069 824.299 56.6518 821.18 L62.1899 821.18 Q63.5267 824.331 64.227 827.641 Q64.9272 830.952 64.9272 834.357 Q64.9272 842.887 59.9619 847.884 Q54.9967 852.85 46.5303 852.85 Q37.7774 852.85 32.6531 848.139 Q27.4968 843.396 27.4968 835.376 Q27.4968 828.182 32.1438 824.013 Q36.7589 819.812 44.7161 819.812 M42.9973 825.668 Q38.1912 825.732 35.3266 828.373 Q32.4621 830.983 32.4621 835.312 Q32.4621 840.214 35.2312 843.174 Q38.0002 846.102 43.0292 846.548 L42.9973 825.668 Z" fill="#000000" fill-rule="nonzero" fill-opacity="1" /><path clip-path="url(#clip630)" d="M44.7161 779.708 L47.5806 779.708 L47.5806 806.635 Q53.6281 806.253 56.8109 803.006 Q59.9619 799.728 59.9619 793.903 Q59.9619 790.529 59.1344 787.378 Q58.3069 784.195 56.6518 781.076 L62.1899 781.076 Q63.5267 784.227 64.227 787.537 Q64.9272 790.848 64.9272 794.253 Q64.9272 802.783 59.9619 807.78 Q54.9967 812.746 46.5303 812.746 Q37.7774 812.746 32.6531 808.035 Q27.4968 803.293 27.4968 795.272 Q27.4968 788.079 32.1438 783.909 Q36.7589 779.708 44.7161 779.708 M42.9973 785.564 Q38.1912 785.628 35.3266 788.269 Q32.4621 790.879 32.4621 795.208 Q32.4621 800.11 35.2312 803.07 Q38.0002 805.998 43.0292 806.444 L42.9973 785.564 Z" fill="#000000" fill-rule="nonzero" fill-opacity="1" /><path clip-path="url(#clip630)" d="M33.7671 746.638 L14.479 746.638 L14.479 740.781 L64.0042 740.781 L64.0042 746.638 L58.657 746.638 Q61.8398 748.484 63.3994 751.317 Q64.9272 754.117 64.9272 758.064 Q64.9272 764.525 59.771 768.599 Q54.6147 772.642 46.212 772.642 Q37.8093 772.642 32.6531 768.599 Q27.4968 764.525 27.4968 758.064 Q27.4968 754.117 29.0564 751.317 Q30.5842 748.484 33.7671 746.638 M46.212 766.594 Q52.6732 766.594 56.3653 763.952 Q60.0256 761.279 60.0256 756.632 Q60.0256 751.985 56.3653 749.311 Q52.6732 746.638 46.212 746.638 Q39.7508 746.638 36.0905 749.311 Q32.3984 751.985 32.3984 756.632 Q32.3984 761.279 36.0905 763.952 Q39.7508 766.594 46.212 766.594 Z" fill="#000000" fill-rule="nonzero" fill-opacity="1" /><path clip-path="url(#clip630)" d="M18.0438 679.257 L24.314 679.257 Q22.5634 682.917 21.704 686.164 Q20.8447 689.41 20.8447 692.434 Q20.8447 697.685 22.8817 700.55 Q24.9187 703.383 28.6745 703.383 Q31.8255 703.383 33.4488 701.505 Q35.0402 699.595 36.0269 694.312 L36.8226 690.429 Q38.1912 683.235 41.6605 679.83 Q45.098 676.392 50.8908 676.392 Q57.7976 676.392 61.3624 681.039 Q64.9272 685.654 64.9272 694.598 Q64.9272 697.972 64.1633 701.791 Q63.3994 705.579 61.9035 709.653 L55.2831 709.653 Q57.4793 705.738 58.5933 701.982 Q59.7073 698.227 59.7073 694.598 Q59.7073 689.092 57.543 686.1 Q55.3786 683.108 51.3682 683.108 Q47.8671 683.108 45.8937 685.272 Q43.9204 687.405 42.9337 692.306 L42.1698 696.221 Q40.7375 703.415 37.682 706.629 Q34.6264 709.844 29.1837 709.844 Q22.8817 709.844 19.2532 705.42 Q15.6248 700.964 15.6248 693.166 Q15.6248 689.824 16.2295 686.355 Q16.8343 682.885 18.0438 679.257 Z" fill="#000000" fill-rule="nonzero" fill-opacity="1" /><path clip-path="url(#clip630)" d="M18.2347 660.828 L28.3562 660.828 L28.3562 648.765 L32.9077 648.765 L32.9077 660.828 L52.2594 660.828 Q56.6199 660.828 57.8613 659.65 Q59.1026 658.441 59.1026 654.781 L59.1026 648.765 L64.0042 648.765 L64.0042 654.781 Q64.0042 661.56 61.4897 664.138 Q58.9434 666.716 52.2594 666.716 L32.9077 666.716 L32.9077 671.013 L28.3562 671.013 L28.3562 666.716 L18.2347 666.716 L18.2347 660.828 Z" fill="#000000" fill-rule="nonzero" fill-opacity="1" /><path clip-path="url(#clip630)" d="M33.7671 617.605 L14.479 617.605 L14.479 611.748 L64.0042 611.748 L64.0042 617.605 L58.657 617.605 Q61.8398 619.451 63.3994 622.284 Q64.9272 625.085 64.9272 629.031 Q64.9272 635.493 59.771 639.567 Q54.6147 643.609 46.212 643.609 Q37.8093 643.609 32.6531 639.567 Q27.4968 635.493 27.4968 629.031 Q27.4968 625.085 29.0564 622.284 Q30.5842 619.451 33.7671 617.605 M46.212 637.561 Q52.6732 637.561 56.3653 634.92 Q60.0256 632.246 60.0256 627.599 Q60.0256 622.952 56.3653 620.278 Q52.6732 617.605 46.212 617.605 Q39.7508 617.605 36.0905 620.278 Q32.3984 622.952 32.3984 627.599 Q32.3984 632.246 36.0905 634.92 Q39.7508 637.561 46.212 637.561 Z" fill="#000000" fill-rule="nonzero" fill-opacity="1" /><path clip-path="url(#clip630)" d="M969.49 14.0809 L969.49 22.0612 Q964.831 19.8332 960.699 18.7395 Q956.567 17.6457 952.719 17.6457 Q946.035 17.6457 942.389 20.2383 Q938.784 22.8309 938.784 27.611 Q938.784 31.6214 941.174 33.6873 Q943.605 35.7128 950.329 36.9686 L955.271 37.9813 Q964.426 39.7232 968.761 44.1387 Q973.136 48.5136 973.136 55.8863 Q973.136 64.6767 967.221 69.2137 Q961.348 73.7508 949.965 73.7508 Q945.671 73.7508 940.809 72.7785 Q935.989 71.8063 930.804 69.9024 L930.804 61.4765 Q935.786 64.2716 940.566 65.6895 Q945.346 67.1073 949.965 67.1073 Q956.973 67.1073 960.78 64.3527 Q964.588 61.598 964.588 56.4939 Q964.588 52.0379 961.834 49.5264 Q959.12 47.0148 952.881 45.759 L947.899 44.7868 Q938.744 42.9639 934.652 39.075 Q930.561 35.1862 930.561 28.2591 Q930.561 20.2383 936.191 15.6203 Q941.863 11.0023 951.787 11.0023 Q956.041 11.0023 960.456 11.7719 Q964.872 12.5416 969.49 14.0809 Z" fill="#000000" fill-rule="nonzero" fill-opacity="1" /><path clip-path="url(#clip630)" d="M992.783 65.7705 L992.783 89.8329 L985.288 89.8329 L985.288 27.2059 L992.783 27.2059 L992.783 34.0924 Q995.132 30.0415 998.697 28.0971 Q1002.3 26.1121 1007.28 26.1121 Q1015.55 26.1121 1020.69 32.6746 Q1025.88 39.2371 1025.88 49.9314 Q1025.88 60.6258 1020.69 67.1883 Q1015.55 73.7508 1007.28 73.7508 Q1002.3 73.7508 998.697 71.8063 Q995.132 69.8214 992.783 65.7705 M1018.14 49.9314 Q1018.14 41.7081 1014.74 37.0496 Q1011.38 32.3505 1005.46 32.3505 Q999.548 32.3505 996.145 37.0496 Q992.783 41.7081 992.783 49.9314 Q992.783 58.1548 996.145 62.8538 Q999.548 67.5124 1005.46 67.5124 Q1011.38 67.5124 1014.74 62.8538 Q1018.14 58.1548 1018.14 49.9314 Z" fill="#000000" fill-rule="nonzero" fill-opacity="1" /><path clip-path="url(#clip630)" d="M1077.04 48.0275 L1077.04 51.6733 L1042.77 51.6733 Q1043.26 59.3701 1047.39 63.421 Q1051.56 67.4314 1058.97 67.4314 Q1063.27 67.4314 1067.28 66.3781 Q1071.33 65.3249 1075.3 63.2184 L1075.3 70.267 Q1071.29 71.9684 1067.08 72.8596 Q1062.86 73.7508 1058.53 73.7508 Q1047.67 73.7508 1041.31 67.4314 Q1034.99 61.1119 1034.99 50.3365 Q1034.99 39.1965 1040.99 32.6746 Q1047.02 26.1121 1057.23 26.1121 Q1066.39 26.1121 1071.69 32.0264 Q1077.04 37.9003 1077.04 48.0275 M1069.59 45.84 Q1069.51 39.7232 1066.14 36.0774 Q1062.82 32.4315 1057.31 32.4315 Q1051.08 32.4315 1047.31 35.9558 Q1043.58 39.4801 1043.01 45.8805 L1069.59 45.84 Z" fill="#000000" fill-rule="nonzero" fill-opacity="1" /><path clip-path="url(#clip630)" d="M1128.08 48.0275 L1128.08 51.6733 L1093.81 51.6733 Q1094.3 59.3701 1098.43 63.421 Q1102.6 67.4314 1110.02 67.4314 Q1114.31 67.4314 1118.32 66.3781 Q1122.37 65.3249 1126.34 63.2184 L1126.34 70.267 Q1122.33 71.9684 1118.12 72.8596 Q1113.9 73.7508 1109.57 73.7508 Q1098.71 73.7508 1092.35 67.4314 Q1086.03 61.1119 1086.03 50.3365 Q1086.03 39.1965 1092.03 32.6746 Q1098.07 26.1121 1108.27 26.1121 Q1117.43 26.1121 1122.74 32.0264 Q1128.08 37.9003 1128.08 48.0275 M1120.63 45.84 Q1120.55 39.7232 1117.19 36.0774 Q1113.86 32.4315 1108.35 32.4315 Q1102.12 32.4315 1098.35 35.9558 Q1094.62 39.4801 1094.06 45.8805 L1120.63 45.84 Z" fill="#000000" fill-rule="nonzero" fill-opacity="1" /><path clip-path="url(#clip630)" d="M1170.17 34.0924 L1170.17 9.54393 L1177.63 9.54393 L1177.63 72.576 L1170.17 72.576 L1170.17 65.7705 Q1167.82 69.8214 1164.22 71.8063 Q1160.65 73.7508 1155.63 73.7508 Q1147.41 73.7508 1142.22 67.1883 Q1137.08 60.6258 1137.08 49.9314 Q1137.08 39.2371 1142.22 32.6746 Q1147.41 26.1121 1155.63 26.1121 Q1160.65 26.1121 1164.22 28.0971 Q1167.82 30.0415 1170.17 34.0924 M1144.77 49.9314 Q1144.77 58.1548 1148.13 62.8538 Q1151.54 67.5124 1157.45 67.5124 Q1163.37 67.5124 1166.77 62.8538 Q1170.17 58.1548 1170.17 49.9314 Q1170.17 41.7081 1166.77 37.0496 Q1163.37 32.3505 1157.45 32.3505 Q1151.54 32.3505 1148.13 37.0496 Q1144.77 41.7081 1144.77 49.9314 Z" fill="#000000" fill-rule="nonzero" fill-opacity="1" /><path clip-path="url(#clip630)" d="M1227.86 18.8205 L1227.86 65.8515 L1237.74 65.8515 Q1250.26 65.8515 1256.05 60.1802 Q1261.88 54.509 1261.88 42.2752 Q1261.88 30.1225 1256.05 24.4918 Q1250.26 18.8205 1237.74 18.8205 L1227.86 18.8205 M1219.67 12.096 L1236.48 12.096 Q1254.07 12.096 1262.29 19.4281 Q1270.51 26.7198 1270.51 42.2752 Q1270.51 57.9117 1262.25 65.2439 Q1253.98 72.576 1236.48 72.576 L1219.67 72.576 L1219.67 12.096 Z" fill="#000000" fill-rule="nonzero" fill-opacity="1" /><path clip-path="url(#clip630)" d="M1283.23 27.2059 L1290.69 27.2059 L1290.69 72.576 L1283.23 72.576 L1283.23 27.2059 M1283.23 9.54393 L1290.69 9.54393 L1290.69 18.9825 L1283.23 18.9825 L1283.23 9.54393 Z" fill="#000000" fill-rule="nonzero" fill-opacity="1" /><path clip-path="url(#clip630)" d="M1335.21 28.5427 L1335.21 35.5912 Q1332.05 33.9709 1328.64 33.1607 Q1325.24 32.3505 1321.59 32.3505 Q1316.04 32.3505 1313.25 34.0519 Q1310.49 35.7533 1310.49 39.156 Q1310.49 41.7486 1312.48 43.2475 Q1314.46 44.7058 1320.46 46.0426 L1323.01 46.6097 Q1330.95 48.3111 1334.27 51.4303 Q1337.64 54.509 1337.64 60.0587 Q1337.64 66.3781 1332.61 70.0644 Q1327.63 73.7508 1318.88 73.7508 Q1315.23 73.7508 1311.26 73.0216 Q1307.34 72.3329 1302.96 70.9151 L1302.96 63.2184 Q1307.09 65.3654 1311.1 66.4591 Q1315.11 67.5124 1319.04 67.5124 Q1324.31 67.5124 1327.14 65.73 Q1329.98 63.9071 1329.98 60.6258 Q1329.98 57.5877 1327.91 55.9673 Q1325.89 54.3469 1318.96 52.8481 L1316.37 52.2405 Q1309.44 50.7821 1306.36 47.7845 Q1303.28 44.7463 1303.28 39.4801 Q1303.28 33.0797 1307.82 29.5959 Q1312.36 26.1121 1320.7 26.1121 Q1324.84 26.1121 1328.48 26.7198 Q1332.13 27.3274 1335.21 28.5427 Z" fill="#000000" fill-rule="nonzero" fill-opacity="1" /><path clip-path="url(#clip630)" d="M1356.72 65.7705 L1356.72 89.8329 L1349.22 89.8329 L1349.22 27.2059 L1356.72 27.2059 L1356.72 34.0924 Q1359.07 30.0415 1362.63 28.0971 Q1366.24 26.1121 1371.22 26.1121 Q1379.48 26.1121 1384.63 32.6746 Q1389.81 39.2371 1389.81 49.9314 Q1389.81 60.6258 1384.63 67.1883 Q1379.48 73.7508 1371.22 73.7508 Q1366.24 73.7508 1362.63 71.8063 Q1359.07 69.8214 1356.72 65.7705 M1382.07 49.9314 Q1382.07 41.7081 1378.67 37.0496 Q1375.31 32.3505 1369.4 32.3505 Q1363.48 32.3505 1360.08 37.0496 Q1356.72 41.7081 1356.72 49.9314 Q1356.72 58.1548 1360.08 62.8538 Q1363.48 67.5124 1369.4 67.5124 Q1375.31 67.5124 1378.67 62.8538 Q1382.07 58.1548 1382.07 49.9314 Z" fill="#000000" fill-rule="nonzero" fill-opacity="1" /><path clip-path="url(#clip630)" d="M1440.97 48.0275 L1440.97 51.6733 L1406.7 51.6733 Q1407.19 59.3701 1411.32 63.421 Q1415.49 67.4314 1422.91 67.4314 Q1427.2 67.4314 1431.21 66.3781 Q1435.26 65.3249 1439.23 63.2184 L1439.23 70.267 Q1435.22 71.9684 1431.01 72.8596 Q1426.8 73.7508 1422.46 73.7508 Q1411.61 73.7508 1405.25 67.4314 Q1398.93 61.1119 1398.93 50.3365 Q1398.93 39.1965 1404.92 32.6746 Q1410.96 26.1121 1421.17 26.1121 Q1430.32 26.1121 1435.63 32.0264 Q1440.97 37.9003 1440.97 48.0275 M1433.52 45.84 Q1433.44 39.7232 1430.08 36.0774 Q1426.76 32.4315 1421.25 32.4315 Q1415.01 32.4315 1411.24 35.9558 Q1407.51 39.4801 1406.95 45.8805 L1433.52 45.84 Z" fill="#000000" fill-rule="nonzero" fill-opacity="1" /><path clip-path="url(#clip630)" d="M1479.5 34.1734 Q1478.24 33.4443 1476.74 33.1202 Q1475.29 32.7556 1473.5 32.7556 Q1467.18 32.7556 1463.78 36.8875 Q1460.42 40.9789 1460.42 48.6757 L1460.42 72.576 L1452.92 72.576 L1452.92 27.2059 L1460.42 27.2059 L1460.42 34.2544 Q1462.77 30.1225 1466.54 28.1376 Q1470.3 26.1121 1475.69 26.1121 Q1476.46 26.1121 1477.39 26.2337 Q1478.32 26.3147 1479.46 26.5172 L1479.5 34.1734 Z" fill="#000000" fill-rule="nonzero" fill-opacity="1" /><path clip-path="url(#clip630)" d="M1516.24 28.5427 L1516.24 35.5912 Q1513.08 33.9709 1509.68 33.1607 Q1506.28 32.3505 1502.63 32.3505 Q1497.08 32.3505 1494.28 34.0519 Q1491.53 35.7533 1491.53 39.156 Q1491.53 41.7486 1493.51 43.2475 Q1495.5 44.7058 1501.5 46.0426 L1504.05 46.6097 Q1511.99 48.3111 1515.31 51.4303 Q1518.67 54.509 1518.67 60.0587 Q1518.67 66.3781 1513.65 70.0644 Q1508.67 73.7508 1499.92 73.7508 Q1496.27 73.7508 1492.3 73.0216 Q1488.37 72.3329 1484 70.9151 L1484 63.2184 Q1488.13 65.3654 1492.14 66.4591 Q1496.15 67.5124 1500.08 67.5124 Q1505.34 67.5124 1508.18 65.73 Q1511.01 63.9071 1511.01 60.6258 Q1511.01 57.5877 1508.95 55.9673 Q1506.92 54.3469 1500 52.8481 L1497.4 52.2405 Q1490.48 50.7821 1487.4 47.7845 Q1484.32 44.7463 1484.32 39.4801 Q1484.32 33.0797 1488.86 29.5959 Q1493.39 26.1121 1501.74 26.1121 Q1505.87 26.1121 1509.52 26.7198 Q1513.16 27.3274 1516.24 28.5427 Z" fill="#000000" fill-rule="nonzero" fill-opacity="1" /><path clip-path="url(#clip630)" d="M1530.54 27.2059 L1537.99 27.2059 L1537.99 72.576 L1530.54 72.576 L1530.54 27.2059 M1530.54 9.54393 L1537.99 9.54393 L1537.99 18.9825 L1530.54 18.9825 L1530.54 9.54393 Z" fill="#000000" fill-rule="nonzero" fill-opacity="1" /><path clip-path="url(#clip630)" d="M1571.17 32.4315 Q1565.18 32.4315 1561.69 37.1306 Q1558.21 41.7891 1558.21 49.9314 Q1558.21 58.0738 1561.65 62.7728 Q1565.13 67.4314 1571.17 67.4314 Q1577.13 67.4314 1580.61 62.7323 Q1584.09 58.0333 1584.09 49.9314 Q1584.09 41.8701 1580.61 37.1711 Q1577.13 32.4315 1571.17 32.4315 M1571.17 26.1121 Q1580.89 26.1121 1586.44 32.4315 Q1591.99 38.7509 1591.99 49.9314 Q1591.99 61.0714 1586.44 67.4314 Q1580.89 73.7508 1571.17 73.7508 Q1561.41 73.7508 1555.86 67.4314 Q1550.35 61.0714 1550.35 49.9314 Q1550.35 38.7509 1555.86 32.4315 Q1561.41 26.1121 1571.17 26.1121 Z" fill="#000000" fill-rule="nonzero" fill-opacity="1" /><path clip-path="url(#clip630)" d="M1642.06 45.1919 L1642.06 72.576 L1634.61 72.576 L1634.61 45.4349 Q1634.61 38.994 1632.1 35.7938 Q1629.58 32.5936 1624.56 32.5936 Q1618.53 32.5936 1615.04 36.4419 Q1611.56 40.2903 1611.56 46.9338 L1611.56 72.576 L1604.06 72.576 L1604.06 27.2059 L1611.56 27.2059 L1611.56 34.2544 Q1614.23 30.163 1617.84 28.1376 Q1621.48 26.1121 1626.22 26.1121 Q1634.04 26.1121 1638.05 30.9732 Q1642.06 35.7938 1642.06 45.1919 Z" fill="#000000" fill-rule="nonzero" fill-opacity="1" /><polyline clip-path="url(#clip632)" style="stroke:#009af9; stroke-linecap:round; stroke-linejoin:round; stroke-width:8; stroke-opacity:1; fill:none" points="280.231,704.57 284.263,651.807 288.296,525.123 292.328,444.45 296.361,398.808 300.393,337.489 304.425,284.294 308.458,245.767 312.49,215.132 316.523,196.22 320.555,190.153 324.587,192.127 328.62,200.696 332.652,207.465 336.684,209.142 340.717,206.366 344.749,197.96 348.782,189.35 352.814,191.613 356.846,199.196 360.879,206.312 364.911,210.846 368.944,211.681 372.976,211.285 377.008,209.104 381.041,205.944 385.073,203.777 389.105,208.11 393.138,213.421 397.17,218.319 401.203,223.758 405.235,234.746 409.267,243.414 413.3,251.329 417.332,257.762 421.365,262.985 425.397,268.275 429.429,272.56 433.462,278.889 437.494,284.036 441.526,290.933 445.559,298.822 449.591,307.4 453.624,314.576 457.656,321.719 461.688,332.692 465.721,339.257 469.753,341.213 473.786,340.824 477.818,337.956 481.85,330.943 485.883,325.31 489.915,326.586 493.947,328.54 497.98,329.473 502.012,327.283 506.045,325.746 510.077,326.165 514.109,325.729 518.142,323.175 522.174,320.094 526.207,316.062 530.239,312.392 534.271,318.042 538.304,323.077 542.336,327.879 546.368,330.232 550.401,342.236 554.433,355.217 558.466,368.999 562.498,383.362 566.53,396.716 570.563,408.364 574.595,419.402 578.628,439.57 582.66,459.616 586.692,476.481 590.725,488.468 594.757,495.604 598.789,500.441 602.822,503.662 606.854,504.303 610.887,515.971 614.919,524.054 618.951,531.04 622.984,534.072 627.016,535.19 631.049,536.914 635.081,556.734 639.113,577.072 643.146,595.812 647.178,611.149 651.21,622.248 655.243,630.197 659.275,632.882 663.308,632.052 667.34,621.475 671.372,610.888 675.405,602.289 679.437,590.071 683.47,581.32 687.502,575.347 691.534,593.606 695.567,608.421 699.599,622.322 703.631,646.727 707.664,685.639 711.696,720.64 715.729,750.17 719.761,773.32 723.793,784.964 727.826,789.708 731.858,787.364 735.891,781.453 739.923,770.126 743.955,758.909 747.988,760.374 752.02,760.561 756.052,772.412 760.085,779.375 764.117,783.456 768.15,784.505 772.182,792.353 776.214,794.573 780.247,794.808 784.279,791.423 788.312,783.449 792.344,769.615 796.376,753.616 800.409,747.326 804.441,749.505 808.473,747.16 812.506,739.52 816.538,748.064 820.571,763.943 824.603,775.341 828.635,785.327 832.668,791.717 836.7,790.802 840.733,786.365 844.765,779.647 848.797,771.882 852.83,774.512 856.862,775.794 860.894,778.835 864.927,779.234 868.959,777.79 872.992,776.754 877.024,771.417 881.056,763.495 885.089,763.925 889.121,760.641 893.154,763.339 897.186,766.056 901.218,773.931 905.251,781.957 909.283,790.381 913.315,797.849 917.348,805.757 921.38,813.742 925.413,820.893 929.445,822.583 933.477,826.84 937.51,831.789 941.542,836.12 945.575,841.137 949.607,848.758 953.639,855.655 957.672,863.562 961.704,872.095 965.736,881.095 969.769,890.852 973.801,900.611 977.834,910.747 981.866,919.743 985.898,929.269 989.931,945.615 993.963,955.738 997.996,965.571 1002.03,974.508 1006.06,982.506 1010.09,990.409 1014.13,996.523 1018.16,1002.49 1022.19,1008.07 1026.22,1012.97 1030.25,1017.32 1034.29,1021.84 1038.32,1025.86 1042.35,1030.8 1046.38,1034.35 1050.42,1038.08 1054.45,1042.25 1058.48,1046.44 1062.51,1050.31 1066.55,1055.6 1070.58,1063.51 1074.61,1070.44 1078.64,1075.86 1082.68,1082.51 1086.71,1089.53 1090.74,1095.84 1094.77,1101.27 1098.81,1107.54 1102.84,1111.47 1106.87,1114.28 1110.9,1118.68 1114.93,1123.47 1118.97,1129.35 1123,1134.59 1127.03,1138.04 1131.06,1142.11 1135.1,1147.41 1139.13,1152.97 1143.16,1159.29 1147.19,1168.15 1151.23,1176.32 1155.26,1183.12 1159.29,1188.74 1163.32,1194.46 1167.36,1201.59 1171.39,1206.89 1175.42,1210.83 1179.45,1215.83 1183.49,1220.59 1187.52,1225.13 1191.55,1231.46 1195.58,1238.97 1199.61,1246.05 1203.65,1252.71 1207.68,1259.31 1211.71,1266.05 1215.74,1271.64 1219.78,1277.4 1223.81,1281.93 1227.84,1286.18 1231.87,1289.79 1235.91,1294.37 1239.94,1302.56 1243.97,1309.3 1248,1315.06 1252.04,1322.84 1256.07,1331.68 1260.1,1339.91 1264.13,1346.4 1268.17,1349.46 1272.2,1352.65 1276.23,1355.26 1280.26,1357.7 1284.29,1358.58 1288.33,1357.63 1292.36,1356.49 1296.39,1355.07 1300.42,1354.28 1304.46,1354.59 1308.49,1354.8 1312.52,1356.75 1316.55,1357.97 1320.59,1357.47 1324.62,1355.72 1328.65,1353.95 1332.68,1351.54 1336.72,1352.78 1340.75,1354.33 1344.78,1355.24 1348.81,1355.53 1352.85,1357.64 1356.88,1358.79 1360.91,1360.44 1364.94,1362.69 1368.97,1364.11 1373.01,1364.56 1377.04,1369.46 1381.07,1374.82 1385.1,1379.24 1389.14,1383.77 1393.17,1385.54 1397.2,1386.4 1401.23,1378.07 1405.27,1357.37 1409.3,1336.5 1413.33,1317.26 1417.36,1301.78 1421.4,1293.07 1425.43,1285.14 1429.46,1278.9 1433.49,1275.12 1437.53,1272.38 1441.56,1271.29 1445.59,1282.16 1449.62,1293.84 1453.66,1307.63 1457.69,1322.47 1461.72,1332.17 1465.75,1342.45 1469.78,1351.39 1473.82,1359.19 1477.85,1364.1 1481.88,1368.25 1485.91,1370.39 1489.95,1359.06 1493.98,1346.99 1498.01,1334.2 1502.04,1321.49 1506.08,1308.79 1510.11,1299.43 1514.14,1291.14 1518.17,1282.91 1522.21,1273.92 1526.24,1265.43 1530.27,1269.66 1534.3,1274.8 1538.34,1280.29 1542.37,1286.04 1546.4,1291.83 1550.43,1298.36 1554.46,1304.35 1558.5,1309.3 1562.53,1315 1566.56,1298.21 1570.59,1281.5 1574.63,1264.78 1578.66,1248.54 1582.69,1234.01 1586.72,1221.15 1590.76,1209.87 1594.79,1200.03 1598.82,1207.97 1602.85,1216.12 1606.89,1224.65 1610.92,1232.94 1614.95,1235.84 1618.98,1230.04 1623.02,1219.39 1627.05,1205.39 1631.08,1173.34 1635.11,1144.8 1639.14,1122.43 1643.18,1102.07 1647.21,1113.99 1651.24,1123.29 1655.27,1132.95 1659.31,1154.57 1663.34,1178.35 1667.37,1201.55 1671.4,1221.63 1675.44,1240.44 1679.47,1259.01 1683.5,1258.99 1687.53,1259.54 1691.57,1257.81 1695.6,1238.52 1699.63,1216.71 1703.66,1193.95 1707.7,1173.59 1711.73,1153.12 1715.76,1132.32 1719.79,1153.61 1723.82,1172.75 1727.86,1190.11 1731.89,1205.78 1735.92,1219.68 1739.95,1232.02 1743.99,1233.39 1748.02,1228.56 1752.05,1218.42 1756.08,1204.83 1760.12,1177.97 1764.15,1150.46 1768.18,1131.48 1772.21,1112.42 1776.25,1093.3 1780.28,1075.89 1784.31,1095.97 1788.34,1115.23 1792.38,1126.96 1796.41,1136.01 1800.44,1142.71 1804.47,1147.64 1808.5,1160.83 1812.54,1173.4 1816.57,1185.95 1820.6,1197.63 1824.63,1198.11 1828.67,1190.68 1832.7,1180.08 1836.73,1175.93 1840.76,1167.37 1844.8,1156.6 1848.83,1165.7 1852.86,1171.04 1856.89,1174.72 1860.93,1172.18 1864.96,1169.14 1868.99,1170.19 1873.02,1171.07 1877.06,1184.73 1881.09,1195.53 1885.12,1209.72 1889.15,1226.62 1893.19,1230.48 1897.22,1225.14 1901.25,1216.79 1905.28,1207.51 1909.31,1222.26 1913.35,1235.94 1917.38,1247.59 1921.41,1248.04 1925.44,1244.79 1929.48,1239.66 1933.51,1232.67 1937.54,1224.32 1941.57,1234.28 1945.61,1246.83 1949.64,1259.24 1953.67,1270.5 1957.7,1281.08 1961.74,1290.54 1965.77,1301.18 1969.8,1295.15 1973.83,1290.2 1977.87,1265.93 1981.9,1243.21 1985.93,1239.1 1989.96,1261.49 1993.99,1281.77 1998.03,1300.34 2002.06,1319.2 2006.09,1337.58 2010.12,1330.75 2014.16,1312.84 2018.19,1294.31 2022.22,1276.92 2026.25,1285.9 2030.29,1291.93 2034.32,1306.76 2038.35,1318.42 2042.38,1327.8 2046.42,1333.45 2050.45,1315.21 2054.48,1285.06 2058.51,1254.21 2062.55,1223.77 2066.58,1204.77 2070.61,1184.09 2074.64,1205.47 2078.67,1225.09 2082.71,1242.95 2086.74,1258.6 2090.77,1272.43 2094.8,1281.89 2098.84,1287.47 2102.87,1287.52 2106.9,1287.2 2110.93,1302.46 2114.97,1317.28 2119,1329.37 2123.03,1338.91 2127.06,1331.77 2131.1,1313.24 2135.13,1303.13 2139.16,1286.62 2143.19,1266.34 2147.23,1242.26 2151.26,1251.63 2155.29,1269.48 2159.32,1285.64 2163.35,1299.5 2167.39,1310.54 2171.42,1318.56 2175.45,1324.81 2179.48,1328.33 2183.52,1337.62 2187.55,1346.37 2191.58,1333.66 2195.61,1314.27 2199.65,1292.95 2203.68,1272.71 2207.71,1285.82 2211.74,1295.27 2215.78,1302.1 2219.81,1305.39 2223.84,1320.47 2227.87,1334.49 2231.91,1346.9 2235.94,1353.76 2239.97,1334.13 2244,1312.62 2248.03,1290.74 2252.07,1301.56 2256.1,1309.93 2260.13,1316.76 2264.16,1328.28 2268.2,1337.32 2272.23,1344.95 2276.26,1324.7 2280.29,1301.45 2284.33,1309.61 2288.36,1315.84 2292.39,1323.84 "/>
<polyline clip-path="url(#clip632)" style="stroke:#e26f46; stroke-linecap:round; stroke-linejoin:round; stroke-width:8; stroke-opacity:1; fill:none" points="280.231,693.065 284.263,629.633 288.296,509.055 292.328,422.689 296.361,375.545 300.393,319.414 304.425,293.038 308.458,268.474 312.49,245.345 316.523,226.517 320.555,215.809 324.587,209.413 328.62,207.743 332.652,203.938 336.684,198.926 340.717,193.466 344.749,183.326 348.782,168.117 352.814,160.256 356.846,160.679 360.879,161.979 364.911,165.318 368.944,170.164 372.976,174.155 377.008,177.224 381.041,179.264 385.073,181.355 389.105,183.435 393.138,188.219 397.17,194.316 401.203,198.7 405.235,205.884 409.267,212.933 413.3,220.414 417.332,224.475 421.365,228.259 425.397,232.517 429.429,238.448 433.462,247.69 437.494,257.416 441.526,265.619 445.559,274.295 449.591,284.664 453.624,293.771 457.656,304.358 461.688,314.676 465.721,324.386 469.753,333.314 473.786,343.621 477.818,354.118 481.85,364.382 485.883,373.651 489.915,381.09 493.947,391.216 497.98,396.142 502.012,395.051 506.045,390.49 510.077,383.343 514.109,374.574 518.142,365.226 522.174,356.578 526.207,347.014 530.239,339.317 534.271,332.372 538.304,325.348 542.336,318.049 546.368,310.301 550.401,317.859 554.433,324.018 558.466,329.972 562.498,335.216 566.53,336.489 570.563,335.865 574.595,345.233 578.628,356.977 582.66,367.166 586.692,375.688 590.725,384.806 594.757,395.412 598.789,400.077 602.822,401.298 606.854,409.146 610.887,417.05 614.919,422.149 618.951,426.515 622.984,449.001 627.016,470.331 631.049,488.042 635.081,504.172 639.113,519.716 643.146,535.653 647.178,551.682 651.21,564.771 655.243,576.029 659.275,582.937 663.308,588.221 667.34,589.906 671.372,588.501 675.405,585.355 679.437,584.963 683.47,586.11 687.502,591.023 691.534,610.775 695.567,629.005 699.599,645.347 703.631,657.008 707.664,662.923 711.696,663.989 715.729,661.558 719.761,655.696 723.793,651.244 727.826,662.619 731.858,672.923 735.891,682.484 739.923,691.913 743.955,700.885 747.988,707.5 752.02,713.043 756.052,717.327 760.085,721.845 764.117,723.541 768.15,721.383 772.182,715.37 776.214,703.902 780.247,690.948 784.279,675.936 788.312,659.197 792.344,654.818 796.376,649.925 800.409,655.236 804.441,658.724 808.473,661.384 812.506,661.375 816.538,659.95 820.571,656.979 824.603,653.249 828.635,649.551 832.668,643.528 836.7,636.747 840.733,628.696 844.765,618.949 848.797,612.923 852.83,605.899 856.862,607.923 860.894,608.874 864.927,607.26 868.959,603.905 872.992,598.852 877.024,593.213 881.056,592.508 885.089,590.681 889.121,587.976 893.154,585.19 897.186,582.758 901.218,578.995 905.251,574.178 909.283,570.481 913.315,572.757 917.348,574.269 921.38,575.258 925.413,577.304 929.445,578.646 933.477,579.225 937.51,579.743 941.542,578.581 945.575,577.104 949.607,574.78 953.639,572.935 957.672,572.865 961.704,573.58 965.736,573.853 969.769,575.158 973.801,577.54 977.834,580.385 981.866,584.442 985.898,588.756 989.931,592.028 993.963,597.706 997.996,603.448 1002.03,610.021 1006.06,617.072 1010.09,624.274 1014.13,630.638 1018.16,638.383 1022.19,646.493 1026.22,654.284 1030.25,661.624 1034.29,669.101 1038.32,675.45 1042.35,682.701 1046.38,689.371 1050.42,695.964 1054.45,702.692 1058.48,708.503 1062.51,714.703 1066.55,720.953 1070.58,727.374 1074.61,733.639 1078.64,740.214 1082.68,745.364 1086.71,750.631 1090.74,754.832 1094.77,759.76 1098.81,764.5 1102.84,769.024 1106.87,774.667 1110.9,781.638 1114.93,790.167 1118.97,798.931 1123,807.306 1127.03,815.909 1131.06,824.848 1135.1,833.259 1139.13,841.71 1143.16,848.923 1147.19,855.412 1151.23,862.156 1155.26,869.198 1159.29,876.423 1163.32,883.937 1167.36,890.882 1171.39,897.431 1175.42,903.728 1179.45,910.549 1183.49,917.855 1187.52,926.969 1191.55,936.949 1195.58,947.366 1199.61,956.86 1203.65,967.666 1207.68,979.772 1211.71,990.525 1215.74,1002.48 1219.78,1014.17 1223.81,1025.45 1227.84,1035.44 1231.87,1046.72 1235.91,1057.01 1239.94,1067.57 1243.97,1078.35 1248,1088.82 1252.04,1100.3 1256.07,1112.36 1260.1,1122.38 1264.13,1131.46 1268.17,1140.37 1272.2,1148.29 1276.23,1155.21 1280.26,1163.06 1284.29,1169.98 1288.33,1176.44 1292.36,1183.04 1296.39,1190.49 1300.42,1197.05 1304.46,1201.97 1308.49,1206.06 1312.52,1210.05 1316.55,1214.04 1320.59,1217.09 1324.62,1220.91 1328.65,1225.16 1332.68,1229.93 1336.72,1235.28 1340.75,1242.05 1344.78,1248.17 1348.81,1253.67 1352.85,1259.18 1356.88,1263.56 1360.91,1267.68 1364.94,1272.96 1368.97,1280.01 1373.01,1286.12 1377.04,1289.96 1381.07,1293.15 1385.1,1295.14 1389.14,1296.07 1393.17,1296.3 1397.2,1295.65 1401.23,1294.86 1405.27,1294.34 1409.3,1293.64 1413.33,1292.84 1417.36,1291.39 1421.4,1280.64 1425.43,1263.27 1429.46,1242.97 1433.49,1220.07 1437.53,1196.52 1441.56,1173.89 1445.59,1152.94 1449.62,1135.19 1453.66,1118.79 1457.69,1136.83 1461.72,1154.44 1465.75,1171.49 1469.78,1187.66 1473.82,1203.44 1477.85,1222.24 1481.88,1239.14 1485.91,1255.64 1489.95,1271.91 1493.98,1285.89 1498.01,1288.52 1502.04,1287.85 1506.08,1286.59 1510.11,1283.15 1514.14,1279.23 1518.17,1275.86 1522.21,1262.62 1526.24,1247.73 1530.27,1230.98 1534.3,1213.46 1538.34,1199.43 1542.37,1184.27 1546.4,1169.24 1550.43,1154.93 1554.46,1140.86 1558.5,1127.02 1562.53,1147.72 1566.56,1167.88 1570.59,1187.05 1574.63,1205.29 1578.66,1222.88 1582.69,1238.46 1586.72,1252.67 1590.76,1266.15 1594.79,1279.19 1598.82,1289.82 1602.85,1298.83 1606.89,1305.88 1610.92,1290.84 1614.95,1272.54 1618.98,1251.28 1623.02,1228.85 1627.05,1206.55 1631.08,1185.02 1635.11,1164.13 1639.14,1144.49 1643.18,1162.48 1647.21,1180.31 1651.24,1196.8 1655.27,1212.3 1659.31,1226.8 1663.34,1241.23 1667.37,1256.81 1671.4,1270.53 1675.44,1282.84 1679.47,1290.92 1683.5,1299.16 1687.53,1308.27 1691.57,1315.88 1695.6,1323.03 1699.63,1330.51 1703.66,1338.08 1707.7,1313.73 1711.73,1284.41 1715.76,1255.02 1719.79,1225.65 1723.82,1197.36 1727.86,1175.42 1731.89,1197.74 1735.92,1217.62 1739.95,1231.49 1743.99,1239.26 1748.02,1241.9 1752.05,1241.06 1756.08,1236.84 1760.12,1231.1 1764.15,1246.56 1768.18,1261.12 1772.21,1257.62 1776.25,1249.32 1780.28,1237.72 1784.31,1224.4 1788.34,1209.73 1792.38,1194.58 1796.41,1179.67 1800.44,1204.85 1804.47,1227.89 1808.5,1249.44 1812.54,1269.67 1816.57,1288.44 1820.6,1304.67 1824.63,1318.35 1828.67,1294.53 1832.7,1268.65 1836.73,1242.89 1840.76,1217.84 1844.8,1193.59 1848.83,1182.63 1852.86,1167.66 1856.89,1183.56 1860.93,1205.93 1864.96,1226.93 1868.99,1247.25 1873.02,1264.04 1877.06,1276.95 1881.09,1285.77 1885.12,1295.03 1889.15,1287.93 1893.19,1266.05 1897.22,1241.16 1901.25,1216.85 1905.28,1192.95 1909.31,1170.61 1913.35,1187.72 1917.38,1204.17 1921.41,1219.97 1925.44,1236.31 1929.48,1251.48 1933.51,1265.84 1937.54,1278.23 1941.57,1289.56 1945.61,1301.5 1949.64,1307.55 1953.67,1302.92 1957.7,1302.11 1961.74,1301.93 1965.77,1300.56 1969.8,1293.42 1973.83,1287.61 1977.87,1276.27 1981.9,1264.38 1985.93,1250.3 1989.96,1233.06 1993.99,1237.85 1998.03,1233.5 2002.06,1223.51 2006.09,1236.42 2010.12,1247.03 2014.16,1257.07 2018.19,1268.27 2022.22,1278.29 2026.25,1287.54 2030.29,1294.8 2034.32,1301.72 2038.35,1306.15 2042.38,1303.43 2046.42,1294 2050.45,1280.06 2054.48,1265.15 2058.51,1250.82 2062.55,1262.1 2066.58,1274.7 2070.61,1285.5 2074.64,1295.14 2078.67,1291.26 2082.71,1278.99 2086.74,1261.47 2090.77,1271.7 2094.8,1284.14 2098.84,1296.31 2102.87,1294.46 2106.9,1287.88 2110.93,1275.23 2114.97,1260.04 2119,1243.8 2123.03,1257.21 2127.06,1270 2131.1,1282.93 2135.13,1282.14 2139.16,1272.02 2143.19,1277.31 2147.23,1279.74 2151.26,1283.7 2155.29,1286.84 2159.32,1300.45 2163.35,1294.97 2167.39,1274.99 2171.42,1251.27 2175.45,1241.88 2179.48,1258.87 2183.52,1274.79 2187.55,1290.12 2191.58,1303.74 2195.61,1315.52 2199.65,1328.27 2203.68,1318.7 2207.71,1308.14 2211.74,1296.55 2215.78,1284.82 2219.81,1273.86 2223.84,1284.69 2227.87,1288.61 2231.91,1300.43 2235.94,1311.56 2239.97,1299.35 2244,1283.77 2248.03,1267.98 2252.07,1251.83 2256.1,1258.9 2260.13,1268.06 2264.16,1273.19 2268.2,1278.29 2272.23,1269.54 2276.26,1259.75 2280.29,1249.55 2284.33,1254.2 2288.36,1250.03 2292.39,1236.37 "/>
<path clip-path="url(#clip630)" d="M1809.95 322.316 L2281.66 322.316 L2281.66 166.796 L1809.95 166.796  Z" fill="#ffffff" fill-rule="evenodd" fill-opacity="1"/>
<polyline clip-path="url(#clip630)" style="stroke:#000000; stroke-linecap:round; stroke-linejoin:round; stroke-width:4; stroke-opacity:1; fill:none" points="1809.95,322.316 2281.66,322.316 2281.66,166.796 1809.95,166.796 1809.95,322.316 "/>
<polyline clip-path="url(#clip630)" style="stroke:#009af9; stroke-linecap:round; stroke-linejoin:round; stroke-width:8; stroke-opacity:1; fill:none" points="1833.64,218.636 1975.84,218.636 "/>
<path clip-path="url(#clip630)" d="M1999.54 201.356 L2006.5 201.356 L2015.32 224.874 L2024.19 201.356 L2031.16 201.356 L2031.16 235.916 L2026.6 235.916 L2026.6 205.569 L2017.68 229.272 L2012.99 229.272 L2004.07 205.569 L2004.07 235.916 L1999.54 235.916 L1999.54 201.356 Z" fill="#000000" fill-rule="nonzero" fill-opacity="1" /><path clip-path="url(#clip630)" d="M2062.43 221.888 L2062.43 223.971 L2042.85 223.971 Q2043.12 228.369 2045.49 230.684 Q2047.87 232.976 2052.11 232.976 Q2054.56 232.976 2056.85 232.374 Q2059.17 231.772 2061.43 230.569 L2061.43 234.596 Q2059.14 235.568 2056.74 236.078 Q2054.33 236.587 2051.85 236.587 Q2045.65 236.587 2042.01 232.976 Q2038.4 229.365 2038.4 223.207 Q2038.4 216.842 2041.83 213.115 Q2045.28 209.365 2051.11 209.365 Q2056.34 209.365 2059.37 212.745 Q2062.43 216.101 2062.43 221.888 M2058.17 220.638 Q2058.12 217.143 2056.2 215.059 Q2054.3 212.976 2051.16 212.976 Q2047.59 212.976 2045.44 214.99 Q2043.31 217.004 2042.99 220.661 L2058.17 220.638 Z" fill="#000000" fill-rule="nonzero" fill-opacity="1" /><path clip-path="url(#clip630)" d="M2073.63 202.629 L2073.63 209.99 L2082.41 209.99 L2082.41 213.3 L2073.63 213.3 L2073.63 227.374 Q2073.63 230.545 2074.49 231.448 Q2075.37 232.351 2078.03 232.351 L2082.41 232.351 L2082.41 235.916 L2078.03 235.916 Q2073.1 235.916 2071.23 234.087 Q2069.35 232.235 2069.35 227.374 L2069.35 213.3 L2066.23 213.3 L2066.23 209.99 L2069.35 209.99 L2069.35 202.629 L2073.63 202.629 Z" fill="#000000" fill-rule="nonzero" fill-opacity="1" /><path clip-path="url(#clip630)" d="M2103.03 213.971 Q2102.31 213.555 2101.46 213.37 Q2100.62 213.161 2099.61 213.161 Q2095.99 213.161 2094.05 215.522 Q2092.13 217.86 2092.13 222.258 L2092.13 235.916 L2087.85 235.916 L2087.85 209.99 L2092.13 209.99 L2092.13 214.018 Q2093.47 211.657 2095.62 210.522 Q2097.78 209.365 2100.86 209.365 Q2101.29 209.365 2101.83 209.434 Q2102.36 209.481 2103.01 209.596 L2103.03 213.971 Z" fill="#000000" fill-rule="nonzero" fill-opacity="1" /><path clip-path="url(#clip630)" d="M2107.5 209.99 L2111.76 209.99 L2111.76 235.916 L2107.5 235.916 L2107.5 209.99 M2107.5 199.897 L2111.76 199.897 L2111.76 205.291 L2107.5 205.291 L2107.5 199.897 Z" fill="#000000" fill-rule="nonzero" fill-opacity="1" /><path clip-path="url(#clip630)" d="M2139.33 210.985 L2139.33 214.967 Q2137.52 213.971 2135.69 213.485 Q2133.89 212.976 2132.04 212.976 Q2127.89 212.976 2125.6 215.615 Q2123.31 218.231 2123.31 222.976 Q2123.31 227.721 2125.6 230.36 Q2127.89 232.976 2132.04 232.976 Q2133.89 232.976 2135.69 232.49 Q2137.52 231.981 2139.33 230.985 L2139.33 234.92 Q2137.54 235.754 2135.62 236.17 Q2133.73 236.587 2131.57 236.587 Q2125.72 236.587 2122.27 232.906 Q2118.82 229.226 2118.82 222.976 Q2118.82 216.633 2122.29 212.999 Q2125.79 209.365 2131.85 209.365 Q2133.82 209.365 2135.69 209.782 Q2137.57 210.175 2139.33 210.985 Z" fill="#000000" fill-rule="nonzero" fill-opacity="1" /><polyline clip-path="url(#clip630)" style="stroke:#e26f46; stroke-linecap:round; stroke-linejoin:round; stroke-width:8; stroke-opacity:1; fill:none" points="1833.64,270.476 1975.84,270.476 "/>
<path clip-path="url(#clip630)" d="M1999.54 253.196 L2028.77 253.196 L2028.77 257.131 L2016.5 257.131 L2016.5 287.756 L2011.8 287.756 L2011.8 257.131 L1999.54 257.131 L1999.54 253.196 Z" fill="#000000" fill-rule="nonzero" fill-opacity="1" /><path clip-path="url(#clip630)" d="M2035.09 264.816 Q2031.67 264.816 2029.67 267.501 Q2027.68 270.163 2027.68 274.816 Q2027.68 279.469 2029.65 282.154 Q2031.64 284.816 2035.09 284.816 Q2038.49 284.816 2040.49 282.131 Q2042.48 279.446 2042.48 274.816 Q2042.48 270.21 2040.49 267.524 Q2038.49 264.816 2035.09 264.816 M2035.09 261.205 Q2040.65 261.205 2043.82 264.816 Q2046.99 268.427 2046.99 274.816 Q2046.99 281.182 2043.82 284.816 Q2040.65 288.427 2035.09 288.427 Q2029.51 288.427 2026.34 284.816 Q2023.19 281.182 2023.19 274.816 Q2023.19 268.427 2026.34 264.816 Q2029.51 261.205 2035.09 261.205 Z" fill="#000000" fill-rule="nonzero" fill-opacity="1" /><path clip-path="url(#clip630)" d="M2058.17 283.867 L2058.17 297.617 L2053.89 297.617 L2053.89 261.83 L2058.17 261.83 L2058.17 265.765 Q2059.51 263.45 2061.55 262.339 Q2063.61 261.205 2066.46 261.205 Q2071.18 261.205 2074.12 264.955 Q2077.08 268.705 2077.08 274.816 Q2077.08 280.927 2074.12 284.677 Q2071.18 288.427 2066.46 288.427 Q2063.61 288.427 2061.55 287.316 Q2059.51 286.182 2058.17 283.867 M2072.66 274.816 Q2072.66 270.117 2070.72 267.455 Q2068.8 264.77 2065.42 264.77 Q2062.04 264.77 2060.09 267.455 Q2058.17 270.117 2058.17 274.816 Q2058.17 279.515 2060.09 282.2 Q2062.04 284.862 2065.42 284.862 Q2068.8 284.862 2070.72 282.2 Q2072.66 279.515 2072.66 274.816 Z" fill="#000000" fill-rule="nonzero" fill-opacity="1" /><path clip-path="url(#clip630)" d="M2094.19 264.816 Q2090.76 264.816 2088.77 267.501 Q2086.78 270.163 2086.78 274.816 Q2086.78 279.469 2088.75 282.154 Q2090.74 284.816 2094.19 284.816 Q2097.59 284.816 2099.58 282.131 Q2101.57 279.446 2101.57 274.816 Q2101.57 270.21 2099.58 267.524 Q2097.59 264.816 2094.19 264.816 M2094.19 261.205 Q2099.74 261.205 2102.92 264.816 Q2106.09 268.427 2106.09 274.816 Q2106.09 281.182 2102.92 284.816 Q2099.74 288.427 2094.19 288.427 Q2088.61 288.427 2085.44 284.816 Q2082.29 281.182 2082.29 274.816 Q2082.29 268.427 2085.44 264.816 Q2088.61 261.205 2094.19 261.205 Z" fill="#000000" fill-rule="nonzero" fill-opacity="1" /><path clip-path="url(#clip630)" d="M2113.15 251.737 L2117.41 251.737 L2117.41 287.756 L2113.15 287.756 L2113.15 251.737 Z" fill="#000000" fill-rule="nonzero" fill-opacity="1" /><path clip-path="url(#clip630)" d="M2136.36 264.816 Q2132.94 264.816 2130.95 267.501 Q2128.96 270.163 2128.96 274.816 Q2128.96 279.469 2130.92 282.154 Q2132.92 284.816 2136.36 284.816 Q2139.77 284.816 2141.76 282.131 Q2143.75 279.446 2143.75 274.816 Q2143.75 270.21 2141.76 267.524 Q2139.77 264.816 2136.36 264.816 M2136.36 261.205 Q2141.92 261.205 2145.09 264.816 Q2148.26 268.427 2148.26 274.816 Q2148.26 281.182 2145.09 284.816 Q2141.92 288.427 2136.36 288.427 Q2130.79 288.427 2127.61 284.816 Q2124.47 281.182 2124.47 274.816 Q2124.47 268.427 2127.61 264.816 Q2130.79 261.205 2136.36 261.205 Z" fill="#000000" fill-rule="nonzero" fill-opacity="1" /><path clip-path="url(#clip630)" d="M2172.38 274.492 Q2172.38 269.862 2170.46 267.316 Q2168.56 264.77 2165.11 264.77 Q2161.69 264.77 2159.77 267.316 Q2157.87 269.862 2157.87 274.492 Q2157.87 279.098 2159.77 281.645 Q2161.69 284.191 2165.11 284.191 Q2168.56 284.191 2170.46 281.645 Q2172.38 279.098 2172.38 274.492 M2176.64 284.538 Q2176.64 291.158 2173.7 294.376 Q2170.76 297.617 2164.7 297.617 Q2162.45 297.617 2160.46 297.27 Q2158.47 296.945 2156.6 296.251 L2156.6 292.108 Q2158.47 293.126 2160.3 293.612 Q2162.13 294.098 2164.03 294.098 Q2168.22 294.098 2170.3 291.899 Q2172.38 289.723 2172.38 285.302 L2172.38 283.196 Q2171.06 285.487 2169 286.621 Q2166.94 287.756 2164.07 287.756 Q2159.3 287.756 2156.39 284.121 Q2153.47 280.487 2153.47 274.492 Q2153.47 268.473 2156.39 264.839 Q2159.3 261.205 2164.07 261.205 Q2166.94 261.205 2169 262.339 Q2171.06 263.473 2172.38 265.765 L2172.38 261.83 L2176.64 261.83 L2176.64 284.538 Z" fill="#000000" fill-rule="nonzero" fill-opacity="1" /><path clip-path="url(#clip630)" d="M2185.41 261.83 L2189.67 261.83 L2189.67 287.756 L2185.41 287.756 L2185.41 261.83 M2185.41 251.737 L2189.67 251.737 L2189.67 257.131 L2185.41 257.131 L2185.41 251.737 Z" fill="#000000" fill-rule="nonzero" fill-opacity="1" /><path clip-path="url(#clip630)" d="M2217.24 262.825 L2217.24 266.807 Q2215.44 265.811 2213.61 265.325 Q2211.8 264.816 2209.95 264.816 Q2205.81 264.816 2203.52 267.455 Q2201.23 270.071 2201.23 274.816 Q2201.23 279.561 2203.52 282.2 Q2205.81 284.816 2209.95 284.816 Q2211.8 284.816 2213.61 284.33 Q2215.44 283.821 2217.24 282.825 L2217.24 286.76 Q2215.46 287.594 2213.54 288.01 Q2211.64 288.427 2209.49 288.427 Q2203.63 288.427 2200.18 284.746 Q2196.73 281.066 2196.73 274.816 Q2196.73 268.473 2200.21 264.839 Q2203.7 261.205 2209.77 261.205 Q2211.73 261.205 2213.61 261.622 Q2215.48 262.015 2217.24 262.825 Z" fill="#000000" fill-rule="nonzero" fill-opacity="1" /><path clip-path="url(#clip630)" d="M2236.43 274.723 Q2231.27 274.723 2229.28 275.904 Q2227.29 277.084 2227.29 279.932 Q2227.29 282.2 2228.77 283.543 Q2230.28 284.862 2232.85 284.862 Q2236.39 284.862 2238.52 282.362 Q2240.67 279.839 2240.67 275.672 L2240.67 274.723 L2236.43 274.723 M2244.93 272.964 L2244.93 287.756 L2240.67 287.756 L2240.67 283.821 Q2239.21 286.182 2237.03 287.316 Q2234.86 288.427 2231.71 288.427 Q2227.73 288.427 2225.37 286.205 Q2223.03 283.959 2223.03 280.209 Q2223.03 275.834 2225.95 273.612 Q2228.89 271.39 2234.7 271.39 L2240.67 271.39 L2240.67 270.973 Q2240.67 268.034 2238.72 266.436 Q2236.8 264.816 2233.31 264.816 Q2231.09 264.816 2228.98 265.348 Q2226.87 265.881 2224.93 266.946 L2224.93 263.01 Q2227.27 262.108 2229.47 261.668 Q2231.66 261.205 2233.75 261.205 Q2239.37 261.205 2242.15 264.122 Q2244.93 267.038 2244.93 272.964 Z" fill="#000000" fill-rule="nonzero" fill-opacity="1" /><path clip-path="url(#clip630)" d="M2253.7 251.737 L2257.96 251.737 L2257.96 287.756 L2253.7 287.756 L2253.7 251.737 Z" fill="#000000" fill-rule="nonzero" fill-opacity="1" /></svg>
